<?xml version="1.0" standalone="no"?>
<!DOCTYPE svg PUBLIC "-//W3C//DTD SVG 1.1//EN" "http://www.w3.org/Graphics/SVG/1.1/DTD/svg11.dtd" >
<svg>
<metadata>
Created by FontForge 20110222 at Fri Jul 19 11:15:27 2013
 By www-data
4.1 (c)1986-92 by Richard A. Ware. All Rights Reserved.
</metadata>
<defs>
<font id="SansSerifBldFLF" horiz-adv-x="332" >
  <font-face 
    font-family="SansSerifBldFLF"
    font-weight="550"
    font-stretch="normal"
    units-per-em="1000"
    panose-1="2 0 6 3 4 0 0 2 0 3"
    ascent="800"
    descent="-200"
    x-height="460"
    cap-height="714"
    bbox="-41 -204 1063 896"
    underline-thickness="35"
    underline-position="-91"
    stemh="151"
    stemv="173"
    unicode-range="U+0020-FB02"
  />
<missing-glyph horiz-adv-x="500" 
 />
    <glyph glyph-name="fi" unicode="fi" horiz-adv-x="629" 
d="M87 318h-56v142h56v96c0 105 70 185 236 185c184 0 246 -85 246 -212h-171c0 49 -18 74 -68 74c-49 0 -70 -22 -70 -62v-81h100v-142h-100v-318h-173v318zM571 460v-460h-173v460h173z" />
    <glyph glyph-name="fl" unicode="fl" horiz-adv-x="629" 
d="M571 0h-173v541c0 41 -22 62 -68 62c-45 0 -70 -20 -70 -62v-81h100v-142h-100v-318h-173v318h-56v142h56v117c0 90 70 164 236 164c160 0 247 -55 247 -164z" />
    <glyph glyph-name=".notdef" horiz-adv-x="500" 
 />
    <glyph glyph-name="NUL" unicode="&#xe002;" horiz-adv-x="0" 
 />
    <glyph glyph-name="Eth" unicode="&#xd0;" horiz-adv-x="668" 
d="M235 403h110v-90h-110v-161h45c120 0 189 97 189 203s-70 206 -189 206h-45v-158zM61 313h-60v90h60v311h245c230 0 346 -179 346 -358c0 -178 -115 -356 -346 -356h-245v313z" />
    <glyph glyph-name="eth" unicode="&#xf0;" horiz-adv-x="552" 
d="M184 230c0 -52 43 -95 95 -95c54 0 95 43 95 95s-41 95 -95 95c-52 0 -95 -43 -95 -95zM336 470c-12 45 -41 89 -77 119l-118 -74l-63 40l119 77c-49 29 -100 53 -151 70l73 76c57 -18 128 -45 183 -81l114 70l63 -41l-112 -70c94 -62 164 -203 164 -413
c0 -123 -82 -256 -251 -256s-254 121 -254 244c0 121 85 244 254 244c23 0 36 0 56 -5z" />
    <glyph glyph-name="Lslash" unicode="&#x141;" horiz-adv-x="464" 
d="M61 343v371h174v-232l55 55v-131l-55 -55v-198h191v-153h-365v212l-43 -44v131z" />
    <glyph glyph-name="lslash" unicode="&#x142;" horiz-adv-x="306" 
d="M66 347v393h174v-254l47 47v-131l-47 -47v-355h-174v216l-48 -48v131z" />
    <glyph glyph-name="Scaron" unicode="&#x160;" horiz-adv-x="572" 
d="M428 860l-105 -106h-33l-108 106l23 21l101 -65l101 65zM455 528c-39 24 -77 41 -126 41c-43 0 -78 -21 -78 -61c0 -29 20 -50 83 -59c141 -21 210 -114 210 -223c0 -117 -90 -232 -260 -232c-128 0 -206 40 -274 94l87 126c48 -38 105 -67 176 -67c57 0 87 34 87 72
c0 48 -32 78 -95 89c-146 26 -204 99 -204 191c0 129 103 221 261 221c88 0 142 -21 194 -51z" />
    <glyph glyph-name="scaron" unicode="&#x161;" horiz-adv-x="429" 
d="M350 331c-23 13 -48 26 -89 26c-32 0 -45 -12 -45 -28c0 -15 14 -25 52 -31c93 -15 140 -79 140 -145c0 -97 -69 -165 -207 -165c-85 0 -147 31 -190 63l57 95c27 -19 75 -45 121 -45c32 0 51 9 51 29s-17 35 -61 42c-99 15 -140 62 -140 132c0 109 100 163 196 163
c82 0 111 -13 156 -32zM242 517h-36l-117 119l23 22l112 -71l112 71l27 -22z" />
    <glyph glyph-name="Yacute" unicode="&#xdd;" horiz-adv-x="658" 
d="M214 714l118 -186l110 186h204l-228 -352v-362h-173v362l-226 352h195zM458 844l-136 -102l-22 19l106 135z" />
    <glyph glyph-name="yacute" unicode="&#xfd;" horiz-adv-x="638" 
d="M321 218l133 242h174l-368 -661h-173l148 268l-220 393h173zM474 675l-161 -119l-26 22l125 159z" />
    <glyph glyph-name="HT" unicode="&#xe001;" horiz-adv-x="0" 
 />
    <glyph glyph-name="Thorn" unicode="&#xde;" horiz-adv-x="574" 
d="M557 362c0 -140 -101 -224 -229 -224h-93v-138h-174v714h174v-127h93c128 0 229 -85 229 -225zM235 291h77c50 0 72 29 72 71s-28 72 -72 72h-77v-143z" />
    <glyph glyph-name="thorn" unicode="&#xfe;" horiz-adv-x="599" 
d="M203 -200h-153v940h153v-309c23 16 66 39 138 39c153 0 229 -119 229 -238s-76 -238 -229 -238c-82 0 -113 18 -138 36v-230zM395 228c0 52 -43 95 -95 95s-95 -43 -95 -95s43 -95 95 -95s95 43 95 95z" />
    <glyph glyph-name="CR" unicode="&#xe000;" horiz-adv-x="0" 
 />
    <glyph glyph-name="Zcaron" unicode="&#x17d;" horiz-adv-x="660" 
d="M639 714l-336 -559h321v-155h-607l335 559h-295v155h582zM463 860l-105 -106h-33l-108 106l23 21l101 -65l101 65z" />
    <glyph glyph-name="zcaron" unicode="&#x17e;" horiz-adv-x="536" 
d="M517 460l-202 -320h187v-140h-467l216 320h-201v140h467zM292 517h-36l-117 119l23 22l112 -71l112 71l27 -22z" />
    <glyph glyph-name="onehalf" unicode="&#xbd;" 
d="M301 393v-36h-264v36h264zM57 208c0 60 35 114 111 114c73 0 114 -41 114 -92c0 -48 -17 -77 -45 -111l-45 -57h91v-64h-230l120 167c17 24 22 40 22 60s-11 29 -30 29c-24 0 -32 -22 -32 -46h-76zM213 743v-322h-78v262h-44v60h122z" />
    <glyph glyph-name="onequarter" unicode="&#xbc;" 
d="M301 393v-36h-264v36h264zM213 744v-322h-78v262h-44v60h122zM263 319v-206h41v-59h-41v-57h-78v57h-151v65l156 200h73zM185 113v111l-87 -111h87z" />
    <glyph glyph-name="onesuperior" unicode="&#xb9;" 
d="M213 744v-322h-78v262h-44v60h122z" />
    <glyph glyph-name="threequarters" unicode="&#xbe;" 
d="M301 393v-36h-264v36h264zM45 649c-1 46 30 98 118 98c73 0 119 -35 119 -88c0 -40 -13 -53 -33 -65c26 -9 43 -34 43 -75c0 -63 -54 -101 -126 -101c-82 0 -124 46 -124 97h73c0 -16 20 -32 48 -32c29 0 49 15 49 47c0 37 -24 45 -55 45v37c27 0 49 6 49 37
c0 27 -21 36 -45 36c-30 0 -44 -19 -44 -36h-72zM262 317v-206h41v-59h-41v-57h-78v57h-151v65l156 200h73zM184 111v111l-87 -111h87z" />
    <glyph glyph-name="threesuperior" unicode="&#xb3;" 
d="M45 649c-1 46 30 98 118 98c73 0 119 -35 119 -88c0 -40 -13 -53 -33 -65c26 -9 43 -34 43 -75c0 -63 -54 -101 -126 -101c-82 0 -124 46 -124 97h73c0 -16 20 -32 48 -32c29 0 49 15 49 47c0 37 -24 45 -55 45v37c27 0 49 6 49 37c0 27 -21 36 -45 36
c-30 0 -44 -19 -44 -36h-72z" />
    <glyph glyph-name="twosuperior" unicode="&#xb2;" 
d="M57 632c0 60 35 114 111 114c73 0 114 -41 114 -92c0 -48 -17 -77 -45 -111l-45 -57h91v-64h-230l120 167c17 24 22 40 22 60s-11 29 -30 29c-24 0 -32 -22 -32 -46h-76z" />
    <glyph glyph-name="brokenbar" unicode="&#xa6;" horiz-adv-x="148" 
d="M100 270v-270h-54v270h54zM46 377v297h54v-297h-54z" />
    <glyph glyph-name="minus" unicode="&#x2212;" horiz-adv-x="455" 
d="M400 298v-54h-344v54h344z" />
    <glyph glyph-name="multiply" unicode="&#xd7;" horiz-adv-x="564" 
d="M38 449l48 48l196 -197l197 197l48 -48l-197 -196l197 -197l-48 -48l-197 197l-196 -197l-48 48l196 197z" />
    <glyph glyph-name="space" unicode=" " horiz-adv-x="347" 
 />
    <glyph glyph-name="exclam" unicode="!" horiz-adv-x="306" 
d="M245 714v-492h-174v492h174zM254 88c0 -53 -43 -96 -96 -96s-96 43 -96 96s43 96 96 96s96 -43 96 -96z" />
    <glyph glyph-name="quotedbl" unicode="&#x22;" horiz-adv-x="342" 
d="M288 748l-12 -192h-53l-12 192h77zM141 748l-12 -192h-52l-13 192h77z" />
    <glyph glyph-name="numbersign" unicode="#" horiz-adv-x="770" 
d="M390 719l-30 -119h130l30 119h111l-30 -119h128l-27 -108h-128l-29 -114h128l-28 -110h-128l-30 -120h-111l30 120h-130l-30 -120h-110l29 120h-124l28 110h124l29 114h-124l28 108h123l30 119h111zM333 492l-29 -114h130l29 114h-130z" />
    <glyph glyph-name="dollar" unicode="$" horiz-adv-x="602" 
d="M394 221c0 57 -43 76 -104 84c-127 17 -213 83 -213 197c0 109 75 197 205 215v65h71v-64c53 0 136 -20 180 -49l-61 -141c-35 17 -80 38 -140 38c-55 0 -85 -16 -85 -52c0 -37 21 -50 89 -61c171 -28 226 -116 226 -225c0 -118 -68 -206 -209 -230v-79h-71v76
c-116 7 -189 47 -243 105l87 126c42 -55 99 -78 173 -78c60 0 95 21 95 73z" />
    <glyph glyph-name="percent" unicode="%" horiz-adv-x="699" 
d="M360 594c0 -73 -54 -147 -163 -147s-163 74 -163 147c0 74 54 148 163 148s163 -74 163 -148zM258 594c0 30 -20 60 -61 60s-62 -30 -62 -61c0 -30 21 -60 62 -60c40 0 61 31 61 61zM613 714l-439 -714h-91l438 714h92zM674 140c0 -73 -54 -147 -163 -147
s-163 74 -163 147c0 74 54 148 163 148s163 -74 163 -148zM572 140c0 30 -20 60 -61 60s-62 -30 -62 -61c0 -30 21 -60 62 -60c40 0 61 31 61 61z" />
    <glyph glyph-name="ampersand" unicode="&#x26;" horiz-adv-x="678" 
d="M477 0l-47 70c-60 -43 -90 -74 -191 -74c-127 0 -193 92 -193 180c0 90 26 138 155 227l-37 55c-19 29 -35 58 -35 108c0 71 62 157 185 157c122 0 188 -74 188 -157c0 -89 -33 -120 -128 -186l86 -128l108 75l72 -111l-105 -72l99 -144h-157zM371 559
c0 30 -22 49 -54 49c-35 0 -57 -23 -57 -48c0 -14 8 -26 16 -38l30 -44c46 31 65 42 65 81zM182 193c0 -37 29 -68 73 -68c32 0 62 27 100 54l-87 125c-28 -20 -86 -43 -86 -111z" />
    <glyph glyph-name="quotesingle" unicode="'" horiz-adv-x="199" 
d="M141 748l-12 -192h-52l-13 192h77z" />
    <glyph glyph-name="parenleft" unicode="(" horiz-adv-x="322" 
d="M31 327c0 168 70 338 211 441l70 -65c-118 -87 -178 -228 -178 -371c0 -137 56 -275 171 -364l-70 -64c-136 94 -204 257 -204 423z" />
    <glyph glyph-name="parenright" unicode=")" 
d="M37 -32c115 89 171 227 171 364c0 143 -60 284 -178 371l70 65c141 -103 211 -273 211 -441c0 -166 -68 -329 -204 -423z" />
    <glyph glyph-name="asterisk" unicode="*" horiz-adv-x="342" 
d="M166 620c-8 28 -18 63 -18 97c0 22 5 39 25 39s25 -17 25 -39c0 -34 -11 -70 -18 -97c18 21 68 75 101 75c11 0 23 -10 23 -23c0 -36 -91 -54 -119 -62c26 -7 118 -24 118 -60c0 -13 -9 -24 -22 -24c-35 0 -82 52 -101 74c8 -30 18 -58 18 -96c0 -22 -5 -39 -25 -39
s-25 17 -25 39c0 34 11 66 18 96c-19 -22 -69 -75 -101 -75c-11 0 -23 10 -23 23c0 36 90 55 119 62c-29 8 -118 26 -118 60c0 13 10 24 22 24c33 0 82 -52 101 -74z" />
    <glyph glyph-name="plus" unicode="+" horiz-adv-x="536" 
d="M220 346v153h102v-153h153l2 -102h-154v-153h-102v153h-154v102h153z" />
    <glyph glyph-name="comma" unicode="," horiz-adv-x="230" 
d="M211 110l-131 -259h-75l75 259h131z" />
    <glyph glyph-name="hyphen" unicode="-" horiz-adv-x="403" 
d="M333 346v-102h-261v102h261z" />
    <glyph glyph-name="period" unicode="." horiz-adv-x="255" 
d="M216 82c0 -48 -38 -86 -86 -86s-86 38 -86 86s38 86 86 86s86 -38 86 -86z" />
    <glyph glyph-name="slash" unicode="/" horiz-adv-x="327" 
d="M315 745l-230 -791h-72l230 791h72z" />
    <glyph glyph-name="zero" unicode="0" horiz-adv-x="704" 
d="M676 357c0 -183 -108 -367 -324 -367c-217 0 -326 183 -326 366s109 366 326 366s324 -182 324 -365zM199 356c0 -113 51 -227 153 -227s153 114 153 227c0 114 -51 228 -153 228s-153 -114 -153 -228z" />
    <glyph glyph-name="one" unicode="1" horiz-adv-x="383" 
d="M326 714v-714h-174v582h-97v132h271z" />
    <glyph glyph-name="two" unicode="2" horiz-adv-x="563" 
d="M28 467c0 133 76 253 245 253c163 0 254 -90 254 -205c0 -105 -38 -171 -99 -247l-100 -125h202v-143h-512l268 372c38 53 48 88 48 133c0 44 -24 65 -66 65c-54 0 -72 -50 -72 -103h-168z" />
    <glyph glyph-name="three" unicode="3" horiz-adv-x="616" 
d="M45 505c-1 103 67 218 262 218c164 0 266 -77 266 -195c0 -89 -29 -118 -74 -144c57 -20 95 -76 95 -166c0 -140 -120 -226 -280 -226c-182 0 -274 102 -274 216h161c0 -36 44 -70 107 -70c65 0 109 32 109 103c0 82 -53 101 -123 101v81c61 0 110 14 110 84
c0 58 -46 79 -100 79c-67 0 -98 -42 -98 -81h-161z" />
    <glyph glyph-name="four" unicode="4" horiz-adv-x="694" 
d="M566 714v-456h92v-132h-92v-126h-173v126h-337v144l347 444h163zM393 258v246l-194 -246h194z" />
    <glyph glyph-name="five" unicode="5" horiz-adv-x="582" 
d="M136 714h351v-132h-225l-11 -78c24 4 39 4 53 4c124 0 245 -79 245 -246c0 -188 -128 -272 -315 -272c-79 0 -146 14 -201 45l19 143c35 -21 84 -45 172 -45c92 0 162 46 162 139c0 84 -67 132 -157 132c-53 0 -112 -12 -140 -26z" />
    <glyph glyph-name="six" unicode="6" horiz-adv-x="679" 
d="M449 714l-150 -259c21 13 49 19 81 19c133 0 268 -69 268 -240c0 -158 -119 -250 -319 -250c-193 0 -294 114 -294 257c0 48 7 100 52 176l178 297h184zM458 228c0 60 -40 120 -119 120s-119 -60 -119 -120c0 -59 40 -119 119 -119s119 60 119 119z" />
    <glyph glyph-name="seven" unicode="7" horiz-adv-x="602" 
d="M593 714l-390 -715l-195 1l328 582h-295v132h552z" />
    <glyph glyph-name="eight" unicode="8" horiz-adv-x="580" 
d="M521 539c0 -95 -53 -135 -97 -158c54 -20 122 -73 122 -186c0 -114 -102 -213 -251 -213c-156 0 -258 94 -258 211c0 113 69 167 122 188c-48 24 -100 62 -100 158c0 99 90 186 233 186s229 -87 229 -186zM230 532c0 -31 21 -62 62 -62c40 0 61 31 61 62
c0 30 -21 61 -61 61c-41 0 -62 -31 -62 -61zM203 220c0 -45 29 -89 89 -89c59 0 88 44 88 89c0 44 -29 88 -88 88c-60 0 -89 -44 -89 -88z" />
    <glyph glyph-name="nine" unicode="9" horiz-adv-x="699" 
d="M251 0l148 251c-21 -13 -49 -19 -81 -19c-133 0 -268 69 -268 240c0 144 119 250 307 250c205 0 306 -114 306 -257c0 -48 -6 -101 -52 -176l-176 -289h-184zM240 478c0 -60 40 -120 119 -120s119 60 119 120c0 59 -40 119 -119 119s-119 -60 -119 -119z" />
    <glyph glyph-name="colon" unicode=":" horiz-adv-x="255" 
d="M216 82c0 -48 -38 -86 -86 -86s-86 38 -86 86s38 86 86 86s86 -38 86 -86zM216 364c0 -48 -38 -86 -86 -86s-86 38 -86 86s38 86 86 86s86 -38 86 -86z" />
    <glyph glyph-name="semicolon" unicode=";" horiz-adv-x="245" 
d="M211 110l-131 -259h-75l75 259h131zM217 364c0 -48 -38 -86 -86 -86s-86 38 -86 86s38 86 86 86s86 -38 86 -86z" />
    <glyph glyph-name="less" unicode="&#x3c;" horiz-adv-x="352" 
d="M313 536v-148l-107 -92l100 -92v-148l-262 240z" />
    <glyph glyph-name="equal" unicode="=" horiz-adv-x="434" 
d="M370 234v-102h-307v102h307zM370 417v-102h-307v102h307z" />
    <glyph glyph-name="greater" unicode="&#x3e;" horiz-adv-x="352" 
d="M64 56v148l100 92l-107 92v148l270 -240z" />
    <glyph glyph-name="question" unicode="?" horiz-adv-x="551" 
d="M341 211h-155v182h57c55 0 91 30 91 96c0 59 -21 82 -68 82s-62 -27 -67 -70h-173c7 100 74 218 245 218c181 0 258 -105 258 -212c0 -143 -70 -226 -188 -226v-70zM360 88c0 -53 -43 -96 -96 -96s-96 43 -96 96s43 96 96 96s96 -43 96 -96z" />
    <glyph glyph-name="at" unicode="@" horiz-adv-x="675" 
d="M226 383c0 -45 24 -88 88 -88c66 0 99 51 99 101c0 46 -28 90 -82 90c-74 0 -105 -53 -105 -103zM71 401c0 -137 102 -260 269 -260c77 0 120 18 162 48l27 -36c-44 -33 -94 -57 -189 -57c-190 0 -314 132 -314 305c0 153 109 307 317 307c191 0 312 -141 312 -291
c0 -80 -33 -182 -131 -182c-62 0 -82 23 -96 48c-20 -25 -54 -48 -118 -48c-90 0 -144 64 -144 144c0 81 58 167 166 167c55 0 89 -29 106 -55l9 48h63l-37 -192c0 -28 3 -61 57 -61c55 0 80 64 80 131c0 123 -103 246 -267 246c-185 0 -272 -137 -272 -262z" />
    <glyph glyph-name="A" unicode="A" horiz-adv-x="673" 
d="M240 714h199l220 -714h-173l-32 103h-227l-33 -103h-174zM342 481l-68 -219h133z" />
    <glyph glyph-name="B" unicode="B" horiz-adv-x="602" 
d="M511 522c0 -84 -30 -124 -66 -140c69 -19 122 -73 122 -175c0 -138 -96 -207 -225 -207h-281v714h239c129 0 211 -77 211 -192zM235 439h33c44 0 70 25 70 70c0 42 -26 73 -70 73h-33v-143zM235 133h75c48 0 84 29 84 86c0 55 -36 87 -84 87h-75v-173z" />
    <glyph glyph-name="C" unicode="C" horiz-adv-x="630" 
d="M216 357c0 -98 66 -184 199 -184c90 0 134 20 169 41v-186c-29 -18 -79 -40 -167 -40c-257 0 -386 185 -386 369c0 183 128 365 379 365c100 0 133 -19 174 -41v-186c-41 23 -80 46 -169 46c-133 0 -199 -86 -199 -184z" />
    <glyph glyph-name="D" unicode="D" horiz-adv-x="668" 
d="M652 356c0 -178 -115 -356 -346 -356h-245v714h245c230 0 346 -179 346 -358zM235 152h45c120 0 189 97 189 203s-70 206 -189 206h-45v-409z" />
    <glyph glyph-name="E" unicode="E" horiz-adv-x="495" 
d="M446 561h-210v-127h198v-153h-198v-128h210v-153h-384v714h384v-153z" />
    <glyph glyph-name="F" unicode="F" horiz-adv-x="490" 
d="M446 561h-210v-127h199v-153h-199v-281h-174v714h384v-153z" />
    <glyph glyph-name="G" unicode="G" horiz-adv-x="775" 
d="M548 475c-36 46 -91 76 -154 76c-108 0 -195 -87 -195 -195s87 -195 195 -195c74 0 138 41 171 102h-156v133h347c1 -13 2 -27 2 -41c0 -203 -164 -367 -367 -367s-367 164 -367 367s164 367 367 367c121 0 229 -59 297 -151z" />
    <glyph glyph-name="H" unicode="H" horiz-adv-x="694" 
d="M235 434h228v280h174v-714h-174v280h-228v-280h-174v714h174v-280z" />
    <glyph glyph-name="I" unicode="I" horiz-adv-x="311" 
d="M244 0h-174v714h174v-714z" />
    <glyph glyph-name="J" unicode="J" horiz-adv-x="525" 
d="M480 714v-494c0 -164 -126 -228 -248 -228c-104 0 -162 49 -192 84l107 120c19 -23 43 -43 84 -43s75 20 75 85v476h174z" />
    <glyph glyph-name="K" unicode="K" horiz-adv-x="699" 
d="M235 456l214 258h199l-281 -328l304 -386h-206l-230 291v-291h-174v714h174v-258z" />
    <glyph glyph-name="L" unicode="L" horiz-adv-x="464" 
d="M235 153h191v-153h-365v714h174v-561z" />
    <glyph glyph-name="M" unicode="M" horiz-adv-x="872" 
d="M623 399l-133 -399h-102l-134 399l-61 -399h-174l114 714h184l122 -386l130 386h181l104 -714h-173z" />
    <glyph glyph-name="N" unicode="N" horiz-adv-x="816" 
d="M578 294v420h174v-714h-174l-340 414v-414h-174v714h159z" />
    <glyph glyph-name="O" unicode="O" horiz-adv-x="796" 
d="M766 355c0 -203 -164 -367 -367 -367s-367 164 -367 367s164 367 367 367s367 -164 367 -367zM204 356c0 -108 87 -195 195 -195s195 87 195 195s-87 195 -195 195s-195 -87 -195 -195z" />
    <glyph glyph-name="P" unicode="P" horiz-adv-x="574" 
d="M557 489c0 -140 -101 -224 -229 -224h-93v-265h-174v714h267c128 0 229 -85 229 -225zM235 418h77c50 0 72 29 72 71s-28 72 -72 72h-77v-143z" />
    <glyph glyph-name="Q" unicode="Q" horiz-adv-x="801" 
d="M707 -57l-162 -26l-56 82c-28 -7 -58 -11 -90 -11c-203 0 -367 164 -367 367s164 367 367 367s367 -164 367 -367c0 -117 -55 -222 -142 -290zM594 356c0 108 -87 195 -195 195s-195 -87 -195 -195c0 -101 76 -184 175 -194l-58 85l162 26l44 -64c41 36 67 88 67 147z
" />
    <glyph glyph-name="R" unicode="R" horiz-adv-x="626" 
d="M235 0h-174v714h267c128 0 229 -85 229 -225c0 -107 -60 -182 -145 -211l180 -278h-190l-167 264v-264zM235 418h77c50 0 72 29 72 71s-28 72 -72 72h-77v-143z" />
    <glyph glyph-name="S" unicode="S" horiz-adv-x="572" 
d="M455 528c-39 24 -77 41 -126 41c-43 0 -78 -21 -78 -61c0 -29 20 -50 83 -59c141 -21 210 -114 210 -223c0 -117 -90 -232 -260 -232c-128 0 -206 40 -274 94l87 126c48 -38 105 -67 176 -67c57 0 87 34 87 72c0 48 -32 78 -95 89c-146 26 -204 99 -204 191
c0 129 103 221 261 221c88 0 142 -21 194 -51z" />
    <glyph glyph-name="T" unicode="T" horiz-adv-x="546" 
d="M502 714v-153h-143v-561h-173v561h-143v153h459z" />
    <glyph glyph-name="U" unicode="U" horiz-adv-x="645" 
d="M224 247c0 -70 45 -100 100 -100s100 30 100 100v467h174v-486c0 -159 -125 -235 -274 -235c-148 0 -273 76 -273 235v486h173v-467z" />
    <glyph glyph-name="V" unicode="V" horiz-adv-x="730" 
d="M189 714l178 -488l179 488h173l-265 -714h-173l-266 714h174z" />
    <glyph glyph-name="W" unicode="W" horiz-adv-x="931" 
d="M287 301l114 413h133l106 -413l111 413h173l-202 -714h-138l-120 387l-121 -387h-139l-192 714h174z" />
    <glyph glyph-name="X" unicode="X" horiz-adv-x="701" 
d="M232 714l117 -185l110 185h204l-213 -341l239 -373h-196l-140 222l-138 -222h-196l235 378l-216 336h194z" />
    <glyph glyph-name="Y" unicode="Y" horiz-adv-x="658" 
d="M214 714l118 -186l110 186h204l-228 -352v-362h-173v362l-226 352h195z" />
    <glyph glyph-name="Z" unicode="Z" horiz-adv-x="660" 
d="M639 714l-336 -559h321v-155h-607l335 559h-295v155h582z" />
    <glyph glyph-name="bracketleft" unicode="[" horiz-adv-x="281" 
d="M229 724h-68v-760h71v-71h-173v903h170v-72z" />
    <glyph glyph-name="backslash" unicode="\" horiz-adv-x="306" 
d="M300 -36h-72l-215 786h72z" />
    <glyph glyph-name="bracketright" unicode="]" horiz-adv-x="281" 
d="M227 -107h-173v71h70v760h-67v72h170v-903z" />
    <glyph glyph-name="asciicircum" unicode="^" horiz-adv-x="393" 
d="M185 667h36l135 -253h-41l-112 160l-112 -160h-41z" />
    <glyph glyph-name="underscore" unicode="_" horiz-adv-x="357" 
d="M371 -19v-36h-371v36h371z" />
    <glyph glyph-name="grave" unicode="`" horiz-adv-x="291" 
d="M214 556l-161 119l62 62l125 -159z" />
    <glyph glyph-name="a" unicode="a" horiz-adv-x="603" 
d="M550 464v-464h-153v29c-23 -17 -58 -39 -138 -39c-153 0 -229 119 -229 238s76 238 229 238c77 0 116 -17 138 -36v34h153zM201 232c0 -52 43 -95 95 -95s95 43 95 95s-43 95 -95 95s-95 -43 -95 -95z" />
    <glyph glyph-name="b" unicode="b" horiz-adv-x="582" 
d="M331 466c153 0 229 -119 229 -238s-76 -238 -229 -238c-72 0 -115 23 -138 39v-29h-153v740h153v-310c25 18 56 36 138 36zM195 232c0 -52 43 -95 95 -95s95 43 95 95s-43 95 -95 95s-95 -43 -95 -95z" />
    <glyph glyph-name="c" unicode="c" horiz-adv-x="416" 
d="M187 227c0 -54 39 -83 98 -83c55 0 82 13 104 33v-154c-25 -15 -61 -34 -141 -34c-156 0 -234 119 -234 238s78 239 234 239c61 0 111 -14 141 -27v-150c-24 14 -46 28 -104 28c-59 0 -98 -36 -98 -90z" />
    <glyph glyph-name="d" unicode="d" horiz-adv-x="585" 
d="M389 740h153v-740h-153v29c-23 -16 -66 -39 -138 -39c-153 0 -229 119 -229 238s76 238 229 238c82 0 113 -18 138 -36v310zM197 232c0 -52 43 -95 95 -95s95 43 95 95s-43 95 -95 95s-95 -43 -95 -95z" />
    <glyph glyph-name="e" unicode="e" horiz-adv-x="548" 
d="M193 196c1 -48 33 -82 83 -82c56 0 77 15 86 37h153c-21 -67 -77 -164 -246 -164c-162 0 -243 122 -243 241s89 246 250 246c180 0 254 -121 254 -253c0 -8 0 -17 -1 -25h-336zM355 295c-3 28 -28 63 -81 63s-78 -35 -79 -63h160z" />
    <glyph glyph-name="f" unicode="f" horiz-adv-x="392" 
d="M87 317h-56v143h56v118c0 113 63 163 206 163c25 0 57 -4 77 -10v-122c-14 4 -25 5 -51 5c-36 0 -59 -18 -59 -54v-100h98v-143h-98v-317h-173v317z" />
    <glyph glyph-name="g" unicode="g" horiz-adv-x="629" 
d="M417 37c-27 -23 -61 -39 -137 -39c-154 0 -230 117 -230 234s76 234 230 234c80 0 109 -18 137 -36v30h153v-446c0 -126 -78 -218 -267 -218c-182 0 -242 91 -251 165h165c9 -23 37 -42 99 -42c71 0 101 34 101 85v33zM221 232c0 -52 43 -95 95 -95s95 43 95 95
s-43 95 -95 95s-95 -43 -95 -95z" />
    <glyph glyph-name="h" unicode="h" horiz-adv-x="587" 
d="M38 0v740h173v-339c23 38 63 68 143 68c132 0 203 -68 203 -191v-278h-173v239c0 56 -16 95 -79 95c-58 0 -94 -57 -94 -93v-241h-173z" />
    <glyph glyph-name="i" unicode="i" horiz-adv-x="254" 
d="M218 460v-460h-173v460h173zM224 632c0 -51 -42 -93 -93 -93s-93 42 -93 93s42 93 93 93s93 -42 93 -93z" />
    <glyph glyph-name="j" unicode="j" horiz-adv-x="261" 
d="M218 460v-660h-174v660h174zM224 632c0 -51 -42 -93 -93 -93s-93 42 -93 93s42 93 93 93s93 -42 93 -93z" />
    <glyph glyph-name="k" unicode="k" horiz-adv-x="649" 
d="M230 297l172 164h198l-208 -215l244 -246h-219l-187 189v-189h-174v740h174v-443z" />
    <glyph glyph-name="l" unicode="l" horiz-adv-x="306" 
d="M240 0h-174v740h174v-740z" />
    <glyph glyph-name="m" unicode="m" horiz-adv-x="908" 
d="M45 0v460h172v-37c24 21 72 45 157 45c88 0 130 -26 154 -55c25 25 58 55 153 55c120 0 188 -59 188 -156v-312h-172v278c0 39 -24 74 -77 74c-54 0 -78 -37 -78 -72v-280h-172v283c0 36 -17 68 -76 68s-77 -34 -77 -70v-281h-172z" />
    <glyph glyph-name="n" unicode="n" horiz-adv-x="582" 
d="M45 0v460h172v-42c22 22 59 50 148 50c124 0 181 -65 181 -180v-288h-172v251c0 56 -10 98 -73 98c-70 0 -84 -47 -84 -81v-268h-172z" />
    <glyph glyph-name="o" unicode="o" horiz-adv-x="552" 
d="M531 231c0 -123 -82 -244 -251 -244s-254 121 -254 244c0 121 85 244 254 244s251 -123 251 -244zM184 230c0 -52 43 -95 95 -95c54 0 95 43 95 95s-41 95 -95 95c-52 0 -95 -43 -95 -95z" />
    <glyph glyph-name="p" unicode="p" horiz-adv-x="599" 
d="M203 -200h-153v660h153v-29c23 16 66 39 138 39c153 0 229 -119 229 -238s-76 -238 -229 -238c-82 0 -113 18 -138 36v-230zM395 228c0 52 -43 95 -95 95s-95 -43 -95 -95s43 -95 95 -95s95 43 95 95z" />
    <glyph glyph-name="q" unicode="q" horiz-adv-x="585" 
d="M253 -6c-153 0 -229 119 -229 238s76 238 229 238c72 0 115 -23 138 -39v29h153v-660h-153v230c-25 -18 -56 -36 -138 -36zM389 228c0 52 -43 95 -95 95s-95 -43 -95 -95s43 -95 95 -95s95 43 95 95z" />
    <glyph glyph-name="r" unicode="r" horiz-adv-x="413" 
d="M51 0v460h173v-32c20 20 56 44 112 44c31 0 49 -6 64 -13v-131c-13 4 -29 9 -60 9c-55 0 -116 -29 -116 -103v-234h-173z" />
    <glyph glyph-name="s" unicode="s" horiz-adv-x="429" 
d="M350 331c-23 13 -48 26 -89 26c-32 0 -45 -12 -45 -28c0 -15 14 -25 52 -31c93 -15 140 -79 140 -145c0 -97 -69 -165 -207 -165c-85 0 -147 31 -190 63l57 95c27 -19 75 -45 121 -45c32 0 51 9 51 29s-17 35 -61 42c-99 15 -140 62 -140 132c0 109 100 163 196 163
c82 0 111 -13 156 -32z" />
    <glyph glyph-name="t" unicode="t" horiz-adv-x="388" 
d="M94 317h-56v143h56v134h173v-134h97v-143h-97v-317h-173v317z" />
    <glyph glyph-name="u" unicode="u" horiz-adv-x="553" 
d="M216 460v-265c0 -43 25 -63 62 -63c36 0 61 19 61 63v265h173v-274c0 -126 -92 -197 -234 -197s-235 71 -235 197v274h173z" />
    <glyph glyph-name="v" unicode="v" horiz-adv-x="577" 
d="M295 227l102 233h173l-224 -460h-102l-225 460h174z" />
    <glyph glyph-name="w" unicode="w" horiz-adv-x="878" 
d="M290 217l112 243h84l112 -241l101 241h173l-203 -460h-120l-105 218l-100 -218h-121l-208 460h173z" />
    <glyph glyph-name="x" unicode="x" horiz-adv-x="572" 
d="M208 460l79 -111l77 111h190l-171 -227l178 -233h-191l-82 115l-81 -115h-190l176 233l-175 227h190z" />
    <glyph glyph-name="y" unicode="y" horiz-adv-x="638" 
d="M321 218l133 242h174l-368 -661h-173l148 268l-220 393h173z" />
    <glyph glyph-name="z" unicode="z" horiz-adv-x="536" 
d="M517 460l-202 -320h187v-140h-467l216 320h-201v140h467z" />
    <glyph glyph-name="braceleft" unicode="{" horiz-adv-x="316" 
d="M197 460c0 -59 -36 -93 -76 -105c40 -16 76 -53 76 -101v-200c0 -63 16 -85 87 -85v-78c-140 0 -189 52 -189 161v210c0 44 -27 75 -55 93c29 21 55 47 55 94v189c0 103 49 155 189 155v-78c-71 0 -87 -22 -87 -87v-168z" />
    <glyph glyph-name="bar" unicode="|" horiz-adv-x="179" 
d="M126 -46h-72v801h72v-801z" />
    <glyph glyph-name="braceright" unicode="}" horiz-adv-x="316" 
d="M40 715v78c140 0 189 -52 189 -155v-189c0 -47 26 -73 55 -94c-28 -18 -55 -49 -55 -93v-210c0 -109 -49 -161 -189 -161v78c71 0 87 22 87 85v200c0 48 36 85 76 101c-40 12 -76 46 -76 105v168c0 65 -16 87 -87 87z" />
    <glyph glyph-name="asciitilde" unicode="~" horiz-adv-x="464" 
d="M394 487l41 -40c-28 -33 -60 -59 -129 -59c-37 0 -59 11 -78 22c-19 12 -36 23 -65 23c-50 0 -64 -18 -84 -41l-41 40c28 33 60 59 125 59c36 0 61 -11 81 -21c21 -12 38 -24 60 -24c51 0 70 18 90 41z" />
    <glyph glyph-name="Adieresis" unicode="&#xc4;" horiz-adv-x="673" 
d="M318 815c0 -33 -27 -60 -60 -60s-60 27 -60 60s27 60 60 60s60 -27 60 -60zM476 815c0 -33 -27 -60 -60 -60s-60 27 -60 60s27 60 60 60s60 -27 60 -60zM240 714h199l220 -714h-173l-32 103h-227l-33 -103h-174zM342 481l-68 -219h133z" />
    <glyph glyph-name="Aring" unicode="&#xc5;" horiz-adv-x="673" 
d="M416 816c0 -44 -36 -80 -80 -80s-80 36 -80 80s36 80 80 80s80 -36 80 -80zM283 816c0 -30 24 -54 54 -54c29 0 53 24 53 54s-24 54 -53 54c-30 0 -54 -24 -54 -54zM240 714h199l220 -714h-173l-32 103h-227l-33 -103h-174zM342 481l-68 -219h133z" />
    <glyph glyph-name="Ccedilla" unicode="&#xc7;" horiz-adv-x="630" 
d="M31 357c0 183 128 365 379 365c100 0 133 -19 174 -41v-186c-41 23 -80 46 -169 46c-133 0 -199 -86 -199 -184s66 -184 199 -184c90 0 134 20 169 41v-186c-28 -17 -74 -38 -155 -40l-11 -35c15 -8 52 -25 52 -67c0 -44 -36 -66 -80 -66c-27 0 -55 7 -75 19v72
c9 -6 25 -13 39 -13c17 0 26 8 26 23c0 14 -12 27 -27 31l13 39c-223 22 -335 194 -335 366z" />
    <glyph glyph-name="Eacute" unicode="&#xc9;" horiz-adv-x="495" 
d="M363 844l-136 -102l-22 19l106 135zM446 561h-210v-127h198v-153h-198v-128h210v-153h-384v714h384v-153z" />
    <glyph glyph-name="Ntilde" unicode="&#xd1;" horiz-adv-x="816" 
d="M568 850l41 -40c-28 -33 -60 -59 -129 -59c-37 0 -59 11 -78 22c-19 12 -36 23 -71 23c-44 0 -58 -18 -78 -41l-41 40c28 33 60 59 125 59c36 0 61 -11 81 -21c21 -12 38 -24 69 -24c42 0 61 18 81 41zM578 294v420h174v-714h-174l-340 414v-414h-174v714h159z" />
    <glyph glyph-name="Odieresis" unicode="&#xd6;" horiz-adv-x="796" 
d="M381 815c0 -33 -27 -60 -60 -60s-60 27 -60 60s27 60 60 60s60 -27 60 -60zM539 815c0 -33 -27 -60 -60 -60s-60 27 -60 60s27 60 60 60s60 -27 60 -60zM766 355c0 -203 -164 -367 -367 -367s-367 164 -367 367s164 367 367 367s367 -164 367 -367zM204 356
c0 -108 87 -195 195 -195s195 87 195 195s-87 195 -195 195s-195 -87 -195 -195z" />
    <glyph glyph-name="Udieresis" unicode="&#xdc;" horiz-adv-x="645" 
d="M300 815c0 -33 -27 -60 -60 -60s-60 27 -60 60s27 60 60 60s60 -27 60 -60zM458 815c0 -33 -27 -60 -60 -60s-60 27 -60 60s27 60 60 60s60 -27 60 -60zM224 247c0 -70 45 -100 100 -100s100 30 100 100v467h174v-486c0 -159 -125 -235 -274 -235
c-148 0 -273 76 -273 235v486h173v-467z" />
    <glyph glyph-name="aacute" unicode="&#xe1;" horiz-adv-x="603" 
d="M421 675l-161 -119l-25 22l124 159zM550 464v-464h-153v29c-23 -17 -58 -39 -138 -39c-153 0 -229 119 -229 238s76 238 229 238c77 0 116 -17 138 -36v34h153zM201 232c0 -52 43 -95 95 -95s95 43 95 95s-43 95 -95 95s-95 -43 -95 -95z" />
    <glyph glyph-name="agrave" unicode="&#xe0;" horiz-adv-x="603" 
d="M292 556l-161 119l62 62l124 -159zM550 464v-464h-153v29c-23 -17 -58 -39 -138 -39c-153 0 -229 119 -229 238s76 238 229 238c77 0 116 -17 138 -36v34h153zM201 232c0 -52 43 -95 95 -95s95 43 95 95s-43 95 -95 95s-95 -43 -95 -95z" />
    <glyph glyph-name="acircumflex" unicode="&#xe2;" horiz-adv-x="603" 
d="M272 688h37l117 -119l-23 -22l-112 71l-112 -71l-27 22zM550 464v-464h-153v29c-23 -17 -58 -39 -138 -39c-153 0 -229 119 -229 238s76 238 229 238c77 0 116 -17 138 -36v34h153zM201 232c0 -52 43 -95 95 -95s95 43 95 95s-43 95 -95 95s-95 -43 -95 -95z" />
    <glyph glyph-name="adieresis" unicode="&#xe4;" horiz-adv-x="603" 
d="M277 632c0 -41 -34 -75 -75 -75s-75 34 -75 75s34 75 75 75s75 -34 75 -75zM475 632c0 -41 -34 -75 -75 -75s-75 34 -75 75s34 75 75 75s75 -34 75 -75zM550 464v-464h-153v29c-23 -17 -58 -39 -138 -39c-153 0 -229 119 -229 238s76 238 229 238c77 0 116 -17 138 -36
v34h153zM201 232c0 -52 43 -95 95 -95s95 43 95 95s-43 95 -95 95s-95 -43 -95 -95z" />
    <glyph glyph-name="atilde" unicode="&#xe3;" horiz-adv-x="603" 
d="M454 658l41 -40c-28 -33 -60 -59 -129 -59c-37 0 -59 11 -78 22c-19 12 -36 23 -71 23c-44 0 -58 -18 -78 -41l-41 40c28 33 60 59 125 59c36 0 61 -11 81 -21c21 -12 38 -24 69 -24c42 0 61 18 81 41zM550 464v-464h-153v29c-23 -17 -58 -39 -138 -39
c-153 0 -229 119 -229 238s76 238 229 238c77 0 116 -17 138 -36v34h153zM201 232c0 -52 43 -95 95 -95s95 43 95 95s-43 95 -95 95s-95 -43 -95 -95z" />
    <glyph glyph-name="aring" unicode="&#xe5;" horiz-adv-x="603" 
d="M388 609c0 -55 -45 -100 -100 -100s-100 45 -100 100s45 100 100 100s100 -45 100 -100zM222 609c0 -37 30 -67 67 -67s67 30 67 67s-30 67 -67 67s-67 -30 -67 -67zM550 464v-464h-153v29c-23 -17 -58 -39 -138 -39c-153 0 -229 119 -229 238s76 238 229 238
c77 0 116 -17 138 -36v34h153zM201 232c0 -52 43 -95 95 -95s95 43 95 95s-43 95 -95 95s-95 -43 -95 -95z" />
    <glyph glyph-name="ccedilla" unicode="&#xe7;" horiz-adv-x="416" 
d="M14 227c0 119 78 239 234 239c61 0 111 -14 141 -27v-150c-24 14 -46 28 -104 28c-59 0 -98 -36 -98 -90s39 -83 98 -83c55 0 82 13 104 33v-154c-22 -13 -52 -29 -112 -33l-11 -28c16 -6 36 -24 36 -51c0 -38 -26 -61 -68 -61c-25 0 -50 9 -66 20v44
c12 -7 25 -12 36 -12c21 0 29 12 29 26s-14 26 -25 31l12 31c-137 13 -206 125 -206 237z" />
    <glyph glyph-name="eacute" unicode="&#xe9;" horiz-adv-x="548" 
d="M428 675l-162 -119l-25 22l124 159zM193 196c1 -48 33 -82 83 -82c56 0 77 15 86 37h153c-21 -67 -77 -164 -246 -164c-162 0 -243 122 -243 241s89 246 250 246c180 0 254 -121 254 -253c0 -8 0 -17 -1 -25h-336zM355 295c-3 28 -28 63 -81 63s-78 -35 -79 -63h160z" />
    <glyph glyph-name="egrave" unicode="&#xe8;" horiz-adv-x="548" 
d="M288 556l-161 119l62 62l124 -159zM193 196c1 -48 33 -82 83 -82c56 0 77 15 86 37h153c-21 -67 -77 -164 -246 -164c-162 0 -243 122 -243 241s89 246 250 246c180 0 254 -121 254 -253c0 -8 0 -17 -1 -25h-336zM355 295c-3 28 -28 63 -81 63s-78 -35 -79 -63h160z" />
    <glyph glyph-name="ecircumflex" unicode="&#xea;" horiz-adv-x="548" 
d="M250 688h37l116 -119l-22 -22l-113 71l-112 -71l-26 22zM193 196c1 -48 33 -82 83 -82c56 0 77 15 86 37h153c-21 -67 -77 -164 -246 -164c-162 0 -243 122 -243 241s89 246 250 246c180 0 254 -121 254 -253c0 -8 0 -17 -1 -25h-336zM355 295c-3 28 -28 63 -81 63
s-78 -35 -79 -63h160z" />
    <glyph glyph-name="edieresis" unicode="&#xeb;" horiz-adv-x="548" 
d="M241 632c0 -41 -34 -75 -75 -75s-75 34 -75 75s34 75 75 75s75 -34 75 -75zM439 632c0 -41 -34 -75 -75 -75s-75 34 -75 75s34 75 75 75s75 -34 75 -75zM193 196c1 -48 33 -82 83 -82c56 0 77 15 86 37h153c-21 -67 -77 -164 -246 -164c-162 0 -243 122 -243 241
s89 246 250 246c180 0 254 -121 254 -253c0 -8 0 -17 -1 -25h-336zM355 295c-3 28 -28 63 -81 63s-78 -35 -79 -63h160z" />
    <glyph glyph-name="iacute" unicode="&#xed;" horiz-adv-x="254" 
d="M293 675l-161 -119l-25 22l124 159zM218 460v-460h-174v460h174z" />
    <glyph glyph-name="igrave" unicode="&#xec;" horiz-adv-x="254" 
d="M135 556l-161 119l62 62l125 -159zM216 460v-460h-174v460h174z" />
    <glyph glyph-name="icircumflex" unicode="&#xee;" horiz-adv-x="254" 
d="M110 688h37l116 -119l-23 -22l-112 71l-112 -71l-27 22zM216 460v-460h-174v460h174z" />
    <glyph glyph-name="idieresis" unicode="&#xef;" horiz-adv-x="254" 
d="M218 460v-460h-174v460h174zM109 632c0 -41 -34 -75 -75 -75s-75 34 -75 75s34 75 75 75s75 -34 75 -75zM307 632c0 -41 -34 -75 -75 -75s-75 34 -75 75s34 75 75 75s75 -34 75 -75z" />
    <glyph glyph-name="ntilde" unicode="&#xf1;" horiz-adv-x="582" 
d="M454 658l41 -40c-28 -33 -60 -59 -129 -59c-37 0 -59 11 -78 22c-19 12 -36 23 -71 23c-44 0 -58 -18 -78 -41l-41 40c28 33 60 59 125 59c36 0 61 -11 81 -21c21 -12 38 -24 69 -24c42 0 61 18 81 41zM45 0v460h172v-42c22 22 59 50 148 50c124 0 181 -65 181 -180v-288
h-172v251c0 56 -10 98 -73 98c-70 0 -84 -47 -84 -81v-268h-172z" />
    <glyph glyph-name="oacute" unicode="&#xf3;" horiz-adv-x="552" 
d="M442 675l-161 -119l-26 22l125 159zM531 231c0 -123 -82 -244 -251 -244s-254 121 -254 244c0 121 85 244 254 244s251 -123 251 -244zM184 230c0 -52 43 -95 95 -95c54 0 95 43 95 95s-41 95 -95 95c-52 0 -95 -43 -95 -95z" />
    <glyph glyph-name="ograve" unicode="&#xf2;" horiz-adv-x="552" 
d="M278 556l-162 119l63 62l124 -159zM531 231c0 -123 -82 -244 -251 -244s-254 121 -254 244c0 121 85 244 254 244s251 -123 251 -244zM184 230c0 -52 43 -95 95 -95c54 0 95 43 95 95s-41 95 -95 95c-52 0 -95 -43 -95 -95z" />
    <glyph glyph-name="ocircumflex" unicode="&#xf4;" horiz-adv-x="552" 
d="M262 688h37l116 -119l-22 -22l-112 71l-113 -71l-26 22zM531 231c0 -123 -82 -244 -251 -244s-254 121 -254 244c0 121 85 244 254 244s251 -123 251 -244zM184 230c0 -52 43 -95 95 -95c54 0 95 43 95 95s-41 95 -95 95c-52 0 -95 -43 -95 -95z" />
    <glyph glyph-name="odieresis" unicode="&#xf6;" horiz-adv-x="552" 
d="M253 632c0 -41 -34 -75 -75 -75s-75 34 -75 75s34 75 75 75s75 -34 75 -75zM451 632c0 -41 -34 -75 -75 -75s-75 34 -75 75s34 75 75 75s75 -34 75 -75zM531 231c0 -123 -82 -244 -251 -244s-254 121 -254 244c0 121 85 244 254 244s251 -123 251 -244zM184 230
c0 -52 43 -95 95 -95c54 0 95 43 95 95s-41 95 -95 95c-52 0 -95 -43 -95 -95z" />
    <glyph glyph-name="otilde" unicode="&#xf5;" horiz-adv-x="552" 
d="M447 658l41 -40c-28 -33 -60 -59 -129 -59c-37 0 -59 11 -78 22c-19 12 -36 23 -71 23c-44 0 -58 -18 -78 -41l-41 40c28 33 60 59 125 59c36 0 61 -11 81 -21c21 -12 38 -24 69 -24c42 0 61 18 81 41zM531 231c0 -123 -82 -244 -251 -244s-254 121 -254 244
c0 121 85 244 254 244s251 -123 251 -244zM184 230c0 -52 43 -95 95 -95c54 0 95 43 95 95s-41 95 -95 95c-52 0 -95 -43 -95 -95z" />
    <glyph glyph-name="uacute" unicode="&#xfa;" horiz-adv-x="553" 
d="M438 675l-161 -119l-26 22l125 159zM216 460v-265c0 -43 25 -63 62 -63c36 0 61 19 61 63v265h173v-274c0 -126 -92 -197 -234 -197s-235 71 -235 197v274h173z" />
    <glyph glyph-name="ugrave" unicode="&#xf9;" horiz-adv-x="553" 
d="M273 556l-161 119l62 62l125 -159zM216 460v-265c0 -43 25 -63 62 -63c36 0 61 19 61 63v265h173v-274c0 -126 -92 -197 -234 -197s-235 71 -235 197v274h173z" />
    <glyph glyph-name="ucircumflex" unicode="&#xfb;" horiz-adv-x="553" 
d="M260 688h37l116 -119l-22 -22l-112 71l-113 -71l-26 22zM216 460v-265c0 -43 25 -63 62 -63c36 0 61 19 61 63v265h173v-274c0 -126 -92 -197 -234 -197s-235 71 -235 197v274h173z" />
    <glyph glyph-name="udieresis" unicode="&#xfc;" horiz-adv-x="553" 
d="M253 632c0 -41 -34 -75 -75 -75s-75 34 -75 75s34 75 75 75s75 -34 75 -75zM451 632c0 -41 -34 -75 -75 -75s-75 34 -75 75s34 75 75 75s75 -34 75 -75zM216 460v-265c0 -43 25 -63 62 -63c36 0 61 19 61 63v265h173v-274c0 -126 -92 -197 -234 -197s-235 71 -235 197
v274h173z" />
    <glyph glyph-name="dagger" unicode="&#x2020;" horiz-adv-x="245" 
d="M134 736v-126h67v-27h-67v-360h-28v360h-67v27h67v126h28z" />
    <glyph glyph-name="degree" unicode="&#xb0;" horiz-adv-x="265" 
d="M234 609c0 -55 -45 -100 -100 -100s-100 45 -100 100s45 100 100 100s100 -45 100 -100zM68 609c0 -37 30 -67 67 -67s67 30 67 67s-30 67 -67 67s-67 -30 -67 -67z" />
    <glyph glyph-name="cent" unicode="&#xa2;" horiz-adv-x="454" 
d="M394 505v-101c-21 20 -48 44 -113 44c-78 0 -108 -52 -108 -106c0 -55 33 -112 108 -112c58 0 92 19 113 41v-101c-23 -15 -58 -32 -101 -32v-61h-56v61c-115 9 -179 96 -179 201c0 100 62 193 179 200v58h56v-58c46 -2 78 -16 101 -34z" />
    <glyph glyph-name="sterling" unicode="&#xa3;" horiz-adv-x="561" 
d="M290 463c18 -23 34 -49 42 -86h119v-78h-107c0 -57 -3 -96 -31 -143c21 -7 50 -19 78 -19c46 0 101 18 122 41l24 -122c-20 -21 -84 -62 -168 -62c-43 0 -72 11 -97 22c-26 12 -49 23 -80 23c-56 0 -82 -11 -122 -40l-35 125c15 21 65 41 106 49c32 31 38 76 38 126h-115
v78h104c-7 33 -32 55 -50 78s-34 56 -34 104c0 93 79 160 203 160s198 -60 221 -137l-115 -58c-17 50 -47 71 -85 71c-34 0 -60 -16 -60 -53c0 -34 24 -57 42 -79z" />
    <glyph glyph-name="section" unicode="&#xa7;" horiz-adv-x="525" 
d="M451 82c0 -97 -69 -192 -207 -192c-85 0 -147 31 -190 63l57 95c27 -19 75 -45 121 -45c51 0 75 25 75 70s-33 64 -85 72c-109 17 -188 73 -188 183c0 57 26 104 73 134c-23 30 -34 66 -34 98c0 97 69 192 207 192c85 0 147 -31 190 -63l-57 -95c-27 19 -75 45 -121 45
c-51 0 -75 -25 -75 -70s33 -64 85 -72c109 -17 188 -73 188 -183c0 -57 -26 -104 -73 -133c23 -31 34 -67 34 -99zM255 389c-35 0 -82 -8 -82 -62c0 -53 57 -74 96 -74c35 0 82 8 82 62c0 52 -57 74 -96 74z" />
    <glyph glyph-name="bullet" unicode="&#x2022;" horiz-adv-x="500" 
d="M429 269c0 -100 -81 -181 -181 -181s-181 81 -181 181s81 181 181 181s181 -81 181 -181z" />
    <glyph glyph-name="paragraph" unicode="&#xb6;" horiz-adv-x="574" 
d="M408 -97h-87v362h-59c-104 0 -221 74 -222 216c-1 152 124 233 229 233h139v-811zM546 714v-811h-87v811h87z" />
    <glyph glyph-name="germandbls" unicode="&#xdf;" horiz-adv-x="696" 
d="M345 714c115 0 232 -59 232 -171c0 -83 -27 -97 -66 -117c67 -8 155 -66 155 -185c0 -134 -60 -241 -212 -241h-106v133h39c76 0 110 39 110 108c0 72 -40 107 -148 107v121c50 0 68 20 68 60c0 31 -26 53 -72 53c-48 0 -78 -34 -78 -83v-499h-173v317h-56v143h56v52
c0 132 115 202 251 202z" />
    <glyph glyph-name="registered" unicode="&#xae;" horiz-adv-x="416" 
d="M276 631c0 -33 -21 -49 -51 -49h-8l59 -84h-18l-58 84h-31v-84h-14v182h70c31 0 51 -21 51 -49zM262 631c0 19 -12 35 -36 35h-57v-70h57c24 0 36 13 36 35zM368 585c0 -87 -71 -158 -158 -158s-158 71 -158 158s71 158 158 158s158 -71 158 -158zM67 585
c0 -79 64 -143 143 -143s143 64 143 143s-64 143 -143 143s-143 -64 -143 -143z" />
    <glyph glyph-name="copyright" unicode="&#xa9;" horiz-adv-x="588" 
d="M563 389c0 -145 -118 -263 -263 -263s-263 118 -263 263s118 263 263 263s263 -118 263 -263zM58 390c0 -134 109 -243 243 -243s243 109 243 243s-109 243 -243 243s-243 -109 -243 -243zM190 394c0 -50 37 -101 110 -101c46 0 73 16 95 39v-24c-16 -15 -44 -35 -95 -35
c-86 0 -130 61 -130 121s43 120 130 120c48 0 75 -17 95 -30v-24c-21 16 -53 34 -95 34c-73 0 -110 -50 -110 -100z" />
    <glyph glyph-name="trademark" unicode="&#x2122;" horiz-adv-x="367" 
d="M160 721v-18h-61v-173h-18v173h-62v18h141zM193 724l61 -153l62 153l41 -193h-19l-27 126l-57 -137l-56 137l-28 -126h-20z" />
    <glyph glyph-name="acute" unicode="&#xb4;" horiz-adv-x="286" 
d="M244 675l-161 -119l-26 22l125 159z" />
    <glyph glyph-name="dieresis" unicode="&#xa8;" horiz-adv-x="367" 
d="M163 631c0 -41 -34 -75 -75 -75s-75 34 -75 75s34 75 75 75s75 -34 75 -75zM361 631c0 -41 -34 -75 -75 -75s-75 34 -75 75s34 75 75 75s75 -34 75 -75z" />
    <glyph glyph-name="notequal" unicode="&#x2260;" horiz-adv-x="464" 
d="M78 315v102h165l15 51h94l-15 -51h47v-102h-78l-24 -81h102v-102h-135l-18 -61h-94l18 61h-77v102h109l24 81h-133z" />
    <glyph glyph-name="AE" unicode="&#xc6;" horiz-adv-x="806" 
d="M405 536l-81 -204h81v204zM196 0h-179l333 714h423v-132h-194v-150h184v-133h-185v-166h195v-133h-368v199h-123z" />
    <glyph glyph-name="Oslash" unicode="&#xd8;" horiz-adv-x="796" 
d="M217 -20h-101l54 87c-84 67 -138 171 -138 288c0 203 164 367 367 367c55 0 108 -12 155 -34l29 47h102l-57 -92c84 -67 138 -171 138 -288c0 -203 -164 -367 -367 -367c-55 0 -107 12 -156 34zM463 540c-20 7 -41 11 -64 11c-108 0 -195 -87 -195 -195
c0 -54 22 -104 58 -139zM399 161c108 0 195 87 195 195c0 54 -22 104 -58 139l-200 -324c20 -6 41 -10 63 -10z" />
    <glyph glyph-name="plusminus" unicode="&#xb1;" horiz-adv-x="449" 
d="M174 448v112h103v-112h112v-102h-112v-112h-103v112h-112v102h112zM389 178v-102h-327v102h327z" />
    <glyph glyph-name="lessequal" unicode="&#x2264;" horiz-adv-x="444" 
d="M389 178v-102h-327v102h327zM367 704v-112l-168 -128l161 -127v-113l-298 240z" />
    <glyph glyph-name="greaterequal" unicode="&#x2265;" horiz-adv-x="444" 
d="M389 178v-102h-327v102h327zM81 337l161 127l-169 128v112l306 -240l-298 -240v113z" />
    <glyph glyph-name="yen" unicode="&#xa5;" horiz-adv-x="658" 
d="M214 714l118 -185l117 185h199l-230 -352h102v-56h-102v-41h102v-56h-102v-209h-173v209h-102v56h102v41h-102v56h102l-229 352h198z" />
    <glyph glyph-name="mu" unicode="&#xb5;" 
d="M301 393v-36h-264v36h264zM57 208c0 60 35 114 111 114c73 0 114 -41 114 -92c0 -48 -17 -77 -45 -111l-45 -57h91v-64h-230l120 167c17 24 22 40 22 60s-11 29 -30 29c-24 0 -32 -22 -32 -46h-76zM213 743v-322h-78v262h-44v60h122z" />
    <glyph glyph-name="partialdiff" unicode="&#x2202;" 
d="M301 393v-36h-264v36h264zM46 226c-1 46 30 98 118 98c73 0 119 -35 119 -88c0 -40 -13 -53 -33 -65c26 -9 43 -34 43 -75c0 -63 -54 -101 -126 -101c-82 0 -124 46 -124 97h73c0 -16 20 -32 48 -32c29 0 49 15 49 47c0 37 -24 45 -55 45v37c27 0 49 6 49 37
c0 27 -21 36 -45 36c-30 0 -44 -19 -44 -36h-72zM213 743v-322h-78v262h-44v60h122z" />
    <glyph glyph-name="summation" unicode="&#x2211;" 
d="M301 393v-36h-264v36h264zM213 744v-322h-78v262h-44v60h122zM263 319v-206h41v-59h-41v-57h-78v57h-151v65l156 200h73zM185 113v111l-87 -111h87z" />
    <glyph glyph-name="product" unicode="&#x220f;" 
d="M301 393v-36h-264v36h264zM57 632c0 60 35 114 111 114c73 0 114 -41 114 -92c0 -48 -17 -77 -45 -111l-45 -57h91v-64h-230l120 167c17 24 22 40 22 60s-11 29 -30 29c-24 0 -32 -22 -32 -46h-76zM46 226c-1 46 30 98 118 98c73 0 119 -35 119 -88
c0 -40 -13 -53 -33 -65c26 -9 43 -34 43 -75c0 -63 -54 -101 -126 -101c-82 0 -124 46 -124 97h73c0 -16 20 -32 48 -32c29 0 49 15 49 47c0 37 -24 45 -55 45v37c27 0 49 6 49 37c0 27 -21 36 -45 36c-30 0 -44 -19 -44 -36h-72z" />
    <glyph glyph-name="pi" unicode="&#x3c0;" 
d="M301 393v-36h-264v36h264zM45 649c-1 46 30 98 118 98c73 0 119 -35 119 -88c0 -40 -13 -53 -33 -65c26 -9 43 -34 43 -75c0 -63 -54 -101 -126 -101c-82 0 -124 46 -124 97h73c0 -16 20 -32 48 -32c29 0 49 15 49 47c0 37 -24 45 -55 45v37c27 0 49 6 49 37
c0 27 -21 36 -45 36c-30 0 -44 -19 -44 -36h-72zM262 317v-206h41v-59h-41v-57h-78v57h-151v65l156 200h73zM184 111v111l-87 -111h87z" />
    <glyph glyph-name="integral" unicode="&#x222b;" horiz-adv-x="791" 
d="M742 689v-688h-688v688h688zM697 644h-598v-598h598v598z" />
    <glyph glyph-name="ordfeminine" unicode="&#xaa;" horiz-adv-x="352" 
d="M327 354v-35h-291v35h291zM302 639v-232h-76v15c-12 -9 -29 -20 -69 -20c-77 0 -115 60 -115 119c0 60 38 119 115 119c38 0 58 -8 69 -18v17h76zM128 523c0 -26 21 -47 47 -47s48 21 48 47s-22 48 -48 48s-47 -22 -47 -48z" />
    <glyph glyph-name="ordmasculine" unicode="&#xba;" horiz-adv-x="367" 
d="M327 354v-35h-291v35h291zM309 510c0 -62 -42 -124 -127 -124c-86 0 -129 62 -129 124s43 123 128 123c86 0 128 -61 128 -123zM133 511c0 -27 22 -49 48 -49c27 0 49 22 49 49c0 26 -22 48 -49 48c-26 0 -48 -22 -48 -48z" />
    <glyph glyph-name="ae" unicode="&#xe6;" horiz-adv-x="1008" 
d="M717 466c180 0 257 -113 257 -245c0 -8 0 -17 -1 -25h-329c1 -45 32 -82 82 -82c56 0 77 15 86 37h153c-21 -67 -77 -162 -250 -162c-70 0 -125 24 -165 60v-49h-153v29c-23 -17 -58 -39 -138 -39c-153 0 -229 119 -229 238s76 238 229 238c77 0 116 -17 138 -36v34h153
v-59c39 37 95 61 167 61zM201 232c0 -52 43 -95 95 -95s95 43 95 95s-43 95 -95 95s-95 -43 -95 -95zM805 295c-3 28 -28 63 -81 63s-78 -35 -79 -63h160z" />
    <glyph glyph-name="oslash" unicode="&#xf8;" horiz-adv-x="552" 
d="M165 -23h-64c1 2 17 29 30 51c-70 46 -105 124 -105 203c0 121 84 243 253 243c39 0 74 -7 104 -18l19 32h64l-34 -59c66 -46 99 -122 99 -199c0 -121 -84 -243 -251 -243c-37 0 -70 6 -99 16zM184 232c0 -52 43 -95 95 -95s95 43 95 95s-43 95 -95 95s-95 -43 -95 -95z
" />
    <glyph glyph-name="questiondown" unicode="&#xbf;" horiz-adv-x="551" 
d="M213 370h155v-182h-57c-55 0 -91 -30 -91 -96c0 -59 21 -82 68 -82s62 27 67 70h173c-7 -100 -74 -218 -245 -218c-181 0 -258 105 -258 212c0 143 70 226 188 226v70zM194 493c0 53 43 96 96 96s96 -43 96 -96s-43 -96 -96 -96s-96 43 -96 96z" />
    <glyph glyph-name="exclamdown" unicode="&#xa1;" horiz-adv-x="306" 
d="M64 -123v492h174v-492h-174zM55 503c0 53 43 96 96 96s96 -43 96 -96s-43 -96 -96 -96s-96 43 -96 96z" />
    <glyph glyph-name="logicalnot" unicode="&#xac;" 
d="M301 393v-36h-264v36h264zM213 743v-322h-78v262h-44v60h122zM276 244c0 -43 -23 -61 -43 -71c24 -9 55 -33 55 -84s-46 -96 -113 -96c-70 0 -116 42 -116 95c0 51 31 75 55 85c-22 10 -45 27 -45 71s40 83 104 83c65 0 103 -39 103 -83zM146 241c0 -14 9 -28 27 -28
s28 14 28 28c0 13 -10 27 -28 27s-27 -14 -27 -27zM133 100c0 -20 13 -40 40 -40s40 20 40 40s-13 40 -40 40s-40 -20 -40 -40z" />
    <glyph glyph-name="radical" unicode="&#x221a;" horiz-adv-x="646" 
d="M109 287c30 -62 51 -126 55 -180c107 205 304 421 435 498v-158c-177 -88 -348 -259 -441 -434c-20 51 -53 131 -99 156z" />
    <glyph glyph-name="florin" unicode="&#x192;" horiz-adv-x="663" 
d="M607 551v-551h-551v551h551z" />
    <glyph glyph-name="approxequal" unicode="&#x2248;" horiz-adv-x="775" 
d="M324 268h122v123h-122v-123zM284 530c0 57 -34 104 -100 104c-60 0 -104 -38 -104 -103c0 -59 40 -100 105 -100h99v99zM184 391c-83 0 -143 60 -143 142c0 76 61 140 140 140c95 0 143 -63 143 -142v-100h122v100c0 79 50 142 143 142c79 0 140 -59 140 -140
s-64 -142 -143 -142h-100v-123h100c79 0 143 -59 143 -142c0 -79 -60 -139 -140 -139c-93 0 -143 62 -143 141v100h-122v-100c0 -79 -48 -141 -143 -141c-80 0 -140 58 -140 139c0 83 65 142 143 142h100v123h-100zM585 431c65 0 105 41 105 100c0 65 -44 103 -104 103
c-66 0 -100 -47 -100 -104v-99h99zM185 228c-65 0 -105 -41 -105 -100c0 -65 44 -103 104 -103c66 0 100 47 100 104v99h-99zM486 129c0 -57 34 -104 100 -104c60 0 104 38 104 103c0 59 -40 100 -105 100h-99v-99z" />
    <glyph glyph-name="guillemotleft" unicode="&#xab;" horiz-adv-x="624" 
d="M251 101l-225 164v82l229 168l63 -103l-154 -106l154 -106zM532 101l-226 164v82l230 168l63 -103l-154 -106l154 -106z" />
    <glyph glyph-name="guillemotright" unicode="&#xbb;" horiz-adv-x="624" 
d="M36 412l63 103l230 -168v-82l-226 -164l-67 99l154 106zM316 412l64 103l229 -168v-82l-225 -164l-68 99l154 106z" />
    <glyph glyph-name="ellipsis" unicode="&#x2026;" horiz-adv-x="949" 
d="M278 82c0 -48 -38 -86 -86 -86s-86 38 -86 86s38 86 86 86s86 -38 86 -86zM557 82c0 -48 -38 -86 -86 -86s-86 38 -86 86s38 86 86 86s86 -38 86 -86zM837 82c0 -48 -38 -86 -86 -86s-86 38 -86 86s38 86 86 86s86 -38 86 -86z" />
    <glyph glyph-name="nbspace" unicode="&#xe004;" horiz-adv-x="388" 
 />
    <glyph glyph-name="Agrave" unicode="&#xc0;" horiz-adv-x="673" 
d="M327 744l-135 99l52 52l103 -134zM240 714h199l220 -714h-173l-32 103h-227l-33 -103h-174zM342 481l-68 -219h133z" />
    <glyph glyph-name="Atilde" unicode="&#xc3;" horiz-adv-x="673" 
d="M499 850l41 -40c-28 -33 -60 -59 -129 -59c-37 0 -59 11 -78 22c-19 12 -36 23 -71 23c-44 0 -58 -18 -78 -41l-41 40c28 33 60 59 125 59c36 0 61 -11 81 -21c21 -12 38 -24 69 -24c42 0 61 18 81 41zM240 714h199l220 -714h-173l-32 103h-227l-33 -103h-174zM342 481
l-68 -219h133z" />
    <glyph glyph-name="Otilde" unicode="&#xd5;" horiz-adv-x="796" 
d="M550 850l41 -40c-28 -33 -60 -59 -129 -59c-37 0 -59 11 -78 22c-19 12 -36 23 -71 23c-44 0 -58 -18 -78 -41l-41 40c28 33 60 59 125 59c36 0 61 -11 81 -21c21 -12 38 -24 69 -24c42 0 61 18 81 41zM766 355c0 -203 -164 -367 -367 -367s-367 164 -367 367
s164 367 367 367s367 -164 367 -367zM204 356c0 -108 87 -195 195 -195s195 87 195 195s-87 195 -195 195s-195 -87 -195 -195z" />
    <glyph glyph-name="OE" unicode="&#x152;" horiz-adv-x="1102" 
d="M399 -12c-203 0 -367 164 -367 367s164 367 367 367c124 0 234 -61 300 -156l1 148h363v-132h-190v-150h175v-133h-174v-166h189v-133h-363l-1 143c-66 -94 -176 -155 -300 -155zM204 356c0 -108 87 -195 195 -195s195 87 195 195s-87 195 -195 195s-195 -87 -195 -195z
" />
    <glyph glyph-name="oe" unicode="&#x153;" horiz-adv-x="903" 
d="M619 474c180 0 254 -121 254 -253c0 -8 0 -17 -1 -25h-336c1 -48 33 -82 83 -82c56 0 77 15 86 37h153c-21 -67 -77 -164 -246 -164c-70 0 -124 23 -164 58c-39 -35 -96 -58 -168 -58c-170 0 -254 122 -254 244c0 121 84 243 253 243c74 0 131 -24 173 -61
c41 37 97 61 167 61zM184 232c0 -52 43 -95 95 -95s95 43 95 95s-43 95 -95 95s-95 -43 -95 -95zM698 295c-3 28 -28 63 -81 63s-78 -35 -79 -63h160z" />
    <glyph glyph-name="endash" unicode="&#x2013;" horiz-adv-x="582" 
d="M516 346v-102h-454v102h454z" />
    <glyph glyph-name="emdash" unicode="&#x2014;" horiz-adv-x="837" 
d="M777 346v-102h-715v102h715z" />
    <glyph glyph-name="quotedblleft" unicode="&#x201c;" horiz-adv-x="367" 
d="M126 620c0 -31 12 -57 29 -80h-66c-12 14 -27 40 -27 80v132h102v-104h-38v-28zM276 620c0 -31 12 -57 29 -80h-66c-12 14 -27 40 -27 80v132h102v-104h-38v-28z" />
    <glyph glyph-name="quotedblright" unicode="&#x201d;" horiz-adv-x="378" 
d="M219 648v104h102v-132c0 -40 -15 -66 -27 -80h-66c17 23 29 49 29 80v28h-38zM69 648v104h102v-132c0 -40 -15 -66 -27 -80h-66c17 23 29 49 29 80v28h-38z" />
    <glyph glyph-name="quoteleft" unicode="&#x2018;" horiz-adv-x="220" 
d="M126 620c0 -31 12 -57 29 -80h-66c-12 14 -27 40 -27 80v132h102v-104h-38v-28z" />
    <glyph glyph-name="quoteright" unicode="&#x2019;" horiz-adv-x="220" 
d="M60 648v104h102v-132c0 -40 -15 -66 -27 -80h-66c17 23 29 49 29 80v28h-38z" />
    <glyph glyph-name="divide" unicode="&#xf7;" horiz-adv-x="423" 
d="M57 315h306v-71h-306v71zM290 85c0 -43 -34 -78 -78 -78c-43 0 -77 35 -77 78s34 77 77 77c44 0 78 -34 78 -77zM290 472c0 -43 -34 -78 -78 -78c-43 0 -77 35 -77 78s34 77 77 77c44 0 78 -34 78 -77z" />
    <glyph glyph-name="lozenge" unicode="&#x25ca;" horiz-adv-x="541" 
d="M270 423l-142 -142l142 -142l142 142zM45 282l225 225l225 -225l-225 -225z" />
    <glyph glyph-name="ydieresis" unicode="&#xff;" horiz-adv-x="638" 
d="M292 632c0 -41 -34 -75 -75 -75s-75 34 -75 75s34 75 75 75s75 -34 75 -75zM490 632c0 -41 -34 -75 -75 -75s-75 34 -75 75s34 75 75 75s75 -34 75 -75zM321 218l133 242h174l-368 -661h-173l148 268l-220 393h173z" />
    <glyph glyph-name="Ydieresis" unicode="&#x178;" horiz-adv-x="658" 
d="M306 815c0 -33 -27 -60 -60 -60s-60 27 -60 60s27 60 60 60s60 -27 60 -60zM464 815c0 -33 -27 -60 -60 -60s-60 27 -60 60s27 60 60 60s60 -27 60 -60zM214 714l118 -186l110 186h204l-228 -352v-362h-173v362l-226 352h195z" />
    <glyph glyph-name="fraction" unicode="&#x2044;" horiz-adv-x="582" 
d="M145 -36h-133l426 781h131z" />
    <glyph glyph-name="guilsinglleft" unicode="&#x2039;" horiz-adv-x="352" 
d="M251 101l-225 164v82l229 168l63 -103l-154 -106l154 -106z" />
    <glyph glyph-name="guilsinglright" unicode="&#x203a;" horiz-adv-x="352" 
d="M36 412l63 103l230 -168v-82l-226 -164l-67 99l154 106z" />
    <glyph glyph-name="daggerdbl" unicode="&#x2021;" horiz-adv-x="245" 
d="M106 88v308h-67v27h67v134h-67v28h67v151h28v-151h67v-28h-67v-134h67v-27h-67v-308h-28z" />
    <glyph glyph-name="periodcentered" unicode="&#xb7;" horiz-adv-x="296" 
d="M236 358c0 -48 -38 -86 -86 -86s-86 38 -86 86s38 86 86 86s86 -38 86 -86z" />
    <glyph glyph-name="quotesinglbase" unicode="&#x201a;" horiz-adv-x="235" 
d="M69 0v104h102v-132c0 -40 -15 -66 -27 -80h-66c17 23 29 49 29 80v28h-38z" />
    <glyph glyph-name="quotedblbase" unicode="&#x201e;" horiz-adv-x="378" 
d="M219 0v104h102v-132c0 -40 -15 -66 -27 -80h-66c17 23 29 49 29 80v28h-38zM69 0v104h102v-132c0 -40 -15 -66 -27 -80h-66c17 23 29 49 29 80v28h-38z" />
    <glyph glyph-name="perthousand" unicode="&#x2030;" horiz-adv-x="1049" 
d="M360 594c0 -73 -54 -147 -163 -147s-163 74 -163 147c0 74 54 148 163 148s163 -74 163 -148zM258 594c0 30 -20 60 -61 60s-62 -30 -62 -61c0 -30 21 -60 62 -60c40 0 61 31 61 61zM613 714l-439 -714h-91l438 714h92zM674 140c0 -73 -54 -147 -163 -147
s-163 74 -163 147c0 74 54 148 163 148s163 -74 163 -148zM572 140c0 30 -20 60 -61 60s-62 -30 -62 -61c0 -30 21 -60 62 -60c40 0 61 31 61 61zM1028 140c0 -73 -54 -147 -163 -147s-163 74 -163 147c0 74 54 148 163 148s163 -74 163 -148zM926 140c0 30 -20 60 -61 60
s-62 -30 -62 -61c0 -30 21 -60 62 -60c40 0 61 31 61 61z" />
    <glyph glyph-name="Acircumflex" unicode="&#xc2;" horiz-adv-x="673" 
d="M322 891h34l104 -106l-20 -21l-101 65l-101 -65l-24 21zM240 714h199l220 -714h-173l-32 103h-227l-33 -103h-174zM342 481l-68 -219h133z" />
    <glyph glyph-name="Ecircumflex" unicode="&#xca;" horiz-adv-x="495" 
d="M240 891h33l105 -106l-21 -21l-101 65l-101 -65l-23 21zM446 561h-210v-127h198v-153h-198v-128h210v-153h-384v714h384v-153z" />
    <glyph glyph-name="Aacute" unicode="&#xc1;" horiz-adv-x="673" 
d="M492 844l-137 -102l-21 19l106 135zM240 714h199l220 -714h-173l-32 103h-227l-33 -103h-174zM342 481l-68 -219h133z" />
    <glyph glyph-name="Edieresis" unicode="&#xcb;" horiz-adv-x="495" 
d="M238 815c0 -33 -27 -60 -60 -60s-60 27 -60 60s27 60 60 60s60 -27 60 -60zM396 815c0 -33 -27 -60 -60 -60s-60 27 -60 60s27 60 60 60s60 -27 60 -60zM446 561h-210v-127h198v-153h-198v-128h210v-153h-384v714h384v-153z" />
    <glyph glyph-name="Egrave" unicode="&#xc8;" horiz-adv-x="495" 
d="M276 744l-135 99l52 52l103 -134zM446 561h-210v-127h198v-153h-198v-128h210v-153h-384v714h384v-153z" />
    <glyph glyph-name="Iacute" unicode="&#xcd;" horiz-adv-x="311" 
d="M302 844l-137 -102l-21 19l106 135zM244 0h-174v714h174v-714z" />
    <glyph glyph-name="Icircumflex" unicode="&#xce;" horiz-adv-x="311" 
d="M137 891h33l104 -106l-20 -21l-101 65l-101 -65l-23 21zM244 0h-174v714h174v-714z" />
    <glyph glyph-name="Idieresis" unicode="&#xcf;" horiz-adv-x="311" 
d="M132 815c0 -33 -27 -60 -60 -60s-60 27 -60 60s27 60 60 60s60 -27 60 -60zM290 815c0 -33 -27 -60 -60 -60s-60 27 -60 60s27 60 60 60s60 -27 60 -60zM244 0h-174v714h174v-714z" />
    <glyph glyph-name="Igrave" unicode="&#xcc;" horiz-adv-x="311" 
d="M145 744l-135 99l52 52l103 -134zM244 0h-174v714h174v-714z" />
    <glyph glyph-name="Oacute" unicode="&#xd3;" horiz-adv-x="796" 
d="M514 844l-136 -102l-22 19l106 135zM766 355c0 -203 -164 -367 -367 -367s-367 164 -367 367s164 367 367 367s367 -164 367 -367zM204 356c0 -108 87 -195 195 -195s195 87 195 195s-87 195 -195 195s-195 -87 -195 -195z" />
    <glyph glyph-name="Ocircumflex" unicode="&#xd4;" horiz-adv-x="796" 
d="M380 891h33l104 -106l-20 -21l-101 65l-101 -65l-24 21zM766 355c0 -203 -164 -367 -367 -367s-367 164 -367 367s164 367 367 367s367 -164 367 -367zM204 356c0 -108 87 -195 195 -195s195 87 195 195s-87 195 -195 195s-195 -87 -195 -195z" />
    <glyph glyph-name="apple" unicode="&#xe003;" horiz-adv-x="790" 
d="M275 530c34 0 68 -8 91 -24c28 -19 40 -27 60 -27s40 6 66 27c20 16 51 25 84 25c57 0 127 -29 136 -68c-44 -33 -80 -67 -80 -136c0 -77 50 -127 102 -142c-28 -67 -95 -198 -198 -198c-29 0 -55 11 -73 33c-9 11 -24 16 -39 16s-31 -5 -40 -16c-17 -21 -41 -31 -66 -31
c-68 0 -234 157 -234 346c0 113 74 195 191 195zM534 669c8 0 10 -3 10 -9c0 -51 -56 -142 -121 -142c-10 0 -12 9 -12 17c0 61 68 134 123 134z" />
    <glyph glyph-name="Ograve" unicode="&#xd2;" horiz-adv-x="796" 
d="M394 744l-135 99l52 52l103 -134zM766 355c0 -203 -164 -367 -367 -367s-367 164 -367 367s164 367 367 367s367 -164 367 -367zM204 356c0 -108 87 -195 195 -195s195 87 195 195s-87 195 -195 195s-195 -87 -195 -195z" />
    <glyph glyph-name="Uacute" unicode="&#xda;" horiz-adv-x="645" 
d="M451 844l-137 -102l-21 19l106 135zM224 247c0 -70 45 -100 100 -100s100 30 100 100v467h174v-486c0 -159 -125 -235 -274 -235c-148 0 -273 76 -273 235v486h173v-467z" />
    <glyph glyph-name="Ucircumflex" unicode="&#xdb;" horiz-adv-x="645" 
d="M308 891h34l104 -106l-20 -21l-102 65l-101 -65l-23 21zM224 247c0 -70 45 -100 100 -100s100 30 100 100v467h174v-486c0 -159 -125 -235 -274 -235c-148 0 -273 76 -273 235v486h173v-467z" />
    <glyph glyph-name="Ugrave" unicode="&#xd9;" horiz-adv-x="645" 
d="M320 744l-134 99l52 52l103 -134zM224 247c0 -70 45 -100 100 -100s100 30 100 100v467h174v-486c0 -159 -125 -235 -274 -235c-148 0 -273 76 -273 235v486h173v-467z" />
    <glyph glyph-name="dotlessi" unicode="&#x131;" horiz-adv-x="254" 
d="M240 460v-460h-174v460h174z" />
    <glyph glyph-name="circumflex" unicode="&#x2c6;" horiz-adv-x="393" 
d="M185 688h36l117 -119l-23 -22l-112 71l-112 -71l-27 22z" />
    <glyph glyph-name="tilde" unicode="&#x2dc;" horiz-adv-x="464" 
d="M392 658l41 -40c-28 -33 -60 -59 -129 -59c-37 0 -59 11 -78 22c-19 12 -36 23 -71 23c-44 0 -58 -18 -78 -41l-41 40c28 33 60 59 125 59c36 0 61 -11 81 -21c21 -12 38 -24 69 -24c42 0 61 18 81 41z" />
    <glyph glyph-name="macron" unicode="&#xaf;" horiz-adv-x="347" 
d="M321 607v-36h-290v36h290z" />
    <glyph glyph-name="breve" unicode="&#x2d8;" horiz-adv-x="327" 
d="M79 642c20 -26 52 -42 88 -42c37 0 70 18 90 46l37 -37c-30 -37 -76 -61 -127 -61c-50 0 -94 22 -124 57z" />
    <glyph glyph-name="dotaccent" unicode="&#x2d9;" horiz-adv-x="184" 
d="M154 592c0 -33 -27 -60 -60 -60c-34 0 -60 27 -60 60c0 34 26 60 60 60c33 0 60 -26 60 -60z" />
    <glyph glyph-name="ring" unicode="&#x2da;" horiz-adv-x="276" 
d="M234 609c0 -55 -45 -100 -100 -100s-100 45 -100 100s45 100 100 100s100 -45 100 -100zM68 609c0 -37 30 -67 67 -67s67 30 67 67s-30 67 -67 67s-67 -30 -67 -67z" />
    <glyph glyph-name="cedilla" unicode="&#xb8;" horiz-adv-x="245" 
d="M160 -33c30 -13 51 -41 51 -76c0 -40 -33 -69 -85 -69c-30 0 -59 8 -73 17v75c9 -6 26 -13 41 -13c16 0 27 7 27 27c0 13 -10 23 -26 31l16 41h61z" />
    <glyph glyph-name="hungarumlaut" unicode="&#x2dd;" horiz-adv-x="412" 
d="M255 692l-138 -145l-28 16l95 179zM372 692l-137 -145l-29 16l95 179z" />
    <glyph glyph-name="ogonek" unicode="&#x2db;" horiz-adv-x="296" 
d="M126 -56c0 -28 18 -43 43 -43c16 0 35 7 45 13c6 3 11 5 16 5c8 0 14 -6 14 -14c0 -11 -9 -27 -30 -44c-11 -8 -34 -16 -59 -16c-39 0 -91 23 -91 83c0 30 10 49 26 72h61c-15 -18 -25 -37 -25 -56z" />
    <glyph glyph-name="caron" unicode="&#x2c7;" horiz-adv-x="378" 
d="M212 517h-36l-117 119l23 22l112 -71l112 71l27 -22z" />
  </font>
</defs>
</svg>
