<?xml version="1.0" standalone="no"?>
<!DOCTYPE svg PUBLIC "-//W3C//DTD SVG 1.1//EN" "http://www.w3.org/Graphics/SVG/1.1/DTD/svg11.dtd" >
<svg xmlns="http://www.w3.org/2000/svg" xmlns:xlink="http://www.w3.org/1999/xlink" version="1.1">
<metadata>
Created by FontForge 20160407 at Sun Nov 27 21:09:06 2016
 By Jimmy Wärting
Copyright 1990-1993 Bitstream Inc.  All rights reserved.
</metadata>
<defs>
<font id="BalloonBT-ExtraBold" horiz-adv-x="1024" >
  <font-face 
    font-family="Balloon XBd BT"
    font-weight="400"
    font-style="italic"
    font-stretch="semi-condensed"
    units-per-em="2048"
    panose-1="3 6 9 2 3 4 2 6 2 1"
    ascent="1638"
    descent="-410"
    x-height="1384"
    cap-height="1413"
    bbox="-365 -483 2103 1935"
    underline-thickness="250"
    underline-position="-348"
    slope="-14"
    unicode-range="U+0020-F002"
  />
<missing-glyph horiz-adv-x="1229" 
d="M102 -362v1806h1024v-1806h-1024zM217 -248h795v1577h-795v-1577z" />
    <glyph glyph-name=".notdef" horiz-adv-x="1229" 
d="M102 -362v1806h1024v-1806h-1024zM217 -248h795v1577h-795v-1577z" />
    <glyph glyph-name=".null" horiz-adv-x="0" 
 />
    <glyph glyph-name="nonmarkingreturn" horiz-adv-x="553" 
 />
    <glyph glyph-name="space" unicode=" " horiz-adv-x="553" 
 />
    <glyph glyph-name="exclam" unicode="!" horiz-adv-x="659" 
d="M154 590l2 18q23 133 64 313t91 377l2 15q16 60 52 81t167 21q93 0 121.5 -18t28.5 -70q0 -4 -2 -15.5t-6 -25.5l-2 -14q-6 -36 -75 -234.5t-161 -427.5l-6 -14q-34 -86 -56 -101.5t-85 -15.5q-84 0 -114 12.5t-30 49.5q0 1 3 17.5t6 31.5zM39 125q0 90 56.5 155.5
t131.5 65.5q65 0 102.5 -40t37.5 -107q0 -96 -54.5 -162t-130.5 -66q-64 0 -103.5 42.5t-39.5 111.5z" />
    <glyph glyph-name="quotedbl" unicode="&#x22;" horiz-adv-x="713" 
d="M416 1438h223v-561h-223v561zM76 1438h219v-561h-219v561z" />
    <glyph glyph-name="numbersign" unicode="#" horiz-adv-x="1575" 
d="M707 842l-82 -232h245l82 232h-245zM684 1466h250l-139 -393h235l141 393h250l-139 -393h270l-86 -231h-268l-80 -230h277l-84 -231h-275l-141 -393h-250l139 393h-235l-141 -393h-250l139 393h-274l86 231h270l82 230h-283l86 231h279z" />
    <glyph glyph-name="dollar" unicode="$" horiz-adv-x="948" 
d="M174 125q-40 5 -81 19t-70 32l-13 8q-21 13 -30 28.5t-9 37.5q0 16 3 33.5t12 46.5l4 16q18 63 39 89t53 26q15 0 50 -11q3 -1 5 -1l13 -5q1 0 7 -2q133 -39 222 -39q50 0 78 20.5t28 55.5q0 59 -123 120q-58 29 -90 48q-79 49 -119 116.5t-40 151.5q0 132 94.5 227.5
t245.5 112.5l32 125q14 54 44.5 70t99.5 16h10q69 0 96 -12t27 -43q0 -10 -1 -16t-3 -13l-31 -118q64 -8 127 -27q5 -2 6 -2l14 -4q22 -6 33 -24t11 -48q-1 -12 -3.5 -32.5t-7.5 -43.5l-4 -14q-14 -66 -35 -96.5t-53 -30.5q-12 0 -29 6t-20 6l-12 2q-3 1 -67 19t-116 18
q-47 0 -78.5 -17.5t-31.5 -41.5q0 -26 29 -49t131 -68q122 -54 171.5 -124t49.5 -183q0 -162 -108 -271t-285 -124l-39 -185q-9 -37 -37 -53t-86 -16h-13l-16 2q-76 3 -103.5 14t-27.5 37q0 8 0.5 12t1.5 9z" />
    <glyph glyph-name="percent" unicode="%" horiz-adv-x="1593" 
d="M561 70q-35 -65 -75 -98t-83 -33q-34 0 -56.5 18t-22.5 45q0 10 3.5 21.5t10.5 25.5l704 1278q42 74 76.5 102.5t77.5 28.5q34 0 56 -18t22 -45q0 -13 -3 -25t-9 -22zM1186 535q-45 0 -88 -102.5t-43 -215.5q0 -33 13 -50t38 -17q46 0 88.5 100t42.5 209q0 35 -13.5 55.5
t-37.5 20.5zM850 244q0 191 107 331t251 140q110 0 171 -71t61 -198q0 -204 -102 -339.5t-255 -135.5q-109 0 -171 72t-62 201zM481 1233q-44 0 -86.5 -103t-42.5 -217q0 -32 13 -48.5t38 -16.5q47 0 89.5 100t42.5 209q0 35 -14.5 55.5t-39.5 20.5zM147 940
q0 192 107.5 332.5t251.5 140.5q109 0 170 -71.5t61 -198.5q0 -204 -102.5 -338.5t-255.5 -134.5q-110 0 -171 71t-61 199z" />
    <glyph glyph-name="ampersand" unicode="&#x26;" horiz-adv-x="1186" 
d="M330 842q-26 38 -38.5 80.5t-12.5 89.5q0 167 127 283t313 116q154 0 256 -85t102 -210q0 -71 -29.5 -100.5t-121.5 -36.5l-14 -2q-13 -1 -32 -1.5t-65 -0.5q-25 0 -36 8t-11 27v11q-2 39 -20 59t-50 20q-42 0 -71 -30.5t-29 -74.5t48 -72t48 -38q0 -19 -6.5 -47.5
t-17.5 -56.5l-6 -12q-4 -10 -10 -26q-39 -100 -91 -122q-128 -57 -172.5 -103t-44.5 -110q0 -54 33.5 -85.5t89.5 -31.5q47 0 91 27t77 77l-45 2q-14 0 -21.5 7t-7.5 20q0 8 8.5 32t24.5 60l6 14q45 104 87 127t220 23q137 0 171 -10t34 -41q0 -14 -5 -36t-19 -67l-4 -11
l-4 -11q-38 -115 -115 -115h-142l78 -39q25 -13 37 -25t12 -24q0 -38 -40.5 -94t-106.5 -105q-84 -61 -180.5 -94t-192.5 -33q-183 0 -300.5 112.5t-117.5 285.5q0 153 86 281t230 188z" />
    <glyph glyph-name="quotesingle" unicode="'" horiz-adv-x="371" 
d="M76 1438h219v-561h-219v561z" />
    <glyph glyph-name="parenleft" unicode="(" horiz-adv-x="797" 
d="M899 1372l6 -10q13 -21 20 -38t7 -30q0 -23 -12 -40t-35 -27l-11 -4q-211 -101 -320.5 -294.5t-109.5 -467.5q0 -106 26 -213t65 -170l6 -11q9 -14 15.5 -36t6.5 -37q0 -28 -21.5 -48t-64.5 -32l-14 -4q-9 -3 -21 -4.5t-28 -1.5q-74 0 -125 41t-90 133l-6 14
q-32 73 -49 174t-17 213q0 330 153.5 603.5t372.5 342.5l11 5q25 8 51 12t55 4q40 0 72.5 -18.5t56.5 -55.5z" />
    <glyph glyph-name="parenright" unicode=")" horiz-adv-x="797" 
d="M588 1272l6 -12q30 -72 46.5 -174.5t16.5 -215.5q0 -329 -152.5 -602.5t-371.5 -343.5l-12 -2q-26 -8 -51 -12t-54 -4q-41 0 -73 18t-56 53l-6 11q-14 21 -21 39t-7 30q0 22 12 38.5t37 27.5l8 4q212 101 322 295t110 467q0 107 -26 214.5t-64 168.5l-6 12
q-11 19 -18 38.5t-7 33.5q0 27 22.5 47t65.5 33l13 4q11 3 23 4.5t26 1.5q74 0 126 -41.5t91 -132.5z" />
    <glyph glyph-name="asterisk" unicode="*" 
d="M468 1172q23 104 52 185q2 6 2 7l6 12q7 19 17.5 28t25.5 9t25 -1t20 -3l50 -8q3 -1 8 -2q61 -11 61 -43q0 -2 -1.5 -8t-4.5 -15l-6 -12q-14 -38 -24 -74.5t-15 -68.5q31 4 69 14.5t81 26.5l12 4q9 3 15 4.5t7 1.5q18 0 26 -9.5t17 -51.5l11 -58q2 -11 4 -23t2 -20
q0 -17 -7 -26t-30 -19l-14 -6q-29 -11 -76.5 -23.5t-103.5 -23.5q1 -35 29 -126q9 -29 13 -44l4 -15q1 -2 5 -11t4 -15q0 -15 -12 -23.5t-45 -15.5l-59 -13q-11 -3 -23.5 -4.5t-26.5 -1.5q-11 0 -20.5 10t-14.5 25l-4 14q-2 7 -5 20q-20 74 -28 130q-31 -58 -60 -103
t-44 -61l-13 -12q-10 -10 -16.5 -13t-15.5 -3q-18 0 -57 24q-1 1 -3 2l-37 25q-25 16 -36 29t-11 24q0 13 19 31l4 4l10 10q30 30 57 61.5t51 65.5q-9 3 -28 9q-50 15 -56 18l-14 6h-1q-36 17 -36 47q0 6 2 17t4 23l11 58q8 42 16.5 52t26.5 10q1 0 7.5 -2t15.5 -5l12 -4
q45 -17 81.5 -27.5t64.5 -12.5z" />
    <glyph glyph-name="plus" unicode="+" horiz-adv-x="1706" 
d="M735 1221h238v-494h479v-231h-479v-496h-238v496h-481v231h481v494z" />
    <glyph glyph-name="comma" unicode="," horiz-adv-x="555" 
d="M-84 -205l2 12q39 171 67 263.5t60 165.5l2 6q24 53 53.5 68.5t141.5 15.5q75 0 103 -15t28 -51q0 -11 -4 -25t-11 -27l-4 -9q-71 -143 -143 -254.5t-137 -180.5l-11 -10q-25 -28 -42 -35.5t-41 -7.5q-2 0 -5.5 1t-5.5 1l-18 4q-20 5 -29.5 16t-9.5 29q0 8 1 17t3 16z
" />
    <glyph glyph-name="hyphen" unicode="-" horiz-adv-x="801" 
d="M68 283q-46 0 -62 12.5t-16 44.5q0 47 22.5 122.5t42.5 104.5q11 16 29 23.5t43 7.5h463q44 0 61 -13.5t17 -49.5q0 -59 -20.5 -122.5t-49.5 -101.5q-12 -15 -30.5 -21.5t-55.5 -6.5h-444z" />
    <glyph glyph-name="period" unicode="." horiz-adv-x="555" 
d="M10 125q0 90 56.5 155.5t132.5 65.5q64 0 102.5 -40.5t38.5 -106.5q0 -94 -55.5 -161t-130.5 -67q-65 0 -104.5 42.5t-39.5 111.5z" />
    <glyph glyph-name="slash" unicode="/" horiz-adv-x="778" 
d="M-82 -74l600 1364q31 69 77.5 100t119.5 31q51 0 79.5 -18t28.5 -49q0 -10 -2.5 -21.5t-9.5 -25.5l-604 -1364q-31 -67 -76.5 -98t-114.5 -31q-56 0 -83 16t-27 49q0 11 3 23t9 24z" />
    <glyph glyph-name="zero" unicode="0" horiz-adv-x="1104" 
d="M662 1096q-29 0 -53.5 -16.5t-53.5 -55.5q-76 -100 -124 -260.5t-48 -323.5q0 -69 21 -109t57 -40q27 0 52 22t52 70q70 121 117 294t47 308q0 55 -17 83t-50 28zM47 473q0 166 46.5 334.5t129.5 306.5q88 146 203.5 221.5t249.5 75.5q181 0 284 -123.5t103 -341.5
q0 -153 -42 -319t-118 -308q-94 -175 -212 -263.5t-257 -88.5q-179 0 -283 135t-104 371z" />
    <glyph glyph-name="one" unicode="1" horiz-adv-x="754" 
d="M254 928l-88 41q-34 15 -43.5 26t-9.5 29q0 14 7 27.5t27 35.5l7 7q8 10 38 43q107 119 191 225l8 10q21 23 40.5 31t47.5 8q10 0 32 -2t52 -6l16 -2q60 -10 98 -34.5t38 -53.5q0 -9 -1 -16t-3 -14l-4 -17q-23 -93 -78.5 -303.5t-79.5 -305.5q-45 -170 -93 -371t-57 -231
l-4 -15q-11 -35 -34 -52t-62 -17q-12 0 -54 3q-15 1 -22 1h-14q-90 6 -127 25t-37 59q0 10 1 20t3 21l2 16q6 42 61 262.5t142 549.5z" />
    <glyph glyph-name="two" unicode="2" horiz-adv-x="948" 
d="M434 305h271q49 0 62 -12t13 -43q0 -22 -4 -47.5t-12 -48.5l-6 -17q-29 -90 -55.5 -118.5t-94.5 -28.5h-432q-103 0 -152 94q-8 16 -14 27l-4 8q-16 31 -26.5 67t-10.5 60q0 18 40 52q12 10 17 15l11 11q220 191 378 409t158 293q0 31 -12.5 45t-40.5 14t-56.5 -22
t-53.5 -64l-6 -11q-11 -18 -27 -25t-55 -7q-8 0 -33 2t-37 3h-15q-93 7 -119 20.5t-26 46.5v12l2 15q14 141 153.5 248.5t325.5 107.5q162 0 258.5 -87.5t96.5 -233.5q0 -170 -127.5 -372.5t-366.5 -412.5z" />
    <glyph glyph-name="three" unicode="3" horiz-adv-x="999" 
d="M682 733q94 -37 140 -111t46 -188q0 -190 -144.5 -325.5t-350.5 -135.5q-182 0 -295 102t-113 265q0 87 31.5 124.5t103.5 37.5q4 0 14 -1t15 -1h12q74 -7 100.5 -24.5t26.5 -55.5v-4v-21q0 -51 22 -74.5t70 -23.5q64 0 112 48.5t48 115.5q0 53 -37.5 89t-113.5 58l-16 4
q-17 5 -23 15.5t-6 34.5q0 14 5 38t15 58l4 12q3 10 8 28q27 93 84 99l15 2q70 7 113.5 41t43.5 78q0 35 -23 57.5t-59 22.5q-31 0 -50 -9t-38 -32l-8 -13q-15 -19 -42.5 -27.5t-74.5 -8.5q-20 0 -31.5 0.5t-21.5 1.5l-18 2q-60 6 -92.5 26t-32.5 52q0 5 3 16q1 3 1 4l4 12
q42 129 165.5 209t283.5 80q173 0 280 -95t107 -245q0 -127 -77.5 -219.5t-205.5 -118.5z" />
    <glyph glyph-name="four" unicode="4" horiz-adv-x="1104" 
d="M348 608h270q11 46 56.5 224.5t75.5 308.5q-82 -111 -217 -288t-185 -245zM541 317l-281 -6q-30 0 -55 -2h-2q-69 0 -153 121l-9 12l-6 11q-25 33 -40 69t-15 56q0 9 4.5 20t19.5 35l8 12q141 207 269 388.5t225 312.5l6 10q25 33 44.5 44t47.5 11q14 0 40.5 -7t60.5 -20
l14 -4q93 -34 117 -49t24 -31q0 -8 -4 -17t-12 -21l-60 -86l164 -2q70 0 95.5 -16.5t25.5 -55.5q0 -12 -2 -25t-6 -26l-4 -15q-1 -2 -2 -8q-43 -172 -105 -395h70q23 0 34 -8.5t11 -26.5q0 -7 -6.5 -42t-16.5 -73l-2 -14q-25 -95 -45.5 -123.5t-56.5 -28.5h-70
q-17 -76 -32 -136t-21 -83l-4 -14q-21 -78 -46.5 -95.5t-86.5 -17.5h-23h-13q-95 4 -129 22.5t-34 61.5q0 9 1.5 21t4.5 26l4 15q2 7 7 28q23 96 45 172z" />
    <glyph glyph-name="five" unicode="5" horiz-adv-x="1012" 
d="M453 926q41 21 81 32t78 11q138 0 227 -106t89 -273q0 -113 -41 -221.5t-117 -196.5q-80 -95 -188 -148t-224 -53q-170 0 -288.5 104t-118.5 249q0 66 37.5 93t132.5 27h39q73 0 96.5 -7.5t28.5 -25.5l2 -14q10 -44 36 -66t66 -22q63 0 123.5 75.5t60.5 156.5
q0 64 -34.5 100.5t-96.5 36.5q-28 0 -64.5 -12t-64.5 -31l-10 -8q-13 -8 -18.5 -10.5t-8.5 -2.5q-18 0 -74 76q-19 25 -30 39l-6 12q-7 9 -19 25q-51 64 -51 98q0 13 6.5 32.5t8.5 27.5l4 10q1 5 9 31q46 150 89 309l4 18q18 65 33 78.5t76 13.5h626q45 0 59.5 -10t14.5 -37
q0 -13 -3 -34.5t-9 -51.5l-4 -18l-1 -3q-37 -161 -155 -161h-367z" />
    <glyph glyph-name="six" unicode="6" horiz-adv-x="1065" 
d="M500 795q-63 -94 -100.5 -198t-37.5 -173q0 -57 28.5 -92t74.5 -35q60 0 118 71t58 144q0 32 -13.5 47.5t-41.5 15.5q-3 0 -15 -3t-19 -5l-11 -2q-1 0 -4 -1t-5 -1q-9 0 -13.5 10.5t-6.5 38.5zM543 858q43 16 81.5 23.5t80.5 7.5q124 0 202 -86.5t78 -229.5
q0 -99 -36 -200t-101 -185q-83 -103 -191.5 -160t-224.5 -57q-184 0 -295.5 118.5t-111.5 313.5q0 164 81 359t230 387q112 145 186.5 204.5t139.5 59.5q24 0 53.5 -4t58.5 -12l10 -2q73 -18 112.5 -41.5t39.5 -48.5q0 -20 -32 -49l-1 -1l-14 -12q-110 -102 -194.5 -196.5
t-151.5 -188.5z" />
    <glyph glyph-name="seven" unicode="7" horiz-adv-x="1022" 
d="M375 1063l-8 -41q-8 -38 -34.5 -53t-88.5 -15h-17h-14q-86 4 -114.5 20t-28.5 56q0 12 7 47.5t19 85.5l4 15q5 17 12 47q41 159 187 159h584q73 0 133 -93l6 -9l6 -10q34 -54 42.5 -77.5t8.5 -45.5q0 -13 -7.5 -31.5t-20.5 -36.5l-11 -14q-121 -166 -247 -377.5
t-351 -644.5l-6 -12q-16 -32 -39 -47t-55 -15q-15 0 -40 4.5t-77 16.5l-12 2q-56 13 -92.5 37t-36.5 47q0 15 23 61q5 9 8 15l6 14q124 247 252 470.5t260 424.5h-258z" />
    <glyph glyph-name="eight" unicode="8" horiz-adv-x="993" 
d="M475 496q-76 -41 -119 -82t-43 -74q0 -32 27 -53t70 -21q55 0 92 31t37 76q0 26 -16 56t-48 67zM526 895l219 154q-57 32 -101.5 47.5t-82.5 15.5q-48 0 -78 -23.5t-30 -60.5q0 -21 16 -51t57 -82zM879 1042q28 -38 46.5 -75.5t26.5 -71.5l4 -10q2 -8 3.5 -16.5
t1.5 -16.5q0 -20 -11.5 -38.5t-31.5 -31.5l-13 -10l-9 -6q-87 -58 -148 -104q49 -69 74.5 -139.5t25.5 -137.5q0 -184 -131 -299t-342 -115q-191 0 -296.5 79t-105.5 220q0 112 69 212.5t230 222.5q-72 80 -109.5 162t-37.5 161q0 163 138 273t349 110q165 0 288.5 -48
t123.5 -99q0 -11 -4.5 -26.5t-11.5 -28.5l-4 -11q-19 -32 -49 -70t-76 -86z" />
    <glyph glyph-name="nine" unicode="9" horiz-adv-x="1087" 
d="M559 498q76 101 117 216.5t41 229.5q0 68 -32 109t-85 41q-70 0 -127 -76t-57 -168q0 -58 25 -93.5t66 -37.5h15q31 -2 48.5 -21t17.5 -51q0 -31 -27 -141zM518 440q-34 -12 -63 -18t-54 -6q-138 0 -229.5 109t-91.5 276q0 87 27.5 175.5t80.5 172.5q80 126 197 195
t250 69q195 0 306.5 -121.5t111.5 -335.5q0 -155 -60 -321.5t-178 -341.5q-76 -113 -162.5 -213.5t-156.5 -161.5l-11 -8q-31 -27 -45 -36t-22 -9q-16 0 -48 15t-77 44l-14 10q-70 45 -89.5 64t-19.5 35q0 8 8 20t23 25l10 10q55 50 137 144t170 208z" />
    <glyph glyph-name="colon" unicode=":" horiz-adv-x="555" 
d="M104 618q0 91 56 156.5t131 65.5q64 0 102.5 -40.5t38.5 -107.5q0 -94 -54 -160.5t-130 -66.5q-65 0 -104.5 42t-39.5 111zM-6 125q0 90 55.5 155.5t130.5 65.5q64 0 103 -40.5t39 -106.5q0 -94 -55.5 -161t-131.5 -67q-64 0 -102.5 42t-38.5 112z" />
    <glyph glyph-name="semicolon" unicode=";" horiz-adv-x="555" 
d="M-109 -205l3 12q13 97 48.5 219t75.5 210l2 6q25 53 54 68.5t141 15.5q76 0 104.5 -15t28.5 -51q0 -11 -4 -25.5t-10 -25.5l-4 -10q-71 -141 -143.5 -252.5t-139.5 -182.5l-8 -10q-26 -28 -43 -35.5t-41 -7.5q-2 0 -5.5 1t-4.5 1l-18 4q-20 5 -30 16t-10 29q0 6 3 23
q1 7 1 10zM74 618q0 91 56.5 156.5t131.5 65.5q64 0 101.5 -40.5t37.5 -107.5q0 -94 -54 -160.5t-130 -66.5q-64 0 -103.5 42t-39.5 111z" />
    <glyph glyph-name="less" unicode="&#x3c;" horiz-adv-x="1706" 
d="M1442 1214v-253l-854 -351l854 -348v-254l-1178 486v233z" />
    <glyph glyph-name="equal" unicode="=" horiz-adv-x="1706" 
d="M254 502h1198v-230h-1198v230zM254 950h1198v-231h-1198v231z" />
    <glyph glyph-name="greater" unicode="&#x3e;" horiz-adv-x="1706" 
d="M264 1214l1178 -487v-233l-1178 -486v254l854 348l-854 351v253z" />
    <glyph glyph-name="question" unicode="?" horiz-adv-x="963" 
d="M211 461v8q0 101 64 193t227 217q84 63 109.5 97.5t25.5 70.5q0 32 -19.5 49.5t-56.5 17.5q-51 0 -83.5 -30t-49.5 -93l-4 -10q-8 -28 -39 -40.5t-94 -12.5h-15q-104 0 -128.5 19t-24.5 77q0 14 0.5 21t1.5 12l2 12q26 152 153.5 248t309.5 96q169 0 275 -84.5
t106 -218.5q0 -97 -60 -193t-236 -258q-4 -4 -15 -14q-109 -99 -160 -192l-6 -9q-13 -22 -39.5 -32.5t-92.5 -14.5h-16q-6 0 -18 -1t-17 -1q-54 0 -77 15.5t-23 50.5zM127 125q0 90 56.5 155.5t131.5 65.5q64 0 102 -40t38 -107q0 -94 -54.5 -161t-130.5 -67
q-64 0 -103.5 42.5t-39.5 111.5z" />
    <glyph glyph-name="at" unicode="@" horiz-adv-x="2048" 
d="M1161 262q-56 -82 -126.5 -120t-168.5 -38q-163 0 -247 87.5t-84 257.5q0 241 141.5 404t349.5 163q77 0 134 -30.5t95 -92.5l52 92h206l-153 -610q0 -2 -1 -6q-3 -18 -3 -27q0 -30 16 -44.5t47 -14.5q137 0 240.5 143.5t103.5 335.5q0 239 -179.5 390t-467.5 151
q-148 0 -274 -36.5t-230 -109.5q-155 -110 -239 -274.5t-84 -356.5q0 -302 203 -481.5t544 -179.5q164 0 316 47.5t280 138.5l97 -135q-156 -117 -329 -175t-364 -58q-192 0 -354.5 49t-288.5 145q-157 122 -234 281.5t-77 361.5q0 169 53 320.5t156 277.5
q148 183 359.5 278t467.5 95q170 0 320 -46t260 -132q136 -107 203 -243t67 -306q0 -167 -65.5 -307t-190.5 -240q-69 -56 -154 -85.5t-176 -29.5q-106 0 -161 40t-60 120zM1198 696q-9 76 -50 116t-110 40q-103 0 -181.5 -121.5t-78.5 -286.5q0 -83 35 -128.5t98 -45.5
q84 0 148 59t88 158z" />
    <glyph glyph-name="A" unicode="A" horiz-adv-x="1063" 
d="M487 633h156q7 107 10.5 189.5t3.5 125.5v66v59q-50 -104 -92 -212.5t-78 -227.5zM29 319l-25 3q-14 1 -24.5 14.5t-10.5 32.5q0 7 4.5 27.5t18.5 78.5l2 14l1 4q39 162 118 162h61q83 205 164 378.5t141 279.5l13 20q30 51 53.5 66.5t60.5 15.5q15 0 37.5 -2t48.5 -6
l19 -2q113 -16 147 -40.5t41 -84.5l4 -25q18 -142 28.5 -376t10.5 -502q0 -138 -6 -247v-9l-2 -23q-6 -68 -36.5 -93t-113.5 -30l-16 -2h-27q-64 0 -95.5 22.5t-33.5 68.5v176v141v129l-65 -148q-10 -24 -26.5 -34.5t-47.5 -10.5h-98q-45 -112 -92 -231q-11 -26 -13 -31
l-8 -22q-14 -32 -33 -47t-47 -15q-21 0 -47 5t-51 14l-16 4q-71 24 -95 43.5t-24 48.5q0 7 0.5 13.5t3.5 19.5l4 14q6 23 25.5 73.5t46.5 112.5z" />
    <glyph glyph-name="B" unicode="B" horiz-adv-x="1139" 
d="M55 288l8 36q1 1 2 6q70 281 193 678q-25 -9 -63 -23q-47 -16 -56 -16q-16 0 -26.5 12t-10.5 33q0 17 6 43.5t25 89.5l2 10q27 91 40.5 120.5t29.5 43.5q46 37 164.5 64.5t257.5 27.5q228 0 368 -109t140 -286q0 -117 -63 -207.5t-189 -155.5q52 -52 79 -114.5t27 -132.5
q0 -192 -167.5 -314.5t-438.5 -122.5q-150 0 -228 95q-12 15 -18 22l-10 10q-41 51 -60.5 86.5t-19.5 59.5q0 6 5 29zM404 317q9 -1 18 -1.5t29 -0.5q91 0 143.5 31t52.5 84q0 36 -39.5 59t-46.5 64l-31 188q-46 -144 -76 -244t-50 -180zM555 791q120 27 179 75.5t59 120.5
q0 47 -49 72.5t-138 25.5q-48 0 -101 -9t-114 -27l160 -41q27 -7 38 -18.5t11 -33.5q0 -4 -1 -10.5t-3 -13.5z" />
    <glyph glyph-name="C" unicode="C" horiz-adv-x="995" 
d="M729 571h17q69 -2 103 -28.5t34 -79.5q0 -70 -36.5 -153t-98.5 -156q-73 -85 -168 -133t-189 -48q-160 0 -253 124.5t-93 340.5q0 169 51 348t140 318q99 157 220 233t273 76q133 0 211 -75t78 -203q0 -129 -48 -196t-143 -71h-26q-64 0 -99.5 17.5t-35.5 48.5
q0 20 12 52.5t12 47.5q0 18 -11 28.5t-30 10.5q-31 0 -61.5 -35t-73.5 -120q-60 -123 -94.5 -262t-34.5 -255q0 -43 13 -66.5t36 -23.5q41 0 71 80t46 103q25 35 72 56t100 21h6z" />
    <glyph glyph-name="D" unicode="D" horiz-adv-x="1208" 
d="M422 344q161 28 266 156t105 293q0 134 -79.5 214t-211.5 80q-22 0 -46.5 -3t-61.5 -11q5 -2 18 -7q174 -66 174 -128q0 -3 -1 -7t-3 -11l-9 -27q-23 -69 -65 -220.5t-86 -328.5zM63 319q18 94 72 293.5t127 427.5q-34 -11 -75.5 -28t-47.5 -17q-11 0 -18.5 10t-7.5 25
q0 24 36 148l1 4l4 12l1 3q32 116 52 136q33 33 120.5 55.5t194.5 22.5q288 0 456.5 -156t168.5 -419q0 -166 -71 -331t-195 -288q-118 -117 -268 -181.5t-306 -64.5q-68 0 -154 109l-3 3l-11 16q-5 6 -15 19q-71 86 -71 134q0 8 1.5 19t4.5 25z" />
    <glyph glyph-name="E" unicode="E" horiz-adv-x="1038" 
d="M137 494h-27q-20 1 -29 13t-9 38q0 17 2.5 41.5t7.5 54.5l2 12q19 98 38 124.5t59 27.5l42 2l62 248q-15 0 -35 -1t-25 -1q-25 0 -38 7t-13 21q0 19 18 85q8 32 13 51l2 12l3 12q34 133 87 137l27 2q1 0 12 1q123 5 272 5q88 0 176 -1.5t189 -6.5h23q28 -1 44.5 -12
t16.5 -29q0 -20 -5.5 -53.5t-15.5 -71.5l-4 -16q-1 -5 -4 -15q-34 -134 -96 -134h-19h-18h-12q-142 8 -322 8q-3 0 -19 -1q-61 -1 -116 -1l127 -56q18 -8 32.5 -25.5t14.5 -29.5q0 -5 -3 -16q-1 -3 -1 -4l-21 -109q28 1 53 1.5t48 0.5q97 0 181 -4h9l27 -2q27 -2 39 -13
t12 -34q0 -19 -4 -46.5t-12 -58.5l-2 -10q-24 -97 -46.5 -126t-78.5 -29h-10h-25q-18 0 -52 1q-84 3 -112 3q-23 0 -60 -1t-53 -1l-36 -158q5 0 70.5 1t125.5 1q39 0 65.5 -0.5t53.5 -1.5l20 -2q47 -2 63.5 -17t16.5 -55q0 -20 -2.5 -42t-7.5 -46l-4 -18q-16 -85 -43 -120.5
t-78 -35.5h-440q-67 0 -98.5 19t-61.5 65l-8 12q-25 38 -34 64.5t-9 54.5q0 11 1.5 23.5t6.5 37.5z" />
    <glyph glyph-name="F" unicode="F" horiz-adv-x="967" 
d="M49 96l4 24q3 14 35 130.5t55 222.5l-34 2q-23 2 -35.5 12.5t-12.5 26.5q0 23 19 96q2 10 4 17l2 14q3 11 8 31q35 141 96 141l37 2l54 229l-93 -4h-4q-16 0 -27.5 11.5t-11.5 27.5q0 20 20 105q6 25 9 39l2 8q21 84 45 115t71 34h23q3 0 22 1q151 5 318 5q77 0 259 -3
q21 0 32 -1l19 -2q33 -1 47 -12t14 -37q0 -23 -4 -51.5t-12 -56.5l-4 -15q-29 -110 -49 -136t-65 -28l-22 -2l-106 3.5t-213 3.5q-5 0 -48 -1.5t-81 -3.5l129 -61q28 -13 40.5 -26.5t12.5 -30.5q0 -6 -0.5 -10t-1.5 -7l-20 -82q66 1 125.5 1.5t107.5 0.5h25q37 0 52 -14
t15 -49q0 -13 -3.5 -38.5t-10.5 -61.5l-2 -17q-18 -94 -41.5 -129t-71.5 -37h-24q-28 -1 -53 -1.5t-48 -0.5h-24q-70 -2 -129 -2q-25 -123 -49.5 -225t-49.5 -182l-8 -25q-13 -42 -36 -60t-64 -18q-27 0 -49.5 2t-36.5 4l-14 2q-83 15 -114.5 38.5t-31.5 68.5q0 2 1 6t1 6z
" />
    <glyph glyph-name="G" unicode="G" horiz-adv-x="1171" 
d="M610 469h-53q-26 0 -43.5 9t-17.5 22q0 14 3 33.5t15 66.5l4 14q24 99 46.5 130t76.5 34h21h3q39 2 91 2q128 0 240 -3q14 -1 16 -1l21 -2q39 -3 57 -18.5t18 -46.5q0 -13 -3.5 -34t-10.5 -48l-2 -9q-4 -13 -10 -37q-29 -112 -89 -112q-3 0 -9.5 1t-10.5 1
q-66 -241 -199 -372.5t-311 -131.5q-186 0 -298 136.5t-112 367.5q0 157 50 332.5t130 304.5q93 148 222.5 226.5t279.5 78.5q180 0 280.5 -94.5t100.5 -263.5q0 -71 -25.5 -99t-142.5 -51l-6 -2q-21 -4 -47.5 -6t-60.5 -2q-45 0 -67 12t-22 37q0 10 5.5 29.5t5.5 30.5
q0 35 -19.5 55t-52.5 20q-34 0 -71 -29t-70 -83q-60 -92 -103 -244.5t-43 -271.5q0 -67 20.5 -102.5t59.5 -35.5q42 0 80.5 44t52.5 112z" />
    <glyph glyph-name="H" unicode="H" horiz-adv-x="1204" 
d="M109 502h-50q-17 0 -25.5 15.5t-8.5 45.5q0 16 11 71q5 22 7 34l2 14q19 84 40.5 116t60.5 36l44 2q23 78 58 215q58 221 88 295l12 28q7 18 28 28.5t52 10.5q19 0 41 -3t49 -9l17 -4q85 -22 108 -41.5t23 -61.5q0 -6 -1 -11.5t-2 -9.5l-8 -30q-8 -37 -47.5 -175.5
t-64.5 -233.5h243q42 166 73 296t50 218l4 20q5 22 19 31.5t43 9.5q17 0 40.5 -2t51.5 -6l16 -2q88 -14 126 -38t38 -65q0 -6 -0.5 -9.5t-1.5 -6.5l-4 -14q-11 -62 -32.5 -160.5t-53.5 -231.5q-70 -293 -130 -527t-75 -279l-8 -27q-11 -34 -38.5 -52t-69.5 -18
q-19 0 -37.5 1t-38.5 3l-17 2q-77 8 -110 28.5t-33 60.5q0 4 1 11t3 19l6 30q5 25 60 239q49 192 82 321l-97 -149q-15 -23 -27.5 -30t-33.5 -7h-129q-29 -103 -69 -293q-17 -81 -25 -119l-7 -31q-10 -44 -35 -64t-71 -20q-21 0 -40 1t-40 3l-16 3q-78 7 -112 27t-34 59
q0 8 1.5 17.5t4.5 20.5l4 22q4 13 32.5 142t52.5 234z" />
    <glyph glyph-name="I" unicode="I" horiz-adv-x="688" 
d="M33 152q15 75 48.5 221.5t74.5 314.5q67 267 103.5 395.5t72.5 233.5l6 18q16 46 34.5 62t55.5 16q28 0 51 -1t41 -3l15 -2q98 -13 130.5 -30t32.5 -48q0 -5 -1.5 -12.5t-4.5 -16.5l-4 -18q-21 -81 -62 -237q-181 -687 -231 -947l-4 -24q-12 -59 -36 -81t-72 -22
q-16 0 -39 3t-46 8l-8 2q-100 21 -131.5 46t-31.5 76q0 5 2 19q1 8 2 12z" />
    <glyph glyph-name="J" unicode="J" horiz-adv-x="985" 
d="M137 598l14 2q31 7 57.5 10.5t45.5 3.5q35 0 51.5 -15t16.5 -46t-17.5 -91.5t-17.5 -86.5q0 -25 15 -42.5t36 -17.5q58 0 101 186l1 6q51 221 110.5 495.5t72.5 320.5l4 12q10 41 32 58.5t64 17.5q17 0 40 -2.5t54 -7.5l12 -2q74 -11 112 -33t38 -55q0 -3 -1.5 -12
t-4.5 -25l-4 -19q-98 -480 -176 -815q-2 -10 -2 -12q-57 -240 -166.5 -347.5t-294.5 -107.5q-175 0 -276 94t-101 255q0 122 43.5 187.5t140.5 88.5z" />
    <glyph glyph-name="K" unicode="K" horiz-adv-x="1128" 
d="M4 143l6 29q1 3 6 24q110 472 275 1129l4 14q9 35 31 52.5t59 17.5q25 0 46 -1.5t38 -4.5l16 -2q86 -13 122 -32.5t36 -51.5q0 -5 -1.5 -14t-4.5 -21l-4 -20q-3 -11 -44.5 -151.5t-78.5 -274.5q157 73 256.5 196.5t161.5 323.5l4 14q8 26 20.5 35.5t34.5 9.5
q17 0 44.5 -6t68.5 -18l14 -5q71 -20 101 -42.5t30 -53.5q0 -7 -1.5 -15.5t-4.5 -16.5l-4 -9q-110 -299 -248.5 -454.5t-337.5 -208.5q57 -64 123 -169.5t186 -332.5l13 -21v-1q18 -32 18 -50q0 -25 -25 -51t-67 -45l-14 -6q-16 -7 -43 -19q-64 -30 -88 -30q-21 0 -35.5 9.5
t-28.5 33.5l-8 12q-18 30 -102.5 207.5t-165.5 316.5q-30 -126 -52 -228t-30 -149l-4 -14q-9 -47 -24 -63.5t-46 -16.5q-28 0 -61 5t-56 12l-10 2q-7 2 -19 5q-116 33 -116 83q0 9 2.5 25.5t7.5 41.5z" />
    <glyph glyph-name="L" unicode="L" horiz-adv-x="901" 
d="M428 344h334q32 0 47.5 -10.5t15.5 -32.5q0 -16 -6.5 -45.5t-21.5 -77.5l-2 -8q-37 -121 -61.5 -144.5t-84.5 -25.5h-375q-31 0 -49.5 10t-38.5 35q-72 87 -105.5 145t-33.5 97q0 9 4.5 28t5.5 27l4 25q61 291 127.5 553.5t116.5 416.5l8 19q11 35 27.5 46t50.5 11
q14 0 40.5 -2.5t57.5 -7.5l15 -2q110 -18 141 -33.5t31 -44.5q0 -4 -2 -13q-2 -7 -2 -10l-6 -22q-15 -56 -50 -185q-119 -448 -188 -749z" />
    <glyph glyph-name="M" unicode="M" horiz-adv-x="1630" 
d="M-41 125q64 274 158.5 578.5t214.5 617.5l6 16q15 41 39 57.5t67 16.5q31 0 59.5 -2.5t55.5 -7.5l21 -2q111 -20 150 -47t48 -112v-40q0 -87 -7.5 -277t-20.5 -419q62 132 165 353q172 372 220 450l8 14q36 60 64 76t73 16q13 0 30.5 -1.5t55.5 -6.5l10 -2
q107 -19 149 -48.5t42 -94.5v-9v-16q-2 -31 -12.5 -142t-41.5 -419q-10 -103 -27 -270q-24 -243 -32 -295l-2 -17q-11 -68 -44.5 -92.5t-115.5 -24.5h-24h-14q-71 4 -100.5 22t-29.5 58q0 6 1 14t1 11v10q3 19 47 310.5t76 555.5q-87 -202 -187.5 -417.5t-211.5 -438.5
l-8 -16q-32 -64 -63.5 -87.5t-88.5 -23.5q-13 0 -45 3q-8 1 -12 1l-19 3q-72 8 -106.5 37.5t-34.5 82.5v6l2 17q6 205 26 599q7 152 11 228q-95 -292 -195 -715q-28 -117 -41 -165l-6 -21q-12 -49 -28.5 -63.5t-53.5 -14.5q-16 0 -39.5 3t-48.5 8l-14 2q-73 15 -104 35
t-31 53q0 8 1.5 17t4.5 21z" />
    <glyph glyph-name="N" unicode="N" horiz-adv-x="1247" 
d="M-18 117l2 14q15 106 100 452.5t199 729.5l4 14q12 43 37 64.5t63 21.5q15 0 36 -3.5t62 -12.5l13 -2q59 -14 103 -38.5t61 -53.5q44 -75 77.5 -229t67.5 -451q22 178 57 359.5t82 365.5l4 16q6 25 21.5 37t40.5 12q21 0 49 -4t59 -12l19 -4q64 -17 99.5 -43t35.5 -56
q0 -14 -0.5 -20.5t-1.5 -13.5l-2 -15q-5 -40 -52.5 -235t-113.5 -430q-16 -58 -44 -157q-83 -297 -83 -333q0 -12 5 -31.5t5 -27.5q0 -25 -24.5 -36t-79.5 -11q-28 0 -41.5 1t-24.5 3l-18 4q-109 19 -149.5 47t-49.5 86l-4 17q-5 31 -16 130q-40 352 -91 639
q-36 -251 -79.5 -473t-83.5 -370l-7 -21q-10 -41 -32.5 -58.5t-65.5 -17.5q-15 0 -35 2t-45 7l-16 2q-71 10 -109.5 35t-38.5 61q0 11 1.5 21t3.5 18z" />
    <glyph glyph-name="O" unicode="O" horiz-adv-x="1128" 
d="M700 1149l-16 -61q-9 -34 -47 -61q-6 -4 -10 -7q-113 -84 -176.5 -225t-63.5 -308q0 -82 24.5 -130t65.5 -48q91 0 173.5 189t82.5 450q0 61 -8 110.5t-25 90.5zM717 1245l151 119q24 19 37 25t25 6q64 0 109.5 -121t45.5 -309q0 -179 -38 -341t-111 -296
q-93 -170 -219.5 -263.5t-263.5 -93.5q-183 0 -294.5 147.5t-111.5 391.5q0 163 52.5 326.5t146.5 293.5q92 130 206.5 206.5t211.5 76.5q34 0 53.5 -15.5t19.5 -43.5q0 -5 -0.5 -8.5t-1.5 -6.5z" />
    <glyph glyph-name="P" unicode="P" horiz-adv-x="1128" 
d="M59 109l2 12q7 51 75.5 311t162.5 576q-13 -6 -36 -16q-110 -48 -128 -48q-16 0 -24.5 12.5t-8.5 36.5q0 69 24.5 156.5t55.5 136.5q39 60 150 94.5t266 34.5q242 0 381 -123t139 -336q0 -120 -62.5 -247.5t-164.5 -212.5q-65 -55 -152.5 -90t-148.5 -35q-20 0 -31 10
t-14 30l-23 140q-38 -179 -66 -302.5t-44 -185.5l-4 -12q-13 -48 -29 -64t-49 -16q-26 0 -54.5 3t-52.5 8l-12 2q-90 17 -123 37t-33 55q2 12 4 33zM578 702q94 20 151 81t57 141q0 78 -58 122t-163 44q-46 0 -92 -7.5t-92 -21.5l151 -49q52 -16 75.5 -39.5t23.5 -59.5
q0 -9 -1 -18t-3 -16z" />
    <glyph glyph-name="Q" unicode="Q" horiz-adv-x="1157" 
d="M709 1149l-17 -62q-9 -31 -47 -58l-12 -9q-108 -77 -172 -221.5t-64 -309.5q0 -66 13.5 -110.5t38.5 -56.5q33 45 56 74t34 40l10 10q7 7 14.5 11t14.5 4q8 0 18 -5.5t16 -13.5l11 -12q57 101 88.5 232.5t31.5 273.5q0 65 -8.5 118t-25.5 95zM725 1245l152 119q2 2 8 7
q29 24 51 24q67 0 111.5 -119.5t44.5 -310.5q0 -238 -63.5 -436t-190.5 -361l71 -80q15 -16 21 -29t6 -28q0 -33 -74 -107l-8 -8l-10 -8q-39 -39 -69.5 -59.5t-49.5 -20.5q-13 0 -24 5t-25 20l-14 14q-10 9 -38 42t-63 75q-26 -7 -50.5 -10t-47.5 -3q-183 0 -295.5 147.5
t-112.5 391.5q0 162 52.5 324.5t146.5 295.5q92 130 207 206.5t211 76.5q34 0 53.5 -16t19.5 -43q0 -6 -0.5 -9.5t-0.5 -4.5z" />
    <glyph glyph-name="R" unicode="R" horiz-adv-x="1147" 
d="M35 101l4 24q33 168 87.5 388.5t135.5 510.5q-9 -3 -25 -8q-89 -27 -112 -27q-18 0 -28.5 15.5t-10.5 42.5q0 64 27.5 150.5t54.5 113.5q36 36 170 69t280 33q234 0 371 -115.5t137 -310.5q0 -156 -90 -285t-264 -221q36 -64 98.5 -170t137.5 -227l10 -14q8 -13 12 -26
t4 -24q0 -43 -88 -100q-15 -9 -22 -14l-13 -8q-30 -20 -64 -31.5t-59 -11.5q-18 0 -31 7.5t-24 24.5l-10 19q-42 67 -138.5 242.5t-142.5 254.5q-22 -90 -43.5 -206.5t-25.5 -135.5l-2 -14q-10 -43 -30 -59.5t-62 -16.5q-14 0 -37 3t-56 10l-14 2q-79 15 -110 34t-31 50
q0 6 0.5 11.5t3.5 19.5zM530 727q112 13 184 77.5t72 147.5q0 59 -46 93t-128 34q-41 0 -101.5 -8.5t-141.5 -26.5l145 -47q34 -10 52 -28.5t18 -42.5q0 -5 -2.5 -17.5t-6.5 -25.5z" />
    <glyph glyph-name="S" unicode="S" horiz-adv-x="909" 
d="M271 315q73 2 107 26t34 75q0 36 -21.5 86t-71.5 129q-10 16 -29 46q-126 199 -126 298q0 181 183 309.5t460 128.5q102 0 140 -27.5t38 -101.5q0 -23 -4 -56.5t-4 -39.5l-2 -12q-7 -98 -40 -139.5t-114 -47.5l-16 -2q-24 -1 -43.5 -1.5t-34.5 -0.5q-26 0 -39.5 8
t-13.5 23v6l10 55q-73 -3 -121.5 -30t-48.5 -60q0 -15 7.5 -33t25.5 -45q13 -19 37 -58q182 -277 182 -437q0 -206 -154.5 -323.5t-427.5 -117.5q-126 0 -184.5 35.5t-58.5 112.5q0 15 2 39t6 53l2 15l1 9q24 181 163 205l11 4q10 2 33 3.5t52 1.5q35 0 54.5 -12.5
t19.5 -35.5v-10z" />
    <glyph glyph-name="T" unicode="T" horiz-adv-x="958" 
d="M422 1049h-232q-46 0 -66 18t-20 59q0 13 2.5 31.5t8.5 49.5l2 14q16 93 42.5 128t86.5 35h760q26 0 39.5 -13.5t13.5 -39.5q0 -21 -5.5 -53t-15.5 -66l-2 -14l-3 -11q-36 -138 -109 -138h-357q27 -16 71 -40q118 -64 118 -104q0 -7 -0.5 -11.5t-1.5 -8.5l-6 -23
q-70 -259 -125 -481.5t-72 -306.5l-4 -17q-11 -51 -35 -70.5t-78 -19.5q-11 0 -42 4.5t-47 5.5l-16 3q-73 8 -113 27t-40 46q0 10 2 29l2 16q4 33 71.5 299.5t170.5 651.5z" />
    <glyph glyph-name="U" unicode="U" horiz-adv-x="1165" 
d="M264 1313l4 18q14 48 37 63t92 15q22 0 32 -0.5t18 -1.5l14 -2q88 -10 125 -27.5t37 -50.5q0 -1 -2 -11t-5 -22l-4 -16q-41 -177 -126 -486.5t-85 -392.5q0 -36 23 -59t59 -23q101 0 239 518q76 287 130 468l4 14q16 53 42 75.5t73 22.5q13 0 33 -2t40 -6l11 -2
q89 -16 118 -34.5t29 -53.5q0 -11 -2 -23.5t-6 -25.5l-6 -19q-33 -119 -90 -339q-102 -389 -156 -537q-76 -208 -185 -304t-268 -96q-180 0 -306 114t-126 278q0 114 55.5 372t151.5 576z" />
    <glyph glyph-name="V" unicode="V" horiz-adv-x="1049" 
d="M158 110l-2 12q-7 48 -15 291t-8 533q0 117 2.5 215.5t5.5 159.5l2 16q4 45 22 60.5t62 15.5q20 0 69 -7q5 -1 7 -1l12 -2q4 -1 10 -2q160 -31 160 -107v-8v-16q0 -13 -19 -273.5t-28 -513.5q129 250 225.5 473.5t143.5 374.5l2 12q10 35 26 50.5t42 15.5q18 0 49.5 -5
t64.5 -13l10 -5q87 -23 115.5 -41t28.5 -45q0 -5 -2.5 -15t-9.5 -31l-5 -15q-39 -113 -100.5 -255.5t-136.5 -293.5q-95 -189 -193.5 -360t-181.5 -293l-10 -14q-24 -33 -39 -42.5t-35 -9.5q-21 0 -49 4.5t-55 12.5l-19 6q-9 3 -26 8q-118 35 -125 108z" />
    <glyph glyph-name="W" unicode="W" horiz-adv-x="1651" 
d="M158 151l-2 17v18q0 394 8.5 724.5t15.5 405.5l2 17q6 55 21.5 67.5t62.5 12.5q17 0 36 -1.5t40 -4.5h12h2q158 -19 158 -88q0 -11 -1 -22t-3 -23l-2 -12q-5 -34 -21 -238t-38 -532q96 289 166 483t118 307l6 12q2 4 6 13q44 102 113 102q21 0 44.5 -1.5t51.5 -4.5l11 -2
q94 -11 135 -38.5t41 -80.5v-16q0 -118 -12.5 -306t-38.5 -468q144 356 290 731q35 90 41 104l6 14l1 1q26 63 77 63q20 0 44.5 -5.5t54.5 -17.5l12 -4q3 -1 8 -3q113 -46 113 -101q0 -6 -5 -22t-14 -40l-6 -16q-5 -12 -20 -51q-188 -487 -478 -1024l-8 -13l-5 -9
q-73 -134 -132 -134q-18 0 -43 2.5t-53 7.5l-10 2q-157 29 -162 155v5v39q0 122 17.5 326t49.5 438q-86 -275 -168.5 -490.5t-167.5 -386.5l-10 -20q-19 -37 -43.5 -52.5t-72.5 -15.5q-22 0 -42.5 2.5t-37.5 6.5l-13 2q-96 19 -123 46t-32 119z" />
    <glyph glyph-name="X" unicode="X" horiz-adv-x="999" 
d="M311 690q-71 213 -122.5 386.5t-57.5 211.5l-2 15q-2 7 -3 16t-1 18q0 38 23 54t77 16q23 0 44 -2t42 -6l17 -4q80 -14 113 -37.5t44 -71.5l2 -14q1 -4 18.5 -104t39.5 -195q99 176 183 344l5 10l8 14q25 46 44 60t49 14q19 0 46 -4.5t62 -13.5l16 -4q72 -19 104 -41
t32 -52q0 -9 -4.5 -21t-16.5 -32l-8 -14q-7 -11 -127 -206t-240 -386q46 -174 114 -355t71 -190l4 -12q8 -27 10 -41q0 -36 -31 -48.5t-131 -12.5h-14q-83 0 -126.5 20.5t-62.5 67.5l-3 11q-5 12 -40 155q-20 79 -32 129q-46 -96 -83.5 -170.5t-56.5 -108.5l-8 -16
q-27 -51 -62.5 -75t-82.5 -24q-28 0 -41.5 1t-25.5 3l-15 2q-80 11 -118 34t-38 61q0 11 6 25t21 36l6 8q17 25 100 154t252 395z" />
    <glyph glyph-name="Y" unicode="Y" horiz-adv-x="958" 
d="M258 449q-34 197 -86.5 491t-56.5 344v16q-2 23 -4 37q0 36 22.5 54t67.5 18q15 0 36.5 -2.5t44.5 -7.5l19 -2q96 -20 124.5 -40t31.5 -57v-12q2 -34 34 -356q5 -40 7 -62q55 153 103 269t79 174l6 10q26 48 55 68t72 20q20 0 42.5 -3t45.5 -9l12 -4q70 -18 99.5 -41.5
t29.5 -61.5q0 -13 -4 -29.5t-12 -35.5l-6 -13q-5 -12 -89 -183t-196 -394q-104 -209 -184 -365t-107 -202l-6 -13q-30 -54 -54 -72t-58 -18q-26 0 -57 4.5t-64 12.5l-15 4q-66 16 -92 32.5t-26 40.5q0 7 2 14.5t8 18.5l6 12q56 107 96.5 188.5t73.5 154.5z" />
    <glyph glyph-name="Z" unicode="Z" horiz-adv-x="915" 
d="M547 1065h-299q-58 0 -78 14t-20 49q0 15 7.5 43t20.5 60l6 12q39 90 67.5 115.5t84.5 25.5h61h353q60 0 82.5 -21.5t64.5 -133.5l6 -15q13 -36 21 -75.5t8 -67.5q0 -16 -9 -37t-24 -39l-10 -12q-48 -62 -186.5 -249t-303.5 -412h256q50 0 70 -17.5t20 -56.5
q0 -15 -4 -38.5t-12 -49.5l-6 -17q-34 -110 -66 -133.5t-120 -23.5h-410q-67 0 -89.5 20t-47.5 86l-6 14q-15 41 -22 69.5t-7 47.5q0 29 37 82q7 10 10 14l6 9q186 259 324 448t215 289z" />
    <glyph glyph-name="bracketleft" unicode="[" horiz-adv-x="750" 
d="M371 219h151q59 0 75.5 -14t16.5 -53q0 -110 -50.5 -171t-141.5 -61h-229q-36 0 -53.5 8.5t-37.5 30.5q-32 36 -54.5 84.5t-22.5 73.5q0 9 5 33l3 12l274 1059q13 50 102 130q9 8 15 13q32 28 61.5 38.5t92.5 10.5h51h174q52 0 71 -19t19 -71q0 -94 -41.5 -153.5
t-110.5 -59.5h-147z" />
    <glyph glyph-name="backslash" unicode="\" horiz-adv-x="778" 
d="M627 -56q1 -5 1.5 -12t0.5 -22q0 -43 -27.5 -64.5t-81.5 -21.5q-67 0 -109.5 34t-52.5 95l-204 1339q-1 8 -1.5 16.5t-0.5 18.5q0 42 25.5 63t76.5 21q74 0 116.5 -32.5t51.5 -94.5z" />
    <glyph glyph-name="bracketright" unicode="]" horiz-adv-x="750" 
d="M367 1104h-154q-60 0 -75 14t-15 53q0 118 49 180t141 62h240q30 0 46 -8t34 -29q31 -33 56.5 -86t25.5 -73q0 -5 -7 -31q-2 -9 -3 -14l-277 -1061q-14 -54 -108 -136l-7 -6q-32 -28 -62 -38.5t-93 -10.5h-52h-149q-67 0 -91 16.5t-24 63.5q0 100 41 160.5t111 60.5h147z
" />
    <glyph glyph-name="asciicircum" unicode="^" horiz-adv-x="2048" 
d="M879 1462h288l465 -563h-264l-344 342l-346 -342h-264z" />
    <glyph glyph-name="underscore" unicode="_" 
d="M0 -244h1024v-239h-1024v239z" />
    <glyph glyph-name="grave" unicode="`" 
d="M506 1790h203q23 0 40.5 -10t26.5 -29l4 -8q19 -38 67 -109.5t75 -99.5l6 -8q4 -5 7 -11.5t3 -11.5q0 -7 -4.5 -10.5t-13.5 -3.5h-115q-21 0 -38 7t-40 26l-10 6q-69 54 -133 113t-101 102l-8 8q-4 4 -6 9t-2 9q0 12 6.5 16.5t32.5 4.5z" />
    <glyph glyph-name="a" unicode="a" horiz-adv-x="1063" 
d="M487 633h156q7 107 10.5 189.5t3.5 125.5v66v59q-50 -104 -92 -212.5t-78 -227.5zM29 319l-25 3q-14 1 -24.5 14.5t-10.5 32.5q0 7 4.5 27.5t18.5 78.5l2 14l1 4q39 162 118 162h61q83 205 164 378.5t141 279.5l13 20q30 51 53.5 66.5t60.5 15.5q15 0 37.5 -2t48.5 -6
l19 -2q113 -16 147 -40.5t41 -84.5l4 -25q18 -142 28.5 -376t10.5 -502q0 -138 -6 -247v-9l-2 -23q-6 -68 -36.5 -93t-113.5 -30l-16 -2h-27q-64 0 -95.5 22.5t-33.5 68.5v176v141v129l-65 -148q-10 -24 -26.5 -34.5t-47.5 -10.5h-98q-45 -112 -92 -231q-11 -26 -13 -31
l-8 -22q-14 -32 -33 -47t-47 -15q-21 0 -47 5t-51 14l-16 4q-71 24 -95 43.5t-24 48.5q0 7 0.5 13.5t3.5 19.5l4 14q6 23 25.5 73.5t46.5 112.5z" />
    <glyph glyph-name="b" unicode="b" horiz-adv-x="1139" 
d="M55 288l8 36q1 1 2 6q70 281 193 678q-25 -9 -63 -23q-47 -16 -56 -16q-16 0 -26.5 12t-10.5 33q0 17 6 43.5t25 89.5l2 10q27 91 40.5 120.5t29.5 43.5q46 37 164.5 64.5t257.5 27.5q228 0 368 -109t140 -286q0 -117 -63 -207.5t-189 -155.5q52 -52 79 -114.5t27 -132.5
q0 -192 -167.5 -314.5t-438.5 -122.5q-150 0 -228 95q-12 15 -18 22l-10 10q-41 51 -60.5 86.5t-19.5 59.5q0 6 5 29zM404 317q9 -1 18 -1.5t29 -0.5q91 0 143.5 31t52.5 84q0 36 -39.5 59t-46.5 64l-31 188q-46 -144 -76 -244t-50 -180zM555 791q120 27 179 75.5t59 120.5
q0 47 -49 72.5t-138 25.5q-48 0 -101 -9t-114 -27l160 -41q27 -7 38 -18.5t11 -33.5q0 -4 -1 -10.5t-3 -13.5z" />
    <glyph glyph-name="c" unicode="c" horiz-adv-x="995" 
d="M729 571h17q69 -2 103 -28.5t34 -79.5q0 -70 -36.5 -153t-98.5 -156q-73 -85 -168 -133t-189 -48q-160 0 -253 124.5t-93 340.5q0 169 51 348t140 318q99 157 220 233t273 76q133 0 211 -75t78 -203q0 -129 -48 -196t-143 -71h-26q-64 0 -99.5 17.5t-35.5 48.5
q0 20 12 52.5t12 47.5q0 18 -11 28.5t-30 10.5q-31 0 -61.5 -35t-73.5 -120q-60 -123 -94.5 -262t-34.5 -255q0 -43 13 -66.5t36 -23.5q41 0 71 80t46 103q25 35 72 56t100 21h6z" />
    <glyph glyph-name="d" unicode="d" horiz-adv-x="1208" 
d="M422 344q161 28 266 156t105 293q0 134 -79.5 214t-211.5 80q-22 0 -46.5 -3t-61.5 -11q5 -2 18 -7q174 -66 174 -128q0 -3 -1 -7t-3 -11l-9 -27q-23 -69 -65 -220.5t-86 -328.5zM63 319q18 94 72 293.5t127 427.5q-34 -11 -75.5 -28t-47.5 -17q-11 0 -18.5 10t-7.5 25
q0 24 36 148l1 4l4 12l1 3q32 116 52 136q33 33 120.5 55.5t194.5 22.5q288 0 456.5 -156t168.5 -419q0 -166 -71 -331t-195 -288q-118 -117 -268 -181.5t-306 -64.5q-68 0 -154 109l-3 3l-11 16q-5 6 -15 19q-71 86 -71 134q0 8 1.5 19t4.5 25z" />
    <glyph glyph-name="e" unicode="e" horiz-adv-x="1038" 
d="M137 494h-27q-20 1 -29 13t-9 38q0 17 2.5 41.5t7.5 54.5l2 12q19 98 38 124.5t59 27.5l42 2l62 248q-15 0 -35 -1t-25 -1q-25 0 -38 7t-13 21q0 19 18 85q8 32 13 51l2 12l3 12q34 133 87 137l27 2q1 0 12 1q123 5 272 5q88 0 176 -1.5t189 -6.5h23q28 -1 44.5 -12
t16.5 -29q0 -20 -5.5 -53.5t-15.5 -71.5l-4 -16q-1 -5 -4 -15q-34 -134 -96 -134h-19h-18h-12q-142 8 -322 8q-3 0 -19 -1q-61 -1 -116 -1l127 -56q18 -8 32.5 -25.5t14.5 -29.5q0 -5 -3 -16q-1 -3 -1 -4l-21 -109q28 1 53 1.5t48 0.5q97 0 181 -4h9l27 -2q27 -2 39 -13
t12 -34q0 -19 -4 -46.5t-12 -58.5l-2 -10q-24 -97 -46.5 -126t-78.5 -29h-10h-25q-18 0 -52 1q-84 3 -112 3q-23 0 -60 -1t-53 -1l-36 -158q5 0 70.5 1t125.5 1q39 0 65.5 -0.5t53.5 -1.5l20 -2q47 -2 63.5 -17t16.5 -55q0 -20 -2.5 -42t-7.5 -46l-4 -18q-16 -85 -43 -120.5
t-78 -35.5h-440q-67 0 -98.5 19t-61.5 65l-8 12q-25 38 -34 64.5t-9 54.5q0 11 1.5 23.5t6.5 37.5z" />
    <glyph glyph-name="f" unicode="f" horiz-adv-x="967" 
d="M49 96l4 24q3 14 35 130.5t55 222.5l-34 2q-23 2 -35.5 12.5t-12.5 26.5q0 23 19 96q2 10 4 17l2 14q3 11 8 31q35 141 96 141l37 2l54 229l-93 -4h-4q-16 0 -27.5 11.5t-11.5 27.5q0 20 20 105q6 25 9 39l2 8q21 84 45 115t71 34h23q3 0 22 1q151 5 318 5q77 0 259 -3
q21 0 32 -1l19 -2q33 -1 47 -12t14 -37q0 -23 -4 -51.5t-12 -56.5l-4 -15q-29 -110 -49 -136t-65 -28l-22 -2l-106 3.5t-213 3.5q-5 0 -48 -1.5t-81 -3.5l129 -61q28 -13 40.5 -26.5t12.5 -30.5q0 -6 -0.5 -10t-1.5 -7l-20 -82q66 1 125.5 1.5t107.5 0.5h25q37 0 52 -14
t15 -49q0 -13 -3.5 -38.5t-10.5 -61.5l-2 -17q-18 -94 -41.5 -129t-71.5 -37h-24q-28 -1 -53 -1.5t-48 -0.5h-24q-70 -2 -129 -2q-25 -123 -49.5 -225t-49.5 -182l-8 -25q-13 -42 -36 -60t-64 -18q-27 0 -49.5 2t-36.5 4l-14 2q-83 15 -114.5 38.5t-31.5 68.5q0 2 1 6t1 6z
" />
    <glyph glyph-name="g" unicode="g" horiz-adv-x="1171" 
d="M610 469h-53q-26 0 -43.5 9t-17.5 22q0 14 3 33.5t15 66.5l4 14q24 99 46.5 130t76.5 34h21h3q39 2 91 2q128 0 240 -3q14 -1 16 -1l21 -2q39 -3 57 -18.5t18 -46.5q0 -13 -3.5 -34t-10.5 -48l-2 -9q-4 -13 -10 -37q-29 -112 -89 -112q-3 0 -9.5 1t-10.5 1
q-66 -241 -199 -372.5t-311 -131.5q-186 0 -298 136.5t-112 367.5q0 157 50 332.5t130 304.5q93 148 222.5 226.5t279.5 78.5q180 0 280.5 -94.5t100.5 -263.5q0 -71 -25.5 -99t-142.5 -51l-6 -2q-21 -4 -47.5 -6t-60.5 -2q-45 0 -67 12t-22 37q0 10 5.5 29.5t5.5 30.5
q0 35 -19.5 55t-52.5 20q-34 0 -71 -29t-70 -83q-60 -92 -103 -244.5t-43 -271.5q0 -67 20.5 -102.5t59.5 -35.5q42 0 80.5 44t52.5 112z" />
    <glyph glyph-name="h" unicode="h" horiz-adv-x="1204" 
d="M109 502h-50q-17 0 -25.5 15.5t-8.5 45.5q0 16 11 71q5 22 7 34l2 14q19 84 40.5 116t60.5 36l44 2q23 78 58 215q58 221 88 295l12 28q7 18 28 28.5t52 10.5q19 0 41 -3t49 -9l17 -4q85 -22 108 -41.5t23 -61.5q0 -6 -1 -11.5t-2 -9.5l-8 -30q-8 -37 -47.5 -175.5
t-64.5 -233.5h243q42 166 73 296t50 218l4 20q5 22 19 31.5t43 9.5q17 0 40.5 -2t51.5 -6l16 -2q88 -14 126 -38t38 -65q0 -6 -0.5 -9.5t-1.5 -6.5l-4 -14q-11 -62 -32.5 -160.5t-53.5 -231.5q-70 -293 -130 -527t-75 -279l-8 -27q-11 -34 -38.5 -52t-69.5 -18
q-19 0 -37.5 1t-38.5 3l-17 2q-77 8 -110 28.5t-33 60.5q0 4 1 11t3 19l6 30q5 25 60 239q49 192 82 321l-97 -149q-15 -23 -27.5 -30t-33.5 -7h-129q-29 -103 -69 -293q-17 -81 -25 -119l-7 -31q-10 -44 -35 -64t-71 -20q-21 0 -40 1t-40 3l-16 3q-78 7 -112 27t-34 59
q0 8 1.5 17.5t4.5 20.5l4 22q4 13 32.5 142t52.5 234z" />
    <glyph glyph-name="i" unicode="i" horiz-adv-x="688" 
d="M33 152q15 75 48.5 221.5t74.5 314.5q67 267 103.5 395.5t72.5 233.5l6 18q16 46 34.5 62t55.5 16q28 0 51 -1t41 -3l15 -2q98 -13 130.5 -30t32.5 -48q0 -5 -1.5 -12.5t-4.5 -16.5l-4 -18q-21 -81 -62 -237q-181 -687 -231 -947l-4 -24q-12 -59 -36 -81t-72 -22
q-16 0 -39 3t-46 8l-8 2q-100 21 -131.5 46t-31.5 76q0 5 2 19q1 8 2 12z" />
    <glyph glyph-name="j" unicode="j" horiz-adv-x="985" 
d="M137 598l14 2q31 7 57.5 10.5t45.5 3.5q35 0 51.5 -15t16.5 -46t-17.5 -91.5t-17.5 -86.5q0 -25 15 -42.5t36 -17.5q58 0 101 186l1 6q51 221 110.5 495.5t72.5 320.5l4 12q10 41 32 58.5t64 17.5q17 0 40 -2.5t54 -7.5l12 -2q74 -11 112 -33t38 -55q0 -3 -1.5 -12
t-4.5 -25l-4 -19q-98 -480 -176 -815q-2 -10 -2 -12q-57 -240 -166.5 -347.5t-294.5 -107.5q-175 0 -276 94t-101 255q0 122 43.5 187.5t140.5 88.5z" />
    <glyph glyph-name="k" unicode="k" horiz-adv-x="1128" 
d="M4 143l6 29q1 3 6 24q110 472 275 1129l4 14q9 35 31 52.5t59 17.5q25 0 46 -1.5t38 -4.5l16 -2q86 -13 122 -32.5t36 -51.5q0 -5 -1.5 -14t-4.5 -21l-4 -20q-3 -11 -44.5 -151.5t-78.5 -274.5q157 73 256.5 196.5t161.5 323.5l4 14q8 26 20.5 35.5t34.5 9.5
q17 0 44.5 -6t68.5 -18l14 -5q71 -20 101 -42.5t30 -53.5q0 -7 -1.5 -15.5t-4.5 -16.5l-4 -9q-110 -299 -248.5 -454.5t-337.5 -208.5q57 -64 123 -169.5t186 -332.5l13 -21v-1q18 -32 18 -50q0 -25 -25 -51t-67 -45l-14 -6q-16 -7 -43 -19q-64 -30 -88 -30q-21 0 -35.5 9.5
t-28.5 33.5l-8 12q-18 30 -102.5 207.5t-165.5 316.5q-30 -126 -52 -228t-30 -149l-4 -14q-9 -47 -24 -63.5t-46 -16.5q-28 0 -61 5t-56 12l-10 2q-7 2 -19 5q-116 33 -116 83q0 9 2.5 25.5t7.5 41.5z" />
    <glyph glyph-name="l" unicode="l" horiz-adv-x="901" 
d="M428 344h334q32 0 47.5 -10.5t15.5 -32.5q0 -16 -6.5 -45.5t-21.5 -77.5l-2 -8q-37 -121 -61.5 -144.5t-84.5 -25.5h-375q-31 0 -49.5 10t-38.5 35q-72 87 -105.5 145t-33.5 97q0 9 4.5 28t5.5 27l4 25q61 291 127.5 553.5t116.5 416.5l8 19q11 35 27.5 46t50.5 11
q14 0 40.5 -2.5t57.5 -7.5l15 -2q110 -18 141 -33.5t31 -44.5q0 -4 -2 -13q-2 -7 -2 -10l-6 -22q-15 -56 -50 -185q-119 -448 -188 -749z" />
    <glyph glyph-name="m" unicode="m" horiz-adv-x="1630" 
d="M-41 125q64 274 158.5 578.5t214.5 617.5l6 16q15 41 39 57.5t67 16.5q31 0 59.5 -2.5t55.5 -7.5l21 -2q111 -20 150 -47t48 -112v-40q0 -87 -7.5 -277t-20.5 -419q62 132 165 353q172 372 220 450l8 14q36 60 64 76t73 16q13 0 30.5 -1.5t55.5 -6.5l10 -2
q107 -19 149 -48.5t42 -94.5v-9v-16q-2 -31 -12.5 -142t-41.5 -419q-10 -103 -27 -270q-24 -243 -32 -295l-2 -17q-11 -68 -44.5 -92.5t-115.5 -24.5h-24h-14q-71 4 -100.5 22t-29.5 58q0 6 1 14t1 11v10q3 19 47 310.5t76 555.5q-87 -202 -187.5 -417.5t-211.5 -438.5
l-8 -16q-32 -64 -63.5 -87.5t-88.5 -23.5q-13 0 -45 3q-8 1 -12 1l-19 3q-72 8 -106.5 37.5t-34.5 82.5v6l2 17q6 205 26 599q7 152 11 228q-95 -292 -195 -715q-28 -117 -41 -165l-6 -21q-12 -49 -28.5 -63.5t-53.5 -14.5q-16 0 -39.5 3t-48.5 8l-14 2q-73 15 -104 35
t-31 53q0 8 1.5 17t4.5 21z" />
    <glyph glyph-name="n" unicode="n" horiz-adv-x="1247" 
d="M-18 117l2 14q15 106 100 452.5t199 729.5l4 14q12 43 37 64.5t63 21.5q15 0 36 -3.5t62 -12.5l13 -2q59 -14 103 -38.5t61 -53.5q44 -75 77.5 -229t67.5 -451q22 178 57 359.5t82 365.5l4 16q6 25 21.5 37t40.5 12q21 0 49 -4t59 -12l19 -4q64 -17 99.5 -43t35.5 -56
q0 -14 -0.5 -20.5t-1.5 -13.5l-2 -15q-5 -40 -52.5 -235t-113.5 -430q-16 -58 -44 -157q-83 -297 -83 -333q0 -12 5 -31.5t5 -27.5q0 -25 -24.5 -36t-79.5 -11q-28 0 -41.5 1t-24.5 3l-18 4q-109 19 -149.5 47t-49.5 86l-4 17q-5 31 -16 130q-40 352 -91 639
q-36 -251 -79.5 -473t-83.5 -370l-7 -21q-10 -41 -32.5 -58.5t-65.5 -17.5q-15 0 -35 2t-45 7l-16 2q-71 10 -109.5 35t-38.5 61q0 11 1.5 21t3.5 18z" />
    <glyph glyph-name="o" unicode="o" horiz-adv-x="1128" 
d="M700 1149l-16 -61q-9 -34 -47 -61q-6 -4 -10 -7q-113 -84 -176.5 -225t-63.5 -308q0 -82 24.5 -130t65.5 -48q91 0 173.5 189t82.5 450q0 61 -8 110.5t-25 90.5zM717 1245l151 119q24 19 37 25t25 6q64 0 109.5 -121t45.5 -309q0 -179 -38 -341t-111 -296
q-93 -170 -219.5 -263.5t-263.5 -93.5q-183 0 -294.5 147.5t-111.5 391.5q0 163 52.5 326.5t146.5 293.5q92 130 206.5 206.5t211.5 76.5q34 0 53.5 -15.5t19.5 -43.5q0 -5 -0.5 -8.5t-1.5 -6.5z" />
    <glyph glyph-name="p" unicode="p" horiz-adv-x="1128" 
d="M59 109l2 12q7 51 75.5 311t162.5 576q-13 -6 -36 -16q-110 -48 -128 -48q-16 0 -24.5 12.5t-8.5 36.5q0 69 24.5 156.5t55.5 136.5q39 60 150 94.5t266 34.5q242 0 381 -123t139 -336q0 -120 -62.5 -247.5t-164.5 -212.5q-65 -55 -152.5 -90t-148.5 -35q-20 0 -31 10
t-14 30l-23 140q-38 -179 -66 -302.5t-44 -185.5l-4 -12q-13 -48 -29 -64t-49 -16q-26 0 -54.5 3t-52.5 8l-12 2q-90 17 -123 37t-33 55q2 12 4 33zM578 702q94 20 151 81t57 141q0 78 -58 122t-163 44q-46 0 -92 -7.5t-92 -21.5l151 -49q52 -16 75.5 -39.5t23.5 -59.5
q0 -9 -1 -18t-3 -16z" />
    <glyph glyph-name="q" unicode="q" horiz-adv-x="1157" 
d="M709 1149l-17 -62q-9 -31 -47 -58l-12 -9q-108 -77 -172 -221.5t-64 -309.5q0 -66 13.5 -110.5t38.5 -56.5q33 45 56 74t34 40l10 10q7 7 14.5 11t14.5 4q8 0 18 -5.5t16 -13.5l11 -12q57 101 88.5 232.5t31.5 273.5q0 65 -8.5 118t-25.5 95zM725 1245l152 119q2 2 8 7
q29 24 51 24q67 0 111.5 -119.5t44.5 -310.5q0 -238 -63.5 -436t-190.5 -361l71 -80q15 -16 21 -29t6 -28q0 -33 -74 -107l-8 -8l-10 -8q-39 -39 -69.5 -59.5t-49.5 -20.5q-13 0 -24 5t-25 20l-14 14q-10 9 -38 42t-63 75q-26 -7 -50.5 -10t-47.5 -3q-183 0 -295.5 147.5
t-112.5 391.5q0 162 52.5 324.5t146.5 295.5q92 130 207 206.5t211 76.5q34 0 53.5 -16t19.5 -43q0 -6 -0.5 -9.5t-0.5 -4.5z" />
    <glyph glyph-name="r" unicode="r" horiz-adv-x="1147" 
d="M35 101l4 24q33 168 87.5 388.5t135.5 510.5q-9 -3 -25 -8q-89 -27 -112 -27q-18 0 -28.5 15.5t-10.5 42.5q0 64 27.5 150.5t54.5 113.5q36 36 170 69t280 33q234 0 371 -115.5t137 -310.5q0 -156 -90 -285t-264 -221q36 -64 98.5 -170t137.5 -227l10 -14q8 -13 12 -26
t4 -24q0 -43 -88 -100q-15 -9 -22 -14l-13 -8q-30 -20 -64 -31.5t-59 -11.5q-18 0 -31 7.5t-24 24.5l-10 19q-42 67 -138.5 242.5t-142.5 254.5q-22 -90 -43.5 -206.5t-25.5 -135.5l-2 -14q-10 -43 -30 -59.5t-62 -16.5q-14 0 -37 3t-56 10l-14 2q-79 15 -110 34t-31 50
q0 6 0.5 11.5t3.5 19.5zM530 727q112 13 184 77.5t72 147.5q0 59 -46 93t-128 34q-41 0 -101.5 -8.5t-141.5 -26.5l145 -47q34 -10 52 -28.5t18 -42.5q0 -5 -2.5 -17.5t-6.5 -25.5z" />
    <glyph glyph-name="s" unicode="s" horiz-adv-x="909" 
d="M271 315q73 2 107 26t34 75q0 36 -21.5 86t-71.5 129q-10 16 -29 46q-126 199 -126 298q0 181 183 309.5t460 128.5q102 0 140 -27.5t38 -101.5q0 -23 -4 -56.5t-4 -39.5l-2 -12q-7 -98 -40 -139.5t-114 -47.5l-16 -2q-24 -1 -43.5 -1.5t-34.5 -0.5q-26 0 -39.5 8
t-13.5 23v6l10 55q-73 -3 -121.5 -30t-48.5 -60q0 -15 7.5 -33t25.5 -45q13 -19 37 -58q182 -277 182 -437q0 -206 -154.5 -323.5t-427.5 -117.5q-126 0 -184.5 35.5t-58.5 112.5q0 15 2 39t6 53l2 15l1 9q24 181 163 205l11 4q10 2 33 3.5t52 1.5q35 0 54.5 -12.5
t19.5 -35.5v-10z" />
    <glyph glyph-name="t" unicode="t" horiz-adv-x="958" 
d="M422 1049h-232q-46 0 -66 18t-20 59q0 13 2.5 31.5t8.5 49.5l2 14q16 93 42.5 128t86.5 35h760q26 0 39.5 -13.5t13.5 -39.5q0 -21 -5.5 -53t-15.5 -66l-2 -14l-3 -11q-36 -138 -109 -138h-357q27 -16 71 -40q118 -64 118 -104q0 -7 -0.5 -11.5t-1.5 -8.5l-6 -23
q-70 -259 -125 -481.5t-72 -306.5l-4 -17q-11 -51 -35 -70.5t-78 -19.5q-11 0 -42 4.5t-47 5.5l-16 3q-73 8 -113 27t-40 46q0 10 2 29l2 16q4 33 71.5 299.5t170.5 651.5z" />
    <glyph glyph-name="u" unicode="u" horiz-adv-x="1165" 
d="M264 1313l4 18q14 48 37 63t92 15q22 0 32 -0.5t18 -1.5l14 -2q88 -10 125 -27.5t37 -50.5q0 -1 -2 -11t-5 -22l-4 -16q-41 -177 -126 -486.5t-85 -392.5q0 -36 23 -59t59 -23q101 0 239 518q76 287 130 468l4 14q16 53 42 75.5t73 22.5q13 0 33 -2t40 -6l11 -2
q89 -16 118 -34.5t29 -53.5q0 -11 -2 -23.5t-6 -25.5l-6 -19q-33 -119 -90 -339q-102 -389 -156 -537q-76 -208 -185 -304t-268 -96q-180 0 -306 114t-126 278q0 114 55.5 372t151.5 576z" />
    <glyph glyph-name="v" unicode="v" horiz-adv-x="1049" 
d="M158 110l-2 12q-7 48 -15 291t-8 533q0 117 2.5 215.5t5.5 159.5l2 16q4 45 22 60.5t62 15.5q20 0 69 -7q5 -1 7 -1l12 -2q4 -1 10 -2q160 -31 160 -107v-8v-16q0 -13 -19 -273.5t-28 -513.5q129 250 225.5 473.5t143.5 374.5l2 12q10 35 26 50.5t42 15.5q18 0 49.5 -5
t64.5 -13l10 -5q87 -23 115.5 -41t28.5 -45q0 -5 -2.5 -15t-9.5 -31l-5 -15q-39 -113 -100.5 -255.5t-136.5 -293.5q-95 -189 -193.5 -360t-181.5 -293l-10 -14q-24 -33 -39 -42.5t-35 -9.5q-21 0 -49 4.5t-55 12.5l-19 6q-9 3 -26 8q-118 35 -125 108z" />
    <glyph glyph-name="w" unicode="w" horiz-adv-x="1651" 
d="M158 151l-2 17v18q0 394 8.5 724.5t15.5 405.5l2 17q6 55 21.5 67.5t62.5 12.5q17 0 36 -1.5t40 -4.5h12h2q158 -19 158 -88q0 -11 -1 -22t-3 -23l-2 -12q-5 -34 -21 -238t-38 -532q96 289 166 483t118 307l6 12q2 4 6 13q44 102 113 102q21 0 44.5 -1.5t51.5 -4.5l11 -2
q94 -11 135 -38.5t41 -80.5v-16q0 -118 -12.5 -306t-38.5 -468q144 356 290 731q35 90 41 104l6 14l1 1q26 63 77 63q20 0 44.5 -5.5t54.5 -17.5l12 -4q3 -1 8 -3q113 -46 113 -101q0 -6 -5 -22t-14 -40l-6 -16q-5 -12 -20 -51q-188 -487 -478 -1024l-8 -13l-5 -9
q-73 -134 -132 -134q-18 0 -43 2.5t-53 7.5l-10 2q-157 29 -162 155v5v39q0 122 17.5 326t49.5 438q-86 -275 -168.5 -490.5t-167.5 -386.5l-10 -20q-19 -37 -43.5 -52.5t-72.5 -15.5q-22 0 -42.5 2.5t-37.5 6.5l-13 2q-96 19 -123 46t-32 119z" />
    <glyph glyph-name="x" unicode="x" horiz-adv-x="999" 
d="M311 690q-71 213 -122.5 386.5t-57.5 211.5l-2 15q-2 7 -3 16t-1 18q0 38 23 54t77 16q23 0 44 -2t42 -6l17 -4q80 -14 113 -37.5t44 -71.5l2 -14q1 -4 18.5 -104t39.5 -195q99 176 183 344l5 10l8 14q25 46 44 60t49 14q19 0 46 -4.5t62 -13.5l16 -4q72 -19 104 -41
t32 -52q0 -9 -4.5 -21t-16.5 -32l-8 -14q-7 -11 -127 -206t-240 -386q46 -174 114 -355t71 -190l4 -12q8 -27 10 -41q0 -36 -31 -48.5t-131 -12.5h-14q-83 0 -126.5 20.5t-62.5 67.5l-3 11q-5 12 -40 155q-20 79 -32 129q-46 -96 -83.5 -170.5t-56.5 -108.5l-8 -16
q-27 -51 -62.5 -75t-82.5 -24q-28 0 -41.5 1t-25.5 3l-15 2q-80 11 -118 34t-38 61q0 11 6 25t21 36l6 8q17 25 100 154t252 395z" />
    <glyph glyph-name="y" unicode="y" horiz-adv-x="958" 
d="M258 449q-34 197 -86.5 491t-56.5 344v16q-2 23 -4 37q0 36 22.5 54t67.5 18q15 0 36.5 -2.5t44.5 -7.5l19 -2q96 -20 124.5 -40t31.5 -57v-12q2 -34 34 -356q5 -40 7 -62q55 153 103 269t79 174l6 10q26 48 55 68t72 20q20 0 42.5 -3t45.5 -9l12 -4q70 -18 99.5 -41.5
t29.5 -61.5q0 -13 -4 -29.5t-12 -35.5l-6 -13q-5 -12 -89 -183t-196 -394q-104 -209 -184 -365t-107 -202l-6 -13q-30 -54 -54 -72t-58 -18q-26 0 -57 4.5t-64 12.5l-15 4q-66 16 -92 32.5t-26 40.5q0 7 2 14.5t8 18.5l6 12q56 107 96.5 188.5t73.5 154.5z" />
    <glyph glyph-name="z" unicode="z" horiz-adv-x="915" 
d="M547 1065h-299q-58 0 -78 14t-20 49q0 15 7.5 43t20.5 60l6 12q39 90 67.5 115.5t84.5 25.5h61h353q60 0 82.5 -21.5t64.5 -133.5l6 -15q13 -36 21 -75.5t8 -67.5q0 -16 -9 -37t-24 -39l-10 -12q-48 -62 -186.5 -249t-303.5 -412h256q50 0 70 -17.5t20 -56.5
q0 -15 -4 -38.5t-12 -49.5l-6 -17q-34 -110 -66 -133.5t-120 -23.5h-410q-67 0 -89.5 20t-47.5 86l-6 14q-15 41 -22 69.5t-7 47.5q0 29 37 82q7 10 10 14l6 9q186 259 324 448t215 289z" />
    <glyph glyph-name="braceleft" unicode="{" 
d="M893 1477v-242q-7 0 -21 1t-20 1q-98 0 -132 -35.5t-34 -146.5v-240q0 -140 -46 -200t-165 -85q120 -24 165.5 -82.5t45.5 -199.5v-242q0 -110 33.5 -145t130.5 -35q7 0 21.5 1t21.5 1v-242q-15 0 -42 -1t-40 -1q-108 0 -179.5 12t-119.5 37q-59 32 -82.5 88.5
t-23.5 192.5v256q0 133 -49.5 187.5t-168.5 54.5q-4 0 -17 -1t-19 -1v241q6 0 18 -1t18 -1q118 0 168 55.5t50 188.5v254q0 136 24 193.5t82 89.5q48 25 120.5 37t180.5 12q12 0 38.5 -1t41.5 -1z" />
    <glyph glyph-name="bar" unicode="|" 
d="M393 1565h240v-2048h-240v2048z" />
    <glyph glyph-name="braceright" unicode="}" 
d="M133 1477q15 0 41.5 1t38.5 1q108 0 180 -12t121 -37q58 -32 82.5 -89.5t24.5 -193.5v-254q0 -134 49 -189t168 -55q6 0 18 1t18 1v-241q-6 0 -18 1t-18 1q-119 0 -168 -55t-49 -187v-256q0 -137 -24.5 -194.5t-82.5 -88.5q-45 -24 -113.5 -35.5t-177.5 -11.5
q-14 0 -44 1t-46 1v242q9 0 23 -1t20 -1q97 0 130.5 34.5t33.5 145.5v242q0 140 46 199t165 83q-120 25 -165.5 84t-45.5 201v240q0 111 -33.5 146.5t-126.5 35.5q-7 0 -22.5 -1t-24.5 -1v242z" />
    <glyph glyph-name="asciitilde" unicode="~" horiz-adv-x="1706" 
d="M1530 819v-254q-101 -69 -194 -103t-183 -34q-45 0 -89 7.5t-83 21.5q-13 4 -38 13q-255 89 -382 89q-84 0 -175.5 -37.5t-207.5 -120.5v254q112 73 207.5 108.5t179.5 35.5q63 0 126.5 -12t169.5 -46q16 -5 51 -17q159 -56 247 -56q84 0 173.5 36t197.5 115z" />
    <glyph glyph-name="Adieresis" unicode="&#xc4;" horiz-adv-x="1063" 
d="M487 633h156q7 107 10.5 189.5t3.5 125.5v66v59q-50 -104 -92 -212.5t-78 -227.5zM29 319l-25 3q-14 1 -24.5 14.5t-10.5 32.5q0 7 4.5 27.5t18.5 78.5l2 14l1 4q39 162 118 162h61q83 205 164 378.5t141 279.5l13 20q30 51 53.5 66.5t60.5 15.5q15 0 37.5 -2t48.5 -6
l19 -2q113 -16 147 -40.5t41 -84.5l4 -25q18 -142 28.5 -376t10.5 -502q0 -138 -6 -247v-9l-2 -23q-6 -68 -36.5 -93t-113.5 -30l-16 -2h-27q-64 0 -95.5 22.5t-33.5 68.5v176v141v129l-65 -148q-10 -24 -26.5 -34.5t-47.5 -10.5h-98q-45 -112 -92 -231q-11 -26 -13 -31
l-8 -22q-14 -32 -33 -47t-47 -15q-21 0 -47 5t-51 14l-16 4q-71 24 -95 43.5t-24 48.5q0 7 0.5 13.5t3.5 19.5l4 14q6 23 25.5 73.5t46.5 112.5zM938 1778q52 0 83 -31t31 -82q0 -69 -44 -119.5t-103 -50.5q-52 0 -84.5 32t-32.5 83q0 65 45.5 116.5t104.5 51.5zM571 1778
q52 0 83.5 -31t31.5 -82q0 -69 -44 -119.5t-104 -50.5q-52 0 -84.5 32t-32.5 83q0 65 45.5 116.5t104.5 51.5z" />
    <glyph glyph-name="Aring" unicode="&#xc5;" horiz-adv-x="1063" 
d="M657 1659q0 -34 26 -59t62 -25t61 24.5t25 59.5q0 38 -24 63t-62 25q-36 0 -62 -25.5t-26 -62.5zM516 1661q0 94 67.5 161.5t161.5 67.5t161 -67.5t67 -161.5q0 -95 -67 -162t-163 -67q-93 0 -160 67t-67 162zM496 653h141q6 113 9 185.5t3 101.5v59v56
q-46 -94 -83.5 -193t-69.5 -209zM29 319l-25 3q-14 1 -24.5 14.5t-10.5 32.5q0 7 4.5 27.5t18.5 78.5l2 14l1 4q39 162 118 162h61q84 218 165 390.5t138 259.5l15 21q1 2 5 8q45 73 109 73q25 0 45 -1.5t41 -4.5l17 -4q113 -16 147 -40.5t41 -84.5l4 -25q21 -166 31 -388
t10 -497q0 -128 -6 -232v-9l-2 -23q-6 -68 -36.5 -93t-113.5 -30l-16 -2h-27q-64 0 -95.5 22.5t-33.5 68.5v176v141v129l-65 -148q-10 -24 -26.5 -34.5t-47.5 -10.5h-98q-45 -112 -92 -231q-11 -26 -13 -31l-8 -22q-14 -32 -33 -47t-47 -15q-21 0 -47 5t-51 14l-16 4
q-71 24 -95 43.5t-24 48.5q0 7 0.5 13.5t3.5 19.5l4 14q6 23 25.5 73.5t46.5 112.5z" />
    <glyph glyph-name="Ccedilla" unicode="&#xc7;" horiz-adv-x="995" 
d="M729 571h17q69 -2 103 -28.5t34 -79.5q0 -70 -36.5 -153t-98.5 -156q-73 -85 -168 -133t-189 -48q-160 0 -253 124.5t-93 340.5q0 169 51 348t140 318q99 157 220 233t273 76q133 0 211 -75t78 -203q0 -129 -48 -196t-143 -71h-26q-64 0 -99.5 17.5t-35.5 48.5
q0 20 12 52.5t12 47.5q0 18 -11 28.5t-30 10.5q-31 0 -61.5 -35t-73.5 -120q-60 -123 -94.5 -262t-34.5 -255q0 -43 13 -66.5t36 -23.5q41 0 71 80t46 103q25 35 72 56t100 21h6zM307 0h135l-33 -90q4 0 11.5 1t11.5 1q95 0 144.5 -39.5t49.5 -114.5q0 -98 -68 -153.5
t-192 -55.5q-109 0 -200 22t-91 44q0 4 1.5 8l1.5 4l34 86l1 1q6 16 20 16q1 0 67.5 -20.5t128.5 -20.5q43 0 64.5 15t21.5 44q0 27 -26.5 41t-77.5 14h-47q-12 0 -17.5 4t-5.5 13q0 1 1 4.5t4 12.5z" />
    <glyph glyph-name="Eacute" unicode="&#xc9;" horiz-adv-x="1038" 
d="M137 494h-27q-20 1 -29 13t-9 38q0 17 2.5 41.5t7.5 54.5l2 12q19 98 38 124.5t59 27.5l42 2l62 248q-15 0 -35 -1t-25 -1q-25 0 -38 7t-13 21q0 19 18 85q8 32 13 51l2 12l3 12q34 133 87 137l27 2q1 0 12 1q123 5 272 5q88 0 176 -1.5t189 -6.5h23q28 -1 44.5 -12
t16.5 -29q0 -20 -5.5 -53.5t-15.5 -71.5l-4 -16q-1 -5 -4 -15q-34 -134 -96 -134h-19h-18h-12q-142 8 -322 8q-3 0 -19 -1q-61 -1 -116 -1l127 -56q18 -8 32.5 -25.5t14.5 -29.5q0 -5 -3 -16q-1 -3 -1 -4l-21 -109q28 1 53 1.5t48 0.5q97 0 181 -4h9l27 -2q27 -2 39 -13
t12 -34q0 -19 -4 -46.5t-12 -58.5l-2 -10q-24 -97 -46.5 -126t-78.5 -29h-10h-25q-18 0 -52 1q-84 3 -112 3q-23 0 -60 -1t-53 -1l-36 -158q5 0 70.5 1t125.5 1q39 0 65.5 -0.5t53.5 -1.5l20 -2q47 -2 63.5 -17t16.5 -55q0 -20 -2.5 -42t-7.5 -46l-4 -18q-16 -85 -43 -120.5
t-78 -35.5h-440q-67 0 -98.5 19t-61.5 65l-8 12q-25 38 -34 64.5t-9 54.5q0 11 1.5 23.5t6.5 37.5zM698 1790h203q25 0 31 -5t6 -18q0 -5 -1.5 -8.5t-4.5 -7.5l-9 -8q-37 -43 -100.5 -102t-132.5 -113l-10 -6q-23 -19 -40 -26t-38 -7h-115q-9 0 -13.5 3.5t-4.5 10.5
q0 6 2.5 12t7.5 11l6 8q26 28 74.5 99.5t67.5 109.5l4 9q9 18 26.5 28t40.5 10z" />
    <glyph glyph-name="Ntilde" unicode="&#xd1;" horiz-adv-x="1247" 
d="M-18 117l2 14q15 106 100 452.5t199 729.5l4 14q12 43 37 64.5t63 21.5q15 0 36 -3.5t62 -12.5l13 -2q59 -14 103 -38.5t61 -53.5q44 -75 77.5 -229t67.5 -451q22 178 57 359.5t82 365.5l4 16q6 25 21.5 37t40.5 12q21 0 49 -4t59 -12l19 -4q64 -17 99.5 -43t35.5 -56
q0 -14 -0.5 -20.5t-1.5 -13.5l-2 -15q-5 -40 -52.5 -235t-113.5 -430q-16 -58 -44 -157q-83 -297 -83 -333q0 -12 5 -31.5t5 -27.5q0 -25 -24.5 -36t-79.5 -11q-28 0 -41.5 1t-24.5 3l-18 4q-109 19 -149.5 47t-49.5 86l-4 17q-5 31 -16 130q-40 352 -91 639
q-36 -251 -79.5 -473t-83.5 -370l-7 -21q-10 -41 -32.5 -58.5t-65.5 -17.5q-15 0 -35 2t-45 7l-16 2q-71 10 -109.5 35t-38.5 61q0 11 1.5 21t3.5 18zM1048 1767h113q10 0 14 -4t4 -16q0 -92 -72 -163t-167 -71q-27 0 -57 6.5t-58 18.5l-33 12q-1 1 -2 1q-54 22 -80 22
q-41 0 -64.5 -30t-37.5 -30h-113q-10 1 -14 5.5t-4 15.5q0 94 73 163.5t173 69.5q28 0 55.5 -5.5t52.5 -16.5l33 -14q27 -11 46.5 -16t35.5 -5q40 0 64 28.5t38 28.5z" />
    <glyph glyph-name="Odieresis" unicode="&#xd6;" horiz-adv-x="1128" 
d="M700 1149l-16 -61q-9 -34 -47 -61q-6 -4 -10 -7q-113 -84 -176.5 -225t-63.5 -308q0 -82 24.5 -130t65.5 -48q91 0 173.5 189t82.5 450q0 61 -8 110.5t-25 90.5zM717 1245l151 119q24 19 37 25t25 6q64 0 109.5 -121t45.5 -309q0 -179 -38 -341t-111 -296
q-93 -170 -219.5 -263.5t-263.5 -93.5q-183 0 -294.5 147.5t-111.5 391.5q0 163 52.5 326.5t146.5 293.5q92 130 206.5 206.5t211.5 76.5q34 0 53.5 -15.5t19.5 -43.5q0 -5 -0.5 -8.5t-1.5 -6.5zM1014 1778q52 0 83 -31t31 -82q0 -69 -44 -119.5t-103 -50.5q-52 0 -84.5 32
t-32.5 83q0 65 45.5 116.5t104.5 51.5zM647 1778q52 0 83.5 -31t31.5 -82q0 -69 -44 -119.5t-104 -50.5q-52 0 -84.5 32t-32.5 83q0 65 45.5 116.5t104.5 51.5z" />
    <glyph glyph-name="Udieresis" unicode="&#xdc;" horiz-adv-x="1165" 
d="M264 1313l4 18q14 48 37 63t92 15q22 0 32 -0.5t18 -1.5l14 -2q88 -10 125 -27.5t37 -50.5q0 -1 -2 -11t-5 -22l-4 -16q-41 -177 -126 -486.5t-85 -392.5q0 -36 23 -59t59 -23q101 0 239 518q76 287 130 468l4 14q16 53 42 75.5t73 22.5q13 0 33 -2t40 -6l11 -2
q89 -16 118 -34.5t29 -53.5q0 -11 -2 -23.5t-6 -25.5l-6 -19q-33 -119 -90 -339q-102 -389 -156 -537q-76 -208 -185 -304t-268 -96q-180 0 -306 114t-126 278q0 114 55.5 372t151.5 576zM992 1778q52 0 83 -31t31 -82q0 -69 -44 -119.5t-103 -50.5q-52 0 -84.5 32t-32.5 83
q0 65 45.5 116.5t104.5 51.5zM625 1778q52 0 83.5 -31t31.5 -82q0 -69 -44 -119.5t-104 -50.5q-52 0 -84.5 32t-32.5 83q0 65 45.5 116.5t104.5 51.5z" />
    <glyph glyph-name="aacute" unicode="&#xe1;" horiz-adv-x="1063" 
d="M487 633h156q7 107 10.5 189.5t3.5 125.5v66v59q-50 -104 -92 -212.5t-78 -227.5zM29 319l-25 3q-14 1 -24.5 14.5t-10.5 32.5q0 7 4.5 27.5t18.5 78.5l2 14l1 4q39 162 118 162h61q83 205 164 378.5t141 279.5l13 20q30 51 53.5 66.5t60.5 15.5q15 0 37.5 -2t48.5 -6
l19 -2q113 -16 147 -40.5t41 -84.5l4 -25q18 -142 28.5 -376t10.5 -502q0 -138 -6 -247v-9l-2 -23q-6 -68 -36.5 -93t-113.5 -30l-16 -2h-27q-64 0 -95.5 22.5t-33.5 68.5v176v141v129l-65 -148q-10 -24 -26.5 -34.5t-47.5 -10.5h-98q-45 -112 -92 -231q-11 -26 -13 -31
l-8 -22q-14 -32 -33 -47t-47 -15q-21 0 -47 5t-51 14l-16 4q-71 24 -95 43.5t-24 48.5q0 7 0.5 13.5t3.5 19.5l4 14q6 23 25.5 73.5t46.5 112.5zM751 1790h203q25 0 31 -5t6 -18q0 -5 -1.5 -8.5t-4.5 -7.5l-9 -8q-37 -43 -100.5 -102t-132.5 -113l-10 -6q-23 -19 -40 -26
t-38 -7h-115q-9 0 -13.5 3.5t-4.5 10.5q0 6 2.5 12t7.5 11l6 8q26 28 74.5 99.5t67.5 109.5l4 9q9 18 26.5 28t40.5 10z" />
    <glyph glyph-name="agrave" unicode="&#xe0;" horiz-adv-x="1063" 
d="M487 633h156q7 107 10.5 189.5t3.5 125.5v66v59q-50 -104 -92 -212.5t-78 -227.5zM29 319l-25 3q-14 1 -24.5 14.5t-10.5 32.5q0 7 4.5 27.5t18.5 78.5l2 14l1 4q39 162 118 162h61q83 205 164 378.5t141 279.5l13 20q30 51 53.5 66.5t60.5 15.5q15 0 37.5 -2t48.5 -6
l19 -2q113 -16 147 -40.5t41 -84.5l4 -25q18 -142 28.5 -376t10.5 -502q0 -138 -6 -247v-9l-2 -23q-6 -68 -36.5 -93t-113.5 -30l-16 -2h-27q-64 0 -95.5 22.5t-33.5 68.5v176v141v129l-65 -148q-10 -24 -26.5 -34.5t-47.5 -10.5h-98q-45 -112 -92 -231q-11 -26 -13 -31
l-8 -22q-14 -32 -33 -47t-47 -15q-21 0 -47 5t-51 14l-16 4q-71 24 -95 43.5t-24 48.5q0 7 0.5 13.5t3.5 19.5l4 14q6 23 25.5 73.5t46.5 112.5zM481 1790h203q23 0 40.5 -10t26.5 -29l4 -8q19 -38 67 -109.5t75 -99.5l6 -8q4 -5 7 -11.5t3 -11.5q0 -7 -4.5 -10.5
t-13.5 -3.5h-115q-21 0 -38 7t-40 26l-10 6q-69 54 -133 113t-101 102l-8 8q-4 4 -6 9t-2 9q0 12 6.5 16.5t32.5 4.5z" />
    <glyph glyph-name="acircumflex" unicode="&#xe2;" horiz-adv-x="1063" 
d="M487 633h156q7 107 10.5 189.5t3.5 125.5v66v59q-50 -104 -92 -212.5t-78 -227.5zM29 319l-25 3q-14 1 -24.5 14.5t-10.5 32.5q0 7 4.5 27.5t18.5 78.5l2 14l1 4q39 162 118 162h61q83 205 164 378.5t141 279.5l13 20q30 51 53.5 66.5t60.5 15.5q15 0 37.5 -2t48.5 -6
l19 -2q113 -16 147 -40.5t41 -84.5l4 -25q18 -142 28.5 -376t10.5 -502q0 -138 -6 -247v-9l-2 -23q-6 -68 -36.5 -93t-113.5 -30l-16 -2h-27q-64 0 -95.5 22.5t-33.5 68.5v176v141v129l-65 -148q-10 -24 -26.5 -34.5t-47.5 -10.5h-98q-45 -112 -92 -231q-11 -26 -13 -31
l-8 -22q-14 -32 -33 -47t-47 -15q-21 0 -47 5t-51 14l-16 4q-71 24 -95 43.5t-24 48.5q0 7 0.5 13.5t3.5 19.5l4 14q6 23 25.5 73.5t46.5 112.5zM657 1792h203q23 0 35.5 -7t25.5 -26l6 -8q26 -35 50 -74t45 -78l4 -8q3 -5 5.5 -11.5t2.5 -8.5q0 -10 -3 -14.5t-16 -10.5
l-115 -45q-6 -2 -10 -3t-6 -1q-8 0 -17 8t-18 23l-4 6q-20 35 -46 67t-56 60q-50 -42 -105.5 -90t-60.5 -51l-7 -3q-2 -1 -7 -5q-18 -13 -27 -13q-5 0 -11 4l-3 2l-90 86l-3 3q-10 9 -10 16q0 4 4.5 10t12.5 12l8 6q18 12 61.5 50.5t79.5 76.5l6 7q11 10 22.5 15t27.5 5h16z
" />
    <glyph glyph-name="adieresis" unicode="&#xe4;" horiz-adv-x="1063" 
d="M487 633h156q7 107 10.5 189.5t3.5 125.5v66v59q-50 -104 -92 -212.5t-78 -227.5zM29 319l-25 3q-14 1 -24.5 14.5t-10.5 32.5q0 7 4.5 27.5t18.5 78.5l2 14l1 4q39 162 118 162h61q83 205 164 378.5t141 279.5l13 20q30 51 53.5 66.5t60.5 15.5q15 0 37.5 -2t48.5 -6
l19 -2q113 -16 147 -40.5t41 -84.5l4 -25q18 -142 28.5 -376t10.5 -502q0 -138 -6 -247v-9l-2 -23q-6 -68 -36.5 -93t-113.5 -30l-16 -2h-27q-64 0 -95.5 22.5t-33.5 68.5v176v141v129l-65 -148q-10 -24 -26.5 -34.5t-47.5 -10.5h-98q-45 -112 -92 -231q-11 -26 -13 -31
l-8 -22q-14 -32 -33 -47t-47 -15q-21 0 -47 5t-51 14l-16 4q-71 24 -95 43.5t-24 48.5q0 7 0.5 13.5t3.5 19.5l4 14q6 23 25.5 73.5t46.5 112.5zM938 1778q52 0 83 -31t31 -82q0 -69 -44 -119.5t-103 -50.5q-52 0 -84.5 32t-32.5 83q0 65 45.5 116.5t104.5 51.5zM571 1778
q52 0 83.5 -31t31.5 -82q0 -69 -44 -119.5t-104 -50.5q-52 0 -84.5 32t-32.5 83q0 65 45.5 116.5t104.5 51.5z" />
    <glyph glyph-name="atilde" unicode="&#xe3;" horiz-adv-x="1063" 
d="M487 633h156q7 107 10.5 189.5t3.5 125.5v66v59q-50 -104 -92 -212.5t-78 -227.5zM29 319l-25 3q-14 1 -24.5 14.5t-10.5 32.5q0 7 4.5 27.5t18.5 78.5l2 14l1 4q39 162 118 162h61q83 205 164 378.5t141 279.5l13 20q30 51 53.5 66.5t60.5 15.5q15 0 37.5 -2t48.5 -6
l19 -2q113 -16 147 -40.5t41 -84.5l4 -25q18 -142 28.5 -376t10.5 -502q0 -138 -6 -247v-9l-2 -23q-6 -68 -36.5 -93t-113.5 -30l-16 -2h-27q-64 0 -95.5 22.5t-33.5 68.5v176v141v129l-65 -148q-10 -24 -26.5 -34.5t-47.5 -10.5h-98q-45 -112 -92 -231q-11 -26 -13 -31
l-8 -22q-14 -32 -33 -47t-47 -15q-21 0 -47 5t-51 14l-16 4q-71 24 -95 43.5t-24 48.5q0 7 0.5 13.5t3.5 19.5l4 14q6 23 25.5 73.5t46.5 112.5zM970 1767h113q10 0 14 -4t4 -16q0 -92 -72 -163t-167 -71q-27 0 -57 6.5t-58 18.5l-33 12q-1 1 -2 1q-54 22 -80 22
q-41 0 -64.5 -30t-37.5 -30h-113q-10 1 -14 5.5t-4 15.5q0 94 73 163.5t173 69.5q28 0 55.5 -5.5t52.5 -16.5l33 -14q27 -11 46.5 -16t35.5 -5q40 0 64 28.5t38 28.5z" />
    <glyph glyph-name="aring" unicode="&#xe5;" horiz-adv-x="1063" 
d="M657 1659q0 -34 26 -59t62 -25t61 24.5t25 59.5q0 38 -24 63t-62 25q-36 0 -62 -25.5t-26 -62.5zM516 1661q0 94 67.5 161.5t161.5 67.5t161 -67.5t67 -161.5q0 -95 -67 -162t-163 -67q-93 0 -160 67t-67 162zM496 653h141q6 113 9 185.5t3 101.5v59v56
q-46 -94 -83.5 -193t-69.5 -209zM29 319l-25 3q-14 1 -24.5 14.5t-10.5 32.5q0 7 4.5 27.5t18.5 78.5l2 14l1 4q39 162 118 162h61q84 218 165 390.5t138 259.5l15 21q1 2 5 8q45 73 109 73q25 0 45 -1.5t41 -4.5l17 -4q113 -16 147 -40.5t41 -84.5l4 -25q21 -166 31 -388
t10 -497q0 -128 -6 -232v-9l-2 -23q-6 -68 -36.5 -93t-113.5 -30l-16 -2h-27q-64 0 -95.5 22.5t-33.5 68.5v176v141v129l-65 -148q-10 -24 -26.5 -34.5t-47.5 -10.5h-98q-45 -112 -92 -231q-11 -26 -13 -31l-8 -22q-14 -32 -33 -47t-47 -15q-21 0 -47 5t-51 14l-16 4
q-71 24 -95 43.5t-24 48.5q0 7 0.5 13.5t3.5 19.5l4 14q6 23 25.5 73.5t46.5 112.5z" />
    <glyph glyph-name="ccedilla" unicode="&#xe7;" horiz-adv-x="995" 
d="M729 571h17q69 -2 103 -28.5t34 -79.5q0 -70 -36.5 -153t-98.5 -156q-73 -85 -168 -133t-189 -48q-160 0 -253 124.5t-93 340.5q0 169 51 348t140 318q99 157 220 233t273 76q133 0 211 -75t78 -203q0 -129 -48 -196t-143 -71h-26q-64 0 -99.5 17.5t-35.5 48.5
q0 20 12 52.5t12 47.5q0 18 -11 28.5t-30 10.5q-31 0 -61.5 -35t-73.5 -120q-60 -123 -94.5 -262t-34.5 -255q0 -43 13 -66.5t36 -23.5q41 0 71 80t46 103q25 35 72 56t100 21h6zM307 0h135l-33 -90q4 0 11.5 1t11.5 1q95 0 144.5 -39.5t49.5 -114.5q0 -98 -68 -153.5
t-192 -55.5q-109 0 -200 22t-91 44q0 4 1.5 8l1.5 4l34 86l1 1q6 16 20 16q1 0 67.5 -20.5t128.5 -20.5q43 0 64.5 15t21.5 44q0 27 -26.5 41t-77.5 14h-47q-12 0 -17.5 4t-5.5 13q0 1 1 4.5t4 12.5z" />
    <glyph glyph-name="eacute" unicode="&#xe9;" horiz-adv-x="1038" 
d="M137 494h-27q-20 1 -29 13t-9 38q0 17 2.5 41.5t7.5 54.5l2 12q19 98 38 124.5t59 27.5l42 2l62 248q-15 0 -35 -1t-25 -1q-25 0 -38 7t-13 21q0 19 18 85q8 32 13 51l2 12l3 12q34 133 87 137l27 2q1 0 12 1q123 5 272 5q88 0 176 -1.5t189 -6.5h23q28 -1 44.5 -12
t16.5 -29q0 -20 -5.5 -53.5t-15.5 -71.5l-4 -16q-1 -5 -4 -15q-34 -134 -96 -134h-19h-18h-12q-142 8 -322 8q-3 0 -19 -1q-61 -1 -116 -1l127 -56q18 -8 32.5 -25.5t14.5 -29.5q0 -5 -3 -16q-1 -3 -1 -4l-21 -109q28 1 53 1.5t48 0.5q97 0 181 -4h9l27 -2q27 -2 39 -13
t12 -34q0 -19 -4 -46.5t-12 -58.5l-2 -10q-24 -97 -46.5 -126t-78.5 -29h-10h-25q-18 0 -52 1q-84 3 -112 3q-23 0 -60 -1t-53 -1l-36 -158q5 0 70.5 1t125.5 1q39 0 65.5 -0.5t53.5 -1.5l20 -2q47 -2 63.5 -17t16.5 -55q0 -20 -2.5 -42t-7.5 -46l-4 -18q-16 -85 -43 -120.5
t-78 -35.5h-440q-67 0 -98.5 19t-61.5 65l-8 12q-25 38 -34 64.5t-9 54.5q0 11 1.5 23.5t6.5 37.5zM698 1790h203q25 0 31 -5t6 -18q0 -5 -1.5 -8.5t-4.5 -7.5l-9 -8q-37 -43 -100.5 -102t-132.5 -113l-10 -6q-23 -19 -40 -26t-38 -7h-115q-9 0 -13.5 3.5t-4.5 10.5
q0 6 2.5 12t7.5 11l6 8q26 28 74.5 99.5t67.5 109.5l4 9q9 18 26.5 28t40.5 10z" />
    <glyph glyph-name="egrave" unicode="&#xe8;" horiz-adv-x="1038" 
d="M137 494h-27q-20 1 -29 13t-9 38q0 17 2.5 41.5t7.5 54.5l2 12q19 98 38 124.5t59 27.5l42 2l62 248q-15 0 -35 -1t-25 -1q-25 0 -38 7t-13 21q0 19 18 85q8 32 13 51l2 12l3 12q34 133 87 137l27 2q1 0 12 1q123 5 272 5q88 0 176 -1.5t189 -6.5h23q28 -1 44.5 -12
t16.5 -29q0 -20 -5.5 -53.5t-15.5 -71.5l-4 -16q-1 -5 -4 -15q-34 -134 -96 -134h-19h-18h-12q-142 8 -322 8q-3 0 -19 -1q-61 -1 -116 -1l127 -56q18 -8 32.5 -25.5t14.5 -29.5q0 -5 -3 -16q-1 -3 -1 -4l-21 -109q28 1 53 1.5t48 0.5q97 0 181 -4h9l27 -2q27 -2 39 -13
t12 -34q0 -19 -4 -46.5t-12 -58.5l-2 -10q-24 -97 -46.5 -126t-78.5 -29h-10h-25q-18 0 -52 1q-84 3 -112 3q-23 0 -60 -1t-53 -1l-36 -158q5 0 70.5 1t125.5 1q39 0 65.5 -0.5t53.5 -1.5l20 -2q47 -2 63.5 -17t16.5 -55q0 -20 -2.5 -42t-7.5 -46l-4 -18q-16 -85 -43 -120.5
t-78 -35.5h-440q-67 0 -98.5 19t-61.5 65l-8 12q-25 38 -34 64.5t-9 54.5q0 11 1.5 23.5t6.5 37.5zM428 1790h203q23 0 40.5 -10t26.5 -29l4 -8q19 -38 67 -109.5t75 -99.5l6 -8q4 -5 7 -11.5t3 -11.5q0 -7 -4.5 -10.5t-13.5 -3.5h-115q-21 0 -38 7t-40 26l-10 6
q-69 54 -133 113t-101 102l-8 8q-4 4 -6 9t-2 9q0 12 6.5 16.5t32.5 4.5z" />
    <glyph glyph-name="ecircumflex" unicode="&#xea;" horiz-adv-x="1038" 
d="M137 494h-27q-20 1 -29 13t-9 38q0 17 2.5 41.5t7.5 54.5l2 12q19 98 38 124.5t59 27.5l42 2l62 248q-15 0 -35 -1t-25 -1q-25 0 -38 7t-13 21q0 19 18 85q8 32 13 51l2 12l3 12q34 133 87 137l27 2q1 0 12 1q123 5 272 5q88 0 176 -1.5t189 -6.5h23q28 -1 44.5 -12
t16.5 -29q0 -20 -5.5 -53.5t-15.5 -71.5l-4 -16q-1 -5 -4 -15q-34 -134 -96 -134h-19h-18h-12q-142 8 -322 8q-3 0 -19 -1q-61 -1 -116 -1l127 -56q18 -8 32.5 -25.5t14.5 -29.5q0 -5 -3 -16q-1 -3 -1 -4l-21 -109q28 1 53 1.5t48 0.5q97 0 181 -4h9l27 -2q27 -2 39 -13
t12 -34q0 -19 -4 -46.5t-12 -58.5l-2 -10q-24 -97 -46.5 -126t-78.5 -29h-10h-25q-18 0 -52 1q-84 3 -112 3q-23 0 -60 -1t-53 -1l-36 -158q5 0 70.5 1t125.5 1q39 0 65.5 -0.5t53.5 -1.5l20 -2q47 -2 63.5 -17t16.5 -55q0 -20 -2.5 -42t-7.5 -46l-4 -18q-16 -85 -43 -120.5
t-78 -35.5h-440q-67 0 -98.5 19t-61.5 65l-8 12q-25 38 -34 64.5t-9 54.5q0 11 1.5 23.5t6.5 37.5zM604 1792h203q23 0 35.5 -7t25.5 -26l6 -8q26 -35 50 -74t45 -78l4 -8q3 -5 5.5 -11.5t2.5 -8.5q0 -10 -3 -14.5t-16 -10.5l-115 -45q-6 -2 -10 -3t-6 -1q-8 0 -17 8t-18 23
l-4 6q-20 35 -46 67t-56 60q-50 -42 -105.5 -90t-60.5 -51l-7 -3q-2 -1 -7 -5q-18 -13 -27 -13q-5 0 -11 4l-3 2l-90 86l-3 3q-10 9 -10 16q0 4 4.5 10t12.5 12l8 6q18 12 61.5 50.5t79.5 76.5l6 7q11 10 22.5 15t27.5 5h16z" />
    <glyph glyph-name="edieresis" unicode="&#xeb;" horiz-adv-x="1038" 
d="M137 494h-27q-20 1 -29 13t-9 38q0 17 2.5 41.5t7.5 54.5l2 12q19 98 38 124.5t59 27.5l42 2l62 248q-15 0 -35 -1t-25 -1q-25 0 -38 7t-13 21q0 19 18 85q8 32 13 51l2 12l3 12q34 133 87 137l27 2q1 0 12 1q123 5 272 5q88 0 176 -1.5t189 -6.5h23q28 -1 44.5 -12
t16.5 -29q0 -20 -5.5 -53.5t-15.5 -71.5l-4 -16q-1 -5 -4 -15q-34 -134 -96 -134h-19h-18h-12q-142 8 -322 8q-3 0 -19 -1q-61 -1 -116 -1l127 -56q18 -8 32.5 -25.5t14.5 -29.5q0 -5 -3 -16q-1 -3 -1 -4l-21 -109q28 1 53 1.5t48 0.5q97 0 181 -4h9l27 -2q27 -2 39 -13
t12 -34q0 -19 -4 -46.5t-12 -58.5l-2 -10q-24 -97 -46.5 -126t-78.5 -29h-10h-25q-18 0 -52 1q-84 3 -112 3q-23 0 -60 -1t-53 -1l-36 -158q5 0 70.5 1t125.5 1q39 0 65.5 -0.5t53.5 -1.5l20 -2q47 -2 63.5 -17t16.5 -55q0 -20 -2.5 -42t-7.5 -46l-4 -18q-16 -85 -43 -120.5
t-78 -35.5h-440q-67 0 -98.5 19t-61.5 65l-8 12q-25 38 -34 64.5t-9 54.5q0 11 1.5 23.5t6.5 37.5zM885 1778q52 0 83 -31t31 -82q0 -69 -44 -119.5t-103 -50.5q-52 0 -84.5 32t-32.5 83q0 65 45.5 116.5t104.5 51.5zM518 1778q52 0 83.5 -31t31.5 -82q0 -69 -44 -119.5
t-104 -50.5q-52 0 -84.5 32t-32.5 83q0 65 45.5 116.5t104.5 51.5z" />
    <glyph glyph-name="iacute" unicode="&#xed;" horiz-adv-x="688" 
d="M33 152q15 75 48.5 221.5t74.5 314.5q67 267 103.5 395.5t72.5 233.5l6 18q16 46 34.5 62t55.5 16q28 0 51 -1t41 -3l15 -2q98 -13 130.5 -30t32.5 -48q0 -5 -1.5 -12.5t-4.5 -16.5l-4 -18q-21 -81 -62 -237q-181 -687 -231 -947l-4 -24q-12 -59 -36 -81t-72 -22
q-16 0 -39 3t-46 8l-8 2q-100 21 -131.5 46t-31.5 76q0 5 2 19q1 8 2 12zM608 1790h203q25 0 31 -5t6 -18q0 -5 -1.5 -8.5t-4.5 -7.5l-9 -8q-37 -43 -100.5 -102t-132.5 -113l-10 -6q-23 -19 -40 -26t-38 -7h-115q-9 0 -13.5 3.5t-4.5 10.5q0 6 2.5 12t7.5 11l6 8
q26 28 74.5 99.5t67.5 109.5l4 9q9 18 26.5 28t40.5 10z" />
    <glyph glyph-name="igrave" unicode="&#xec;" horiz-adv-x="688" 
d="M33 152q15 75 48.5 221.5t74.5 314.5q67 267 103.5 395.5t72.5 233.5l6 18q16 46 34.5 62t55.5 16q28 0 51 -1t41 -3l15 -2q98 -13 130.5 -30t32.5 -48q0 -5 -1.5 -12.5t-4.5 -16.5l-4 -18q-21 -81 -62 -237q-181 -687 -231 -947l-4 -24q-12 -59 -36 -81t-72 -22
q-16 0 -39 3t-46 8l-8 2q-100 21 -131.5 46t-31.5 76q0 5 2 19q1 8 2 12zM338 1790h203q23 0 40.5 -10t26.5 -29l4 -8q19 -38 67 -109.5t75 -99.5l6 -8q4 -5 7 -11.5t3 -11.5q0 -7 -4.5 -10.5t-13.5 -3.5h-115q-21 0 -38 7t-40 26l-10 6q-69 54 -133 113t-101 102l-8 8
q-4 4 -6 9t-2 9q0 12 6.5 16.5t32.5 4.5z" />
    <glyph glyph-name="icircumflex" unicode="&#xee;" horiz-adv-x="688" 
d="M33 152q15 75 48.5 221.5t74.5 314.5q67 267 103.5 395.5t72.5 233.5l6 18q16 46 34.5 62t55.5 16q28 0 51 -1t41 -3l15 -2q98 -13 130.5 -30t32.5 -48q0 -5 -1.5 -12.5t-4.5 -16.5l-4 -18q-21 -81 -62 -237q-181 -687 -231 -947l-4 -24q-12 -59 -36 -81t-72 -22
q-16 0 -39 3t-46 8l-8 2q-100 21 -131.5 46t-31.5 76q0 5 2 19q1 8 2 12zM514 1792h203q23 0 35.5 -7t25.5 -26l6 -8q26 -35 50 -74t45 -78l4 -8q3 -5 5.5 -11.5t2.5 -8.5q0 -10 -3 -14.5t-16 -10.5l-115 -45q-6 -2 -10 -3t-6 -1q-8 0 -17 8t-18 23l-4 6q-20 35 -46 67
t-56 60q-50 -42 -105.5 -90t-60.5 -51l-7 -3q-2 -1 -7 -5q-18 -13 -27 -13q-5 0 -11 4l-3 2l-90 86l-3 3q-10 9 -10 16q0 4 4.5 10t12.5 12l8 6q18 12 61.5 50.5t79.5 76.5l6 7q11 10 22.5 15t27.5 5h16z" />
    <glyph glyph-name="idieresis" unicode="&#xef;" horiz-adv-x="688" 
d="M33 152q15 75 48.5 221.5t74.5 314.5q67 267 103.5 395.5t72.5 233.5l6 18q16 46 34.5 62t55.5 16q28 0 51 -1t41 -3l15 -2q98 -13 130.5 -30t32.5 -48q0 -5 -1.5 -12.5t-4.5 -16.5l-4 -18q-21 -81 -62 -237q-181 -687 -231 -947l-4 -24q-12 -59 -36 -81t-72 -22
q-16 0 -39 3t-46 8l-8 2q-100 21 -131.5 46t-31.5 76q0 5 2 19q1 8 2 12zM795 1778q52 0 83 -31t31 -82q0 -69 -44 -119.5t-103 -50.5q-52 0 -84.5 32t-32.5 83q0 65 45.5 116.5t104.5 51.5zM428 1778q52 0 83.5 -31t31.5 -82q0 -69 -44 -119.5t-104 -50.5q-52 0 -84.5 32
t-32.5 83q0 65 45.5 116.5t104.5 51.5z" />
    <glyph glyph-name="ntilde" unicode="&#xf1;" horiz-adv-x="1247" 
d="M-18 117l2 14q15 106 100 452.5t199 729.5l4 14q12 43 37 64.5t63 21.5q15 0 36 -3.5t62 -12.5l13 -2q59 -14 103 -38.5t61 -53.5q44 -75 77.5 -229t67.5 -451q22 178 57 359.5t82 365.5l4 16q6 25 21.5 37t40.5 12q21 0 49 -4t59 -12l19 -4q64 -17 99.5 -43t35.5 -56
q0 -14 -0.5 -20.5t-1.5 -13.5l-2 -15q-5 -40 -52.5 -235t-113.5 -430q-16 -58 -44 -157q-83 -297 -83 -333q0 -12 5 -31.5t5 -27.5q0 -25 -24.5 -36t-79.5 -11q-28 0 -41.5 1t-24.5 3l-18 4q-109 19 -149.5 47t-49.5 86l-4 17q-5 31 -16 130q-40 352 -91 639
q-36 -251 -79.5 -473t-83.5 -370l-7 -21q-10 -41 -32.5 -58.5t-65.5 -17.5q-15 0 -35 2t-45 7l-16 2q-71 10 -109.5 35t-38.5 61q0 11 1.5 21t3.5 18zM1048 1767h113q10 0 14 -4t4 -16q0 -92 -72 -163t-167 -71q-27 0 -57 6.5t-58 18.5l-33 12q-1 1 -2 1q-54 22 -80 22
q-41 0 -64.5 -30t-37.5 -30h-113q-10 1 -14 5.5t-4 15.5q0 94 73 163.5t173 69.5q28 0 55.5 -5.5t52.5 -16.5l33 -14q27 -11 46.5 -16t35.5 -5q40 0 64 28.5t38 28.5z" />
    <glyph glyph-name="oacute" unicode="&#xf3;" horiz-adv-x="1128" 
d="M700 1149l-16 -61q-9 -34 -47 -61q-6 -4 -10 -7q-113 -84 -176.5 -225t-63.5 -308q0 -82 24.5 -130t65.5 -48q91 0 173.5 189t82.5 450q0 61 -8 110.5t-25 90.5zM717 1245l151 119q24 19 37 25t25 6q64 0 109.5 -121t45.5 -309q0 -179 -38 -341t-111 -296
q-93 -170 -219.5 -263.5t-263.5 -93.5q-183 0 -294.5 147.5t-111.5 391.5q0 163 52.5 326.5t146.5 293.5q92 130 206.5 206.5t211.5 76.5q34 0 53.5 -15.5t19.5 -43.5q0 -5 -0.5 -8.5t-1.5 -6.5zM827 1790h203q25 0 31 -5t6 -18q0 -5 -1.5 -8.5t-4.5 -7.5l-9 -8
q-37 -43 -100.5 -102t-132.5 -113l-10 -6q-23 -19 -40 -26t-38 -7h-115q-9 0 -13.5 3.5t-4.5 10.5q0 6 2.5 12t7.5 11l6 8q26 28 74.5 99.5t67.5 109.5l4 9q9 18 26.5 28t40.5 10z" />
    <glyph glyph-name="ograve" unicode="&#xf2;" horiz-adv-x="1128" 
d="M700 1149l-16 -61q-9 -34 -47 -61q-6 -4 -10 -7q-113 -84 -176.5 -225t-63.5 -308q0 -82 24.5 -130t65.5 -48q91 0 173.5 189t82.5 450q0 61 -8 110.5t-25 90.5zM717 1245l151 119q24 19 37 25t25 6q64 0 109.5 -121t45.5 -309q0 -179 -38 -341t-111 -296
q-93 -170 -219.5 -263.5t-263.5 -93.5q-183 0 -294.5 147.5t-111.5 391.5q0 163 52.5 326.5t146.5 293.5q92 130 206.5 206.5t211.5 76.5q34 0 53.5 -15.5t19.5 -43.5q0 -5 -0.5 -8.5t-1.5 -6.5zM557 1790h203q23 0 40.5 -10t26.5 -29l4 -8q19 -38 67 -109.5t75 -99.5l6 -8
q4 -5 7 -11.5t3 -11.5q0 -7 -4.5 -10.5t-13.5 -3.5h-115q-21 0 -38 7t-40 26l-10 6q-69 54 -133 113t-101 102l-8 8q-4 4 -6 9t-2 9q0 12 6.5 16.5t32.5 4.5z" />
    <glyph glyph-name="ocircumflex" unicode="&#xf4;" horiz-adv-x="1128" 
d="M700 1149l-16 -61q-9 -34 -47 -61q-6 -4 -10 -7q-113 -84 -176.5 -225t-63.5 -308q0 -82 24.5 -130t65.5 -48q91 0 173.5 189t82.5 450q0 61 -8 110.5t-25 90.5zM717 1245l151 119q24 19 37 25t25 6q64 0 109.5 -121t45.5 -309q0 -179 -38 -341t-111 -296
q-93 -170 -219.5 -263.5t-263.5 -93.5q-183 0 -294.5 147.5t-111.5 391.5q0 163 52.5 326.5t146.5 293.5q92 130 206.5 206.5t211.5 76.5q34 0 53.5 -15.5t19.5 -43.5q0 -5 -0.5 -8.5t-1.5 -6.5zM733 1792h203q23 0 35.5 -7t25.5 -26l6 -8q26 -35 50 -74t45 -78l4 -8
q3 -5 5.5 -11.5t2.5 -8.5q0 -10 -3 -14.5t-16 -10.5l-115 -45q-6 -2 -10 -3t-6 -1q-8 0 -17 8t-18 23l-4 6q-20 35 -46 67t-56 60q-50 -42 -105.5 -90t-60.5 -51l-7 -3q-2 -1 -7 -5q-18 -13 -27 -13q-5 0 -11 4l-3 2l-90 86l-3 3q-10 9 -10 16q0 4 4.5 10t12.5 12l8 6
q18 12 61.5 50.5t79.5 76.5l6 7q11 10 22.5 15t27.5 5h16z" />
    <glyph glyph-name="odieresis" unicode="&#xf6;" horiz-adv-x="1128" 
d="M700 1149l-16 -61q-9 -34 -47 -61q-6 -4 -10 -7q-113 -84 -176.5 -225t-63.5 -308q0 -82 24.5 -130t65.5 -48q91 0 173.5 189t82.5 450q0 61 -8 110.5t-25 90.5zM717 1245l151 119q24 19 37 25t25 6q64 0 109.5 -121t45.5 -309q0 -179 -38 -341t-111 -296
q-93 -170 -219.5 -263.5t-263.5 -93.5q-183 0 -294.5 147.5t-111.5 391.5q0 163 52.5 326.5t146.5 293.5q92 130 206.5 206.5t211.5 76.5q34 0 53.5 -15.5t19.5 -43.5q0 -5 -0.5 -8.5t-1.5 -6.5zM1014 1778q52 0 83 -31t31 -82q0 -69 -44 -119.5t-103 -50.5q-52 0 -84.5 32
t-32.5 83q0 65 45.5 116.5t104.5 51.5zM647 1778q52 0 83.5 -31t31.5 -82q0 -69 -44 -119.5t-104 -50.5q-52 0 -84.5 32t-32.5 83q0 65 45.5 116.5t104.5 51.5z" />
    <glyph glyph-name="otilde" unicode="&#xf5;" horiz-adv-x="1128" 
d="M700 1149l-16 -61q-9 -34 -47 -61q-6 -4 -10 -7q-113 -84 -176.5 -225t-63.5 -308q0 -82 24.5 -130t65.5 -48q91 0 173.5 189t82.5 450q0 61 -8 110.5t-25 90.5zM717 1245l151 119q24 19 37 25t25 6q64 0 109.5 -121t45.5 -309q0 -179 -38 -341t-111 -296
q-93 -170 -219.5 -263.5t-263.5 -93.5q-183 0 -294.5 147.5t-111.5 391.5q0 163 52.5 326.5t146.5 293.5q92 130 206.5 206.5t211.5 76.5q34 0 53.5 -15.5t19.5 -43.5q0 -5 -0.5 -8.5t-1.5 -6.5zM1046 1767h113q10 0 14 -4t4 -16q0 -92 -72 -163t-167 -71q-27 0 -57 6.5
t-58 18.5l-33 12q-1 1 -2 1q-54 22 -80 22q-41 0 -64.5 -30t-37.5 -30h-113q-10 1 -14 5.5t-4 15.5q0 94 73 163.5t173 69.5q28 0 55.5 -5.5t52.5 -16.5l33 -14q27 -11 46.5 -16t35.5 -5q40 0 64 28.5t38 28.5z" />
    <glyph glyph-name="uacute" unicode="&#xfa;" horiz-adv-x="1165" 
d="M264 1313l4 18q14 48 37 63t92 15q22 0 32 -0.5t18 -1.5l14 -2q88 -10 125 -27.5t37 -50.5q0 -1 -2 -11t-5 -22l-4 -16q-41 -177 -126 -486.5t-85 -392.5q0 -36 23 -59t59 -23q101 0 239 518q76 287 130 468l4 14q16 53 42 75.5t73 22.5q13 0 33 -2t40 -6l11 -2
q89 -16 118 -34.5t29 -53.5q0 -11 -2 -23.5t-6 -25.5l-6 -19q-33 -119 -90 -339q-102 -389 -156 -537q-76 -208 -185 -304t-268 -96q-180 0 -306 114t-126 278q0 114 55.5 372t151.5 576zM805 1790h203q25 0 31 -5t6 -18q0 -5 -1.5 -8.5t-4.5 -7.5l-9 -8
q-37 -43 -100.5 -102t-132.5 -113l-10 -6q-23 -19 -40 -26t-38 -7h-115q-9 0 -13.5 3.5t-4.5 10.5q0 6 2.5 12t7.5 11l6 8q26 28 74.5 99.5t67.5 109.5l4 9q9 18 26.5 28t40.5 10z" />
    <glyph glyph-name="ugrave" unicode="&#xf9;" horiz-adv-x="1165" 
d="M264 1313l4 18q14 48 37 63t92 15q22 0 32 -0.5t18 -1.5l14 -2q88 -10 125 -27.5t37 -50.5q0 -1 -2 -11t-5 -22l-4 -16q-41 -177 -126 -486.5t-85 -392.5q0 -36 23 -59t59 -23q101 0 239 518q76 287 130 468l4 14q16 53 42 75.5t73 22.5q13 0 33 -2t40 -6l11 -2
q89 -16 118 -34.5t29 -53.5q0 -11 -2 -23.5t-6 -25.5l-6 -19q-33 -119 -90 -339q-102 -389 -156 -537q-76 -208 -185 -304t-268 -96q-180 0 -306 114t-126 278q0 114 55.5 372t151.5 576zM535 1790h203q23 0 40.5 -10t26.5 -29l4 -8q19 -38 67 -109.5t75 -99.5l6 -8
q4 -5 7 -11.5t3 -11.5q0 -7 -4.5 -10.5t-13.5 -3.5h-115q-21 0 -38 7t-40 26l-10 6q-69 54 -133 113t-101 102l-8 8q-4 4 -6 9t-2 9q0 12 6.5 16.5t32.5 4.5z" />
    <glyph glyph-name="ucircumflex" unicode="&#xfb;" horiz-adv-x="1165" 
d="M264 1313l4 18q14 48 37 63t92 15q22 0 32 -0.5t18 -1.5l14 -2q88 -10 125 -27.5t37 -50.5q0 -1 -2 -11t-5 -22l-4 -16q-41 -177 -126 -486.5t-85 -392.5q0 -36 23 -59t59 -23q101 0 239 518q76 287 130 468l4 14q16 53 42 75.5t73 22.5q13 0 33 -2t40 -6l11 -2
q89 -16 118 -34.5t29 -53.5q0 -11 -2 -23.5t-6 -25.5l-6 -19q-33 -119 -90 -339q-102 -389 -156 -537q-76 -208 -185 -304t-268 -96q-180 0 -306 114t-126 278q0 114 55.5 372t151.5 576zM711 1792h203q23 0 35.5 -7t25.5 -26l6 -8q26 -35 50 -74t45 -78l4 -8
q3 -5 5.5 -11.5t2.5 -8.5q0 -10 -3 -14.5t-16 -10.5l-115 -45q-6 -2 -10 -3t-6 -1q-8 0 -17 8t-18 23l-4 6q-20 35 -46 67t-56 60q-50 -42 -105.5 -90t-60.5 -51l-7 -3q-2 -1 -7 -5q-18 -13 -27 -13q-5 0 -11 4l-3 2l-90 86l-3 3q-10 9 -10 16q0 4 4.5 10t12.5 12l8 6
q18 12 61.5 50.5t79.5 76.5l6 7q11 10 22.5 15t27.5 5h16z" />
    <glyph glyph-name="udieresis" unicode="&#xfc;" horiz-adv-x="1165" 
d="M264 1313l4 18q14 48 37 63t92 15q22 0 32 -0.5t18 -1.5l14 -2q88 -10 125 -27.5t37 -50.5q0 -1 -2 -11t-5 -22l-4 -16q-41 -177 -126 -486.5t-85 -392.5q0 -36 23 -59t59 -23q101 0 239 518q76 287 130 468l4 14q16 53 42 75.5t73 22.5q13 0 33 -2t40 -6l11 -2
q89 -16 118 -34.5t29 -53.5q0 -11 -2 -23.5t-6 -25.5l-6 -19q-33 -119 -90 -339q-102 -389 -156 -537q-76 -208 -185 -304t-268 -96q-180 0 -306 114t-126 278q0 114 55.5 372t151.5 576zM992 1778q52 0 83 -31t31 -82q0 -69 -44 -119.5t-103 -50.5q-52 0 -84.5 32t-32.5 83
q0 65 45.5 116.5t104.5 51.5zM625 1778q52 0 83.5 -31t31.5 -82q0 -69 -44 -119.5t-104 -50.5q-52 0 -84.5 32t-32.5 83q0 65 45.5 116.5t104.5 51.5z" />
    <glyph glyph-name="dagger" unicode="&#x2020;" horiz-adv-x="1028" 
d="M639 1409h10q80 -3 120 -20t40 -48q0 -8 -1 -16.5t-3 -17.5l-4 -11q-12 -44 -29.5 -112t-36.5 -146h215q32 0 50 -14t18 -39q0 -10 -3.5 -33t-8.5 -55l-5 -12q-15 -76 -36 -100.5t-62 -24.5h-241q-56 -197 -120 -505q-23 -110 -34 -157l-6 -26q-17 -66 -41 -83.5
t-76 -17.5q-14 0 -29.5 2t-29.5 4h-9q-77 15 -111 40.5t-34 68.5q0 2 1.5 16t2.5 25l2 16q4 33 43.5 205t97.5 412h-169q-45 0 -66 17t-21 54q1 12 2.5 25.5t4.5 30.5l2 12q15 83 40.5 111t82.5 28h198q33 114 50.5 170.5t33.5 104.5l8 20q18 53 36 65.5t95 12.5q6 0 14 -1
t9 -1z" />
    <glyph glyph-name="degree" unicode="&#xb0;" horiz-adv-x="674" 
d="M338 1321q-69 0 -117.5 -48t-48.5 -116q0 -70 48 -118t118 -48q68 0 116 49t48 117t-48 116t-116 48zM338 1466q129 0 220 -91t91 -220q0 -128 -91.5 -219.5t-221.5 -91.5q-129 0 -219 90.5t-90 220.5q0 131 90.5 221t220.5 90z" />
    <glyph glyph-name="cent" unicode="&#xa2;" horiz-adv-x="885" 
d="M233 317q-85 31 -130.5 109.5t-45.5 194.5q0 202 116.5 359.5t293.5 190.5l27 122q7 28 36 40.5t91 12.5h14q65 0 91 -10t26 -33q0 -11 -0.5 -15t-1.5 -7l-33 -126q74 -32 106.5 -80.5t32.5 -126.5q0 -4 -1 -10.5t-1 -9.5v-17q-2 -40 -37.5 -65t-93.5 -25h-14
q-81 0 -107.5 9t-26.5 32v6v15q0 -1 1.5 5.5t1.5 10.5q0 12 -13 21.5t-30 9.5q-51 0 -107.5 -103.5t-56.5 -205.5q0 -38 17 -60t46 -22q16 0 26 7t21 29l6 11q12 24 44 35.5t85 11.5h15h12q105 -4 128.5 -18t23.5 -52q0 -2 -1 -7t-1 -7v-12q-14 -85 -97 -154t-198 -86
l-37 -153q-8 -34 -41 -49t-98 -15h-9q-67 0 -96 11.5t-29 37.5q0 8 1 12t1 6z" />
    <glyph glyph-name="sterling" unicode="&#xa3;" horiz-adv-x="991" 
d="M256 504h-119q-37 0 -53 13t-16 42q0 7 1.5 19t4.5 31l2 12q12 69 40 96.5t89 27.5h61q-49 82 -68.5 141t-19.5 120q0 183 130.5 294t348.5 111q165 0 280.5 -56.5t115.5 -127.5q0 -22 -10 -46t-33 -61l-6 -10q-32 -48 -66 -77t-57 -29q-27 0 -55 31q0 1 -1 1l-8 11
q-29 32 -67.5 48.5t-85.5 16.5q-63 0 -105.5 -33t-42.5 -80q0 -27 45.5 -108.5t48.5 -144.5l189 -1q31 0 42 -11t11 -40q0 -9 -6 -40q-1 -8 -2 -13l-2 -10q-17 -75 -42 -102t-75 -27h-150q-34 -64 -86 -117t-131 -102q28 6 54.5 9t52.5 3q47 0 103 -12.5t65 -12.5
q21 0 42.5 13t39.5 37l8 12q11 14 25.5 22t27.5 8q20 0 40 -13.5t40 -41.5l10 -14q22 -30 32.5 -55t10.5 -48q0 -81 -84.5 -150t-191.5 -69q-60 0 -183.5 42t-185.5 42q-67 0 -121 -40t-69 -40q-19 0 -44.5 24t-54.5 69l-8 12q-17 27 -27 57.5t-10 55.5q0 21 18 40.5
t58 42.5l12 7q116 68 165 115t73 106z" />
    <glyph glyph-name="section" unicode="&#xa7;" 
d="M438 823q-44 -13 -69 -36.5t-25 -51.5q0 -37 102 -93q81 -45 136 -81q40 10 66 35t26 53q0 36 -95 89q-84 46 -141 85zM1026 1264l-2 -11q-15 -70 -42.5 -95.5t-111.5 -31.5h-14q-8 0 -24 -1t-23 -1q-58 0 -72 4t-14 15v6l10 47q-62 0 -112 -38t-50 -81q0 -57 176 -156
q2 -1 3 -1q128 -74 167 -122t39 -114q0 -82 -52.5 -147.5t-151.5 -106.5q29 -39 41 -68t12 -61q0 -141 -133 -236.5t-340 -95.5q-157 0 -238.5 29t-81.5 84q0 10 2.5 27.5t5.5 35.5l3 11q0 3 1 9q24 122 162 138h12q31 2 49.5 3t35.5 1q39 0 56 -7t17 -24q0 -5 -0.5 -7.5
t-1.5 -4.5l-12 -59q4 0 13.5 -1t13.5 -1q52 0 85 24.5t33 61.5q0 59 -153 131q-45 20 -70 33q-105 50 -154 111.5t-49 142.5q0 88 59.5 160t162.5 106q-24 29 -34.5 58.5t-10.5 64.5q0 131 169.5 226t423.5 95q124 0 163.5 -19t39.5 -73q0 -11 -2 -27t-6 -34z" />
    <glyph glyph-name="bullet" unicode="&#x2022;" horiz-adv-x="1208" 
d="M307 762q0 123 87 209t210 86q122 0 208.5 -86.5t86.5 -208.5t-87.5 -209.5t-209.5 -87.5q-123 0 -209 87t-86 210z" />
    <glyph glyph-name="paragraph" unicode="&#xb6;" 
d="M997 1479v-123h-106v-1356h-176v1356h-150v-1356h-174v784q-164 6 -263 101t-99 245q0 158 106 253.5t283 95.5h579z" />
    <glyph glyph-name="germandbls" unicode="&#xdf;" horiz-adv-x="1819" 
d="M271 315q73 2 107 26t34 75q0 36 -21.5 86t-71.5 129q-10 16 -29 46q-126 199 -126 298q0 181 183 309.5t460 128.5q102 0 140 -27.5t38 -101.5q0 -23 -4 -56.5t-4 -39.5l-2 -12q-7 -98 -40 -139.5t-114 -47.5l-16 -2q-24 -1 -43.5 -1.5t-34.5 -0.5q-26 0 -39.5 8
t-13.5 23v6l10 55q-73 -3 -121.5 -30t-48.5 -60q0 -15 7.5 -33t25.5 -45q13 -19 37 -58q182 -277 182 -437q0 -206 -154.5 -323.5t-427.5 -117.5q-126 0 -184.5 35.5t-58.5 112.5q0 15 2 39t6 53l2 15l1 9q24 181 163 205l11 4q10 2 33 3.5t52 1.5q35 0 54.5 -12.5
t19.5 -35.5v-10zM1180 315q73 2 107 26t34 75q0 36 -21.5 86t-71.5 129q-10 16 -29 46q-126 199 -126 298q0 181 183 309.5t460 128.5q102 0 140 -27.5t38 -101.5q0 -23 -4 -56.5t-4 -39.5l-2 -12q-7 -98 -40 -139.5t-114 -47.5l-16 -2q-24 -1 -43.5 -1.5t-34.5 -0.5
q-26 0 -39.5 8t-13.5 23v6l10 55q-73 -3 -121.5 -30t-48.5 -60q0 -15 7.5 -33t25.5 -45q13 -19 37 -58q182 -277 182 -437q0 -206 -154.5 -323.5t-427.5 -117.5q-126 0 -184.5 35.5t-58.5 112.5q0 15 2 39t6 53l2 15l1 9q24 181 163 205l11 4q10 2 33 3.5t52 1.5
q35 0 54.5 -12.5t19.5 -35.5v-10z" />
    <glyph glyph-name="registered" unicode="&#xae;" horiz-adv-x="1706" 
d="M762 1022v-219h80q74 0 110.5 26.5t36.5 79.5q0 59 -38 86t-122 27h-67zM537 1163h329q174 0 264.5 -60t90.5 -177q0 -81 -46 -139t-128 -82l182 -361h-248l-154 326h-65v-326h-225v819zM854 1350q-124 0 -232 -44t-194 -128q-90 -90 -137 -203t-47 -238q0 -121 44 -229
t130 -195q87 -90 199 -138t235 -48q121 0 232.5 45.5t199.5 130.5t134 196.5t46 237.5q0 124 -44 233.5t-128 194.5q-89 91 -200.5 138t-237.5 47zM852 1485q156 0 294 -57.5t245 -167.5q101 -104 154.5 -238t53.5 -285q0 -155 -56.5 -291t-164.5 -239q-109 -105 -245 -161
t-281 -56q-151 0 -287 58t-243 169q-105 108 -160.5 241.5t-55.5 278.5q0 151 59 290t169 247q105 104 237 157.5t281 53.5z" />
    <glyph glyph-name="copyright" unicode="&#xa9;" horiz-adv-x="1706" 
d="M1221 891h-213q-7 67 -47.5 104t-108.5 37q-83 0 -129.5 -77t-46.5 -216q0 -140 47.5 -212t138.5 -72q67 0 106.5 40.5t45.5 114.5h215q-6 -143 -107.5 -230t-263.5 -87q-190 0 -301 117.5t-111 320.5q0 207 111 329t299 122q157 0 257 -80t108 -211zM854 1350
q-126 0 -235 -45.5t-195 -133.5q-88 -89 -135 -201t-47 -233q0 -119 47 -230.5t135 -199.5q87 -87 198 -133.5t232 -46.5t234 47t202 135q86 84 130 193t44 235q0 125 -45 235.5t-131 196.5q-88 89 -198.5 135t-235.5 46zM852 1485q154 0 289.5 -56t242.5 -163
q106 -106 160.5 -240.5t54.5 -288.5q0 -153 -54 -287t-159 -237q-109 -108 -247 -165.5t-287 -57.5q-148 0 -283.5 57t-242.5 164t-163.5 241.5t-56.5 284.5q0 148 57.5 285t164.5 246q105 106 238 161.5t286 55.5z" />
    <glyph glyph-name="trademark" unicode="&#x2122;" horiz-adv-x="1706" 
d="M797 1464h223l113 -303l114 303h221v-551h-155v390l-146 -390h-65l-150 390v-390h-155v551zM188 1464h502v-127h-164v-424h-174v424h-164v127z" />
    <glyph glyph-name="acute" unicode="&#xb4;" 
d="M776 1790h203q25 0 31 -5t6 -18q0 -5 -1.5 -8.5t-4.5 -7.5l-9 -8q-37 -43 -100.5 -102t-132.5 -113l-10 -6q-23 -19 -40 -26t-38 -7h-115q-9 0 -13.5 3.5t-4.5 10.5q0 6 2.5 12t7.5 11l6 8q26 28 74.5 99.5t67.5 109.5l4 9q9 18 26.5 28t40.5 10z" />
    <glyph glyph-name="dieresis" unicode="&#xa8;" 
d="M963 1778q52 0 83 -31t31 -82q0 -69 -44 -119.5t-103 -50.5q-52 0 -84.5 32t-32.5 83q0 65 45.5 116.5t104.5 51.5zM596 1778q52 0 83.5 -31t31.5 -82q0 -69 -44 -119.5t-104 -50.5q-52 0 -84.5 32t-32.5 83q0 65 45.5 116.5t104.5 51.5z" />
    <glyph glyph-name="notequal" unicode="&#x2260;" horiz-adv-x="1706" 
d="M1194 1251l168 -137l-135 -168h225v-221h-377l-180 -227h557v-222h-704l-246 -307l-170 137l135 170h-213v222h360l183 227h-543v221h694z" />
    <glyph glyph-name="AE" unicode="&#xc6;" horiz-adv-x="1640" 
d="M627 784h200l72 283h-47q-51 0 -151 -163q-45 -74 -74 -120zM127 492h-31q-15 0 -22.5 10t-7.5 28q0 19 7.5 48t24.5 73l4 11q34 85 67 117t87 32h53q50 90 81.5 144.5t58.5 97.5h-37q-24 0 -37 17t-13 48q0 20 6.5 44t22.5 65l4 12q32 81 79.5 113t168.5 32h944
q37 0 54.5 -11.5t17.5 -35.5q0 -19 -5.5 -53t-15.5 -72l-4 -16q-26 -110 -44 -131t-64 -21h-10l-19 3q-33 0 -151.5 3t-186.5 3h-135l127 -56q22 -9 36.5 -25t14.5 -30q0 -6 -2 -13l-2 -7l-27 -119q41 0 85 1q13 1 16 1q71 0 122 -1t68 -3l26 -2q28 -2 40 -13t12 -34
q0 -21 -2.5 -44t-7.5 -44l-6 -22q-3 -10 -8 -28q-36 -133 -119 -133h-6h-17q-58 2 -111 3t-100 1h-86l-35 -153q9 0 77.5 1t127.5 1q49 0 105 -2h18h18q49 -2 65.5 -17t16.5 -55q0 -15 -3 -36.5t-9 -51.5l-4 -20q-15 -81 -41.5 -118.5t-69.5 -37.5h-442q-63 0 -97 16.5
t-54 53.5l-8 13q-5 9 -14 24q-38 66 -38 110q0 11 1.5 23.5t6.5 35.5l54 213h-275q-62 -117 -113 -224.5t-81 -182.5l-7 -15q-24 -61 -47.5 -79.5t-70.5 -18.5q-16 0 -35 2t-39 6l-14 4q-65 15 -94 40t-29 67q0 26 19 78q5 14 7 20l4 15q15 40 53 115t97 180z" />
    <glyph glyph-name="Oslash" unicode="&#xd8;" horiz-adv-x="1176" 
d="M731 1149l-18 -64q-9 -35 -44 -59q-7 -5 -11 -8q-116 -86 -181 -230.5t-65 -314.5q0 -85 24.5 -131.5t69.5 -46.5q90 0 174 192t84 457q0 63 -8 113.5t-25 91.5zM197 104l-62 -59q-37 -36 -66 -54t-51 -18q-48 0 -84 41.5t-36 91.5q0 30 9.5 52.5t31.5 44.5l149 153
q-8 37 -12 76.5t-4 79.5q0 162 52 324.5t146 293.5q93 129 208 206t210 77q35 0 55.5 -16.5t20.5 -42.5q0 -3 -1 -8t-1 -7l-21 -94l152 119q4 3 10 8q27 23 49 23q26 0 50.5 -21.5t44.5 -60.5l53 47l3 3q58 50 95 50q41 0 79 -43t38 -92q0 -30 -18 -61.5t-58 -71.5
l-133 -138q1 -14 1.5 -32t0.5 -60q0 -178 -51.5 -353.5t-145.5 -315.5q-88 -132 -201.5 -203.5t-234.5 -71.5q-87 0 -157.5 33.5t-120.5 99.5z" />
    <glyph glyph-name="infinity" unicode="&#x221e;" horiz-adv-x="1706" 
d="M956 561q43 -67 102 -101t132 -34q90 0 146.5 50.5t56.5 129.5q0 77 -51.5 127.5t-127.5 50.5q-72 0 -131.5 -50.5t-126.5 -172.5zM752 657q-43 67 -101 100.5t-133 33.5q-90 0 -146.5 -50t-56.5 -129q0 -77 51 -127.5t128 -50.5q71 0 132 52.5t126 170.5zM856 442
q-68 -130 -147.5 -193t-176.5 -63q-139 0 -238 121.5t-99 300.5q0 188 87.5 305t227.5 117q90 0 166.5 -56.5t175.5 -199.5q71 132 150 195t174 63q140 0 238.5 -121t98.5 -301q0 -189 -87.5 -306.5t-227.5 -117.5q-91 0 -166 55t-176 201z" />
    <glyph glyph-name="plusminus" unicode="&#xb1;" horiz-adv-x="1706" 
d="M254 213h1198v-231h-1198v231zM735 1241h238v-319h479v-232h-479v-319h-238v319h-481v232h481v319z" />
    <glyph glyph-name="lessequal" unicode="&#x2264;" horiz-adv-x="1706" 
d="M256 213h1196v-229h-1196v229zM1450 1257v-239l-776 -240l776 -239v-240l-1194 379v201z" />
    <glyph glyph-name="greaterequal" unicode="&#x2265;" horiz-adv-x="1706" 
d="M256 213h1196v-229h-1196v229zM258 1257l1192 -378v-201l-1192 -379v240l776 239l-776 240v239z" />
    <glyph glyph-name="yen" unicode="&#xa5;" horiz-adv-x="958" 
d="M307 1407h12q109 -18 130.5 -37.5t21.5 -75.5v-10q0 -101 3.5 -220.5t10.5 -274.5q70 195 127 349t72 193l6 12q1 3 4 10q21 56 64 56q22 0 52.5 -5t59.5 -13l9 -5q2 0 7 -2q122 -36 122 -81q0 -10 -3 -22.5t-8 -23.5l-6 -14q-135 -311 -223 -461h88q45 0 60.5 -11
t15.5 -42q0 -49 -19 -105.5t-45 -86.5q-10 -13 -23.5 -19t-37.5 -6h-27h-184q-51 -226 -82 -419v-1l-2 -12q-10 -60 -31.5 -81.5t-70.5 -21.5q-17 0 -40 3t-45 8l-8 2q-100 21 -131.5 46t-31.5 77q0 4 2 19q1 7 2 11l2 15q2 17 13.5 80t51.5 274h-188q-24 0 -35.5 13
t-11.5 40q0 38 24.5 104.5t44.5 90.5q11 12 27 17t41 5h68q-17 146 -25 281t-8 258v16q0 40 19 59t59 19q15 0 55 -6q8 -1 12 -2z" />
    <glyph glyph-name="mu" unicode="&#xb5;" horiz-adv-x="1315" 
d="M193 1090h358l-80 -529q-6 -41 -9 -77.5t-3 -65.5q0 -85 35.5 -127.5t107.5 -42.5q88 0 138.5 68.5t74.5 220.5l88 553h357l-175 -1090h-321l18 125q-40 -75 -89.5 -108t-119.5 -33q-59 0 -106.5 31t-77.5 89l-82 -532h-352z" />
    <glyph glyph-name="partialdiff" unicode="&#x2202;" horiz-adv-x="1114" 
d="M766 684q21 113 32 206t11 150q0 87 -29.5 148t-68.5 61q-35 0 -132 -93t-180 -93q-48 0 -80 33.5t-32 83.5q0 69 93 125.5t220 56.5q210 0 332.5 -161t122.5 -441q0 -344 -162.5 -564.5t-417.5 -220.5q-182 0 -299 116.5t-117 299.5q0 203 119.5 336t298.5 133
q101 0 170.5 -42.5t118.5 -133.5zM698 532q0 114 -36.5 176t-104.5 62q-96 0 -160.5 -136.5t-64.5 -346.5q0 -116 36.5 -176t106.5 -60q97 0 160 135.5t63 345.5z" />
    <glyph glyph-name="summation" unicode="&#x2211;" horiz-adv-x="1520" 
d="M72 1473h1335v-302h-838l596 -608l-587 -651h895v-305h-1424v184l684 756l-661 665v261z" />
    <glyph glyph-name="product" unicode="&#x220f;" horiz-adv-x="1645" 
d="M145 1473h1348v-1866h-399v1532h-549v-1532h-400v1866z" />
    <glyph glyph-name="pi" unicode="&#x3c0;" horiz-adv-x="1530" 
d="M1538 1090l-39 -232h-178l-135 -858h-357l134 858h-232l-135 -858h-354l133 858h-27q-42 0 -70.5 -35.5t-36.5 -97.5h-235q33 209 124.5 287t311.5 78h1096z" />
    <glyph glyph-name="integral" unicode="&#x222b;" horiz-adv-x="1249" 
d="M362 -248q99 0 119 667q3 101 4 154q17 523 130.5 753t349.5 230q105 0 170 -53t65 -137q0 -64 -41 -103.5t-106 -39.5q-64 0 -96.5 38.5t-32.5 112.5q0 38 -7.5 49t-25.5 11q-101 0 -124 -667q-2 -60 -3 -91q-11 -329 -30.5 -472.5t-57.5 -244.5q-62 -166 -159.5 -249
t-229.5 -83q-107 0 -171.5 52t-64.5 139q0 65 42 104t112 39q60 0 92.5 -36t32.5 -103q0 -12 -2 -24v-3q0 -24 8 -33.5t26 -9.5z" />
    <glyph glyph-name="ordfeminine" unicode="&#xaa;" horiz-adv-x="702" 
d="M322 930h102q5 58 7.5 107.5t2.5 82.5v39v35q-33 -62 -61 -127t-51 -137zM18 743h-15q-11 2 -17 10t-6 19q0 6 7 34q4 18 7 30l2 8v0q27 100 78 100h41q51 115 102.5 216.5t97.5 178.5l9 13q21 31 36.5 40t38.5 9q9 0 23 -1.5t34 -4.5h13q74 -11 96.5 -25.5t28.5 -50.5
l2 -14q12 -81 19.5 -222.5t7.5 -306.5q0 -81 -4 -147l-1 -6l-2 -13q-4 -40 -23.5 -55t-73.5 -18l-11 -2h-19q-42 0 -63 13.5t-23 41.5v104v86v76l-43 -88q-5 -14 -16 -20.5t-33 -6.5h-63q-20 -43 -43.5 -97t-26.5 -61l-6 -12q-7 -18 -19.5 -27t-31.5 -9t-35.5 2.5t-30.5 7.5
l-10 2q-48 15 -64 27t-16 28q0 4 1 8.5t3 11.5l2 9q4 13 16.5 43t30.5 69z" />
    <glyph glyph-name="ordmasculine" unicode="&#xba;" horiz-adv-x="745" 
d="M463 1241l-12 -36q-6 -22 -30 -37q-5 -3 -8 -5q-74 -50 -115.5 -134.5t-41.5 -184.5q0 -50 16 -78.5t43 -28.5q60 0 114 113.5t54 269.5q0 37 -5 66.5t-15 54.5zM473 1298l100 72q2 1 6 4q21 14 35 15q42 0 72.5 -73.5t30.5 -185.5q0 -107 -25 -204t-74 -178
q-61 -102 -144.5 -157.5t-174.5 -55.5q-121 0 -194.5 87.5t-73.5 233.5q0 98 34.5 196t96.5 177q61 78 136.5 124t139.5 46q24 0 36.5 -9.5t12.5 -25.5v-5.5t-2 -5.5z" />
    <glyph glyph-name="Omega" unicode="&#x3a9;" horiz-adv-x="1645" 
d="M1266 307h333v-307h-636v352q92 82 142 196.5t50 246.5q0 182 -90 288.5t-244 106.5q-153 0 -243.5 -107.5t-90.5 -289.5q0 -132 50 -246.5t143 -194.5v-352h-635v307h332q-132 95 -200 229.5t-68 299.5q0 303 195.5 489t516.5 186q323 0 518 -185t195 -490
q0 -165 -68 -299.5t-200 -229.5z" />
    <glyph glyph-name="ae" unicode="&#xe6;" horiz-adv-x="1640" 
d="M627 784h200l72 283h-47q-51 0 -151 -163q-45 -74 -74 -120zM127 492h-31q-15 0 -22.5 10t-7.5 28q0 19 7.5 48t24.5 73l4 11q34 85 67 117t87 32h53q50 90 81.5 144.5t58.5 97.5h-37q-24 0 -37 17t-13 48q0 20 6.5 44t22.5 65l4 12q32 81 79.5 113t168.5 32h944
q37 0 54.5 -11.5t17.5 -35.5q0 -19 -5.5 -53t-15.5 -72l-4 -16q-26 -110 -44 -131t-64 -21h-10l-19 3q-33 0 -151.5 3t-186.5 3h-135l127 -56q22 -9 36.5 -25t14.5 -30q0 -6 -2 -13l-2 -7l-27 -119q41 0 85 1q13 1 16 1q71 0 122 -1t68 -3l26 -2q28 -2 40 -13t12 -34
q0 -21 -2.5 -44t-7.5 -44l-6 -22q-3 -10 -8 -28q-36 -133 -119 -133h-6h-17q-58 2 -111 3t-100 1h-86l-35 -153q9 0 77.5 1t127.5 1q49 0 105 -2h18h18q49 -2 65.5 -17t16.5 -55q0 -15 -3 -36.5t-9 -51.5l-4 -20q-15 -81 -41.5 -118.5t-69.5 -37.5h-442q-63 0 -97 16.5
t-54 53.5l-8 13q-5 9 -14 24q-38 66 -38 110q0 11 1.5 23.5t6.5 35.5l54 213h-275q-62 -117 -113 -224.5t-81 -182.5l-7 -15q-24 -61 -47.5 -79.5t-70.5 -18.5q-16 0 -35 2t-39 6l-14 4q-65 15 -94 40t-29 67q0 26 19 78q5 14 7 20l4 15q15 40 53 115t97 180z" />
    <glyph glyph-name="oslash" unicode="&#xf8;" horiz-adv-x="1176" 
d="M731 1149l-18 -64q-9 -35 -44 -59q-7 -5 -11 -8q-116 -86 -181 -230.5t-65 -314.5q0 -85 24.5 -131.5t69.5 -46.5q90 0 174 192t84 457q0 63 -8 113.5t-25 91.5zM197 104l-62 -59q-37 -36 -66 -54t-51 -18q-48 0 -84 41.5t-36 91.5q0 30 9.5 52.5t31.5 44.5l149 153
q-8 37 -12 76.5t-4 79.5q0 162 52 324.5t146 293.5q93 129 208 206t210 77q35 0 55.5 -16.5t20.5 -42.5q0 -3 -1 -8t-1 -7l-21 -94l152 119q4 3 10 8q27 23 49 23q26 0 50.5 -21.5t44.5 -60.5l53 47l3 3q58 50 95 50q41 0 79 -43t38 -92q0 -30 -18 -61.5t-58 -71.5
l-133 -138q1 -14 1.5 -32t0.5 -60q0 -178 -51.5 -353.5t-145.5 -315.5q-88 -132 -201.5 -203.5t-234.5 -71.5q-87 0 -157.5 33.5t-120.5 99.5z" />
    <glyph glyph-name="questiondown" unicode="&#xbf;" horiz-adv-x="963" 
d="M762 924v-9q0 -98 -63.5 -189.5t-230.5 -220.5l-4 -3q-130 -102 -130 -164q0 -33 20.5 -51.5t57.5 -18.5q50 0 82.5 30.5t50.5 94.5l2 11q7 26 39 38.5t96 12.5h12q106 0 130 -19t24 -78q0 -12 -0.5 -18t-1.5 -12l-2 -13q-26 -152 -153 -248t-308 -96q-170 0 -275.5 84.5
t-105.5 218.5q0 99 60 195.5t233 255.5q6 6 19 18q109 97 159 189l4 8q13 22 41.5 32.5t91.5 14.5h17q6 0 18 1t17 1q53 0 76.5 -15t23.5 -50zM842 1260q0 -91 -57 -156.5t-136 -65.5q-61 0 -98 41t-37 109q0 91 55 158t129 67q65 0 104.5 -42t39.5 -111z" />
    <glyph glyph-name="exclamdown" unicode="&#xa1;" horiz-adv-x="659" 
d="M571 793l-4 -17q-28 -158 -67 -332.5t-86 -359.5l-4 -12q-16 -60 -51.5 -81.5t-165.5 -21.5q-92 0 -122 17.5t-30 64.5q0 12 6 38q1 5 2 9l4 15q6 36 75 234t161 427l4 14q34 85 56.5 101t86.5 16q83 0 113.5 -12.5t30.5 -48.5q-2 -19 -9 -51zM684 1260q0 -91 -56 -156.5
t-134 -65.5q-62 0 -99 40.5t-37 109.5q0 92 55 158.5t130 66.5q64 0 102.5 -42t38.5 -111z" />
    <glyph glyph-name="logicalnot" unicode="&#xac;" horiz-adv-x="1706" 
d="M254 866h1198v-501h-229v274h-969v227z" />
    <glyph glyph-name="radical" unicode="&#x221a;" horiz-adv-x="1366" 
d="M1155 1714h215v-149h-96l-590 -1606h-119l-307 846l-145 -55l-37 129l360 127l223 -635z" />
    <glyph glyph-name="florin" unicode="&#x192;" horiz-adv-x="1087" 
d="M40 146q10 -2 23 -4q27 -5 35 -5q69 0 108.5 77t90.5 355h-178q-20 0 -30.5 10t-10.5 29q0 7 3 32t7 52l2 10q10 61 32 87t62 26h162q44 293 178.5 446.5t347.5 153.5q146 0 224 -76t78 -219v-12q0 -46 -26.5 -70t-86.5 -32l-6 -2q-24 -5 -46.5 -7t-45.5 -2
q-40 0 -58 12.5t-18 39.5q0 6 1 14t1 10l6 39q0 3 1 9t1 7q0 23 -11.5 34t-35.5 11q-60 0 -105.5 -91.5t-70.5 -264.5h256q22 0 31.5 -11t9.5 -38q0 -13 -3 -34t-7 -43l-3 -11q-12 -60 -33 -84.5t-61 -24.5h-239q-71 -423 -176.5 -566.5t-313.5 -143.5q-65 0 -125.5 14
t-93.5 35l-12 8q-19 11 -27 27t-8 41q0 19 3 39.5t9 39.5l6 17q16 50 33 66t45 16q13 0 31 -6t24 -6z" />
    <glyph glyph-name="approxequal" unicode="&#x2248;" horiz-adv-x="1706" 
d="M1530 602v-254q-105 -71 -196 -104t-181 -33t-283 65.5t-309 65.5q-82 0 -172.5 -37t-210.5 -121v254q111 74 209 109t195 35q115 0 304.5 -65.5t272.5 -65.5t170 35t201 116zM1530 1036v-254q-107 -70 -197 -102.5t-178 -32.5q-91 0 -284 64.5t-310 64.5q-84 0 -172 -36
t-211 -122v256q112 74 209 108t195 34q115 0 304.5 -65.5t272.5 -65.5t170.5 35.5t200.5 115.5z" />
    <glyph glyph-name="Delta" unicode="&#x2206;" horiz-adv-x="1468" 
d="M733 1059l-262 -774h526zM537 1473h395l541 -1473h-1475z" />
    <glyph glyph-name="guillemotleft" unicode="&#xab;" horiz-adv-x="868" 
d="M455 241l-35 240q-1 5 -1 11q-3 24 -3 34q0 17 3.5 31t14.5 37l141 256q10 16 21.5 24.5t24.5 8.5q16 0 35.5 -6t39.5 -17l11 -6q51 -27 66 -42t15 -32q0 -6 -2 -13t-6 -15l-133 -240l35 -233q0 -3 1 -8t1 -7q0 -28 -23 -44.5t-73 -24.5l-10 -2q-18 -4 -32 -5.5t-24 -1.5
q-32 0 -47.5 13t-19.5 42zM82 242l-33 239q-1 9 -3.5 24t-2.5 21q0 27 19 65q1 2 1 3l142 256q9 16 21 24.5t24 8.5q15 0 34 -6t40 -17l10 -6q51 -27 66.5 -42t15.5 -32q0 -7 -2 -15t-4 -13l-136 -240l35 -233q0 -3 1 -8t1 -7q0 -28 -23 -44.5t-73 -24.5l-9 -3
q-15 -2 -30.5 -4t-25.5 -2q-33 0 -48 12.5t-20 43.5z" />
    <glyph glyph-name="guillemotright" unicode="&#xbb;" horiz-adv-x="868" 
d="M727 829l35 -241q2 -13 3 -23t1 -20q0 -20 -4.5 -37t-13.5 -33l-142 -254q-9 -15 -21 -25t-22 -10q-14 0 -32 5.5t-46 19.5l-10 6q-54 29 -68 42.5t-14 29.5q0 6 2.5 14.5t5.5 15.5l134 240l-35 234q0 2 -1 7t-1 7q0 28 23 44.5t73 25.5l10 2q14 2 26.5 3t28.5 1
q34 0 49 -12t19 -42zM352 829l33 -241q4 -25 5 -32.5t1 -10.5q0 -18 -5 -35t-15 -35l-142 -254q-9 -15 -20.5 -25t-20.5 -10q-14 0 -32 5.5t-45 19.5l-11 6q-54 29 -68 42.5t-14 29.5q1 9 2.5 17t4.5 14l135 239l-35 234q0 2 -1 7t-1 7q0 28 23 44.5t73 25.5l8 2
q14 2 27.5 3t30.5 1q33 0 48 -12t19 -42z" />
    <glyph glyph-name="ellipsis" unicode="&#x2026;" horiz-adv-x="2048" 
d="M73 125q0 90 56.5 155.5t132.5 65.5q64 0 102.5 -40.5t38.5 -106.5q0 -94 -55.5 -161t-130.5 -67q-65 0 -104.5 42.5t-39.5 111.5zM755 125q0 90 56.5 155.5t132.5 65.5q64 0 102.5 -40.5t38.5 -106.5q0 -94 -55.5 -161t-130.5 -67q-65 0 -104.5 42.5t-39.5 111.5z
M1440 125q0 90 56.5 155.5t132.5 65.5q64 0 102.5 -40.5t38.5 -106.5q0 -94 -55.5 -161t-130.5 -67q-65 0 -104.5 42.5t-39.5 111.5z" />
    <glyph glyph-name="nonbreakingspace" unicode="&#xa0;" horiz-adv-x="1104" 
 />
    <glyph glyph-name="Agrave" unicode="&#xc0;" horiz-adv-x="1063" 
d="M487 633h156q7 107 10.5 189.5t3.5 125.5v66v59q-50 -104 -92 -212.5t-78 -227.5zM29 319l-25 3q-14 1 -24.5 14.5t-10.5 32.5q0 7 4.5 27.5t18.5 78.5l2 14l1 4q39 162 118 162h61q83 205 164 378.5t141 279.5l13 20q30 51 53.5 66.5t60.5 15.5q15 0 37.5 -2t48.5 -6
l19 -2q113 -16 147 -40.5t41 -84.5l4 -25q18 -142 28.5 -376t10.5 -502q0 -138 -6 -247v-9l-2 -23q-6 -68 -36.5 -93t-113.5 -30l-16 -2h-27q-64 0 -95.5 22.5t-33.5 68.5v176v141v129l-65 -148q-10 -24 -26.5 -34.5t-47.5 -10.5h-98q-45 -112 -92 -231q-11 -26 -13 -31
l-8 -22q-14 -32 -33 -47t-47 -15q-21 0 -47 5t-51 14l-16 4q-71 24 -95 43.5t-24 48.5q0 7 0.5 13.5t3.5 19.5l4 14q6 23 25.5 73.5t46.5 112.5zM481 1790h203q23 0 40.5 -10t26.5 -29l4 -8q19 -38 67 -109.5t75 -99.5l6 -8q4 -5 7 -11.5t3 -11.5q0 -7 -4.5 -10.5
t-13.5 -3.5h-115q-21 0 -38 7t-40 26l-10 6q-69 54 -133 113t-101 102l-8 8q-4 4 -6 9t-2 9q0 12 6.5 16.5t32.5 4.5z" />
    <glyph glyph-name="Atilde" unicode="&#xc3;" horiz-adv-x="1063" 
d="M487 633h156q7 107 10.5 189.5t3.5 125.5v66v59q-50 -104 -92 -212.5t-78 -227.5zM29 319l-25 3q-14 1 -24.5 14.5t-10.5 32.5q0 7 4.5 27.5t18.5 78.5l2 14l1 4q39 162 118 162h61q83 205 164 378.5t141 279.5l13 20q30 51 53.5 66.5t60.5 15.5q15 0 37.5 -2t48.5 -6
l19 -2q113 -16 147 -40.5t41 -84.5l4 -25q18 -142 28.5 -376t10.5 -502q0 -138 -6 -247v-9l-2 -23q-6 -68 -36.5 -93t-113.5 -30l-16 -2h-27q-64 0 -95.5 22.5t-33.5 68.5v176v141v129l-65 -148q-10 -24 -26.5 -34.5t-47.5 -10.5h-98q-45 -112 -92 -231q-11 -26 -13 -31
l-8 -22q-14 -32 -33 -47t-47 -15q-21 0 -47 5t-51 14l-16 4q-71 24 -95 43.5t-24 48.5q0 7 0.5 13.5t3.5 19.5l4 14q6 23 25.5 73.5t46.5 112.5zM970 1767h113q10 0 14 -4t4 -16q0 -92 -72 -163t-167 -71q-27 0 -57 6.5t-58 18.5l-33 12q-1 1 -2 1q-54 22 -80 22
q-41 0 -64.5 -30t-37.5 -30h-113q-10 1 -14 5.5t-4 15.5q0 94 73 163.5t173 69.5q28 0 55.5 -5.5t52.5 -16.5l33 -14q27 -11 46.5 -16t35.5 -5q40 0 64 28.5t38 28.5z" />
    <glyph glyph-name="Otilde" unicode="&#xd5;" horiz-adv-x="1128" 
d="M700 1149l-16 -61q-9 -34 -47 -61q-6 -4 -10 -7q-113 -84 -176.5 -225t-63.5 -308q0 -82 24.5 -130t65.5 -48q91 0 173.5 189t82.5 450q0 61 -8 110.5t-25 90.5zM717 1245l151 119q24 19 37 25t25 6q64 0 109.5 -121t45.5 -309q0 -179 -38 -341t-111 -296
q-93 -170 -219.5 -263.5t-263.5 -93.5q-183 0 -294.5 147.5t-111.5 391.5q0 163 52.5 326.5t146.5 293.5q92 130 206.5 206.5t211.5 76.5q34 0 53.5 -15.5t19.5 -43.5q0 -5 -0.5 -8.5t-1.5 -6.5zM1046 1767h113q10 0 14 -4t4 -16q0 -92 -72 -163t-167 -71q-27 0 -57 6.5
t-58 18.5l-33 12q-1 1 -2 1q-54 22 -80 22q-41 0 -64.5 -30t-37.5 -30h-113q-10 1 -14 5.5t-4 15.5q0 94 73 163.5t173 69.5q28 0 55.5 -5.5t52.5 -16.5l33 -14q27 -11 46.5 -16t35.5 -5q40 0 64 28.5t38 28.5z" />
    <glyph glyph-name="OE" unicode="&#x152;" horiz-adv-x="1522" 
d="M735 807l37 168q3 13 4.5 23.5t1.5 17.5q0 29 -16.5 43t-48.5 14q-36 0 -77.5 -29t-84.5 -83q-77 -98 -121.5 -222.5t-44.5 -238.5q0 -98 27 -146.5t82 -48.5q52 0 90.5 46.5t62.5 140.5l-27 2q-20 1 -30 15t-10 42q0 20 2.5 43t7.5 45l2 12q1 5 4 17q31 133 96 137z
M733 1370q97 8 212 12t243 4q150 0 274 -7q11 -1 13 -1h10q33 -3 47 -12.5t14 -28.5q0 -16 -6 -50.5t-16 -76.5l-2 -7q-3 -11 -7 -30q-31 -126 -100 -126h-12h-19q-37 2 -130.5 4t-206.5 2q-30 0 -63.5 -0.5t-70.5 -1.5q91 -29 121.5 -53.5t30.5 -65.5q0 -7 -1 -16.5
t-1 -10.5l-21 -92q44 0 101.5 1t70.5 1q78 0 143 -4h9l12 -2q31 -4 42.5 -14t11.5 -33q0 -24 -4.5 -52.5t-12.5 -54.5l-2 -10q-32 -108 -53 -132t-64 -24h-18l-14 3h-7q-89 2 -206 2q-3 0 -13 -1q-38 -1 -73 -1l-35 -158q9 0 77 1t128 1q36 0 71 -1t62 -3h9q49 -2 65 -17.5
t16 -56.5l-12 -92l-3 -10q-11 -77 -39 -116.5t-71 -39.5h-455q-70 0 -88 13t-24 50q-54 -46 -111 -68t-123 -22q-168 0 -277.5 149.5t-109.5 387.5q0 164 52.5 327.5t146.5 295.5q92 128 207 204t211 76q29 0 44.5 -9.5t26.5 -33.5z" />
    <glyph glyph-name="oe" unicode="&#x153;" horiz-adv-x="1522" 
d="M735 807l37 168q3 13 4.5 23.5t1.5 17.5q0 29 -16.5 43t-48.5 14q-36 0 -77.5 -29t-84.5 -83q-77 -98 -121.5 -222.5t-44.5 -238.5q0 -98 27 -146.5t82 -48.5q52 0 90.5 46.5t62.5 140.5l-27 2q-20 1 -30 15t-10 42q0 20 2.5 43t7.5 45l2 12q1 5 4 17q31 133 96 137z
M733 1370q97 8 212 12t243 4q150 0 274 -7q11 -1 13 -1h10q33 -3 47 -12.5t14 -28.5q0 -16 -6 -50.5t-16 -76.5l-2 -7q-3 -11 -7 -30q-31 -126 -100 -126h-12h-19q-37 2 -130.5 4t-206.5 2q-30 0 -63.5 -0.5t-70.5 -1.5q91 -29 121.5 -53.5t30.5 -65.5q0 -7 -1 -16.5
t-1 -10.5l-21 -92q44 0 101.5 1t70.5 1q78 0 143 -4h9l12 -2q31 -4 42.5 -14t11.5 -33q0 -24 -4.5 -52.5t-12.5 -54.5l-2 -10q-32 -108 -53 -132t-64 -24h-18l-14 3h-7q-89 2 -206 2q-3 0 -13 -1q-38 -1 -73 -1l-35 -158q9 0 77 1t128 1q36 0 71 -1t62 -3h9q49 -2 65 -17.5
t16 -56.5l-12 -92l-3 -10q-11 -77 -39 -116.5t-71 -39.5h-455q-70 0 -88 13t-24 50q-54 -46 -111 -68t-123 -22q-168 0 -277.5 149.5t-109.5 387.5q0 164 52.5 327.5t146.5 295.5q92 128 207 204t211 76q29 0 44.5 -9.5t26.5 -33.5z" />
    <glyph glyph-name="endash" unicode="&#x2013;" 
d="M133 567h694q46 0 61 -9t15 -36q0 -48 -20 -101.5t-47 -80.5q-11 -12 -25 -17.5t-39 -5.5h-22h-707q-23 0 -35 11t-12 32q0 36 21.5 95.5t43.5 87.5q11 13 27.5 18.5t44.5 5.5z" />
    <glyph glyph-name="emdash" unicode="&#x2014;" horiz-adv-x="2048" 
d="M2013 567l-61 -250h-2052l65 250h2048z" />
    <glyph glyph-name="quotedblleft" unicode="&#x201c;" horiz-adv-x="991" 
d="M977 1331l-2 -12q-25 -88 -64 -206.5t-45 -148.5l-2 -14q-7 -40 -40.5 -56.5t-112.5 -16.5h-15q-75 0 -110 15t-35 48q0 11 7 31q1 3 1 4l4 10l1 2q67 139 184 346l6 10q23 41 49 54.5t78 13.5h14q46 0 68 -13t22 -40q0 -1 -3 -9.5t-5 -17.5zM543 1331l-4 -12
q-25 -88 -63.5 -207.5t-43.5 -147.5l-4 -14q-7 -40 -40.5 -56.5t-113.5 -16.5h-12q-76 0 -110.5 15t-34.5 48q0 11 6 30q1 3 2 5l4 10l1 2q66 139 183 346l6 10q24 41 49 54.5t76 13.5h17q45 0 66.5 -13t21.5 -40q0 -1 -1 -5.5t-5 -21.5z" />
    <glyph glyph-name="quotedblright" unicode="&#x201d;" horiz-adv-x="991" 
d="M580 958l4 11q24 84 62.5 205t43.5 151l2 12q7 39 42.5 56.5t113.5 17.5h12q77 0 111.5 -14.5t34.5 -46.5q-1 -9 -3 -19t-6 -19l-4 -9q0 -1 -1 -3q-66 -139 -183 -346l-6 -10q-23 -41 -47.5 -54t-77.5 -13h-16q-44 0 -66.5 13t-22.5 38v4q2 10 7 26zM143 958l4 11
q25 87 64.5 207.5t44.5 148.5l2 12q7 40 42 57t112 17h12q77 0 111 -14.5t34 -46.5q0 -9 -2 -18.5t-6 -18.5l-4 -10q0 -1 -1 -3q-66 -141 -181 -346l-6 -10q-23 -40 -48 -53.5t-79 -13.5h-15q-44 0 -67 13t-23 38v4q2 10 6 26z" />
    <glyph glyph-name="quoteleft" unicode="&#x2018;" horiz-adv-x="555" 
d="M541 1331l-4 -12q-25 -88 -63.5 -207.5t-43.5 -147.5l-2 -14q-7 -39 -41.5 -56t-114.5 -17h-12q-76 0 -110.5 15t-34.5 48q0 11 6 30q1 3 2 5l4 10l1 2q66 139 183 346l6 10q24 41 49 54.5t76 13.5h17q45 0 66.5 -13t21.5 -40q0 -1 -1 -5.5t-5 -21.5z" />
    <glyph glyph-name="quoteright" unicode="&#x2019;" horiz-adv-x="555" 
d="M141 958l4 11q25 87 64.5 207.5t44.5 148.5l2 13q7 39 41.5 56t112.5 17h12q77 0 111 -14.5t34 -46.5q0 -9 -2 -18.5t-6 -18.5l-4 -10q0 -1 -1 -3q-66 -141 -181 -346l-6 -10q-23 -40 -48 -53.5t-79 -13.5h-15q-44 0 -67 13t-23 38v4q2 10 6 26z" />
    <glyph glyph-name="divide" unicode="&#xf7;" horiz-adv-x="1706" 
d="M854 371q68 0 116 -48.5t48 -117.5q0 -68 -47.5 -116t-116.5 -48t-117.5 48t-48.5 116t49 117t117 49zM254 727h1198v-231h-1198v231zM854 1182q67 0 115.5 -49t48.5 -117t-48.5 -116t-117.5 -48t-116.5 48t-47.5 116t49 117t117 49z" />
    <glyph glyph-name="lozenge" unicode="&#x25ca;" horiz-adv-x="1012" 
d="M506 1409l-385 -817l385 -825l385 825zM506 1653l500 -1061l-500 -1069l-500 1069z" />
    <glyph glyph-name="ydieresis" unicode="&#xff;" horiz-adv-x="958" 
d="M258 449q-34 197 -86.5 491t-56.5 344v16q-2 23 -4 37q0 36 22.5 54t67.5 18q15 0 36.5 -2.5t44.5 -7.5l19 -2q96 -20 124.5 -40t31.5 -57v-12q2 -34 34 -356q5 -40 7 -62q55 153 103 269t79 174l6 10q26 48 55 68t72 20q20 0 42.5 -3t45.5 -9l12 -4q70 -18 99.5 -41.5
t29.5 -61.5q0 -13 -4 -29.5t-12 -35.5l-6 -13q-5 -12 -89 -183t-196 -394q-104 -209 -184 -365t-107 -202l-6 -13q-30 -54 -54 -72t-58 -18q-26 0 -57 4.5t-64 12.5l-15 4q-66 16 -92 32.5t-26 40.5q0 7 2 14.5t8 18.5l6 12q56 107 96.5 188.5t73.5 154.5zM930 1778
q52 0 83 -31t31 -82q0 -69 -44 -119.5t-103 -50.5q-52 0 -84.5 32t-32.5 83q0 65 45.5 116.5t104.5 51.5zM563 1778q52 0 83.5 -31t31.5 -82q0 -69 -44 -119.5t-104 -50.5q-52 0 -84.5 32t-32.5 83q0 65 45.5 116.5t104.5 51.5z" />
    <glyph glyph-name="Ydieresis" unicode="&#x178;" horiz-adv-x="958" 
d="M258 449q-34 197 -86.5 491t-56.5 344v16q-2 23 -4 37q0 36 22.5 54t67.5 18q15 0 36.5 -2.5t44.5 -7.5l19 -2q96 -20 124.5 -40t31.5 -57v-12q2 -34 34 -356q5 -40 7 -62q55 153 103 269t79 174l6 10q26 48 55 68t72 20q20 0 42.5 -3t45.5 -9l12 -4q70 -18 99.5 -41.5
t29.5 -61.5q0 -13 -4 -29.5t-12 -35.5l-6 -13q-5 -12 -89 -183t-196 -394q-104 -209 -184 -365t-107 -202l-6 -13q-30 -54 -54 -72t-58 -18q-26 0 -57 4.5t-64 12.5l-15 4q-66 16 -92 32.5t-26 40.5q0 7 2 14.5t8 18.5l6 12q56 107 96.5 188.5t73.5 154.5zM930 1778
q52 0 83 -31t31 -82q0 -69 -44 -119.5t-103 -50.5q-52 0 -84.5 32t-32.5 83q0 65 45.5 116.5t104.5 51.5zM563 1778q52 0 83.5 -31t31.5 -82q0 -69 -44 -119.5t-104 -50.5q-52 0 -84.5 32t-32.5 83q0 65 45.5 116.5t104.5 51.5z" />
    <glyph glyph-name="fraction" unicode="&#x2215;" horiz-adv-x="342" 
d="M451 1294q51 78 86.5 101.5t85.5 23.5q45 0 70.5 -18.5t25.5 -50.5q0 -12 -3.5 -23.5t-9.5 -20.5l-800 -1212q-52 -77 -87.5 -100t-84.5 -23q-47 0 -73 18t-26 50q1 12 4.5 22.5t9.5 19.5z" />
    <glyph glyph-name="currency" unicode="&#xa4;" horiz-adv-x="1241" 
d="M623 1145q-107 0 -184 -77t-77 -183q0 -108 76 -184t185 -76q107 0 183.5 76t76.5 184q0 106 -76.5 183t-183.5 77zM178 1444l203 -201q54 37 113.5 55.5t126.5 18.5q69 0 130 -18.5t113 -55.5l201 201l119 -117l-201 -205q35 -53 52.5 -112t17.5 -125t-17.5 -125.5
t-52.5 -112.5l201 -203l-119 -118l-201 202q-52 -37 -111.5 -55t-129.5 -18t-128.5 17.5t-113.5 55.5l-203 -202l-117 118l201 203q-36 54 -54 113t-18 125q0 67 18.5 126.5t53.5 110.5l-201 205z" />
    <glyph glyph-name="guilsinglleft" unicode="&#x2039;" horiz-adv-x="483" 
d="M324 860l10 -6q51 -27 66.5 -42t15.5 -32q0 -7 -2 -15t-4 -13l-136 -240l35 -233q0 -3 1 -8t1 -7q0 -28 -23 -44.5t-73 -24.5l-9 -3q-15 -2 -30.5 -4t-25.5 -2q-33 0 -48 12.5t-20 43.5l-33 239q-1 9 -3.5 24t-2.5 21q0 27 19 65q1 2 1 3l142 256q9 16 21 24.5t24 8.5
q15 0 34 -6t40 -17z" />
    <glyph glyph-name="guilsinglright" unicode="&#x203a;" horiz-adv-x="483" 
d="M334 829l33 -241q2 -13 3 -23t1 -20q0 -20 -4.5 -37t-14.5 -33l-141 -254q-9 -15 -20.5 -25t-20.5 -10q-15 0 -32.5 5.5t-45.5 19.5l-10 6q-55 29 -68.5 42.5t-13.5 29.5q0 8 1.5 16t4.5 14l135 240l-35 234q0 3 -1 8t-1 6q0 28 23.5 44.5t73.5 25.5l8 2q13 2 26 3t29 1
q34 0 49.5 -12t20.5 -42z" />
    <glyph glyph-name="fi" unicode="&#xf001;" horiz-adv-x="1655" 
d="M49 96l4 24q3 14 35 130.5t55 222.5l-34 2q-23 2 -35.5 12.5t-12.5 26.5q0 23 19 96q2 10 4 17l2 14q3 11 8 31q35 141 96 141l37 2l54 229l-93 -4h-4q-16 0 -27.5 11.5t-11.5 27.5q0 20 20 105q6 25 9 39l2 8q21 84 45 115t71 34h23q3 0 22 1q151 5 318 5q77 0 259 -3
q21 0 32 -1l19 -2q33 -1 47 -12t14 -37q0 -23 -4 -51.5t-12 -56.5l-4 -15q-29 -110 -49 -136t-65 -28l-22 -2l-106 3.5t-213 3.5q-5 0 -48 -1.5t-81 -3.5l129 -61q28 -13 40.5 -26.5t12.5 -30.5q0 -6 -0.5 -10t-1.5 -7l-20 -82q66 1 125.5 1.5t107.5 0.5h25q37 0 52 -14
t15 -49q0 -13 -3.5 -38.5t-10.5 -61.5l-2 -17q-18 -94 -41.5 -129t-71.5 -37h-24q-28 -1 -53 -1.5t-48 -0.5h-24q-70 -2 -129 -2q-25 -123 -49.5 -225t-49.5 -182l-8 -25q-13 -42 -36 -60t-64 -18q-27 0 -49.5 2t-36.5 4l-14 2q-83 15 -114.5 38.5t-31.5 68.5q0 2 1 6t1 6z
M1000 152q15 75 48.5 221.5t74.5 314.5q67 267 103.5 395.5t72.5 233.5l6 18q16 46 34.5 62t55.5 16q28 0 51 -1t41 -3l15 -2q98 -13 130.5 -30t32.5 -48q0 -5 -1.5 -12.5t-4.5 -16.5l-4 -18q-21 -81 -62 -237q-181 -687 -231 -947l-4 -24q-12 -59 -36 -81t-72 -22
q-16 0 -39 3t-46 8l-8 2q-100 21 -131.5 46t-31.5 76q0 5 2 19q1 8 2 12z" />
    <glyph glyph-name="fl" unicode="&#xf002;" horiz-adv-x="1868" 
d="M49 96l4 24q3 14 35 130.5t55 222.5l-34 2q-23 2 -35.5 12.5t-12.5 26.5q0 23 19 96q2 10 4 17l2 14q3 11 8 31q35 141 96 141l37 2l54 229l-93 -4h-4q-16 0 -27.5 11.5t-11.5 27.5q0 20 20 105q6 25 9 39l2 8q21 84 45 115t71 34h23q3 0 22 1q151 5 318 5q77 0 259 -3
q21 0 32 -1l19 -2q33 -1 47 -12t14 -37q0 -23 -4 -51.5t-12 -56.5l-4 -15q-29 -110 -49 -136t-65 -28l-22 -2l-106 3.5t-213 3.5q-5 0 -48 -1.5t-81 -3.5l129 -61q28 -13 40.5 -26.5t12.5 -30.5q0 -6 -0.5 -10t-1.5 -7l-20 -82q66 1 125.5 1.5t107.5 0.5h25q37 0 52 -14
t15 -49q0 -13 -3.5 -38.5t-10.5 -61.5l-2 -17q-18 -94 -41.5 -129t-71.5 -37h-24q-28 -1 -53 -1.5t-48 -0.5h-24q-70 -2 -129 -2q-25 -123 -49.5 -225t-49.5 -182l-8 -25q-13 -42 -36 -60t-64 -18q-27 0 -49.5 2t-36.5 4l-14 2q-83 15 -114.5 38.5t-31.5 68.5q0 2 1 6t1 6z
M1395 344h334q32 0 47.5 -10.5t15.5 -32.5q0 -16 -6.5 -45.5t-21.5 -77.5l-2 -8q-37 -121 -61.5 -144.5t-84.5 -25.5h-375q-31 0 -49.5 10t-38.5 35q-72 87 -105.5 145t-33.5 97q0 9 4.5 28t5.5 27l4 25q61 291 127.5 553.5t116.5 416.5l8 19q11 35 27.5 46t50.5 11
q14 0 40.5 -2.5t57.5 -7.5l15 -2q110 -18 141 -33.5t31 -44.5q0 -4 -2 -13q-2 -7 -2 -10l-6 -22q-15 -56 -50 -185q-119 -448 -188 -749z" />
    <glyph glyph-name="daggerdbl" unicode="&#x2021;" 
d="M252 309h-195q-44 0 -66 18t-22 54q0 7 1.5 18t4.5 26l5 13q17 85 42 113.5t78 28.5h217q11 44 35 136.5t33 127.5h-197q-42 0 -64 18.5t-22 55.5q0 10 1.5 20.5t5.5 22.5l2 12l2 8q35 133 120 133h222l21 84q27 106 32 117l6 16q19 57 41 69.5t80 12.5h18h21
q68 -1 107.5 -21t39.5 -53q0 -11 -1 -17.5t-3 -12.5l-4 -13q-1 -4 -4 -15q-24 -89 -43 -167h240q26 0 39.5 -13t13.5 -40q0 -16 -10 -79v-5l-2 -10q-14 -73 -34.5 -97t-62.5 -24h-252q-17 -68 -33 -134t-30 -132h239q27 0 40.5 -14t13.5 -40q0 -9 -3 -30.5t-9 -60.5l-3 -9
q-9 -63 -31 -89t-65 -26h-252q-16 -75 -29 -134.5t-18 -78.5l-4 -26q-12 -58 -35.5 -80.5t-66.5 -22.5q-11 0 -27 2t-35 6l-18 5q-69 13 -95 35t-26 65q0 10 0.5 20t1.5 21l2 18q2 17 11 58t26 110z" />
    <glyph glyph-name="periodcentered" unicode="&#xb7;" horiz-adv-x="555" 
d="M109 723q0 71 51 121.5t123 50.5t123 -50t51 -122t-51 -123t-123 -51t-123 51.5t-51 122.5z" />
    <glyph glyph-name="quotesinglbase" unicode="&#x201a;" horiz-adv-x="555" 
d="M-80 -133l4 12q25 89 63.5 208t43.5 147l2 12q7 40 42.5 58t110.5 18h15q75 0 110 -15.5t35 -48.5q0 -7 -2 -16t-6 -19l-4 -12l-1 -2q-66 -136 -183 -344l-7 -12q-23 -41 -48 -54.5t-77 -13.5h-16q-44 0 -66 13.5t-22 41.5q0 1 1 5.5t5 21.5z" />
    <glyph glyph-name="quotedblbase" unicode="&#x201e;" horiz-adv-x="991" 
d="M356 -133l2 12q25 88 64.5 207t44.5 147l2 12q7 41 42.5 59t111.5 18h14q75 0 109 -15.5t34 -48.5q0 -12 -1.5 -20t-4.5 -15l-6 -12l-1 -2q-65 -139 -181 -344l-6 -12q-24 -41 -49.5 -54.5t-77.5 -13.5h-15q-44 0 -67 13t-23 38v6q4 8 8 25zM-80 -133l4 12
q25 89 63.5 208t43.5 147l2 12q7 40 42.5 58t110.5 18h15q75 0 110 -15.5t35 -48.5q0 -7 -2 -16t-6 -19l-4 -12l-1 -2q-66 -136 -183 -344l-7 -12q-23 -41 -48 -54.5t-77 -13.5h-16q-44 0 -66 13.5t-22 41.5q0 1 1 5.5t5 21.5z" />
    <glyph glyph-name="perthousand" unicode="&#x2030;" horiz-adv-x="2318" 
d="M147 940q0 192 107.5 332.5t251.5 140.5q109 0 170 -71.5t61 -198.5q0 -204 -102.5 -338.5t-255.5 -134.5q-110 0 -171 71t-61 199zM481 1233q-44 0 -86.5 -103t-42.5 -217q0 -32 13 -48.5t38 -16.5q47 0 89.5 100t42.5 209q0 35 -14.5 55.5t-39.5 20.5zM850 244
q0 191 107 331t251 140q110 0 171 -71t61 -198q0 -204 -102 -339.5t-255 -135.5q-109 0 -171 72t-62 201zM1186 535q-45 0 -88 -102.5t-43 -215.5q0 -33 13 -50t38 -17q46 0 88.5 100t42.5 209q0 35 -13.5 55.5t-37.5 20.5zM1513 244q0 191 107 331t252 140q109 0 170 -71
t61 -198q0 -204 -101.5 -339.5t-254.5 -135.5q-110 0 -172 72t-62 201zM1849 535q-44 0 -87.5 -102.5t-43.5 -215.5q0 -33 13 -50t38 -17q47 0 89.5 100t42.5 209q0 35 -14 55.5t-38 20.5zM1264 1348l-703 -1278q-35 -64 -75.5 -97.5t-82.5 -33.5q-33 0 -55 17.5t-22 45.5
q0 12 3 24.5t9 22.5l704 1278q39 71 74.5 101t79.5 30q34 0 57 -18t23 -45q0 -13 -3 -25t-9 -22z" />
    <glyph glyph-name="Acircumflex" unicode="&#xc2;" horiz-adv-x="1063" 
d="M487 633h156q7 107 10.5 189.5t3.5 125.5v66v59q-50 -104 -92 -212.5t-78 -227.5zM29 319l-25 3q-14 1 -24.5 14.5t-10.5 32.5q0 7 4.5 27.5t18.5 78.5l2 14l1 4q39 162 118 162h61q83 205 164 378.5t141 279.5l13 20q30 51 53.5 66.5t60.5 15.5q15 0 37.5 -2t48.5 -6
l19 -2q113 -16 147 -40.5t41 -84.5l4 -25q18 -142 28.5 -376t10.5 -502q0 -138 -6 -247v-9l-2 -23q-6 -68 -36.5 -93t-113.5 -30l-16 -2h-27q-64 0 -95.5 22.5t-33.5 68.5v176v141v129l-65 -148q-10 -24 -26.5 -34.5t-47.5 -10.5h-98q-45 -112 -92 -231q-11 -26 -13 -31
l-8 -22q-14 -32 -33 -47t-47 -15q-21 0 -47 5t-51 14l-16 4q-71 24 -95 43.5t-24 48.5q0 7 0.5 13.5t3.5 19.5l4 14q6 23 25.5 73.5t46.5 112.5zM657 1792h203q23 0 35.5 -7t25.5 -26l6 -8q26 -35 50 -74t45 -78l4 -8q3 -5 5.5 -11.5t2.5 -8.5q0 -10 -3 -14.5t-16 -10.5
l-115 -45q-6 -2 -10 -3t-6 -1q-8 0 -17 8t-18 23l-4 6q-20 35 -46 67t-56 60q-50 -42 -105.5 -90t-60.5 -51l-7 -3q-2 -1 -7 -5q-18 -13 -27 -13q-5 0 -11 4l-3 2l-90 86l-3 3q-10 9 -10 16q0 4 4.5 10t12.5 12l8 6q18 12 61.5 50.5t79.5 76.5l6 7q11 10 22.5 15t27.5 5h16z
" />
    <glyph glyph-name="Ecircumflex" unicode="&#xca;" horiz-adv-x="1038" 
d="M137 494h-27q-20 1 -29 13t-9 38q0 17 2.5 41.5t7.5 54.5l2 12q19 98 38 124.5t59 27.5l42 2l62 248q-15 0 -35 -1t-25 -1q-25 0 -38 7t-13 21q0 19 18 85q8 32 13 51l2 12l3 12q34 133 87 137l27 2q1 0 12 1q123 5 272 5q88 0 176 -1.5t189 -6.5h23q28 -1 44.5 -12
t16.5 -29q0 -20 -5.5 -53.5t-15.5 -71.5l-4 -16q-1 -5 -4 -15q-34 -134 -96 -134h-19h-18h-12q-142 8 -322 8q-3 0 -19 -1q-61 -1 -116 -1l127 -56q18 -8 32.5 -25.5t14.5 -29.5q0 -5 -3 -16q-1 -3 -1 -4l-21 -109q28 1 53 1.5t48 0.5q97 0 181 -4h9l27 -2q27 -2 39 -13
t12 -34q0 -19 -4 -46.5t-12 -58.5l-2 -10q-24 -97 -46.5 -126t-78.5 -29h-10h-25q-18 0 -52 1q-84 3 -112 3q-23 0 -60 -1t-53 -1l-36 -158q5 0 70.5 1t125.5 1q39 0 65.5 -0.5t53.5 -1.5l20 -2q47 -2 63.5 -17t16.5 -55q0 -20 -2.5 -42t-7.5 -46l-4 -18q-16 -85 -43 -120.5
t-78 -35.5h-440q-67 0 -98.5 19t-61.5 65l-8 12q-25 38 -34 64.5t-9 54.5q0 11 1.5 23.5t6.5 37.5zM604 1792h203q23 0 35.5 -7t25.5 -26l6 -8q26 -35 50 -74t45 -78l4 -8q3 -5 5.5 -11.5t2.5 -8.5q0 -10 -3 -14.5t-16 -10.5l-115 -45q-6 -2 -10 -3t-6 -1q-8 0 -17 8t-18 23
l-4 6q-20 35 -46 67t-56 60q-50 -42 -105.5 -90t-60.5 -51l-7 -3q-2 -1 -7 -5q-18 -13 -27 -13q-5 0 -11 4l-3 2l-90 86l-3 3q-10 9 -10 16q0 4 4.5 10t12.5 12l8 6q18 12 61.5 50.5t79.5 76.5l6 7q11 10 22.5 15t27.5 5h16z" />
    <glyph glyph-name="Aacute" unicode="&#xc1;" horiz-adv-x="1063" 
d="M487 633h156q7 107 10.5 189.5t3.5 125.5v66v59q-50 -104 -92 -212.5t-78 -227.5zM29 319l-25 3q-14 1 -24.5 14.5t-10.5 32.5q0 7 4.5 27.5t18.5 78.5l2 14l1 4q39 162 118 162h61q83 205 164 378.5t141 279.5l13 20q30 51 53.5 66.5t60.5 15.5q15 0 37.5 -2t48.5 -6
l19 -2q113 -16 147 -40.5t41 -84.5l4 -25q18 -142 28.5 -376t10.5 -502q0 -138 -6 -247v-9l-2 -23q-6 -68 -36.5 -93t-113.5 -30l-16 -2h-27q-64 0 -95.5 22.5t-33.5 68.5v176v141v129l-65 -148q-10 -24 -26.5 -34.5t-47.5 -10.5h-98q-45 -112 -92 -231q-11 -26 -13 -31
l-8 -22q-14 -32 -33 -47t-47 -15q-21 0 -47 5t-51 14l-16 4q-71 24 -95 43.5t-24 48.5q0 7 0.5 13.5t3.5 19.5l4 14q6 23 25.5 73.5t46.5 112.5zM751 1790h203q25 0 31 -5t6 -18q0 -5 -1.5 -8.5t-4.5 -7.5l-9 -8q-37 -43 -100.5 -102t-132.5 -113l-10 -6q-23 -19 -40 -26
t-38 -7h-115q-9 0 -13.5 3.5t-4.5 10.5q0 6 2.5 12t7.5 11l6 8q26 28 74.5 99.5t67.5 109.5l4 9q9 18 26.5 28t40.5 10z" />
    <glyph glyph-name="Edieresis" unicode="&#xcb;" horiz-adv-x="1038" 
d="M137 494h-27q-20 1 -29 13t-9 38q0 17 2.5 41.5t7.5 54.5l2 12q19 98 38 124.5t59 27.5l42 2l62 248q-15 0 -35 -1t-25 -1q-25 0 -38 7t-13 21q0 19 18 85q8 32 13 51l2 12l3 12q34 133 87 137l27 2q1 0 12 1q123 5 272 5q88 0 176 -1.5t189 -6.5h23q28 -1 44.5 -12
t16.5 -29q0 -20 -5.5 -53.5t-15.5 -71.5l-4 -16q-1 -5 -4 -15q-34 -134 -96 -134h-19h-18h-12q-142 8 -322 8q-3 0 -19 -1q-61 -1 -116 -1l127 -56q18 -8 32.5 -25.5t14.5 -29.5q0 -5 -3 -16q-1 -3 -1 -4l-21 -109q28 1 53 1.5t48 0.5q97 0 181 -4h9l27 -2q27 -2 39 -13
t12 -34q0 -19 -4 -46.5t-12 -58.5l-2 -10q-24 -97 -46.5 -126t-78.5 -29h-10h-25q-18 0 -52 1q-84 3 -112 3q-23 0 -60 -1t-53 -1l-36 -158q5 0 70.5 1t125.5 1q39 0 65.5 -0.5t53.5 -1.5l20 -2q47 -2 63.5 -17t16.5 -55q0 -20 -2.5 -42t-7.5 -46l-4 -18q-16 -85 -43 -120.5
t-78 -35.5h-440q-67 0 -98.5 19t-61.5 65l-8 12q-25 38 -34 64.5t-9 54.5q0 11 1.5 23.5t6.5 37.5zM885 1778q52 0 83 -31t31 -82q0 -69 -44 -119.5t-103 -50.5q-52 0 -84.5 32t-32.5 83q0 65 45.5 116.5t104.5 51.5zM518 1778q52 0 83.5 -31t31.5 -82q0 -69 -44 -119.5
t-104 -50.5q-52 0 -84.5 32t-32.5 83q0 65 45.5 116.5t104.5 51.5z" />
    <glyph glyph-name="Egrave" unicode="&#xc8;" horiz-adv-x="1038" 
d="M137 494h-27q-20 1 -29 13t-9 38q0 17 2.5 41.5t7.5 54.5l2 12q19 98 38 124.5t59 27.5l42 2l62 248q-15 0 -35 -1t-25 -1q-25 0 -38 7t-13 21q0 19 18 85q8 32 13 51l2 12l3 12q34 133 87 137l27 2q1 0 12 1q123 5 272 5q88 0 176 -1.5t189 -6.5h23q28 -1 44.5 -12
t16.5 -29q0 -20 -5.5 -53.5t-15.5 -71.5l-4 -16q-1 -5 -4 -15q-34 -134 -96 -134h-19h-18h-12q-142 8 -322 8q-3 0 -19 -1q-61 -1 -116 -1l127 -56q18 -8 32.5 -25.5t14.5 -29.5q0 -5 -3 -16q-1 -3 -1 -4l-21 -109q28 1 53 1.5t48 0.5q97 0 181 -4h9l27 -2q27 -2 39 -13
t12 -34q0 -19 -4 -46.5t-12 -58.5l-2 -10q-24 -97 -46.5 -126t-78.5 -29h-10h-25q-18 0 -52 1q-84 3 -112 3q-23 0 -60 -1t-53 -1l-36 -158q5 0 70.5 1t125.5 1q39 0 65.5 -0.5t53.5 -1.5l20 -2q47 -2 63.5 -17t16.5 -55q0 -20 -2.5 -42t-7.5 -46l-4 -18q-16 -85 -43 -120.5
t-78 -35.5h-440q-67 0 -98.5 19t-61.5 65l-8 12q-25 38 -34 64.5t-9 54.5q0 11 1.5 23.5t6.5 37.5zM428 1790h203q23 0 40.5 -10t26.5 -29l4 -8q19 -38 67 -109.5t75 -99.5l6 -8q4 -5 7 -11.5t3 -11.5q0 -7 -4.5 -10.5t-13.5 -3.5h-115q-21 0 -38 7t-40 26l-10 6
q-69 54 -133 113t-101 102l-8 8q-4 4 -6 9t-2 9q0 12 6.5 16.5t32.5 4.5z" />
    <glyph glyph-name="Iacute" unicode="&#xcd;" horiz-adv-x="688" 
d="M33 152q15 75 48.5 221.5t74.5 314.5q67 267 103.5 395.5t72.5 233.5l6 18q16 46 34.5 62t55.5 16q28 0 51 -1t41 -3l15 -2q98 -13 130.5 -30t32.5 -48q0 -5 -1.5 -12.5t-4.5 -16.5l-4 -18q-21 -81 -62 -237q-181 -687 -231 -947l-4 -24q-12 -59 -36 -81t-72 -22
q-16 0 -39 3t-46 8l-8 2q-100 21 -131.5 46t-31.5 76q0 5 2 19q1 8 2 12zM608 1790h203q25 0 31 -5t6 -18q0 -5 -1.5 -8.5t-4.5 -7.5l-9 -8q-37 -43 -100.5 -102t-132.5 -113l-10 -6q-23 -19 -40 -26t-38 -7h-115q-9 0 -13.5 3.5t-4.5 10.5q0 6 2.5 12t7.5 11l6 8
q26 28 74.5 99.5t67.5 109.5l4 9q9 18 26.5 28t40.5 10z" />
    <glyph glyph-name="Icircumflex" unicode="&#xce;" horiz-adv-x="688" 
d="M33 152q15 75 48.5 221.5t74.5 314.5q67 267 103.5 395.5t72.5 233.5l6 18q16 46 34.5 62t55.5 16q28 0 51 -1t41 -3l15 -2q98 -13 130.5 -30t32.5 -48q0 -5 -1.5 -12.5t-4.5 -16.5l-4 -18q-21 -81 -62 -237q-181 -687 -231 -947l-4 -24q-12 -59 -36 -81t-72 -22
q-16 0 -39 3t-46 8l-8 2q-100 21 -131.5 46t-31.5 76q0 5 2 19q1 8 2 12zM514 1792h203q23 0 35.5 -7t25.5 -26l6 -8q26 -35 50 -74t45 -78l4 -8q3 -5 5.5 -11.5t2.5 -8.5q0 -10 -3 -14.5t-16 -10.5l-115 -45q-6 -2 -10 -3t-6 -1q-8 0 -17 8t-18 23l-4 6q-20 35 -46 67
t-56 60q-50 -42 -105.5 -90t-60.5 -51l-7 -3q-2 -1 -7 -5q-18 -13 -27 -13q-5 0 -11 4l-3 2l-90 86l-3 3q-10 9 -10 16q0 4 4.5 10t12.5 12l8 6q18 12 61.5 50.5t79.5 76.5l6 7q11 10 22.5 15t27.5 5h16z" />
    <glyph glyph-name="Idieresis" unicode="&#xcf;" horiz-adv-x="688" 
d="M33 152q15 75 48.5 221.5t74.5 314.5q67 267 103.5 395.5t72.5 233.5l6 18q16 46 34.5 62t55.5 16q28 0 51 -1t41 -3l15 -2q98 -13 130.5 -30t32.5 -48q0 -5 -1.5 -12.5t-4.5 -16.5l-4 -18q-21 -81 -62 -237q-181 -687 -231 -947l-4 -24q-12 -59 -36 -81t-72 -22
q-16 0 -39 3t-46 8l-8 2q-100 21 -131.5 46t-31.5 76q0 5 2 19q1 8 2 12zM795 1778q52 0 83 -31t31 -82q0 -69 -44 -119.5t-103 -50.5q-52 0 -84.5 32t-32.5 83q0 65 45.5 116.5t104.5 51.5zM428 1778q52 0 83.5 -31t31.5 -82q0 -69 -44 -119.5t-104 -50.5q-52 0 -84.5 32
t-32.5 83q0 65 45.5 116.5t104.5 51.5z" />
    <glyph glyph-name="Igrave" unicode="&#xcc;" horiz-adv-x="688" 
d="M33 152q15 75 48.5 221.5t74.5 314.5q67 267 103.5 395.5t72.5 233.5l6 18q16 46 34.5 62t55.5 16q28 0 51 -1t41 -3l15 -2q98 -13 130.5 -30t32.5 -48q0 -5 -1.5 -12.5t-4.5 -16.5l-4 -18q-21 -81 -62 -237q-181 -687 -231 -947l-4 -24q-12 -59 -36 -81t-72 -22
q-16 0 -39 3t-46 8l-8 2q-100 21 -131.5 46t-31.5 76q0 5 2 19q1 8 2 12zM338 1790h203q23 0 40.5 -10t26.5 -29l4 -8q19 -38 67 -109.5t75 -99.5l6 -8q4 -5 7 -11.5t3 -11.5q0 -7 -4.5 -10.5t-13.5 -3.5h-115q-21 0 -38 7t-40 26l-10 6q-69 54 -133 113t-101 102l-8 8
q-4 4 -6 9t-2 9q0 12 6.5 16.5t32.5 4.5z" />
    <glyph glyph-name="Oacute" unicode="&#xd3;" horiz-adv-x="1128" 
d="M700 1149l-16 -61q-9 -34 -47 -61q-6 -4 -10 -7q-113 -84 -176.5 -225t-63.5 -308q0 -82 24.5 -130t65.5 -48q91 0 173.5 189t82.5 450q0 61 -8 110.5t-25 90.5zM717 1245l151 119q24 19 37 25t25 6q64 0 109.5 -121t45.5 -309q0 -179 -38 -341t-111 -296
q-93 -170 -219.5 -263.5t-263.5 -93.5q-183 0 -294.5 147.5t-111.5 391.5q0 163 52.5 326.5t146.5 293.5q92 130 206.5 206.5t211.5 76.5q34 0 53.5 -15.5t19.5 -43.5q0 -5 -0.5 -8.5t-1.5 -6.5zM827 1790h203q25 0 31 -5t6 -18q0 -5 -1.5 -8.5t-4.5 -7.5l-9 -8
q-37 -43 -100.5 -102t-132.5 -113l-10 -6q-23 -19 -40 -26t-38 -7h-115q-9 0 -13.5 3.5t-4.5 10.5q0 6 2.5 12t7.5 11l6 8q26 28 74.5 99.5t67.5 109.5l4 9q9 18 26.5 28t40.5 10z" />
    <glyph glyph-name="Ocircumflex" unicode="&#xd4;" horiz-adv-x="1128" 
d="M700 1149l-16 -61q-9 -34 -47 -61q-6 -4 -10 -7q-113 -84 -176.5 -225t-63.5 -308q0 -82 24.5 -130t65.5 -48q91 0 173.5 189t82.5 450q0 61 -8 110.5t-25 90.5zM717 1245l151 119q24 19 37 25t25 6q64 0 109.5 -121t45.5 -309q0 -179 -38 -341t-111 -296
q-93 -170 -219.5 -263.5t-263.5 -93.5q-183 0 -294.5 147.5t-111.5 391.5q0 163 52.5 326.5t146.5 293.5q92 130 206.5 206.5t211.5 76.5q34 0 53.5 -15.5t19.5 -43.5q0 -5 -0.5 -8.5t-1.5 -6.5zM733 1792h203q23 0 35.5 -7t25.5 -26l6 -8q26 -35 50 -74t45 -78l4 -8
q3 -5 5.5 -11.5t2.5 -8.5q0 -10 -3 -14.5t-16 -10.5l-115 -45q-6 -2 -10 -3t-6 -1q-8 0 -17 8t-18 23l-4 6q-20 35 -46 67t-56 60q-50 -42 -105.5 -90t-60.5 -51l-7 -3q-2 -1 -7 -5q-18 -13 -27 -13q-5 0 -11 4l-3 2l-90 86l-3 3q-10 9 -10 16q0 4 4.5 10t12.5 12l8 6
q18 12 61.5 50.5t79.5 76.5l6 7q11 10 22.5 15t27.5 5h16z" />
    <glyph glyph-name="apple" unicode="&#xf000;" horiz-adv-x="1618" 
d="M836 1216q-1 6 -1.5 14t-0.5 23q0 124 95 229.5t236 131.5q1 -10 1.5 -23t0.5 -39q0 -131 -103.5 -234.5t-203.5 -103.5h-8q-3 0 -7.5 1t-8.5 1zM1505 403q-114 -247 -205 -342.5t-204 -95.5q-50 0 -131.5 33t-122.5 33q-45 0 -131 -33t-127 -33q-64 0 -128.5 44
t-129.5 132q-102 140 -157.5 295.5t-55.5 300.5q0 219 125 356.5t323 137.5q68 0 155 -34t124 -34q34 0 121.5 35t152.5 35q110 0 198 -40t161 -124q-102 -65 -151.5 -145.5t-49.5 -182.5q0 -113 60 -200t173 -138z" />
    <glyph glyph-name="Ograve" unicode="&#xd2;" horiz-adv-x="1128" 
d="M700 1149l-16 -61q-9 -34 -47 -61q-6 -4 -10 -7q-113 -84 -176.5 -225t-63.5 -308q0 -82 24.5 -130t65.5 -48q91 0 173.5 189t82.5 450q0 61 -8 110.5t-25 90.5zM717 1245l151 119q24 19 37 25t25 6q64 0 109.5 -121t45.5 -309q0 -179 -38 -341t-111 -296
q-93 -170 -219.5 -263.5t-263.5 -93.5q-183 0 -294.5 147.5t-111.5 391.5q0 163 52.5 326.5t146.5 293.5q92 130 206.5 206.5t211.5 76.5q34 0 53.5 -15.5t19.5 -43.5q0 -5 -0.5 -8.5t-1.5 -6.5zM557 1790h203q23 0 40.5 -10t26.5 -29l4 -8q19 -38 67 -109.5t75 -99.5l6 -8
q4 -5 7 -11.5t3 -11.5q0 -7 -4.5 -10.5t-13.5 -3.5h-115q-21 0 -38 7t-40 26l-10 6q-69 54 -133 113t-101 102l-8 8q-4 4 -6 9t-2 9q0 12 6.5 16.5t32.5 4.5z" />
    <glyph glyph-name="Uacute" unicode="&#xda;" horiz-adv-x="1165" 
d="M264 1313l4 18q14 48 37 63t92 15q22 0 32 -0.5t18 -1.5l14 -2q88 -10 125 -27.5t37 -50.5q0 -1 -2 -11t-5 -22l-4 -16q-41 -177 -126 -486.5t-85 -392.5q0 -36 23 -59t59 -23q101 0 239 518q76 287 130 468l4 14q16 53 42 75.5t73 22.5q13 0 33 -2t40 -6l11 -2
q89 -16 118 -34.5t29 -53.5q0 -11 -2 -23.5t-6 -25.5l-6 -19q-33 -119 -90 -339q-102 -389 -156 -537q-76 -208 -185 -304t-268 -96q-180 0 -306 114t-126 278q0 114 55.5 372t151.5 576zM805 1790h203q25 0 31 -5t6 -18q0 -5 -1.5 -8.5t-4.5 -7.5l-9 -8
q-37 -43 -100.5 -102t-132.5 -113l-10 -6q-23 -19 -40 -26t-38 -7h-115q-9 0 -13.5 3.5t-4.5 10.5q0 6 2.5 12t7.5 11l6 8q26 28 74.5 99.5t67.5 109.5l4 9q9 18 26.5 28t40.5 10z" />
    <glyph glyph-name="Ucircumflex" unicode="&#xdb;" horiz-adv-x="1165" 
d="M264 1313l4 18q14 48 37 63t92 15q22 0 32 -0.5t18 -1.5l14 -2q88 -10 125 -27.5t37 -50.5q0 -1 -2 -11t-5 -22l-4 -16q-41 -177 -126 -486.5t-85 -392.5q0 -36 23 -59t59 -23q101 0 239 518q76 287 130 468l4 14q16 53 42 75.5t73 22.5q13 0 33 -2t40 -6l11 -2
q89 -16 118 -34.5t29 -53.5q0 -11 -2 -23.5t-6 -25.5l-6 -19q-33 -119 -90 -339q-102 -389 -156 -537q-76 -208 -185 -304t-268 -96q-180 0 -306 114t-126 278q0 114 55.5 372t151.5 576zM711 1792h203q23 0 35.5 -7t25.5 -26l6 -8q26 -35 50 -74t45 -78l4 -8
q3 -5 5.5 -11.5t2.5 -8.5q0 -10 -3 -14.5t-16 -10.5l-115 -45q-6 -2 -10 -3t-6 -1q-8 0 -17 8t-18 23l-4 6q-20 35 -46 67t-56 60q-50 -42 -105.5 -90t-60.5 -51l-7 -3q-2 -1 -7 -5q-18 -13 -27 -13q-5 0 -11 4l-3 2l-90 86l-3 3q-10 9 -10 16q0 4 4.5 10t12.5 12l8 6
q18 12 61.5 50.5t79.5 76.5l6 7q11 10 22.5 15t27.5 5h16z" />
    <glyph glyph-name="Ugrave" unicode="&#xd9;" horiz-adv-x="1165" 
d="M264 1313l4 18q14 48 37 63t92 15q22 0 32 -0.5t18 -1.5l14 -2q88 -10 125 -27.5t37 -50.5q0 -1 -2 -11t-5 -22l-4 -16q-41 -177 -126 -486.5t-85 -392.5q0 -36 23 -59t59 -23q101 0 239 518q76 287 130 468l4 14q16 53 42 75.5t73 22.5q13 0 33 -2t40 -6l11 -2
q89 -16 118 -34.5t29 -53.5q0 -11 -2 -23.5t-6 -25.5l-6 -19q-33 -119 -90 -339q-102 -389 -156 -537q-76 -208 -185 -304t-268 -96q-180 0 -306 114t-126 278q0 114 55.5 372t151.5 576zM535 1790h203q23 0 40.5 -10t26.5 -29l4 -8q19 -38 67 -109.5t75 -99.5l6 -8
q4 -5 7 -11.5t3 -11.5q0 -7 -4.5 -10.5t-13.5 -3.5h-115q-21 0 -38 7t-40 26l-10 6q-69 54 -133 113t-101 102l-8 8q-4 4 -6 9t-2 9q0 12 6.5 16.5t32.5 4.5z" />
    <glyph glyph-name="dotlessi" unicode="&#x131;" horiz-adv-x="688" 
d="M33 152q15 75 48.5 221.5t74.5 314.5q67 267 103.5 395.5t72.5 233.5l6 18q16 46 34.5 62t55.5 16q28 0 51 -1t41 -3l15 -2q98 -13 130.5 -30t32.5 -48q0 -5 -1.5 -12.5t-4.5 -16.5l-4 -18q-21 -81 -62 -237q-181 -687 -231 -947l-4 -24q-12 -59 -36 -81t-72 -22
q-16 0 -39 3t-46 8l-8 2q-100 21 -131.5 46t-31.5 76q0 5 2 19q1 8 2 12z" />
    <glyph glyph-name="circumflex" unicode="&#x2c6;" 
d="M682 1792h203q23 0 35.5 -7t25.5 -26l6 -8q26 -35 50 -74t45 -78l4 -8q3 -5 5.5 -11.5t2.5 -8.5q0 -10 -3 -14.5t-16 -10.5l-115 -45q-6 -2 -10 -3t-6 -1q-8 0 -17 8t-18 23l-4 6q-20 35 -46 67t-56 60q-50 -42 -105.5 -90t-60.5 -51l-7 -3q-2 -1 -7 -5q-18 -13 -27 -13
q-5 0 -11 4l-3 2l-90 86l-3 3q-10 9 -10 16q0 4 4.5 10t12.5 12l8 6q18 12 61.5 50.5t79.5 76.5l6 7q11 10 22.5 15t27.5 5h16z" />
    <glyph glyph-name="tilde" unicode="&#x2dc;" 
d="M995 1767h113q10 0 14 -4t4 -16q0 -92 -72 -163t-167 -71q-27 0 -57 6.5t-58 18.5l-33 12q-1 1 -2 1q-54 22 -80 22q-41 0 -64.5 -30t-37.5 -30h-113q-10 1 -14 5.5t-4 15.5q0 94 73 163.5t173 69.5q28 0 55.5 -5.5t52.5 -16.5l33 -14q27 -11 46.5 -16t35.5 -5
q40 0 64 28.5t38 28.5z" />
    <glyph glyph-name="macron" unicode="&#xaf;" 
d="M518 1720h524q14 0 21.5 -5.5t7.5 -14.5q0 -8 -2 -19l-18 -106q-4 -18 -15 -27.5t-28 -9.5h-527q-14 0 -21 5t-7 16q0 6 2 16l18 106q3 18 15 28.5t30 10.5z" />
    <glyph glyph-name="breve" unicode="&#x2d8;" 
d="M989 1794h107q10 0 15 -5.5t5 -19.5q0 -108 -114.5 -195t-278.5 -87q-129 0 -205 66t-76 176q0 33 7 48t22 15h107q24 0 28 -27v-2q8 -47 43 -70.5t99 -23.5q110 0 172 62.5t69 62.5z" />
    <glyph glyph-name="dotaccent" unicode="&#x2d9;" 
d="M780 1780q56 0 88.5 -31.5t32.5 -83.5q0 -71 -45.5 -123.5t-107.5 -52.5q-57 0 -90 32t-33 85q0 68 47.5 121t107.5 53z" />
    <glyph glyph-name="ring" unicode="&#x2da;" 
d="M778 1792q-37 0 -62.5 -25.5t-25.5 -62.5q0 -35 25.5 -59.5t62.5 -24.5t61.5 24t24.5 60q0 38 -24.5 63t-61.5 25zM776 1935q94 0 162 -67t68 -160q0 -96 -67.5 -163.5t-162.5 -67.5q-94 0 -160.5 67.5t-66.5 163.5q0 94 66.5 160.5t160.5 66.5z" />
    <glyph glyph-name="cedilla" unicode="&#xb8;" 
d="M338 0h135l-33 -90q4 0 11.5 1t11.5 1q95 0 144.5 -39.5t49.5 -114.5q0 -98 -68 -153.5t-192 -55.5q-109 0 -200 22t-91 44q0 4 1.5 8l1.5 4l34 86l1 1q6 16 20 16q1 0 67.5 -20.5t128.5 -20.5q43 0 64.5 15t21.5 44q0 27 -26.5 41t-77.5 14h-47q-12 0 -17.5 4t-5.5 13
q0 1 1 4.5t4 12.5z" />
    <glyph glyph-name="hungarumlaut" unicode="&#x2dd;" 
d="M1004 1800h159q16 0 22.5 -5t6.5 -15q0 -2 -2 -6.5t-6 -9.5l-6 -11q-17 -27 -104 -134q-40 -49 -62 -77l-6 -6q-15 -18 -29.5 -26.5t-30.5 -8.5h-67q-7 0 -11 4t-4 11q0 4 2 10.5t5 12.5l1 5q20 41 55 139q17 45 25 68l4 10q9 22 19.5 30.5t28.5 8.5zM682 1800h160
q15 0 21.5 -4.5t6.5 -15.5q0 -5 -1.5 -9t-4.5 -8l-6 -10q-15 -24 -90 -116q-49 -59 -78 -95l-6 -6q-15 -18 -28.5 -26.5t-28.5 -8.5h-70q-7 0 -10.5 4t-3.5 11q0 5 1.5 10.5t4.5 11.5l2 6q20 41 55 139q16 45 25 68l4 10q8 22 19 30.5t28 8.5z" />
    <glyph glyph-name="ogonek" unicode="&#x2db;" 
d="M307 -4h135q-55 -47 -85.5 -91.5t-30.5 -78.5q0 -35 25 -55.5t69 -20.5q29 0 57 4h2l6 2h4q7 0 10 -3.5t3 -12.5v-4l-29 -136q-3 -15 -9.5 -21.5t-22.5 -8.5l-5 -2q-11 -1 -23.5 -1.5t-35.5 -0.5q-125 0 -189.5 46t-64.5 136q0 67 43.5 126t140.5 122z" />
    <glyph glyph-name="caron" unicode="&#x2c7;" 
d="M645 1763l2 -6q24 -39 51 -72t54 -57q47 40 103 89t63 53l3 3q3 2 10 7q17 12 25 12q3 0 8.5 -2.5t8.5 -5.5l90 -84q7 -7 8.5 -10.5t1.5 -8.5q0 -6 -4 -12.5t-10 -11.5l-8 -4q-21 -14 -64.5 -52t-79.5 -75l-6 -6q-13 -13 -23.5 -18t-23.5 -5q-3 0 -8.5 1t-7.5 1h-203
q-24 0 -37 7t-27 26l-4 6q-31 43 -56.5 83t-39.5 69l-4 8q-3 6 -4.5 11t-1.5 9q0 12 3 16.5t15 10.5l113 43q7 2 11 3t5 1q9 0 18.5 -7t18.5 -22z" />
    <glyph glyph-name="Lslash" unicode="&#x141;" horiz-adv-x="905" 
d="M434 344h350q33 0 48.5 -10.5t15.5 -32.5q0 -16 -7 -45.5t-22 -77.5l-2 -8q-37 -121 -62 -145t-84 -25h-374q-32 0 -50 10t-38 35q-74 88 -106.5 145.5t-32.5 96.5q0 20 13.5 82t39.5 153l-110 -63q-6 -4 -12 -6t-13 -2q-13 0 -18 5t-5 17q0 6 2 15.5t4 16.5l49 181
q13 45 28 65t48 37l97 54q43 170 81.5 310t53.5 185l6 19q11 34 28 45.5t52 11.5q13 0 40 -2.5t58 -7.5l14 -2q96 -15 127 -31t31 -45q0 -4 -2 -13q-1 -6 -2 -9l-6 -23q-17 -66 -35.5 -132t-38.5 -132l204 114q7 4 13.5 6.5t11.5 2.5q13 -1 18 -6.5t5 -18.5q0 -6 -1.5 -13
t-4.5 -17l-49 -181q-13 -46 -29 -66.5t-47 -37.5l-201 -107q-23 -83 -44 -169.5t-42 -178.5z" />
    <glyph glyph-name="lslash" unicode="&#x142;" horiz-adv-x="905" 
d="M434 344h350q33 0 48.5 -10.5t15.5 -32.5q0 -16 -7 -45.5t-22 -77.5l-2 -8q-37 -121 -62 -145t-84 -25h-374q-32 0 -50 10t-38 35q-74 88 -106.5 145.5t-32.5 96.5q0 20 13.5 82t39.5 153l-110 -63q-6 -4 -12 -6t-13 -2q-13 0 -18 5t-5 17q0 6 2 15.5t4 16.5l49 181
q13 45 28 65t48 37l97 54q43 170 81.5 310t53.5 185l6 19q11 34 28 45.5t52 11.5q13 0 40 -2.5t58 -7.5l14 -2q96 -15 127 -31t31 -45q0 -4 -2 -13q-1 -6 -2 -9l-6 -23q-17 -66 -35.5 -132t-38.5 -132l204 114q7 4 13.5 6.5t11.5 2.5q13 -1 18 -6.5t5 -18.5q0 -6 -1.5 -13
t-4.5 -17l-49 -181q-13 -46 -29 -66.5t-47 -37.5l-201 -107q-23 -83 -44 -169.5t-42 -178.5z" />
    <glyph glyph-name="Scaron" unicode="&#x160;" horiz-adv-x="909" 
d="M271 315q73 2 107 26t34 75q0 36 -21.5 86t-71.5 129q-10 16 -29 46q-126 199 -126 298q0 181 183 309.5t460 128.5q102 0 140 -27.5t38 -101.5q0 -23 -4 -56.5t-4 -39.5l-2 -12q-7 -98 -40 -139.5t-114 -47.5l-16 -2q-24 -1 -43.5 -1.5t-34.5 -0.5q-26 0 -39.5 8
t-13.5 23v6l10 55q-73 -3 -121.5 -30t-48.5 -60q0 -15 7.5 -33t25.5 -45q13 -19 37 -58q182 -277 182 -437q0 -206 -154.5 -323.5t-427.5 -117.5q-126 0 -184.5 35.5t-58.5 112.5q0 15 2 39t6 53l2 15l1 9q24 181 163 205l11 4q10 2 33 3.5t52 1.5q35 0 54.5 -12.5
t19.5 -35.5v-10zM588 1763l2 -6q24 -39 51 -72t54 -57q47 40 103 89t63 53l3 3q3 2 10 7q17 12 25 12q3 0 8.5 -2.5t8.5 -5.5l90 -84q7 -7 8.5 -10.5t1.5 -8.5q0 -6 -4 -12.5t-10 -11.5l-8 -4q-21 -14 -64.5 -52t-79.5 -75l-6 -6q-13 -13 -23.5 -18t-23.5 -5q-3 0 -8.5 1
t-7.5 1h-203q-24 0 -37 7t-27 26l-4 6q-31 43 -56.5 83t-39.5 69l-4 8q-3 6 -4.5 11t-1.5 9q0 12 3 16.5t15 10.5l113 43q7 2 11 3t5 1q9 0 18.5 -7t18.5 -22z" />
    <glyph glyph-name="scaron" unicode="&#x161;" horiz-adv-x="909" 
d="M271 315q73 2 107 26t34 75q0 36 -21.5 86t-71.5 129q-10 16 -29 46q-126 199 -126 298q0 181 183 309.5t460 128.5q102 0 140 -27.5t38 -101.5q0 -23 -4 -56.5t-4 -39.5l-2 -12q-7 -98 -40 -139.5t-114 -47.5l-16 -2q-24 -1 -43.5 -1.5t-34.5 -0.5q-26 0 -39.5 8
t-13.5 23v6l10 55q-73 -3 -121.5 -30t-48.5 -60q0 -15 7.5 -33t25.5 -45q13 -19 37 -58q182 -277 182 -437q0 -206 -154.5 -323.5t-427.5 -117.5q-126 0 -184.5 35.5t-58.5 112.5q0 15 2 39t6 53l2 15l1 9q24 181 163 205l11 4q10 2 33 3.5t52 1.5q35 0 54.5 -12.5
t19.5 -35.5v-10zM588 1763l2 -6q24 -39 51 -72t54 -57q47 40 103 89t63 53l3 3q3 2 10 7q17 12 25 12q3 0 8.5 -2.5t8.5 -5.5l90 -84q7 -7 8.5 -10.5t1.5 -8.5q0 -6 -4 -12.5t-10 -11.5l-8 -4q-21 -14 -64.5 -52t-79.5 -75l-6 -6q-13 -13 -23.5 -18t-23.5 -5q-3 0 -8.5 1
t-7.5 1h-203q-24 0 -37 7t-27 26l-4 6q-31 43 -56.5 83t-39.5 69l-4 8q-3 6 -4.5 11t-1.5 9q0 12 3 16.5t15 10.5l113 43q7 2 11 3t5 1q9 0 18.5 -7t18.5 -22z" />
    <glyph glyph-name="Zcaron" unicode="&#x17d;" horiz-adv-x="915" 
d="M547 1065h-299q-58 0 -78 14t-20 49q0 15 7.5 43t20.5 60l6 12q39 90 67.5 115.5t84.5 25.5h61h353q60 0 82.5 -21.5t64.5 -133.5l6 -15q13 -36 21 -75.5t8 -67.5q0 -16 -9 -37t-24 -39l-10 -12q-48 -62 -186.5 -249t-303.5 -412h256q50 0 70 -17.5t20 -56.5
q0 -15 -4 -38.5t-12 -49.5l-6 -17q-34 -110 -66 -133.5t-120 -23.5h-410q-67 0 -89.5 20t-47.5 86l-6 14q-15 41 -22 69.5t-7 47.5q0 29 37 82q7 10 10 14l6 9q186 259 324 448t215 289zM592 1763l2 -6q24 -39 51 -72t54 -57q47 40 103 89t63 53l3 3q3 2 10 7q17 12 25 12
q3 0 8.5 -2.5t8.5 -5.5l90 -84q7 -7 8.5 -10.5t1.5 -8.5q0 -6 -4 -12.5t-10 -11.5l-8 -4q-21 -14 -64.5 -52t-79.5 -75l-6 -6q-13 -13 -23.5 -18t-23.5 -5q-3 0 -8.5 1t-7.5 1h-203q-24 0 -37 7t-27 26l-4 6q-31 43 -56.5 83t-39.5 69l-4 8q-3 6 -4.5 11t-1.5 9q0 12 3 16.5
t15 10.5l113 43q7 2 11 3t5 1q9 0 18.5 -7t18.5 -22z" />
    <glyph glyph-name="zcaron" unicode="&#x17e;" horiz-adv-x="915" 
d="M547 1065h-299q-58 0 -78 14t-20 49q0 15 7.5 43t20.5 60l6 12q39 90 67.5 115.5t84.5 25.5h61h353q60 0 82.5 -21.5t64.5 -133.5l6 -15q13 -36 21 -75.5t8 -67.5q0 -16 -9 -37t-24 -39l-10 -12q-48 -62 -186.5 -249t-303.5 -412h256q50 0 70 -17.5t20 -56.5
q0 -15 -4 -38.5t-12 -49.5l-6 -17q-34 -110 -66 -133.5t-120 -23.5h-410q-67 0 -89.5 20t-47.5 86l-6 14q-15 41 -22 69.5t-7 47.5q0 29 37 82q7 10 10 14l6 9q186 259 324 448t215 289zM592 1763l2 -6q24 -39 51 -72t54 -57q47 40 103 89t63 53l3 3q3 2 10 7q17 12 25 12
q3 0 8.5 -2.5t8.5 -5.5l90 -84q7 -7 8.5 -10.5t1.5 -8.5q0 -6 -4 -12.5t-10 -11.5l-8 -4q-21 -14 -64.5 -52t-79.5 -75l-6 -6q-13 -13 -23.5 -18t-23.5 -5q-3 0 -8.5 1t-7.5 1h-203q-24 0 -37 7t-27 26l-4 6q-31 43 -56.5 83t-39.5 69l-4 8q-3 6 -4.5 11t-1.5 9q0 12 3 16.5
t15 10.5l113 43q7 2 11 3t5 1q9 0 18.5 -7t18.5 -22z" />
    <glyph glyph-name="brokenbar" unicode="&#xa6;" 
d="M393 408h240v-758h-240v758zM393 1432h240v-758h-240v758z" />
    <glyph glyph-name="Eth" unicode="&#xd0;" horiz-adv-x="1229" 
d="M469 547q-19 -52 -34 -107t-25 -114q168 16 285.5 155t117.5 316q0 140 -83.5 224.5t-221.5 84.5q-23 0 -50 -3.5t-62 -10.5q21 -9 61 -24q127 -47 127 -99q0 -4 -1 -10.5t-3 -17.5l-3 -14q-2 -12 -18 -63t-22 -88h77q30 0 41 -7.5t11 -27.5q0 -14 -4.5 -33t-12.5 -42
l-4 -11q-23 -65 -44 -86.5t-60 -21.5h-72zM70 309q4 25 29 125q18 69 28 111h-86q-29 0 -43 8.5t-14 26.5q0 31 24 93.5t43 80.5q12 11 30 16.5t46 5.5h61q12 46 30 103t52 159q-33 -11 -73 -27t-47 -16q-12 0 -19.5 10t-7.5 25q0 24 36 148l1 4l4 12l1 3q32 116 52 136
q33 33 120.5 55.5t194.5 22.5q288 0 456.5 -156t168.5 -419q0 -165 -73 -335t-197 -292q-114 -111 -266 -174.5t-304 -63.5q-68 0 -154 109q-2 2 -3 4l-11 15q-5 6 -15 19q-71 86 -71 134q1 10 4 31q2 9 3 14v12z" />
    <glyph glyph-name="eth" unicode="&#xf0;" horiz-adv-x="1229" 
d="M469 547q-19 -52 -34 -107t-25 -114q168 16 285.5 155t117.5 316q0 140 -83.5 224.5t-221.5 84.5q-23 0 -50 -3.5t-62 -10.5q21 -9 61 -24q127 -47 127 -99q0 -4 -1 -10.5t-3 -17.5l-3 -14q-2 -12 -18 -63t-22 -88h77q30 0 41 -7.5t11 -27.5q0 -14 -4.5 -33t-12.5 -42
l-4 -11q-23 -65 -44 -86.5t-60 -21.5h-72zM70 309q4 25 29 125q18 69 28 111h-86q-29 0 -43 8.5t-14 26.5q0 31 24 93.5t43 80.5q12 11 30 16.5t46 5.5h61q12 46 30 103t52 159q-33 -11 -73 -27t-47 -16q-12 0 -19.5 10t-7.5 25q0 24 36 148l1 4l4 12l1 3q32 116 52 136
q33 33 120.5 55.5t194.5 22.5q288 0 456.5 -156t168.5 -419q0 -165 -73 -335t-197 -292q-114 -111 -266 -174.5t-304 -63.5q-68 0 -154 109q-2 2 -3 4l-11 15q-5 6 -15 19q-71 86 -71 134q1 10 4 31q2 9 3 14v12z" />
    <glyph glyph-name="Yacute" unicode="&#xdd;" horiz-adv-x="958" 
d="M258 449q-34 197 -86.5 491t-56.5 344v16q-2 23 -4 37q0 36 22.5 54t67.5 18q15 0 36.5 -2.5t44.5 -7.5l19 -2q96 -20 124.5 -40t31.5 -57v-12q2 -34 34 -356q5 -40 7 -62q55 153 103 269t79 174l6 10q26 48 55 68t72 20q20 0 42.5 -3t45.5 -9l12 -4q70 -18 99.5 -41.5
t29.5 -61.5q0 -13 -4 -29.5t-12 -35.5l-6 -13q-5 -12 -89 -183t-196 -394q-104 -209 -184 -365t-107 -202l-6 -13q-30 -54 -54 -72t-58 -18q-26 0 -57 4.5t-64 12.5l-15 4q-66 16 -92 32.5t-26 40.5q0 7 2 14.5t8 18.5l6 12q56 107 96.5 188.5t73.5 154.5zM743 1790h203
q25 0 31 -5t6 -18q0 -5 -1.5 -8.5t-4.5 -7.5l-9 -8q-37 -43 -100.5 -102t-132.5 -113l-10 -6q-23 -19 -40 -26t-38 -7h-115q-9 0 -13.5 3.5t-4.5 10.5q0 6 2.5 12t7.5 11l6 8q26 28 74.5 99.5t67.5 109.5l4 9q9 18 26.5 28t40.5 10z" />
    <glyph glyph-name="yacute" unicode="&#xfd;" horiz-adv-x="958" 
d="M258 449q-34 197 -86.5 491t-56.5 344v16q-2 23 -4 37q0 36 22.5 54t67.5 18q15 0 36.5 -2.5t44.5 -7.5l19 -2q96 -20 124.5 -40t31.5 -57v-12q2 -34 34 -356q5 -40 7 -62q55 153 103 269t79 174l6 10q26 48 55 68t72 20q20 0 42.5 -3t45.5 -9l12 -4q70 -18 99.5 -41.5
t29.5 -61.5q0 -13 -4 -29.5t-12 -35.5l-6 -13q-5 -12 -89 -183t-196 -394q-104 -209 -184 -365t-107 -202l-6 -13q-30 -54 -54 -72t-58 -18q-26 0 -57 4.5t-64 12.5l-15 4q-66 16 -92 32.5t-26 40.5q0 7 2 14.5t8 18.5l6 12q56 107 96.5 188.5t73.5 154.5zM743 1790h203
q25 0 31 -5t6 -18q0 -5 -1.5 -8.5t-4.5 -7.5l-9 -8q-37 -43 -100.5 -102t-132.5 -113l-10 -6q-23 -19 -40 -26t-38 -7h-115q-9 0 -13.5 3.5t-4.5 10.5q0 6 2.5 12t7.5 11l6 8q26 28 74.5 99.5t67.5 109.5l4 9q9 18 26.5 28t40.5 10z" />
    <glyph glyph-name="Thorn" unicode="&#xde;" horiz-adv-x="1128" 
d="M59 109l4 16q5 32 55.5 231.5t124.5 476.5q-29 -11 -79 -34t-66 -23t-24 12t-8 37q0 146 68.5 238t191.5 106q15 69 27.5 118.5t19.5 68.5l8 22q5 16 28 27.5t52 11.5q18 0 40.5 -3.5t51.5 -10.5l16 -4q78 -20 105.5 -40t27.5 -52q0 -11 -1 -18t-3 -13l-22 -90
q190 -35 292.5 -147t102.5 -283q0 -106 -45.5 -210.5t-128.5 -191.5q-71 -72 -171 -119t-175 -47q-20 0 -31 10.5t-14 30.5l-23 140q-19 -87 -37 -164.5t-34 -141.5l-4 -12q-13 -48 -29 -64t-49 -16q-26 0 -54.5 3t-52.5 8l-12 2q-93 17 -124.5 37t-31.5 55q2 12 4 33z
M510 512q109 3 176.5 66.5t67.5 162.5q0 64 -39 99t-119 43z" />
    <glyph glyph-name="thorn" unicode="&#xfe;" horiz-adv-x="1128" 
d="M59 109l4 16q5 32 55.5 231.5t124.5 476.5q-29 -11 -79 -34t-66 -23t-24 12t-8 37q0 146 68.5 238t191.5 106q15 69 27.5 118.5t19.5 68.5l8 22q5 16 28 27.5t52 11.5q18 0 40.5 -3.5t51.5 -10.5l16 -4q78 -20 105.5 -40t27.5 -52q0 -11 -1 -18t-3 -13l-22 -90
q190 -35 292.5 -147t102.5 -283q0 -106 -45.5 -210.5t-128.5 -191.5q-71 -72 -171 -119t-175 -47q-20 0 -31 10.5t-14 30.5l-23 140q-19 -87 -37 -164.5t-34 -141.5l-4 -12q-13 -48 -29 -64t-49 -16q-26 0 -54.5 3t-52.5 8l-12 2q-93 17 -124.5 37t-31.5 55q2 12 4 33z
M510 512q109 3 176.5 66.5t67.5 162.5q0 64 -39 99t-119 43z" />
    <glyph glyph-name="minus" unicode="&#x2212;" horiz-adv-x="1706" 
d="M254 729h1198v-235h-1198v235z" />
    <glyph glyph-name="multiply" unicode="&#xd7;" horiz-adv-x="1706" 
d="M430 1214l440 -440l441 440l162 -161l-441 -443l441 -440l-162 -162l-441 441l-440 -441l-162 162l441 440l-441 443z" />
    <glyph glyph-name="onesuperior" unicode="&#xb9;" horiz-adv-x="498" 
d="M168 1108l-60 25q-21 8 -27.5 15t-6.5 17q0 8 4 15.5t20 23.5l5 3q5 6 55 58t94 103l6 6q13 13 26 18t31 5q14 0 27.5 -1t30.5 -3l10 -2q38 -5 63 -19.5t25 -32.5q0 -6 -0.5 -10t-1.5 -8l-2 -10q-14 -54 -50.5 -178.5t-54.5 -186.5q-29 -104 -60.5 -224.5t-37.5 -137.5
l-4 -9q-6 -21 -21 -30.5t-42 -9.5q-16 0 -27.5 0.5t-22.5 1.5h-10q-57 3 -81.5 14.5t-24.5 34.5q0 7 0.5 13t1.5 12l2 10q1 19 31.5 130.5t101.5 356.5z" />
    <glyph glyph-name="twosuperior" unicode="&#xb2;" horiz-adv-x="627" 
d="M287 733h178q34 0 41.5 -7t7.5 -26q0 -13 -2.5 -28t-7.5 -29l-4 -10q-20 -55 -37.5 -71.5t-61.5 -16.5h-284q-68 0 -101 55q-6 10 -10 17l-2 6q-11 19 -17.5 40t-6.5 35q0 13 29 34q5 4 9 7l7 6q145 116 249.5 247t104.5 175q0 19 -8.5 27t-26.5 8q-19 0 -38.5 -13
t-35.5 -38l-4 -8q-7 -11 -17 -15t-36 -4q-2 0 -18 1t-29 1h-8q-64 6 -80.5 14t-16.5 27v9v8q11 84 103 148.5t215 64.5q107 0 170 -52t63 -141q0 -101 -83.5 -222.5t-241.5 -248.5z" />
    <glyph glyph-name="threesuperior" unicode="&#xb3;" horiz-adv-x="659" 
d="M451 991q62 -23 92 -67.5t30 -112.5q0 -114 -95.5 -195t-231.5 -81q-120 0 -194.5 61.5t-74.5 159.5q0 52 21 74t68 22q2 0 9 -1t11 -1h8q49 -4 65.5 -14t16.5 -33v-2v-13q0 -30 15 -44.5t47 -14.5q42 0 74 29t32 69q0 32 -25 54t-75 34l-11 3q-11 2 -15.5 9t-4.5 21
q0 8 3.5 22.5t10.5 34.5l2 9q2 5 5 15q19 57 56 60l11 1q46 4 74 24.5t28 46.5q0 22 -15 35.5t-38 13.5q-21 0 -34 -5.5t-23 -18.5l-6 -8q-11 -12 -29.5 -17.5t-48.5 -5.5q-13 0 -20 0.5t-14 1.5h-13q-40 5 -61 17t-21 30q0 2 1 6t1 7l4 8q27 76 108 124t187 48
q115 0 185.5 -56.5t70.5 -146.5q0 -77 -51 -132.5t-135 -70.5z" />
    <glyph glyph-name="onequarter" unicode="&#xbc;" horiz-adv-x="1511" 
d="M1036 340h170q4 14 34 116.5t50 182.5q-50 -60 -135 -159.5t-119 -139.5zM1157 178l-176 -4h-37q-44 0 -98 71q-1 1 -2 3l-4 6q-16 18 -25.5 38t-9.5 32q0 4 3 11t11 19l6 6q104 137 187.5 242t124.5 152l4 6q13 17 26 24t31 7q9 0 26 -4t38 -11l8 -4q58 -18 74 -26
t16 -17q0 -5 -2 -9.5t-8 -12.5l-39 -50h104q45 0 60.5 -9t15.5 -32q0 -5 -1.5 -11.5t-4.5 -16.5l-2 -8q-1 -3 -8 -27q-29 -101 -60 -199h45q15 0 22 -5t7 -13q0 -5 -4 -24t-10 -42l-2 -8q-17 -54 -29.5 -69t-34.5 -15h-45q-6 -24 -16 -61q-14 -53 -17 -62l-4 -8
q-11 -42 -27 -52.5t-55 -10.5h-14h-11q-56 1 -79 12t-23 35q0 2 1 8l3 18l4 8q3 13 10 38.5t21 74.5zM926 1294q51 78 86.5 101.5t85.5 23.5q45 0 70.5 -18.5t25.5 -50.5q0 -12 -3.5 -23.5t-8.5 -19.5l-801 -1213q-52 -77 -87.5 -100t-84.5 -23q-46 0 -72 18t-26 50
q0 12 3.5 22.5t10.5 20.5zM160 1126l-56 23q-20 8 -26 14.5t-6 16.5q0 7 4.5 15t15.5 19l4 4q5 6 53.5 54.5t92.5 95.5l4 6q12 13 25 18t30 5q4 0 22 -1.5t31 -2.5l10 -2q38 -5 62.5 -19t24.5 -31q0 -5 -0.5 -8.5t-1.5 -6.5l-5 -11q-14 -57 -58 -204q-26 -87 -40 -136
q-29 -97 -59 -210t-35 -128l-2 -8q-8 -21 -22.5 -30t-39.5 -9q-3 0 -19 1t-28 1h-10q-55 3 -78.5 14t-23.5 33q0 6 0.5 11.5t1.5 11.5l2 10q3 23 38 147.5t89 306.5z" />
    <glyph glyph-name="onehalf" unicode="&#xbd;" horiz-adv-x="1415" 
d="M1092 170h170q31 0 38.5 -6.5t8.5 -24.5q0 -12 -3 -26.5t-7 -25.5l-5 -9q-18 -52 -34.5 -68t-59.5 -16h-272q-64 0 -95 52q-6 10 -10 16l-2 4q-10 16 -16 36.5t-6 34.5q0 11 27 33q5 4 7 6l7 4q138 108 238 230.5t100 164.5q0 17 -8 25t-25 8q-18 0 -35.5 -12.5
t-34.5 -36.5l-4 -6q-6 -9 -16 -12.5t-35 -3.5q-13 0 -23.5 0.5t-22.5 1.5h-8q-58 3 -75 10.5t-17 25.5v7l3 8q8 79 96 140t205 61q102 0 162.5 -49t60.5 -132q0 -95 -80 -209t-229 -231zM926 1294q51 78 86.5 101.5t85.5 23.5q45 0 70.5 -18.5t25.5 -50.5q0 -12 -3.5 -23.5
t-8.5 -19.5l-801 -1213q-52 -77 -87.5 -100t-84.5 -23q-46 0 -72 18t-26 50q0 12 3.5 22.5t10.5 20.5zM160 1126l-56 23q-20 8 -26 14.5t-6 16.5q0 7 4.5 15t15.5 19l4 4q5 6 53.5 54.5t92.5 95.5l4 6q12 13 25 18t30 5q4 0 22 -1.5t31 -2.5l10 -2q38 -5 62.5 -19t24.5 -31
q0 -5 -0.5 -8.5t-1.5 -6.5l-5 -11q-14 -57 -58 -204q-26 -87 -40 -136q-29 -97 -59 -210t-35 -128l-2 -8q-8 -21 -22.5 -30t-39.5 -9q-3 0 -19 1t-28 1h-10q-55 3 -78.5 14t-23.5 33q0 6 0.5 11.5t1.5 11.5l2 10q3 23 38 147.5t89 306.5z" />
    <glyph glyph-name="threequarters" unicode="&#xbe;" horiz-adv-x="1667" 
d="M1190 340h170q4 14 33.5 116.5t50.5 182.5q-50 -60 -135 -159.5t-119 -139.5zM1311 178l-176 -4h-37q-45 0 -99 72l-2 2l-4 6q-15 18 -25 38t-10 32q0 4 3.5 11t11.5 19l6 6q104 137 187 242t124 152l4 6q13 17 26.5 24t31.5 7q9 0 26 -4t37 -11l8 -4q59 -18 74.5 -26
t15.5 -17q0 -5 -2 -9.5t-8 -12.5l-39 -50h105q44 0 60 -9t16 -32q-1 -6 -2 -11.5t-5 -17.5l-2 -8q-1 -3 -7 -26q-30 -101 -60 -199h45q14 0 21 -4.5t7 -13.5q0 -5 -4 -24t-10 -42l-2 -8q-17 -54 -29.5 -69t-33.5 -15h-45q-7 -24 -17 -61q-13 -53 -16 -61l-4 -8
q-11 -43 -27 -53.5t-55 -10.5h-15h-10q-58 2 -80 12.5t-22 34.5q0 3 0.5 8t3.5 18l4 9q3 12 10 37.5t21 74.5zM1079 1294q51 78 87 101.5t85 23.5q46 0 71.5 -18.5t25.5 -50.5q0 -12 -3.5 -23.5t-9.5 -20.5l-800 -1212q-52 -77 -87.5 -100t-85.5 -23q-46 0 -72 18t-26 50
q0 11 3.5 21.5t10.5 20.5zM430 1016q58 -20 87.5 -61.5t29.5 -104.5q0 -107 -91 -182.5t-220 -75.5q-115 0 -187 57t-72 148q0 49 20 69.5t66 20.5h19h6q49 -6 65.5 -15.5t16.5 -29.5v-2v-13q0 -28 14 -41.5t43 -13.5q40 0 70.5 27.5t30.5 64.5q0 30 -23.5 49.5t-73.5 32.5
l-9 2q-10 3 -13.5 8.5t-3.5 20.5q0 11 3 24t9 29l2 8q3 8 7 20q16 48 50 50l11 2q43 4 70.5 23t27.5 43q0 20 -14 32.5t-37 12.5q-18 0 -30.5 -5t-24.5 -18l-5 -7q-9 -10 -26 -15t-47 -5h-35l-10 2q-39 4 -59.5 15t-20.5 29q0 2 1 5.5t1 6.5l4 6q27 72 104.5 117t178.5 45
q108 0 175.5 -53.5t67.5 -137.5q0 -70 -49 -122.5t-129 -67.5z" />
    <glyph glyph-name="franc" unicode="&#x20a3;" horiz-adv-x="2114" 
d="M49 96l4 24q3 14 35 130.5t55 222.5l-34 2q-23 2 -35.5 12.5t-12.5 26.5q0 23 19 96q2 10 4 17l2 14q3 11 8 31q35 141 96 141l37 2l54 229l-93 -4h-4q-16 0 -27.5 11.5t-11.5 27.5q0 20 20 105q6 25 9 39l2 8q21 84 45 115t71 34h23q3 0 22 1q151 5 318 5q77 0 259 -3
q21 0 32 -1l19 -2q33 -1 47 -12t14 -37q0 -23 -4 -51.5t-12 -56.5l-4 -15q-29 -110 -49 -136t-65 -28l-22 -2l-106 3.5t-213 3.5q-5 0 -48 -1.5t-81 -3.5l129 -61q28 -13 40.5 -26.5t12.5 -30.5q0 -6 -0.5 -10t-1.5 -7l-20 -82q66 1 125.5 1.5t107.5 0.5h25q37 0 52 -14
t15 -49q0 -13 -3.5 -38.5t-10.5 -61.5l-2 -17q-18 -94 -41.5 -129t-71.5 -37h-24q-28 -1 -53 -1.5t-48 -0.5h-24q-70 -2 -129 -2q-25 -123 -49.5 -225t-49.5 -182l-8 -25q-13 -42 -36 -60t-64 -18q-27 0 -49.5 2t-36.5 4l-14 2q-83 15 -114.5 38.5t-31.5 68.5q0 2 1 6t1 6z
M1002 101l4 24q33 168 87.5 388.5t135.5 510.5q-9 -3 -25 -8q-89 -27 -112 -27q-18 0 -28.5 15.5t-10.5 42.5q0 64 27.5 150.5t54.5 113.5q36 36 170 69t280 33q234 0 371 -115.5t137 -310.5q0 -156 -90 -285t-264 -221q36 -64 98.5 -170t137.5 -227l10 -14q8 -13 12 -26
t4 -24q0 -43 -88 -100q-15 -9 -22 -14l-13 -8q-30 -20 -64 -31.5t-59 -11.5q-18 0 -31 7.5t-24 24.5l-10 19q-42 67 -138.5 242.5t-142.5 254.5q-22 -90 -43.5 -206.5t-25.5 -135.5l-2 -14q-10 -43 -30 -59.5t-62 -16.5q-14 0 -37 3t-56 10l-14 2q-79 15 -110 34t-31 50
q0 6 0.5 11.5t3.5 19.5zM1497 727q112 13 184 77.5t72 147.5q0 59 -46 93t-128 34q-41 0 -101.5 -8.5t-141.5 -26.5l145 -47q34 -10 52 -28.5t18 -42.5q0 -5 -2.5 -17.5t-6.5 -25.5z" />
    <glyph glyph-name="Gbreve" unicode="&#x11e;" horiz-adv-x="1171" 
d="M610 469h-53q-26 0 -43.5 9t-17.5 22q0 14 3 33.5t15 66.5l4 14q24 99 46.5 130t76.5 34h21h3q39 2 91 2q128 0 240 -3q14 -1 16 -1l21 -2q39 -3 57 -18.5t18 -46.5q0 -13 -3.5 -34t-10.5 -48l-2 -9q-4 -13 -10 -37q-29 -112 -89 -112q-3 0 -9.5 1t-10.5 1
q-66 -241 -199 -372.5t-311 -131.5q-186 0 -298 136.5t-112 367.5q0 157 50 332.5t130 304.5q93 148 222.5 226.5t279.5 78.5q180 0 280.5 -94.5t100.5 -263.5q0 -71 -25.5 -99t-142.5 -51l-6 -2q-21 -4 -47.5 -6t-60.5 -2q-45 0 -67 12t-22 37q0 10 5.5 29.5t5.5 30.5
q0 35 -19.5 55t-52.5 20q-34 0 -71 -29t-70 -83q-60 -92 -103 -244.5t-43 -271.5q0 -67 20.5 -102.5t59.5 -35.5q42 0 80.5 44t52.5 112zM1063 1794h107q10 0 15 -5.5t5 -19.5q0 -108 -114.5 -195t-278.5 -87q-129 0 -205 66t-76 176q0 33 7 48t22 15h107q24 0 28 -27v-2
q8 -47 43 -70.5t99 -23.5q110 0 172 62.5t69 62.5z" />
    <glyph glyph-name="gbreve" unicode="&#x11f;" horiz-adv-x="1171" 
d="M610 469h-53q-26 0 -43.5 9t-17.5 22q0 14 3 33.5t15 66.5l4 14q24 99 46.5 130t76.5 34h21h3q39 2 91 2q128 0 240 -3q14 -1 16 -1l21 -2q39 -3 57 -18.5t18 -46.5q0 -13 -3.5 -34t-10.5 -48l-2 -9q-4 -13 -10 -37q-29 -112 -89 -112q-3 0 -9.5 1t-10.5 1
q-66 -241 -199 -372.5t-311 -131.5q-186 0 -298 136.5t-112 367.5q0 157 50 332.5t130 304.5q93 148 222.5 226.5t279.5 78.5q180 0 280.5 -94.5t100.5 -263.5q0 -71 -25.5 -99t-142.5 -51l-6 -2q-21 -4 -47.5 -6t-60.5 -2q-45 0 -67 12t-22 37q0 10 5.5 29.5t5.5 30.5
q0 35 -19.5 55t-52.5 20q-34 0 -71 -29t-70 -83q-60 -92 -103 -244.5t-43 -271.5q0 -67 20.5 -102.5t59.5 -35.5q42 0 80.5 44t52.5 112zM1063 1794h107q10 0 15 -5.5t5 -19.5q0 -108 -114.5 -195t-278.5 -87q-129 0 -205 66t-76 176q0 33 7 48t22 15h107q24 0 28 -27v-2
q8 -47 43 -70.5t99 -23.5q110 0 172 62.5t69 62.5z" />
    <glyph glyph-name="Idotaccent" unicode="&#x130;" horiz-adv-x="688" 
d="M33 152q15 75 48.5 221.5t74.5 314.5q67 267 103.5 395.5t72.5 233.5l6 18q16 46 34.5 62t55.5 16q28 0 51 -1t41 -3l15 -2q98 -13 130.5 -30t32.5 -48q0 -5 -1.5 -12.5t-4.5 -16.5l-4 -18q-21 -81 -62 -237q-181 -687 -231 -947l-4 -24q-12 -59 -36 -81t-72 -22
q-16 0 -39 3t-46 8l-8 2q-100 21 -131.5 46t-31.5 76q0 5 2 19q1 8 2 12zM612 1780q56 0 88.5 -31.5t32.5 -83.5q0 -71 -45.5 -123.5t-107.5 -52.5q-57 0 -90 32t-33 85q0 68 47.5 121t107.5 53z" />
    <glyph glyph-name="Scedilla" unicode="&#x15e;" horiz-adv-x="909" 
d="M271 315q73 2 107 26t34 75q0 36 -21.5 86t-71.5 129q-10 16 -29 46q-126 199 -126 298q0 181 183 309.5t460 128.5q102 0 140 -27.5t38 -101.5q0 -23 -4 -56.5t-4 -39.5l-2 -12q-7 -98 -40 -139.5t-114 -47.5l-16 -2q-24 -1 -43.5 -1.5t-34.5 -0.5q-26 0 -39.5 8
t-13.5 23v6l10 55q-73 -3 -121.5 -30t-48.5 -60q0 -15 7.5 -33t25.5 -45q13 -19 37 -58q182 -277 182 -437q0 -206 -154.5 -323.5t-427.5 -117.5q-126 0 -184.5 35.5t-58.5 112.5q0 15 2 39t6 53l2 15l1 9q24 181 163 205l11 4q10 2 33 3.5t52 1.5q35 0 54.5 -12.5
t19.5 -35.5v-10zM281 0h135l-33 -90q4 0 11.5 1t11.5 1q95 0 144.5 -39.5t49.5 -114.5q0 -98 -68 -153.5t-192 -55.5q-109 0 -200 22t-91 44q0 4 1.5 8l1.5 4l34 86l1 1q6 16 20 16q1 0 67.5 -20.5t128.5 -20.5q43 0 64.5 15t21.5 44q0 27 -26.5 41t-77.5 14h-47
q-12 0 -17.5 4t-5.5 13q0 1 1 4.5t4 12.5z" />
    <glyph glyph-name="scedilla" unicode="&#x15f;" horiz-adv-x="909" 
d="M271 315q73 2 107 26t34 75q0 36 -21.5 86t-71.5 129q-10 16 -29 46q-126 199 -126 298q0 181 183 309.5t460 128.5q102 0 140 -27.5t38 -101.5q0 -23 -4 -56.5t-4 -39.5l-2 -12q-7 -98 -40 -139.5t-114 -47.5l-16 -2q-24 -1 -43.5 -1.5t-34.5 -0.5q-26 0 -39.5 8
t-13.5 23v6l10 55q-73 -3 -121.5 -30t-48.5 -60q0 -15 7.5 -33t25.5 -45q13 -19 37 -58q182 -277 182 -437q0 -206 -154.5 -323.5t-427.5 -117.5q-126 0 -184.5 35.5t-58.5 112.5q0 15 2 39t6 53l2 15l1 9q24 181 163 205l11 4q10 2 33 3.5t52 1.5q35 0 54.5 -12.5
t19.5 -35.5v-10zM281 0h135l-33 -90q4 0 11.5 1t11.5 1q95 0 144.5 -39.5t49.5 -114.5q0 -98 -68 -153.5t-192 -55.5q-109 0 -200 22t-91 44q0 4 1.5 8l1.5 4l34 86l1 1q6 16 20 16q1 0 67.5 -20.5t128.5 -20.5q43 0 64.5 15t21.5 44q0 27 -26.5 41t-77.5 14h-47
q-12 0 -17.5 4t-5.5 13q0 1 1 4.5t4 12.5z" />
    <glyph glyph-name="Cacute" unicode="&#x106;" horiz-adv-x="995" 
d="M729 571h17q69 -2 103 -28.5t34 -79.5q0 -70 -36.5 -153t-98.5 -156q-73 -85 -168 -133t-189 -48q-160 0 -253 124.5t-93 340.5q0 169 51 348t140 318q99 157 220 233t273 76q133 0 211 -75t78 -203q0 -129 -48 -196t-143 -71h-26q-64 0 -99.5 17.5t-35.5 48.5
q0 20 12 52.5t12 47.5q0 18 -11 28.5t-30 10.5q-31 0 -61.5 -35t-73.5 -120q-60 -123 -94.5 -262t-34.5 -255q0 -43 13 -66.5t36 -23.5q41 0 71 80t46 103q25 35 72 56t100 21h6zM803 1790h203q25 0 31 -5t6 -18q0 -5 -1.5 -8.5t-4.5 -7.5l-9 -8q-37 -43 -100.5 -102
t-132.5 -113l-10 -6q-23 -19 -40 -26t-38 -7h-115q-9 0 -13.5 3.5t-4.5 10.5q0 6 2.5 12t7.5 11l6 8q26 28 74.5 99.5t67.5 109.5l4 9q9 18 26.5 28t40.5 10z" />
    <glyph glyph-name="cacute" unicode="&#x107;" horiz-adv-x="995" 
d="M729 571h17q69 -2 103 -28.5t34 -79.5q0 -70 -36.5 -153t-98.5 -156q-73 -85 -168 -133t-189 -48q-160 0 -253 124.5t-93 340.5q0 169 51 348t140 318q99 157 220 233t273 76q133 0 211 -75t78 -203q0 -129 -48 -196t-143 -71h-26q-64 0 -99.5 17.5t-35.5 48.5
q0 20 12 52.5t12 47.5q0 18 -11 28.5t-30 10.5q-31 0 -61.5 -35t-73.5 -120q-60 -123 -94.5 -262t-34.5 -255q0 -43 13 -66.5t36 -23.5q41 0 71 80t46 103q25 35 72 56t100 21h6zM803 1790h203q25 0 31 -5t6 -18q0 -5 -1.5 -8.5t-4.5 -7.5l-9 -8q-37 -43 -100.5 -102
t-132.5 -113l-10 -6q-23 -19 -40 -26t-38 -7h-115q-9 0 -13.5 3.5t-4.5 10.5q0 6 2.5 12t7.5 11l6 8q26 28 74.5 99.5t67.5 109.5l4 9q9 18 26.5 28t40.5 10z" />
    <glyph glyph-name="Ccaron" unicode="&#x10c;" horiz-adv-x="995" 
d="M729 571h17q69 -2 103 -28.5t34 -79.5q0 -70 -36.5 -153t-98.5 -156q-73 -85 -168 -133t-189 -48q-160 0 -253 124.5t-93 340.5q0 169 51 348t140 318q99 157 220 233t273 76q133 0 211 -75t78 -203q0 -129 -48 -196t-143 -71h-26q-64 0 -99.5 17.5t-35.5 48.5
q0 20 12 52.5t12 47.5q0 18 -11 28.5t-30 10.5q-31 0 -61.5 -35t-73.5 -120q-60 -123 -94.5 -262t-34.5 -255q0 -43 13 -66.5t36 -23.5q41 0 71 80t46 103q25 35 72 56t100 21h6zM672 1763l2 -6q24 -39 51 -72t54 -57q47 40 103 89t63 53l3 3q3 2 10 7q17 12 25 12
q3 0 8.5 -2.5t8.5 -5.5l90 -84q7 -7 8.5 -10.5t1.5 -8.5q0 -6 -4 -12.5t-10 -11.5l-8 -4q-21 -14 -64.5 -52t-79.5 -75l-6 -6q-13 -13 -23.5 -18t-23.5 -5q-3 0 -8.5 1t-7.5 1h-203q-24 0 -37 7t-27 26l-4 6q-31 43 -56.5 83t-39.5 69l-4 8q-3 6 -4.5 11t-1.5 9q0 12 3 16.5
t15 10.5l113 43q7 2 11 3t5 1q9 0 18.5 -7t18.5 -22z" />
    <glyph glyph-name="ccaron" unicode="&#x10d;" horiz-adv-x="995" 
d="M729 571h17q69 -2 103 -28.5t34 -79.5q0 -70 -36.5 -153t-98.5 -156q-73 -85 -168 -133t-189 -48q-160 0 -253 124.5t-93 340.5q0 169 51 348t140 318q99 157 220 233t273 76q133 0 211 -75t78 -203q0 -129 -48 -196t-143 -71h-26q-64 0 -99.5 17.5t-35.5 48.5
q0 20 12 52.5t12 47.5q0 18 -11 28.5t-30 10.5q-31 0 -61.5 -35t-73.5 -120q-60 -123 -94.5 -262t-34.5 -255q0 -43 13 -66.5t36 -23.5q41 0 71 80t46 103q25 35 72 56t100 21h6zM672 1763l2 -6q24 -39 51 -72t54 -57q47 40 103 89t63 53l3 3q3 2 10 7q17 12 25 12
q3 0 8.5 -2.5t8.5 -5.5l90 -84q7 -7 8.5 -10.5t1.5 -8.5q0 -6 -4 -12.5t-10 -11.5l-8 -4q-21 -14 -64.5 -52t-79.5 -75l-6 -6q-13 -13 -23.5 -18t-23.5 -5q-3 0 -8.5 1t-7.5 1h-203q-24 0 -37 7t-27 26l-4 6q-31 43 -56.5 83t-39.5 69l-4 8q-3 6 -4.5 11t-1.5 9q0 12 3 16.5
t15 10.5l113 43q7 2 11 3t5 1q9 0 18.5 -7t18.5 -22z" />
    <glyph glyph-name="dcroat" unicode="&#x111;" horiz-adv-x="1229" 
d="M469 547q-19 -52 -34 -107t-25 -114q168 16 285.5 155t117.5 316q0 140 -83.5 224.5t-221.5 84.5q-23 0 -50 -3.5t-62 -10.5q21 -9 61 -24q127 -47 127 -99q0 -4 -1 -10.5t-3 -17.5l-3 -14q-2 -12 -18 -63t-22 -88h77q30 0 41 -7.5t11 -27.5q0 -14 -4.5 -33t-12.5 -42
l-4 -11q-23 -65 -44 -86.5t-60 -21.5h-72zM70 309q4 25 29 125q18 69 28 111h-86q-29 0 -43 8.5t-14 26.5q0 31 24 93.5t43 80.5q12 11 30 16.5t46 5.5h61q12 46 30 103t52 159q-33 -11 -73 -27t-47 -16q-12 0 -19.5 10t-7.5 25q0 24 36 148l1 4l4 12l1 3q32 116 52 136
q33 33 120.5 55.5t194.5 22.5q288 0 456.5 -156t168.5 -419q0 -165 -73 -335t-197 -292q-114 -111 -266 -174.5t-304 -63.5q-68 0 -154 109q-2 2 -3 4l-11 15q-5 6 -15 19q-71 86 -71 134q1 10 4 31q2 9 3 14v12z" />
    <glyph glyph-name="sfthyphen" unicode="&#xad;" horiz-adv-x="801" 
d="M68 283q-46 0 -62 12.5t-16 44.5q0 47 22.5 122.5t42.5 104.5q11 16 29 23.5t43 7.5h463q44 0 61 -13.5t17 -49.5q0 -59 -20.5 -122.5t-49.5 -101.5q-12 -15 -30.5 -21.5t-55.5 -6.5h-444z" />
    <glyph glyph-name="periodcentered" unicode="&#x2219;" horiz-adv-x="555" 
d="M109 723q0 71 51 121.5t123 50.5t123 -50t51 -122t-51 -123t-123 -51t-123 51.5t-51 122.5z" />
    </font>
</defs>
</svg>
