<?xml version="1.0" standalone="no"?>
<!DOCTYPE svg PUBLIC "-//W3C//DTD SVG 1.1//EN" "http://www.w3.org/Graphics/SVG/1.1/DTD/svg11.dtd" >
<svg>
<defs>
<font id="zAristaLight" horiz-adv-x="512" >
  <font-face 
    font-family="[z] Arista Light"
    font-weight="300"
    font-stretch="normal"
    units-per-em="1000"
    panose-1="2 0 5 6 0 0 0 2 0 4"
    ascent="800"
    descent="-200"
    x-height="474"
    cap-height="638"
    bbox="-92 -170 888 851"
    underline-thickness="50"
    underline-position="-50"
    unicode-range="U+0020-2122"
  />
<missing-glyph horiz-adv-x="375" 
 />
    <glyph glyph-name=".notdef" horiz-adv-x="375" 
 />
    <glyph glyph-name="b" unicode="b" horiz-adv-x="506" 
d="M67 638q9 1 18 -3t15.5 -11.5t10.5 -16.5t4 -19v-148q38 26 76.5 35t66.5 9q47 0 91.5 -18t81.5 -53v1q35 -36 52.5 -77t17.5 -95q0 -50 -19.5 -94t-52.5 -77t-77 -52t-93 -19q-48 0 -91.5 19.5t-77.5 52.5t-54 77t-20 93v351q0 17 15 31.5t32 13.5h4zM115 242
q0 -30 11.5 -56t31.5 -45.5t46 -31t55 -11.5t55.5 11.5t46 31t31 45.5t11.5 56q0 29 -11.5 55.5t-31 46t-46 31t-55.5 11.5t-55 -12t-46 -32.5t-31.5 -46.5t-11.5 -53z" />
    <glyph glyph-name="e" unicode="e" horiz-adv-x="511" 
d="M257 486q48 0 92.5 -20.5t78 -54t54 -78t20.5 -92.5q0 -20 -15 -35.5t-38 -14.5h-336q29 -52 67.5 -74t76.5 -22q21 0 36 5t26 9q13 9 29 9q22 -2 35.5 -17.5t13.5 -33.5q0 -8 -2.5 -17t-10.5 -16l1 2q-26 -21 -59 -30t-70 -10q-49 -2 -93.5 17.5t-78 53.5t-53 79
t-19.5 95q0 48 19.5 92.5t53.5 78t78 54t94 20.5zM401 295q-24 40 -61.5 65.5t-82.5 25.5q-47 0 -84.5 -26t-58.5 -64q-2 -2 -2 -4h290q-1 0 -1 1v2z" />
    <glyph glyph-name="f" unicode="f" horiz-adv-x="348" 
d="M288 639q23 0 38 -12.5t17 -36.5q-1 -19 -15 -32t-35 -15q-33 -1 -51.5 -23t-18.5 -51v-167q28 -2 47.5 -17t19.5 -35q0 -21 -23 -36t-53 -18v-170q0 -56 -30.5 -100t-87.5 -61q-15 -6 -30 -6q-23 0 -41.5 12.5t-19.5 37.5q0 20 14 33.5t34 14.5q31 1 51.5 23t20.5 50
v171q-30 0 -47 14t-19 37q1 19 19 32.5t47 17.5v168q0 33 12.5 63.5t34.5 54t52 37.5t64 14z" />
    <glyph glyph-name="h" unicode="h" horiz-adv-x="510" 
d="M67 639q18 0 32 -14t17 -35v-156q42 27 79.5 37.5t65.5 10.5q49 0 93 -18t77 -50t52.5 -75t19.5 -92v-199q0 -20 -14.5 -34.5t-35.5 -15.5q-19 0 -32.5 13.5t-16.5 33.5v195q0 29 -11 55t-30 46t-45.5 31.5t-56.5 11.5q-29 0 -53.5 -10.5t-44 -29t-32 -43.5t-15.5 -54
v-199q0 -20 -14 -34.5t-36 -15.5q-17 0 -30 14t-18 34v549q4 17 16.5 30.5t32.5 13.5z" />
    <glyph glyph-name="g" unicode="g" 
d="M256 484q50 0 94 -19t76.5 -52t51.5 -77t19 -94q0 -66 -36 -132q36 -48 36 -107q0 -34 -12.5 -64t-34.5 -53t-52 -37.5t-65 -16.5h-275q-18 0 -31 14.5t-13 34.5t14.5 34.5t34.5 15.5h264q15 0 31.5 7.5t28 21.5t14 33t-9.5 42q-18 -9 -33.5 -16t-31 -11t-32.5 -6t-38 -2
q-53 0 -97.5 18t-76.5 50t-50 76.5t-18 97.5q0 49 20 93t53.5 77t77 52.5t91.5 19.5zM256 386q-28 0 -54 -12t-46 -32t-32 -46t-12 -54t11 -54t30.5 -46.5t45.5 -32.5t57 -12t58 12t46 32t30 46t11 55t-12 55.5t-32.5 46t-46.5 31t-54 11.5z" />
    <glyph glyph-name="i" unicode="i" horiz-adv-x="139" 
d="M121 587q0 -22 -15 -37.5t-36 -15.5q-22 0 -37.5 15.5t-15.5 37.5q0 21 15.5 36.5t37.5 15.5q21 0 36 -15.5t15 -36.5zM70 0q-22 0 -37.5 15t-15.5 38v376q0 22 15.5 37t37.5 15q20 0 35.5 -15t15.5 -37v-376q0 -23 -15.5 -38t-35.5 -15z" />
    <glyph glyph-name="j" unicode="j" horiz-adv-x="308" 
d="M245 483q19 0 32.5 -14t16.5 -34v-202q-1 -48 -20.5 -90t-52 -73.5t-76 -50.5t-92.5 -20q-20 0 -33.5 15t-17.5 34q2 19 16.5 33.5t34.5 15.5q29 0 54.5 11t45 30.5t31 45.5t11.5 57v198q3 18 16.5 31t33.5 13zM295 590q0 -20 -13.5 -34.5t-33.5 -14.5q-21 0 -35.5 14.5
t-14.5 34.5t14.5 34.5t35.5 14.5q20 0 33.5 -14.5t13.5 -34.5z" />
    <glyph glyph-name="k" unicode="k" horiz-adv-x="415" 
d="M396 87q6 -8 10 -17.5t4 -18.5q0 -10 -3 -19.5t-11 -17.5v1q-18 -16 -38 -16t-35 15l-201 201v-164q0 -20 -15.5 -35.5t-36.5 -15.5q-20 0 -36 15t-16 36v537q0 20 15.5 35.5t36.5 15.5q22 0 37 -15t15 -36v-312l201 201q14 14 35 14q10 0 20 -3.5t18 -11.5v1
q8 -8 11 -17.5t3 -19.5q0 -22 -14 -36l-159 -159z" />
    <glyph glyph-name="l" unicode="l" horiz-adv-x="242" 
d="M67 639q18 0 33.5 -14.5t15.5 -34.5v-421q0 -32 20 -53t52 -21q20 0 34.5 -14t15.5 -34q-1 -17 -14 -30t-30 -18h-14q-33 0 -63 14t-52.5 37.5t-35.5 54.5t-13 64v421q0 17 15.5 33t35.5 16z" />
    <glyph glyph-name="m" unicode="m" horiz-adv-x="624" 
d="M191 484q30 0 60.5 -11.5t60.5 -37.5q63 49 122 49q34 0 65.5 -13t55.5 -35.5t38 -53t14 -65.5v-273q0 -17 -15.5 -30.5t-35.5 -13.5t-34.5 14.5t-14.5 34.5v265q0 29 -20.5 50t-52.5 21q-27 0 -49.5 -18t-22.5 -53v-265q0 -20 -14.5 -34.5t-35.5 -14.5q-19 0 -34 13
t-15 31v270q-1 32 -23 51.5t-49 19.5q-29 0 -50.5 -20t-22.5 -52v-271q-3 -16 -17 -29t-32 -13q-20 0 -36 13.5t-14 33.5v270q0 33 13.5 63.5t36.5 53.5t54.5 36.5t67.5 13.5z" />
    <glyph glyph-name="n" unicode="n" horiz-adv-x="515" 
d="M258 487q48 0 92 -17.5t77 -48.5t53 -74t20 -93v-202q0 -20 -14.5 -34t-34.5 -15q-20 0 -34.5 13t-14.5 33v196q0 30 -11 56t-30.5 45.5t-46 31t-57.5 11.5q-29 0 -54.5 -10.5t-45 -29.5t-31 -44t-11.5 -54v-199q0 -20 -15 -34.5t-35 -14.5t-35 13t-15 33v196q1 50 20 94
t51 77t76 52t96 19z" />
    <glyph glyph-name="o" unicode="o" horiz-adv-x="508" 
d="M255 474q49 0 92.5 -19.5t76.5 -52.5t52.5 -77t19.5 -94t-19 -93.5t-51.5 -76.5t-76.5 -52t-95 -19q-50 0 -94 18t-77 50.5t-52 76.5t-19 96q0 50 18.5 93.5t51.5 76t77.5 52t95.5 21.5zM254 375q-29 0 -55.5 -11t-46 -30.5t-31 -45.5t-11.5 -57q0 -29 11.5 -55.5
t31 -46.5t46 -31.5t55.5 -11.5t55.5 11.5t46 31.5t31 46.5t11.5 55.5q-3 59 -42 99.5t-101 44.5h-1z" />
    <glyph glyph-name="p" unicode="p" horiz-adv-x="506" 
d="M259 483q49 0 93 -19t77 -52t52.5 -77t19.5 -94t-18.5 -94t-51 -77t-77 -52t-95.5 -19q-63 0 -144 41v-147q0 -20 -14 -34t-36 -14q-19 0 -33.5 13t-15.5 32v351q0 49 19.5 93t52.5 77t77 52.5t94 19.5zM115 241q0 -32 11.5 -58.5t31.5 -46t46 -30t55 -10.5
q30 0 56.5 11.5t45.5 31.5t30 46t11 56t-11.5 56t-31 45.5t-45.5 30.5t-55 11q-31 0 -57 -11.5t-45.5 -31t-30.5 -45.5t-11 -55z" />
    <glyph glyph-name="r" unicode="r" horiz-adv-x="308" 
d="M62 -1q-19 0 -32.5 14t-16.5 34v201q1 49 20.5 91t52.5 73.5t76.5 50t92.5 20.5q19 -1 33 -16t17 -33q-2 -19 -16 -33.5t-34 -15.5q-29 0 -55 -11t-45.5 -30.5t-31 -45.5t-11.5 -57v-199q-3 -17 -16.5 -30t-33.5 -13z" />
    <glyph glyph-name="s" unicode="s" horiz-adv-x="434" 
d="M14 341q0 28 11 54t30 46t44.5 32t55.5 13h193q20 0 33.5 -15.5t13.5 -32.5q0 -20 -14.5 -34.5t-32.5 -14.5h-187q-24 0 -36.5 -14t-12.5 -34q0 -19 12.5 -34t36.5 -15h123q29 0 54 -12t43 -32t28.5 -46.5t10.5 -54.5q0 -32 -11 -59t-31.5 -46.5t-48 -30.5t-60.5 -11
h-185q-20 0 -32.5 14t-12.5 34q0 19 13.5 34.5t33.5 16.5h183q24 0 37.5 12.5t13.5 35.5q0 25 -13.5 36t-37.5 11h-120q-28 0 -52.5 11.5t-43 31.5t-29 47t-10.5 57z" />
    <glyph glyph-name="t" unicode="t" horiz-adv-x="453" 
d="M67 640q22 0 36.5 -15.5t16.5 -38.5v-90h231q21 0 35 -15.5t14 -35.5t-15 -36t-34 -16h-231v-146q0 -29 11 -55.5t30.5 -46.5t46 -32t56.5 -12q34 0 57.5 9.5t41.5 26.5h-1q15 14 37 14q21 0 37 -15q14 -13 14 -35q0 -8 -2.5 -16.5t-9.5 -14.5h1q-35 -34 -76.5 -52
t-90.5 -18q-52 0 -98.5 17.5t-81 50t-55.5 78t-22 101.5v339q0 20 14.5 37t37.5 17z" />
    <glyph glyph-name="u" unicode="u" horiz-adv-x="516" 
d="M65 485q19 -1 34 -16t15 -35v-192q0 -30 11.5 -56t31 -45.5t46 -31t55.5 -11.5q28 0 54 10.5t46 28.5t31.5 43.5t11.5 55.5v199q0 13 6 24q5 5 9 11q17 15 34 15q19 0 36 -15q8 -8 11 -16t4 -17v-195q0 -50 -19 -94t-52 -77t-77.5 -52t-95.5 -19q-48 -2 -92 16.5
t-77 50.5t-53 75.5t-20 91.5v201q0 20 14.5 34.5t35.5 15.5z" />
    <glyph glyph-name="w" unicode="w" horiz-adv-x="624" 
d="M191 0q-36 0 -67.5 13.5t-54.5 36.5t-36.5 53t-13.5 64v270q-2 20 14 33.5t36 13.5q18 0 32 -13t17 -30v-271q1 -31 22.5 -51t50.5 -20q27 0 49 19t23 51v271q0 18 15 31t34 13q21 0 35.5 -14.5t14.5 -34.5v-265q0 -35 22.5 -53t49.5 -18q32 0 52.5 21t20.5 50v265
q0 20 14.5 34.5t34.5 14.5t35.5 -13.5t15.5 -30.5v-273q0 -35 -14 -65.5t-38 -53t-55.5 -35.5t-65.5 -13q-61 0 -122 49q-30 -26 -60.5 -37.5t-60.5 -11.5z" />
    <glyph glyph-name="v" unicode="v" horiz-adv-x="429" 
d="M382 483q20 -8 28 -27.5t0 -39.5q-36 -94 -73.5 -192t-73.5 -192q-4 -8 -16.5 -20t-29.5 -12q-15 0 -29 7.5t-20 24.5l-149 384q-8 20 0.5 39.5t28.5 27.5l-1 -1q21 7 40.5 -1.5t27.5 -28.5l-1 1l101 -264q10 26 23 60.5t27.5 71.5t28 71.5t23.5 60.5l-2 -1q8 20 28 28.5
t40 1.5z" />
    <glyph glyph-name="x" unicode="x" horiz-adv-x="517" 
d="M418 470q15 13 32 13q20 0 36 -16v2q13 -13 13 -34q0 -22 -13 -35l-157 -158l157 -158q14 -14 14 -36q0 -9 -3 -18t-11 -17q-13 -13 -33 -13q-22 0 -38 16l-157 155l-38 -38t-40 -40.5t-40 -40.5l-38 -38q-7 -7 -17 -10.5t-21 -3.5q-9 0 -17 2.5t-16 10.5q-14 16 -14 36
q0 19 13 33h-1l161 160l-161 160q-12 13 -12 30q0 20 14 37q16 15 33 15q20 0 37 -17v2l157 -157z" />
    <glyph glyph-name="y" unicode="y" horiz-adv-x="511" 
d="M56 485q20 0 35.5 -12.5t15.5 -32.5v-197q0 -29 11 -55t30 -45.5t45.5 -31t56.5 -11.5q27 0 53 10.5t46.5 28.5t32.5 43.5t12 55.5v199q0 20 14 34t35 14q20 0 35 -12.5t15 -32.5v-549q0 -20 -15 -33t-35 -13q-19 0 -34 13.5t-15 35.5v153q-40 -25 -76.5 -35.5
t-67.5 -10.5q-49 0 -93 19t-77.5 52t-53 79t-19.5 100v186q0 20 14 34t35 14z" />
    <glyph glyph-name="z" unicode="z" horiz-adv-x="520" 
d="M455 484q18 0 34 -14h-1q15 -15 15 -34q0 -21 -14 -35l-22 -22q-30 -31 -66 -67t-73.5 -73t-74 -73t-67.5 -67h269q19 -2 34 -15h-1q8 -8 11.5 -17.5t3.5 -18.5q0 -19 -14 -33q-15 -15 -34 -15h-385q-24 0 -38 14q-15 17 -14 34q-1 19 13 33l303 305h-264
q-14 1 -22.5 4.5t-15.5 10.5q-15 15 -14 35q-1 17 14 34q14 14 34 14h389z" />
    <glyph glyph-name="c" unicode="c" horiz-adv-x="448" 
d="M254 484q100 0 170 -70h-1q7 -7 9.5 -14.5t2.5 -14.5q0 -21 -15 -36q-7 -7 -16.5 -10t-19.5 -3q-22 0 -35 13q-41 37 -95 37q-29 0 -55.5 -12t-46.5 -32t-31.5 -46t-11.5 -54q0 -29 12 -55.5t32 -47t46 -32t55 -9.5q55 0 101 41q9 10 30 10q19 0 34 -16q16 -15 16 -33
q0 -8 -3 -16.5t-9 -13.5q-35 -35 -76.5 -52.5t-92.5 -17.5q-50 0 -94 19.5t-77 52.5t-52.5 77t-19.5 93q0 48 19.5 91.5t53 77t77.5 53.5t93 20z" />
    <glyph glyph-name="a" unicode="a" 
d="M283 483q45 -5 84.5 -26t68 -53.5t45 -74t16.5 -87.5v-193q0 -20 -15 -34.5t-34 -14.5q-7 0 -15.5 1t-16.5 5.5t-14.5 12.5t-7.5 22q-5 -2 -18 -9t-19 -10q-11 -5 -23 -9t-25 -8q-25 -5 -54 -5q-75 0 -134 40.5t-88 104.5q-10 22 -15.5 46.5t-5.5 50.5t5.5 50t15.5 47
q29 65 88 105t134 40h14t14 -1zM254 98q29 0 55.5 11t46 30.5t31 45.5t11.5 57q0 28 -11.5 54.5t-31.5 46t-46 31.5t-55 12t-54.5 -11.5t-45.5 -31.5t-31.5 -46t-11.5 -55q0 -30 12 -56t32.5 -45.5t46 -31t52.5 -11.5z" />
    <glyph glyph-name="exclam" unicode="!" horiz-adv-x="138" 
d="M121 52q0 -21 -15 -36.5t-36 -15.5q-22 0 -37.5 15.5t-15.5 36.5q0 22 15.5 37.5t37.5 15.5q21 0 36 -15.5t15 -37.5zM70 639q20 0 35.5 -15t15.5 -38v-368q0 -22 -15.5 -37t-35.5 -15q-22 0 -37.5 15t-15.5 37v368q0 23 15.5 38t37.5 15z" />
    <glyph glyph-name="quotedbl" unicode="&#x22;" horiz-adv-x="304" 
d="M69 653q22 0 36.5 -15t14.5 -36v-137q0 -21 -14.5 -36t-36.5 -15q-21 0 -36.5 15t-15.5 36v137q0 21 15.5 36t36.5 15zM235 653q22 0 36.5 -15t14.5 -36v-137q0 -21 -14.5 -36t-36.5 -15t-37.5 15t-15.5 36v137q0 21 15.5 36t37.5 15z" />
    <glyph glyph-name="dollar" unicode="$" horiz-adv-x="466" 
d="M457 223q0 -34 -11 -61.5t-31 -46.5t-47 -29.5t-58 -10.5h-27v-25q0 -22 -15 -36t-37 -14t-36.5 14t-14.5 36v25h-102q-22 0 -37 15t-15 36q0 17 13.5 32.5t33.5 17.5h107v95h-22q-29 0 -55.5 11.5t-47.5 32t-33.5 47.5t-12.5 59q0 30 11.5 55.5t32 45t47.5 32t58 15.5
h22v20q0 22 14.5 36t36.5 14t37 -14t15 -36v-20h108q23 0 37 -15.5t14 -35.5t-13 -35.5t-38 -14.5h-86h-22v-95h27q30 0 57 -12t47 -32.5t31.5 -47.5t11.5 -58zM327 267q-8 4 -20 4h-24v-95h24q20 0 33.5 15t13.5 34q0 14 -7.5 25t-19.5 17zM109 421q0 -20 14 -34t35 -14h22
v95h-22q-21 0 -35 -14t-14 -33z" />
    <glyph glyph-name="percent" unicode="%" horiz-adv-x="311" 
d="M255 636q20 -7 30 -25.5t5 -39.5q-43 -137 -85 -267t-85 -267q-7 -19 -26 -29.5t-39 -4.5q-20 7 -29.5 25.5t-4.5 40.5l170 533q6 20 25 30t39 4zM296 53q0 -21 -15 -36.5t-36 -15.5q-22 0 -37.5 15.5t-15.5 36.5q0 22 15.5 37.5t37.5 15.5q21 0 36 -15.5t15 -37.5z
M122 586q0 -21 -15 -36.5t-36 -15.5q-22 0 -37.5 15.5t-15.5 36.5q0 22 15.5 37.5t37.5 15.5q21 0 36 -15.5t15 -37.5z" />
    <glyph glyph-name="ampersand" unicode="&#x26;" horiz-adv-x="572" 
d="M515 93q19 -17 18 -38t-14.5 -36t-34.5 -19t-40 13l-80 72l-35 -39q-25 -23 -57 -34t-67 -11q-40 0 -75 15t-61 41t-41 61t-15 75q0 45 18.5 82.5t49.5 63.5v1q-23 23 -37 55.5t-14 68.5t14 68t37.5 55.5t55.5 37.5t68 14t68 -14t55.5 -37.5t37.5 -55.5t14 -68
q0 -49 -26 -91t-74 -68l70 -62l57 73q17 20 38 20t36.5 -12t20.5 -32.5t-10 -42.5l-62 -78l86 -78h-1zM121 193q0 -17 6.5 -32.5t18 -27t26.5 -18t33 -6.5q19 0 35 7.5t29 20.5l15 21l-121 108q-19 -11 -30.5 -30t-11.5 -43zM272 464q0 28 -19.5 47.5t-48.5 19.5
q-28 0 -47.5 -19.5t-19.5 -47.5q0 -29 19.5 -48.5t47.5 -19.5q29 0 48.5 19.5t19.5 48.5z" />
    <glyph glyph-name="quotesingle" unicode="'" horiz-adv-x="137" 
d="M68 639q23 0 37.5 -15t14.5 -36v-137q0 -21 -14.5 -36t-37.5 -15q-21 0 -36.5 15t-15.5 36v137q0 21 15.5 36t36.5 15z" />
    <glyph glyph-name="parenleft" unicode="(" horiz-adv-x="338" 
d="M273 -33q22 0 36.5 -14.5t14.5 -36.5q0 -21 -14.5 -36t-36.5 -15h-14q-50 0 -94.5 20t-78 53.5t-53.5 77.5t-20 92v287q0 48 20 92.5t53.5 78t78 53.5t94.5 20h14q22 0 36.5 -15t14.5 -36q0 -22 -14.5 -37t-36.5 -15q-32 0 -60 -17t-49.5 -43.5t-34 -59t-12.5 -62.5v-231
q0 -30 12.5 -58.5t34 -50t49.5 -34.5t60 -13z" />
    <glyph glyph-name="asterisk" unicode="*" horiz-adv-x="224" 
d="M208 480q6 -4 7.5 -10.5t-2.5 -11.5q-4 -7 -10.5 -8t-11.5 2l-63 36v-70q0 -7 -4.5 -12t-11.5 -5q-8 0 -12 5t-4 12v70l-63 -36q-6 -3 -12.5 -2t-9.5 7q-4 5 -2 12t7 11h-1l65 40q-4 3 -13 8.5t-19 12t-19.5 12t-13.5 7.5h1q-5 4 -7 11t2 13v-1q4 6 10.5 7.5t12.5 -1.5
l62 -37v70q0 17 16 17t16 -17v-70l63 37q5 3 12 2t11 -8l-1 1q9 -14 -5 -24l-64 -40l64 -40v0z" />
    <glyph glyph-name="bracketleft" unicode="[" horiz-adv-x="254" 
d="M191 -32q21 0 36 -14t15 -37q0 -21 -15 -36t-36 -15h-122q-20 0 -33.5 14.5t-17.5 32.5v680q4 17 17.5 31t33.5 16h122q21 0 36 -15t15 -36q0 -23 -15 -37.5t-36 -14.5h-71v-569h71v0z" />
    <glyph glyph-name="plus" unicode="+" horiz-adv-x="389" 
d="M332 351q22 0 37.5 -14.5t15.5 -37.5q0 -21 -15.5 -36.5t-37.5 -15.5h-85v-85q0 -23 -15.5 -38.5t-36.5 -15.5q-23 0 -38 15.5t-15 38.5v85h-86q-22 0 -36.5 15.5t-14.5 36.5q0 23 14.5 37.5t36.5 14.5h86v87q0 22 15 37t38 15q21 0 36.5 -15t15.5 -37v-87h85v0z" />
    <glyph glyph-name="comma" unicode="," horiz-adv-x="138" 
d="M67 105q23 0 38.5 -15.5t15.5 -36.5v-136q0 -21 -15.5 -36t-38.5 -15q-21 0 -36 15t-15 36v136q0 21 15 36.5t36 15.5z" />
    <glyph glyph-name="hyphen" unicode="-" horiz-adv-x="414" 
d="M397 306q0 -21 -14.5 -36.5t-36.5 -15.5h-278q-22 0 -36.5 15.5t-14.5 36.5q0 23 14.5 38t36.5 15h278q22 0 36.5 -15t14.5 -38z" />
    <glyph glyph-name="period" unicode="." horiz-adv-x="130" 
d="M117 52q0 -21 -15.5 -36.5t-37.5 -15.5q-21 0 -36 15.5t-15 36.5q0 22 15 37.5t36 15.5q22 0 37.5 -15.5t15.5 -37.5z" />
    <glyph glyph-name="slash" unicode="/" horiz-adv-x="291" 
d="M246 637q20 -7 30 -26t4 -39q-43 -137 -85 -268t-84 -268q-8 -20 -26.5 -30.5t-38.5 -3.5q-21 7 -30.5 25.5t-4.5 40.5l170 535q6 21 25.5 31t39.5 3z" />
    <glyph glyph-name="braceleft" unicode="{" horiz-adv-x="432" 
d="M363 -50q23 0 37.5 -15t14.5 -38q0 -21 -14.5 -36.5t-37.5 -15.5h-15q-50 0 -96 20.5t-80.5 55t-55 79.5t-20.5 94v95q-21 0 -37 15t-16 38t16 38t37 15v94q0 49 20.5 94.5t55 80t80.5 55t96 20.5h15q23 0 37.5 -15.5t14.5 -36.5q0 -23 -14.5 -38.5t-37.5 -15.5
q-32 0 -61 -17.5t-51 -44.5t-35 -60t-13 -64v-237q0 -31 13 -60t35 -51t51 -35.5t61 -13.5z" />
    <glyph glyph-name="one" unicode="1" horiz-adv-x="443" 
d="M271 626q9 -9 12.5 -21.5t3.5 -24.5v-478h96q22 0 37 -15t15 -37q0 -20 -15 -35t-37 -15h-297q-22 0 -36.5 15t-14.5 35q0 22 14.5 37t36.5 15h98v366l-84 -83q-6 -7 -15 -11t-19.5 -4t-20 3.5t-16.5 11.5q-13 16 -14 35.5t14 36.5l169 170q18 13 36 13q20 0 37 -14z" />
    <glyph glyph-name="two" unicode="2" horiz-adv-x="436" 
d="M374 101q20 0 34.5 -15t14.5 -36q0 -20 -14.5 -35t-34.5 -15h-297q-16 0 -27.5 8.5t-17.5 21.5t-5 28.5t9 28.5l262 376v23q0 49 -51 49h-165q-23 1 -34.5 16.5t-12 34t11 34.5t35.5 18h165q33 0 61 -12t48.5 -32.5t32 -48.5t11.5 -60q1 -15 -1.5 -33.5t-4.5 -26.5
l-224 -324h204v0z" />
    <glyph glyph-name="three" unicode="3" horiz-adv-x="410" 
d="M350 319q22 -24 34 -56.5t12 -67.5q0 -39 -15 -74t-41 -61t-61.5 -42.5t-76.5 -17.5h-135q-21 0 -36 15.5t-15 35.5q0 21 14.5 36t36.5 16h143q35 0 59 24t24 59q0 34 -24 57t-59 25h-113q-20 0 -35.5 14.5t-15.5 36.5q0 20 14.5 36t36.5 17h113q16 0 31 6t26.5 17
t18.5 25.5t7 32.5q0 35 -24 59t-59 24h-143q-20 0 -35.5 15t-15.5 36t15 36.5t36 15.5h135q39 -1 74 -16t61.5 -41t42.5 -61.5t16 -75.5t-14 -73q-6 -14 -13.5 -27.5t-18.5 -25.5z" />
    <glyph glyph-name="four" unicode="4" horiz-adv-x="380" 
d="M338 287q17 -4 28 -18t11 -32q0 -17 -9.5 -29.5t-24.5 -17.5q-8 -3 -16 -3v-137q0 -20 -14.5 -35t-37.5 -15q-20 0 -34.5 15t-14.5 35v136h-168q-21 0 -35 14.5t-14 36.5v351q0 23 14 37t35 14q22 0 37.5 -14t15.5 -37v-301h115v2q0 4 2 12q3 17 16.5 27.5t32.5 10.5
q18 0 31.5 -11t17.5 -28q1 -2 1 -5.5v-5.5v-1q3 0 5.5 -0.5t5.5 -0.5z" />
    <glyph glyph-name="five" unicode="5" horiz-adv-x="449" 
d="M219 435q43 -1 82.5 -18t69.5 -46t48 -68.5t18 -85.5q0 -45 -17 -84.5t-47 -69t-69.5 -46.5t-84.5 -17q-27 0 -57 8.5t-57 23.5t-48 36.5t-30 48.5q-5 12 -3.5 25.5t7.5 24t17 17.5t25 7q19 0 36 -17q7 -5 12 -11l10 -12l14 -18t17 -16t23.5 -11t33.5 -4q24 0 45.5 9
t37 24.5t24.5 36.5t9 45t-9 45.5t-24.5 37t-37 24.5t-45.5 9h-149q-20 0 -36 14.5t-16 35.5v204q0 23 15 37.5t37 14.5h275q21 0 36 -14.5t15 -37.5q0 -20 -15 -34.5t-36 -14.5h-225v-103h99v0z" />
    <glyph glyph-name="six" unicode="6" horiz-adv-x="415" 
d="M358 319q22 -25 34 -57t12 -68q0 -40 -15.5 -75.5t-41.5 -61.5t-62 -41.5t-76 -15.5q-39 0 -74 15.5t-61.5 41.5t-42 61.5t-16.5 75.5v251q0 24 6 47t17 44q26 45 69 72t102 31h95q23 0 37.5 -15.5t14.5 -37.5q0 -20 -15.5 -34.5t-36.5 -15.5h-95q-38 0 -64.5 -26.5
t-26.5 -64.5v-79q41 23 91 23q44 0 81.5 -18t67.5 -52zM209 103q19 0 36 7t29.5 19.5t19.5 29t7 35.5q0 18 -7 35t-19.5 29.5t-29.5 20t-36 7.5q-18 0 -34.5 -7t-29 -19.5t-20 -29.5t-7.5 -36q0 -38 26.5 -64.5t64.5 -26.5z" />
    <glyph glyph-name="eight" unicode="8" horiz-adv-x="411" 
d="M398 193q0 -40 -15 -75t-41.5 -61.5t-61.5 -41.5t-74 -15q-40 0 -75 15t-61.5 41.5t-41.5 61.5t-15 75q0 44 18 82t50 65q-23 23 -36.5 55t-13.5 69q0 36 13.5 68t37.5 56t56 37.5t68 13.5t68 -13.5t56 -37.5t37.5 -56t13.5 -68t-14 -68.5t-38 -55.5q32 -27 50.5 -65
t18.5 -82zM206 536q-30 0 -51.5 -21t-21.5 -51t21.5 -51.5t51.5 -21.5q29 0 50 21.5t21 51.5t-21 51t-50 21zM206 282q-37 0 -63.5 -26t-26.5 -63q0 -38 26.5 -64t63.5 -26t63 26t26 64q0 37 -26 63t-63 26z" />
    <glyph glyph-name="seven" unicode="7" horiz-adv-x="415" 
d="M379 634q20 -11 25.5 -31t-4.5 -41l-282 -534q-11 -19 -31 -25.5t-39 3.5q-20 10 -26 30.5t4 39.5l244 460h-188q-22 0 -37 15.5t-15 35.5q0 21 15 36.5t37 15.5h268q7 0 14.5 -1t14.5 -4z" />
    <glyph glyph-name="backslash" unicode="\" horiz-adv-x="341" 
d="M58 636q20 6 39 -4t25 -30l170 -533q5 -22 -4.5 -40.5t-29.5 -25.5q-20 -6 -39 4.5t-26 29.5q-43 137 -85 267t-85 267q-5 21 5 39.5t30 25.5z" />
    <glyph glyph-name="bar" unicode="|" horiz-adv-x="147" 
d="M72 654q23 0 39.5 -16.5t16.5 -39.5v-688q0 -23 -16.5 -39.5t-39.5 -16.5t-38.5 16.5t-15.5 39.5v688q0 23 15.5 39.5t38.5 16.5z" />
    <glyph glyph-name="colon" unicode=":" horiz-adv-x="184" 
d="M148 52q0 -21 -15.5 -36.5t-37.5 -15.5q-21 0 -36 15.5t-15 36.5q0 22 15 37.5t36 15.5q22 0 37.5 -15.5t15.5 -37.5zM148 433q0 -22 -15.5 -37.5t-37.5 -15.5q-21 0 -36 15.5t-15 37.5q0 21 15 36.5t36 15.5q22 0 37.5 -15.5t15.5 -36.5z" />
    <glyph glyph-name="semicolon" unicode=";" horiz-adv-x="190" 
d="M152 433q0 -22 -15.5 -37.5t-38.5 -15.5q-21 0 -36 15.5t-15 37.5q0 21 15 36.5t36 15.5q23 0 38.5 -15.5t15.5 -36.5zM98 105q-21 0 -36 -15.5t-15 -36.5v-136q0 -21 15 -36t36 -15q23 0 38.5 15t15.5 36v136q0 21 -15.5 36.5t-38.5 15.5z" />
    <glyph glyph-name="quoteleft" unicode="&#x2018;" horiz-adv-x="170" 
d="M104 645v-1q4 9 9 9q8 0 8 -10v-178q0 -21 -15 -36t-37 -15q-23 0 -36.5 16t-13.5 36q0 14 7 27z" />
    <glyph glyph-name="quoteright" unicode="&#x2019;" horiz-adv-x="169" 
d="M36 422v1q-3 -9 -8 -9q-9 0 -9 10v178q0 21 15 36t37 15q23 0 36.5 -16t13.5 -37q0 -13 -7 -27z" />
    <glyph glyph-name="quotedblleft" unicode="&#x201c;" horiz-adv-x="338" 
d="M100 645v-1q4 9 9 9q9 0 9 -10v-178q0 -21 -15 -36t-38 -15q-22 0 -36 16t-14 36q0 6 1.5 13t6.5 14zM270 645v-1q4 9 9 9q9 0 9 -10v-178q0 -21 -15 -36t-38 -15q-22 0 -36 16t-14 36q0 6 1.5 13t6.5 14z" />
    <glyph glyph-name="quotedblright" unicode="&#x201d;" horiz-adv-x="338" 
d="M202 422v1q-5 -9 -9 -9q-9 0 -9 10v178q0 21 15 36t38 15q22 0 36 -16t14 -37q0 -11 -8 -27zM32 422v1q-3 -9 -9 -9q-9 0 -9 10v178q0 21 15 36t38 15q22 0 36 -16t14 -37q0 -11 -8 -27z" />
    <glyph glyph-name="quotesinglbase" unicode="&#x201a;" horiz-adv-x="172" 
d="M36 -162v1q-3 -9 -8 -9q-9 0 -9 10v177q0 22 15 37t37 15q23 0 36.5 -16t13.5 -37q0 -13 -7 -27z" />
    <glyph glyph-name="quotedblbase" unicode="&#x201e;" horiz-adv-x="318" 
d="M203 -162v1q-3 -9 -9 -9q-9 0 -9 10v177q0 22 15 37t38 15q22 0 36 -16t14 -37q0 -5 -1.5 -12t-6.5 -15zM33 -162v1q-3 -9 -9 -9q-9 0 -9 10v177q0 22 15 37t38 15q22 0 36 -16t14 -37q0 -5 -1.5 -12t-6.5 -15z" />
    <glyph glyph-name="grave" unicode="`" horiz-adv-x="245" 
d="M208 541q1 -1 2 -1l1 -1q0 -8 -3 -6q-39 5 -78.5 11t-77.5 11q-17 2 -27.5 17t-8.5 33v-1q2 17 14.5 26t27.5 9q16 0 29 -10z" />
    <glyph glyph-name="agrave" unicode="&#xe0;" horiz-adv-x="535" 
d="M283 483q45 -5 84.5 -26t68 -53.5t45 -74t16.5 -87.5v-193q0 -20 -15 -34.5t-34 -14.5q-7 0 -15.5 1t-16.5 5.5t-14.5 12.5t-7.5 22q-5 -2 -18 -9t-19 -10q-11 -5 -23 -9t-25 -8q-25 -5 -54 -5q-75 0 -134 40.5t-88 104.5q-10 22 -15.5 46.5t-5.5 50.5t5.5 50t15.5 47
q29 65 88 105t134 40h14t14 -1zM254 98q29 0 55.5 11t46 30.5t31 45.5t11.5 57q0 28 -11.5 54.5t-31.5 46t-46 31.5t-55 12t-54.5 -11.5t-45.5 -31.5t-31.5 -46t-11.5 -55q0 -30 12 -56t32.5 -45.5t46 -31t52.5 -11.5zM352 575q1 -1 2 -1l1 -1q0 -8 -3 -6q-39 5 -78.5 11
t-77.5 11q-17 2 -27.5 17t-8.5 33v-1q2 17 14.5 26t27.5 9q16 0 29 -10z" />
    <glyph glyph-name="acute" unicode="&#xb4;" horiz-adv-x="245" 
d="M140 644q13 10 28 10q16 0 28.5 -9t14.5 -26v1q2 -18 -8.5 -33t-27.5 -17l-156 -22q-3 -2 -3 6l2 2z" />
    <glyph glyph-name="aacute" unicode="&#xe1;" horiz-adv-x="535" 
d="M283 483q45 -5 84.5 -26t68 -53.5t45 -74t16.5 -87.5v-193q0 -20 -15 -34.5t-34 -14.5q-7 0 -15.5 1t-16.5 5.5t-14.5 12.5t-7.5 22q-5 -2 -18 -9t-19 -10q-11 -5 -23 -9t-25 -8q-25 -5 -54 -5q-75 0 -134 40.5t-88 104.5q-10 22 -15.5 46.5t-5.5 50.5t5.5 50t15.5 47
q29 65 88 105t134 40h14t14 -1zM254 98q29 0 55.5 11t46 30.5t31 45.5t11.5 57q0 28 -11.5 54.5t-31.5 46t-46 31.5t-55 12t-54.5 -11.5t-45.5 -31.5t-31.5 -46t-11.5 -55q0 -30 12 -56t32.5 -45.5t46 -31t52.5 -11.5zM298 680q13 10 28 10q16 0 28.5 -9t14.5 -26v1
q2 -18 -8.5 -33t-27.5 -17l-156 -22q-3 -2 -3 6l2 2z" />
    <glyph glyph-name="question" unicode="?" horiz-adv-x="404" 
d="M203 639q40 0 76 -15.5t62 -41.5t41.5 -62t15.5 -76q0 -57 -29 -103.5t-77 -70.5q-34 -18 -77 -21v-35q0 -22 -15.5 -36.5t-35.5 -14.5q-22 0 -37.5 14.5t-15.5 36.5v85v1q0 2 0.5 2.5t0.5 2.5q0 10 5 18q0 1 1 1q0 2 1 2q0 1 0.5 1.5t0.5 1.5h1q15 23 43 23h39
q19 0 36 7t29.5 19.5t19.5 29.5t7 36t-7 35.5t-19.5 29t-29.5 20t-36 7.5t-36 -7.5t-29.5 -20t-19.5 -29t-7 -35.5q0 -22 -14.5 -37t-35.5 -15q-23 0 -38 15t-15 37q0 40 15.5 76t42 62t62 41.5t75.5 15.5zM215 51q0 -22 -15 -37t-36 -15q-22 0 -37.5 15t-15.5 37
q0 21 15.5 36.5t37.5 15.5q21 0 36 -15.5t15 -36.5z" />
    <glyph glyph-name="A" unicode="A" horiz-adv-x="417" 
d="M400 444v-394q0 -21 -14.5 -35.5t-35.5 -14.5q-23 0 -37 14.5t-14 35.5v146h-182v-146q0 -21 -15 -35.5t-37 -14.5q-21 0 -35 15t-14 35v396q0 40 15.5 75.5t41 61.5t60.5 41t74 15q40 0 75 -15t61 -40.5t41.5 -60.5t15.5 -74v-5zM299 446q0 19 -7 35.5t-19.5 29
t-29.5 19.5t-36 7q-38 0 -64 -26.5t-26 -64.5v-146h182v146z" />
    <glyph glyph-name="B" unicode="B" horiz-adv-x="414" 
d="M402 193q0 -40 -15 -75t-41 -61.5t-61 -41.5t-75 -15h-140q-22 0 -37.5 15t-15.5 37v412q0 36 14 67.5t38 55.5t55.5 38t67.5 14q38 0 70 -15t55.5 -40t37 -56t13.5 -64q0 -34 -11.5 -63.5t-31.5 -52.5q35 -26 56 -66.5t21 -88.5zM192 536q-29 0 -50 -20.5t-21 -51.5v-72
h71q30 0 51.5 21t21.5 51q0 31 -21.5 51.5t-51.5 20.5zM210 282h-89v-179h89q37 1 63 26.5t26 63.5q0 37 -26 63t-63 26z" />
    <glyph glyph-name="equal" unicode="=" horiz-adv-x="402" 
d="M385 455q0 -21 -14.5 -36.5t-36.5 -15.5h-266q-22 0 -36.5 15.5t-14.5 36.5q0 23 14.5 38t36.5 15h266q22 0 36.5 -15t14.5 -38zM385 270q0 -21 -14.5 -36.5t-36.5 -15.5h-266q-22 0 -36.5 15.5t-14.5 36.5q0 23 14.5 38t36.5 15h266q22 0 36.5 -15t14.5 -38z" />
    <glyph glyph-name="less" unicode="&#x3c;" horiz-adv-x="372" 
d="M324 218q20 -11 26 -32t-5 -41q-11 -18 -31.5 -25t-40.5 4l-237 129q-14 7 -21 20t-7 27q-1 15 6 28t21 20l237 129q20 11 41 4t32 -26t4.5 -40t-27.5 -32l-150 -83l152 -82v0z" />
    <glyph glyph-name="circumflex" unicode="&#x2c6;" horiz-adv-x="320" 
d="M295 582q5 -3 5 -10t-3 -12q-5 -4 -11 -5.5t-10 3.5l-119 100q-26 -22 -59 -50t-59 -50q-5 -2 -12 -2.5t-9 2.5q-4 4 -3.5 11.5t4.5 12.5l128 108q6 4 11.5 3t9.5 -3l127 -108v0z" />
    <glyph glyph-name="tilde" unicode="&#x2dc;" horiz-adv-x="414" 
d="M375 648q6 -4 7 -12.5t-3 -15.5q-21 -28 -50.5 -43t-61.5 -15q-19 0 -38 6.5t-36 17.5q-14 12 -32 17.5t-34 5.5q-48 0 -78 -38q-5 -7 -12.5 -8t-14.5 4t-8 13t4 15q20 28 49 42t61 14q43 0 83 -28q12 -10 27 -14t29 -4q23 0 44.5 10t35.5 29q5 7 13 8t15 -4z" />
    <glyph glyph-name="exclamdown" unicode="&#xa1;" horiz-adv-x="181" 
d="M121 454.003q0 20.999 -15 36.498t-36 15.499q-22 0 -37.5 -15.499t-15.5 -36.498q0 -21.998 15.5 -37.4971t37.5 -15.499q21 0 36 15.499t15 37.4971zM70 -132.961q20 0 35.5 14.999t15.5 37.998v367.978q0 21.998 -15.5 36.9971t-35.5 14.999q-22 0 -37.5 -14.999
t-15.5 -36.9971v-367.978q0 -22.999 15.5 -37.998t37.5 -14.999z" />
    <glyph glyph-name="questiondown" unicode="&#xbf;" horiz-adv-x="446" 
d="M205.013 -132.961q-39.998 0 -75.9961 15.499q-35.9971 15.499 -61.9961 41.4971q-25.998 25.999 -41.4971 61.9961q-15.499 35.998 -15.499 75.9961q0 56.9961 28.998 103.493t76.9951 70.4961q33.998 17.999 76.9951 20.999v34.9971q0 21.999 15.499 36.498
q15.5 14.499 35.498 14.499q21.999 0 37.498 -14.499t15.499 -36.498v-84.9941v-1q0 -2 -0.5 -2.5t-0.5 -2.5q0 -9.99902 -5 -17.999q0 -1 -1 -1q0 -2 -1 -2q0 -1 -0.5 -1.5q-0.499023 -0.5 -0.499023 -1.49902h-1q-15 -22.999 -42.998 -22.999h-38.9971
q-18.999 0 -35.998 -7q-16.999 -6.99902 -29.498 -19.498q-12.499 -12.5 -19.499 -29.498q-7 -16.999 -7 -35.998t7 -35.498t19.499 -28.998t29.498 -19.999q16.999 -7.49902 35.998 -7.49902t35.9971 7.49902q16.999 7.5 29.499 19.999q12.499 12.499 19.498 28.998
q7 16.499 7 35.498q0 21.998 14.499 36.9971t35.498 14.999q22.998 0 37.9971 -14.999t14.999 -36.9971q0 -39.998 -15.499 -75.9961q-15.499 -35.9971 -41.9971 -61.9961q-26.498 -25.998 -61.9961 -41.4971t-75.4951 -15.499zM193.013 455.003q0 21.999 14.999 36.998
q15 14.999 35.998 14.999q21.999 0 37.498 -14.999t15.499 -36.998q0 -20.999 -15.499 -36.498t-37.498 -15.499q-20.998 0 -35.998 15.499q-14.999 15.499 -14.999 36.498z" />
    <glyph glyph-name="acircumflex" unicode="&#xe2;" horiz-adv-x="535" 
d="M283 483q45 -5 84.5 -26t68 -53.5t45 -74t16.5 -87.5v-193q0 -20 -15 -34.5t-34 -14.5q-7 0 -15.5 1t-16.5 5.5t-14.5 12.5t-7.5 22q-5 -2 -18 -9t-19 -10q-11 -5 -23 -9t-25 -8q-25 -5 -54 -5q-75 0 -134 40.5t-88 104.5q-10 22 -15.5 46.5t-5.5 50.5t5.5 50t15.5 47
q29 65 88 105t134 40h14t14 -1zM254 98q29 0 55.5 11t46 30.5t31 45.5t11.5 57q0 28 -11.5 54.5t-31.5 46t-46 31.5t-55 12t-54.5 -11.5t-45.5 -31.5t-31.5 -46t-11.5 -55q0 -30 12 -56t32.5 -45.5t46 -31t52.5 -11.5zM409 582q5 -3 5 -10t-3 -12q-5 -4 -11 -5.5t-10 3.5
l-119 100q-26 -22 -59 -50t-59 -50q-5 -2 -12 -2.5t-9 2.5q-4 4 -3.5 11.5t4.5 12.5l128 108q6 4 11.5 3t9.5 -3l127 -108v0z" />
    <glyph glyph-name="atilde" unicode="&#xe3;" horiz-adv-x="535" 
d="M283 483q45 -5 84.5 -26t68 -53.5t45 -74t16.5 -87.5v-193q0 -20 -15 -34.5t-34 -14.5q-7 0 -15.5 1t-16.5 5.5t-14.5 12.5t-7.5 22q-5 -2 -18 -9t-19 -10q-11 -5 -23 -9t-25 -8q-25 -5 -54 -5q-75 0 -134 40.5t-88 104.5q-10 22 -15.5 46.5t-5.5 50.5t5.5 50t15.5 47
q29 65 88 105t134 40h14t14 -1zM254 98q29 0 55.5 11t46 30.5t31 45.5t11.5 57q0 28 -11.5 54.5t-31.5 46t-46 31.5t-55 12t-54.5 -11.5t-45.5 -31.5t-31.5 -46t-11.5 -55q0 -30 12 -56t32.5 -45.5t46 -31t52.5 -11.5zM453 687q6 -4 7 -12.5t-3 -15.5q-21 -28 -50.5 -43
t-61.5 -15q-19 0 -38 6.5t-36 17.5q-14 12 -32 17.5t-34 5.5q-48 0 -78 -38q-5 -7 -12.5 -8t-14.5 4t-8 13t4 15q20 28 49 42t61 14q43 0 83 -28q12 -10 27 -14t29 -4q23 0 44.5 10t35.5 29q5 7 13 8t15 -4z" />
    <glyph glyph-name="dieresis" unicode="&#xa8;" horiz-adv-x="357" 
d="M119 642q0 -22 -15.5 -37t-37.5 -15t-37 15t-15 37q0 21 15 36.5t37 15.5t37.5 -15.5t15.5 -36.5zM329 642q0 -22 -15.5 -37t-37.5 -15q-21 0 -36 15t-15 37q0 21 15 36.5t36 15.5q22 0 37.5 -15.5t15.5 -36.5z" />
    <glyph glyph-name="egrave" unicode="&#xe8;" horiz-adv-x="538" 
d="M257 486q48 0 92.5 -20.5t78 -54t54 -78t20.5 -92.5q0 -20 -15 -35.5t-38 -14.5h-336q29 -52 67.5 -74t76.5 -22q21 0 36 5t26 9q13 9 29 9q22 -2 35.5 -17.5t13.5 -33.5q0 -8 -2.5 -17t-10.5 -16l1 2q-26 -21 -59 -30t-70 -10q-49 -2 -93.5 17.5t-78 53.5t-53 79
t-19.5 95q0 48 19.5 92.5t53.5 78t78 54t94 20.5zM401 295q-24 40 -61.5 65.5t-82.5 25.5q-47 0 -84.5 -26t-58.5 -64q-2 -2 -2 -4h290q-1 0 -1 1v2zM369 577q1 -1 2 -1l1 -1q0 -8 -3 -6q-39 5 -78.5 11t-77.5 11q-17 2 -27.5 17t-8.5 33v-1q2 17 14.5 26t27.5 9
q16 0 29 -10z" />
    <glyph glyph-name="eacute" unicode="&#xe9;" horiz-adv-x="538" 
d="M257 486q48 0 92.5 -20.5t78 -54t54 -78t20.5 -92.5q0 -20 -15 -35.5t-38 -14.5h-336q29 -52 67.5 -74t76.5 -22q21 0 36 5t26 9q13 9 29 9q22 -2 35.5 -17.5t13.5 -33.5q0 -8 -2.5 -17t-10.5 -16l1 2q-26 -21 -59 -30t-70 -10q-49 -2 -93.5 17.5t-78 53.5t-53 79
t-19.5 95q0 48 19.5 92.5t53.5 78t78 54t94 20.5zM401 295q-24 40 -61.5 65.5t-82.5 25.5q-47 0 -84.5 -26t-58.5 -64q-2 -2 -2 -4h290q-1 0 -1 1v2zM299 681q13 10 28 10q16 0 28.5 -9t14.5 -26v1q2 -18 -8.5 -33t-27.5 -17l-156 -22q-3 -2 -3 6l2 2z" />
    <glyph glyph-name="ecircumflex" unicode="&#xea;" horiz-adv-x="538" 
d="M257 486q48 0 92.5 -20.5t78 -54t54 -78t20.5 -92.5q0 -20 -15 -35.5t-38 -14.5h-336q29 -52 67.5 -74t76.5 -22q21 0 36 5t26 9q13 9 29 9q22 -2 35.5 -17.5t13.5 -33.5q0 -8 -2.5 -17t-10.5 -16l1 2q-26 -21 -59 -30t-70 -10q-49 -2 -93.5 17.5t-78 53.5t-53 79
t-19.5 95q0 48 19.5 92.5t53.5 78t78 54t94 20.5zM401 295q-24 40 -61.5 65.5t-82.5 25.5q-47 0 -84.5 -26t-58.5 -64q-2 -2 -2 -4h290q-1 0 -1 1v2zM407 584q5 -3 5 -10t-3 -12q-5 -4 -11 -5.5t-10 3.5l-119 100q-26 -22 -59 -50t-59 -50q-5 -2 -12 -2.5t-9 2.5
q-4 4 -3.5 11.5t4.5 12.5l128 108q6 4 11.5 3t9.5 -3l127 -108v0z" />
    <glyph glyph-name="edieresis" unicode="&#xeb;" horiz-adv-x="538" 
d="M257 486q48 0 92.5 -20.5t78 -54t54 -78t20.5 -92.5q0 -20 -15 -35.5t-38 -14.5h-336q29 -52 67.5 -74t76.5 -22q21 0 36 5t26 9q13 9 29 9q22 -2 35.5 -17.5t13.5 -33.5q0 -8 -2.5 -17t-10.5 -16l1 2q-26 -21 -59 -30t-70 -10q-49 -2 -93.5 17.5t-78 53.5t-53 79
t-19.5 95q0 48 19.5 92.5t53.5 78t78 54t94 20.5zM401 295q-24 40 -61.5 65.5t-82.5 25.5q-47 0 -84.5 -26t-58.5 -64q-2 -2 -2 -4h290q-1 0 -1 1v2zM217 642q0 -22 -15.5 -37t-37.5 -15t-37 15t-15 37q0 21 15 36.5t37 15.5t37.5 -15.5t15.5 -36.5zM427 642
q0 -22 -15.5 -37t-37.5 -15q-21 0 -36 15t-15 37q0 21 15 36.5t36 15.5q22 0 37.5 -15.5t15.5 -36.5z" />
    <glyph glyph-name="ograve" unicode="&#xf2;" horiz-adv-x="536" 
d="M255 474q49 0 92.5 -19.5t76.5 -52.5t52.5 -77t19.5 -94t-19 -93.5t-51.5 -76.5t-76.5 -52t-95 -19q-50 0 -94 18t-77 50.5t-52 76.5t-19 96q0 50 18.5 93.5t51.5 76t77.5 52t95.5 21.5zM254 375q-29 0 -55.5 -11t-46 -30.5t-31 -45.5t-11.5 -57q0 -29 11.5 -55.5
t31 -46.5t46 -31.5t55.5 -11.5t55.5 11.5t46 31.5t31 46.5t11.5 55.5q-3 59 -42 99.5t-101 44.5h-1zM366 578q1 -1 2 -1l1 -1q0 -8 -3 -6q-39 5 -78.5 11t-77.5 11q-17 2 -27.5 17t-8.5 33v-1q2 17 14.5 26t27.5 9q16 0 29 -10z" />
    <glyph glyph-name="oacute" unicode="&#xf3;" horiz-adv-x="536" 
d="M255 474q49 0 92.5 -19.5t76.5 -52.5t52.5 -77t19.5 -94t-19 -93.5t-51.5 -76.5t-76.5 -52t-95 -19q-50 0 -94 18t-77 50.5t-52 76.5t-19 96q0 50 18.5 93.5t51.5 76t77.5 52t95.5 21.5zM254 375q-29 0 -55.5 -11t-46 -30.5t-31 -45.5t-11.5 -57q0 -29 11.5 -55.5
t31 -46.5t46 -31.5t55.5 -11.5t55.5 11.5t46 31.5t31 46.5t11.5 55.5q-3 59 -42 99.5t-101 44.5h-1zM292 680q13 10 28 10q16 0 28.5 -9t14.5 -26v1q2 -18 -8.5 -33t-27.5 -17l-156 -22q-3 -2 -3 6l2 2z" />
    <glyph glyph-name="ocircumflex" unicode="&#xf4;" horiz-adv-x="536" 
d="M255 474q49 0 92.5 -19.5t76.5 -52.5t52.5 -77t19.5 -94t-19 -93.5t-51.5 -76.5t-76.5 -52t-95 -19q-50 0 -94 18t-77 50.5t-52 76.5t-19 96q0 50 18.5 93.5t51.5 76t77.5 52t95.5 21.5zM254 375q-29 0 -55.5 -11t-46 -30.5t-31 -45.5t-11.5 -57q0 -29 11.5 -55.5
t31 -46.5t46 -31.5t55.5 -11.5t55.5 11.5t46 31.5t31 46.5t11.5 55.5q-3 59 -42 99.5t-101 44.5h-1zM409 585q5 -3 5 -10t-3 -12q-5 -4 -11 -5.5t-10 3.5l-119 100q-26 -22 -59 -50t-59 -50q-5 -2 -12 -2.5t-9 2.5q-4 4 -3.5 11.5t4.5 12.5l128 108q6 4 11.5 3t9.5 -3
l127 -108v0z" />
    <glyph glyph-name="otilde" unicode="&#xf5;" horiz-adv-x="536" 
d="M255 474q49 0 92.5 -19.5t76.5 -52.5t52.5 -77t19.5 -94t-19 -93.5t-51.5 -76.5t-76.5 -52t-95 -19q-50 0 -94 18t-77 50.5t-52 76.5t-19 96q0 50 18.5 93.5t51.5 76t77.5 52t95.5 21.5zM254 375q-29 0 -55.5 -11t-46 -30.5t-31 -45.5t-11.5 -57q0 -29 11.5 -55.5
t31 -46.5t46 -31.5t55.5 -11.5t55.5 11.5t46 31.5t31 46.5t11.5 55.5q-3 59 -42 99.5t-101 44.5h-1zM448 687q6 -4 7 -12.5t-3 -15.5q-21 -28 -50.5 -43t-61.5 -15q-19 0 -38 6.5t-36 17.5q-14 12 -32 17.5t-34 5.5q-48 0 -78 -38q-5 -7 -12.5 -8t-14.5 4t-8 13t4 15
q20 28 49 42t61 14q43 0 83 -28q12 -10 27 -14t29 -4q23 0 44.5 10t35.5 29q5 7 13 8t15 -4z" />
    <glyph glyph-name="odieresis" unicode="&#xf6;" horiz-adv-x="536" 
d="M255 474q49 0 92.5 -19.5t76.5 -52.5t52.5 -77t19.5 -94t-19 -93.5t-51.5 -76.5t-76.5 -52t-95 -19q-50 0 -94 18t-77 50.5t-52 76.5t-19 96q0 50 18.5 93.5t51.5 76t77.5 52t95.5 21.5zM254 375q-29 0 -55.5 -11t-46 -30.5t-31 -45.5t-11.5 -57q0 -29 11.5 -55.5
t31 -46.5t46 -31.5t55.5 -11.5t55.5 11.5t46 31.5t31 46.5t11.5 55.5q-3 59 -42 99.5t-101 44.5h-1zM217 642q0 -22 -15.5 -37t-37.5 -15t-37 15t-15 37q0 21 15 36.5t37 15.5t37.5 -15.5t15.5 -36.5zM427 642q0 -22 -15.5 -37t-37.5 -15q-21 0 -36 15t-15 37q0 21 15 36.5
t36 15.5q22 0 37.5 -15.5t15.5 -36.5z" />
    <glyph glyph-name="ugrave" unicode="&#xf9;" horiz-adv-x="535" 
d="M65 485q19 -1 34 -16t15 -35v-192q0 -30 11.5 -56t31 -45.5t46 -31t55.5 -11.5q28 0 54 10.5t46 28.5t31.5 43.5t11.5 55.5v199q0 13 6 24q5 5 9 11q17 15 34 15q19 0 36 -15q8 -8 11 -16t4 -17v-195q0 -50 -19 -94t-52 -77t-77.5 -52t-95.5 -19q-48 -2 -92 16.5
t-77 50.5t-53 75.5t-20 91.5v201q0 20 14.5 34.5t35.5 15.5zM369 578q1 -1 2 -1l1 -1q0 -8 -3 -6q-39 5 -78.5 11t-77.5 11q-17 2 -27.5 17t-8.5 33v-1q2 17 14.5 26t27.5 9q16 0 29 -10z" />
    <glyph glyph-name="uacute" unicode="&#xfa;" horiz-adv-x="535" 
d="M65 485q19 -1 34 -16t15 -35v-192q0 -30 11.5 -56t31 -45.5t46 -31t55.5 -11.5q28 0 54 10.5t46 28.5t31.5 43.5t11.5 55.5v199q0 13 6 24q5 5 9 11q17 15 34 15q19 0 36 -15q8 -8 11 -16t4 -17v-195q0 -50 -19 -94t-52 -77t-77.5 -52t-95.5 -19q-48 -2 -92 16.5
t-77 50.5t-53 75.5t-20 91.5v201q0 20 14.5 34.5t35.5 15.5zM301 680q13 10 28 10q16 0 28.5 -9t14.5 -26v1q2 -18 -8.5 -33t-27.5 -17l-156 -22q-3 -2 -3 6l2 2z" />
    <glyph glyph-name="ucircumflex" unicode="&#xfb;" horiz-adv-x="535" 
d="M65 485q19 -1 34 -16t15 -35v-192q0 -30 11.5 -56t31 -45.5t46 -31t55.5 -11.5q28 0 54 10.5t46 28.5t31.5 43.5t11.5 55.5v199q0 13 6 24q5 5 9 11q17 15 34 15q19 0 36 -15q8 -8 11 -16t4 -17v-195q0 -50 -19 -94t-52 -77t-77.5 -52t-95.5 -19q-48 -2 -92 16.5
t-77 50.5t-53 75.5t-20 91.5v201q0 20 14.5 34.5t35.5 15.5zM414 585q5 -3 5 -10t-3 -12q-5 -4 -11 -5.5t-10 3.5l-119 100q-26 -22 -59 -50t-59 -50q-5 -2 -12 -2.5t-9 2.5q-4 4 -3.5 11.5t4.5 12.5l128 108q6 4 11.5 3t9.5 -3l127 -108v0z" />
    <glyph glyph-name="udieresis" unicode="&#xfc;" horiz-adv-x="535" 
d="M65 485q19 -1 34 -16t15 -35v-192q0 -30 11.5 -56t31 -45.5t46 -31t55.5 -11.5q28 0 54 10.5t46 28.5t31.5 43.5t11.5 55.5v199q0 13 6 24q5 5 9 11q17 15 34 15q19 0 36 -15q8 -8 11 -16t4 -17v-195q0 -50 -19 -94t-52 -77t-77.5 -52t-95.5 -19q-48 -2 -92 16.5
t-77 50.5t-53 75.5t-20 91.5v201q0 20 14.5 34.5t35.5 15.5zM226 642q0 -22 -15.5 -37t-37.5 -15t-37 15t-15 37q0 21 15 36.5t37 15.5t37.5 -15.5t15.5 -36.5zM436 642q0 -22 -15.5 -37t-37.5 -15q-21 0 -36 15t-15 37q0 21 15 36.5t36 15.5q22 0 37.5 -15.5t15.5 -36.5z
" />
    <glyph glyph-name="yacute" unicode="&#xfd;" horiz-adv-x="549" 
d="M56 485q20 0 35.5 -12.5t15.5 -32.5v-197q0 -29 11 -55t30 -45.5t45.5 -31t56.5 -11.5q27 0 53 10.5t46.5 28.5t32.5 43.5t12 55.5v199q0 20 14 34t35 14q20 0 35 -12.5t15 -32.5v-549q0 -20 -15 -33t-35 -13q-19 0 -34 13.5t-15 35.5v153q-40 -25 -76.5 -35.5
t-67.5 -10.5q-49 0 -93 19t-77.5 52t-53 79t-19.5 100v186q0 20 14 34t35 14zM285 681q13 10 28 10q16 0 28.5 -9t14.5 -26v1q2 -18 -8.5 -33t-27.5 -17l-156 -22q-3 -2 -3 6l2 2z" />
    <glyph glyph-name="ydieresis" unicode="&#xff;" horiz-adv-x="549" 
d="M56 485q20 0 35.5 -12.5t15.5 -32.5v-197q0 -29 11 -55t30 -45.5t45.5 -31t56.5 -11.5q27 0 53 10.5t46.5 28.5t32.5 43.5t12 55.5v199q0 20 14 34t35 14q20 0 35 -12.5t15 -32.5v-549q0 -20 -15 -33t-35 -13q-19 0 -34 13.5t-15 35.5v153q-40 -25 -76.5 -35.5
t-67.5 -10.5q-49 0 -93 19t-77.5 52t-53 79t-19.5 100v186q0 20 14 34t35 14zM204 642q0 -22 -15.5 -37t-37.5 -15t-37 15t-15 37q0 21 15 36.5t37 15.5t37.5 -15.5t15.5 -36.5zM414 642q0 -22 -15.5 -37t-37.5 -15q-21 0 -36 15t-15 37q0 21 15 36.5t36 15.5
q22 0 37.5 -15.5t15.5 -36.5z" />
    <glyph glyph-name="C" unicode="C" horiz-adv-x="402" 
d="M338 191q22 0 37 -15t15 -36q0 -4 -1 -11t-4 -10q-22 -53 -70 -86t-108 -33q-39 0 -73.5 15t-60.5 41t-41.5 61t-16.5 75v255q0 33 10 60q10 29 27.5 53t41.5 41.5t52.5 27.5t60.5 10q30 0 57.5 -9t50.5 -24.5t41 -37.5t29 -48q1 -1 1 -4q4 -8 4 -17q0 -21 -15 -36
t-37 -15q-15 0 -27.5 8t-19.5 21q0 2 -1 3t-2 3q-11 23 -32.5 38t-48.5 15q-17 0 -32.5 -6.5t-27.5 -17.5t-19.5 -26t-8.5 -31v-271q2 -34 27.5 -57.5t60.5 -23.5q27 0 48.5 15t32.5 38q1 2 2 3t1 3q7 13 19.5 21t27.5 8z" />
    <glyph glyph-name="D" unicode="D" horiz-adv-x="450" 
d="M214 639q43 0 83.5 -17t71 -47t49 -70.5t18.5 -86.5v-197q0 -44 -18 -83.5t-48 -70.5t-70.5 -49t-85.5 -18h-145q-20 0 -35.5 14t-15.5 37v537q0 20 15 35.5t36 15.5h145zM119 536v-434h95q25 0 47 9.5t38 25.5t25.5 37.5t9.5 46.5v197q0 25 -9.5 46.5t-25.5 37.5t-38 25
t-47 9h-95z" />
    <glyph glyph-name="E" unicode="E" horiz-adv-x="418" 
d="M351 101q21 0 36 -15t15 -35q0 -22 -15 -36.5t-36 -14.5h-283q-20 0 -35 14.5t-15 36.5v537q0 20 14 35.5t36 15.5h283q21 0 36 -15.5t15 -35.5q0 -22 -15 -36.5t-36 -14.5h-234v-146h163q20 0 35 -15t15 -36t-15 -35.5t-35 -14.5h-163v-189h234v0z" />
    <glyph glyph-name="F" unicode="F" horiz-adv-x="405" 
d="M120 537v-187h161q22 0 36 -15.5t14 -35.5q0 -21 -14 -36t-36 -15h-161v-197q0 -22 -14.5 -36.5t-36.5 -14.5t-36.5 14.5t-14.5 36.5v537q0 20 14.5 35.5t36.5 15.5h284q20 0 35 -15.5t15 -35.5q0 -22 -15 -36.5t-35 -14.5h-233z" />
    <glyph glyph-name="G" unicode="G" horiz-adv-x="467" 
d="M405 342q22 0 36 -14t14 -34v-72q0 -65 -32 -116t-85 -80h1q-23 -12 -49.5 -19t-54.5 -7q-29 0 -54.5 7t-49.5 19h1q-52 29 -85 80t-33 116v196q1 44 18.5 84t47 70.5t69.5 48.5t86 18q58 0 109 -29t82 -80q0 -2 0.5 -4t4.5 -6q5 -12 5 -22q0 -21 -15.5 -35.5
t-35.5 -14.5q-15 0 -26.5 7.5t-17.5 19.5q-18 28 -45 45t-61 17q-25 0 -46.5 -9.5t-37.5 -25.5t-25.5 -37.5t-9.5 -46.5v-196q0 -25 9.5 -47t25.5 -38.5t37.5 -26t46.5 -9.5q24 0 46 11t38.5 30.5t26.5 45t10 55.5q-32 0 -52.5 14t-20.5 37q0 20 14.5 34t37.5 14h70v0z" />
    <glyph glyph-name="H" unicode="H" horiz-adv-x="467" 
d="M397 638q20 0 36 -14.5t16 -35.5v-538q0 -19 -16 -34.5t-36 -15.5t-35 14.5t-15 35.5v218h-228v-218q0 -21 -14.5 -35.5t-36.5 -14.5q-20 0 -34.5 14t-15.5 36v538q0 23 16.5 36.5t33.5 13.5q22 0 36.5 -15t14.5 -35v-218h228v218q0 20 15 35t35 15z" />
    <glyph glyph-name="I" unicode="I" horiz-adv-x="137" 
d="M69 638q20 0 34.5 -15t14.5 -35v-538q0 -21 -14.5 -35.5t-34.5 -14.5q-22 0 -36.5 14.5t-14.5 35.5v538q0 20 14.5 35t36.5 15z" />
    <glyph glyph-name="J" unicode="J" horiz-adv-x="289" 
d="M221 638q23 0 38 -15t15 -35v-367q-1 -47 -18.5 -86.5t-47.5 -69t-70.5 -47t-86.5 -18.5h1q-20 0 -34.5 14t-14.5 36q0 21 14.5 36t34.5 15q25 0 47 9.5t38.5 26t26 38t9.5 46.5v367q0 20 14 35t34 15z" />
    <glyph glyph-name="K" unicode="K" horiz-adv-x="476" 
d="M445 85q14 -13 14 -35q0 -10 -3.5 -19.5t-11.5 -17.5h1q-13 -14 -35 -14t-37 15v-1l-253 257v-220q0 -21 -14.5 -35.5t-36.5 -14.5q-21 0 -36 14.5t-15 35.5v538q0 20 15 35t36 15q22 0 36.5 -15t14.5 -35v-220l60 60t66.5 67t66.5 67.5t60 60.5v-1q16 15 37 15t35 -14
h-1q15 -15 15 -37q0 -9 -3 -18t-11 -17l-232 -232z" />
    <glyph glyph-name="L" unicode="L" horiz-adv-x="389" 
d="M338 107q20 0 34.5 -15t14.5 -35q0 -22 -14.5 -37t-34.5 -15h-268q-21 0 -35.5 14.5t-16.5 37.5v536q0 21 15 35.5t37 14.5q20 0 35 -14.5t15 -35.5v-486h218v0z" />
    <glyph glyph-name="M" unicode="M" horiz-adv-x="710" 
d="M499 639q39 0 74 -15.5t61 -42.5t41.5 -62.5t17.5 -75.5v-392q0 -22 -15 -36.5t-35 -14.5q-22 0 -36.5 14.5t-14.5 36.5v384q0 19 -7.5 36.5t-20 30t-29.5 20t-36 7.5t-36 -7.5t-30 -20t-20.5 -30t-7.5 -36.5v-384q0 -22 -14.5 -36.5t-35.5 -14.5t-35.5 14.5t-14.5 36.5
v384q0 19 -7.5 36.5t-20 30t-30 20t-36.5 7.5t-36 -7.5t-29.5 -20t-20 -30t-7.5 -36.5v-384q0 -22 -14.5 -36.5t-36.5 -14.5q-20 0 -35 14.5t-15 36.5v393q0 38 15 73t41 62t61.5 43.5t76.5 16.5q35 0 71.5 -16.5t72.5 -45.5q34 27 70 44.5t74 17.5z" />
    <glyph glyph-name="N" unicode="N" horiz-adv-x="473" 
d="M237 639q44 0 82.5 -18t68 -48.5t48 -70.5t21.5 -85v-366q0 -22 -14.5 -36.5t-35.5 -14.5q-22 0 -36.5 14.5t-14.5 36.5v367q0 25 -9.5 46.5t-26 37.5t-38.5 25.5t-46 9.5q-25 0 -46.5 -9.5t-38 -25.5t-26 -37.5t-9.5 -46.5v-367q0 -22 -14.5 -36.5t-34.5 -14.5
q-23 0 -37 14.5t-14 36.5v367q1 45 18 84.5t47 69t70 47.5t86 20z" />
    <glyph glyph-name="O" unicode="O" horiz-adv-x="469" 
d="M235 639q44 0 83 -17.5t68.5 -48t47.5 -71t21 -85.5v-194q-2 -44 -19 -84.5t-46 -71t-69 -49t-86 -18.5q-44 0 -83 17.5t-68.5 48t-48 71t-21.5 86.5v195q1 44 18.5 84t47 70.5t69.5 48.5t86 18zM235 101q24 0 46 9.5t38.5 26t26 38.5t9.5 47v196q0 25 -9.5 46.5
t-26 37.5t-38.5 25.5t-46 9.5q-25 0 -47 -9.5t-38 -25.5t-25.5 -37.5t-9.5 -46.5v-196q0 -25 9.5 -47t25.5 -38.5t38 -26t47 -9.5z" />
    <glyph glyph-name="P" unicode="P" horiz-adv-x="460" 
d="M236 639q43 0 83 -17t70.5 -47t48.5 -70.5t18 -86.5t-17 -86.5t-46.5 -70.5t-69.5 -47.5t-87 -17.5q-21 0 -51 13.5t-68 42.5v-201q0 -22 -15 -36.5t-36 -14.5t-35.5 14.5t-14.5 36.5v366q1 43 18.5 83t47.5 71t69.5 49.5t84.5 18.5zM236 298q25 0 46.5 9t38 25.5t26 38
t9.5 47.5q0 25 -9.5 46.5t-26 37.5t-38 25.5t-46.5 9.5t-46.5 -9.5t-37.5 -25.5t-25.5 -37.5t-9.5 -46.5q0 -26 9.5 -47.5t25.5 -38t37.5 -25.5t46.5 -9z" />
    <glyph glyph-name="Q" unicode="Q" horiz-adv-x="472" 
d="M455 222q-1 -32 -10.5 -62.5t-27.5 -56.5l19 -20q16 -14 15.5 -34.5t-14.5 -34.5q-14 -15 -35 -15.5t-36 15.5l-20 19q-47 -33 -111 -33q-44 0 -83 17.5t-68.5 47.5t-48 70.5t-21.5 86.5v196q1 44 18.5 84t47 70.5t69.5 48.5t86 18q44 0 82.5 -17.5t68 -48t48 -71
t21.5 -86.5v-194zM345 175q9 21 9 46v197q0 24 -9.5 46t-25.5 38t-38 25.5t-46 9.5q-25 0 -47 -9.5t-38 -25.5t-25.5 -38t-9.5 -46v-197q0 -25 9.5 -46.5t25.5 -38t38 -26t47 -9.5q19 0 37 6l-41 41q-16 16 -16 37t16 35q13 14 34 14t37 -16z" />
    <glyph glyph-name="R" unicode="R" horiz-adv-x="468" 
d="M400 86q7 -7 10 -16.5t3 -19.5t-3 -19.5t-10 -16.5q-8 -8 -17.5 -11t-19.5 -3q-9 0 -18 3t-17 11l-211 211v-174q0 -22 -15 -36.5t-36 -14.5q-20 0 -35 14.5t-15 36.5v367q1 44 18 84t47 70.5t70 48.5t87 18q43 0 82.5 -17t69.5 -47t48 -70.5t18 -86.5q0 -71 -46 -129
t-122 -91zM238 537q-26 0 -48 -9.5t-38 -25.5t-25.5 -37.5t-9.5 -46.5q0 -24 9.5 -46t26 -38.5t38.5 -26t47 -9.5q24 0 45.5 9t38 25.5t26 38t9.5 47.5q0 25 -9.5 46.5t-26 37.5t-38 25.5t-45.5 9.5z" />
    <glyph glyph-name="S" unicode="S" horiz-adv-x="468" 
d="M198 537q-35 0 -58.5 -24.5t-24.5 -61.5q2 -33 25 -57t58 -24h73q35 0 68 -14.5t58.5 -39.5t41 -59t15.5 -73q0 -38 -14.5 -71t-39 -58t-58 -39.5t-71.5 -15.5h-190q-23 0 -37 14t-14 37q0 20 14.5 35t36.5 15h190q16 0 31.5 6.5t27 18t18.5 26.5t7 32q0 18 -7 33
t-18 26.5t-26.5 18t-31.5 7.5h-74q-36 1 -69.5 15t-59 38.5t-40.5 58t-15 72.5q0 36 14.5 69.5t39.5 59.5t58.5 41.5t71.5 15.5h190q20 0 34 -15.5t16 -37.5q-1 -21 -15 -35t-35 -14h-190v0z" />
    <glyph glyph-name="T" unicode="T" horiz-adv-x="456" 
d="M398 639q21 0 36 -15.5t15 -35.5q0 -22 -15 -36.5t-36 -14.5h-120v-486q0 -22 -14 -36.5t-36 -14.5t-36 14.5t-14 36.5v486h-121q-20 0 -35 14.5t-15 36.5q0 20 15 35.5t35 15.5h341v0z" />
    <glyph glyph-name="U" unicode="U" horiz-adv-x="473" 
d="M235 0q-44 0 -83 17.5t-68 48t-47 71t-21 86.5v365q0 20 14.5 35.5t36.5 15.5q21 0 35 -15.5t14 -35.5v-366q0 -25 9.5 -47t25.5 -38.5t38 -26t46 -9.5q25 0 47 9.5t38.5 26t26 38.5t9.5 47v366q0 20 14.5 35.5t36.5 15.5q21 0 35.5 -15.5t14.5 -35.5v-366
q-1 -45 -18 -85t-47 -70.5t-70 -48.5t-87 -18z" />
    <glyph glyph-name="V" unicode="V" horiz-adv-x="544" 
d="M318 34q-6 -16 -19 -25t-28 -9q-14 0 -28 10t-20 24l2 -1q-25 63 -51.5 131t-53.5 137t-53.5 137t-50.5 131q-7 20 0.5 39.5t27.5 27.5q20 7 39 -1.5t26 -28.5l162 -417l163 417q7 20 26 28.5t39 1.5q19 -8 27 -27.5t0 -39.5l-208 -536v1z" />
    <glyph glyph-name="W" unicode="W" horiz-adv-x="710" 
d="M210 0q-39 0 -72.5 16t-59 43t-41.5 62.5t-20 74.5v392q0 20 14 35.5t35 15.5q22 0 36 -15.5t14 -35.5v-385q0 -20 7.5 -36.5t20.5 -29.5t30 -20t36 -7t36 7t30 20t20.5 29.5t7.5 36.5v385q0 20 14 35.5t37 15.5q21 0 35.5 -15.5t14.5 -35.5v-385q0 -20 7.5 -36.5
t20 -29.5t29 -20t35.5 -7q40 0 67 27t27 66v385q0 20 15 35.5t36 15.5q20 0 35.5 -15.5t15.5 -35.5v-393q-1 -39 -16.5 -74t-42 -62t-62 -43t-75.5 -16q-35 0 -71.5 15.5t-69.5 47.5q-35 -29 -71.5 -45.5t-74.5 -17.5z" />
    <glyph glyph-name="X" unicode="X" horiz-adv-x="509" 
d="M482 81q10 -14 10 -30q0 -12 -6 -23t-15 -18q-7 -5 -15.5 -7.5t-13.5 -2.5q-28 0 -44 22l1 -1l-143 208l-147 -208q-8 -11 -19 -16t-23 -5q-5 0 -13.5 2.5t-14.5 7.5q-10 7 -16 18t-6 23q0 13 10 30h-1l165 238q-39 57 -82.5 119.5t-82.5 119.5h1q-10 15 -10 30
q0 12 6 23t17 19l-1 -1q13 10 28 10q26 0 42 -22l147 -208q16 23 34.5 50t37.5 54.5t37.5 54t33.5 49.5l-1 -1q17 23 43 23q16 0 30 -10l-2 1q11 -8 17 -19t6 -23q0 -17 -10 -30h1l-165 -239l165 -238h-1z" />
    <glyph glyph-name="Y" unicode="Y" horiz-adv-x="484" 
d="M455 627q11 -8 16.5 -19.5t5.5 -23.5q0 -15 -9 -30h1l-176 -251v-252q0 -22 -15 -36.5t-35 -14.5q-21 0 -36.5 14.5t-15.5 36.5v252q-42 61 -87.5 125.5t-87.5 125.5h1q-10 14 -10 30q0 12 5.5 23.5t16.5 19.5q14 9 28 9q11 0 22 -6t19 -17l145 -205l141 205
q8 11 19.5 17t23.5 6q13 0 27 -9h1z" />
    <glyph glyph-name="Z" unicode="Z" horiz-adv-x="476" 
d="M410 101q21 0 35.5 -15t14.5 -35q0 -22 -14.5 -36.5t-35.5 -14.5h-342q-23 1 -36 16t-13 35q0 16 8 28v-1l290 459h-251q-20 0 -35 14.5t-15 36.5q0 20 15 35.5t35 15.5h340q23 -1 37.5 -17t14.5 -37q0 -7 -2.5 -14t-6.5 -14v1l-287 -457h248v0z" />
    <glyph glyph-name="Agrave" unicode="&#xc0;" horiz-adv-x="461" 
d="M400 444v-394q0 -21 -14.5 -35.5t-35.5 -14.5q-23 0 -37 14.5t-14 35.5v146h-182v-146q0 -21 -15 -35.5t-37 -14.5q-21 0 -35 15t-14 35v396q0 40 15.5 75.5t41 61.5t60.5 41t74 15q40 0 75 -15t61 -40.5t41.5 -60.5t15.5 -74v-5zM299 446q0 19 -7 35.5t-19.5 29
t-29.5 19.5t-36 7q-38 0 -64 -26.5t-26 -64.5v-146h182v146zM331 694q1 -1 2 -1l1 -1q0 -8 -3 -6q-39 5 -78.5 11t-77.5 11q-17 2 -27.5 17t-8.5 33v-1q2 17 14.5 26t27.5 9q16 0 29 -10z" />
    <glyph glyph-name="Aacute" unicode="&#xc1;" horiz-adv-x="461" 
d="M400 444v-394q0 -21 -14.5 -35.5t-35.5 -14.5q-23 0 -37 14.5t-14 35.5v146h-182v-146q0 -21 -15 -35.5t-37 -14.5q-21 0 -35 15t-14 35v396q0 40 15.5 75.5t41 61.5t60.5 41t74 15q40 0 75 -15t61 -40.5t41.5 -60.5t15.5 -74v-5zM299 446q0 19 -7 35.5t-19.5 29
t-29.5 19.5t-36 7q-38 0 -64 -26.5t-26 -64.5v-146h182v146zM261 797q13 10 28 10q16 0 28.5 -9t14.5 -26v1q2 -18 -8.5 -33t-27.5 -17l-156 -22q-3 -2 -3 6l2 2z" />
    <glyph glyph-name="Acircumflex" unicode="&#xc2;" horiz-adv-x="461" 
d="M400 444v-394q0 -21 -14.5 -35.5t-35.5 -14.5q-23 0 -37 14.5t-14 35.5v146h-182v-146q0 -21 -15 -35.5t-37 -14.5q-21 0 -35 15t-14 35v396q0 40 15.5 75.5t41 61.5t60.5 41t74 15q40 0 75 -15t61 -40.5t41.5 -60.5t15.5 -74v-5zM299 446q0 19 -7 35.5t-19.5 29
t-29.5 19.5t-36 7q-38 0 -64 -26.5t-26 -64.5v-146h182v146zM351 735q5 -3 5 -10t-3 -12q-5 -4 -11 -5.5t-10 3.5l-119 100q-26 -22 -59 -50t-59 -50q-5 -2 -12 -2.5t-9 2.5q-4 4 -3.5 11.5t4.5 12.5l128 108q6 4 11.5 3t9.5 -3l127 -108v0z" />
    <glyph glyph-name="Atilde" unicode="&#xc3;" horiz-adv-x="461" 
d="M400 444v-394q0 -21 -14.5 -35.5t-35.5 -14.5q-23 0 -37 14.5t-14 35.5v146h-182v-146q0 -21 -15 -35.5t-37 -14.5q-21 0 -35 15t-14 35v396q0 40 15.5 75.5t41 61.5t60.5 41t74 15q40 0 75 -15t61 -40.5t41.5 -60.5t15.5 -74v-5zM299 446q0 19 -7 35.5t-19.5 29
t-29.5 19.5t-36 7q-38 0 -64 -26.5t-26 -64.5v-146h182v146zM385 801q6 -4 7 -12.5t-3 -15.5q-21 -28 -50.5 -43t-61.5 -15q-19 0 -38 6.5t-36 17.5q-14 12 -32 17.5t-34 5.5q-48 0 -78 -38q-5 -7 -12.5 -8t-14.5 4t-8 13t4 15q20 28 49 42t61 14q43 0 83 -28q12 -10 27 -14
t29 -4q23 0 44.5 10t35.5 29q5 7 13 8t15 -4z" />
    <glyph glyph-name="Adieresis" unicode="&#xc4;" horiz-adv-x="461" 
d="M400 444v-394q0 -21 -14.5 -35.5t-35.5 -14.5q-23 0 -37 14.5t-14 35.5v146h-182v-146q0 -21 -15 -35.5t-37 -14.5q-21 0 -35 15t-14 35v396q0 40 15.5 75.5t41 61.5t60.5 41t74 15q40 0 75 -15t61 -40.5t41.5 -60.5t15.5 -74v-5zM299 446q0 19 -7 35.5t-19.5 29
t-29.5 19.5t-36 7q-38 0 -64 -26.5t-26 -64.5v-146h182v146zM155 795q0 -22 -15.5 -37t-37.5 -15t-37 15t-15 37q0 21 15 36.5t37 15.5t37.5 -15.5t15.5 -36.5zM365 795q0 -22 -15.5 -37t-37.5 -15q-21 0 -36 15t-15 37q0 21 15 36.5t36 15.5q22 0 37.5 -15.5t15.5 -36.5z
" />
    <glyph glyph-name="Egrave" unicode="&#xc8;" horiz-adv-x="464" 
d="M351 101q21 0 36 -15t15 -35q0 -22 -15 -36.5t-36 -14.5h-283q-20 0 -35 14.5t-15 36.5v537q0 20 14 35.5t36 15.5h283q21 0 36 -15.5t15 -35.5q0 -22 -15 -36.5t-36 -14.5h-234v-146h163q20 0 35 -15t15 -36t-15 -35.5t-35 -14.5h-163v-189h234v0zM332 694q1 -1 2 -1
l1 -1q0 -8 -3 -6q-39 5 -78.5 11t-77.5 11q-17 2 -27.5 17t-8.5 33v-1q2 17 14.5 26t27.5 9q16 0 29 -10z" />
    <glyph glyph-name="Eacute" unicode="&#xc9;" horiz-adv-x="464" 
d="M351 101q21 0 36 -15t15 -35q0 -22 -15 -36.5t-36 -14.5h-283q-20 0 -35 14.5t-15 36.5v537q0 20 14 35.5t36 15.5h283q21 0 36 -15.5t15 -35.5q0 -22 -15 -36.5t-36 -14.5h-234v-146h163q20 0 35 -15t15 -36t-15 -35.5t-35 -14.5h-163v-189h234v0zM262 797q13 10 28 10
q16 0 28.5 -9t14.5 -26v1q2 -18 -8.5 -33t-27.5 -17l-156 -22q-3 -2 -3 6l2 2z" />
    <glyph glyph-name="Ecircumflex" unicode="&#xca;" horiz-adv-x="464" 
d="M351 101q21 0 36 -15t15 -35q0 -22 -15 -36.5t-36 -14.5h-283q-20 0 -35 14.5t-15 36.5v537q0 20 14 35.5t36 15.5h283q21 0 36 -15.5t15 -35.5q0 -22 -15 -36.5t-36 -14.5h-234v-146h163q20 0 35 -15t15 -36t-15 -35.5t-35 -14.5h-163v-189h234v0zM346 735q5 -3 5 -10
t-3 -12q-5 -4 -11 -5.5t-10 3.5l-119 100q-26 -22 -59 -50t-59 -50q-5 -2 -12 -2.5t-9 2.5q-4 4 -3.5 11.5t4.5 12.5l128 108q6 4 11.5 3t9.5 -3l127 -108v0z" />
    <glyph glyph-name="Edieresis" unicode="&#xcb;" horiz-adv-x="464" 
d="M351 101q21 0 36 -15t15 -35q0 -22 -15 -36.5t-36 -14.5h-283q-20 0 -35 14.5t-15 36.5v537q0 20 14 35.5t36 15.5h283q21 0 36 -15.5t15 -35.5q0 -22 -15 -36.5t-36 -14.5h-234v-146h163q20 0 35 -15t15 -36t-15 -35.5t-35 -14.5h-163v-189h234v0zM166 795
q0 -22 -15.5 -37t-37.5 -15t-37 15t-15 37q0 21 15 36.5t37 15.5t37.5 -15.5t15.5 -36.5zM376 795q0 -22 -15.5 -37t-37.5 -15q-21 0 -36 15t-15 37q0 21 15 36.5t36 15.5q22 0 37.5 -15.5t15.5 -36.5z" />
    <glyph glyph-name="Igrave" unicode="&#xcc;" horiz-adv-x="200" 
d="M69 638q20 0 34.5 -15t14.5 -35v-538q0 -21 -14.5 -35.5t-34.5 -14.5q-22 0 -36.5 14.5t-14.5 35.5v538q0 20 14.5 35t36.5 15zM202 694q1 -1 2 -1l1 -1q0 -8 -3 -6q-39 5 -78.5 11t-77.5 11q-17 2 -27.5 17t-8.5 33v-1q2 17 14.5 26t27.5 9q16 0 29 -10z" />
    <glyph glyph-name="Iacute" unicode="&#xcd;" horiz-adv-x="200" 
d="M69 638q20 0 34.5 -15t14.5 -35v-538q0 -21 -14.5 -35.5t-34.5 -14.5q-22 0 -36.5 14.5t-14.5 35.5v538q0 20 14.5 35t36.5 15zM132 797q13 10 28 10q16 0 28.5 -9t14.5 -26v1q2 -18 -8.5 -33t-27.5 -17l-156 -22q-3 -2 -3 6l2 2z" />
    <glyph glyph-name="Icircumflex" unicode="&#xce;" horiz-adv-x="200" 
d="M69 638q20 0 34.5 -15t14.5 -35v-538q0 -21 -14.5 -35.5t-34.5 -14.5q-22 0 -36.5 14.5t-14.5 35.5v538q0 20 14.5 35t36.5 15zM246 735q5 -3 5 -10t-3 -12q-5 -4 -11 -5.5t-10 3.5l-119 100q-26 -22 -59 -50t-59 -50q-5 -2 -12 -2.5t-9 2.5q-4 4 -3.5 11.5t4.5 12.5
l128 108q6 4 11.5 3t9.5 -3l127 -108v0z" />
    <glyph glyph-name="Idieresis" unicode="&#xcf;" horiz-adv-x="200" 
d="M69 638q20 0 34.5 -15t14.5 -35v-538q0 -21 -14.5 -35.5t-34.5 -14.5q-22 0 -36.5 14.5t-14.5 35.5v538q0 20 14.5 35t36.5 15zM56 795q0 -22 -15.5 -37t-37.5 -15t-37 15t-15 37q0 21 15 36.5t37 15.5t37.5 -15.5t15.5 -36.5zM266 795q0 -22 -15.5 -37t-37.5 -15
q-21 0 -36 15t-15 37q0 21 15 36.5t36 15.5q22 0 37.5 -15.5t15.5 -36.5z" />
    <glyph glyph-name="Ograve" unicode="&#xd2;" horiz-adv-x="506" 
d="M235 639q44 0 83 -17.5t68.5 -48t47.5 -71t21 -85.5v-194q-2 -44 -19 -84.5t-46 -71t-69 -49t-86 -18.5q-44 0 -83 17.5t-68.5 48t-48 71t-21.5 86.5v195q1 44 18.5 84t47 70.5t69.5 48.5t86 18zM235 101q24 0 46 9.5t38.5 26t26 38.5t9.5 47v196q0 25 -9.5 46.5
t-26 37.5t-38.5 25.5t-46 9.5q-25 0 -47 -9.5t-38 -25.5t-25.5 -37.5t-9.5 -46.5v-196q0 -25 9.5 -47t25.5 -38.5t38 -26t47 -9.5zM353 694q1 -1 2 -1l1 -1q0 -8 -3 -6q-39 5 -78.5 11t-77.5 11q-17 2 -27.5 17t-8.5 33v-1q2 17 14.5 26t27.5 9q16 0 29 -10z" />
    <glyph glyph-name="Oacute" unicode="&#xd3;" horiz-adv-x="506" 
d="M235 639q44 0 83 -17.5t68.5 -48t47.5 -71t21 -85.5v-194q-2 -44 -19 -84.5t-46 -71t-69 -49t-86 -18.5q-44 0 -83 17.5t-68.5 48t-48 71t-21.5 86.5v195q1 44 18.5 84t47 70.5t69.5 48.5t86 18zM235 101q24 0 46 9.5t38.5 26t26 38.5t9.5 47v196q0 25 -9.5 46.5
t-26 37.5t-38.5 25.5t-46 9.5q-25 0 -47 -9.5t-38 -25.5t-25.5 -37.5t-9.5 -46.5v-196q0 -25 9.5 -47t25.5 -38.5t38 -26t47 -9.5zM283 797q13 10 28 10q16 0 28.5 -9t14.5 -26v1q2 -18 -8.5 -33t-27.5 -17l-156 -22q-3 -2 -3 6l2 2z" />
    <glyph glyph-name="Ocircumflex" unicode="&#xd4;" horiz-adv-x="506" 
d="M235 639q44 0 83 -17.5t68.5 -48t47.5 -71t21 -85.5v-194q-2 -44 -19 -84.5t-46 -71t-69 -49t-86 -18.5q-44 0 -83 17.5t-68.5 48t-48 71t-21.5 86.5v195q1 44 18.5 84t47 70.5t69.5 48.5t86 18zM235 101q24 0 46 9.5t38.5 26t26 38.5t9.5 47v196q0 25 -9.5 46.5
t-26 37.5t-38.5 25.5t-46 9.5q-25 0 -47 -9.5t-38 -25.5t-25.5 -37.5t-9.5 -46.5v-196q0 -25 9.5 -47t25.5 -38.5t38 -26t47 -9.5zM397 735q5 -3 5 -10t-3 -12q-5 -4 -11 -5.5t-10 3.5l-119 100q-26 -22 -59 -50t-59 -50q-5 -2 -12 -2.5t-9 2.5q-4 4 -3.5 11.5t4.5 12.5
l128 108q6 4 11.5 3t9.5 -3l127 -108v0z" />
    <glyph glyph-name="Otilde" unicode="&#xd5;" horiz-adv-x="506" 
d="M235 639q44 0 83 -17.5t68.5 -48t47.5 -71t21 -85.5v-194q-2 -44 -19 -84.5t-46 -71t-69 -49t-86 -18.5q-44 0 -83 17.5t-68.5 48t-48 71t-21.5 86.5v195q1 44 18.5 84t47 70.5t69.5 48.5t86 18zM235 101q24 0 46 9.5t38.5 26t26 38.5t9.5 47v196q0 25 -9.5 46.5
t-26 37.5t-38.5 25.5t-46 9.5q-25 0 -47 -9.5t-38 -25.5t-25.5 -37.5t-9.5 -46.5v-196q0 -25 9.5 -47t25.5 -38.5t38 -26t47 -9.5zM438 801q6 -4 7 -12.5t-3 -15.5q-21 -28 -50.5 -43t-61.5 -15q-19 0 -38 6.5t-36 17.5q-14 12 -32 17.5t-34 5.5q-48 0 -78 -38
q-5 -7 -12.5 -8t-14.5 4t-8 13t4 15q20 28 49 42t61 14q43 0 83 -28q12 -10 27 -14t29 -4q23 0 44.5 10t35.5 29q5 7 13 8t15 -4z" />
    <glyph glyph-name="Odieresis" unicode="&#xd6;" horiz-adv-x="506" 
d="M235 639q44 0 83 -17.5t68.5 -48t47.5 -71t21 -85.5v-194q-2 -44 -19 -84.5t-46 -71t-69 -49t-86 -18.5q-44 0 -83 17.5t-68.5 48t-48 71t-21.5 86.5v195q1 44 18.5 84t47 70.5t69.5 48.5t86 18zM235 101q24 0 46 9.5t38.5 26t26 38.5t9.5 47v196q0 25 -9.5 46.5
t-26 37.5t-38.5 25.5t-46 9.5q-25 0 -47 -9.5t-38 -25.5t-25.5 -37.5t-9.5 -46.5v-196q0 -25 9.5 -47t25.5 -38.5t38 -26t47 -9.5zM207 795q0 -22 -15.5 -37t-37.5 -15t-37 15t-15 37q0 21 15 36.5t37 15.5t37.5 -15.5t15.5 -36.5zM417 795q0 -22 -15.5 -37t-37.5 -15
q-21 0 -36 15t-15 37q0 21 15 36.5t36 15.5q22 0 37.5 -15.5t15.5 -36.5z" />
    <glyph glyph-name="Ugrave" unicode="&#xd9;" 
d="M235 0q-44 0 -83 17.5t-68 48t-47 71t-21 86.5v365q0 20 14.5 35.5t36.5 15.5q21 0 35 -15.5t14 -35.5v-366q0 -25 9.5 -47t25.5 -38.5t38 -26t46 -9.5q25 0 47 9.5t38.5 26t26 38.5t9.5 47v366q0 20 14.5 35.5t36.5 15.5q21 0 35.5 -15.5t14.5 -35.5v-366
q-1 -45 -18 -85t-47 -70.5t-70 -48.5t-87 -18zM356 694q1 -1 2 -1l1 -1q0 -8 -3 -6q-39 5 -78.5 11t-77.5 11q-17 2 -27.5 17t-8.5 33v-1q2 17 14.5 26t27.5 9q16 0 29 -10z" />
    <glyph glyph-name="Uacute" unicode="&#xda;" 
d="M235 0q-44 0 -83 17.5t-68 48t-47 71t-21 86.5v365q0 20 14.5 35.5t36.5 15.5q21 0 35 -15.5t14 -35.5v-366q0 -25 9.5 -47t25.5 -38.5t38 -26t46 -9.5q25 0 47 9.5t38.5 26t26 38.5t9.5 47v366q0 20 14.5 35.5t36.5 15.5q21 0 35.5 -15.5t14.5 -35.5v-366
q-1 -45 -18 -85t-47 -70.5t-70 -48.5t-87 -18zM286 797q13 10 28 10q16 0 28.5 -9t14.5 -26v1q2 -18 -8.5 -33t-27.5 -17l-156 -22q-3 -2 -3 6l2 2z" />
    <glyph glyph-name="Ucircumflex" unicode="&#xdb;" 
d="M235 0q-44 0 -83 17.5t-68 48t-47 71t-21 86.5v365q0 20 14.5 35.5t36.5 15.5q21 0 35 -15.5t14 -35.5v-366q0 -25 9.5 -47t25.5 -38.5t38 -26t46 -9.5q25 0 47 9.5t38.5 26t26 38.5t9.5 47v366q0 20 14.5 35.5t36.5 15.5q21 0 35.5 -15.5t14.5 -35.5v-366
q-1 -45 -18 -85t-47 -70.5t-70 -48.5t-87 -18zM400 735q5 -3 5 -10t-3 -12q-5 -4 -11 -5.5t-10 3.5l-119 100q-26 -22 -59 -50t-59 -50q-5 -2 -12 -2.5t-9 2.5q-4 4 -3.5 11.5t4.5 12.5l128 108q6 4 11.5 3t9.5 -3l127 -108v0z" />
    <glyph glyph-name="Udieresis" unicode="&#xdc;" 
d="M235 0q-44 0 -83 17.5t-68 48t-47 71t-21 86.5v365q0 20 14.5 35.5t36.5 15.5q21 0 35 -15.5t14 -35.5v-366q0 -25 9.5 -47t25.5 -38.5t38 -26t46 -9.5q25 0 47 9.5t38.5 26t26 38.5t9.5 47v366q0 20 14.5 35.5t36.5 15.5q21 0 35.5 -15.5t14.5 -35.5v-366
q-1 -45 -18 -85t-47 -70.5t-70 -48.5t-87 -18zM210 795q0 -22 -15.5 -37t-37.5 -15t-37 15t-15 37q0 21 15 36.5t37 15.5t37.5 -15.5t15.5 -36.5zM420 795q0 -22 -15.5 -37t-37.5 -15q-21 0 -36 15t-15 37q0 21 15 36.5t36 15.5q22 0 37.5 -15.5t15.5 -36.5z" />
    <glyph glyph-name="adieresis" unicode="&#xe4;" horiz-adv-x="536" 
d="M283 483q45 -5 84.5 -26t68 -53.5t45 -74t16.5 -87.5v-193q0 -20 -15 -34.5t-34 -14.5q-7 0 -15.5 1t-16.5 5.5t-14.5 12.5t-7.5 22q-5 -2 -18 -9t-19 -10q-11 -5 -23 -9t-25 -8q-25 -5 -54 -5q-75 0 -134 40.5t-88 104.5q-10 22 -15.5 46.5t-5.5 50.5t5.5 50t15.5 47
q29 65 88 105t134 40h14t14 -1zM254 98q29 0 55.5 11t46 30.5t31 45.5t11.5 57q0 28 -11.5 54.5t-31.5 46t-46 31.5t-55 12t-54.5 -11.5t-45.5 -31.5t-31.5 -46t-11.5 -55q0 -30 12 -56t32.5 -45.5t46 -31t52.5 -11.5zM222 642q0 -22 -15.5 -37t-37.5 -15t-37 15t-15 37
q0 21 15 36.5t37 15.5t37.5 -15.5t15.5 -36.5zM432 642q0 -22 -15.5 -37t-37.5 -15q-21 0 -36 15t-15 37q0 21 15 36.5t36 15.5q22 0 37.5 -15.5t15.5 -36.5z" />
    <glyph glyph-name="caron" unicode="&#x2c7;" horiz-adv-x="320" 
d="M168 557q-4 -2 -9.5 -3.5t-11.5 3.5l-128 108q-4 4 -5 10.5t3 11.5q4 4 10.5 4t11.5 -2l118 -101l119 101q4 4 10 3t11 -5q3 -5 3 -12t-5 -10z" />
    <glyph glyph-name="zcaron" unicode="&#x17e;" horiz-adv-x="549" 
d="M455 484q18 0 34 -14h-1q15 -15 15 -34q0 -21 -14 -35l-22 -22q-30 -31 -66 -67t-73.5 -73t-74 -73t-67.5 -67h269q19 -2 34 -15h-1q8 -8 11.5 -17.5t3.5 -18.5q0 -19 -14 -33q-15 -15 -34 -15h-385q-24 0 -38 14q-15 17 -14 34q-1 19 13 33l303 305h-264
q-14 1 -22.5 4.5t-15.5 10.5q-15 15 -14 35q-1 17 14 34q14 14 34 14h389zM292 557q-4 -2 -9.5 -3.5t-11.5 3.5l-128 108q-4 4 -5 10.5t3 11.5q4 4 10.5 4t11.5 -2l118 -101l119 101q4 4 10 3t11 -5q3 -5 3 -12t-5 -10z" />
    <glyph glyph-name="Zcaron" unicode="&#x17d;" horiz-adv-x="540" 
d="M410 101q21 0 35.5 -15t14.5 -35q0 -22 -14.5 -36.5t-35.5 -14.5h-342q-23 1 -36 16t-13 35q0 16 8 28v-1l290 459h-251q-20 0 -35 14.5t-15 36.5q0 20 15 35.5t35 15.5h340q23 -1 37.5 -17t14.5 -37q0 -7 -2.5 -14t-6.5 -14v1l-287 -457h248v0zM287 714q-4 -2 -9.5 -3.5
t-11.5 3.5l-128 108q-4 4 -5 10.5t3 11.5q4 4 10.5 4t11.5 -2l118 -101l119 101q4 4 10 3t11 -5q3 -5 3 -12t-5 -10z" />
    <glyph glyph-name="Scaron" unicode="&#x160;" horiz-adv-x="505" 
d="M198 537q-35 0 -58.5 -24.5t-24.5 -61.5q2 -33 25 -57t58 -24h73q35 0 68 -14.5t58.5 -39.5t41 -59t15.5 -73q0 -38 -14.5 -71t-39 -58t-58 -39.5t-71.5 -15.5h-190q-23 0 -37 14t-14 37q0 20 14.5 35t36.5 15h190q16 0 31.5 6.5t27 18t18.5 26.5t7 32q0 18 -7 33
t-18 26.5t-26.5 18t-31.5 7.5h-74q-36 1 -69.5 15t-59 38.5t-40.5 58t-15 72.5q0 36 14.5 69.5t39.5 59.5t58.5 41.5t71.5 15.5h190q20 0 34 -15.5t16 -37.5q-1 -21 -15 -35t-35 -14h-190v0zM270 714q-4 -2 -9.5 -3.5t-11.5 3.5l-128 108q-4 4 -5 10.5t3 11.5q4 4 10.5 4
t11.5 -2l118 -101l119 101q4 4 10 3t11 -5q3 -5 3 -12t-5 -10z" />
    <glyph glyph-name="scaron" unicode="&#x161;" horiz-adv-x="465" 
d="M14 341q0 28 11 54t30 46t44.5 32t55.5 13h193q20 0 33.5 -15.5t13.5 -32.5q0 -20 -14.5 -34.5t-32.5 -14.5h-187q-24 0 -36.5 -14t-12.5 -34q0 -19 12.5 -34t36.5 -15h123q29 0 54 -12t43 -32t28.5 -46.5t10.5 -54.5q0 -32 -11 -59t-31.5 -46.5t-48 -30.5t-60.5 -11
h-185q-20 0 -32.5 14t-12.5 34q0 19 13.5 34.5t33.5 16.5h183q24 0 37.5 12.5t13.5 35.5q0 25 -13.5 36t-37.5 11h-120q-28 0 -52.5 11.5t-43 31.5t-29 47t-10.5 57zM250 557q-4 -2 -9.5 -3.5t-11.5 3.5l-128 108q-4 4 -5 10.5t3 11.5q4 4 10.5 4t11.5 -2l118 -101l119 101
q4 4 10 3t11 -5q3 -5 3 -12t-5 -10z" />
    <glyph glyph-name="ntilde" unicode="&#xf1;" horiz-adv-x="541" 
d="M258 487q48 0 92 -17.5t77 -48.5t53 -74t20 -93v-202q0 -20 -14.5 -34t-34.5 -15q-20 0 -34.5 13t-14.5 33v196q0 30 -11 56t-30.5 45.5t-46 31t-57.5 11.5q-29 0 -54.5 -10.5t-45 -29.5t-31 -44t-11.5 -54v-199q0 -20 -15 -34.5t-35 -14.5t-35 13t-15 33v196q1 50 20 94
t51 77t76 52t96 19zM456 648q6 -4 7 -12.5t-3 -15.5q-21 -28 -50.5 -43t-61.5 -15q-19 0 -38 6.5t-36 17.5q-14 12 -32 17.5t-34 5.5q-48 0 -78 -38q-5 -7 -12.5 -8t-14.5 4t-8 13t4 15q20 28 49 42t61 14q43 0 83 -28q12 -10 27 -14t29 -4q23 0 44.5 10t35.5 29q5 7 13 8
t15 -4z" />
    <glyph glyph-name="Yacute" unicode="&#xdd;" horiz-adv-x="523" 
d="M455 627q11 -8 16.5 -19.5t5.5 -23.5q0 -15 -9 -30h1l-176 -251v-252q0 -22 -15 -36.5t-35 -14.5q-21 0 -36.5 14.5t-15.5 36.5v252q-42 61 -87.5 125.5t-87.5 125.5h1q-10 14 -10 30q0 12 5.5 23.5t16.5 19.5q14 9 28 9q11 0 22 -6t19 -17l145 -205l141 205
q8 11 19.5 17t23.5 6q13 0 27 -9h1zM292 801q13 10 28 10q16 0 28.5 -9t14.5 -26v1q2 -18 -8.5 -33t-27.5 -17l-156 -22q-3 -2 -3 6l2 2z" />
    <glyph glyph-name="Ntilde" unicode="&#xd1;" 
d="M237 639q44 0 82.5 -18t68 -48.5t48 -70.5t21.5 -85v-366q0 -22 -14.5 -36.5t-35.5 -14.5q-22 0 -36.5 14.5t-14.5 36.5v367q0 25 -9.5 46.5t-26 37.5t-38.5 25.5t-46 9.5q-25 0 -46.5 -9.5t-38 -25.5t-26 -37.5t-9.5 -46.5v-367q0 -22 -14.5 -36.5t-34.5 -14.5
q-23 0 -37 14.5t-14 36.5v367q1 45 18 84.5t47 69t70 47.5t86 20zM441 805q6 -4 7 -12.5t-3 -15.5q-21 -28 -50.5 -43t-61.5 -15q-19 0 -38 6.5t-36 17.5q-14 12 -32 17.5t-34 5.5q-48 0 -78 -38q-5 -7 -12.5 -8t-14.5 4t-8 13t4 15q20 28 49 42t61 14q43 0 83 -28
q12 -10 27 -14t29 -4q23 0 44.5 10t35.5 29q5 7 13 8t15 -4z" />
    <glyph glyph-name="Zacute" unicode="&#x179;" horiz-adv-x="540" 
d="M410 101q21 0 35.5 -15t14.5 -35q0 -22 -14.5 -36.5t-35.5 -14.5h-342q-23 1 -36 16t-13 35q0 16 8 28v-1l290 459h-251q-20 0 -35 14.5t-15 36.5q0 20 15 35.5t35 15.5h340q23 -1 37.5 -17t14.5 -37q0 -7 -2.5 -14t-6.5 -14v1l-287 -457h248v0zM300 801q13 10 28 10
q16 0 28.5 -9t14.5 -26v1q2 -18 -8.5 -33t-27.5 -17l-156 -22q-3 -2 -3 6l2 2z" />
    <glyph glyph-name="Tcaron" unicode="&#x164;" horiz-adv-x="482" 
d="M398 639q21 0 36 -15.5t15 -35.5q0 -22 -15 -36.5t-36 -14.5h-120v-486q0 -22 -14 -36.5t-36 -14.5t-36 14.5t-14 36.5v486h-121q-20 0 -35 14.5t-15 36.5q0 20 15 35.5t35 15.5h341v0zM258 714q-4 -2 -9.5 -3.5t-11.5 3.5l-128 108q-4 4 -5 10.5t3 11.5q4 4 10.5 4
t11.5 -2l118 -101l119 101q4 4 10 3t11 -5q3 -5 3 -12t-5 -10z" />
    <glyph glyph-name="Sacute" unicode="&#x15a;" horiz-adv-x="505" 
d="M198 537q-35 0 -58.5 -24.5t-24.5 -61.5q2 -33 25 -57t58 -24h73q35 0 68 -14.5t58.5 -39.5t41 -59t15.5 -73q0 -38 -14.5 -71t-39 -58t-58 -39.5t-71.5 -15.5h-190q-23 0 -37 14t-14 37q0 20 14.5 35t36.5 15h190q16 0 31.5 6.5t27 18t18.5 26.5t7 32q0 18 -7 33
t-18 26.5t-26.5 18t-31.5 7.5h-74q-36 1 -69.5 15t-59 38.5t-40.5 58t-15 72.5q0 36 14.5 69.5t39.5 59.5t58.5 41.5t71.5 15.5h190q20 0 34 -15.5t16 -37.5q-1 -21 -15 -35t-35 -14h-190v0zM283 801q13 10 28 10q16 0 28.5 -9t14.5 -26v1q2 -18 -8.5 -33t-27.5 -17
l-156 -22q-3 -2 -3 6l2 2z" />
    <glyph glyph-name="Rcaron" unicode="&#x158;" horiz-adv-x="504" 
d="M400 86q7 -7 10 -16.5t3 -19.5t-3 -19.5t-10 -16.5q-8 -8 -17.5 -11t-19.5 -3q-9 0 -18 3t-17 11l-211 211v-174q0 -22 -15 -36.5t-36 -14.5q-20 0 -35 14.5t-15 36.5v367q1 44 18 84t47 70.5t70 48.5t87 18q43 0 82.5 -17t69.5 -47t48 -70.5t18 -86.5q0 -71 -46 -129
t-122 -91zM238 537q-26 0 -48 -9.5t-38 -25.5t-25.5 -37.5t-9.5 -46.5q0 -24 9.5 -46t26 -38.5t38.5 -26t47 -9.5q24 0 45.5 9t38 25.5t26 38t9.5 47.5q0 25 -9.5 46.5t-26 37.5t-38 25.5t-45.5 9.5zM269 714q-4 -2 -9.5 -3.5t-11.5 3.5l-128 108q-4 4 -5 10.5t3 11.5
q4 4 10.5 4t11.5 -2l118 -101l119 101q4 4 10 3t11 -5q3 -5 3 -12t-5 -10z" />
    <glyph glyph-name="Ncaron" unicode="&#x147;" 
d="M237 639q44 0 82.5 -18t68 -48.5t48 -70.5t21.5 -85v-366q0 -22 -14.5 -36.5t-35.5 -14.5q-22 0 -36.5 14.5t-14.5 36.5v367q0 25 -9.5 46.5t-26 37.5t-38.5 25.5t-46 9.5q-25 0 -46.5 -9.5t-38 -25.5t-26 -37.5t-9.5 -46.5v-367q0 -22 -14.5 -36.5t-34.5 -14.5
q-23 0 -37 14.5t-14 36.5v367q1 45 18 84.5t47 69t70 47.5t86 20zM273 714q-4 -2 -9.5 -3.5t-11.5 3.5l-128 108q-4 4 -5 10.5t3 11.5q4 4 10.5 4t11.5 -2l118 -101l119 101q4 4 10 3t11 -5q3 -5 3 -12t-5 -10z" />
    <glyph glyph-name="Nacute" unicode="&#x143;" 
d="M237 639q44 0 82.5 -18t68 -48.5t48 -70.5t21.5 -85v-366q0 -22 -14.5 -36.5t-35.5 -14.5q-22 0 -36.5 14.5t-14.5 36.5v367q0 25 -9.5 46.5t-26 37.5t-38.5 25.5t-46 9.5q-25 0 -46.5 -9.5t-38 -25.5t-26 -37.5t-9.5 -46.5v-367q0 -22 -14.5 -36.5t-34.5 -14.5
q-23 0 -37 14.5t-14 36.5v367q1 45 18 84.5t47 69t70 47.5t86 20zM286 801q13 10 28 10q16 0 28.5 -9t14.5 -26v1q2 -18 -8.5 -33t-27.5 -17l-156 -22q-3 -2 -3 6l2 2z" />
    <glyph glyph-name="Dcaron" unicode="&#x10e;" horiz-adv-x="490" 
d="M214 639q43 0 83.5 -17t71 -47t49 -70.5t18.5 -86.5v-197q0 -44 -18 -83.5t-48 -70.5t-70.5 -49t-85.5 -18h-145q-20 0 -35.5 14t-15.5 37v537q0 20 15 35.5t36 15.5h145zM119 536v-434h95q25 0 47 9.5t38 25.5t25.5 37.5t9.5 46.5v197q0 25 -9.5 46.5t-25.5 37.5t-38 25
t-47 9h-95zM262 714q-4 -2 -9.5 -3.5t-11.5 3.5l-128 108q-4 4 -5 10.5t3 11.5q4 4 10.5 4t11.5 -2l118 -101l119 101q4 4 10 3t11 -5q3 -5 3 -12t-5 -10z" />
    <glyph glyph-name="ncaron" unicode="&#x148;" horiz-adv-x="541" 
d="M258 487q48 0 92 -17.5t77 -48.5t53 -74t20 -93v-202q0 -20 -14.5 -34t-34.5 -15q-20 0 -34.5 13t-14.5 33v196q0 30 -11 56t-30.5 45.5t-46 31t-57.5 11.5q-29 0 -54.5 -10.5t-45 -29.5t-31 -44t-11.5 -54v-199q0 -20 -15 -34.5t-35 -14.5t-35 13t-15 33v196q1 50 20 94
t51 77t76 52t96 19zM288 557q-4 -2 -9.5 -3.5t-11.5 3.5l-128 108q-4 4 -5 10.5t3 11.5q4 4 10.5 4t11.5 -2l118 -101l119 101q4 4 10 3t11 -5q3 -5 3 -12t-5 -10z" />
    <glyph glyph-name="nacute" unicode="&#x144;" horiz-adv-x="541" 
d="M258 487q48 0 92 -17.5t77 -48.5t53 -74t20 -93v-202q0 -20 -14.5 -34t-34.5 -15q-20 0 -34.5 13t-14.5 33v196q0 30 -11 56t-30.5 45.5t-46 31t-57.5 11.5q-29 0 -54.5 -10.5t-45 -29.5t-31 -44t-11.5 -54v-199q0 -20 -15 -34.5t-35 -14.5t-35 13t-15 33v196q1 50 20 94
t51 77t76 52t96 19zM301 644q13 10 28 10q16 0 28.5 -9t14.5 -26v1q2 -18 -8.5 -33t-27.5 -17l-156 -22q-3 -2 -3 6l2 2z" />
    <glyph glyph-name="rcaron" unicode="&#x159;" horiz-adv-x="340" 
d="M62 -1q-19 0 -32.5 14t-16.5 34v201q1 49 20.5 91t52.5 73.5t76.5 50t92.5 20.5q19 -1 33 -16t17 -33q-2 -19 -16 -33.5t-34 -15.5q-29 0 -55 -11t-45.5 -30.5t-31 -45.5t-11.5 -57v-199q-3 -17 -16.5 -30t-33.5 -13zM187 557q-4 -2 -9.5 -3.5t-11.5 3.5l-128 108
q-4 4 -5 10.5t3 11.5q4 4 10.5 4t11.5 -2l118 -101l119 101q4 4 10 3t11 -5q3 -5 3 -12t-5 -10z" />
    <glyph glyph-name="racute" unicode="&#x155;" horiz-adv-x="340" 
d="M62 -1q-19 0 -32.5 14t-16.5 34v201q1 49 20.5 91t52.5 73.5t76.5 50t92.5 20.5q19 -1 33 -16t17 -33q-2 -19 -16 -33.5t-34 -15.5q-29 0 -55 -11t-45.5 -30.5t-31 -45.5t-11.5 -57v-199q-3 -17 -16.5 -30t-33.5 -13zM200 644q13 10 28 10q16 0 28.5 -9t14.5 -26v1
q2 -18 -8.5 -33t-27.5 -17l-156 -22q-3 -2 -3 6l2 2z" />
    <glyph glyph-name="cacute" unicode="&#x107;" horiz-adv-x="475" 
d="M254 484q100 0 170 -70h-1q7 -7 9.5 -14.5t2.5 -14.5q0 -21 -15 -36q-7 -7 -16.5 -10t-19.5 -3q-22 0 -35 13q-41 37 -95 37q-29 0 -55.5 -12t-46.5 -32t-31.5 -46t-11.5 -54q0 -29 12 -55.5t32 -47t46 -32t55 -9.5q55 0 101 41q9 10 30 10q19 0 34 -16q16 -15 16 -33
q0 -8 -3 -16.5t-9 -13.5q-35 -35 -76.5 -52.5t-92.5 -17.5q-50 0 -94 19.5t-77 52.5t-52.5 77t-19.5 93q0 48 19.5 91.5t53 77t77.5 53.5t93 20zM268 644q13 10 28 10q16 0 28.5 -9t14.5 -26v1q2 -18 -8.5 -33t-27.5 -17l-156 -22q-3 -2 -3 6l2 2z" />
    <glyph glyph-name="ccaron" unicode="&#x10d;" horiz-adv-x="475" 
d="M254 484q100 0 170 -70h-1q7 -7 9.5 -14.5t2.5 -14.5q0 -21 -15 -36q-7 -7 -16.5 -10t-19.5 -3q-22 0 -35 13q-41 37 -95 37q-29 0 -55.5 -12t-46.5 -32t-31.5 -46t-11.5 -54q0 -29 12 -55.5t32 -47t46 -32t55 -9.5q55 0 101 41q9 10 30 10q19 0 34 -16q16 -15 16 -33
q0 -8 -3 -16.5t-9 -13.5q-35 -35 -76.5 -52.5t-92.5 -17.5q-50 0 -94 19.5t-77 52.5t-52.5 77t-19.5 93q0 48 19.5 91.5t53 77t77.5 53.5t93 20zM255 557q-4 -2 -9.5 -3.5t-11.5 3.5l-128 108q-4 4 -5 10.5t3 11.5q4 4 10.5 4t11.5 -2l118 -101l119 101q4 4 10 3t11 -5
q3 -5 3 -12t-5 -10z" />
    <glyph glyph-name="ecaron" unicode="&#x11b;" horiz-adv-x="525" 
d="M257 486q48 0 92.5 -20.5t78 -54t54 -78t20.5 -92.5q0 -20 -15 -35.5t-38 -14.5h-336q29 -52 67.5 -74t76.5 -22q21 0 36 5t26 9q13 9 29 9q22 -2 35.5 -17.5t13.5 -33.5q0 -8 -2.5 -17t-10.5 -16l1 2q-26 -21 -59 -30t-70 -10q-49 -2 -93.5 17.5t-78 53.5t-53 79
t-19.5 95q0 48 19.5 92.5t53.5 78t78 54t94 20.5zM401 295q-24 40 -61.5 65.5t-82.5 25.5q-47 0 -84.5 -26t-58.5 -64q-2 -2 -2 -4h290q-1 0 -1 1v2zM280 557q-4 -2 -9.5 -3.5t-11.5 3.5l-128 108q-4 4 -5 10.5t3 11.5q4 4 10.5 4t11.5 -2l118 -101l119 101q4 4 10 3t11 -5
q3 -5 3 -12t-5 -10z" />
    <glyph glyph-name="Cacute" unicode="&#x106;" horiz-adv-x="482" 
d="M338 191q22 0 37 -15t15 -36q0 -4 -1 -11t-4 -10q-22 -53 -70 -86t-108 -33q-39 0 -73.5 15t-60.5 41t-41.5 61t-16.5 75v255q0 33 10 60q10 29 27.5 53t41.5 41.5t52.5 27.5t60.5 10q30 0 57.5 -9t50.5 -24.5t41 -37.5t29 -48q1 -1 1 -4q4 -8 4 -17q0 -21 -15 -36
t-37 -15q-15 0 -27.5 8t-19.5 21q0 2 -1 3t-2 3q-11 23 -32.5 38t-48.5 15q-17 0 -32.5 -6.5t-27.5 -17.5t-19.5 -26t-8.5 -31v-271q2 -34 27.5 -57.5t60.5 -23.5q27 0 48.5 15t32.5 38q1 2 2 3t1 3q7 13 19.5 21t27.5 8zM271 801q13 10 28 10q16 0 28.5 -9t14.5 -26v1
q2 -18 -8.5 -33t-27.5 -17l-156 -22q-3 -2 -3 6l2 2z" />
    <glyph glyph-name="Ccaron" unicode="&#x10c;" horiz-adv-x="482" 
d="M338 191q22 0 37 -15t15 -36q0 -4 -1 -11t-4 -10q-22 -53 -70 -86t-108 -33q-39 0 -73.5 15t-60.5 41t-41.5 61t-16.5 75v255q0 33 10 60q10 29 27.5 53t41.5 41.5t52.5 27.5t60.5 10q30 0 57.5 -9t50.5 -24.5t41 -37.5t29 -48q1 -1 1 -4q4 -8 4 -17q0 -21 -15 -36
t-37 -15q-15 0 -27.5 8t-19.5 21q0 2 -1 3t-2 3q-11 23 -32.5 38t-48.5 15q-17 0 -32.5 -6.5t-27.5 -17.5t-19.5 -26t-8.5 -31v-271q2 -34 27.5 -57.5t60.5 -23.5q27 0 48.5 15t32.5 38q1 2 2 3t1 3q7 13 19.5 21t27.5 8zM258 714q-4 -2 -9.5 -3.5t-11.5 3.5l-128 108
q-4 4 -5 10.5t3 11.5q4 4 10.5 4t11.5 -2l118 -101l119 101q4 4 10 3t11 -5q3 -5 3 -12t-5 -10z" />
    <glyph glyph-name="Lacute" unicode="&#x139;" horiz-adv-x="425" 
d="M338 107q20 0 34.5 -15t14.5 -35q0 -22 -14.5 -37t-34.5 -15h-268q-21 0 -35.5 14.5t-16.5 37.5v536q0 21 15 35.5t37 14.5q20 0 35 -14.5t15 -35.5v-486h218v0zM243 801q13 10 28 10q16 0 28.5 -9t14.5 -26v1q2 -18 -8.5 -33t-27.5 -17l-156 -22q-3 -2 -3 6l2 2z" />
    <glyph glyph-name="Racute" unicode="&#x154;" horiz-adv-x="504" 
d="M400 86q7 -7 10 -16.5t3 -19.5t-3 -19.5t-10 -16.5q-8 -8 -17.5 -11t-19.5 -3q-9 0 -18 3t-17 11l-211 211v-174q0 -22 -15 -36.5t-36 -14.5q-20 0 -35 14.5t-15 36.5v367q1 44 18 84t47 70.5t70 48.5t87 18q43 0 82.5 -17t69.5 -47t48 -70.5t18 -86.5q0 -71 -46 -129
t-122 -91zM238 537q-26 0 -48 -9.5t-38 -25.5t-25.5 -37.5t-9.5 -46.5q0 -24 9.5 -46t26 -38.5t38.5 -26t47 -9.5q24 0 45.5 9t38 25.5t26 38t9.5 47.5q0 25 -9.5 46.5t-26 37.5t-38 25.5t-45.5 9.5zM282 801q13 10 28 10q16 0 28.5 -9t14.5 -26v1q2 -18 -8.5 -33t-27.5 -17
l-156 -22q-3 -2 -3 6l2 2z" />
    <glyph glyph-name="sacute" unicode="&#x15b;" horiz-adv-x="465" 
d="M14 341q0 28 11 54t30 46t44.5 32t55.5 13h193q20 0 33.5 -15.5t13.5 -32.5q0 -20 -14.5 -34.5t-32.5 -14.5h-187q-24 0 -36.5 -14t-12.5 -34q0 -19 12.5 -34t36.5 -15h123q29 0 54 -12t43 -32t28.5 -46.5t10.5 -54.5q0 -32 -11 -59t-31.5 -46.5t-48 -30.5t-60.5 -11
h-185q-20 0 -32.5 14t-12.5 34q0 19 13.5 34.5t33.5 16.5h183q24 0 37.5 12.5t13.5 35.5q0 25 -13.5 36t-37.5 11h-120q-28 0 -52.5 11.5t-43 31.5t-29 47t-10.5 57zM263 644q13 10 28 10q16 0 28.5 -9t14.5 -26v1q2 -18 -8.5 -33t-27.5 -17l-156 -22q-3 -2 -3 6l2 2z" />
    <glyph glyph-name="zacute" unicode="&#x17a;" horiz-adv-x="549" 
d="M455 484q18 0 34 -14h-1q15 -15 15 -34q0 -21 -14 -35l-22 -22q-30 -31 -66 -67t-73.5 -73t-74 -73t-67.5 -67h269q19 -2 34 -15h-1q8 -8 11.5 -17.5t3.5 -18.5q0 -19 -14 -33q-15 -15 -34 -15h-385q-24 0 -38 14q-15 17 -14 34q-1 19 13 33l303 305h-264
q-14 1 -22.5 4.5t-15.5 10.5q-15 15 -14 35q-1 17 14 34q14 14 34 14h389zM305 644q13 10 28 10q16 0 28.5 -9t14.5 -26v1q2 -18 -8.5 -33t-27.5 -17l-156 -22q-3 -2 -3 6l2 2z" />
    <glyph glyph-name="tcaron" unicode="&#x165;" horiz-adv-x="650" 
d="M67 640q22 0 36.5 -15.5t16.5 -38.5v-90h231q21 0 35 -15.5t14 -35.5t-15 -36t-34 -16h-231v-146q0 -29 11 -55.5t30.5 -46.5t46 -32t56.5 -12q34 0 57.5 9.5t41.5 26.5h-1q15 14 37 14q21 0 37 -15q14 -13 14 -35q0 -8 -2.5 -16.5t-9.5 -14.5h1q-35 -34 -76.5 -52
t-90.5 -18q-52 0 -98.5 17.5t-81 50t-55.5 78t-22 101.5v339q0 20 14.5 37t37.5 17zM517 422v1q-3 -9 -8 -9q-9 0 -9 10v178q0 21 15 36t37 15q23 0 36.5 -16t13.5 -37q0 -13 -7 -27z" />
    <glyph glyph-name="Ecaron" unicode="&#x11a;" horiz-adv-x="464" 
d="M351 101q21 0 36 -15t15 -35q0 -22 -15 -36.5t-36 -14.5h-283q-20 0 -35 14.5t-15 36.5v537q0 20 14 35.5t36 15.5h283q21 0 36 -15.5t15 -35.5q0 -22 -15 -36.5t-36 -14.5h-234v-146h163q20 0 35 -15t15 -36t-15 -35.5t-35 -14.5h-163v-189h234v0zM249 714
q-4 -2 -9.5 -3.5t-11.5 3.5l-128 108q-4 4 -5 10.5t3 11.5q4 4 10.5 4t11.5 -2l118 -101l119 101q4 4 10 3t11 -5q3 -5 3 -12t-5 -10z" />
    <glyph glyph-name="asciitilde" unicode="~" horiz-adv-x="414" 
d="M375 342q6 -4 7 -12.5t-3 -15.5q-21 -28 -50.5 -43t-61.5 -15q-19 0 -38 6.5t-36 17.5q-14 11 -32 17t-34 6q-48 0 -78 -38q-5 -7 -12.5 -8.5t-14.5 3.5q-7 6 -8 14t4 15q20 28 49 41.5t61 13.5q22 0 42.5 -6.5t40.5 -20.5q12 -10 27 -14t29 -4q23 0 44.5 10t35.5 29
q5 7 13 8t15 -4z" />
    <glyph glyph-name="Euro" unicode="&#x20ac;" horiz-adv-x="536" 
d="M342 408q0 -21 -14.5 -36t-34.5 -15h-93v-76h93q20 0 34.5 -15t14.5 -35t-14.5 -35t-34.5 -15h-85q14 -35 44.5 -56t69.5 -21q33 0 60 15.5t44 41.5q10 15 19.5 24t29.5 9t35.5 -15t15.5 -37q0 -12 -10 -32l1 1q-29 -51 -82 -81t-113 -30q-39 0 -75.5 13.5t-66 37.5
t-50.5 57t-29 73h-22q-22 0 -36.5 15t-14.5 35t14.5 35t36.5 15h18v76h-18q-22 0 -36.5 15t-14.5 36q0 20 14.5 35t36.5 15h20q6 39 25.5 74.5t49 62t67.5 42t81 15.5q57 0 110.5 -31.5t85.5 -83.5q3 -5 5.5 -13t2.5 -15q0 -21 -15.5 -36.5t-36.5 -15.5q-17 0 -27.5 9.5
t-20.5 23.5v-1q-17 26 -44 42.5t-60 16.5q-42 0 -74.5 -25.5t-43.5 -64.5h89q20 0 34.5 -15t14.5 -35z" />
    <glyph glyph-name="numbersign" unicode="#" horiz-adv-x="577" 
d="M517 470q23 0 37.5 -14.5t14.5 -34.5q0 -23 -14.5 -38.5t-37.5 -15.5h-62l-25 -81h28q22 0 36 -14.5t14 -34.5q0 -23 -14 -38.5t-36 -15.5h-62l-46 -149q-7 -20 -26 -29.5t-40 -3.5q-20 7 -29.5 26.5t-3.5 39.5l36 116h-89l-46 -149q-7 -20 -25.5 -29.5t-38.5 -3.5
q-21 7 -32 26.5t-4 39.5l39 116h-29q-23 0 -38.5 15.5t-15.5 38.5q0 20 15.5 34.5t38.5 14.5h61l24 81h-27q-22 0 -37 15.5t-15 38.5q0 20 15 34.5t37 14.5h61l42 134q5 20 24.5 29.5t39.5 2.5q21 -6 31 -25.5t3 -39.5l-31 -101h89l40 134q8 20 27 29.5t39 2.5
q21 -6 31 -25.5t3 -39.5l-32 -101h30zM347 367h-89l-28 -81h89z" />
    <glyph glyph-name="sterling" unicode="&#xa3;" horiz-adv-x="321" 
d="M255 102q21 0 36 -15.5t15 -35.5q0 -21 -15 -36t-36 -15h-127q-22 0 -37 15t-15 37v210q-31 0 -49.5 13.5t-20.5 36.5q0 20 19.5 35t50.5 19v97q0 34 13 66t35.5 56t53.5 38.5t66 14.5q23 0 39 -13t19 -37q0 -19 -15.5 -33t-36.5 -18q-14 -1 -27.5 -7t-24.5 -17t-15 -24
t-4 -26v-97q29 -2 47.5 -18t20.5 -36q0 -21 -19 -35t-49 -17v-158h76v0z" />
    <glyph glyph-name="Ydieresis" unicode="&#x178;" horiz-adv-x="523" 
d="M455 627q11 -8 16.5 -19.5t5.5 -23.5q0 -15 -9 -30h1l-176 -251v-252q0 -22 -15 -36.5t-35 -14.5q-21 0 -36.5 14.5t-15.5 36.5v252q-42 61 -87.5 125.5t-87.5 125.5h1q-10 14 -10 30q0 12 5.5 23.5t16.5 19.5q14 9 28 9q11 0 22 -6t19 -17l145 -205l141 205
q8 11 19.5 17t23.5 6q13 0 27 -9h1zM216 799q0 -22 -15.5 -37t-37.5 -15t-37 15t-15 37q0 21 15 36.5t37 15.5t37.5 -15.5t15.5 -36.5zM426 799q0 -22 -15.5 -37t-37.5 -15q-21 0 -36 15t-15 37q0 21 15 36.5t36 15.5q22 0 37.5 -15.5t15.5 -36.5z" />
    <glyph glyph-name="at" unicode="@" horiz-adv-x="709" 
d="M356 639q71 0 134 -27t109.5 -73.5t73.5 -109.5t27 -134q0 -29 -11 -54t-29.5 -43.5t-44 -29.5t-53.5 -11h-9q-39 3 -69 24q-24 -26 -56.5 -41t-70.5 -15q-35 0 -66 13.5t-54 36.5t-36.5 54t-13.5 66t13.5 66t36.5 54.5t54 37t66 13.5q38 0 70.5 -15.5t56.5 -41.5
q20 -21 32 -51.5t12 -62.5q0 -14 10 -24t24 -10t24.5 10t10.5 24q0 35 -11 71t-33 67q-32 47 -83.5 75t-113.5 28q-50 0 -94 -19t-76.5 -51.5t-51.5 -76.5t-19 -94t19 -94t51.5 -76.5t76.5 -51.5t94 -19q14 0 27.5 2t27.5 5q8 2 11.5 2.5t5.5 0.5q22 0 37 -15t15 -37
q0 -17 -10 -30.5t-25 -19.5l-9 -2q-20 -4 -40 -6.5t-40 -2.5q-71 0 -134 27t-109.5 73.5t-73.5 109.5t-27 134t27 134t73.5 109.5t109.5 73.5t134 27zM357 228q27 0 46.5 19t20.5 46v2v2q-1 27 -20.5 46t-46.5 19q-28 0 -47.5 -19.5t-19.5 -47.5t19.5 -47.5t47.5 -19.5z" />
    <glyph glyph-name="endash" unicode="&#x2013;" horiz-adv-x="426" 
d="M393 306q0 -21 -14.5 -36.5t-36.5 -15.5h-278q-22 0 -36.5 15.5t-14.5 36.5q0 23 14.5 38t36.5 15h278q22 0 36.5 -15t14.5 -38z" />
    <glyph glyph-name="emdash" unicode="&#x2014;" horiz-adv-x="510" 
d="M479 306q0 -21 -15 -36.5t-36 -15.5h-365q-23 0 -37.5 15.5t-14.5 36.5q0 23 14.5 38t37.5 15h365q21 0 36 -15t15 -38z" />
    <glyph glyph-name="underscore" unicode="_" horiz-adv-x="501" 
d="M484 53q0 -21 -15 -36.5t-36 -15.5h-365q-23 0 -37 15.5t-14 36.5q0 23 14 38t37 15h365q21 0 36 -15t15 -38z" />
    <glyph glyph-name="brokenbar" unicode="&#xa6;" horiz-adv-x="171" 
d="M90 652q20 0 35 -15.5t15 -36.5v-718q0 -21 -15 -36t-35 -15q-23 0 -37.5 15t-14.5 36v718q0 21 14.5 36.5t37.5 15.5z" />
    <glyph glyph-name="uni00AD" unicode="&#xad;" horiz-adv-x="426" 
d="M393 306q0 -21 -14.5 -36.5t-36.5 -15.5h-278q-22 0 -36.5 15.5t-14.5 36.5q0 23 14.5 38t36.5 15h278q22 0 36.5 -15t14.5 -38z" />
    <glyph glyph-name="oe" unicode="&#x153;" horiz-adv-x="880" 
d="M245 474q57 -1 106 -26.5t83 -67.5q34 48 86 77t113 29q48 0 92.5 -20.5t78 -54t54 -78t20.5 -92.5q0 -20 -15 -35.5t-38 -14.5h-336q29 -52 67.5 -74t76.5 -22q21 0 36 5t26 9q13 9 29 9q22 -2 35.5 -17.5t13.5 -33.5q0 -8 -2.5 -17t-10.5 -16l1 2q-26 -21 -59 -30
t-70 -10q-57 -2 -107 23.5t-85 70.5q-32 -45 -83.5 -72.5t-112.5 -27.5q-50 0 -94 18t-77 50.5t-52 76.5t-19 96q0 50 18.5 93.5t51.5 76t77.5 52t95.5 21.5zM244 375q-29 0 -55.5 -11t-46 -30.5t-31 -45.5t-11.5 -57q0 -29 11.5 -55.5t31 -46.5t46 -31.5t55.5 -11.5
t55.5 11.5t46 31.5t31 46.5t11.5 55.5q-3 59 -42 99.5t-101 44.5h-1zM777 295q-24 40 -61.5 65.5t-82.5 25.5q-47 0 -84.5 -26t-58.5 -64q-2 -2 -2 -4h290q-1 0 -1 1v2z" />
    <glyph glyph-name="ae" unicode="&#xe6;" horiz-adv-x="890" 
d="M283 483q51 -6 94 -31.5t72 -65.5q35 45 85 72.5t109 27.5q48 0 92.5 -20.5t78 -54t54 -78t20.5 -92.5q0 -20 -15 -35.5t-38 -14.5h-336q29 -52 67.5 -74t76.5 -22q21 0 36 5t26 9q13 9 29 9q22 -2 35.5 -17.5t13.5 -33.5q0 -8 -2.5 -17t-10.5 -16l1 2q-26 -21 -59 -30
t-70 -10q-41 -2 -77.5 11t-67.5 37q-2 -19 -17 -31.5t-32 -12.5q-7 0 -15.5 1t-16.5 5.5t-14.5 12.5t-7.5 22q-5 -2 -18 -9t-19 -10q-11 -5 -23 -9t-25 -8q-25 -5 -54 -5q-75 0 -134 40.5t-88 104.5q-10 22 -15.5 46.5t-5.5 50.5t5.5 50t15.5 47q29 65 88 105t134 40h14
t14 -1zM254 98q29 0 55.5 11t46 30.5t31 45.5t11.5 57v5q-1 28 -13 53t-32 44t-45.5 30.5t-53.5 11.5q-29 0 -54.5 -11.5t-45.5 -31.5t-31.5 -46t-11.5 -55q0 -30 12 -56t32.5 -45.5t46 -31t52.5 -11.5zM787 295q-24 40 -61.5 65.5t-82.5 25.5q-47 0 -84.5 -26t-58.5 -64
q-2 -2 -2 -4h290q-1 0 -1 1v2z" />
    <glyph glyph-name="Oslash" unicode="&#xd8;" horiz-adv-x="502" 
d="M349 637q19 -7 29 -24t6 -37q30 -31 49 -71.5t22 -87.5v-194q-2 -44 -19 -84.5t-46 -71t-69 -49t-86 -18.5q-23 0 -48 5q-20 -8 -38 -3q-28 9 -35 37q-43 30 -69.5 78.5t-30.5 105.5v195q1 44 18.5 84t47 70.5t69.5 48.5t86 18q34 0 65 -11q21 17 49 9zM115 222
q0 -21 6.5 -39.5t17.5 -34.5l123 386q-14 3 -27 3q-25 0 -47 -9.5t-38 -25.5t-25.5 -37.5t-9.5 -46.5v-196zM235 101q24 0 46 9.5t38.5 26t26 38.5t9.5 47v196q0 20 -8 41q-29 -91 -57 -179t-56 -179h1z" />
    <glyph glyph-name="OE" unicode="&#x152;" horiz-adv-x="769" 
d="M688 101q21 0 36 -15t15 -35q0 -22 -15 -36.5t-36 -14.5h-283q-17 0 -30.5 10.5t-18.5 27.5q-26 -18 -56 -28t-65 -10q-44 0 -83 17.5t-68.5 48t-48 71t-21.5 86.5v195q1 44 18.5 84t47 70.5t69.5 48.5t86 18q34 0 64.5 -10.5t56.5 -29.5q4 16 17 28t32 12h283
q21 0 36 -15.5t15 -35.5q0 -22 -15 -36.5t-36 -14.5h-234v-111q0 -2 0.5 -4.5t0.5 -4.5v-26h162q20 0 35 -15t15 -36t-15 -35.5t-35 -14.5h-162v-67q0 -4 -0.5 -7t-0.5 -6v-109h234zM235 101q24 0 46 9.5t38.5 26t26 38.5t9.5 47v196q0 25 -9.5 46.5t-26 37.5t-38.5 25.5
t-46 9.5q-25 0 -47 -9.5t-38 -25.5t-25.5 -37.5t-9.5 -46.5v-196q0 -25 9.5 -47t25.5 -38.5t38 -26t47 -9.5z" />
    <glyph glyph-name="AE" unicode="&#xc6;" horiz-adv-x="719" 
d="M400 391h161q20 0 35 -15t15 -36t-15 -35.5t-35 -14.5h-161v-189h232q21 0 36 -15t15 -35q0 -22 -15 -36.5t-36 -14.5h-278h-4h-5q-4 0 -6 1q-18 3 -29 16.5t-11 32.5v146h-182v-146q0 -21 -15 -35.5t-37 -14.5q-21 0 -35 15t-14 35v396q0 40 15.5 75.5t41 61.5t60.5 41
t74 15q26 0 51 -7t47 -20q6 11 17.5 19t26.5 8h283q21 0 36 -15.5t15 -35.5q0 -22 -15 -36.5t-36 -14.5h-234v-62q1 -6 1.5 -12.5t0.5 -13.5v-58zM299 446q0 19 -7 35.5t-19.5 29t-29.5 19.5t-36 7q-38 0 -64 -26.5t-26 -64.5v-146h182v146z" />
    <glyph glyph-name="divide" unicode="&#xf7;" horiz-adv-x="404" 
d="M393 306q0 23 -14.5 38t-36.5 15h-278q-22 0 -36.5 -15t-14.5 -38q0 -21 14.5 -36.5t36.5 -15.5h278q22 0 36.5 15.5t14.5 36.5zM245 94q0 -21 -15.5 -36.5t-37.5 -15.5q-21 0 -36 15.5t-15 36.5q0 22 15 37.5t36 15.5q22 0 37.5 -15.5t15.5 -37.5zM245 475
q0 -22 -15.5 -37.5t-37.5 -15.5q-21 0 -36 15.5t-15 37.5q0 21 15 36.5t36 15.5q22 0 37.5 -15.5t15.5 -36.5z" />
    <glyph glyph-name="mu" unicode="&#xb5;" horiz-adv-x="529" 
d="M460 485q22 0 35.5 -14t13.5 -34v-186q0 -54 -19.5 -100t-53 -79t-77.5 -52t-93 -19q-30 0 -66.5 10.5t-76.5 35.5v-164q0 -22 -15 -35.5t-34 -13.5q-20 0 -35.5 13t-15.5 33v560q0 20 15.5 32.5t35.5 12.5q21 0 35 -14t14 -34v-199q0 -30 12 -55.5t32 -43.5t46 -28.5
t53 -10.5q31 0 57 11.5t45.5 31t30.5 45.5t11 55v197q0 20 15.5 32.5t34.5 12.5z" />
    <glyph glyph-name="dotaccent" unicode="&#x2d9;" horiz-adv-x="179" 
d="M145 633q0 -21 -15.5 -36.5t-37.5 -15.5q-21 0 -36 15.5t-15 36.5t15 36.5t36 15.5q22 0 37.5 -15.5t15.5 -36.5z" />
    <glyph glyph-name="zdotaccent" unicode="&#x17c;" horiz-adv-x="545" 
d="M455 484q18 0 34 -14h-1q15 -15 15 -34q0 -21 -14 -35l-22 -22q-30 -31 -66 -67t-73.5 -73t-74 -73t-67.5 -67h269q19 -2 34 -15h-1q8 -8 11.5 -17.5t3.5 -18.5q0 -19 -14 -33q-15 -15 -34 -15h-385q-24 0 -38 14q-15 17 -14 34q-1 19 13 33l303 305h-264
q-14 1 -22.5 4.5t-15.5 10.5q-15 15 -14 35q-1 17 14 34q14 14 34 14h389zM328 633q0 -21 -15.5 -36.5t-37.5 -15.5q-21 0 -36 15.5t-15 36.5t15 36.5t36 15.5q22 0 37.5 -15.5t15.5 -36.5z" />
    <glyph glyph-name="dcaron" unicode="&#x10f;" horiz-adv-x="691" 
d="M457 651q20 0 34.5 -14t14.5 -37v-358q0 -49 -19.5 -93t-53 -77t-77.5 -52.5t-92 -19.5t-91.5 19t-77.5 52t-54 77t-20 94q0 49 19.5 93t53 77t77.5 52.5t93 19.5q62 0 143 -44v162q0 20 15 34.5t35 14.5zM264 386q-29 0 -55.5 -11.5t-46.5 -31.5t-31.5 -46t-11.5 -55
q0 -30 11.5 -56t31.5 -45.5t46.5 -31t55.5 -11.5t55 11.5t45.5 31.5t31 46t11.5 55q0 31 -11.5 57t-31 45.5t-45.5 30.5t-55 11zM558 422v1q-3 -9 -8 -9q-9 0 -9 10v178q0 21 15 36t37 15q23 0 36.5 -16t13.5 -37q0 -13 -7 -27z" />
    <glyph glyph-name="Zdotaccent" unicode="&#x17b;" horiz-adv-x="536" 
d="M410 101q21 0 35.5 -15t14.5 -35q0 -22 -14.5 -36.5t-35.5 -14.5h-342q-23 1 -36 16t-13 35q0 16 8 28v-1l290 459h-251q-20 0 -35 14.5t-15 36.5q0 20 15 35.5t35 15.5h340q23 -1 37.5 -17t14.5 -37q0 -7 -2.5 -14t-6.5 -14v1l-287 -457h248v0zM324 790
q0 -21 -15.5 -36.5t-37.5 -15.5q-21 0 -36 15.5t-15 36.5t15 36.5t36 15.5q22 0 37.5 -15.5t15.5 -36.5z" />
    <glyph glyph-name="multiply" unicode="&#xd7;" horiz-adv-x="541" 
d="M422 448q12 13 31 13q9 0 18.5 -3.5t17.5 -11.5v1q13 -13 13 -34q0 -22 -13 -35l-135 -136l135 -136q14 -14 14 -36q0 -9 -3 -18t-11 -17q-13 -13 -33 -13q-22 0 -38 16l-135 133q-14 -15 -31.5 -32.5l-35.5 -35.5l-35.5 -35.5l-32.5 -32.5q-16 -13 -37 -13q-9 0 -17 2.5
t-16 10.5q-14 14 -14 36q0 8 2.5 16.5t10.5 16.5h-1l139 138l-139 138q-12 12 -12 30q0 9 3 19t11 18q15 15 33 15q21 0 37 -16v1l135 -135z" />
    <glyph glyph-name="bullet" unicode="&#x2022;" horiz-adv-x="235" 
d="M105 151q-38 0 -64 26.5t-26 64.5q0 19 7.5 36t20.5 29t29 19t33 7q22 0 39 -8.5t29 -21.5t18.5 -29.5t6.5 -31.5q0 -19 -7.5 -35.5t-20 -29t-29.5 -19.5t-36 -7z" />
    <glyph glyph-name="periodcentered" unicode="&#xb7;" horiz-adv-x="151" 
d="M123 243q0 -21 -15.5 -36.5t-37.5 -15.5q-21 0 -36 15.5t-15 36.5t15 36.5t36 15.5q22 0 37.5 -15.5t15.5 -36.5z" />
    <glyph glyph-name="space" unicode=" " horiz-adv-x="225" 
 />
    <glyph glyph-name="parenright" unicode=")" horiz-adv-x="338" 
d="M65 -33q31 0 59.5 13t50 34.5t34 50t12.5 58.5v231q0 30 -12.5 62.5t-34 59t-50 43.5t-59.5 17q-22 0 -36.5 15t-14.5 37q0 21 14.5 36t36.5 15h14q49 0 94 -20t78.5 -53.5t53.5 -78t20 -92.5v-287q0 -48 -20 -92t-53.5 -77.5t-78.5 -53.5t-94 -20h-14q-22 0 -36.5 15
t-14.5 36q0 22 14.5 36.5t36.5 14.5z" />
    <glyph glyph-name="parenleft.001" horiz-adv-x="377" 
d="M297 -33q22 0 36.5 -14.5t14.5 -36.5q0 -21 -14.5 -36t-36.5 -15h-14q-50 0 -94.5 20t-78 53.5t-53.5 77.5t-20 92v287q0 48 20 92.5t53.5 78t78 53.5t94.5 20h14q22 0 36.5 -15t14.5 -36q0 -22 -14.5 -37t-36.5 -15q-32 0 -60 -17t-49.5 -43.5t-34 -59t-12.5 -62.5v-231
q0 -30 12.5 -58.5t34 -50t49.5 -34.5t60 -13z" />
    <glyph glyph-name="nine" unicode="9" horiz-adv-x="416" 
d="M58 320q-22 25 -34 57t-12 68q0 40 15.5 75.5t41.5 61.5t61.5 41.5t76.5 15.5q39 0 74 -15.5t61 -41.5t42 -61.5t17 -75.5v-251q0 -24 -6 -47t-17 -44q-26 -45 -69 -72t-102 -31h-95q-23 0 -37.5 15.5t-14.5 37.5q0 20 15.5 34.5t36.5 15.5h95q38 0 64.5 26.5t26.5 64.5
v79q-41 -23 -91 -23q-44 0 -81.5 18t-67.5 52zM207 536q-19 0 -36 -7t-29.5 -19.5t-19.5 -29t-7 -35.5q0 -18 7 -35t19.5 -29.5t29 -20t36.5 -7.5q18 0 34.5 7t29 19.5t20 29.5t7.5 36q0 38 -26.5 64.5t-64.5 26.5z" />
    <glyph glyph-name="greater" unicode="&#x3e;" horiz-adv-x="372" 
d="M35 218l152 82l-150 83q-21 11 -27.5 32t4.5 40t32 26t41 -4l237 -129q14 -7 21 -20t6 -28q0 -14 -7 -27t-21 -20l-237 -129q-20 -11 -40.5 -4t-31.5 25q-11 20 -5 41t26 32z" />
    <glyph glyph-name="bracketright" unicode="]" horiz-adv-x="254" 
d="M63 -32h71v569h-71q-21 0 -36 14.5t-15 37.5q0 21 15 36t36 15h122q20 -2 33.5 -16t17.5 -31v-680q-4 -18 -17.5 -32.5t-33.5 -14.5h-122q-21 0 -36 15t-15 36q0 23 15 37t36 14z" />
    <glyph glyph-name="d" unicode="d" horiz-adv-x="506" 
d="M443 638q17 1 32 -13.5t15 -31.5v-351q0 -49 -20 -93t-54 -77t-77.5 -52.5t-91.5 -19.5q-49 0 -93 19t-77 52t-52.5 77t-19.5 94q0 54 17.5 95t52.5 77v-1q37 35 81.5 53t91.5 18q28 0 66.5 -9t76.5 -35v148q0 10 4 19t10.5 16.5t15.5 11.5t18 3h4zM391 242
q0 27 -11.5 53t-31.5 46.5t-46 32.5t-55 12t-55.5 -11.5t-46 -31t-31 -46t-11.5 -55.5q0 -30 11.5 -56t31 -45.5t46 -31t55.5 -11.5t55 11.5t46 31t31.5 45.5t11.5 56z" />
    <glyph glyph-name="q" unicode="q" horiz-adv-x="506" 
d="M247 483q49 0 93.5 -19.5t77.5 -52.5t52.5 -77t19.5 -93v-351q-1 -19 -15.5 -32t-33.5 -13q-22 0 -36 14t-14 34v147q-81 -41 -144 -41q-51 0 -95.5 19t-77 52t-51 77t-18.5 94t19.5 94t52.5 77t77 52t93 19zM391 241q0 29 -11 55t-30.5 45.5t-45.5 31t-57 11.5
q-29 0 -55 -11t-45.5 -30.5t-31 -45.5t-11.5 -56t11 -56t30 -46t45.5 -31.5t56.5 -11.5q29 0 55 10.5t46 30t31.5 46t11.5 58.5z" />
    <glyph glyph-name="braceright" unicode="}" horiz-adv-x="432" 
d="M95 -50q32 0 61 13.5t51 35.5t35 51t13 60v237q0 31 -13 64t-35 60t-51 44.5t-61 17.5q-23 0 -37.5 15.5t-14.5 38.5q0 21 14.5 36.5t37.5 15.5h15q50 0 96 -20.5t80.5 -55t55 -80t20.5 -94.5v-94q21 0 37 -15t16 -38t-16 -38t-37 -15v-95q0 -49 -20.5 -94t-55 -79.5
t-80.5 -55t-96 -20.5h-15q-23 0 -37.5 15.5t-14.5 36.5q0 23 14.5 38t37.5 15z" />
    <glyph glyph-name="cent" unicode="&#xa2;" horiz-adv-x="472" 
d="M441 133q16 -15 16 -33q0 -8 -3 -16.5t-9 -13.5q-64 -64 -154 -70v-99q0 -23 -16.5 -39.5t-39.5 -16.5t-38.5 16.5t-15.5 39.5v119q-32 14 -59.5 37t-47 51.5t-30.5 62.5t-11 71q0 36 11 69.5t30.5 62.5t47 52t59.5 37v120q0 23 15.5 39.5t38.5 16.5t39.5 -16.5
t16.5 -39.5v-99q91 -6 155 -70h-1q7 -7 9.5 -14.5t2.5 -14.5q0 -21 -15 -36q-7 -7 -16.5 -10t-19.5 -3q-22 0 -35 13q-36 32 -80 36v-286q46 4 86 40q9 10 30 10q19 0 34 -16zM131 242q0 -31 13.5 -59.5t36.5 -48.5v214q-23 -20 -36.5 -48t-13.5 -58z" />
    <glyph glyph-name="copyright" unicode="&#xa9;" horiz-adv-x="642" 
d="M411 284h-25v-3q0 -2 0.5 -7.5t0.5 -14.5q4 8 9 15.5t15 9.5zM419 322h73v117q0 36 -6 46.5t-20 10.5q-12 0 -21 -8.5t-14.5 -22t-8.5 -29.5t-3 -30v-84zM289 322h73v117q0 36 -5.5 46.5t-19.5 10.5q-12 0 -21 -8.5t-15 -22t-9 -29.5t-3 -30v-84zM577 322v34h-31v-34h31z
M101 398v-76h52zM127 151v23l60 90h-57v20h-29v-167h46v-24h-87v209h-34v317h57v-170l76 93h70l-90 -104l81 -116h12v220h57v-36q2 6 7 13t12.5 14t18.5 11.5t25 4.5q22 0 39 -12t24 -38q2 7 7.5 16t14 16.5t19.5 12.5t25 5q27 0 46 -19.5t19 -61.5v-87h71v-332h-85v25h45
v210h-60q40 -10 40 -68q0 -32 -14.5 -50.5t-44.5 -18.5q-29 0 -43.5 18.5t-14.5 50.5q0 57 39 68h-50v-29q-23 0 -33 -10t-10 -34v-58h-32v131h-46q16 -5 23.5 -18t7.5 -32v-8h-76q0 -7 2.5 -16.5t8 -18.5t15 -15t23.5 -6q6 0 13 2t12 4v-23q-10 -2 -18 -3.5t-19 -1.5
q-33 0 -50.5 20t-17.5 58q0 22 9 37.5t28 20.5h-47v-20l-60 -90h64v-23h-99z" />
    <glyph glyph-name="currency" unicode="&#xa4;" horiz-adv-x="642" 
d="M411 284h-25v-3q0 -2 0.5 -7.5t0.5 -14.5q4 8 9 15.5t15 9.5zM419 322h73v117q0 36 -6 46.5t-20 10.5q-12 0 -21 -8.5t-14.5 -22t-8.5 -29.5t-3 -30v-84zM289 322h73v117q0 36 -5.5 46.5t-19.5 10.5q-12 0 -21 -8.5t-15 -22t-9 -29.5t-3 -30v-84zM577 322v34h-31v-34h31z
M101 398v-76h52zM127 151v23l60 90h-57v20h-29v-167h46v-24h-87v209h-34v317h57v-170l76 93h70l-90 -104l81 -116h12v220h57v-36q2 6 7 13t12.5 14t18.5 11.5t25 4.5q22 0 39 -12t24 -38q2 7 7.5 16t14 16.5t19.5 12.5t25 5q27 0 46 -19.5t19 -61.5v-87h71v-332h-85v25h45
v210h-60q40 -10 40 -68q0 -32 -14.5 -50.5t-44.5 -18.5q-29 0 -43.5 18.5t-14.5 50.5q0 57 39 68h-50v-29q-23 0 -33 -10t-10 -34v-58h-32v131h-46q16 -5 23.5 -18t7.5 -32v-8h-76q0 -7 2.5 -16.5t8 -18.5t15 -15t23.5 -6q6 0 13 2t12 4v-23q-10 -2 -18 -3.5t-19 -1.5
q-33 0 -50.5 20t-17.5 58q0 22 9 37.5t28 20.5h-47v-20l-60 -90h64v-23h-99z" />
    <glyph glyph-name="registered" unicode="&#xae;" horiz-adv-x="642" 
d="M411 284h-25v-3q0 -2 0.5 -7.5t0.5 -14.5q4 8 9 15.5t15 9.5zM419 322h73v117q0 36 -6 46.5t-20 10.5q-12 0 -21 -8.5t-14.5 -22t-8.5 -29.5t-3 -30v-84zM289 322h73v117q0 36 -5.5 46.5t-19.5 10.5q-12 0 -21 -8.5t-15 -22t-9 -29.5t-3 -30v-84zM577 322v34h-31v-34h31z
M101 398v-76h52zM127 151v23l60 90h-57v20h-29v-167h46v-24h-87v209h-34v317h57v-170l76 93h70l-90 -104l81 -116h12v220h57v-36q2 6 7 13t12.5 14t18.5 11.5t25 4.5q22 0 39 -12t24 -38q2 7 7.5 16t14 16.5t19.5 12.5t25 5q27 0 46 -19.5t19 -61.5v-87h71v-332h-85v25h45
v210h-60q40 -10 40 -68q0 -32 -14.5 -50.5t-44.5 -18.5q-29 0 -43.5 18.5t-14.5 50.5q0 57 39 68h-50v-29q-23 0 -33 -10t-10 -34v-58h-32v131h-46q16 -5 23.5 -18t7.5 -32v-8h-76q0 -7 2.5 -16.5t8 -18.5t15 -15t23.5 -6q6 0 13 2t12 4v-23q-10 -2 -18 -3.5t-19 -1.5
q-33 0 -50.5 20t-17.5 58q0 22 9 37.5t28 20.5h-47v-20l-60 -90h64v-23h-99z" />
    <glyph glyph-name="trademark" unicode="&#x2122;" horiz-adv-x="642" 
d="M411 284h-25v-3q0 -2 0.5 -7.5t0.5 -14.5q4 8 9 15.5t15 9.5zM419 322h73v117q0 36 -6 46.5t-20 10.5q-12 0 -21 -8.5t-14.5 -22t-8.5 -29.5t-3 -30v-84zM289 322h73v117q0 36 -5.5 46.5t-19.5 10.5q-12 0 -21 -8.5t-15 -22t-9 -29.5t-3 -30v-84zM577 322v34h-31v-34h31z
M101 398v-76h52zM127 151v23l60 90h-57v20h-29v-167h46v-24h-87v209h-34v317h57v-170l76 93h70l-90 -104l81 -116h12v220h57v-36q2 6 7 13t12.5 14t18.5 11.5t25 4.5q22 0 39 -12t24 -38q2 7 7.5 16t14 16.5t19.5 12.5t25 5q27 0 46 -19.5t19 -61.5v-87h71v-332h-85v25h45
v210h-60q40 -10 40 -68q0 -32 -14.5 -50.5t-44.5 -18.5q-29 0 -43.5 18.5t-14.5 50.5q0 57 39 68h-50v-29q-23 0 -33 -10t-10 -34v-58h-32v131h-46q16 -5 23.5 -18t7.5 -32v-8h-76q0 -7 2.5 -16.5t8 -18.5t15 -15t23.5 -6q6 0 13 2t12 4v-23q-10 -2 -18 -3.5t-19 -1.5
q-33 0 -50.5 20t-17.5 58q0 22 9 37.5t28 20.5h-47v-20l-60 -90h64v-23h-99z" />
    <glyph glyph-name="zero" unicode="0" horiz-adv-x="419" 
d="M404 446v-252q0 -40 -15 -75.5t-41.5 -61.5t-62 -41.5t-75.5 -15.5h-1q-43 0 -80 18t-64 48q-23 26 -35.5 58.5t-14.5 69.5v252q0 40 15 75t41.5 61t61.5 41.5t76 15.5h1q44 0 80.5 -17.5t63.5 -47.5q23 -26 36 -58.5t14 -69.5zM210 536q-19 0 -36 -7t-29.5 -19.5
t-19.5 -29t-7 -34.5v-252q0 -38 26.5 -64.5t64.5 -26.5q19 0 36 7t29.5 19.5t19.5 29t7 35.5v252q0 37 -26.5 63.5t-64.5 26.5z" />
    <glyph glyph-name="igrave" unicode="&#xec;" horiz-adv-x="211" 
d="M107 0q-22 0 -37.5 15t-15.5 38v376q0 22 15.5 37t37.5 15q20 0 35.5 -15t15.5 -37v-376q0 -23 -15.5 -38t-35.5 -15zM203 541q1 -1 2 -1l1 -1q0 -8 -3 -6q-39 5 -78.5 11t-77.5 11q-17 2 -27.5 17t-8.5 33v-1q2 17 14.5 26t27.5 9q16 0 29 -10z" />
    <glyph glyph-name="iacute" unicode="&#xed;" horiz-adv-x="130" 
d="M65 0q-22 0 -37.5 15t-15.5 38v376q0 22 15.5 37t37.5 15q20 0 35.5 -15t15.5 -37v-376q0 -23 -15.5 -38t-35.5 -15zM90 644q13 10 28 10q16 0 28.5 -9t14.5 -26v1q2 -18 -8.5 -33t-27.5 -17l-156 -22q-3 -2 -3 6l2 2z" />
    <glyph glyph-name="icircumflex" unicode="&#xee;" horiz-adv-x="130" 
d="M65 0q-22 0 -37.5 15t-15.5 38v376q0 22 15.5 37t37.5 15q20 0 35.5 -15t15.5 -37v-376q0 -23 -15.5 -38t-35.5 -15zM203 520q5 -3 5 -10t-3 -12q-5 -4 -11 -5.5t-10 3.5l-119 100q-26 -22 -59 -50t-59 -50q-5 -2 -12 -2.5t-9 2.5q-4 4 -3.5 11.5t4.5 12.5l128 108
q6 4 11.5 3t9.5 -3z" />
    <glyph glyph-name="idieresis" unicode="&#xef;" horiz-adv-x="130" 
d="M65 0q-22 0 -37.5 15t-15.5 38v376q0 22 15.5 37t37.5 15q20 0 35.5 -15t15.5 -37v-376q0 -23 -15.5 -38t-35.5 -15zM13 642q0 -22 -15.5 -37t-37.5 -15t-37 15t-15 37q0 21 15 36.5t37 15.5t37.5 -15.5t15.5 -36.5zM223 642q0 -22 -15.5 -37t-37.5 -15q-21 0 -36 15
t-15 37q0 21 15 36.5t36 15.5q22 0 37.5 -15.5t15.5 -36.5z" />
    <glyph glyph-name="Eth" unicode="&#xd0;" horiz-adv-x="450" 
d="M214 639q43 0 83.5 -17t71 -47t49 -70.5t18.5 -86.5v-197q0 -44 -18 -83.5t-48 -70.5t-70.5 -49t-85.5 -18h-145q-20 0 -35.5 14t-15.5 37v198q-20 2 -32.5 17t-12.5 35q0 21 12.5 36t32.5 17v234q0 20 15 35.5t36 15.5h145zM228 301q0 -21 -14.5 -36.5t-36.5 -15.5h-58
v-147h95q25 0 47 9.5t38 25.5t25.5 37.5t9.5 46.5v197q0 25 -9.5 46.5t-25.5 37.5t-38 25t-47 9h-95v-182h58q22 0 36.5 -15t14.5 -38z" />
    <glyph glyph-name="yen" unicode="&#xa5;" horiz-adv-x="484" 
d="M426 121q0 -21 -14.5 -36.5t-36.5 -15.5h-82v-18q0 -22 -15 -36.5t-35 -14.5q-21 0 -36.5 14.5t-15.5 36.5v18h-82q-22 0 -36.5 15.5t-14.5 36.5q0 23 14.5 38t36.5 15h82v88h-82q-22 0 -36.5 15.5t-14.5 36.5q0 23 14.5 38t36.5 15h37q-32 47 -65.5 94.5t-64.5 92.5h1
q-10 14 -10 30q0 12 5.5 23.5t16.5 19.5q14 9 28 9q11 0 22 -6t19 -17l145 -205l141 205q8 11 19.5 17t23.5 6q13 0 27 -9h1q11 -8 16.5 -19.5t5.5 -23.5q0 -15 -9 -30h1l-131 -187h37q22 0 36.5 -15t14.5 -38q0 -21 -14.5 -36.5t-36.5 -15.5h-82v-88h82q22 0 36.5 -15
t14.5 -38z" />
    </font>
</defs>
</svg>
