<?xml version="1.0" standalone="no"?>
<!DOCTYPE svg PUBLIC "-//W3C//DTD SVG 1.1//EN" "http://www.w3.org/Graphics/SVG/1.1/DTD/svg11.dtd" >
<svg xmlns="http://www.w3.org/2000/svg" xmlns:xlink="http://www.w3.org/1999/xlink" version="1.1">
<metadata>
Created by FontForge 20160407 at Sun Jul 10 17:39:40 2016
 By Jimmy Warting
Paul's SUPER Font (c) (Vicious Ink). 2010. All Rights Reserved
</metadata>
<defs>
<font id="PaulsSUPERFont" horiz-adv-x="1443" >
  <font-face 
    font-family="Pauls SUPER Font"
    font-weight="400"
    font-stretch="normal"
    units-per-em="2048"
    panose-1="2 0 5 0 0 0 0 0 0 0"
    ascent="1638"
    descent="-410"
    x-height="992"
    cap-height="1434"
    bbox="0 -418 1883 1437"
    underline-thickness="150"
    underline-position="-292"
    unicode-range="U+0020-007A"
  />
<missing-glyph horiz-adv-x="0" 
 />
    <glyph glyph-name=".notdef" horiz-adv-x="0" 
 />
    <glyph glyph-name="glyph1" horiz-adv-x="508" 
 />
    <glyph glyph-name="space" unicode=" " horiz-adv-x="508" 
 />
    <glyph glyph-name="space" unicode="&#xa0;" horiz-adv-x="508" 
 />
    <glyph glyph-name="question" unicode="?" horiz-adv-x="1800" 
d="M1344 1433q28 0 154 -160q10 0 72 -74q9 0 77 -80h10v-23q0 -36 -56 -85q-161 -190 -252 -326q-398 -523 -533 -685h-11q-38 4 -148 171q-12 0 -98 132l-272 365q-14 33 -287 400v28l267 286q23 34 46 34h303q5 0 5 6l10 -6q5 0 5 6q10 -6 16 -6l10 6q9 -6 20 -6v6
q5 0 5 -6l26 6h241q5 0 5 5q5 0 5 -5q95 5 139 5h144q41 0 97 6zM857 1399l-21 -6q0 6 -5 6v-6l-10 6h-41l-10 -6v6l-11 -6h-261q-6 0 -6 -6q-9 6 -15 6l-61 -6l-26 6q-5 0 -5 -6l-26 6h-15l-11 -6v6q-25 0 -159 -148q-144 -160 -153 -160v-6q17 -6 200 -268
q226 -304 405 -554q126 -169 174 -223v-5h11q18 35 118 154l420 548q88 126 282 365v6q-11 0 -184 194l-93 103l-10 5q-379 -5 -487 -5zM344 1313q110 0 179 -11v-29q-71 0 -102 -194h5q0 -6 -5 -6q26 -137 51 -137q0 -35 72 -57q1 7 102 109v5q-15 0 -25 97q5 0 5 6h-5
q44 177 210 177h51q97 0 165 -97q30 -97 30 -148q0 -88 -102 -189q-90 -80 -211 -80v-80q0 -12 6 -22q-6 -12 -6 -18h6l-6 -11v-11q0 -6 6 -6l-6 -12l6 -11l-6 -29l6 -28q-6 0 -6 -6h6q5 0 5 6q5 0 5 -6q39 12 87 17h36q20 91 20 160v6l6 11q26 -5 30 -5q237 78 293 194
q21 25 31 137q-21 204 -83 228v23q0 4 16 17q39 -6 51 -11q28 5 46 5h26q42 -63 174 -222q-340 -442 -528 -697q-57 -65 -67 -108l-10 -6h-5q-10 0 -10 11v12q14 40 20 40q-11 74 -67 74h-15q-52 0 -92 -91q20 -46 20 -63v-6h-5q-31 0 -92 103l-472 651q-26 45 -46 63l-5 34
q0 8 107 108zM354 1285q-172 -189 -190 -189q21 -19 21 -40q5 0 189 -262l344 -469q0 74 98 115l25 5q73 0 93 -62v-12q104 128 549 714q-51 38 -88 103q-39 35 -77 91q-63 -6 -66 -6v-11q27 0 51 -172v-79q0 -223 -354 -332q0 -7 -15 -137v-45l-26 -6l-26 17h-20
q-71 0 -103 -34h-5l-15 11q0 6 5 6l-5 40v51q0 21 5 52l-5 11q5 10 5 23h-5q0 6 5 6l-5 28v86q209 0 297 177q16 44 16 63q-13 112 -47 154q-69 68 -133 68q-9 -5 -20 -5h-16q-5 0 -5 5l-10 -5q-5 0 -5 5q-61 0 -134 -74q-22 -34 -36 -80q9 -70 36 -103v-17
q-131 -125 -143 -125q-52 0 -98 68q-41 77 -41 120v80q0 66 67 154h5v6q-38 0 -118 6zM446 731l5 -12l-10 -5l-5 11z" />
    <glyph glyph-name="at" unicode="@" horiz-adv-x="2019" 
d="M972 622q-83 -10 -151 -80t-68 -199q0 -107 64 -194t183 -87q97 5 126 167v476q-54 -63 -154 -83zM1360 29q-63 1 -100.5 18t-61.5 54q-29 -37 -82 -64.5t-133 -27.5q-144 0 -256.5 100.5t-112.5 233.5q1 87 53 166.5t132.5 115t173.5 49.5q67 16 110 42.5t43 74.5
q-2 69 -41 125t-129 56q-72 0 -121.5 -59t-50.5 -125h-45v159q0 20 72 40q73 20 178 20q109 -2 193.5 -64.5t84.5 -157.5v-589q0 -117 94 -117q185 35 267 191.5t82 382.5q-20 335 -232 540q-197 188 -480 188q-205 0 -392.5 -137.5t-269.5 -355.5q-67 -178 -67 -361
q0 -313 129.5 -511.5t305 -290.5t318.5 -92q274 0 575 208v-75q-263 -184 -571 -184q-240 0 -461 122.5t-343 342t-122 461.5t124 464.5t345.5 342t456.5 119.5q362 0 609 -230t247 -566q0 -270 -176 -439q-175 -168 -346 -170z" />
    <glyph glyph-name="A" unicode="A" horiz-adv-x="1998" 
d="M883 1433q8 -6 34 -6q51 6 63 6v-6l12 6h40l11 -6q0 6 6 6v-6l11 6h35q6 0 6 -6l11 6h6q5 0 5 -6q6 0 6 6l29 -6h17q6 0 6 6l11 -6h86l12 6q0 -6 5 -6v6l12 -6h17q6 0 6 6l11 -6l12 6v-6q6 0 6 6l40 -6h97q32 0 184 -166q160 -143 160 -155v-11q0 -11 -120 -138
q-109 -114 -413 -487q-15 -9 -327 -384q-7 0 -80 -86q-27 0 -149 155q-281 344 -654 819q-97 114 -97 132q3 24 206 207q119 114 126 114h499q21 0 52 6zM837 1404h-476q-29 0 -183 -154q-147 -138 -155 -138q589 -761 854 -1066q6 0 6 -12h11q433 491 694 814l229 253
q-113 93 -281 269q-26 34 -51 34h-316q-28 0 -86 6v-6l-11 6h-6q-73 0 -160 -6q-12 0 -12 6zM1381 1318h69q35 0 63 -57q10 0 121 -109q27 -23 51 -23v-11l-5 -12h5q0 -28 -304 -372q-38 -61 -97 -115q-63 0 -143 247q-23 138 -23 280v81q13 0 109 86q106 5 154 5zM396 1313
h189q23 0 120 -86h6q-58 -383 -115 -510q-19 -54 -63 -98h-17q-57 80 -350 430q0 17 -17 17v23q0 11 212 212q19 12 35 12zM1141 1204v-29q0 -27 -6 -57q23 -259 69 -356l69 -109h5q63 58 373 442q0 6 -149 137q-14 29 -58 63h-137q-85 0 -132 -63q-18 0 -34 -28zM178 1083
q217 -280 349 -430q35 25 75 155q29 81 74 333v74q0 5 -91 75h-167q-38 0 -68 -35q-172 -162 -172 -172zM963 1290q15 0 52 -281q17 -95 28 -109v-12q-27 -51 -103 -51h-34q-121 13 -121 51q0 23 52 270q18 132 57 132h69zM894 1267q-23 -55 -80 -350v-29q54 -28 120 -28
q50 0 81 28q-29 116 -63 379h-12q-13 0 -23 -6q-10 6 -23 6zM946 802q166 -13 166 -80q11 -77 11 -97v-86q0 -180 -120 -270q-81 -91 -92 -91q-48 0 -97 74q-114 110 -115 144q-28 86 -28 240q0 161 229 161q31 5 46 5zM694 636q0 -269 114 -338q3 -16 86 -92h12
q172 162 172 207q11 41 23 137h-6l6 12q-8 183 -41 183q-46 29 -97 29h-6q-202 0 -229 -46q-34 -44 -34 -92z" />
    <glyph glyph-name="B" unicode="B" horiz-adv-x="1998" 
d="M1332 1437q11 -6 24 -6h168q324 -318 324 -325v-11q0 -23 -133 -162q-338 -414 -533 -632l-197 -226q-62 -75 -70 -75h-34q0 9 -87 104q-135 164 -441 556l-226 278q-118 145 -127 145v35q7 0 41 35q257 244 301 272q30 6 58 6h538q6 0 6 -6l12 6h353q13 0 23 6z
M353 1402q-37 -26 -220 -203l-104 -93h-6v-11q13 0 238 -284q164 -194 382 -481q255 -303 255 -307h6q412 465 793 933q128 136 128 145q-11 0 -41 40q-57 43 -208 197q-63 64 -70 64q-22 6 -46 6h-319q-6 0 -6 -6q-11 6 -17 6q-14 0 -87 -6l-23 6l-12 -6q-5 0 -5 6
q-18 0 -18 -6q-87 6 -127 6h-267q-83 0 -226 -6zM1385 1332q85 0 127 -69q119 -111 162 -174q0 -25 -203 -237q0 -8 -115 -139q-7 -18 -41 -41q0 137 -133 191h-35v23q197 92 197 220v35q-29 145 -93 145v29q12 0 12 6q6 0 6 -6zM446 1315q111 0 203 -98v-122
q11 -287 11 -325q0 -127 -63 -173h-29l-406 498v6q186 214 209 214h75zM1315 1298v-6q58 -76 58 -168q0 -122 -122 -214q-22 -18 -34 -18v-11q52 0 104 -105q11 -17 11 -40h12q36 52 301 353q-13 0 -92 93q-110 110 -116 110q-10 6 -52 11q-41 -5 -70 -5zM197 1101v-12
q24 -15 98 -116q152 -192 284 -347h6q46 24 46 127q-11 417 -11 458q-72 75 -162 75h-70q-27 0 -93 -75q-56 -59 -98 -110zM938 1286q154 0 203 -110q12 -40 12 -70v-5q0 -127 -145 -174q-75 -12 -191 -12q-6 12 -6 18q-12 158 -12 214v93q0 34 24 34q64 0 115 12zM823 1234
v-12q0 -5 5 -5l-5 -12v-87q11 -98 11 -110v-70q225 12 238 53q52 42 52 87v46q-39 127 -133 127q-30 6 -70 6q-98 0 -98 -23zM933 869q208 -35 208 -99q10 0 29 -104v-11q0 -143 -75 -197q-37 -25 -110 -35q-31 6 -35 6q-67 -6 -127 -6q0 11 -12 11q-6 184 -6 273v139l23 -6
q45 29 105 29zM823 805v-116q0 -15 11 -34q0 -13 -6 -24q6 -49 6 -81v-98q5 0 35 -6q29 0 29 12q6 0 6 -6l23 6q9 0 69 -6q84 17 110 52q32 65 35 139q0 197 -231 197h-6q-41 0 -81 -35zM753 353q27 -5 290 -11l6 -12q0 -31 -116 -127q-8 -19 -47 -35q-36 54 -139 162v18
q6 0 6 5zM805 319q87 -102 87 -110v-6q3 0 116 110h-6q-121 6 -197 6z" />
    <glyph glyph-name="C" unicode="C" horiz-adv-x="2054" 
d="M371 1431h371q5 0 5 -6q12 6 18 6l35 -6q22 6 46 6q0 -6 6 -6v6l11 -6h12q6 0 6 6l11 -6q6 0 6 6l12 -6h46q24 0 64 6q10 -6 23 -6q11 6 17 6q11 -6 18 -6q11 6 17 6t6 -6l40 6h406q67 -57 295 -284q16 0 41 -40v-24q-49 -58 -116 -127q-184 -201 -376 -446l-377 -435
q-67 -75 -75 -75h-12q-32 0 -93 87q-30 30 -208 249l-388 481q-197 243 -238 301q10 1 174 151q166 162 197 162zM35 1112l597 -741l272 -325q17 -10 17 -23h6q492 555 695 817l203 220l29 35q0 7 -174 168l-150 145h-82q-5 0 -5 -6l-12 6h-87q-6 0 -6 -6l-11 6h-6
q-6 0 -6 -6q-6 0 -6 6l-58 -6h-776l-29 6v-6l-11 6h-64q-326 -296 -336 -296zM475 1327q14 0 226 -12v-40q-46 0 -133 -122q-41 -78 -52 -185v-139q0 -25 34 -140l-5 -34h-18q0 9 -127 156l-220 272v24q186 214 214 214q72 6 81 6zM1373 1327l12 -6h81q14 0 145 -139l92 -99
q0 -30 -272 -324q-48 -68 -122 -127v202h-23q0 -127 -98 -266q-114 -76 -209 -76h-11q-73 0 -174 58q-93 112 -93 325v23q8 138 122 325q78 92 179 92h12q123 0 156 -98q24 -65 24 -81h57q31 0 99 5v180q23 0 23 6zM1170 1309h145v-5q-3 -128 -23 -128q-6 0 -6 -6
q-58 17 -58 53q-19 31 -69 69v6q2 11 11 11zM203 1101q200 -252 301 -365v11q-10 48 -23 157q6 11 6 17q0 241 162 371h-6q-151 6 -237 6q-16 0 -145 -139q-46 -58 -58 -58zM1373 1286q7 -62 12 -75l-6 -35v-46q0 -23 -145 -23v5l-11 -5l-12 5l-35 -5h-11v17
q-35 162 -139 162h-18q-161 0 -237 -232q-20 0 -41 -162v-6q0 -287 145 -341q71 -24 116 -24q158 0 237 168q0 15 41 163h64v-163h5q5 15 186 215l139 162v17q-168 180 -203 203l-29 6h-46zM1228 1280q40 -72 52 -75v64l6 11h-58zM736 435h11q0 -29 244 -29v-6l11 6h29
q28 0 116 23q0 -12 6 -12q-5 -31 -185 -203q-25 -40 -35 -40h-6q-40 32 -145 168q-24 14 -58 69v12q2 12 12 12zM782 388v-6q6 0 122 -139q24 -29 29 -29q0 8 162 168v6q-26 -11 -75 -11q-52 0 -232 5q0 6 -6 6z" />
    <glyph glyph-name="D" unicode="D" horiz-adv-x="1951" 
d="M1471 1432q290 -290 317 -290v-17q0 -39 -67 -100q-149 -177 -289 -373q-245 -300 -273 -346q-10 0 -140 -167q-100 -113 -100 -139q-41 0 -150 139q-107 118 -457 546l-156 190q-149 169 -156 194v17q11 0 312 307q11 5 17 5q31 0 445 11l23 6q5 0 5 -6q3 0 22 6
q540 17 647 17zM323 1376q-286 -301 -301 -301v-6l730 -868q92 -109 150 -168q77 122 335 413q12 22 267 339q0 25 223 284q39 39 39 56h-6q-104 83 -306 284h-145q-6 0 -6 -5q-5 0 -5 5q-196 -11 -975 -33zM407 1315q100 0 139 -51q63 -39 78 -39v-178l-6 -28h6l-6 -11v-39
q0 -5 6 -5q0 -6 -6 -6q6 -92 6 -139v-117q-29 -100 -56 -100h-28q-7 1 -256 311q-106 134 -117 134v28q189 236 240 240zM1237 1315h161q30 0 89 -56q150 -132 151 -145v-28l-229 -273l-11 -5h-17v16q0 6 12 45v89q0 99 -84 240l-89 94v6q0 8 17 17zM852 1303
q117 -9 206 -66q156 -99 156 -307q0 -117 -67 -239q-112 -162 -261 -162h-95q0 11 -6 11l6 11v12q0 5 -6 5l6 11q0 6 -6 6l6 11v11q0 6 -6 6l6 11q0 5 -6 5l6 12q0 5 -6 5l6 11l-6 11h6l-6 12v183q0 13 -5 23q0 5 5 5l-5 28v362q36 17 72 22zM434 1287h-39
q-161 -154 -206 -223q93 -104 362 -440q32 0 51 89q-6 241 -6 345h6q0 6 -6 6l6 28v50q0 69 -28 83q-15 0 -101 67zM1303 1287h-33v-11q85 -56 134 -234q0 -17 11 -56v-117h11q0 12 78 100q89 102 106 134q-8 30 -117 111q-54 78 -112 78q-10 -5 -16 -5q-5 0 -34 5
q-11 -5 -16 -5v5zM802 1259q0 -137 6 -568h5l-5 -11v-17l5 -11h-5l5 -11v-39l-5 -12q5 0 5 -5h-5q5 -8 5 -34h23q5 0 5 6l11 -6q183 0 273 168q45 41 67 194v12h-6l6 11v28q-10 79 -45 150q-137 150 -245 150q0 9 -50 12q-50 -7 -50 -17zM1164 546q11 -6 17 -6v-16
q0 -9 -201 -251q-67 -79 -67 -89h-16q-20 14 -195 234v22h5q48 0 90 -11v5l11 -5h44q6 0 6 5q5 0 5 -5q186 28 262 89zM824 407q-28 0 -83 5q77 -99 161 -195q0 6 206 256q-137 -66 -261 -66h-23z" />
    <glyph glyph-name="E" unicode="E" horiz-adv-x="1963" 
d="M1399 1433q10 -6 22 -6l40 6v-6l11 6q40 -12 63 -46q261 -266 277 -266v-39q-199 -216 -334 -402l-561 -674l-22 -6q-74 57 -227 255q-295 375 -668 815v12q0 12 79 84q246 248 266 250h6q126 0 1014 11q4 0 34 6zM696 1399q-29 -6 -33 -6q-11 6 -17 6l-12 -6q-5 0 -5 6
l-29 -6h-232q-33 0 -215 -193q-125 -114 -125 -124q27 -13 170 -198q83 -94 340 -419q231 -295 362 -431h6q11 23 210 255l356 436q106 147 312 368h5v17q-16 0 -294 283q0 14 -23 17q-163 0 -776 -5zM1336 1319h74q27 0 102 -90q8 0 136 -136q11 -6 17 -6v-17
q-179 -188 -340 -402q-52 -73 -85 -73h-6v51l-5 28h-12q-29 0 -96 -6q-20 -81 -68 -113q-56 -34 -187 -34h-5v243l-6 40q63 57 153 57q37 0 96 -34v5q-5 0 -5 6q5 0 5 6h-5l5 11v6q0 5 -5 5l5 12v22q0 6 -5 6l5 11v29q-69 -17 -153 -23q-73 13 -73 17l-12 -6h-11l-6 29v147
l-5 56q5 0 5 6q-5 0 -5 6h5l-5 11v85q0 15 45 23q158 0 232 -193q39 6 51 12v-6q6 0 6 6l56 -6q3 0 23 6q0 198 34 198q22 5 45 5zM391 1308q232 -9 232 -57q11 -36 11 -51v-549q0 -38 -45 -62h-6q-32 0 -107 113q-16 9 -153 181q-159 186 -159 199q0 14 130 135
q77 85 97 91zM1291 1217v-39l-6 -12h6q-7 -79 -28 -79h-51q-37 0 -113 -5q0 50 -102 152q-40 27 -74 34q0 -11 -11 -11q0 11 -12 11h-22q-12 -1 -12 -11l6 -11h-6l6 -12v-203l6 -68h17l11 5q0 -17 85 -17q42 0 130 29h12v-153q0 -42 -17 -46h-17q-35 51 -91 51h-17
q-74 -7 -108 -39v-249q145 0 193 73q9 40 17 40l-6 11v17q53 11 119 11v6q57 0 57 -45l-6 -11q2 -12 11 -12q12 32 272 346q85 82 85 102q-78 81 -215 209h-102q-17 0 -17 -74zM391 1280q-193 -189 -193 -193h-5v-5q329 -404 390 -470l29 34v396l-6 11q6 0 6 6h-6l6 11v23
l-6 28h6l-6 12v5l6 11q-6 0 -6 6h6q-6 11 -6 17q6 11 6 17q-6 0 -6 6h6q0 79 -148 79q-19 6 -73 6zM1104 436v-28q-11 0 -107 -131q-6 0 -91 -90h-23q-5 15 -158 198q0 17 -17 17v17q0 11 17 11q90 0 379 6zM844 408h-51l-40 -6q0 6 -6 6v-6q97 -125 153 -187
q128 144 165 198h-97q-5 0 -5 -5q-6 0 -6 5q-76 -5 -113 -5z" />
    <glyph glyph-name="F" unicode="F" horiz-adv-x="1998" 
d="M1186 1431q6 0 6 -6q67 6 97 6h222q84 -87 325 -319v-12q0 -29 -165 -193l-662 -793q-95 -108 -102 -108q-12 0 -12 -6q-19 0 -80 68q-312 381 -815 1021v29l331 307h849q6 0 6 6zM1363 1403h-1015q-308 -291 -325 -291v-12q291 -359 422 -530q342 -427 450 -541h6
q28 39 228 273q251 291 542 645q91 91 142 153q-19 0 -291 280q-17 10 -17 23h-125q-6 0 -6 5zM399 1323h103l11 -6v6q109 0 109 -86q5 -11 5 -17q-5 -102 -11 -102l6 -35q0 -166 5 -541l-11 -6h-34q0 11 -206 274l-205 268v22q211 223 228 223zM1380 1317l57 -6l34 6
q114 -137 160 -182q0 -9 51 -52l6 -11q-31 -9 -171 -177q-124 -164 -303 -365q-231 -283 -302 -359h-17q-28 32 -28 68v92q0 87 5 239h6l-6 12q0 23 6 62q0 6 -6 6l6 29v148q73 34 154 34h11q69 0 109 -29v29q0 6 -6 6l6 11v51h-6l-103 -17v6q-5 0 -5 -6q-166 0 -166 57
l6 29v239l34 23q28 17 86 17h17q167 0 194 -148l148 11l-6 29h6l-6 11q6 63 6 109v11q0 14 23 17zM200 1089q24 -41 399 -519q5 57 5 86v34l-5 28h5l-5 12q0 6 5 6l-5 11v23q0 5 5 5l-5 12v194l-6 68h6q-6 11 -6 17l6 12q-6 10 -6 22h6l-6 12v57q0 6 6 6l-6 11v17q0 6 6 6
q0 85 -74 85v-5l-12 5h-97q-28 0 -148 -131zM1386 1289l-6 -12v-148q0 -22 -194 -29q0 12 -11 12l5 11q-36 126 -159 126h-29q-85 0 -85 -52h-6q0 -5 6 -5q-6 -57 -6 -86v-131q5 -27 137 -34q59 0 119 28h23q0 -6 6 -17q-11 -43 -11 -80v-57q0 -11 -12 -11h-28
q-29 23 -86 34q-110 -8 -148 -34v-160q0 -157 -12 -222q6 0 6 -6q-6 0 -6 -5h6l-6 -12v-103q0 -26 12 -91h11q0 9 80 97q175 215 365 434q170 221 285 342q-177 205 -188 205q-39 0 -68 6z" />
    <glyph glyph-name="G" unicode="G" horiz-adv-x="2014" 
d="M1233 1431q6 0 6 -5l57 5h203q0 -13 283 -283q34 -22 34 -50q-10 -28 -147 -170q-5 -13 -91 -113q-118 -163 -288 -368l-328 -396q-29 -51 -62 -51h-6q-17 3 -266 294l-311 374q-135 179 -255 311q-62 81 -62 102q1 12 317 316q38 12 187 12h84l12 5v-5q11 5 17 5
q89 0 616 12v5zM334 1386q-1 -6 -289 -288l-17 -23q51 -85 244 -283q57 -107 277 -356q72 -101 362 -413q0 22 192 243q464 569 464 577q83 105 221 255v5q-309 306 -317 306h-6q-958 -23 -1131 -23zM1329 1318h119q132 -113 210 -198v-11l-272 -351q0 -21 -68 -73v-6h-22v6
q0 4 5 45l-28 62v6q0 24 90 39v23l-5 11q-109 6 -142 6q-271 -11 -311 -11l-5 -12v-45q0 -40 5 -124l68 5h28q36 130 108 130q0 -5 5 -5v5q60 0 102 -96v-79q0 -136 -164 -192q-48 -6 -79 -6h-57q-124 0 -248 221q-23 70 -23 164q0 310 215 418q39 12 68 12q158 0 203 -119
q6 -11 6 -17h57q29 0 96 5v17q0 54 11 148h-5q5 22 33 22zM1222 1312v-5l11 5h17v-67q0 -23 -11 -74h-23q-46 52 -124 119v17h102zM560 1307h11q9 0 17 -23q-113 -88 -158 -226q-28 -77 -40 -198q6 0 6 -6h-6l6 -11l-6 -40h-22q0 10 -215 261v5q40 78 209 232q40 -5 45 -5
q109 11 153 11zM1318 1205v-85q0 -17 -119 -17h-73l-51 79q-68 57 -153 57q-122 0 -220 -215q-29 -87 -29 -108v-73l-5 -11q5 0 5 -6h-5l5 -11v-46q0 -78 91 -186q83 -113 175 -113h34q6 0 6 5q5 0 5 -5q210 29 210 198q-6 9 -6 22q0 6 6 6q-33 96 -85 96q-43 0 -85 -119
q-85 -17 -136 -17q-11 0 -17 181q6 31 6 51h6q14 0 305 12h51q153 0 153 -23q0 -11 5 -11q0 -55 -79 -68h-11v-12q22 -37 22 -51q119 142 204 266q34 34 91 113q-178 176 -204 176q0 6 -23 6h-62q-17 0 -17 -91zM390 1273h-17q-147 -130 -192 -209l187 -210v23
q0 141 102 328l73 79h-6q-74 -11 -147 -11zM1143 1284q73 -65 73 -79h6q0 23 6 23q0 5 -6 5l6 29v22h-85zM741 407q114 -34 192 -34h63q31 0 85 12q0 -12 5 -12q-149 -181 -158 -181h-12q-45 39 -152 170q-14 17 -23 17v28zM792 368v-6q119 -121 119 -136h11l102 125l-51 -6
q-119 0 -181 23z" />
    <glyph glyph-name="H" unicode="H" horiz-adv-x="2006" 
d="M1485 1434q2 -8 323 -312v-17q-28 -25 -28 -45q-202 -230 -323 -403q-14 -7 -244 -300q6 0 6 -6l-12 -5q0 5 -5 5q-15 -25 -227 -289q-42 -56 -57 -56q0 -6 -17 -6q-19 0 -96 96q-177 200 -578 692q-10 4 -176 204q-51 52 -51 79q107 113 136 136q1 8 79 80
q99 107 119 107q36 6 80 6h79l11 6v-6l12 6q271 5 317 5q0 6 6 6q0 -6 5 -6l6 12q28 -6 28 -12l69 6h85q5 0 5 6q6 0 6 -6q282 17 442 17zM1377 1406l-1037 -29l-312 -317q207 -252 306 -357l204 -250q284 -340 369 -425l419 516l335 420q106 123 113 124v29
q-153 142 -306 294h-6l-56 -5q-6 0 -6 5zM1304 1332h119q51 -24 215 -215l28 -40v-11q-19 0 -45 -57q-33 -26 -278 -340q-8 0 -102 -108q-18 -11 -34 -11q-17 20 -17 39v267l-5 28h5l-5 11l5 29h-5q0 6 5 6l-11 198q6 48 6 79h-6q0 62 51 80q49 45 74 45zM918 1326v-5
q6 0 6 5q91 0 91 -45q5 -157 5 -261v-56q-23 -34 -56 -34h-69q-56 0 -102 39v119q0 13 -5 23q0 6 5 6l-5 28v153q0 14 130 28zM436 1315h68q101 -61 108 -79v-369q0 -89 11 -119h-5l5 -11q0 -6 -5 -6l5 -11v-148q0 -8 -17 -17h-11q-31 0 -91 91q-62 62 -334 391v46
q15 0 130 113q12 0 63 57zM1298 1304q-15 -22 -85 -63v-68q0 -23 -6 -62q6 -10 6 -23q-6 -11 -6 -17h6q0 -5 -6 -5l6 -57v-159q0 -73 11 -102h-5l5 -11v-148h12q0 16 90 108q297 364 306 386q-210 226 -221 226q-76 -5 -113 -5zM816 1275v-34l-6 -39q6 0 6 -6q-6 0 -6 -6
q6 0 6 -5h-6l6 -12v-153q0 -56 68 -56q0 -6 29 -12q10 6 17 6l11 -6q57 10 57 40q-6 31 -6 45q0 12 6 12l-6 28v68q0 6 6 6l-12 68h6q0 73 -34 73l-51 6q-91 -6 -91 -23zM187 1054l408 -470h6v5q0 102 -12 204h6l-6 12v266q0 6 -5 6q0 6 5 6q-5 56 -5 85v62q-75 62 -102 62
h-34zM901 850q119 0 119 -40q-5 -40 -5 -45q5 -132 17 -164h-6l6 -12v-232q0 -64 -80 -130q0 -15 -51 -57h-6q-57 63 -96 113h-6v29l6 11h-6l6 11v12q0 5 -6 5q0 6 6 6q-6 77 -6 113v6l6 40h-6q0 5 6 5l-6 68v6q0 13 6 23q-6 10 -6 22h6l-6 12v136q28 62 108 62zM822 759
q5 -93 5 -141h-5l5 -12q-5 -30 -5 -51q5 0 5 -5q-5 0 -5 -6h5l-5 -11q0 -82 5 -221q28 -61 74 -97q0 9 97 102v91l5 68q-5 0 -5 6h5l-5 11v79q0 125 -12 199q6 9 6 28q-46 17 -74 23q-96 -24 -96 -63z" />
    <glyph glyph-name="I" unicode="I" horiz-adv-x="1975" 
d="M1508 1434q132 -138 307 -296l17 -29q0 -31 -131 -159q-20 -33 -125 -148q-149 -205 -592 -717q-57 -85 -91 -85q-46 31 -256 284q-111 140 -131 154q0 11 -250 319q-137 161 -137 176q-11 0 -108 125q-11 0 -11 29q0 16 330 324h137l34 6l11 -6l11 6l29 -6q11 6 17 6v-6
l11 6h268l11 5v-5l11 5l29 -5v5q6 0 6 -5q66 5 96 5h148q6 0 6 6l11 -6l34 6v-6l12 6q238 6 296 6zM1434 1405q-399 -5 -461 -5q0 -6 -6 -6v6l-11 -6h-302q-5 0 -5 -6q-6 0 -6 6l-29 -6h-250q-31 0 -176 -153q-9 0 -160 -154v-11q9 0 154 -177l438 -540l262 -307
q11 -8 11 -18h12q0 8 466 558q194 250 433 518v11q-17 0 -296 279q0 6 -23 17h-6q-5 0 -5 -6q-6 0 -6 6q-4 0 -34 -6zM1274 1326v-6l12 6h176q29 0 74 -69q128 -120 142 -153v-34q-11 0 -125 -143l-364 -432q-11 -8 -11 -17h-6v85q-29 -17 -57 -17h-17q-52 0 -74 51l6 29v97
q0 5 -6 5l6 12v74q0 5 -6 5l6 12v17l-6 40h6l-6 11v250q8 51 68 51h17q28 0 57 -17v74q0 57 46 57q51 7 62 12zM586 1309q6 0 6 -6l28 6h34q12 -2 12 -12v-119q46 28 79 28h17q33 -22 35 -34q-6 -58 -6 -91v-6q0 -5 6 -5q0 -6 -6 -6q6 -94 6 -142v-131q0 -46 5 -108l-5 -12
q5 -30 5 -51v-51q0 -7 -34 -29h-17q-34 0 -80 29v-137h-5q0 10 -91 120l-353 449q-51 62 -51 80q14 0 182 171q33 45 108 45q30 6 114 6h5q6 0 6 6zM1343 1297h-57q-29 0 -86 -5v-6q-5 -50 -5 -57l5 -11q-5 -11 -5 -18h5l-5 -11q5 -11 5 -17q-8 -23 -17 -23h-17
q-41 29 -91 29q-28 -24 -28 -29v-182l6 -34q0 -6 -6 -6l6 -39v-291q0 -8 34 -28q41 0 85 28h17q17 -5 17 -34q-6 0 -6 -5h6l450 534l-131 137q-7 0 -57 68q-12 0 -12 6l-11 -6l-28 6q-10 -6 -23 -6v6l-11 -6h-23q-6 0 -6 6zM597 1280h-68q-6 0 -6 -6q-5 0 -5 6
q-131 0 -131 -40q-13 -1 -176 -170h-6l438 -552v28q0 6 -6 6q5 10 12 68h28q0 -38 63 -51h5q29 0 29 11q0 483 -12 592q-10 6 -22 6h-6q-63 -14 -63 -51h-28q-5 62 -11 62l5 11v86zM757 330h290v-6q-118 -145 -142 -148h-6q-63 47 -142 154zM814 307q85 -94 85 -102h11
q0 8 80 102h-176z" />
    <glyph glyph-name="J" unicode="J" horiz-adv-x="1998" 
d="M1418 1435l11 -6h86q35 -25 212 -201q121 -99 121 -132v-29q-24 0 -241 -252q-126 -171 -471 -568q0 -10 -74 -92q-106 -132 -109 -132q0 -23 -40 -23h-12q-144 150 -562 660q-203 267 -339 402v17q0 31 138 149q8 15 160 155q14 35 81 35l11 -6v6l12 -6q39 6 63 6v-6
q11 6 17 6q205 0 936 11v6zM1446 1400h-401q-49 0 -144 -5v5l-11 -5h-253q-30 0 -98 -6v6l-11 -6q-6 0 -6 6l-40 -6h-120q-29 0 -127 -109q-9 0 -212 -201q0 -12 57 -52q0 -16 18 -28q73 -80 407 -500q401 -469 413 -476l362 436q160 178 321 396l218 241l-315 304l-41 6
q0 -6 -5 -6v6zM752 1303v-6l11 6h144v-81l6 -34q-6 -10 -6 -29v-5l28 5h6l29 -5q18 51 57 51h29q34 0 34 -115v-327q0 -229 -200 -310q-40 -5 -64 -5q-91 0 -195 80l-34 52q0 5 -12 46v51q16 132 86 132t98 -109q10 -6 23 -6h69v18q0 13 6 23q-6 11 -6 17l6 29q-6 0 -6 5h6
l-6 12q0 5 6 5q-6 12 -6 18l6 23q-6 10 -6 23h-149q-6 0 -6 5l-12 -5l-34 5q-6 0 -6 -5l-11 5h-17l-12 -5q0 5 -6 5v-5q-11 5 -17 5q-7 0 -57 -5l-12 5q-10 -5 -23 -5h-17v-155q0 -12 -11 -12h-23q0 12 -138 172q0 12 -115 150q-34 37 -34 63v11q11 0 103 126q66 75 80 75
l12 -6h6q5 0 5 6q6 0 6 -6l29 6h5q6 0 6 -6l12 6h17q6 0 6 -6l11 6h264zM1469 1297h12q194 -183 195 -189v-29l-356 -419h-17v23q0 6 6 6l-6 11v6q0 6 6 6l-6 11l-17 344l-6 23h6l-6 12v52q0 68 23 68h6q64 0 80 -28q23 -17 23 -35l11 6h46v6q0 19 -6 97q6 0 6 6h-6
q6 10 6 23zM344 1268q-149 -189 -155 -189q26 -43 264 -339v6h-5l5 12q0 5 -5 5l5 12q0 6 -5 6l5 28v69q0 8 18 17h17q37 0 115 6q0 -6 5 -6v6l12 -6h252q0 -8 18 -23v-143q0 -63 -18 -63h-51q-6 0 -6 -6q-69 7 -80 23q0 6 5 6q0 67 -63 86q-69 0 -69 -126q0 -133 224 -173
q101 0 190 121q40 59 40 166v195q0 13 5 23q-5 10 -5 23v58q0 115 -23 115h-12q-34 -23 -34 -52q-115 0 -115 17v52q0 5 6 5l-6 12v57l-6 12q-192 -12 -528 -12zM1492 1240v-6q0 -37 12 -86l-18 -12h-97q0 40 -69 58h-11v-75q11 -270 22 -396q6 0 322 373q-10 0 -132 121
q-17 14 -17 23h-12zM1119 436h6v-17q-101 -136 -212 -241h-12q-129 141 -161 189v18q68 -6 98 -6h6q5 0 5 -6l12 6h74q29 0 184 57zM918 350h-126v-6l115 -132q16 9 149 167q-86 -29 -138 -29z" />
    <glyph glyph-name="K" unicode="K" horiz-adv-x="1994" 
d="M352 1435q225 -6 340 -6h69l69 -6v6l11 -6h582q6 0 6 -5q6 0 6 5l29 -5h57q10 0 75 -75l248 -254v-23q0 -10 -58 -58q0 -7 -23 -28q-149 -156 -213 -242q-79 -102 -605 -692q-21 -46 -63 -46q-38 25 -277 334q-151 186 -449 576l-156 196v12q324 312 352 317zM29 1106
q160 -183 328 -420q217 -263 386 -484l144 -173q12 0 12 6q399 451 432 495q13 1 185 208q84 114 299 334q0 5 -104 109l-207 214h-357l-58 5v-5l-11 5q-18 0 -18 -5l-34 5q-205 0 -651 6q0 6 -6 6q0 -6 -6 -6v6q-40 -28 -248 -225q-76 -62 -86 -81zM392 1325h81q8 0 92 -75
v-167q0 -5 -6 -5l6 -12v-6q0 -5 -6 -5q6 -12 6 -18l-6 -29h6l-6 -11v-92q0 -89 -6 -288l-11 -6h-12q0 31 -173 242q-122 157 -190 236v12q0 39 225 224zM899 1314h288l58 -6v-40q-30 -19 -288 -231q-46 -31 -162 -127q-11 0 -11 -11h-23v265q0 6 5 6l-5 11v6q0 6 5 6
q0 6 -5 6l5 28v70q0 17 133 17zM196 1106q306 -397 334 -420v276l6 41h-6l6 11v12l-6 11h6l-6 12l6 11l-6 12l6 11q0 6 -6 6l6 29v121q-6 14 -75 63h-58q-197 -178 -207 -196zM905 1285h-110v-63q0 -32 -6 -81q6 -10 6 -23q-6 0 -6 -6h6l-6 -11v-156q10 0 254 202
q141 106 161 132q-46 0 -46 12l-11 -6h-12q-6 0 -6 6l-11 -6h-12q-5 0 -5 6l-12 -6q-6 0 -6 6l-11 -6h-150q-6 0 -6 6zM1492 1268h12q90 -90 184 -208q-291 -343 -432 -484h-6q-12 1 -115 121q-107 133 -121 133v34q22 13 288 248q32 22 190 156zM1492 1233l-443 -386v-11
q11 0 144 -162q55 -63 63 -63q392 439 392 444v5q-47 65 -156 173zM847 726q35 0 121 -121q7 -1 156 -173q-30 -45 -214 -236l-11 -6h-12q-13 7 -132 162h-6v126q0 58 6 173q-12 0 -12 12q8 5 41 5l-6 12l11 6q0 -6 6 -6q0 10 52 46zM784 634v-75q0 -13 -6 -23q0 -6 6 -6
q-6 -68 -6 -98v-46q0 -24 121 -167q174 196 184 196v17q-167 196 -230 260q-68 -51 -69 -58z" />
    <glyph glyph-name="L" unicode="L" horiz-adv-x="2034" 
d="M460 1433l41 -6v6l11 -6q6 0 6 6l11 -6q6 0 6 6l12 -6h972q32 0 172 -156l173 -166v-35q-250 -255 -391 -443q-139 -150 -478 -541q-73 -86 -98 -86q-63 48 -247 282l-362 449q-85 113 -265 333q-10 23 -23 23v35q300 277 351 311h109zM23 1105q43 -36 368 -455
q411 -509 506 -615h6q117 132 127 132l500 575q86 113 311 345v6q-19 0 -316 305h-524q-6 0 -6 6l-11 -6h-52l-35 6l-11 -6q-6 0 -6 6q-11 0 -11 -6l-69 6h-443q-51 -39 -334 -299zM403 1329h103q9 0 92 -75v-627q0 -6 6 -6q-6 -11 -6 -17h-23q-107 124 -356 449
q-6 0 -46 52v5q0 11 46 46q70 80 184 173zM207 1105q336 -417 357 -455h6l5 69v29q0 6 -5 6l5 11v17q0 6 -5 6l5 12v23q0 5 -5 5l5 12l-5 11l5 12l-5 29q5 11 5 17q-5 0 -5 6q5 0 5 5h-5l5 12q0 6 -5 6l5 11v52l-5 12q5 0 5 5h-5l5 12q0 40 -11 40l6 29v144q-6 14 -75 63
h-81q-44 -30 -207 -201zM903 1312q199 -6 288 -6h276q6 0 6 -6l11 6q32 -47 138 -150q75 -73 75 -97q-122 -127 -293 -334q-9 -1 -184 -196v173h-35q0 -30 -63 -75q0 -21 -225 -34h-40q-30 0 -34 17v52q0 5 5 5l-5 12v11q0 6 5 6q-5 11 -5 17q0 12 5 12l-5 40v167q0 6 -6 6
l6 11v58q0 6 -6 6l6 11q-6 11 -6 17h6l-6 12q6 11 6 17h-6l6 12v166q11 0 80 64zM846 1225v-143q0 -18 5 -18l-5 -28v-265q0 -6 5 -6l-5 -11q5 -63 5 -110v-17l29 -6h23q219 12 219 41q40 32 40 69h75v-156q72 78 368 426q58 58 58 75q-200 201 -207 201h-12
q-275 12 -362 12h-162q-68 -50 -74 -64zM719 478l69 -6h288l29 -6v6l11 -6h46v-23q-15 0 -149 -150q-75 -115 -110 -115l-190 236l-17 29v11zM857 443h-126q0 -15 184 -230h5q76 103 190 230h-236q-5 0 -5 6z" />
    <glyph glyph-name="M" unicode="M" horiz-adv-x="1955" 
d="M866 1433v-6l12 6h17l11 -6v6q6 0 6 -6l28 6h549q250 -249 323 -312v-39l-204 -227q-258 -332 -430 -527q-253 -305 -283 -328h-6q-35 0 -130 130q-311 373 -697 872q-62 66 -62 91v6q0 12 306 311q1 11 39 17h510zM980 1404h-414q-87 0 -238 -5q0 -12 -288 -289l-17 -23
q82 -82 328 -407q160 -212 413 -510q91 -115 125 -142l357 425q238 273 345 425l198 215v6l-317 311h-317q-6 0 -6 -6l-11 6l-56 -6v6l-12 -6h-5q-6 0 -6 6l-11 -6h-40l-11 6q0 -6 -6 -6v6zM832 1319l57 -5h96q57 0 170 -6l11 -17v-23q0 -6 -169 -226q-50 -78 -57 -79h-6
q-223 274 -226 322q5 11 5 17q119 10 119 17zM1365 1314h79q198 -175 198 -244q-123 -157 -238 -283q-82 -94 -96 -96h-11v51q0 13 -6 22q6 10 6 23v17q0 13 -6 23q6 11 6 17q-6 0 -6 5q6 0 6 6h-6l6 11q-6 11 -6 17h6l-6 12v56q0 19 6 29q-6 22 -6 39q0 56 6 232zM357 1308
h85l68 -74v-249q0 -5 -6 -5l6 -12l-6 -11q6 -11 6 -17q-6 -11 -6 -17h6l-6 -11v-238q0 -11 -11 -11h-17q-8 17 -148 186q-61 85 -90 114q-91 107 -91 130v6q143 155 210 209zM1319 1240v-74q0 -17 6 -17l-6 -28v-317q0 -13 6 -23l-6 -11q6 -9 6 -28q180 196 277 323l12 11
q-42 80 -181 221h-57q-8 0 -57 -57zM181 1093q0 -28 193 -249q102 -136 102 -142h5v136q0 6 6 6q0 5 -6 5l6 29v11q0 13 -6 23q6 11 6 17h-6l6 11v283q0 8 -68 68h-51q-7 -2 -187 -198zM747 1280v-17q153 -221 193 -261q17 46 147 204l51 74q-93 5 -141 5h-108q-6 0 -6 6
q-5 0 -5 -6l-23 6q-80 -11 -108 -11zM719 1014h6l192 -278q129 231 187 232l6 -11v-527q-11 0 -136 -158q-68 -73 -68 -91h-34q-76 77 -170 198v601q4 34 17 34zM725 951v-549q58 -81 158 -187h12q39 55 187 232v176q0 6 5 6l-5 11l5 11q-5 0 -5 6q5 0 5 6q-5 0 -5 5
q5 0 5 6h-5l5 11q0 6 -5 6q0 5 5 5l-5 29v198h-6q0 -14 -79 -102q0 -11 -57 -91q0 -22 -11 -22h-34q-62 116 -170 243z" />
    <glyph glyph-name="N" unicode="N" horiz-adv-x="1990" 
d="M360 1435l12 -6h1109q32 0 120 -102q101 -107 206 -206l17 -29v-11q-216 -233 -457 -544q-12 0 -126 -137q-309 -357 -309 -360q-34 -32 -34 -40h-29q-131 141 -337 406q-91 102 -263 337q-13 6 -143 189q-6 0 -126 154v40q115 100 217 201q99 102 126 102q17 0 17 6z
M23 1104q448 -574 480 -624q58 -63 338 -406q34 -35 34 -45h6q151 168 417 480q187 210 297 360q183 194 200 223l-308 309h-143q-6 0 -6 6l-11 -6h-12q-6 0 -6 6l-11 -6h-80l-34 6q-10 -6 -29 -6h-17q-13 0 -23 6l-11 -6l-12 6l-34 -6q-6 0 -6 6l-11 -6l-29 6l-29 -6
q-5 0 -5 6q-12 0 -12 -6q-85 6 -125 6h-492zM366 1327h103l91 -69q-5 -198 -5 -286v-360h-18l-274 337q-99 126 -109 126v29q22 47 189 205zM983 1315q132 -6 132 -23v-188q0 -6 6 -6l-6 -12v-51q0 -27 6 -57q-6 -52 -17 -52h-12q0 13 -40 57l-177 298v11q0 20 108 23z
M183 1092q336 -410 337 -423h12v383q0 13 -6 23q6 10 6 23v143q-6 14 -75 63h-80q-163 -143 -194 -212zM1378 1309h80l200 -228v-12q-59 -83 -234 -257q0 -8 -69 -80q0 -17 -51 -23v543q9 17 74 57zM932 1281h-23v-6q157 -250 172 -286h11v275q0 15 -103 23q-30 -6 -57 -6z
M1327 1246v-154l5 -11h-5l5 -12v-46l-5 -11q5 0 5 -6h-5l5 -11v-12l-5 -11h5q0 -6 -5 -6l5 -40v-171q191 198 286 314v17q-13 0 -114 138l-57 63h-46q-16 0 -74 -41zM789 1046h17q0 -25 103 -194q212 -378 212 -395q-165 -164 -235 -263h-11q-95 103 -103 103v46q0 6 6 6
q0 6 -6 6l6 40v108q0 6 5 6l-5 11l5 35q0 5 -5 5l5 12v74q0 6 -5 6l5 11q0 6 -5 6l5 11v46l-5 40q5 0 5 6q-5 0 -5 6q5 0 5 5h-5l5 12v6q0 12 -5 22q5 10 5 23v6q0 6 -5 6l5 11l-5 40h5l-5 12q0 35 5 85l-5 35zM806 966v-206l-5 -68h5l-5 -12l5 -11h-5l5 -11v-40q0 -6 -5 -6
l5 -12v-22q0 -6 -5 -6q0 -6 5 -6l-5 -29v-142q0 -6 -6 -6l6 -12v-5q0 -13 -6 -23q6 -10 6 -23l-6 -12q6 0 80 -80l183 201q28 29 28 40l-188 337q-88 154 -92 154z" />
    <glyph glyph-name="O" unicode="O" horiz-adv-x="2030" 
d="M364 1433h104q13 0 23 -6q10 6 23 6q6 0 6 -6q6 0 6 6l58 -6h57q32 0 81 6q8 -6 41 -6v6l11 -6h93q19 0 29 6l34 -6h29q34 0 93 6q10 -6 23 -6q9 6 29 6q0 -6 5 -6v6l12 -6l11 6l12 -6l29 6q6 0 6 -6l29 6h329q10 0 208 -202q127 -114 127 -122v-11q0 -29 -104 -127
q-69 -69 -428 -497q-355 -396 -387 -457q-35 -17 -46 -17h-11q-77 75 -249 289q-192 226 -410 503q-29 21 -29 28q0 24 -202 260l-6 12v29l329 300q19 12 35 12zM23 1109v-5q491 -612 774 -948q30 -41 104 -121v-6h12q12 0 52 58q465 529 711 826q47 47 173 185
q-10 0 -58 58q-11 1 -266 254h-462q-57 0 -139 -6q-5 6 -46 6q-17 0 -17 -6l-58 6h-162l-29 -6v6l-11 -6q-87 6 -121 6v-6l-12 6h-6l-11 -6v6l-12 -6l-11 6q0 -6 -6 -6q0 6 -6 6q0 -6 -6 -6v6l-11 -6l-35 6q-38 -22 -208 -185q-120 -116 -133 -116zM647 1317q0 -6 6 -17
q0 -9 -35 -35q-150 -159 -150 -421q0 -13 12 -87l-12 -6h-17q-52 52 -231 272q-47 48 -47 75l151 167q21 47 104 47h179zM1450 1312l52 -6q10 6 23 6q26 -49 116 -156q27 -24 52 -58h6v-52q-16 0 -231 -260q-68 -80 -81 -81h-18q6 58 6 87v17l6 11q-6 0 -6 6q6 0 6 6h-6
l6 12v11q0 260 -110 376l-35 40v29q72 12 214 12zM584 1283h-156q-72 0 -104 -64q-31 -22 -116 -133v-6q174 -214 231 -271v46q12 167 46 272q81 126 110 161zM1421 1283h-17q-40 0 -127 -6q133 -154 133 -358q-6 -97 -6 -151q-6 -11 -6 -17q30 24 278 324q-42 35 -174 202
q-69 3 -69 11zM942 1288q86 0 144 -104q64 -159 64 -248v-46l6 -12q-6 0 -6 -6h6l-6 -11q0 -271 -116 -381q-59 -47 -127 -47h-17q-84 0 -150 122q-41 149 -41 237q0 165 75 340q46 99 133 151q4 0 35 5zM728 844v-64q0 -111 52 -243q63 -75 133 -75q152 0 208 272
q0 115 6 150h-6l6 12q0 5 -6 5l6 12q0 100 -81 289q-55 58 -116 58q-121 -70 -121 -151q-41 0 -75 -225q-6 -7 -6 -40zM1069 358l6 -11v-18q-25 0 -110 -133q-15 0 -17 -23h-12q-14 6 -139 151v17q6 0 18 6q42 -12 86 -12q99 0 168 23zM965 306h-104q0 -15 75 -81h6
q0 11 63 87z" />
    <glyph glyph-name="P" unicode="P" horiz-adv-x="1951" 
d="M1348 1433v-6l12 6h5q6 0 6 -6l11 6h23q5 0 5 -6l12 6h11l39 -6v6q26 0 91 -79q248 -231 248 -254v-17q-236 -264 -401 -479q-508 -604 -513 -604h-28q-17 5 -226 265q-252 309 -643 813v16q11 23 56 57q0 6 125 124q139 141 158 141h152q5 0 5 6q6 0 6 -6l28 6h12
q5 0 5 -6l12 6h304l11 5q0 -5 6 -5v5q6 0 6 -5q84 5 124 5h327zM1264 1399h-277q-31 0 -79 -5q-1 5 -56 5l-40 -5l-11 5q-11 -5 -17 -5v5l-11 -5h-429l-316 -305l209 -265q302 -393 496 -621q50 -66 147 -175v-5q147 169 214 259q235 263 514 615l175 197v12q-16 0 -311 299
h-146q-6 0 -6 -6q-5 0 -5 6l-29 -6h-5q-6 0 -6 6zM1456 1303l197 -214q6 -10 6 -23q-15 0 -164 -175q-6 0 -6 -11h-33v17q16 20 16 68q0 211 -141 287q-39 16 -39 46q32 5 164 5zM378 1303h90q31 0 158 -101q0 -19 6 -29l-6 -11l6 -11q-6 -31 -6 -45l6 -51q-6 0 -6 -6h6
l-6 -11v-6l6 -39h-6l6 -11v-17q0 -13 -6 -23q6 -11 6 -17h-6l6 -11v-6q0 -5 -6 -5l6 -12v-45q0 -5 -6 -5l6 -12v-304q0 -6 6 -6l-6 -11v-34h-17q-77 76 -355 451q-113 134 -113 153q129 135 135 135q67 76 96 90zM942 1298h11q92 0 147 -62q119 -87 119 -266q0 -91 -62 -158
q-54 -45 -187 -45q-118 11 -118 40q0 5 6 5l-6 29v344q0 5 6 5l-6 12v50q56 46 90 46zM1354 1275v-6q79 -43 102 -101q45 -98 45 -186v-40q43 44 118 136q0 13 -192 208q-12 -4 -73 -11zM181 1072v-6q233 -295 417 -541h6v445q0 84 -6 226q-125 85 -141 85h-68
q-156 -137 -208 -209zM880 1236v-429h6q76 -12 96 -12h11q119 0 152 63q13 8 23 45q14 0 22 73q0 205 -186 288q-9 5 -28 5h-23q-64 -14 -73 -33zM869 705q127 -34 231 -51q45 0 203 40h6v-17q-59 -77 -271 -305q0 -8 -79 -96q-56 -69 -56 -79h-17q-10 0 -34 40l6 39v125
q0 5 -6 5l6 11v51q0 6 -6 6l6 11v6q0 19 -6 28l6 34q0 6 -6 17l6 22q-6 30 -6 57h6q0 5 -6 5q6 51 17 51zM886 666l-6 -34v-395h11q0 10 79 96l277 316q-65 -23 -130 -23q-84 0 -231 45v-5z" />
    <glyph glyph-name="Q" unicode="Q" horiz-adv-x="1951" 
d="M1349 1434v-6l11 6h97q48 0 96 -74q9 0 136 -136q119 -98 119 -130q0 -21 -221 -255q-43 -66 -198 -261q-6 0 -482 -572l-29 -6q-24 11 -153 170l-357 436q-205 262 -368 460v22q1 13 261 261q57 68 102 68h5q17 0 17 -6l29 6h45q6 0 6 -6l11 6h244q5 0 5 6q6 0 6 -6
l68 6h199q5 0 5 5l12 -5h34l39 5v-5l12 5h238zM340 1389l-317 -312q34 -28 102 -125q145 -162 277 -340q350 -435 482 -584q76 82 352 420q149 172 385 470q149 170 159 170v12q-149 139 -289 289l-23 17zM1343 1309q136 0 136 -39l159 -159l6 -28q0 -7 -68 -74
q-61 -61 -176 -199q0 -4 -45 -45h-23v6q17 41 23 142q0 176 -165 362q0 29 46 29q30 5 107 5zM357 1304q197 -12 244 -12l34 6v-17q-160 -105 -193 -232q-23 -87 -23 -119v-23q0 -48 29 -159l-12 -6h-17q-159 183 -272 335v17q14 0 119 130q58 59 91 80zM867 1304
q225 0 267 -318l11 -96h-6l6 -12v-17l-6 -11h6q-55 -249 -130 -249h-6q-31 79 -51 79q-50 -6 -57 -6l51 -119q0 -34 -96 -51q-138 0 -199 267v51l-5 11h5l-5 11q0 308 187 460h28zM1236 1275q141 -173 141 -306q6 0 6 -22v-52q0 -40 -11 -62l11 -6q0 19 170 199q42 51 57 51
v11q-177 187 -193 187q-49 6 -85 6h-40zM181 1083v-6q91 -119 216 -255v17q0 46 -6 74q0 208 164 351l-187 11q-47 -29 -164 -170q-9 0 -23 -22zM680 924h6l-6 -11v-52q0 -212 142 -317l34 -11q0 5 5 5v-5q27 0 57 28q-31 40 -57 130v6q103 13 103 17q24 0 68 -74
q79 123 79 216v45q0 135 -79 289q-73 85 -171 85h-11q-122 -121 -142 -221zM1213 578h11v-28q-76 -102 -85 -102h-11q-7 0 -51 51v11zM1122 504v-5q2 -12 12 -12q7 1 22 29h-5q-19 -12 -29 -12zM680 442q28 0 153 -17h51q48 0 119 11q34 -70 34 -85q-72 -113 -136 -175
q-30 0 -91 90q-28 29 -130 153v23zM725 408q121 -139 159 -193h23q0 13 102 142q-15 0 -23 45q-30 0 -96 -11v6l-12 -6q-49 0 -153 17z" />
    <glyph glyph-name="R" unicode="R" horiz-adv-x="2010" 
d="M1526 1435q109 -117 320 -315q0 -6 6 -17q0 -27 -177 -206q-204 -267 -760 -897h-12q-27 0 -86 80q-21 16 -251 297q-566 685 -566 709q0 26 63 74q264 258 280 258q29 0 29 5l11 -5h46q13 0 23 5l11 -5q49 5 80 5h6l11 -5v5q6 0 6 -5l28 5h252q21 0 51 6q6 0 6 -6
q14 0 86 6q419 6 537 6zM1155 1406h-86q-6 0 -6 -6q-6 0 -6 6q-67 -6 -97 -6h-234q-24 0 -63 -5q-6 0 -6 5l-68 -5h-235q-57 -46 -325 -309l651 -800q158 -193 223 -257h6q17 29 457 537q269 332 332 400q125 129 125 137q-244 231 -314 309q-237 -6 -354 -6zM394 1315h80
q31 0 138 -109v-240q0 -6 -6 -6l6 -11l-6 -12h6l-6 -11v-6q0 -5 6 -5q0 -6 -6 -6l6 -29v-91q0 -13 -6 -23q0 -6 6 -6l-6 -57v-57q2 -86 11 -86q-5 -10 -5 -23h-12q-36 37 -240 286q-26 21 -131 160q-63 59 -63 97v12q79 113 228 223zM200 1097v-22l103 -138
q135 -152 263 -314v-6h11v235q0 5 6 5l-6 12v137q0 6 6 6l-6 11l6 12q-6 11 -6 17h6l-6 11q0 6 6 6q0 6 -6 6l6 68v52q-9 18 -109 97h-68q-14 0 -149 -137q-49 -58 -57 -58zM1480 1298v-6l12 6h11q58 -64 138 -138q3 -12 68 -68v-17q-171 -192 -171 -200h-12q-13 0 -17 28
q0 19 17 46v63q0 13 6 23q-15 186 -143 228l-6 12v17q30 0 97 6zM1040 1292v-6l12 6q155 0 200 -103q40 -66 40 -177q-42 -177 -92 -177q-47 -46 -165 -46q-22 0 -206 6l-6 28v12q0 5 6 5l-6 12v23q0 5 6 5l-6 12v34q0 21 -6 51q6 10 6 29q-6 0 -6 6h6l-6 11v6q0 6 6 6
l-6 11v183q0 57 69 57q40 0 154 6zM1458 1269v-6q102 -59 102 -228q0 -14 -5 -86q13 5 114 131q-177 175 -177 189h-34zM846 1240v-143l6 -11q-6 0 -6 -6h6l-6 -11v-23q0 -6 6 -6q0 -5 -6 -5q6 -57 6 -86v-126l194 -6q133 0 183 92l34 103q0 168 -114 240q-26 11 -74 11
h-143q-58 0 -86 -23zM1389 766l29 -6v-17q-167 -194 -172 -194h-11q-69 49 -120 131v29q200 13 200 40q13 0 23 -6q41 23 51 23zM1160 686h-5q39 -66 91 -97q67 74 103 126h-6q-102 -29 -183 -29zM840 680h17q162 -159 246 -291v-12q-132 -126 -183 -206h-11q-67 75 -80 75
v423q2 11 11 11zM852 634v-102q0 -6 5 -6q-5 -11 -5 -17l5 -12q-5 -11 -5 -17h5l-5 -11q5 -135 5 -200q4 0 58 -58h5q0 23 149 178q-30 22 -109 137z" />
    <glyph glyph-name="S" unicode="S" horiz-adv-x="1998" 
d="M1370 1428l12 -6h5q6 0 6 6l12 -6h115q328 -313 328 -328q0 -35 -115 -144q-128 -139 -317 -374l-374 -432l-115 -138l-29 -6q-28 0 -98 98q-5 0 -138 167l-558 691l-104 126v29q2 11 127 121q59 48 109 98q89 92 127 92q3 0 75 -6v6l11 -6l81 6q17 0 17 -6q57 6 86 6
h731q6 0 6 6zM645 1393h-294q-154 -142 -236 -207q0 -4 -92 -92v-6q12 0 219 -253q0 -10 75 -92q50 -87 86 -87v-5q-12 -2 -12 -12l478 -581q27 -29 41 -29v6q0 8 17 17l-6 11v6q0 7 40 23l530 616q112 146 156 190q139 147 172 190v6q-13 0 -178 167l-144 138h-179
q-5 0 -5 -6l-12 6h-599q-13 0 -23 -6q-5 0 -5 6zM391 1347l12 -6h40q64 0 64 -17v-11q-100 -32 -213 -162q-41 -76 -41 -109v-58q-9 0 -23 -11q-72 87 -80 132q94 134 241 242zM178 1105q41 -59 41 -69h11v41q32 88 87 143q52 53 109 81l6 12q-17 0 -17 5q-48 0 -237 -213z
M869 1295h18q108 0 236 -51q121 -82 121 -167q0 -18 11 -18h115q13 0 23 -5q10 5 23 5v-5l69 11q-11 23 -11 63v127l29 6q167 -143 184 -167h6v-23q-94 -124 -116 -138q-135 -143 -144 -144h-17q0 107 -224 161l-110 17v-6q-365 37 -449 87q-52 8 -92 57v58q46 132 328 132z
M1324 1290h104v-18q-60 -83 -92 -138h-35q0 32 -98 127v17q72 12 121 12zM570 1140q0 -76 265 -121q421 -36 512 -92q56 -36 92 -98q0 8 144 155l69 93q0 15 -149 138v-6q5 -155 17 -155q-6 -12 -6 -18q-106 -5 -155 -5h-18q-126 0 -126 23q0 86 -75 132q0 24 -115 63
q-42 12 -167 23v-5q-6 0 -6 5l-29 -5q-11 0 -11 5q-242 -32 -242 -132zM1261 1261v-6q59 -81 63 -81q0 16 52 81v6h-115zM391 835q138 -52 490 -81h34q0 -6 6 -6v6l12 -6q196 -5 247 -5q64 -15 64 -92q0 -105 -173 -150q-54 -12 -87 -12h-74l-35 -5q-23 8 -23 17v6l23 34v17
q-19 98 -81 98h-23q-74 0 -149 -63q-19 -29 -46 -29q-114 112 -173 207q-22 0 -29 46q0 9 17 18zM415 800q93 -125 149 -178q0 -9 23 -23q83 86 184 86h41q92 -18 92 -132q0 -11 -12 -41l29 6h40q192 0 248 104v57q-14 35 -46 35q-35 0 -35 6q-11 -6 -17 -6q-104 0 -104 11
q-5 0 -5 -5q-356 23 -559 69q0 11 -28 11zM794 374h52q72 0 133 -6q32 6 103 6v-23q-11 0 -46 -46q-122 -109 -144 -109q-11 0 -144 155v6q4 17 46 17zM800 345q101 -115 104 -115q83 64 127 115h-6q-31 0 -52 -5q-54 5 -104 5h-69z" />
    <glyph glyph-name="T" unicode="T" horiz-adv-x="1994" 
d="M354 1433h1137q52 0 104 -76l226 -220q35 -20 35 -52q0 -16 -238 -261q-142 -193 -435 -522q-36 -58 -185 -209q0 -10 -82 -93h-29q-118 124 -614 760q-170 204 -273 336v18q0 9 58 58q0 8 180 168q88 93 116 93zM29 1102q83 -89 215 -261q465 -587 643 -795q6 -11 6 -17
h23q0 15 163 191l116 140l-6 11l12 6q0 -6 5 -6l302 354q105 140 313 360v11q-15 0 -301 296q0 10 -29 12h-830q-66 0 -203 5v-5l-11 5h-18q-13 0 -23 -5l-12 5l-11 -5q-10 5 -23 5q-11 0 -331 -307zM360 1299q11 -6 17 -6q6 -58 6 -87v-69h110l29 -6q93 151 244 151h11
v-603q0 -13 6 -24q-6 -10 -6 -23v-23l6 -12h-6l6 -11v-41l-6 -11h6l-6 -12l6 -29h-6l6 -12v-104q0 -29 -23 -35l-603 748q0 61 203 209zM1473 1293h12q114 -99 197 -197v-29l-563 -667q-12 -25 -34 -40h-12q-9 0 -17 23q0 6 5 6l-5 58v643l-6 12h6l-6 12q0 5 6 5
q-6 12 -6 18l6 11q-6 11 -6 24h6l-6 11v52l6 29h52q105 0 168 -139l6 -40l29 5h93l58 6v186q1 11 11 11zM197 1114v-24q198 -255 557 -690v313q0 49 -6 145h6l-6 12v128q0 13 -6 23l6 11l-6 29h6q-6 47 -11 47l5 11v128h-11q-96 0 -180 -128q-19 -17 -29 -17q-32 0 -64 6
q-36 -6 -81 -6h-6q-23 9 -23 41q0 37 6 75l-6 35q-72 -55 -151 -139zM1491 1241v-6q5 -106 5 -133q-5 0 -5 -6h5q0 -40 -162 -40h-70q-18 72 -52 116q-61 55 -116 63q-11 -5 -17 -5v-256q0 -5 6 -5l-6 -12v-6q0 -6 6 -6l-6 -11v-29q0 -6 6 -6l-6 -12l6 -34h-6l6 -12
q0 -12 -6 -12l6 -69v-163q0 -5 5 -5l-5 -12q0 -6 5 -6l-5 -11v-6q0 -6 5 -6q0 -6 -5 -6l5 -29v-69q0 -6 -5 -6q5 -10 5 -29q209 238 453 539q104 112 104 139q-151 151 -156 151z" />
    <glyph glyph-name="U" unicode="U" horiz-adv-x="1994" 
d="M355 1432l29 -6h189q5 0 5 -6q6 0 6 6l57 -6h292q58 0 172 -6v6l12 -6h389q31 0 126 -108q206 -206 212 -206v-63q-19 0 -149 -144q-78 -70 -223 -252q-138 -149 -378 -429q-183 -212 -212 -212h-12q-70 65 -440 538l-419 544q0 6 -11 6v46q8 0 126 109q200 183 212 183
q17 0 17 6zM344 1403q-5 -11 -315 -286h-6v-12q11 0 149 -183l298 -384q279 -360 406 -504l12 -5q693 774 693 790q230 241 240 246v6l-315 315q-379 6 -561 6l-69 5q-6 0 -6 -5l-34 5q-148 0 -492 6zM412 1329h103q78 -52 109 -98v-343l-6 -35l6 -11q-6 -11 -6 -17h6
l-6 -12v-154l6 -29q-6 0 -6 -6q6 0 6 -6h-6l18 -80l-12 -5h-28q-11 22 -138 171q-71 100 -195 252q0 10 -97 126v6q0 36 155 160q0 7 91 81zM1352 1323h103q154 -136 229 -252q-121 -155 -224 -258q-57 -53 -91 -97q-92 -103 -121 -103h-5v103l5 11h-5l5 12q-5 280 -5 435
v57q30 38 109 92zM200 1082q41 -40 361 -458q29 -34 35 -34v69q0 12 -6 22q6 11 6 23v46q0 6 -6 6l6 11v464q-82 80 -115 80h-51q-82 -81 -201 -183q-29 -30 -29 -46zM1271 1220v-298l6 -34q-6 -10 -6 -23q6 -32 6 -46h-6q0 -6 6 -6l-6 -28v-121q10 0 275 287l92 114v6
q-139 188 -201 235h-51q-40 0 -115 -86zM939 1300h75q28 0 86 -6v-40q0 -31 5 -80l-5 -11q0 -7 5 -18q-5 -127 -5 -206v-120q0 -321 -121 -321h-28q-172 0 -172 252v533q33 17 160 17zM807 1254v-97q0 -6 6 -6q-6 -11 -6 -17q0 -36 6 -189q-6 0 -6 -6h6l-6 -11v-103
q0 -244 75 -270q0 -10 74 -28q86 6 86 69q21 0 29 211h-6l6 12v6q0 28 -6 86q6 0 6 5q-6 0 -6 6q6 0 6 6h-6l6 11v75l6 11q-6 0 -6 6q6 0 6 6h-6l6 11v109q0 57 -12 114h-154q-104 0 -104 -17zM1059 395h23v-17q-129 -166 -183 -212h-29q0 21 -91 115q0 10 -57 86v17h5
q105 -23 161 -23h23q5 0 5 -6q100 13 143 40zM911 326q0 6 -6 6v-6l-12 6h-28q-29 0 -86 6q42 -67 114 -138q60 60 115 144z" />
    <glyph glyph-name="V" unicode="V" horiz-adv-x="1951" 
d="M1383 1433q9 -6 28 -6v6q5 0 5 -6l28 6h12q43 0 89 -67q259 -246 259 -253v-23q-21 -35 -107 -123q-129 -139 -286 -360q-198 -231 -298 -360l-169 -196q-18 -33 -50 -51q-39 0 -236 264q-140 157 -304 377l-315 393q-5 0 -39 45q0 32 56 67q264 265 276 265q21 5 45 5
h252q33 0 90 6q6 0 6 -6l28 6h230q6 0 6 5q6 0 6 -5q66 5 95 5h242q20 0 51 6zM944 1399q-5 0 -45 -5l-11 5q-94 -5 -146 -5h-191q-6 0 -6 -6l-11 6h-28q-20 0 -51 -6q-5 0 -5 6l-29 -6h-78q-65 -53 -276 -270q-17 0 -39 -33l517 -641q254 -316 349 -416l550 663
q107 164 298 360q22 34 34 34v17l-309 303q-53 0 -523 -6zM410 1326h101q102 -70 102 -90q0 -11 11 -39h-6q79 -285 247 -938q-5 -11 -5 -17h-28q-57 79 -450 545q-119 159 -163 202q-62 66 -62 79q51 65 124 140q49 59 129 118zM191 1073v-5l152 -186l444 -539
q34 -35 34 -45h11l-253 944l-79 62h-79q-90 -71 -202 -202q-7 0 -28 -29zM1045 1304h12q43 0 50 -23q-146 -491 -146 -517q-4 0 -17 -84h-17q-38 53 -78 259q-17 38 -90 320q0 39 33 39q17 0 17 -5q6 0 17 5q138 6 219 6zM1349 1304h101q25 -12 107 -101q89 -90 95 -90v-40
q-652 -787 -674 -820h-34v22l332 973q69 56 73 56zM989 326h11q8 15 68 84l506 613q45 62 56 62l-191 196h-79q-73 -43 -73 -95q-51 -132 -298 -860zM787 1264v-5q90 -309 135 -506h11q34 170 146 517q-11 6 -17 6q-111 0 -275 -12zM843 708l6 -11l-12 -6l-5 11z" />
    <glyph glyph-name="W" unicode="W" horiz-adv-x="1955" 
d="M1262 1433v-5l11 5h69q13 0 23 -5q10 5 23 5q11 -5 17 -5v5l11 -5h63q29 0 91 -80q8 -2 246 -246v-11q0 -31 -103 -132q-99 -104 -445 -531q-272 -317 -297 -354q-10 0 -69 -74h-28q-135 141 -491 605l-383 480v34l331 309h863zM480 1399h-137q-215 -208 -320 -291v-12
q103 -120 211 -262q92 -126 428 -543q118 -152 223 -262h6q0 12 17 22q109 120 468 554q38 38 252 309q91 91 165 177q-51 43 -314 308h-97q-6 0 -6 6l-11 -6h-468q-13 0 -23 6q-10 -6 -23 -6h-126q-13 0 -23 6q-10 -6 -22 -6h-86q-6 0 -6 6l-11 -6h-34q-23 0 -23 6z
M394 1313h34q120 0 120 -228l69 -514v-17q0 -11 -12 -11h-11q-53 53 -428 531l-6 11v11q73 109 234 217zM1433 1313h35q25 -13 80 -85q100 -109 108 -109h6v-5q0 -31 -251 -326q-46 -68 -189 -240h-11q76 703 97 703q51 62 125 62zM674 1302q101 -11 188 -11q41 5 46 5v-5
q0 -33 -29 -75l-125 -354v-5h-12q-11 0 -22 57q0 5 5 5q-28 231 -51 337v46zM1245 634v-6h11q115 160 292 371q40 46 74 97v6q-106 104 -166 194q-143 0 -143 -114zM194 1096v-5q18 0 29 -46q56 -62 308 -383l51 -62h6l-6 11v17q-68 556 -85 623q-48 36 -86 40h-11
q-146 -117 -206 -195zM1148 1296l6 -28q-14 -324 -35 -429h-23q-45 69 -159 412q-6 22 -6 40h177zM702 1268v-6q29 -157 46 -325h6q57 179 114 314v11q-125 6 -166 6zM971 1262v-17q34 -124 125 -343h6q17 127 17 234v23q0 6 6 6q0 6 -6 6l6 28v63h-154zM914 771h28
q0 -41 132 -394v-12q-31 -48 -149 -188v-6h-11q-35 0 -132 137q-4 0 -22 29v17q0 24 114 308q16 68 40 109zM914 714q-33 -116 -126 -354v-17q11 0 114 -137h12q0 11 125 154v11l-114 343h-11z" />
    <glyph glyph-name="X" unicode="X" horiz-adv-x="1998" 
d="M649 1431l12 -6l40 6q59 -6 92 -6v6l11 -6h12q6 0 6 6q5 0 5 -6q51 6 58 6q34 0 34 -6q78 6 115 6h489q166 -154 166 -167q8 0 133 -121q34 -24 34 -45q0 -35 -86 -115q-123 -124 -379 -437l-443 -512q-8 -18 -46 -34q-27 0 -172 178l-730 914v11q2 17 299 288
q29 34 52 34h247q20 0 51 6zM1396 1402h-1040q-91 -76 -327 -304l592 -736q161 -203 287 -333q39 73 149 172q166 201 368 431q64 70 184 224l218 230v17q-11 0 -126 115l-173 173q-18 13 -51 17q-23 -6 -40 -6q-12 0 -12 6zM414 1327h178q19 -6 98 -138l160 -224
q-287 -344 -287 -356h-23q0 12 -23 23q-136 159 -356 431l-12 6l6 11l-6 12q215 203 265 235zM879 1327h92q33 0 167 -11v-6q0 -31 -127 -161l-46 -51q-30 0 -161 195v17q0 17 75 17zM190 1092q0 -33 86 -121q55 -78 253 -310l23 -17q0 8 74 92l35 45l-6 12q6 0 6 6l11 -6h6
q0 11 138 172q-236 324 -236 345h-63q-120 0 -149 -52zM1379 1316h104q20 -1 218 -213v-28q-111 -140 -316 -351q-23 -33 -81 -92q-35 0 -51 46q-35 37 -104 149l-80 98h-6v23q187 212 253 316q11 0 63 52zM845 1293q78 -127 120 -155l127 143v6q-78 8 -92 12q-6 0 -6 -6
l-29 6h-80zM1448 1287h-75q-100 -141 -275 -339q40 -63 201 -287q0 10 178 201l195 218q0 13 -132 144q-63 58 -63 69zM954 804h6q19 -13 172 -252q20 -46 40 -46v-23l-253 -293v-6h-23q-177 183 -224 270v6q0 11 86 115q168 208 196 229zM701 454q101 -129 201 -236
q168 185 236 270v6q-178 270 -184 270q-253 -304 -253 -310z" />
    <glyph glyph-name="Y" unicode="Y" horiz-adv-x="1947" 
d="M1172 1433q0 -6 6 -6v6q5 0 5 -6l29 6h277q142 -134 142 -148l11 6q11 -2 11 -11q-5 0 -5 -6q164 -153 164 -158v-40q-212 -229 -470 -561q-319 -370 -413 -487q0 -28 -40 -28h-17q-100 99 -374 453l-362 453q0 9 -113 142l-23 34q0 37 74 84l260 255h51q6 0 6 6l11 -6
h28q13 0 23 6q6 0 6 -6l28 6h657zM1319 1404h-243q-66 0 -210 -5v5l-11 -5h-504q-283 -275 -283 -278q-40 -17 -40 -39q36 -30 204 -255q81 -87 159 -193q308 -387 492 -606h12q0 18 181 221q325 376 459 555q240 282 254 283v12l-311 311h-57q-5 0 -5 -6l-12 6q-6 0 -17 -6
q-11 0 -11 6zM413 1325h102q95 -62 131 -136q70 -80 164 -215h5v-668h-45q-234 313 -589 753q-17 25 -17 40q0 7 102 90q15 26 147 136zM736 1325h68l34 -6l11 6q31 -6 51 -6h23l11 6v-6q6 0 6 6q44 -6 209 -11v-6l12 6q18 -12 28 -12v-22q-146 -158 -243 -249h-12
q-4 0 -113 158l-96 102v23q2 11 11 11zM204 1104v-22q206 -268 374 -465q11 -22 198 -266l11 -6v40l6 34q-6 11 -6 17h6l-6 11q0 6 6 6l-6 11l6 29h-6l6 11v11q0 6 -6 6q0 6 6 6l-6 56q0 12 6 12l-6 28v62q0 6 6 6l-6 11v170q0 6 6 6l-6 11v51l6 11q-25 25 -221 289q6 0 6 6
l-74 56h-79q-57 -44 -159 -153q-53 -45 -62 -45zM764 1297v-6q133 -130 176 -226q196 203 204 203v12q-75 11 -147 11h-221zM1359 1302h102q25 -13 175 -164q0 -17 17 -17v-22q-159 -215 -305 -380q0 -18 -170 -198q0 -21 -91 -113q0 -8 -45 -74h-28q0 19 -6 28q4 34 11 34
l-5 12q0 12 5 22q-5 10 -5 23q5 11 5 17h-5l5 11q0 6 -5 6l5 11v17l-5 29q5 0 5 5h-5l5 12v51q0 5 -5 5l5 12l-5 11l5 11q0 6 -5 6l5 28v215q0 58 249 323q0 16 91 79zM1053 923v-45h-11v-63q0 -5 6 -5l-6 -12v-390h11q67 89 283 351q166 188 227 272q42 41 56 79
q-4 0 -169 170h-80q-34 -24 -73 -68q-158 -163 -244 -289z" />
    <glyph glyph-name="Z" unicode="Z" horiz-adv-x="1971" 
d="M1263 1433h198q39 0 192 -182q158 -138 159 -158q-7 -24 -238 -278q-46 -68 -243 -305q-34 -30 -51 -85q-107 -93 -374 -414q0 -11 -28 -11q-67 51 -210 232l-651 816q-17 22 -17 34q0 16 170 169q156 159 164 159q58 6 91 6h311q60 0 181 5v-5l12 5h243q83 12 91 12z
M674 1393v-6l-11 6q-13 0 -23 -6q-6 0 -6 6l-56 -6h-227l-323 -311q265 -316 527 -651l238 -295q85 -86 85 -102q11 0 79 97q11 0 215 243q186 214 391 476l215 249l-306 306h-5q-735 -6 -793 -6zM844 1314h62q53 0 96 -6q25 6 85 6v-6l12 6q39 -6 39 -17v-23
q-2 -9 -158 -147q-379 -366 -408 -380q-62 -84 -96 -84q0 20 -51 73l-272 323v23q17 33 102 107q113 92 113 108h34l6 -68v-12q0 -29 -6 -96l17 -11h6q17 0 17 6l28 -6q74 0 74 34q54 106 209 153q42 17 91 17zM1461 1297q43 0 187 -187q0 -17 5 -17l-181 -227
q-174 -220 -187 -220h-11q-18 75 -68 107q-18 11 -34 11q-74 0 -107 -90v-11q22 -34 22 -51q-5 -17 -34 -17h-277l-40 -6q0 11 -6 11q0 11 431 425q0 9 56 62q202 204 216 204zM408 1082q-33 0 -40 51v5q0 40 11 79h-5l5 12q0 5 -5 5l5 12v5h-5q-121 -96 -187 -169v-12
q152 -192 306 -362h11q0 8 238 232l357 334h5v11h-17q-62 0 -79 -5q-54 5 -102 5h-62q-97 0 -232 -102q-49 -54 -63 -101h-141zM793 623q5 0 5 6l29 -6h204l11 6q0 -6 6 -6v6q-12 0 -12 11v40q0 63 102 107l45 11q108 -41 108 -96l11 -6q0 11 238 295q0 7 79 102
q-121 170 -169 170q-26 0 -204 -193q-453 -441 -453 -447zM1076 498v-5l11 5q62 0 62 -28q-183 -229 -232 -277h-28q-27 21 -204 237v23q130 23 391 45zM1065 464h-12l-328 -28q19 -42 181 -215h6q0 12 90 113l108 130q-34 0 -34 6z" />
    <glyph glyph-name="a" unicode="a" horiz-adv-x="1447" 
d="M616 1000q6 -4 24 -4q35 4 44 4v-4l8 4h28l8 -4q0 4 4 4v-4l8 4h24q4 0 4 -4l8 4h4q4 0 4 -4q4 0 4 4l20 -4h12q4 0 4 4l8 -4h60l8 4q0 -4 4 -4v4l8 -4h12q4 0 4 4l8 -4l8 4v-4q4 0 4 4l28 -4h68q22 0 128 -116q112 -100 112 -108v-8q0 -8 -84 -96q-76 -80 -288 -340
q-10 -6 -228 -268q-5 0 -56 -60q-19 0 -104 108q-196 240 -456 572q-68 80 -68 92q2 17 144 144q83 80 88 80h348q14 0 36 4zM584 980h-332q-20 0 -128 -108q-102 -96 -108 -96q411 -531 596 -744q4 0 4 -8h8q302 342 484 568l160 176q-79 66 -196 188q-18 24 -36 24h-220
q-20 0 -60 4v-4l-8 4h-4q-51 0 -112 -4q-8 0 -8 4zM964 920h48q24 0 44 -40q7 0 84 -76q19 -16 36 -16v-8l-4 -8h4q0 -20 -212 -260q-26 -42 -68 -80q-44 0 -100 172q-16 97 -16 196v56q9 0 76 60q74 4 108 4zM276 916h132q17 0 84 -60h4q-40 -267 -80 -356q-13 -38 -44 -68
h-12q-39 55 -244 300q0 12 -12 12v16q0 8 148 148q13 8 24 8zM796 840v-20q0 -19 -4 -40q16 -181 48 -248l48 -76h4q44 40 260 308q0 4 -104 96q-9 20 -40 44h-96q-59 0 -92 -44q-12 0 -24 -20zM124 756q152 -196 244 -300q24 17 52 108q20 57 52 232v52q0 3 -64 52h-116
q-27 0 -48 -24q-120 -113 -120 -120zM672 900q10 0 36 -196q12 -66 20 -76v-8q-19 -36 -72 -36h-24q-84 9 -84 36q0 16 36 188q13 92 40 92h48zM624 884q-16 -38 -56 -244v-20q38 -20 84 -20q35 0 56 20q-20 80 -44 264h-8q-9 0 -16 -4q-7 4 -16 4zM660 560q116 -9 116 -56
q8 -54 8 -68v-60q0 -125 -84 -188q-57 -64 -64 -64q-34 0 -68 52q-79 76 -80 100q-20 61 -20 168q0 112 160 112q22 4 32 4zM484 444q0 -188 80 -236q2 -11 60 -64h8q120 113 120 144q8 29 16 96h-4l4 8q-5 128 -28 128q-32 20 -68 20h-4q-141 0 -160 -32q-24 -31 -24 -64z
" />
    <glyph glyph-name="b" unicode="b" 
d="M920 992q7 -4 16 -4h116q224 -220 224 -224v-8q0 -16 -92 -112q-233 -285 -368 -436l-136 -156q-43 -52 -48 -52h-24q0 6 -60 72q-93 113 -304 384l-156 192q-81 100 -88 100v24q5 0 28 24q178 169 208 188q21 4 40 4h372q4 0 4 -4l8 4h244q9 0 16 4zM244 968
q-26 -18 -152 -140l-72 -64h-4v-8q9 0 164 -196q114 -134 264 -332q176 -209 176 -212h4q285 321 548 644q88 94 88 100q-7 0 -28 28q-39 30 -144 136q-43 44 -48 44q-15 4 -32 4h-220q-4 0 -4 -4q-8 4 -12 4q-10 0 -60 -4l-16 4l-8 -4q-4 0 -4 4q-12 0 -12 -4q-60 4 -88 4
h-184q-58 0 -156 -4zM956 920q59 0 88 -48q82 -77 112 -120q0 -17 -140 -164q0 -5 -80 -96q-4 -12 -28 -28q0 94 -92 132h-24v16q136 63 136 152v24q-20 100 -64 100v20q8 0 8 4q4 0 4 -4zM308 908q77 0 140 -68v-84q8 -198 8 -224q0 -88 -44 -120h-20l-280 344v4
q128 148 144 148h52zM908 896v-4q40 -52 40 -116q0 -84 -84 -148q-15 -12 -24 -12v-8q37 0 72 -72q8 -12 8 -28h8q25 36 208 244q-9 0 -64 64q-76 76 -80 76q-7 4 -36 8q-28 -4 -48 -4zM136 760v-8q17 -10 68 -80q105 -133 196 -240h4q32 17 32 88q-8 288 -8 316
q-49 52 -112 52h-48q-19 0 -64 -52q-39 -40 -68 -76zM648 888q106 0 140 -76q8 -28 8 -48v-4q0 -88 -100 -120q-52 -8 -132 -8q-4 8 -4 12q-8 109 -8 148v64q0 24 16 24q45 0 80 8zM568 852v-8q0 -4 4 -4l-4 -8v-60q8 -68 8 -76v-48q155 8 164 36q36 30 36 60v32
q-27 88 -92 88q-21 4 -48 4q-68 0 -68 -16zM644 600q144 -24 144 -68q7 0 20 -72v-8q0 -98 -52 -136q-26 -17 -76 -24q-21 4 -24 4q-46 -4 -88 -4q0 8 -8 8q-4 127 -4 188v96l16 -4q31 20 72 20zM568 556v-80q0 -11 8 -24q0 -9 -4 -16q4 -34 4 -56v-68q3 0 24 -4q20 0 20 8
q4 0 4 -4l16 4q7 0 48 -4q58 12 76 36q22 45 24 96q0 136 -160 136h-4q-28 0 -56 -24zM520 244q18 -4 200 -8l4 -8q0 -21 -80 -88q-5 -13 -32 -24q-25 37 -96 112v12q4 0 4 4zM556 220q60 -70 60 -76v-4q2 0 80 76h-4q-83 4 -136 4z" />
    <glyph glyph-name="c" unicode="c" horiz-adv-x="1455" 
d="M256 988h256q4 0 4 -4q8 4 12 4l24 -4q16 4 32 4q0 -4 4 -4v4l8 -4h8q4 0 4 4l8 -4q4 0 4 4l8 -4h32q17 0 44 4q7 -4 16 -4q8 4 12 4q8 -4 12 -4q8 4 12 4t4 -4l28 4h280q46 -40 204 -196q11 0 28 -28v-16q-34 -40 -80 -88q-127 -139 -260 -308l-260 -300
q-46 -52 -52 -52h-8q-22 0 -64 60q-21 21 -144 172l-268 332q-136 168 -164 208q7 1 120 104q115 112 136 112zM24 768l412 -512l188 -224q12 -7 12 -16h4q339 383 480 564l140 152l20 24q0 5 -120 116l-104 100h-56q-4 0 -4 -4l-8 4h-60q-4 0 -4 -4l-8 4h-4q-4 0 -4 -4
q-4 0 -4 4l-40 -4h-536l-20 4v-4l-8 4h-44q-225 -204 -232 -204zM328 916q10 0 156 -8v-28q-32 0 -92 -84q-28 -54 -36 -128v-96q0 -17 24 -96l-4 -24h-12q0 6 -88 108l-152 188v16q128 148 148 148q50 4 56 4zM948 916l8 -4h56q10 0 100 -96l64 -68q0 -21 -188 -224
q-33 -47 -84 -88v140h-16q0 -88 -68 -184q-78 -52 -144 -52h-8q-50 0 -120 40q-64 77 -64 224v16q6 95 84 224q54 64 124 64h8q85 0 108 -68q16 -45 16 -56h40q21 0 68 4v124q16 0 16 4zM808 904h100v-4q-2 -88 -16 -88q-4 0 -4 -4q-40 12 -40 36q-14 22 -48 48v4q1 8 8 8z
M140 760q138 -174 208 -252v8q-7 33 -16 108q4 8 4 12q0 166 112 256h-4q-104 4 -164 4q-10 0 -100 -96q-32 -40 -40 -40zM948 888q5 -43 8 -52l-4 -24v-32q0 -16 -100 -16v4l-8 -4l-8 4l-24 -4h-8v12q-24 112 -96 112h-12q-111 0 -164 -160q-14 0 -28 -112v-4
q0 -199 100 -236q49 -16 80 -16q109 0 164 116q0 10 28 112h44v-112h4q3 10 128 148l96 112v12q-116 124 -140 140l-20 4h-32zM848 884q27 -50 36 -52v44l4 8h-40zM508 300h8q0 -20 168 -20v-4l8 4h20q19 0 80 16q0 -8 4 -8q-3 -21 -128 -140q-17 -28 -24 -28h-4
q-27 23 -100 116q-17 10 -40 48v8q1 8 8 8zM540 268v-4q4 0 84 -96q16 -20 20 -20q0 5 112 116v4q-18 -8 -52 -8q-35 0 -160 4q0 4 -4 4z" />
    <glyph glyph-name="d" unicode="d" horiz-adv-x="1447" 
d="M1056 1028q208 -208 228 -208v-12q0 -28 -48 -72q-107 -127 -208 -268q-175 -215 -196 -248q-7 0 -100 -120q-72 -81 -72 -100q-30 0 -108 100q-77 85 -328 392l-112 136q-107 122 -112 140v12q8 0 224 220q8 4 12 4q22 0 320 8l16 4q4 0 4 -4q2 0 16 4q388 12 464 12z
M232 988q-206 -216 -216 -216v-4l524 -624q66 -78 108 -120q55 87 240 296q9 16 192 244q0 18 160 204q28 27 28 40h-4q-75 60 -220 204h-104q-4 0 -4 -4q-4 0 -4 4q-140 -8 -700 -24zM292 944q72 0 100 -36q46 -28 56 -28v-128l-4 -20h4l-4 -8v-28q0 -4 4 -4q0 -4 -4 -4
q4 -66 4 -100v-84q-21 -72 -40 -72h-20q-6 1 -184 224q-76 96 -84 96v20q136 169 172 172zM888 944h116q21 0 64 -40q107 -94 108 -104v-20l-164 -196l-8 -4h-12v12q0 4 8 32v64q0 71 -60 172l-64 68v4q0 6 12 12zM612 936q84 -7 148 -48q112 -71 112 -220q0 -84 -48 -172
q-81 -116 -188 -116h-68q0 8 -4 8l4 8v8q0 4 -4 4l4 8q0 4 -4 4l4 8v8q0 4 -4 4l4 8q0 4 -4 4l4 8q0 4 -4 4l4 8l-4 8h4l-4 8v132q0 9 -4 16q0 4 4 4l-4 20v260q26 12 52 16zM312 924h-28q-116 -110 -148 -160q66 -74 260 -316q22 0 36 64q-4 173 -4 248h4q0 4 -4 4l4 20v36
q0 49 -20 60q-11 0 -72 48zM936 924h-24v-8q61 -40 96 -168q0 -12 8 -40v-84h8q0 9 56 72q64 73 76 96q-6 22 -84 80q-39 56 -80 56q-8 -4 -12 -4q-3 0 -24 4q-8 -4 -12 -4v4zM576 904q0 -98 4 -408h4l-4 -8v-12l4 -8h-4l4 -8v-28l-4 -8q4 0 4 -4h-4q4 -6 4 -24h16q4 0 4 4
l8 -4q132 0 196 120q32 30 48 140v8h-4l4 8v20q-7 57 -32 108q-98 108 -176 108q0 7 -36 8q-36 -5 -36 -12zM836 392q8 -4 12 -4v-12q0 -6 -144 -180q-48 -57 -48 -64h-12q-14 10 -140 168v16h4q34 0 64 -8v4l8 -4h32q4 0 4 4q4 0 4 -4q133 20 188 64zM592 292q-20 0 -60 4
q55 -71 116 -140q0 4 148 184q-98 -48 -188 -48h-16z" />
    <glyph glyph-name="e" unicode="e" horiz-adv-x="1455" 
d="M988 1012q7 -4 16 -4l28 4v-4l8 4q28 -8 44 -32q185 -188 196 -188v-28q-140 -152 -236 -284l-396 -476l-16 -4q-52 40 -160 180q-208 265 -472 576v8q0 9 56 60q174 175 188 176h4q89 0 716 8q3 0 24 4zM492 988q-21 -4 -24 -4q-8 4 -12 4l-8 -4q-4 0 -4 4l-20 -4h-164
q-23 0 -152 -136q-88 -81 -88 -88q19 -9 120 -140q59 -67 240 -296q163 -208 256 -304h4q8 16 148 180l252 308q75 104 220 260h4v12q-12 0 -208 200q0 10 -16 12q-115 0 -548 -4zM944 932h52q19 0 72 -64q6 0 96 -96q8 -4 12 -4v-12q-126 -133 -240 -284q-37 -52 -60 -52
h-4v36l-4 20h-8q-21 0 -68 -4q-14 -57 -48 -80q-39 -24 -132 -24h-4v172l-4 28q44 40 108 40q26 0 68 -24v4q-4 0 -4 4q4 0 4 4h-4l4 8v4q0 4 -4 4l4 8v16q0 4 -4 4l4 8v20q-49 -12 -108 -16q-52 9 -52 12l-8 -4h-8l-4 20v104l-4 40q4 0 4 4q-4 0 -4 4h4l-4 8v60q0 10 32 16
q112 0 164 -136q28 4 36 8v-4q4 0 4 4l40 -4q2 0 16 4q0 140 24 140q16 4 32 4zM276 924q164 -6 164 -40q8 -26 8 -36v-388q0 -27 -32 -44h-4q-22 0 -76 80q-11 6 -108 128q-112 131 -112 140q0 11 92 96q54 60 68 64zM912 860v-28l-4 -8h4q-5 -56 -20 -56h-36q-26 0 -80 -4
q0 35 -72 108q-28 19 -52 24q0 -8 -8 -8q0 8 -8 8h-16q-8 -1 -8 -8l4 -8h-4l4 -8v-144l4 -48h12l8 4q0 -12 60 -12q30 0 92 20h8v-108q0 -29 -12 -32h-12q-25 36 -64 36h-12q-52 -5 -76 -28v-176q103 0 136 52q7 28 12 28l-4 8v12q37 8 84 8v4q40 0 40 -32l-4 -8q1 -8 8 -8
q8 23 192 244q60 58 60 72q-55 58 -152 148h-72q-12 0 -12 -52zM276 904q-136 -133 -136 -136h-4v-4q233 -285 276 -332l20 24v280l-4 8q4 0 4 4h-4l4 8v16l-4 20h4l-4 8v4l4 8q-4 0 -4 4h4q-4 8 -4 12q4 8 4 12q-4 0 -4 4h4q0 56 -104 56q-14 4 -52 4zM780 308v-20
q-8 0 -76 -92q-4 0 -64 -64h-16q-4 11 -112 140q0 12 -12 12v12q0 8 12 8q64 0 268 4zM596 288h-36l-28 -4q0 4 -4 4v-4q68 -88 108 -132q90 102 116 140h-68q-4 0 -4 -4q-4 0 -4 4q-54 -4 -80 -4z" />
    <glyph glyph-name="f" unicode="f" horiz-adv-x="1451" 
d="M832 1004q4 0 4 -4q47 4 68 4h156q59 -61 228 -224v-8q0 -21 -116 -136l-464 -556q-67 -76 -72 -76q-8 0 -8 -4q-13 0 -56 48q-219 267 -572 716v20l232 216h596q4 0 4 4zM956 984h-712q-216 -204 -228 -204v-8q204 -252 296 -372q240 -300 316 -380h4q19 27 160 192
q176 204 380 452q64 64 100 108q-13 0 -204 196q-12 7 -12 16h-88q-4 0 -4 4zM280 928h72l8 -4v4q76 0 76 -60q4 -8 4 -12q-4 -72 -8 -72l4 -24q0 -117 4 -380l-8 -4h-24q0 8 -144 192l-144 188v16q148 156 160 156zM968 924l40 -4l24 4q80 -96 112 -128q0 -6 36 -36l4 -8
q-21 -6 -120 -124q-87 -115 -212 -256q-163 -199 -212 -252h-12q-20 22 -20 48v64q0 62 4 168h4l-4 8q0 17 4 44q0 4 -4 4l4 20v104q51 24 108 24h8q48 0 76 -20v20q0 4 -4 4l4 8v36h-4l-72 -12v4q-4 0 -4 -4q-116 0 -116 40l4 20v168l24 16q19 12 60 12h12q117 0 136 -104
l104 8l-4 20h4l-4 8q4 44 4 76v8q0 10 16 12zM140 764q17 -29 280 -364q4 40 4 60v24l-4 20h4l-4 8q0 4 4 4l-4 8v16q0 4 4 4l-4 8v136l-4 48h4q-4 8 -4 12l4 8q-4 7 -4 16h4l-4 8v40q0 4 4 4l-4 8v12q0 4 4 4q0 60 -52 60v-4l-8 4h-68q-20 0 -104 -92zM972 904l-4 -8v-104
q0 -16 -136 -20q0 8 -8 8l4 8q-26 88 -112 88h-20q-60 0 -60 -36h-4q0 -4 4 -4q-4 -40 -4 -60v-92q4 -19 96 -24q41 0 84 20h16q0 -4 4 -12q-8 -30 -8 -56v-40q0 -8 -8 -8h-20q-20 16 -60 24q-77 -6 -104 -24v-112q0 -110 -8 -156q4 0 4 -4q-4 0 -4 -4h4l-4 -8v-72
q0 -18 8 -64h8q0 6 56 68q123 151 256 304q119 155 200 240q-124 144 -132 144q-27 0 -48 4z" />
    <glyph glyph-name="g" unicode="g" 
d="M872 1012q4 0 4 -4l40 4h144q0 -10 200 -200q24 -16 24 -36q-7 -19 -104 -120q-3 -9 -64 -80q-84 -115 -204 -260l-232 -280q-20 -36 -44 -36h-4q-12 2 -188 208l-220 264q-95 127 -180 220q-44 58 -44 72q0 8 224 224q27 8 132 8h60l8 4v-4q8 4 12 4q63 0 436 8v4z
M236 980q-1 -4 -204 -204l-12 -16q36 -60 172 -200q41 -76 196 -252q51 -71 256 -292q0 15 136 172q328 402 328 408q59 75 156 180v4q-218 216 -224 216h-4q-678 -16 -800 -16zM940 932h84q93 -80 148 -140v-8l-192 -248q0 -15 -48 -52v-4h-16v4q0 4 4 32l-20 44v4
q0 17 64 28v16l-4 8q-77 4 -100 4q-192 -8 -220 -8l-4 -8v-32q0 -28 4 -88l48 4h20q25 92 76 92q0 -4 4 -4v4q42 0 72 -68v-56q0 -96 -116 -136q-34 -4 -56 -4h-40q-88 0 -176 156q-16 50 -16 116q0 219 152 296q28 8 48 8q112 0 144 -84q4 -8 4 -12h40q21 0 68 4v12
q0 38 8 104h-4q4 16 24 16zM864 928v-4l8 4h12v-48q0 -16 -8 -52h-16q-33 37 -88 84v12h72zM396 924h8q6 0 12 -16q-80 -62 -112 -160q-20 -55 -28 -140q4 0 4 -4h-4l4 -8l-4 -28h-16q0 7 -152 184v4q29 55 148 164q29 -4 32 -4q77 8 108 8zM932 852v-60q0 -12 -84 -12h-52
l-36 56q-48 40 -108 40q-86 0 -156 -152q-20 -62 -20 -76v-52l-4 -8q4 0 4 -4h-4l4 -8v-32q0 -55 64 -132q59 -80 124 -80h24q4 0 4 4q4 0 4 -4q148 21 148 140q-4 7 -4 16q0 4 4 4q-23 68 -60 68q-30 0 -60 -84q-60 -12 -96 -12q-8 0 -12 128q4 22 4 36h4q10 0 216 8h36
q108 0 108 -16q0 -8 4 -8q0 -39 -56 -48h-8v-8q16 -26 16 -36q84 100 144 188q24 24 64 80q-125 124 -144 124q0 4 -16 4h-44q-12 0 -12 -64zM276 900h-12q-104 -92 -136 -148l132 -148v16q0 100 72 232l52 56h-4q-53 -8 -104 -8zM808 908q52 -46 52 -56h4q0 16 4 16
q0 4 -4 4l4 20v16h-60zM524 288q81 -24 136 -24h44q22 0 60 8q0 -8 4 -8q-106 -128 -112 -128h-8q-32 27 -108 120q-10 12 -16 12v20zM560 260v-4q84 -85 84 -96h8l72 88l-36 -4q-84 0 -128 16z" />
    <glyph glyph-name="h" unicode="h" horiz-adv-x="1439" 
d="M1048 1012q1 -5 228 -220v-12q-20 -18 -20 -32q-142 -162 -228 -284q-9 -5 -172 -212q4 0 4 -4l-8 -4q0 4 -4 4q-10 -18 -160 -204q-29 -40 -40 -40q0 -4 -12 -4q-13 0 -68 68q-125 141 -408 488q-7 3 -124 144q-36 37 -36 56q75 79 96 96q1 6 56 56q69 76 84 76
q25 4 56 4h56l8 4v-4l8 4q191 4 224 4q0 4 4 4q0 -4 4 -4l4 8q20 -4 20 -8l48 4h60q4 0 4 4q4 0 4 -4q199 12 312 12zM972 992l-732 -20l-220 -224q146 -178 216 -252l144 -176q200 -240 260 -300l296 364l236 296q75 87 80 88v20q-108 101 -216 208h-4l-40 -4q-4 0 -4 4z
M920 940h84q36 -17 152 -152l20 -28v-8q-14 0 -32 -40q-23 -19 -196 -240q-6 0 -72 -76q-13 -8 -24 -8q-12 15 -12 28v188l-4 20h4l-4 8l4 20h-4q0 4 4 4l-8 140q4 34 4 56h-4q0 44 36 56q35 32 52 32zM648 936v-4q4 0 4 4q64 0 64 -32q4 -111 4 -184v-40q-16 -24 -40 -24
h-48q-40 0 -72 28v84q0 9 -4 16q0 4 4 4l-4 20v108q0 10 92 20zM308 928h48q71 -43 76 -56v-260q0 -63 8 -84h-4l4 -8q0 -4 -4 -4l4 -8v-104q0 -6 -12 -12h-8q-22 0 -64 64q-44 44 -236 276v32q10 0 92 80q8 0 44 40zM916 920q-11 -15 -60 -44v-48q0 -17 -4 -44q4 -7 4 -16
q-4 -8 -4 -12h4q0 -4 -4 -4l4 -40v-112q0 -52 8 -72h-4l4 -8v-104h8q0 11 64 76q209 257 216 272q-149 160 -156 160q-54 -4 -80 -4zM576 900v-24l-4 -28q4 0 4 -4q-4 0 -4 -4q4 0 4 -4h-4l4 -8v-108q0 -40 48 -40q0 -4 20 -8q8 4 12 4l8 -4q40 7 40 28q-4 22 -4 32q0 8 4 8
l-4 20v48q0 4 4 4l-8 48h4q0 52 -24 52l-36 4q-64 -4 -64 -16zM132 744l288 -332h4v4q0 72 -8 144h4l-4 8v188q0 4 -4 4q0 4 4 4q-4 40 -4 60v44q-53 44 -72 44h-24zM636 600q84 0 84 -28q-4 -28 -4 -32q4 -93 12 -116h-4l4 -8v-164q0 -45 -56 -92q0 -10 -36 -40h-4
q-41 45 -68 80h-4v20l4 8h-4l4 8v8q0 4 -4 4q0 4 4 4q-4 54 -4 80v4l4 28h-4q0 4 4 4l-4 48v4q0 9 4 16q-4 7 -4 16h4l-4 8v96q20 44 76 44zM580 536q4 -66 4 -100h-4l4 -8q-4 -22 -4 -36q4 0 4 -4q-4 0 -4 -4h4l-4 -8q0 -58 4 -156q19 -43 52 -68q0 6 68 72v64l4 48
q-4 0 -4 4h4l-4 8v56q0 88 -8 140q4 7 4 20q-32 12 -52 16q-68 -17 -68 -44z" />
    <glyph glyph-name="i" unicode="i" horiz-adv-x="1451" 
d="M1060 1008q93 -97 216 -208l12 -20q0 -22 -92 -112q-14 -23 -88 -104q-105 -145 -416 -504q-40 -60 -64 -60q-32 22 -180 200q-78 98 -92 108q0 7 -176 224q-96 114 -96 124q-8 0 -76 88q-8 0 -8 20q0 12 232 228h96l24 4l8 -4l8 4l20 -4q8 4 12 4v-4l8 4h188l8 4v-4l8 4
l20 -4v4q4 0 4 -4q47 4 68 4h104q4 0 4 4l8 -4l24 4v-4l8 4q168 4 208 4zM1008 988q-280 -4 -324 -4q0 -4 -4 -4v4l-8 -4h-212q-4 0 -4 -4q-4 0 -4 4l-20 -4h-176q-22 0 -124 -108q-6 0 -112 -108v-8q6 0 108 -124l308 -380l184 -216q8 -5 8 -12h8q0 5 328 392
q136 176 304 364v8q-11 0 -208 196q0 4 -16 12h-4q-4 0 -4 -4q-4 0 -4 4q-3 0 -24 -4zM896 932v-4l8 4h124q20 0 52 -48q90 -85 100 -108v-24q-8 0 -88 -100l-256 -304q-8 -5 -8 -12h-4v60q-20 -12 -40 -12h-12q-37 0 -52 36l4 20v68q0 4 -4 4l4 8v52q0 4 -4 4l4 8v12l-4 28
h4l-4 8v176q5 36 48 36h12q20 0 40 -12v52q0 40 32 40q36 5 44 8zM412 920q4 0 4 -4l20 4h24q8 -1 8 -8v-84q32 20 56 20h12q23 -15 24 -24q-4 -41 -4 -64v-4q0 -4 4 -4q0 -4 -4 -4q4 -66 4 -100v-92q0 -32 4 -76l-4 -8q4 -22 4 -36v-36q0 -5 -24 -20h-12q-24 0 -56 20v-96
h-4q0 7 -64 84l-248 316q-36 44 -36 56q10 0 128 120q24 32 76 32q22 4 80 4h4q4 0 4 4zM944 912h-40q-20 0 -60 -4v-4q-4 -35 -4 -40l4 -8q-4 -8 -4 -12h4l-4 -8q4 -8 4 -12q-6 -16 -12 -16h-12q-29 20 -64 20q-20 -16 -20 -20v-128l4 -24q0 -4 -4 -4l4 -28v-204
q0 -6 24 -20q29 0 60 20h12q12 -4 12 -24q-4 0 -4 -4h4l316 376l-92 96q-5 0 -40 48q-8 0 -8 4l-8 -4l-20 4q-7 -4 -16 -4v4l-8 -4h-16q-4 0 -4 4zM420 900h-48q-4 0 -4 -4q-4 0 -4 4q-92 0 -92 -28q-9 -1 -124 -120h-4l308 -388v20q0 4 -4 4q3 7 8 48h20q0 -27 44 -36h4
q20 0 20 8q0 339 -8 416q-7 4 -16 4h-4q-44 -9 -44 -36h-20q-3 44 -8 44l4 8v60zM532 232h204v-4q-83 -102 -100 -104h-4q-44 33 -100 108zM572 216q60 -66 60 -72h8q0 6 56 72h-124z" />
    <glyph glyph-name="j" unicode="j" horiz-adv-x="1451" 
d="M988 1000l8 -4h60q24 -17 148 -140q84 -69 84 -92v-20q-17 0 -168 -176q-87 -119 -328 -396q0 -7 -52 -64q-73 -92 -76 -92q0 -16 -28 -16h-8q-100 104 -392 460q-141 186 -236 280v12q0 22 96 104q6 11 112 108q9 24 56 24l8 -4v4l8 -4q27 4 44 4v-4q8 4 12 4
q143 0 652 8v4zM1008 976h-280q-34 0 -100 -4v4l-8 -4h-176q-21 0 -68 -4v4l-8 -4q-4 0 -4 4l-28 -4h-84q-20 0 -88 -76q-6 0 -148 -140q0 -8 40 -36q0 -11 12 -20q51 -55 284 -348q279 -327 288 -332l252 304q112 124 224 276l152 168l-220 212l-28 4q0 -4 -4 -4v4z
M524 908v-4l8 4h100v-56l4 -24q-4 -7 -4 -20v-4l20 4h4l20 -4q13 36 40 36h20q24 0 24 -80v-228q0 -160 -140 -216q-27 -4 -44 -4q-64 0 -136 56l-24 36q0 4 -8 32v36q11 92 60 92t68 -76q7 -4 16 -4h48v12q0 9 4 16q-4 8 -4 12l4 20q-4 0 -4 4h4l-4 8q0 4 4 4q-4 8 -4 12
l4 16q-4 7 -4 16h-104q-4 0 -4 4l-8 -4l-24 4q-4 0 -4 -4l-8 4h-12l-8 -4q0 4 -4 4v-4q-8 4 -12 4q-5 0 -40 -4l-8 4q-7 -4 -16 -4h-12v-108q0 -8 -8 -8h-16q0 8 -96 120q0 8 -80 104q-24 26 -24 44v8q8 0 72 88q46 52 56 52l8 -4h4q4 0 4 4q4 0 4 -4l20 4h4q4 0 4 -4l8 4
h12q4 0 4 -4l8 4h184zM1024 904h8q136 -128 136 -132v-20l-248 -292h-12v16q0 4 4 4l-4 8v4q0 4 4 4l-4 8l-12 240l-4 16h4l-4 8v36q0 48 16 48h4q45 0 56 -20q16 -12 16 -24l8 4h32v4q0 13 -4 68q4 0 4 4h-4q4 7 4 16zM240 884q-104 -132 -108 -132q18 -30 184 -236v4h-4
l4 8q0 4 -4 4l4 8q0 4 -4 4l4 20v48q0 6 12 12h12q26 0 80 4q0 -4 4 -4v4l8 -4h176q0 -6 12 -16v-100q0 -44 -12 -44h-36q-4 0 -4 -4q-48 5 -56 16q0 4 4 4q0 47 -44 60q-48 0 -48 -88q0 -92 156 -120q70 0 132 84q28 41 28 116v136q0 9 4 16q-4 7 -4 16v40q0 80 -16 80h-8
q-24 -16 -24 -36q-80 0 -80 12v36q0 4 4 4l-4 8v40l-4 8q-134 -8 -368 -8zM1040 864v-4q0 -26 8 -60l-12 -8h-68q0 28 -48 40h-8v-52q8 -188 16 -276q4 0 224 260q-7 0 -92 84q-12 10 -12 16h-8zM780 304h4v-12q-70 -94 -148 -168h-8q-90 98 -112 132v12q47 -4 68 -4h4
q4 0 4 -4l8 4h52q20 0 128 40zM640 244h-88v-4l80 -92q11 6 104 116q-60 -20 -96 -20z" />
    <glyph glyph-name="k" unicode="k" horiz-adv-x="1439" 
d="M244 996q157 -4 236 -4h48l48 -4v4l8 -4h404q4 0 4 -4q4 0 4 4l20 -4h40q7 0 52 -52l172 -176v-16q0 -7 -40 -40q0 -5 -16 -20q-104 -108 -148 -168q-55 -71 -420 -480q-15 -32 -44 -32q-26 17 -192 232q-105 129 -312 400l-108 136v8q225 217 244 220zM20 768
q111 -127 228 -292q151 -182 268 -336l100 -120q8 0 8 4q277 313 300 344q9 1 128 144q58 79 208 232q0 4 -72 76l-144 148h-248l-40 4v-4l-8 4q-12 0 -12 -4l-24 4q-142 0 -452 4q0 4 -4 4q0 -4 -4 -4v4q-28 -20 -172 -156q-53 -43 -60 -56zM272 920h56q6 0 64 -52v-116
q0 -4 -4 -4l4 -8v-4q0 -4 -4 -4q4 -8 4 -12l-4 -20h4l-4 -8v-64q0 -61 -4 -200l-8 -4h-8q0 22 -120 168q-85 109 -132 164v8q0 28 156 156zM624 912h200l40 -4v-28q-21 -13 -200 -160q-32 -22 -112 -88q-8 0 -8 -8h-16v184q0 4 4 4l-4 8v4q0 4 4 4q0 4 -4 4l4 20v48
q0 12 92 12zM136 768q212 -276 232 -292v192l4 28h-4l4 8v8l-4 8h4l-4 8l4 8l-4 8l4 8q0 4 -4 4l4 20v84q-4 10 -52 44h-40q-137 -124 -144 -136zM628 892h-76v-44q0 -22 -4 -56q4 -7 4 -16q-4 0 -4 -4h4l-4 -8v-108q7 0 176 140q98 74 112 92q-32 0 -32 8l-8 -4h-8
q-4 0 -4 4l-8 -4h-8q-4 0 -4 4l-8 -4q-4 0 -4 4l-8 -4h-104q-4 0 -4 4zM1036 880h8q63 -63 128 -144q-202 -238 -300 -336h-4q-8 0 -80 84q-75 92 -84 92v24q15 9 200 172q22 15 132 108zM1036 856l-308 -268v-8q8 0 100 -112q39 -44 44 -44q272 305 272 308v4
q-33 45 -108 120zM588 504q24 0 84 -84q5 -1 108 -120q-21 -31 -148 -164l-8 -4h-8q-9 5 -92 112h-4v88q0 40 4 120q-8 0 -8 8q5 4 28 4l-4 8l8 4q0 -4 4 -4q0 7 36 32zM544 440v-52q0 -9 -4 -16q0 -4 4 -4q-4 -47 -4 -68v-32q0 -17 84 -116q121 136 128 136v12
q-116 136 -160 180q-47 -35 -48 -40z" />
    <glyph glyph-name="l" unicode="l" horiz-adv-x="1451" 
d="M320 996l28 -4v4l8 -4q4 0 4 4l8 -4q4 0 4 4l8 -4h676q23 0 120 -108l120 -116v-24q-174 -178 -272 -308q-96 -104 -332 -376q-51 -60 -68 -60q-44 33 -172 196l-252 312q-59 79 -184 232q-7 16 -16 16v24q209 193 244 216h76zM16 768q30 -25 256 -316q286 -354 352 -428
h4q81 92 88 92l348 400q59 79 216 240v4q-13 0 -220 212h-364q-4 0 -4 4l-8 -4h-36l-24 4l-8 -4q-4 0 -4 4q-8 0 -8 -4l-48 4h-308q-35 -27 -232 -208zM280 924h72q6 0 64 -52v-436q0 -4 4 -4q-4 -8 -4 -12h-16q-74 86 -248 312q-4 0 -32 36v4q1 8 32 32q49 55 128 120z
M144 768q233 -289 248 -316h4l4 48v20q0 4 -4 4l4 8v12q0 4 -4 4l4 8v16q0 4 -4 4l4 8l-4 8l4 8l-4 20q4 8 4 12q-4 0 -4 4q4 0 4 4h-4l4 8q0 4 -4 4l4 8v36l-4 8q4 0 4 4h-4l4 8q0 28 -8 28l4 20v100q-4 10 -52 44h-56q-31 -21 -144 -140zM628 912q139 -4 200 -4h192
q4 0 4 -4l8 4q22 -33 96 -104q52 -51 52 -68q-85 -88 -204 -232q-6 0 -128 -136v120h-24q0 -21 -44 -52q0 -15 -156 -24h-28q-21 0 -24 12v36q0 4 4 4l-4 8v8q0 4 4 4q-4 8 -4 12q0 8 4 8l-4 28v116q0 4 -4 4l4 8v40q0 4 -4 4l4 8q-4 8 -4 12h4l-4 8q4 8 4 12h-4l4 8v116
q8 0 56 44zM588 852v-100q0 -12 4 -12l-4 -20v-184q0 -4 4 -4l-4 -8q4 -44 4 -76v-12l20 -4h16q152 8 152 28q28 22 28 48h52v-108q50 54 256 296q40 41 40 52q-139 140 -144 140h-8q-191 8 -252 8h-112q-48 -34 -52 -44zM500 332l48 -4h200l20 -4v4l8 -4h32v-16
q-10 0 -104 -104q-52 -80 -76 -80l-132 164l-12 20v8zM596 308h-88q0 -10 128 -160h4q53 71 132 160h-164q-4 0 -4 4z" />
    <glyph glyph-name="m" unicode="m" horiz-adv-x="1435" 
d="M612 1012v-4l8 4h12l8 -4v4q4 0 4 -4l20 4h388q177 -176 228 -220v-28l-144 -160q-183 -235 -304 -372q-179 -216 -200 -232h-4q-24 0 -92 92q-220 264 -492 616q-44 47 -44 64v4q0 9 216 220q1 8 28 12h360zM692 992h-292q-61 0 -168 -4q0 -8 -204 -204l-12 -16
q58 -58 232 -288q113 -149 292 -360q64 -81 88 -100l252 300q169 193 244 300l140 152v4l-224 220h-224q-4 0 -4 -4l-8 4l-40 -4v4l-8 -4h-4q-4 0 -4 4l-8 -4h-28l-8 4q0 -4 -4 -4v4zM588 932l40 -4h68q40 0 120 -4l8 -12v-16q0 -4 -120 -160q-35 -55 -40 -56h-4
q-158 194 -160 228q4 8 4 12q84 7 84 12zM964 928h56q140 -123 140 -172q-87 -111 -168 -200q-58 -66 -68 -68h-8v36q0 9 -4 16q4 7 4 16v12q0 9 -4 16q4 8 4 12q-4 0 -4 4q4 0 4 4h-4l4 8q-4 8 -4 12h4l-4 8v40q0 13 4 20q-4 16 -4 28q0 40 4 164zM252 924h60l48 -52v-176
q0 -4 -4 -4l4 -8l-4 -8q4 -8 4 -12q-4 -8 -4 -12h4l-4 -8v-168q0 -8 -8 -8h-12q-6 13 -104 132q-44 60 -64 80q-64 76 -64 92v4q101 110 148 148zM932 876v-52q0 -12 4 -12l-4 -20v-224q0 -9 4 -16l-4 -8q4 -7 4 -20q127 139 196 228l8 8q-29 56 -128 156h-40q-5 0 -40 -40z
M128 772q0 -20 136 -176q72 -96 72 -100h4v96q0 4 4 4q0 4 -4 4l4 20v8q0 9 -4 16q4 8 4 12h-4l4 8v200q0 6 -48 48h-36q-5 -1 -132 -140zM528 904v-12q108 -156 136 -184q12 32 104 144l36 52q-66 4 -100 4h-76q-4 0 -4 4q-4 0 -4 -4l-16 4q-56 -8 -76 -8zM508 716h4
l136 -196q91 163 132 164l4 -8v-372q-8 0 -96 -112q-48 -51 -48 -64h-24q-54 54 -120 140v424q3 24 12 24zM512 672v-388q41 -57 112 -132h8q28 39 132 164v124q0 4 4 4l-4 8l4 8q-4 0 -4 4q4 0 4 4q-4 0 -4 4q4 0 4 4h-4l4 8q0 4 -4 4q0 4 4 4l-4 20v140h-4q0 -10 -56 -72
q0 -8 -40 -64q0 -16 -8 -16h-24q-44 82 -120 172z" />
    <glyph glyph-name="n" unicode="n" 
d="M252 1004l8 -4h776q23 0 84 -72q71 -75 144 -144l12 -20v-8q-151 -163 -320 -380q-8 0 -88 -96q-216 -250 -216 -252q-24 -23 -24 -28h-20q-92 99 -236 284q-63 71 -184 236q-9 4 -100 132q-4 0 -88 108v28q81 70 152 140q69 72 88 72q12 0 12 4zM16 772
q313 -401 336 -436q41 -45 236 -284q24 -25 24 -32h4q106 118 292 336q131 147 208 252q128 136 140 156l-216 216h-100q-4 0 -4 4l-8 -4h-8q-4 0 -4 4l-8 -4h-56l-24 4q-7 -4 -20 -4h-12q-9 0 -16 4l-8 -4l-8 4l-24 -4q-4 0 -4 4l-8 -4l-20 4l-20 -4q-4 0 -4 4q-8 0 -8 -4
q-60 4 -88 4h-344zM256 928h72l64 -48q-4 -138 -4 -200v-252h-12l-192 236q-69 88 -76 88v20q15 33 132 144zM688 920q92 -4 92 -16v-132q0 -4 4 -4l-4 -8v-36q0 -19 4 -40q-4 -36 -12 -36h-8q0 9 -28 40l-124 208v8q0 14 76 16zM128 764q235 -287 236 -296h8v268q0 9 -4 16
q4 7 4 16v100q-4 10 -52 44h-56q-114 -100 -136 -148zM964 916h56l140 -160v-8q-41 -58 -164 -180q0 -5 -48 -56q0 -12 -36 -16v380q7 12 52 40zM652 896h-16v-4q109 -175 120 -200h8v192q0 11 -72 16q-21 -4 -40 -4zM928 872v-108l4 -8h-4l4 -8v-32l-4 -8q4 0 4 -4h-4l4 -8
v-8l-4 -8h4q0 -4 -4 -4l4 -28v-120q134 138 200 220v12q-9 0 -80 96l-40 44h-32q-11 0 -52 -28zM552 732h12q0 -18 72 -136q148 -264 148 -276q-115 -115 -164 -184h-8q-66 72 -72 72v32q0 4 4 4q0 4 -4 4l4 28v76q0 4 4 4l-4 8l4 24q0 4 -4 4l4 8v52q0 4 -4 4l4 8q0 4 -4 4
l4 8v32l-4 28q4 0 4 4q-4 0 -4 4q4 0 4 4h-4l4 8v4q0 9 -4 16q4 7 4 16v4q0 4 -4 4l4 8l-4 28h4l-4 8q0 25 4 60l-4 24zM564 676v-144l-4 -48h4l-4 -8l4 -8h-4l4 -8v-28q0 -4 -4 -4l4 -8v-16q0 -4 -4 -4q0 -4 4 -4l-4 -20v-100q0 -4 -4 -4l4 -8v-4q0 -9 -4 -16q4 -7 4 -16
l-4 -8q4 0 56 -56l128 140q20 21 20 28l-132 236q-61 108 -64 108z" />
    <glyph glyph-name="o" unicode="o" horiz-adv-x="1451" 
d="M252 992h72q9 0 16 -4q7 4 16 4q4 0 4 -4q4 0 4 4l40 -4h40q22 0 56 4q5 -4 28 -4v4l8 -4h64q13 0 20 4l24 -4h20q23 0 64 4q7 -4 16 -4q7 4 20 4q0 -4 4 -4v4l8 -4l8 4l8 -4l20 4q4 0 4 -4l20 4h228q7 0 144 -140q88 -78 88 -84v-8q0 -20 -72 -88q-48 -48 -296 -344
q-246 -274 -268 -316q-24 -12 -32 -12h-8q-53 52 -172 200q-133 157 -284 348q-20 15 -20 20q0 16 -140 180l-4 8v20l228 208q13 8 24 8zM16 768v-4q340 -424 536 -656q21 -28 72 -84v-4h8q9 0 36 40q322 366 492 572q33 33 120 128q-7 0 -40 40q-7 1 -184 176h-320
q-40 0 -96 -4q-4 4 -32 4q-12 0 -12 -4l-40 4h-112l-20 -4v4l-8 -4q-60 4 -84 4v-4l-8 4h-4l-8 -4v4l-8 -4l-8 4q0 -4 -4 -4q0 4 -4 4q0 -4 -4 -4v4l-8 -4l-24 4q-26 -15 -144 -128q-83 -80 -92 -80zM448 912q0 -4 4 -12q0 -6 -24 -24q-104 -110 -104 -292q0 -9 8 -60l-8 -4
h-12q-36 36 -160 188q-32 34 -32 52l104 116q15 32 72 32h124zM1004 908l36 -4q7 4 16 4q18 -33 80 -108q19 -16 36 -40h4v-36q-11 0 -160 -180q-47 -56 -56 -56h-12q4 40 4 60v12l4 8q-4 0 -4 4q4 0 4 4h-4l4 8v8q0 180 -76 260l-24 28v20q49 8 148 8zM404 888h-108
q-49 0 -72 -44q-21 -16 -80 -92v-4q120 -148 160 -188v32q8 116 32 188q56 88 76 112zM984 888h-12q-28 0 -88 -4q92 -107 92 -248q-4 -67 -4 -104q-4 -8 -4 -12q21 17 192 224q-29 25 -120 140q-48 2 -48 8zM652 892q60 0 100 -72q44 -110 44 -172v-32l4 -8q-4 0 -4 -4h4
l-4 -8q0 -188 -80 -264q-41 -32 -88 -32h-12q-58 0 -104 84q-28 103 -28 164q0 115 52 236q32 68 92 104q3 0 24 4zM504 584v-44q0 -77 36 -168q43 -52 92 -52q105 0 144 188q0 80 4 104h-4l4 8q0 4 -4 4l4 8q0 69 -56 200q-38 40 -80 40q-84 -48 -84 -104q-28 0 -52 -156
q-4 -5 -4 -28zM740 248l4 -8v-12q-17 0 -76 -92q-10 0 -12 -16h-8q-10 4 -96 104v12q4 0 12 4q29 -8 60 -8q68 0 116 16zM668 212h-72q0 -10 52 -56h4q0 8 44 60z" />
    <glyph glyph-name="p" unicode="p" horiz-adv-x="1435" 
d="M956 1016v-4l8 4h4q4 0 4 -4l8 4h16q4 0 4 -4l8 4h8l28 -4v4q18 0 64 -56q176 -164 176 -180v-12q-167 -187 -284 -340q-360 -428 -364 -428h-20q-12 4 -160 188q-179 219 -456 576v12q8 16 40 40q0 4 88 88q99 100 112 100h108q4 0 4 4q4 0 4 -4l20 4h8q4 0 4 -4l8 4
h216l8 4q0 -4 4 -4v4q4 0 4 -4q60 4 88 4h232zM896 992h-196q-22 0 -56 -4q-1 4 -40 4l-28 -4l-8 4q-8 -4 -12 -4v4l-8 -4h-304l-224 -216l148 -188q214 -278 352 -440q35 -47 104 -124v-4q104 120 152 184q166 186 364 436l124 140v8q-11 0 -220 212h-104q-4 0 -4 -4
q-4 0 -4 4l-20 -4h-4q-4 0 -4 4zM1032 924l140 -152q4 -7 4 -16q-10 0 -116 -124q-4 0 -4 -8h-24v12q12 14 12 48q0 150 -100 204q-28 11 -28 32q22 4 116 4zM268 924h64q21 0 112 -72q0 -13 4 -20l-4 -8l4 -8q-4 -22 -4 -32l4 -36q-4 0 -4 -4h4l-4 -8v-4l4 -28h-4l4 -8v-12
q0 -9 -4 -16q4 -8 4 -12h-4l4 -8v-4q0 -4 -4 -4l4 -8v-32q0 -4 -4 -4l4 -8v-216q0 -4 4 -4l-4 -8v-24h-12q-54 54 -252 320q-80 95 -80 108q91 96 96 96q48 54 68 64zM668 920h8q65 0 104 -44q84 -61 84 -188q0 -65 -44 -112q-38 -32 -132 -32q-84 7 -84 28q0 4 4 4l-4 20
v244q0 4 4 4l-4 8v36q39 32 64 32zM960 904v-4q56 -31 72 -72q32 -69 32 -132v-28q31 31 84 96q0 10 -136 148q-9 -3 -52 -8zM128 760v-4q165 -209 296 -384h4v316q0 59 -4 160q-89 60 -100 60h-48q-111 -97 -148 -148zM624 876v-304h4q54 -8 68 -8h8q85 0 108 44q9 6 16 32
q10 0 16 52q0 145 -132 204q-7 4 -20 4h-16q-46 -10 -52 -24zM616 500q90 -24 164 -36q32 0 144 28h4v-12q-42 -54 -192 -216q0 -6 -56 -68q-40 -50 -40 -56h-12q-7 0 -24 28l4 28v88q0 4 -4 4l4 8v36q0 4 -4 4l4 8v4q0 13 -4 20l4 24q0 4 -4 12l4 16q-4 21 -4 40h4
q0 4 -4 4q4 36 12 36zM628 472l-4 -24v-280h8q0 7 56 68l196 224q-46 -16 -92 -16q-60 0 -164 32v-4z" />
    <glyph glyph-name="q" unicode="q" horiz-adv-x="1431" 
d="M952 1012v-4l8 4h68q34 0 68 -52q6 0 96 -96q84 -69 84 -92q0 -15 -156 -180q-30 -46 -140 -184q-4 0 -340 -404l-20 -4q-17 7 -108 120l-252 308q-145 185 -260 324v16q1 9 184 184q41 48 72 48h4q12 0 12 -4l20 4h32q4 0 4 -4l8 4h172q4 0 4 4q4 0 4 -4l48 4h140
q4 0 4 4l8 -4h24l28 4v-4l8 4h168zM240 980l-224 -220q24 -20 72 -88q102 -114 196 -240q247 -307 340 -412q53 57 248 296q106 122 272 332q106 120 112 120v8q-105 99 -204 204l-16 12zM948 924q96 0 96 -28l112 -112l4 -20q0 -5 -48 -52q-43 -43 -124 -140q0 -3 -32 -32
h-16v4q12 29 16 100q0 125 -116 256q0 20 32 20q21 4 76 4zM252 920q139 -8 172 -8l24 4v-12q-113 -74 -136 -164q-16 -61 -16 -84v-16q0 -33 20 -112l-8 -4h-12q-113 129 -192 236v12q9 0 84 92q40 41 64 56zM612 920q159 0 188 -224l8 -68h-4l4 -8v-12l-4 -8h4
q-39 -176 -92 -176h-4q-22 56 -36 56q-35 -4 -40 -4l36 -84q0 -24 -68 -36q-97 0 -140 188v36l-4 8h4l-4 8q0 217 132 324h20zM872 900q100 -122 100 -216q4 0 4 -16v-36q0 -28 -8 -44l8 -4q0 13 120 140q30 36 40 36v8q-125 132 -136 132q-35 4 -60 4h-28zM128 764v-4
q64 -84 152 -180v12q0 33 -4 52q0 147 116 248l-132 8q-33 -21 -116 -120q-6 0 -16 -16zM480 652h4l-4 -8v-36q0 -150 100 -224l24 -8q0 4 4 4v-4q19 0 40 20q-22 28 -40 92v4q72 9 72 12q17 0 48 -52q56 86 56 152v32q0 95 -56 204q-51 60 -120 60h-8q-86 -85 -100 -156z
M856 408h8v-20q-54 -72 -60 -72h-8q-5 0 -36 36v8zM792 356v-4q1 -8 8 -8q6 0 16 20h-4q-13 -8 -20 -8zM480 312q20 0 108 -12h36q34 0 84 8q24 -50 24 -60q-51 -80 -96 -124q-21 0 -64 64q-20 20 -92 108v16zM512 288q85 -98 112 -136h16q0 9 72 100q-10 0 -16 32
q-21 0 -68 -8v4l-8 -4q-35 0 -108 12z" />
    <glyph glyph-name="r" unicode="r" horiz-adv-x="1447" 
d="M1068 1004q76 -82 224 -220q0 -4 4 -12q0 -19 -124 -144q-143 -187 -532 -628h-8q-19 0 -60 56q-15 11 -176 208q-396 479 -396 496q0 18 44 52q185 180 196 180q20 0 20 4l8 -4h32q9 0 16 4l8 -4q34 4 56 4h4l8 -4v4q4 0 4 -4l20 4h176q14 0 36 4q4 0 4 -4q10 0 60 4
q294 4 376 4zM808 984h-60q-4 0 -4 -4q-4 0 -4 4q-47 -4 -68 -4h-164q-17 0 -44 -4q-4 0 -4 4l-48 -4h-164q-40 -32 -228 -216l456 -560q111 -135 156 -180h4q12 20 320 376q188 232 232 280q88 90 88 96q-171 161 -220 216q-166 -4 -248 -4zM276 920h56q21 0 96 -76v-168
q0 -4 -4 -4l4 -8l-4 -8h4l-4 -8v-4q0 -4 4 -4q0 -4 -4 -4l4 -20v-64q0 -9 -4 -16q0 -4 4 -4l-4 -40v-40q1 -60 8 -60q-4 -7 -4 -16h-8q-25 25 -168 200q-18 14 -92 112q-44 41 -44 68v8q56 79 160 156zM140 768v-16l72 -96q94 -106 184 -220v-4h8v164q0 4 4 4l-4 8v96
q0 4 4 4l-4 8l4 8q-4 8 -4 12h4l-4 8q0 4 4 4q0 4 -4 4l4 48v36q-7 13 -76 68h-48q-10 0 -104 -96q-35 -40 -40 -40zM1036 908v-4l8 4h8q40 -44 96 -96q2 -9 48 -48v-12q-120 -134 -120 -140h-8q-9 0 -12 20q0 14 12 32v44q0 9 4 16q-11 130 -100 160l-4 8v12q21 0 68 4z
M728 904v-4l8 4q109 0 140 -72q28 -46 28 -124q-29 -124 -64 -124q-33 -32 -116 -32q-15 0 -144 4l-4 20v8q0 4 4 4l-4 8v16q0 4 4 4l-4 8v24q0 14 -4 36q4 7 4 20q-4 0 -4 4h4l-4 8v4q0 4 4 4l-4 8v128q0 40 48 40q28 0 108 4zM1020 888v-4q72 -42 72 -160q0 -10 -4 -60
q9 4 80 92q-124 122 -124 132h-24zM592 868v-100l4 -8q-4 0 -4 -4h4l-4 -8v-16q0 -4 4 -4q0 -4 -4 -4q4 -40 4 -60v-88l136 -4q93 0 128 64l24 72q0 118 -80 168q-18 8 -52 8h-100q-40 0 -60 -16zM972 536l20 -4v-12q-116 -136 -120 -136h-8q-48 34 -84 92v20q140 9 140 28
q9 0 16 -4q29 16 36 16zM812 480h-4q27 -46 64 -68q47 52 72 88h-4q-72 -20 -128 -20zM588 476h12q113 -111 172 -204v-8q-92 -88 -128 -144h-8q-47 52 -56 52v296q1 8 8 8zM596 444v-72q0 -4 4 -4q-4 -8 -4 -12l4 -8q-4 -8 -4 -12h4l-4 -8q4 -94 4 -140q3 0 40 -40h4
q0 16 104 124q-21 16 -76 96z" />
    <glyph glyph-name="s" unicode="s" horiz-adv-x="1447" 
d="M952 992l8 -4h4q4 0 4 4l8 -4h80q228 -218 228 -228q0 -24 -80 -100q-89 -97 -220 -260l-260 -300l-80 -96l-20 -4q-19 0 -68 68q-4 0 -96 116l-388 480l-72 88v20q1 8 88 84q41 33 76 68q62 64 88 64q2 0 52 -4v4l8 -4l56 4q12 0 12 -4q40 4 60 4h508q4 0 4 4zM448 968
h-204q-107 -99 -164 -144q0 -3 -64 -64v-4q8 0 152 -176q0 -7 52 -64q35 -60 60 -60v-4q-8 -1 -8 -8l332 -404q19 -20 28 -20v4q0 6 12 12l-4 8v4q0 5 28 16l368 428q78 102 108 132q97 102 120 132v4q-9 0 -124 116l-100 96h-124q-4 0 -4 -4l-8 4h-416q-9 0 -16 -4
q-4 0 -4 4zM272 936l8 -4h28q44 0 44 -12v-8q-69 -22 -148 -112q-28 -53 -28 -76v-40q-6 0 -16 -8q-50 61 -56 92q65 93 168 168zM124 768q28 -41 28 -48h8v28q22 62 60 100q37 37 76 56l4 8q-12 0 -12 4q-33 -1 -164 -148zM604 900h12q75 0 164 -36q84 -57 84 -116
q0 -12 8 -12h80q9 0 16 -4q7 4 16 4v-4l48 8q-8 16 -8 44v88l20 4q116 -99 128 -116h4v-16q-65 -86 -80 -96q-94 -99 -100 -100h-12q0 75 -156 112l-76 12v-4q-254 25 -312 60q-36 6 -64 40v40q32 92 228 92zM920 896h72v-12q-42 -58 -64 -96h-24q0 22 -68 88v12q50 8 84 8z
M396 792q0 -52 184 -84q292 -25 356 -64q39 -25 64 -68q0 6 100 108l48 64q0 11 -104 96v-4q4 -108 12 -108q-4 -8 -4 -12q-74 -4 -108 -4h-12q-88 0 -88 16q0 60 -52 92q0 17 -80 44q-29 8 -116 16v-4q-4 0 -4 4l-20 -4q-8 0 -8 4q-168 -23 -168 -92zM876 876v-4
q41 -56 44 -56q0 11 36 56v4h-80zM272 580q95 -36 340 -56h24q0 -4 4 -4v4l8 -4q136 -4 172 -4q44 -10 44 -64q0 -72 -120 -104q-38 -8 -60 -8h-52l-24 -4q-16 6 -16 12v4l16 24v12q-13 68 -56 68h-16q-52 0 -104 -44q-13 -20 -32 -20q-79 78 -120 144q-15 0 -20 32
q0 6 12 12zM288 556q65 -87 104 -124q0 -6 16 -16q58 60 128 60h28q64 -12 64 -92q0 -8 -8 -28l20 4h28q133 0 172 72v40q-9 24 -32 24q-24 0 -24 4q-8 -4 -12 -4q-72 0 -72 8q-4 0 -4 -4q-247 16 -388 48q0 8 -20 8zM552 260h36q50 0 92 -4q22 4 72 4v-16q-8 0 -32 -32
q-85 -76 -100 -76q-8 0 -100 108v4q3 12 32 12zM556 240q70 -80 72 -80q57 44 88 80h-4q-21 0 -36 -4q-38 4 -72 4h-48z" />
    <glyph glyph-name="t" unicode="t" 
d="M244 988h784q36 0 72 -52l156 -152q24 -14 24 -36q0 -10 -164 -180q-98 -133 -300 -360q-25 -40 -128 -144q0 -7 -56 -64h-20q-82 86 -424 524q-117 141 -188 232v12q0 7 40 40q0 6 124 116q61 64 80 64zM20 760q57 -61 148 -180q321 -405 444 -548q4 -8 4 -12h16
q0 10 112 132l80 96l-4 8l8 4q0 -4 4 -4l208 244q73 97 216 248v8q-10 0 -208 204q0 7 -20 8h-572q-46 0 -140 4v-4l-8 4h-12q-9 0 -16 -4l-8 4l-8 -4q-7 4 -16 4q-7 0 -228 -212zM248 896q8 -4 12 -4q4 -40 4 -60v-48h76l20 -4q64 104 168 104h8v-416q0 -9 4 -16
q-4 -7 -4 -16v-16l4 -8h-4l4 -8v-28l-4 -8h4l-4 -8l4 -20h-4l4 -8v-72q0 -20 -16 -24l-416 516q0 42 140 144zM1016 892h8q79 -68 136 -136v-20l-388 -460q-8 -17 -24 -28h-8q-6 0 -12 16q0 4 4 4l-4 40v444l-4 8h4l-4 8q0 4 4 4q-4 8 -4 12l4 8q-4 7 -4 16h4l-4 8v36l4 20
h36q72 0 116 -96l4 -28l20 4h64l40 4v128q1 8 8 8zM136 768v-16q136 -176 384 -476v216q0 34 -4 100h4l-4 8v88q0 9 -4 16l4 8l-4 20h4q-4 32 -8 32l4 8v88h-8q-66 0 -124 -88q-13 -12 -20 -12q-22 0 -44 4q-25 -4 -56 -4h-4q-16 7 -16 28q0 26 4 52l-4 24q-50 -38 -104 -96
zM1028 856v-4q4 -74 4 -92q-4 0 -4 -4h4q0 -28 -112 -28h-48q-13 50 -36 80q-42 38 -80 44q-8 -4 -12 -4v-176q0 -4 4 -4l-4 -8v-4q0 -4 4 -4l-4 -8v-20q0 -4 4 -4l-4 -8l4 -24h-4l4 -8q0 -8 -4 -8l4 -48v-112q0 -4 4 -4l-4 -8q0 -4 4 -4l-4 -8v-4q0 -4 4 -4q0 -4 -4 -4
l4 -20v-48q0 -4 -4 -4q4 -7 4 -20q144 164 312 372q72 77 72 96q-104 104 -108 104z" />
    <glyph glyph-name="u" unicode="u" 
d="M248 1000l20 -4h132q4 0 4 -4q4 0 4 4l40 -4h204q40 0 120 -4v4l8 -4h272q21 0 88 -76q143 -144 148 -144v-44q-14 0 -104 -100q-55 -49 -156 -176q-96 -104 -264 -300q-128 -148 -148 -148h-8q-49 45 -308 376l-292 380q0 4 -8 4v32q5 0 88 76q140 128 148 128
q12 0 12 4zM240 980q-3 -8 -220 -200h-4v-8q8 0 104 -128l208 -268q196 -251 284 -352l8 -4q484 541 484 552q161 169 168 172v4l-220 220q-265 4 -392 4l-48 4q-4 0 -4 -4l-24 4q-104 0 -344 4zM288 928h72q54 -36 76 -68v-240l-4 -24l4 -8q-4 -8 -4 -12h4l-4 -8v-108
l4 -20q-4 0 -4 -4q4 0 4 -4h-4l12 -56l-8 -4h-20q-8 16 -96 120q-50 70 -136 176q0 7 -68 88v4q0 25 108 112q1 5 64 56zM944 924h72q108 -95 160 -176q-84 -108 -156 -180q-40 -37 -64 -68q-64 -72 -84 -72h-4v72l4 8h-4l4 8q-4 196 -4 304v40q21 26 76 64zM140 756
q28 -28 252 -320q20 -24 24 -24v48q0 9 -4 16q4 7 4 16v32q0 4 -4 4l4 8v324q-57 56 -80 56h-36q-57 -57 -140 -128q-20 -21 -20 -32zM888 852v-208l4 -24q-4 -7 -4 -16q4 -22 4 -32h-4q0 -4 4 -4l-4 -20v-84q7 0 192 200l64 80v4q-97 132 -140 164h-36q-27 0 -80 -60z
M656 908h52q20 0 60 -4v-28q0 -22 4 -56l-4 -8q0 -4 4 -12q-4 -89 -4 -144v-84q0 -224 -84 -224h-20q-120 0 -120 176v372q23 12 112 12zM564 876v-68q0 -4 4 -4q-4 -8 -4 -12q0 -25 4 -132q-4 0 -4 -4h4l-4 -8v-72q0 -170 52 -188q0 -7 52 -20q60 5 60 48q15 0 20 148h-4
l4 8v4q0 20 -4 60q4 0 4 4q-4 0 -4 4q4 0 4 4h-4l4 8v52l4 8q-4 0 -4 4q4 0 4 4h-4l4 8v76q0 40 -8 80h-108q-72 0 -72 -12zM740 276h16v-12q-91 -116 -128 -148h-20q0 14 -64 80q0 7 -40 60v12h4q73 -16 112 -16h16q4 0 4 -4q69 9 100 28zM636 228q0 4 -4 4v-4l-8 4h-20
q-20 0 -60 4q29 -47 80 -96q41 41 80 100z" />
    <glyph glyph-name="v" unicode="v" 
d="M984 1020q7 -4 20 -4v4q4 0 4 -4l20 4h8q31 0 64 -48q184 -175 184 -180v-16q-15 -25 -76 -88q-92 -99 -204 -256q-140 -164 -212 -256l-120 -140q-13 -23 -36 -36q-28 0 -168 188q-100 112 -216 268l-224 280q-4 0 -28 32q0 23 40 48q188 188 196 188q16 4 32 4h180
q23 0 64 4q4 0 4 -4l20 4h164q4 0 4 4q4 0 4 -4q47 4 68 4h172q14 0 36 4zM672 996q-3 0 -32 -4l-8 4q-67 -4 -104 -4h-136q-4 0 -4 -4l-8 4h-20q-14 0 -36 -4q-4 0 -4 4l-20 -4h-56q-46 -38 -196 -192q-12 0 -28 -24l368 -456q181 -225 248 -296l392 472q76 117 212 256
q15 24 24 24v12l-220 216q-37 0 -372 -4zM292 944h72q72 -50 72 -64q0 -8 8 -28h-4q56 -203 176 -668q-4 -8 -4 -12h-20q-40 56 -320 388q-85 113 -116 144q-44 47 -44 56q36 47 88 100q35 42 92 84zM136 764v-4l108 -132l316 -384q24 -25 24 -32h8l-180 672l-56 44h-56
q-65 -50 -144 -144q-5 0 -20 -20zM744 928h8q31 0 36 -16q-104 -350 -104 -368q-3 0 -12 -60h-12q-27 38 -56 184q-12 27 -64 228q0 28 24 28q12 0 12 -4q4 0 12 4q98 4 156 4zM960 928h72q18 -8 76 -72q63 -64 68 -64v-28q-464 -560 -480 -584h-24v16l236 692q50 40 52 40z
M704 232h8q5 11 48 60l360 436q32 44 40 44l-136 140h-56q-52 -31 -52 -68q-36 -94 -212 -612zM560 900v-4q64 -220 96 -360h8q24 121 104 368q-8 4 -12 4q-79 0 -196 -8zM600 504l4 -8l-8 -4l-4 8z" />
    <glyph glyph-name="w" unicode="w" horiz-adv-x="1415" 
d="M884 1004v-4l8 4h48q9 0 16 -4q7 4 16 4q8 -4 12 -4v4l8 -4h44q20 0 64 -56q5 -1 172 -172v-8q0 -21 -72 -92q-69 -73 -312 -372q-190 -222 -208 -248q-7 0 -48 -52h-20q-95 99 -344 424l-268 336v24l232 216h604zM336 980h-96q-150 -145 -224 -204v-8q72 -84 148 -184
q64 -88 300 -380q83 -107 156 -184h4q0 9 12 16q76 84 328 388q27 27 176 216q64 64 116 124q-36 30 -220 216h-68q-4 0 -4 4l-8 -4h-328q-9 0 -16 4q-7 -4 -16 -4h-88q-9 0 -16 4q-7 -4 -16 -4h-60q-4 0 -4 4l-8 -4h-24q-16 0 -16 4zM276 920h24q84 0 84 -160l48 -360v-12
q0 -8 -8 -8h-8q-37 37 -300 372l-4 8v8q51 76 164 152zM1004 920h24q18 -10 56 -60q71 -76 76 -76h4v-4q0 -22 -176 -228q-32 -48 -132 -168h-8q54 492 68 492q36 44 88 44zM472 912q71 -8 132 -8q29 4 32 4v-4q0 -22 -20 -52l-88 -248v-4h-8q-8 0 -16 40q0 4 4 4
q-20 162 -36 236v32zM872 444v-4h8q80 112 204 260q28 32 52 68v4q-74 73 -116 136q-100 0 -100 -80zM136 768v-4q13 0 20 -32q40 -44 216 -268l36 -44h4l-4 8v12q-48 389 -60 436q-34 26 -60 28h-8q-102 -82 -144 -136zM804 908l4 -20q-9 -227 -24 -300h-16
q-32 48 -112 288q-4 16 -4 28h124zM492 888v-4q20 -110 32 -228h4q40 126 80 220v8q-88 4 -116 4zM680 884v-12q24 -87 88 -240h4q12 89 12 164v16q0 4 4 4q0 4 -4 4l4 20v44h-108zM640 540h20q0 -29 92 -276v-8q-22 -34 -104 -132v-4h-8q-24 0 -92 96q-3 0 -16 20v12
q0 17 80 216q11 47 28 76zM640 500q-23 -81 -88 -248v-12q8 0 80 -96h8q0 8 88 108v8l-80 240h-8z" />
    <glyph glyph-name="x" unicode="x" 
d="M452 996l8 -4l28 4q41 -4 64 -4v4l8 -4h8q4 0 4 4q4 0 4 -4q35 4 40 4q24 0 24 -4q54 4 80 4h340q116 -107 116 -116q5 0 92 -84q24 -17 24 -32q0 -24 -60 -80q-86 -86 -264 -304l-308 -356q-5 -13 -32 -24q-19 0 -120 124l-508 636v8q1 12 208 200q20 24 36 24h172
q14 0 36 4zM972 976h-724q-64 -53 -228 -212l412 -512q113 -141 200 -232q28 51 104 120q116 140 256 300q45 49 128 156l152 160v12q-8 0 -88 80l-120 120q-13 10 -36 12q-16 -4 -28 -4q-8 0 -8 4zM288 924h124q14 -4 68 -96l112 -156q-200 -240 -200 -248h-16q0 8 -16 16
q-95 111 -248 300l-8 4l4 8l-4 8q149 141 184 164zM612 924h64q23 0 116 -8v-4q0 -22 -88 -112l-32 -36q-21 0 -112 136v12q0 12 52 12zM132 760q0 -23 60 -84q38 -54 176 -216l16 -12q0 6 52 64l24 32l-4 8q4 0 4 4l8 -4h4q0 8 96 120q-164 225 -164 240h-44
q-84 0 -104 -36zM960 916h72q14 -1 152 -148v-20q-77 -97 -220 -244q-16 -23 -56 -64q-24 0 -36 32q-24 25 -72 104l-56 68h-4v16q130 148 176 220q8 0 44 36zM588 900q55 -88 84 -108l88 100v4q-54 5 -64 8q-4 0 -4 -4l-20 4h-56zM1008 896h-52q-70 -98 -192 -236
q28 -44 140 -200q0 7 124 140l136 152q0 9 -92 100q-44 41 -44 48zM664 560h4q13 -9 120 -176q14 -32 28 -32v-16l-176 -204v-4h-16q-123 127 -156 188v4q0 8 60 80q117 145 136 160zM488 316q70 -90 140 -164q117 129 164 188v4q-124 188 -128 188q-176 -212 -176 -216z
" />
    <glyph glyph-name="y" unicode="y" horiz-adv-x="1451" 
d="M838 1025q0 -4 4 -4v4q5 0 5 -4l20 4h198q101 -96 101 -106l9 4q8 -1 8 -8q-4 0 -4 -4q117 -109 117 -113v-28q-152 -164 -336 -401q-228 -265 -296 -349q0 -20 -28 -20h-12q-72 71 -268 324l-259 324q0 7 -81 101l-16 25q0 27 53 60l186 183h36q4 0 4 4l9 -4h20
q9 0 16 4q4 0 4 -4l20 4h470zM944 1004h-174q-48 0 -150 -4v4l-8 -4h-361q-202 -196 -202 -198q-29 -12 -29 -28q26 -22 146 -183q58 -61 113 -137q221 -278 353 -434h8q0 13 130 158q232 269 328 397q172 202 182 203v8l-223 223h-40q-4 0 -4 -5l-9 5q-4 0 -12 -5
q-8 0 -8 5zM296 948h73q67 -44 93 -97q50 -58 117 -154h4v-478h-32q-168 224 -421 538q-13 18 -13 29q0 5 73 65q11 18 106 97zM527 948h48l24 -4l9 4q21 -4 36 -4h16l8 4v-4q4 0 4 4q32 -4 150 -8v-4l8 4q13 -8 21 -8v-17q-105 -113 -175 -178h-8q-3 0 -81 114l-69 72v17
q2 8 9 8zM146 790v-16q147 -192 267 -333q8 -15 142 -190l8 -4v28l4 25q-4 8 -4 12h4l-4 8q0 4 4 4l-4 8l4 20h-4l4 8v9q0 4 -4 4q0 4 4 4l-4 40q0 8 4 8l-4 21v44q0 4 4 4l-4 8v122q0 4 4 4l-4 8v36l4 8q-18 18 -158 207q4 0 4 4l-53 41h-56q-41 -32 -114 -110
q-37 -32 -44 -32zM547 928v-5q95 -92 125 -162q140 146 146 146v8q-53 8 -105 8h-158zM972 932h73q18 -10 126 -118q0 -12 12 -12v-16q-114 -154 -219 -272q0 -13 -122 -141q0 -15 -64 -81q0 -6 -33 -53h-20q0 14 -4 20q3 25 8 25l-4 8q0 9 4 16q-4 7 -4 16q4 8 4 12h-4l4 8
q0 4 -4 4l4 8v13l-4 20q4 0 4 4h-4l4 8v36q0 4 -4 4l4 9l-4 8l4 8q0 4 -4 4l4 20v154q0 41 178 231q0 11 65 57zM753 660v-32h-8v-45q0 -4 4 -4l-4 -8v-279h8q48 63 203 251q118 134 162 194q30 30 40 57q-3 0 -121 121h-57q-24 -17 -52 -48q-113 -117 -175 -207z" />
    <glyph glyph-name="z" unicode="z" horiz-adv-x="1427" 
d="M892 1012h140q28 0 136 -128q112 -98 112 -112q-5 -17 -168 -196q-33 -49 -172 -216q-24 -21 -36 -60q-76 -65 -264 -292q0 -8 -20 -8q-47 36 -148 164l-460 576q-12 16 -12 24q0 12 120 120q110 112 116 112q41 4 64 4h220q42 0 128 4v-4l8 4h172q58 8 64 8zM476 984v-4
l-8 4q-9 0 -16 -4q-4 0 -4 4l-40 -4h-160l-228 -220q187 -223 372 -460l168 -208q60 -61 60 -72q8 0 56 68q8 0 152 172q131 151 276 336l152 176l-216 216h-4q-519 -4 -560 -4zM596 928h44q37 0 68 -4q17 4 60 4v-4l8 4q28 -4 28 -12v-16q-2 -7 -112 -104
q-268 -259 -288 -268q-44 -60 -68 -60q0 14 -36 52l-192 228v16q12 24 72 76q80 65 80 76h24l4 -48v-8q0 -21 -4 -68l12 -8h4q12 0 12 4l20 -4q52 0 52 24q39 75 148 108q30 12 64 12zM1032 916q31 0 132 -132q0 -12 4 -12l-128 -160q-123 -156 -132 -156h-8q-13 53 -48 76
q-13 8 -24 8q-52 0 -76 -64v-8q16 -24 16 -36q-4 -12 -24 -12h-196l-28 -4q0 8 -4 8q0 8 304 300q0 7 40 44q142 144 152 144zM288 764q-23 0 -28 36v4q0 28 8 56h-4l4 8q0 4 -4 4l4 8v4h-4q-85 -68 -132 -120v-8q108 -136 216 -256h8q0 6 168 164l252 236h4v8h-12
q-44 0 -56 -4q-38 4 -72 4h-44q-68 0 -164 -72q-34 -38 -44 -72h-100zM560 440q4 0 4 4l20 -4h144l8 4q0 -4 4 -4v4q-8 0 -8 8v28q0 45 72 76l32 8q76 -29 76 -68l8 -4q0 8 168 208q0 5 56 72q-86 120 -120 120q-18 0 -144 -136q-320 -312 -320 -316zM760 352v-4l8 4
q44 0 44 -20q-130 -162 -164 -196h-20q-19 15 -144 168v16q92 16 276 32zM752 328h-8l-232 -20q14 -30 128 -152h4q0 8 64 80l76 92q-24 0 -24 4z" />
  </font>
</defs>
</svg>
