<?xml version="1.0" standalone="no"?>
<!DOCTYPE svg PUBLIC "-//W3C//DTD SVG 1.1//EN" "http://www.w3.org/Graphics/SVG/1.1/DTD/svg11.dtd" >
<svg xmlns="http://www.w3.org/2000/svg" xmlns:xlink="http://www.w3.org/1999/xlink" version="1.1">
<metadata>
Created by FontForge 20161116 at Fri Jan  1 01:00:00 1904
 By Jimmy Warting
Copyright (c) 1995. Gerard E. Bernor. All Rights Reserved.
</metadata>
<defs>
<font id="BambiBold" horiz-adv-x="0" >
  <font-face 
    font-family="Bambi Bold"
    font-weight="400"
    font-stretch="normal"
    units-per-em="2048"
    panose-1="2 2 5 0 0 0 0 0 0 0"
    ascent="1638"
    descent="-410"
    x-height="1108"
    cap-height="1477"
    bbox="-475 -602 2421 1638"
    underline-thickness="50"
    underline-position="-125"
    unicode-range="U+0020-2219"
  />
<missing-glyph horiz-adv-x="1536" 
d="M256 0v1280h1024v-1280h-1024zM1248 32v1216h-960v-1216h960z" />
    <glyph glyph-name=".notdef" horiz-adv-x="1536" 
d="M256 0v1280h1024v-1280h-1024zM1248 32v1216h-960v-1216h960z" />
    <glyph glyph-name=".null" 
 />
    <glyph glyph-name="nonmarkingreturn" 
 />
    <glyph glyph-name="space" unicode=" " horiz-adv-x="922" 
 />
    <glyph glyph-name="exclam" unicode="!" 
 />
    <glyph glyph-name="quotedbl" unicode="&#x22;" 
 />
    <glyph glyph-name="numbersign" unicode="#" 
 />
    <glyph glyph-name="dollar" unicode="$" 
 />
    <glyph glyph-name="percent" unicode="%" 
 />
    <glyph glyph-name="ampersand" unicode="&#x26;" 
 />
    <glyph glyph-name="quotesingle" unicode="'" 
 />
    <glyph glyph-name="parenleft" unicode="(" 
 />
    <glyph glyph-name="parenright" unicode=")" 
 />
    <glyph glyph-name="asterisk" unicode="*" 
 />
    <glyph glyph-name="plus" unicode="+" 
 />
    <glyph glyph-name="comma" unicode="," horiz-adv-x="678" 
d="M637 72q0 -126 -56 -218t-140 -146t-172 -78.5t-152 -24.5v129q64 8 130.5 33t118.5 68t66 99q0 36 -10 48t-45 12q-11 -2 -33 -7.5t-41 -8.5t-51 -3q-59 0 -106 24t-75 66t-28 91q0 50 34.5 97t98 77t141.5 30q85 0 146.5 -24.5t99.5 -65.5t56 -93t18 -105z" />
    <glyph glyph-name="hyphen" unicode="-" 
 />
    <glyph glyph-name="period" unicode="." horiz-adv-x="647" 
d="M326 -33q-126 0 -202.5 65t-78.5 156q0 62 34.5 115t98.5 84t144 31q76 0 140.5 -28.5t102 -81t37.5 -118.5q0 -86 -71.5 -154.5t-204.5 -68.5z" />
    <glyph glyph-name="slash" unicode="/" 
 />
    <glyph glyph-name="zero" unicode="0" horiz-adv-x="1249" 
d="M625 -29q-117 0 -220.5 51.5t-180.5 148.5t-121 241.5t-44 324.5q0 138 45 277.5t123.5 250t182 175.5t215.5 65q117 0 219.5 -50.5t181 -148.5t122.5 -237t44 -311q0 -222 -52 -377t-136.5 -244t-183 -127.5t-195.5 -38.5zM551 1237l-2 -877q0 -152 13.5 -214t51.5 -62
q55 0 69.5 35.5t14.5 144.5v96l-2 930q0 99 -67 99q-33 0 -49.5 -13t-22.5 -43.5t-6 -95.5z" />
    <glyph glyph-name="one" unicode="1" horiz-adv-x="1249" 
d="M172 1055l-39 94q80 27 160.5 66t174.5 107.5t181 162.5h242v-1225q0 -89 41 -122.5t155 -33.5v-104q-235 23 -428 23t-430 -23v104q65 0 106 12.5t63 47.5t22 96v897q-84 -41 -139.5 -64.5t-108.5 -37.5z" />
    <glyph glyph-name="two" unicode="2" horiz-adv-x="1247" 
d="M1128 0h-1067v102q142 120 283 282.5t237.5 345.5t96.5 343q0 68 -24.5 120.5t-70.5 82t-108 29.5q-36 0 -76.5 -15t-77 -47.5t-67.5 -87.5t-51 -141h-113q22 163 98 271t193.5 158.5t267.5 55.5q110 0 198.5 -24.5t153 -72.5t99.5 -118t35 -162q0 -86 -38.5 -169
t-105 -160t-150 -149.5t-200.5 -166.5q-92 -72 -180 -123h450q72 0 112 31t64 145h99z" />
    <glyph glyph-name="three" unicode="3" horiz-adv-x="1247" 
d="M522 100q68 1 109.5 87.5t44.5 205.5q0 85 -17 159t-54 120.5t-93 46.5q-43 0 -96 -33l-60 94q71 44 120.5 91t81.5 112.5t32 149.5q0 81 -38 127.5t-99 46.5q-56 0 -115 -49.5t-84 -122.5l-96 34q37 99 104.5 173t169 115.5t230.5 41.5q170 0 273 -83.5t103 -215.5
q0 -56 -22.5 -110.5t-74 -101t-130.5 -73.5q160 -31 244 -137t84 -246q0 -110 -40 -210.5t-120.5 -181t-201.5 -127t-273 -46.5q-131 0 -228 28t-149.5 77t-52.5 108q0 47 30 86.5t80 55.5q32 10 58 10q86 0 141 -107q40 -76 68 -100.5t71 -24.5z" />
    <glyph glyph-name="four" unicode="4" horiz-adv-x="1249" 
d="M508 362q-3 9 -123 9q-107 0 -232 -4q-112 -4 -112 -5h2v158l678 965h254v-905h203v-220h-205v-360h-465v362zM211 580h299v411z" />
    <glyph glyph-name="five" unicode="5" horiz-adv-x="1249" 
d="M459 707q-78 0 -154 -62l-110 82l43 737h610q49 0 65.5 2t24.5 11t20 36h95l-45 -331h-660l-16 -234q126 53 272 53q132 0 256 -54t203.5 -168t79.5 -281q0 -142 -71 -264.5t-219.5 -196.5t-363.5 -74q-117 0 -202.5 33.5t-131 86t-51.5 114.5q0 63 41 106t99 43
q48 0 90 -28.5t84 -131.5q16 -36 38.5 -63t65.5 -27q38 0 76.5 27t66 98.5t27.5 192.5q0 75 -24.5 141.5t-77 109t-131.5 42.5z" />
    <glyph glyph-name="six" unicode="6" horiz-adv-x="1251" 
d="M49 612q0 229 107 401.5t260.5 278t303.5 156.5t236 51l70 -80q-134 -45 -232.5 -120.5t-157 -181.5t-79.5 -245q92 62 215 62q120 0 216.5 -57t151.5 -161.5t56 -240.5q0 -110 -36.5 -202t-110 -162.5t-174.5 -108.5t-228 -39q-125 0 -232.5 45.5t-190.5 132.5t-129 208
t-46 263zM610 776q-45 -3 -66 -38.5t-26.5 -100t-5.5 -203.5q3 -149 38.5 -246.5t96.5 -97.5q23 2 40.5 24t30.5 105.5t13 239.5q-1 183 -28.5 250t-92.5 67z" />
    <glyph glyph-name="seven" unicode="7" horiz-adv-x="1249" 
d="M158 1051h-115l41 413h1092v-104l-510 -1360h-420l551 1184h-496q-81 0 -112 -44.5t-31 -88.5z" />
    <glyph glyph-name="eight" unicode="8" horiz-adv-x="1247" 
d="M53 365q0 98 49 185.5t201 154.5q-110 88 -165.5 192t-55.5 205q0 192 158.5 297.5t404.5 105.5q89 0 171 -21.5t148 -66t104 -114.5t38 -162q0 -55 -21 -113t-63.5 -103t-106.5 -67q54 -23 114 -69t108.5 -130.5t48.5 -199.5q0 -133 -67.5 -247t-195 -180.5
t-302.5 -66.5q-159 0 -271 36t-179 98t-92.5 128.5t-25.5 137.5zM692 989q5 0 19 32.5t26.5 82.5t12.5 88q0 70 -35 131t-94 61q-56 0 -113 -37t-57 -90q0 -50 53 -100q15 -15 79.5 -72t108.5 -96zM477 575q-2 0 -20 -67q-21 -74 -21 -137q0 -151 54.5 -210t127.5 -59
q71 0 117.5 43.5t46.5 108.5q0 26 -10 59q-13 40 -31.5 64t-51 49.5t-132.5 93.5z" />
    <glyph glyph-name="nine" unicode="9" horiz-adv-x="1247" 
d="M1196 854q0 -234 -105 -405.5t-259 -278t-303 -156t-236 -49.5l-70 78q151 44 294 177.5t175 363.5q-97 -60 -211 -60q-117 0 -215 60.5t-154.5 168t-56.5 234.5q0 75 17 139q40 161 184.5 266.5t347.5 108.5q124 0 232 -45t188.5 -130.5t126 -206.5t45.5 -265zM614 1368
q-102 -8 -102 -246q0 -54 6 -116q13 -149 39 -237.5t94 -88.5q34 3 60 69.5t26 186.5q0 52 -6 117q-4 78 -8 149.5t-27 118.5t-82 47z" />
    <glyph glyph-name="colon" unicode=":" 
 />
    <glyph glyph-name="semicolon" unicode=";" 
 />
    <glyph glyph-name="less" unicode="&#x3c;" 
 />
    <glyph glyph-name="equal" unicode="=" 
 />
    <glyph glyph-name="greater" unicode="&#x3e;" 
 />
    <glyph glyph-name="question" unicode="?" 
 />
    <glyph glyph-name="at" unicode="@" 
 />
    <glyph glyph-name="A" unicode="A" horiz-adv-x="1708" 
d="M485 0h-573v102q81 0 134.5 27t80.5 90l485 1124l-57 134h514l524 -1256q16 -36 35.5 -60t59.5 -41.5t108 -17.5v-102q-256 23 -467 23q-249 0 -491 -23v102q219 0 219 103q0 26 -13 55l-118 289h-529q-31 -74 -67 -158t-45.5 -108t-12 -38t-2.5 -36q0 -61 50.5 -86
t115.5 -25q29 0 49 4v-102zM440 653h443l-219 549z" />
    <glyph glyph-name="B" unicode="B" horiz-adv-x="1589" 
d="M821 0h-821v102q16 -4 39 -4q59 0 105 35.5t46 124.5v946q0 82 -40 119t-150 37v104q107 10 403 22q295 11 392 11q256 0 399 -39t196.5 -117t53.5 -204q0 -77 -36 -143.5t-101.5 -107t-147.5 -40.5q99 -10 181.5 -60t132 -131t55.5 -180q0 -142 -62 -246.5t-219 -166.5
t-426 -62zM678 885q109 0 170.5 23.5t87 74.5t25.5 143q0 135 -63 205t-150 70q-37 0 -70 -12v-504zM678 340q0 -113 44 -169t118 -56q80 0 133 77t53 259q0 329 -260 329h-88v-440z" />
    <glyph glyph-name="C" unicode="C" horiz-adv-x="1741" 
d="M1425 1413q11 -4 25 -4q18 0 30.5 16t24.5 58h94l21 -479h-102q-6 61 -37.5 127t-87 123.5t-138.5 92.5t-194 35q-129 0 -223 -57t-153 -154t-85.5 -213t-26.5 -241q0 -185 66.5 -323.5t184 -215.5t261.5 -84q169 0 278.5 58t163 137t72.5 155l97 -24l-129 -445
q-53 19 -93.5 27t-97.5 8q-22 -1 -121 -14t-182.5 -21.5t-171.5 -11.5q-194 0 -350.5 57.5t-266.5 159.5t-168.5 236t-58.5 282q0 169 65 316t183 256t279.5 168t351.5 59q109 0 209 -17.5t280 -66.5z" />
    <glyph glyph-name="D" unicode="D" horiz-adv-x="1872" 
d="M735 0h-735v102q12 -4 37 -4q59 0 106 35t47 125v946q0 89 -46 125.5t-103 36.5q-17 0 -41 -6v104q66 6 223 14q156 7 340 14t242 7q255 0 442.5 -48.5t313.5 -144.5t188.5 -235.5t62.5 -322.5q0 -176 -66 -313.5t-199 -234.5t-336.5 -148.5t-475.5 -51.5zM678 281
q0 -94 33.5 -135.5t117.5 -41.5q98 0 183.5 38t150 116.5t99 196.5t34.5 272q0 226 -73.5 374.5t-203.5 221t-300 74.5q-19 0 -30 -23t-11 -45v-1048z" />
    <glyph glyph-name="E" unicode="E" horiz-adv-x="1591" 
d="M1513 0h-1513v102q102 0 146 38.5t44 117.5v956q0 89 -46 124.5t-105 35.5q-19 0 -39 -4v107h1452l21 -359h-105q0 92 -20 144.5t-56.5 76t-83.5 29.5t-131 6h-401v-573h381q198 0 198 137q0 17 -4 45h103q-8 -112 -8 -254q0 -111 6 -225h-103q4 36 4 51q0 141 -198 141
h-379v-409q0 -89 13 -125t54 -48t140 -12h276q275 0 275 281h112z" />
    <glyph glyph-name="F" unicode="F" horiz-adv-x="1483" 
d="M975 0q-133 12 -246 18q-114 5 -237 5q-259 0 -492 -23v104q99 0 147 32.5t48 123.5v957q0 71 -37 113t-154 42v105h1444l20 -359h-102q0 122 -29 176.5t-80.5 67t-160.5 12.5h-416v-571h299q186 0 186 137q0 15 -4 43h101q-5 -195 -5 -238q0 -36 5 -241h-103q6 24 6 51
q-4 145 -190 145h-295v-440q0 -160 225 -160q20 0 70 4v-104z" />
    <glyph glyph-name="G" unicode="G" horiz-adv-x="1829" 
d="M1589 1466q2 7 2 17h74v-479h-113q-32 131 -109.5 214.5t-175.5 121.5t-202 38q-139 0 -252 -76.5t-177.5 -224t-64.5 -348.5t52 -339.5t148 -212.5t224 -89q42 -4 54 -4q44 0 147 20v320q0 158 -209 158q-14 0 -23 -0.5t-20 -1.5v106q100 -9 217.5 -15.5t222.5 -6.5
q73 0 144 3q70 2 147 6.5t154 12.5v-102q-85 0 -122.5 -38.5t-37.5 -119.5v-367q-28 -8 -101 -28t-154.5 -35.5t-186.5 -25t-238 -9.5q-214 0 -387 55.5t-296.5 159.5t-187 241.5t-63.5 299.5q0 130 51 264.5t159 251t276.5 188.5t392.5 72q154 0 288 -25.5t228 -56.5
q88 -29 88 -31q40 0 51 86z" />
    <glyph glyph-name="H" unicode="H" horiz-adv-x="1909" 
d="M440 23q-198 0 -440 -23v104q113 0 155 37t42 119v957q0 89 -40.5 122t-154.5 33v105q227 -23 440 -23t437 23v-105q-10 1 -18.5 1.5t-22.5 0.5q-74 -2 -115 -33.5t-41 -123.5v-416h549v416q0 85 -48 120t-149 35v105q224 -23 436 -23q215 0 439 23v-105
q-98 0 -144.5 -37t-46.5 -118v-912q0 -109 34 -157t112 -48q11 0 45 4v-104q-240 23 -439 23q-197 0 -434 -23v104q99 0 147 32.5t48 123.5v436h-549v-436q0 -89 41 -122.5t156 -33.5v-104q-240 23 -439 23z" />
    <glyph glyph-name="I" unicode="I" horiz-adv-x="872" 
d="M195 1217q-3 157 -152 157q-29 0 -43 -2v105q199 -23 438 -23q241 0 434 23v-105q-192 0 -192 -155v-957q0 -52 15 -85.5t58 -52t119 -18.5v-104q-235 23 -434 23q-198 0 -436 -23v104q74 0 116 16t59.5 50.5t17.5 89.5v957z" />
    <glyph glyph-name="J" unicode="J" horiz-adv-x="874" 
d="M72 -449q60 0 91.5 54.5t31.5 183.5v1428q0 69 -35 112t-156 43v105q224 -23 436 -23q215 0 434 23v-105q-111 0 -152.5 -42.5t-41.5 -112.5v-1172q0 -117 -32 -214.5t-98 -178.5t-161.5 -136.5t-223 -86.5t-237.5 -31q-255 0 -284 156q-6 30 -6 63q0 170 174 170
q59 -5 84.5 -36.5t43.5 -85.5t44 -82.5t88 -31.5z" />
    <glyph glyph-name="K" unicode="K" horiz-adv-x="1776" 
d="M446 23q-204 0 -446 -23v102q103 0 145.5 41.5t42.5 145.5v891q0 114 -45.5 154t-142.5 40v103q222 -23 438 -23q214 0 436 23v-103q-107 0 -152.5 -48.5t-45.5 -145.5v-455q139 32 252.5 115.5t220.5 236.5q92 130 92 197q0 100 -172 100v103q151 -15 334 -15
q168 0 307 15v-101q-107 0 -173 -28t-101 -67.5t-88 -119.5q-12 -21 -31 -52t-68.5 -96.5t-107.5 -131.5q18 -16 67 -65t131.5 -147t167.5 -223q5 -6 60 -83.5t97 -130t88.5 -91.5t82.5 -39v-102q-158 18 -381 23q-142 0 -238.5 -5.5t-220.5 -17.5v102q62 0 89.5 15.5
t27.5 52.5q-4 31 -70 131q-97 148 -155.5 219t-104.5 101t-106 41v-340q0 -76 16.5 -123t52.5 -70.5t95 -28.5q22 0 34 2v-102q-235 23 -428 23z" />
    <glyph glyph-name="L" unicode="L" horiz-adv-x="1524" 
d="M1391 0h-1391v102q19 -5 35 -5q7 0 14 1q146 0 146 203v870q0 205 -146 205q-33 0 -49 -4v105q183 -23 442 -23q242 0 437 23v-105q-34 4 -48 4q-151 0 -151 -205v-901q0 -62 15.5 -94.5t56 -46.5t118.5 -14h209q80 0 136 25.5t110 89t131 188.5h113z" />
    <glyph glyph-name="M" unicode="M" horiz-adv-x="2138" 
d="M485 0q-131 16 -249 16q-116 0 -250 -16v104q95 0 141.5 37t52.5 119l62 954q0 77 -32 119.5t-93 42.5q-13 0 -37 -4v105q159 -25 326 -25q166 0 325 25l344 -846l359 846q33 -5 115.5 -13t195.5 -8q163 0 309 21v-105q-24 6 -47 6q-38 0 -62.5 -20.5t-37.5 -66
t-13 -120.5l41 -866q6 -111 41 -158t113 -47q13 0 49 4v-104q-238 23 -440 23q-201 0 -441 -23v104q15 -2 41 -2q98 0 132 39.5t34 122.5q0 13 -0.5 22t-1.5 19l-41 848l-508 -1161l-79 2l-480 1159l-55 -893q0 -87 31.5 -122.5t111.5 -35.5q29 0 43 2v-104z" />
    <glyph glyph-name="N" unicode="N" horiz-adv-x="1739" 
d="M537 0q-141 16 -269 16q-124 0 -268 -16v102q16 -4 47 -4q77 0 110 58t33 147v868q0 205 -147 205q-19 0 -43 -4v105q167 -23 328 -23q162 0 325 23l779 -881v575q0 205 -175 205q-31 0 -55 -4v105q76 -9 149 -13t113 -4q136 0 275 17v-107q-26 4 -37 4q-65 0 -108.5 -47
t-43.5 -156v-1171h-227l-1016 1128v-823q0 -113 50 -160t122 -47q32 0 58 6v-104z" />
    <glyph glyph-name="O" unicode="O" horiz-adv-x="1890" 
d="M991 -35q-180 0 -343 35.5t-295.5 118.5t-213 231t-80.5 363q0 190 66 338t186.5 247t284 149t352.5 50q200 0 364.5 -61t279 -167.5t176 -245.5t63.5 -292q0 -211 -103.5 -382.5t-295 -273t-441.5 -110.5zM928 1391q-172 0 -258 -183.5t-86 -429.5q0 -221 51 -381
t141.5 -241.5t206.5 -81.5q182 5 257 175t75 419q-5 205 -49.5 368.5t-130 258.5t-207.5 96z" />
    <glyph glyph-name="P" unicode="P" horiz-adv-x="1489" 
d="M477 23q-98 0 -477 -23v104q95 0 144 32t49 124v942q0 92 -44 127t-104 35q-27 0 -45 -6v106q188 16 385 25q236 12 320 12h40q13 -1 29 -2q194 -4 329.5 -34.5t219.5 -87.5t124 -138.5t42 -187.5q0 -136 -67 -243.5t-198 -167.5t-311 -60q-99 0 -233 24v-348
q0 -90 66.5 -125t150.5 -35q39 0 59 4v-100q-261 23 -479 23zM680 715q11 -5 40.5 -13t72.5 -8q98 0 149 75t51 228q0 402 -219 402q-36 0 -94 -15v-669z" />
    <glyph glyph-name="Q" unicode="Q" horiz-adv-x="1886" 
d="M1829 729q0 -187 -73 -323t-172 -218.5t-171.5 -118t-105.5 -46.5q83 -23 153 -76t148 -154q51 -66 80 -95t57 -44q68 -41 129 -41q33 0 63 12l-57 -100q-14 -2 -92 -2q-144 0 -249 14.5t-202.5 54t-200 107.5t-268.5 199q-52 46 -209 94q-140 43 -246.5 104t-186.5 152
t-123.5 214t-43.5 279q0 193 97.5 366.5t302.5 282.5t508 109q189 0 346.5 -59t274 -165t179 -247t62.5 -299zM928 1391q-172 0 -258 -183.5t-86 -429.5q0 -221 51 -381t141.5 -241.5t206.5 -81.5q164 5 247 158.5t83 459.5v66q-5 156 -49 300.5t-129.5 238t-206.5 94.5z
" />
    <glyph glyph-name="R" unicode="R" horiz-adv-x="1960" 
d="M483 23q-85 0 -240.5 -8.5t-242.5 -14.5v104q20 -4 39 -4q59 0 104 45.5t45 159.5v854q0 205 -145 205q-15 0 -43 -4v104q205 19 449 29q180 8 446 8q257 -9 418 -54.5t242 -139t81 -244.5q0 -124 -75 -226t-207 -135q55 -35 102 -85t115 -148q24 -42 82 -127t144 -169.5
t161 -84.5q22 0 41 8v-100l-320 -31q-66 0 -119 8t-122 37q-51 22 -94 51.5t-101.5 88t-125 144t-134.5 185.5l-82 131q-14 -2 -50.5 -5t-92.5 -3q-53 0 -82 2v-305q0 -62 12.5 -101.5t44 -61t82 -30t137.5 -8.5v-98q-255 23 -469 23zM676 707q113 0 174 10q295 47 295 330
q0 96 -36 175t-113.5 126t-196.5 47q-35 0 -68 -3t-55 -10v-675z" />
    <glyph glyph-name="S" unicode="S" horiz-adv-x="1303" 
d="M119 -16l-60 442h101q33 -114 86 -194t133 -121t196 -41q103 0 162.5 54t59.5 140q0 73 -47 127q-13 17 -63.5 50t-196.5 128.5t-216 146.5t-96 83q-96 118 -96 268q0 74 26 149t84.5 138t159 102t244.5 39q61 0 109.5 -5t79 -11.5t75 -19t68.5 -19.5q39 -13 61 -13
q29 0 45.5 12t16.5 29l86 11l32 -408h-92q-9 56 -41 112t-86 103.5t-126 76t-154 28.5q-81 0 -131 -40.5t-50 -103.5q0 -52 28.5 -89t84 -73t203.5 -122q120 -66 207 -127t133.5 -114t69 -111t28.5 -134q2 -16 2 -47q0 -143 -75 -248.5t-209 -162t-308 -56.5q-40 0 -88.5 4
t-113 15t-129.5 28q-39 8 -68 8q-45 0 -45 -34h-90z" />
    <glyph glyph-name="T" unicode="T" horiz-adv-x="1616" 
d="M76 1077h-105l39 424h88q18 -14 45 -18t78 -4l111 -2h1048q50 0 69.5 4t31.5 16l2 4l86 4l35 -438h-103q0 135 -32 201t-91 86t-164 20h-188v-1114q0 -160 197 -160q17 0 61 4v-104q-273 23 -500 23q-226 0 -499 -23v104q139 0 196.5 38.5t57.5 117.5v1114l-201 2
q-89 0 -142 -16.5t-86.5 -81t-33.5 -201.5z" />
    <glyph glyph-name="U" unicode="U" horiz-adv-x="1702" 
d="M186 1169q0 205 -141 205q-17 0 -45 -4v107q222 -23 434 -23q215 0 434 23v-105q-18 6 -47 6q-61 0 -105 -45.5t-44 -161.5v-686q0 -131 40 -218.5t123.5 -131t213.5 -43.5q181 1 266.5 97.5t85.5 297.5v684q0 113 -52 160t-130 47q-29 0 -58 -6v105q126 -17 266 -17
q136 0 275 17v-105q-98 0 -141 -46.5t-43 -154.5v-686q0 -164 -61.5 -281.5t-190 -179t-324.5 -61.5q-159 0 -297 28t-240.5 90.5t-160.5 162.5t-58 239v686z" />
    <glyph glyph-name="V" unicode="V" horiz-adv-x="1718" 
d="M180 1161q-58 104 -88.5 144.5t-68.5 54.5t-111 14v103q235 -23 524 -23q235 0 486 23v-105q-45 6 -76 6q-69 0 -116.5 -23.5t-47.5 -86.5q0 -50 35 -119l350 -707q113 231 190 390.5t116.5 239.5t48.5 98.5t10 21.5l6 14q22 49 22 82q0 88 -157 88q-15 0 -23.5 -0.5
t-19.5 -1.5v103q125 -15 276 -15q133 0 270 15v-103q-70 0 -109 -15.5t-68.5 -56.5t-72.5 -126l-595 -1176h-187z" />
    <glyph glyph-name="W" unicode="W" horiz-adv-x="2497" 
d="M272 1161q-33 95 -93 154t-140 59v103q204 -23 401 -23q196 0 400 23v-103q-49 0 -70.5 -13t-21.5 -56q0 -64 43 -181l247 -686l160 469l-96 250q-31 87 -50.5 125.5t-50.5 62t-86 29.5v103q131 -14 234 -19.5t217 -5.5q230 0 451 25v-103q-51 6 -74 6q-152 0 -152 -127
q0 -56 25 -120l242 -678l253 755q15 40 15 72q0 89 -121 94q-37 0 -43 -2v103q34 -3 63 -7.5t77.5 -9t74.5 -4.5q29 0 43 2q141 13 201 19v-101q-65 -5 -90 -14t-48.5 -48.5t-60.5 -144.5l-405 -1169h-281l-270 741l-265 -741h-294z" />
    <glyph glyph-name="X" unicode="X" horiz-adv-x="1901" 
d="M227 1227q-69 77 -134.5 112t-166.5 35v103q249 -21 533 -21t530 21v-105q-153 0 -153 -80q0 -52 63 -133l166 -215l244 238q73 73 73 121q0 71 -159 71v103q145 -15 317 -15q119 0 311 15v-101q-79 -1 -149.5 -35t-128.5 -81.5t-139 -122.5l-293 -271l508 -616
q141 -152 272 -152q25 0 53 4v-102q-299 23 -551 23q-248 0 -555 -23v102h56q133 0 133 68q0 49 -68 137l-205 262l-305 -286q-84 -77 -84 -121q0 -34 37 -48t88 -14q31 0 51 4v-104q-184 14 -323 14q-170 0 -320 -14v104q91 0 148.5 22t171.5 112l461 407z" />
    <glyph glyph-name="Y" unicode="Y" horiz-adv-x="1632" 
d="M172 1176q-67 92 -104 134.5t-67.5 53t-88.5 10.5v103q242 -23 471 -23q232 0 471 23v-103q-65 0 -107 -15t-42 -65v-8q0 -48 59 -137l268 -404l283 435q45 81 45 120q0 38 -35.5 57t-124.5 19v101q133 -17 260 -17t260 17v-101q-64 0 -102.5 -15.5t-64.5 -46t-87 -116.5
l-413 -616l-4 -258q0 -226 170 -226q17 0 47 4v-102q-176 18 -416 23q-238 0 -459 -23v104q2 2 9 2q8 0 20 -2h6q51 0 96 36q46 37 53 145q3 0 3 301z" />
    <glyph glyph-name="Z" unicode="Z" horiz-adv-x="1624" 
d="M1556 0h-507h-1049v115l963 1259h-418q-118 0 -187 -17.5t-112 -84t-43 -207.5h-97v412h1453v-111l-961 -1264h543q116 0 191.5 31t117 114t41.5 234h104z" />
    <glyph glyph-name="bracketleft" unicode="[" 
 />
    <glyph glyph-name="backslash" unicode="\" 
 />
    <glyph glyph-name="bracketright" unicode="]" 
 />
    <glyph glyph-name="asciicircum" unicode="^" 
 />
    <glyph glyph-name="underscore" unicode="_" 
 />
    <glyph glyph-name="grave" unicode="`" 
 />
    <glyph glyph-name="a" unicode="a" horiz-adv-x="1376" 
d="M299 573q0 2 63 23.5t203.5 70.5t190.5 66v160q0 79 -22.5 113t-80.5 34q-57 0 -90 -37t-33 -88q0 -42 25 -84l-397 -161q-15 48 -15 98q0 116 83 199t227 125.5t313 44.5q152 0 251.5 -42.5t147 -121.5t47.5 -187v-526q0 -117 48 -117q28 0 90 37l55 -57
q-48 -59 -155 -106.5t-199 -47.5q-56 0 -117 17t-109 52.5t-63 84.5q-38 -48 -115 -98t-231 -50q-359 0 -359 283q4 80 19.5 132.5t68.5 100.5t154 82zM756 653q0 4 -2 4q-15 -1 -49.5 -12t-79 -44.5t-79 -107t-34.5 -192.5q0 -84 35 -121t102 -37q78 0 107 45v465z" />
    <glyph glyph-name="b" unicode="b" horiz-adv-x="1552" 
d="M162 1219q0 117 -58 154.5t-118 37.5l2 66q183 20 377 73q111 31 206 66l56 -29v-672q93 93 167 142t132.5 65.5t124.5 16.5q121 0 221.5 -66.5t160.5 -196.5t60 -301q-8 -184 -97.5 -317t-267 -205.5t-432.5 -72.5q-87 0 -215 13t-223.5 29t-95.5 23v1174zM627 315
q0 -221 174 -227q105 0 165 86.5t60 269.5q0 93 -18 215q-21 141 -67.5 197.5t-115.5 56.5q-116 0 -198 -108v-490z" />
    <glyph glyph-name="c" unicode="c" horiz-adv-x="1298" 
d="M862 96q98 0 185.5 53.5t158.5 141.5l64 -51q-46 -65 -108 -119t-138.5 -90t-163.5 -54t-180 -18q-126 0 -241.5 35t-201 103t-134 168.5t-48.5 228.5q0 146 50 259.5t138 191t201 123t240 62.5q55 9 150 9q184 -2 313 -52.5t129 -166.5q0 -69 -57 -107.5t-154 -38.5
q-122 19 -188 164q-23 53 -50 86t-75 33q-74 0 -123 -77t-71.5 -186.5t-22.5 -215.5q0 -149 38 -257.5t111.5 -166.5t177.5 -58z" />
    <glyph glyph-name="d" unicode="d" horiz-adv-x="1548" 
d="M690 1139q66 0 133 -12.5t101 -20.5q0 179 -37.5 242t-161.5 63v66q33 4 50 5.5t40 4.5q264 36 512 129l62 -29v-1255q0 -80 21 -126t83 -46q29 0 70 12v-84l-578 -117l-61 29v135q-66 -78 -162.5 -122t-204.5 -44q-159 0 -273 76t-171.5 197.5t-57.5 255.5
q0 136 46.5 255.5t132.5 206t203 133t253 46.5zM924 934q-29 47 -76 78.5t-105 31.5q-82 0 -130.5 -53t-68.5 -144.5t-20 -221.5q0 -78 11 -185q14 -133 78 -203.5t149 -70.5q57 0 109.5 28.5t52.5 38.5v701z" />
    <glyph glyph-name="e" unicode="e" horiz-adv-x="1335" 
d="M727 1139q216 0 332 -96t153 -216.5t37 -226.5h-723l4.5 -46.5t15 -101.5t27.5 -106q26 -72 67 -120t97 -73.5t117 -25.5q101 0 189 59t157 154l70 -68q-78 -99 -157.5 -166.5t-187 -105t-259.5 -37.5q-133 1 -247 44t-195.5 119t-124 176.5t-42.5 217.5q0 182 78 322.5
t230 218.5t362 78zM526 688h295q-3 39 -6 77.5t-6 76.5q-29 196 -143 196q-94 -13 -125 -200q-3 -19 -7.5 -68.5t-7.5 -81.5z" />
    <glyph glyph-name="f" unicode="f" horiz-adv-x="870" 
d="M416 23q-248 -5 -430 -23v104q190 0 190 187v698h-190v49l192 74q0 182 58.5 294.5t218 172t452.5 59.5q156 0 272.5 -37t209.5 -110l-181 -266q-16 38 -68 113t-122 132.5t-144 57.5q-47 0 -82.5 -8.5t-70.5 -48t-57.5 -127.5t-22.5 -236h297v-119h-297v-698
q0 -94 68 -143.5t149 -49.5q26 0 47 6v-104q-233 23 -489 23z" />
    <glyph glyph-name="g" unicode="g" horiz-adv-x="1473" 
d="M20 -240q0 40 35 80t75.5 69.5t45.5 29.5q-41 37 -59.5 69t-18.5 92q2 65 21 102.5t73.5 64t155.5 50.5l160 41q0 5 -112.5 30.5t-133.5 37.5q-82 50 -129 135t-47 180q0 121 74.5 215.5t215.5 147.5t335 53q216 0 415 -102l412 88v-312l-305 97q63 -79 63 -183
q0 -105 -67 -197.5t-190.5 -149t-284.5 -56.5h-10q-3 0 -6 -0.5t-7 0.5h-31h-12q-102 0 -102 -66q0 -20 21 -37.5t32 -17.5l395 -35q253 -22 329.5 -104t76.5 -182q0 -80 -56.5 -155.5t-166.5 -133.5q-108 -61 -269 -87t-303 -26q-210 0 -346 43t-207.5 101.5t-71.5 117.5z
M662 1047q-55 -4 -92.5 -91t-37.5 -198q0 -31 3 -45q7 -113 54.5 -194t131.5 -81q151 0 151 201q0 53 -8 106q-17 125 -64.5 213.5t-137.5 88.5zM367 -119q0 -39 8.5 -73t33 -66t72.5 -56t129 -40q124 -23 234 -23q46 0 84 6q111 17 147.5 36t36.5 61q0 37 -29.5 57
t-72 27.5t-98.5 11.5t-132 8q-87 7 -221 21.5t-192 29.5z" />
    <glyph glyph-name="h" unicode="h" horiz-adv-x="1528" 
d="M770 0q-79 10 -184.5 16.5t-214.5 6.5q-176 0 -385 -23v104q24 -4 34 -4q62 0 102 51t40 158v910v51q0 46 -30.5 73t-145.5 68v66q187 20 376 73q111 30 207 66l58 -29v-618q91 70 209.5 123t226.5 53q133 0 219 -81t102 -220q13 -81 13 -170q0 -119 -15 -420
q0 -74 32 -113t85 -39q23 0 43 7v-109q-177 23 -366 23q-194 0 -371 -23v106q72 0 100 66t35 268q4 124 4 144q0 72 -14 184q-10 81 -54.5 119.5t-105.5 38.5q-72 0 -143 -45v-572q0 -111 24.5 -159t79.5 -48q11 0 39 4v-106z" />
    <glyph glyph-name="i" unicode="i" horiz-adv-x="805" 
d="M80 1389q0 98 79 165.5t208 67.5q71 0 125.5 -20t91.5 -55.5t54 -76t17 -84.5q0 -101 -80 -166t-204 -65q-132 0 -210.5 68.5t-80.5 165.5zM819 0q-228 23 -418 23q-187 0 -415 -23v109q20 -7 41 -7q63 0 107 51t44 156l-2 439q0 123 -44.5 154.5t-145.5 31.5v67
q111 10 202 27t189 43q113 30 209 68l55 -25v-805q0 -97 35 -148.5t143 -51.5v-109z" />
    <glyph glyph-name="j" unicode="j" horiz-adv-x="752" 
d="M53 1391q0 95 79 163t214 72q66 0 121 -18.5t90.5 -49.5t55.5 -72.5t20 -88.5q0 -100 -81 -167t-220 -67q-127 0 -203 66t-76 162zM41 -322q47 0 82 38.5t35 144.5v887q0 65 -14 101.5t-55 56.5t-122 28v67q197 17 391 70q117 32 207 68l58 -25v-1016q0 -152 -61.5 -264
t-187.5 -182t-315 -92q-85 -9 -155 -9q-141 0 -226 29.5t-120 73.5q-33 41 -33 80v4q1 104 44 145t136 41q35 0 55 -2q83 -6 150 -135q26 -51 61.5 -80t69.5 -29z" />
    <glyph glyph-name="k" unicode="k" horiz-adv-x="1548" 
d="M737 0q-202 23 -375 23q-171 0 -376 -23v102q98 0 131.5 38t40.5 112l1 96q0 95 1 241v644q0 76 -31.5 113t-142.5 59v72q300 31 583 133l56 -21v-956l397 258q16 9 26.5 26t10.5 33q0 49 -101 49v109q158 -16 293 -16q137 0 291 16v-107q-94 0 -147 -17t-172 -97
l-207 -131l375 -531q31 -41 52 -64t59 -42t91 -19v-100q-222 23 -405 23t-406 -23v98q88 0 88 47q0 35 -39 91l-206 307v-264q0 -175 112 -175v-104z" />
    <glyph glyph-name="l" unicode="l" horiz-adv-x="788" 
d="M803 0q-222 23 -410 23q-185 0 -407 -23v104q14 -4 39 -4q65 0 102 55.5t37 157.5v906v51q0 31 -11.5 51.5t-46 39t-120.5 50.5v66q302 34 585 139l58 -29v-1282q0 -112 38 -159.5t93 -47.5q25 0 43 6v-104z" />
    <glyph glyph-name="m" unicode="m" horiz-adv-x="2353" 
d="M393 23q-185 0 -407 -23v102q27 -6 51 -6q139 0 139 221v431v45q0 43 -10.5 62t-43 33t-136.5 46v67q6 1 58.5 6.5t129 18t129.5 25.5q139 32 283 88l55 -25v-188q130 103 244 160t243 57q72 0 132 -24.5t101 -69.5t58 -105q177 120 271.5 157.5t177.5 37.5
q72 0 134.5 -26t109 -75t74 -119t30.5 -155q2 -43 2 -125q0 -150 -12 -332q0 -209 110 -209q27 0 51 8v-106q-204 23 -376 23q-166 0 -371 -23v104q42 0 70.5 13t48 56.5t20.5 131.5v28q0 43 2 92q2 65 4 126q0 126 -12 217q-9 76 -48 117t-103 41q-79 0 -170 -62v-557
q0 -108 25 -157.5t79 -49.5q21 0 45 6v-106q-209 23 -379 23q-174 0 -379 -23v104q26 -4 33 -4q111 0 111 205v434q0 89 -31.5 135t-91.5 46q-72 0 -203 -76v-535q0 -112 24.5 -161.5t75.5 -49.5q20 0 41 6v-104q-212 23 -389 23z" />
    <glyph glyph-name="n" unicode="n" horiz-adv-x="1546" 
d="M-10 0l-4 102q24 -6 49 -6q61 0 102 51t41 170v431q0 74 -8.5 99t-40.5 39.5t-143 47.5v67q111 10 202 27t189 43q117 32 207 68l57 -25v-143q249 176 422 176q93 0 173.5 -49t126.5 -143t46 -222l-6 -422q0 -213 106 -213q22 0 52 8v-106q-205 23 -375 23
q-168 0 -367 -23v106q39 0 63.5 14.5t40 56.5t22.5 121t7 218q0 175 -16 262q-12 73 -49.5 111.5t-98.5 38.5q-68 0 -147 -49v-572q0 -64 7.5 -109.5t30 -71.5t62.5 -26q9 0 37 4v-104q-215 23 -393 23q-180 0 -395 -23z" />
    <glyph glyph-name="o" unicode="o" horiz-adv-x="1532" 
d="M764 -35q-220 0 -376.5 67t-241 194.5t-87.5 299.5q0 120 34.5 219t102 174t167.5 126.5t227 76.5q113 23 221 23q181 0 333.5 -63t244.5 -198.5t92 -340.5q0 -161 -86 -292t-249 -208t-382 -78zM686 1051q-85 0 -124.5 -72.5t-39.5 -190.5q0 -126 43 -284
q29 -102 77.5 -201.5t107.5 -161t120 -61.5q29 0 64 18q39 26 61.5 104t22.5 183q0 152 -47 279q-134 387 -285 387z" />
    <glyph glyph-name="p" unicode="p" horiz-adv-x="1548" 
d="M879 -487h-461h-432v106q8 -2 22 -2q17 0 41 4q55 10 85 54.5t30 142.5v930q0 62 -4 85t-20 37.5t-56.5 29t-97.5 34.5v67q301 29 587 138l60 -25v-196q24 24 85 74t149.5 98.5t170.5 48.5q134 0 237 -70t159.5 -190t56.5 -258q-7 -187 -73 -317.5t-163 -201t-205 -99
t-210 -28.5q-55 0 -103 7.5t-108 23.5v-182q0 -117 59 -164t137 -47q34 0 54 6v-106zM629 152q0 -9 60.5 -39.5t111.5 -30.5q117 0 170 114t53 291q0 424 -209 424q-52 0 -100 -29t-86 -79v-651z" />
    <glyph glyph-name="q" unicode="q" horiz-adv-x="1511" 
d="M711 1141q164 0 293 -50.5t182 -84.5l174 133l47 -27q-17 -33 -22 -64.5t-5 -78.5v-105v-1046q0 -203 138 -203q10 0 38 4v-106q-134 12 -241 17t-223 5q-235 0 -449 -20v104q25 -8 64 -8q84 0 146 51t62 158v309q-55 -69 -156.5 -116.5t-209.5 -47.5q-117 0 -208.5 50
t-155.5 134.5t-96 184t-32 188.5q0 136 48.5 250t136 196t209 127.5t260.5 45.5zM915 842q0 110 -47 157.5t-120 47.5q-99 0 -161.5 -102.5t-62.5 -305.5q0 -257 64 -364t186 -107q55 0 98 26.5t43 34.5v613z" />
    <glyph glyph-name="r" unicode="r" horiz-adv-x="1159" 
d="M178 748v43q0 44 -10.5 63.5t-44.5 34t-137 45.5v67q308 26 598 138l59 -25v-303l127 207q42 66 78.5 95.5t87.5 29.5q46 0 121 -29l190 -78l-147 -317l-178 74q-68 28 -107 28q-65 0 -110 -65l-62 -84v-367q0 -115 62.5 -161t146.5 -46q39 0 63 6v-104q-258 23 -473 23
q-206 0 -454 -23v104q32 -8 49 -8q63 0 102 59t39 167v426z" />
    <glyph glyph-name="s" unicode="s" horiz-adv-x="1036" 
d="M80 -29l-21 351h101q10 -92 87 -170t183 -78q57 0 99 30t42 82q0 49 -46.5 94t-184.5 138q-145 98 -206.5 189t-61.5 198q0 89 46.5 168t140 126.5t226.5 47.5q174 0 426 -86l-2 -281h-94q-7 90 -69 171t-148 85q-50 0 -81.5 -28.5t-31.5 -71.5q0 -34 16.5 -62
t70.5 -72.5t153 -109.5q122 -74 187 -156t65 -198q0 -92 -50 -177.5t-148.5 -138.5t-231.5 -53q-80 0 -189.5 20.5t-113.5 20.5q-52 0 -64 -39h-100z" />
    <glyph glyph-name="t" unicode="t" horiz-adv-x="926" 
d="M147 989h-133v53q59 13 144 48.5t161 89.5q154 105 216 256h77v-328h367l-37 -119h-330v-670q0 -82 32 -123.5t83 -41.5q55 0 116 42t101 105l70 -59q-51 -95 -127.5 -155.5t-172 -89t-208.5 -28.5q-172 0 -265.5 78t-93.5 197v745z" />
    <glyph glyph-name="u" unicode="u" horiz-adv-x="1563" 
d="M162 748q0 63 -4 86.5t-20.5 38t-45.5 24t-106 37.5v67q25 3 63 7t100 14t121 25q74 17 149 40.5t150 51.5l58 -25v-780q0 -139 118 -139q91 0 193 98v455q0 61 -3.5 84.5t-20 36t-40 20.5t-129.5 45v67q2 0 56.5 6t130 19t125.5 25q157 36 291 88l55 -25v-752
q0 -200 100 -200q35 0 74 20v-98l-567 -115l-72 31v182q-79 -66 -165.5 -114.5t-166 -72.5t-149.5 -24q-121 0 -200.5 63.5t-90.5 164.5q-1 14 -1.5 17.5t-0.5 54.5q-1 51 -1 177q-1 126 -1 300z" />
    <glyph glyph-name="v" unicode="v" horiz-adv-x="1368" 
d="M147 795q-53 101 -102.5 153.5t-118.5 52.5v107q207 -23 432 -23q117 0 189 4.5t237 18.5v-109q-153 0 -153 -75q0 -20 8 -41q14 -33 49 -101l184 -358l183 356q41 69 41 119t-38.5 77.5t-96.5 27.5q-8 0 -43 -5l-3 109q140 -16 256 -16q127 0 271 16v-109
q-54 -3 -100 -35.5t-81 -76t-59.5 -86.5t-38.5 -68l-395 -733h-197z" />
    <glyph glyph-name="w" unicode="w" horiz-adv-x="2007" 
d="M145 807q-49 115 -83 152.5t-121 41.5v107q215 -23 395 -23q182 0 397 23v-104q-121 0 -121 -72q0 -21 8 -41t20 -43t15 -29l131 -321l156 397q6 12 6 25q0 39 -48.5 60t-119.5 21v107q94 -12 188 -17.5t218 -5.5q202 0 385 23v-109q-74 0 -101.5 -9.5t-27.5 -41.5
q0 -31 39 -125l133 -321l121 311q20 47 20 88q0 100 -137 100v107q118 -16 225 -16q106 0 223 16v-107q-66 0 -102.5 -23.5t-54.5 -58t-56 -124.5l-323 -795h-205l-317 741l-306 -741h-208z" />
    <glyph glyph-name="x" unicode="x" horiz-adv-x="1452" 
d="M236 14q-158 0 -295 -14v106q70 0 114 12t80.5 36.5t93.5 74.5l285 240l-297 362q-78 100 -132.5 136.5t-123.5 36.5v104q227 -23 473 -23q219 3 416 23v-104q-3 -2 -9 -2h-3q-5 0 -13 2h-8q-23 0 -41 -8q-22 -10 -22 -38q0 -32 37 -81l90 -127l129 114q61 52 61 88
q0 49 -115 49l-2 107q123 -14 263 -14q45 0 118 4q73 3 142 10v-107q-65 0 -114.5 -20t-139.5 -94l-265 -219l338 -424q-1 2 -2 3t-2 1q0 -16 64 -80t123 -64q18 0 32 7v-111q-241 23 -444 23q-202 0 -444 -23v100q55 0 82.5 7t27.5 38q0 35 -43 95l-104 147l-137 -129
q-68 -64 -68 -104q0 -27 28.5 -41.5t65.5 -14.5q17 0 37 4v-102q-129 14 -276 14z" />
    <glyph glyph-name="y" unicode="y" horiz-adv-x="1303" 
d="M137 797q-67 118 -106.5 161t-104.5 43v107q230 -23 416 -23q187 0 414 23v-107q-78 0 -106.5 -12t-28.5 -43q0 -48 51 -137l190 -340l154 315q35 73 35 121q0 36 -17.5 59.5t-45 33.5t-56.5 10q-24 0 -53 -9v109q32 -5 93.5 -10.5t147.5 -5.5q118 0 256 16v-107
q-42 -2 -72 -13t-69.5 -60t-93.5 -160l-500 -1036q-38 -90 -117 -165t-176 -75q-81 0 -128.5 51t-47.5 113q0 58 40.5 105.5t104.5 56.5q52 6 89 6h34q10 -1 21 -2q164 0 164 69q0 20 -19 56z" />
    <glyph glyph-name="z" unicode="z" horiz-adv-x="1444" 
d="M1294 0h-1265v104l753 902h-352q-220 0 -299 -308l-98 15l98 463h96q0 -22 9 -36.5t41.5 -23t105.5 -8.5h952l39 -109l-747 -897h364q120 0 197 71.5t137 217.5l105 -24z" />
    <glyph glyph-name="braceleft" unicode="{" 
 />
    <glyph glyph-name="bar" unicode="|" 
 />
    <glyph glyph-name="braceright" unicode="}" 
 />
    <glyph glyph-name="asciitilde" unicode="~" 
 />
    <glyph glyph-name="u0081" horiz-adv-x="2023" 
d="M635 1479q2 4 2 8h29v-193h-45q-11 51 -42 85t-72 49.5t-81 15.5q-57 0 -102 -30t-71 -88t-26 -140q0 -81 21 -137t59.5 -85.5t91.5 -35.5q8 0 12.5 -0.5t8.5 -1.5q15 0 59 8v129q0 63 -86 63h-16l2 41q79 -8 174 -8q99 0 178 8v-41h-6q-57 0 -57 -61v-147
q-117 -39 -271 -39q-114 0 -199.5 38.5t-130 107t-44.5 155.5q0 71 37.5 143t117.5 120t197 48q88 0 150.5 -17t88.5 -28q18 0 21 33zM1337 893h-606v41h12q64 0 64 61v383q0 64 -59 64h-17v41h582l8 -144h-43q0 69 -26 86t-91 17h-160v-228h152q80 0 80 54q0 12 -2 18h41
q-2 -33 -2 -100q0 -62 2 -90h-41q2 6 2 20q0 55 -80 55h-152v-163q0 -34 5.5 -49t22.5 -20t56 -5h109q111 0 111 113h45zM1696 893h-328v41q3 0 7 -0.5t9 -1.5q60 0 60 63v379q0 34 -14 49t-52 15h-10v41q27 2 103 6q76 3 145 5q68 1 70 1q154 0 207 -33.5t53 -109.5
q0 -47 -32 -81t-81 -34q61 -6 101.5 -47.5t45.5 -102.5v-10q0 -180 -284 -180zM1638 1247q66 0 90.5 21.5t24.5 74.5q0 54 -25.5 82.5t-60.5 28.5q-12 0 -29 -6v-201zM1638 1030q0 -90 66 -90q76 0 76 133t-105 133h-37v-176z" />
    <glyph glyph-name="quotesinglbase" unicode="&#x201a;" 
 />
    <glyph glyph-name="florin" unicode="&#x192;" 
 />
    <glyph glyph-name="quotedblbase" unicode="&#x201e;" 
 />
    <glyph glyph-name="ellipsis" unicode="&#x2026;" 
 />
    <glyph glyph-name="dagger" unicode="&#x2020;" 
 />
    <glyph glyph-name="daggerdbl" unicode="&#x2021;" 
 />
    <glyph glyph-name="circumflex" unicode="&#x2c6;" 
 />
    <glyph glyph-name="perthousand" unicode="&#x2030;" 
 />
    <glyph glyph-name="Scaron" unicode="&#x160;" 
 />
    <glyph glyph-name="guilsinglleft" unicode="&#x2039;" 
 />
    <glyph glyph-name="OE" unicode="&#x152;" 
 />
    <glyph glyph-name="quoteleft" unicode="&#x2018;" 
 />
    <glyph glyph-name="quoteright" unicode="&#x2019;" 
 />
    <glyph glyph-name="quotedblleft" unicode="&#x201c;" 
 />
    <glyph glyph-name="quotedblright" unicode="&#x201d;" 
 />
    <glyph glyph-name="bullet" unicode="&#x2022;" 
 />
    <glyph glyph-name="emdash" unicode="&#x2013;" 
 />
    <glyph glyph-name="endash" unicode="&#x2014;" 
 />
    <glyph glyph-name="tilde" unicode="&#x2dc;" 
 />
    <glyph glyph-name="trademark" unicode="&#x2122;" 
 />
    <glyph glyph-name="scaron" unicode="&#x161;" 
 />
    <glyph glyph-name="guilsinglright" unicode="&#x203a;" 
 />
    <glyph glyph-name="oe" unicode="&#x153;" 
 />
    <glyph glyph-name="Ydieresis" unicode="&#x178;" 
 />
    <glyph glyph-name="nonbreakingspace" unicode="&#xa0;" 
 />
    <glyph glyph-name="exclamdown" unicode="&#xa1;" 
 />
    <glyph glyph-name="cent" unicode="&#xa2;" 
 />
    <glyph glyph-name="sterling" unicode="&#xa3;" 
 />
    <glyph glyph-name="currency" unicode="&#xa4;" 
 />
    <glyph glyph-name="yen" unicode="&#xa5;" 
 />
    <glyph glyph-name="brokenbar" unicode="&#xa6;" 
 />
    <glyph glyph-name="section" unicode="&#xa7;" 
 />
    <glyph glyph-name="dieresis" unicode="&#xa8;" 
 />
    <glyph glyph-name="copyright" unicode="&#xa9;" 
 />
    <glyph glyph-name="ordfeminine" unicode="&#xaa;" 
 />
    <glyph glyph-name="guillemotleft" unicode="&#xab;" 
 />
    <glyph glyph-name="logicalnot" unicode="&#xac;" 
 />
    <glyph glyph-name="softhyphen" unicode="&#xad;" 
 />
    <glyph glyph-name="registered" unicode="&#xae;" 
 />
    <glyph glyph-name="macron" unicode="&#xaf;" 
 />
    <glyph glyph-name="degree" unicode="&#xb0;" 
 />
    <glyph glyph-name="plusminus" unicode="&#xb1;" 
 />
    <glyph glyph-name="twosuperior" unicode="&#xb2;" 
 />
    <glyph glyph-name="threesuperior" unicode="&#xb3;" 
 />
    <glyph glyph-name="acute" unicode="&#xb4;" 
 />
    <glyph glyph-name="mu" unicode="&#xb5;" 
 />
    <glyph glyph-name="paragraph" unicode="&#xb6;" 
 />
    <glyph glyph-name="periodcentered" unicode="&#x2219;" 
 />
    <glyph glyph-name="cedilla" unicode="&#xb8;" 
 />
    <glyph glyph-name="onesuperior" unicode="&#xb9;" 
 />
    <glyph glyph-name="ordmasculine" unicode="&#xba;" 
 />
    <glyph glyph-name="guillemotright" unicode="&#xbb;" 
 />
    <glyph glyph-name="onequarter" unicode="&#xbc;" 
 />
    <glyph glyph-name="onehalf" unicode="&#xbd;" 
 />
    <glyph glyph-name="threequarters" unicode="&#xbe;" 
 />
    <glyph glyph-name="questiondown" unicode="&#xbf;" 
 />
    <glyph glyph-name="Agrave" unicode="&#xc0;" 
 />
    <glyph glyph-name="Aacute" unicode="&#xc1;" 
 />
    <glyph glyph-name="Acircumflex" unicode="&#xc2;" 
 />
    <glyph glyph-name="Atilde" unicode="&#xc3;" 
 />
    <glyph glyph-name="Adieresis" unicode="&#xc4;" 
 />
    <glyph glyph-name="Aring" unicode="&#xc5;" 
 />
    <glyph glyph-name="AE" unicode="&#xc6;" 
 />
    <glyph glyph-name="Ccedilla" unicode="&#xc7;" 
 />
    <glyph glyph-name="Egrave" unicode="&#xc8;" 
 />
    <glyph glyph-name="Eacute" unicode="&#xc9;" 
 />
    <glyph glyph-name="Ecircumflex" unicode="&#xca;" 
 />
    <glyph glyph-name="Edieresis" unicode="&#xcb;" 
 />
    <glyph glyph-name="Igrave" unicode="&#xcc;" 
 />
    <glyph glyph-name="Iacute" unicode="&#xcd;" 
 />
    <glyph glyph-name="Icircumflex" unicode="&#xce;" 
 />
    <glyph glyph-name="Idieresis" unicode="&#xcf;" 
 />
    <glyph glyph-name="Eth" unicode="&#xd0;" 
 />
    <glyph glyph-name="Ntilde" unicode="&#xd1;" 
 />
    <glyph glyph-name="Ograve" unicode="&#xd2;" 
 />
    <glyph glyph-name="Oacute" unicode="&#xd3;" 
 />
    <glyph glyph-name="Ocircumflex" unicode="&#xd4;" 
 />
    <glyph glyph-name="Otilde" unicode="&#xd5;" 
 />
    <glyph glyph-name="Odieresis" unicode="&#xd6;" 
 />
    <glyph glyph-name="multiply" unicode="&#xd7;" 
 />
    <glyph glyph-name="Oslash" unicode="&#xd8;" 
 />
    <glyph glyph-name="Ugrave" unicode="&#xd9;" 
 />
    <glyph glyph-name="Uacute" unicode="&#xda;" 
 />
    <glyph glyph-name="Ucircumflex" unicode="&#xdb;" 
 />
    <glyph glyph-name="Udieresis" unicode="&#xdc;" 
 />
    <glyph glyph-name="Yacute" unicode="&#xdd;" 
 />
    <glyph glyph-name="Thorn" unicode="&#xde;" 
 />
    <glyph glyph-name="germandbls" unicode="&#xdf;" 
 />
    <glyph glyph-name="agrave" unicode="&#xe0;" 
 />
    <glyph glyph-name="aacute" unicode="&#xe1;" 
 />
    <glyph glyph-name="acircumflex" unicode="&#xe2;" 
 />
    <glyph glyph-name="atilde" unicode="&#xe3;" 
 />
    <glyph glyph-name="adieresis" unicode="&#xe4;" 
 />
    <glyph glyph-name="aring" unicode="&#xe5;" 
 />
    <glyph glyph-name="ae" unicode="&#xe6;" 
 />
    <glyph glyph-name="ccedilla" unicode="&#xe7;" 
 />
    <glyph glyph-name="egrave" unicode="&#xe8;" 
 />
    <glyph glyph-name="eacute" unicode="&#xe9;" 
 />
    <glyph glyph-name="ecircumflex" unicode="&#xea;" 
 />
    <glyph glyph-name="edieresis" unicode="&#xeb;" 
 />
    <glyph glyph-name="igrave" unicode="&#xec;" 
 />
    <glyph glyph-name="iacute" unicode="&#xed;" 
 />
    <glyph glyph-name="icircumflex" unicode="&#xee;" 
 />
    <glyph glyph-name="idieresis" unicode="&#xef;" 
 />
    <glyph glyph-name="eth" unicode="&#xf0;" 
 />
    <glyph glyph-name="ntilde" unicode="&#xf1;" 
 />
    <glyph glyph-name="ograve" unicode="&#xf2;" 
 />
    <glyph glyph-name="oacute" unicode="&#xf3;" 
 />
    <glyph glyph-name="ocircumflex" unicode="&#xf4;" 
 />
    <glyph glyph-name="otilde" unicode="&#xf5;" 
 />
    <glyph glyph-name="odieresis" unicode="&#xf6;" 
 />
    <glyph glyph-name="divide" unicode="&#xf7;" 
 />
    <glyph glyph-name="oslash" unicode="&#xf8;" 
 />
    <glyph glyph-name="ugrave" unicode="&#xf9;" 
 />
    <glyph glyph-name="uacute" unicode="&#xfa;" 
 />
    <glyph glyph-name="ucircumflex" unicode="&#xfb;" 
 />
    <glyph glyph-name="udieresis" unicode="&#xfc;" 
 />
    <glyph glyph-name="yacute" unicode="&#xfd;" 
 />
    <glyph glyph-name="thorn" unicode="&#xfe;" 
 />
    <glyph glyph-name="ydieresis" unicode="&#xff;" 
 />
  </font>
</defs>
</svg>
