<?xml version="1.0" standalone="no"?>
<!DOCTYPE svg PUBLIC "-//W3C//DTD SVG 1.1//EN" "http://www.w3.org/Graphics/SVG/1.1/DTD/svg11.dtd" >
<svg xmlns="http://www.w3.org/2000/svg" xmlns:xlink="http://www.w3.org/1999/xlink" version="1.1">
<metadata>
Created by FontForge 20160407 at Fri Aug 12 07:04:06 2016
 By Jimmy Wärting
</metadata>
<defs>
<font id="PocketMonsters" horiz-adv-x="500" >
  <font-face 
    font-family="Pocket Monsters"
    font-weight="400"
    font-stretch="normal"
    units-per-em="1000"
    panose-1="2 0 0 0 0 0 0 0 0 0"
    ascent="800"
    descent="-200"
    x-height="470"
    cap-height="607"
    bbox="-42.0833 -316 854 803"
    underline-thickness="50"
    underline-position="-100"
    unicode-range="U+0020-20AC"
  />
<missing-glyph horiz-adv-x="251" 
 />
    <glyph glyph-name=".notdef" horiz-adv-x="251" 
 />
    <glyph glyph-name=".null" horiz-adv-x="0" 
 />
    <glyph glyph-name="nonmarkingreturn" horiz-adv-x="251" 
 />
    <glyph glyph-name="space" unicode=" " horiz-adv-x="251" 
 />
    <glyph glyph-name="space" unicode="&#xa0;" horiz-adv-x="251" 
 />
    <glyph glyph-name="E" unicode="E" horiz-adv-x="433" 
d="M485 250q-13 -21 -39.5 -42.5t-53.5 -38.5q-32 -20 -68 -40q-64 -23 -114 -19t-85 18q-40 17 -71 45q-20 19 -31.5 40.5t-16.5 42.5t-5.5 41.5t2.5 38.5q6 43 28 85q25 46 62 69.5t72 34.5q40 12 83 12q49 0 86.5 -19t62.5 -42q29 -26 50 -60l-68 -66zM137 173
q42 -17 89 -16q40 1 90 18.5t102 69.5l-71 71q-15 -17 -34 -29q-17 -11 -39.5 -18t-49.5 -2l155 161q-17 18 -39 32q-19 12 -45 21.5t-59 7.5q-40 -2 -75 -15q-30 -11 -60 -34.5t-47 -67.5q-12 -39 -8 -75q3 -32 22 -65.5t69 -58.5zM154 394q16 15 36 21q17 5 40 2.5
t50 -23.5l-110 -127q-24 15 -35 34q-10 17 -9.5 40.5t28.5 52.5zM181 377q-15 -17 -18.5 -29t-1.5 -20q2 -10 9 -17l61 71q-11 6 -19.5 6t-15.5 -2q-8 -3 -15 -9z" />
    <glyph glyph-name="T" unicode="T" horiz-adv-x="445" 
d="M343 477l-46 -444l-145 2l-4 464l-142 4l-7 179l482 -33l-16 -194zM266 102l37 425l120 -25l9 107l-384 20l4 -87l142 -7l8 -446l64 -4v17z" />
    <glyph glyph-name="C" unicode="C" horiz-adv-x="451" 
d="M517 175q-13 -27 -36.5 -55t-46.5 -51q-27 -27 -58 -52q-57 -38 -108.5 -43t-92.5 5q-48 11 -90 38q-45 31 -62 76.5t-19 87.5q-3 49 9 102q23 59 58.5 91.5t69.5 48.5q40 18 82 23q59 4 101 -12.5t68 -37.5q31 -26 50 -58l-60 -76zM209 21q44 -1 86 12q36 11 76.5 38
t70.5 80l-82 67q-14 -25 -33 -45q-17 -17 -42 -31.5t-58 -15.5q-29 -1 -52 8q-20 8 -37.5 27t-19.5 57q4 29 17 52q11 20 34.5 36.5t65.5 16.5q19 -2 37 -6q16 -5 32.5 -13t28.5 -25l39 70q-25 23 -57 35q-27 11 -65 13.5t-84 -17.5q-34 -20 -60 -48q-23 -24 -42 -60.5
t-20 -86.5q3 -44 21 -79q8 -15 19.5 -29.5t29 -26.5t41 -20t54.5 -9zM312 235q-10 14 -23 25q-11 9 -26.5 15.5t-35.5 3.5q-18 -3 -31 -10q-11 -6 -20.5 -18t-9.5 -33q3 -16 10 -27q6 -11 18 -19t33 -8q19 4 36 13q14 8 28 21.5t21 36.5z" />
    <glyph glyph-name="M" unicode="M" horiz-adv-x="587" 
d="M648 -93l-266 32l-24 118l-31 -70l-64 104l-11 -76l-243 21l65 604l213 11v35l202 10zM426 -16l159 -20l-136 679l-101 -4l-33 -231l-52 191l-140 -7l-61 -513l147 -14l16 215l107 -175l46 141z" />
    <glyph glyph-name="N" unicode="N" horiz-adv-x="524" 
d="M570 641l-115 -708l-177 28l-24 64l-155 -6l-33 501l-39 6l-25 154l282 -24l37 -75l5 82zM514 600l-139 8l-27 -263l-103 272l-183 8l9 -55l31 -1l38 -492l106 -2l7 273l62 -343l104 -8z" />
    <glyph glyph-name="S" unicode="S" horiz-adv-x="504" 
d="M542 161q-1 -27 -10.5 -57.5t-39 -56t-85 -40.5t-149.5 -10q-52 3 -99 27.5t-82 53.5q-42 33 -78 75l207 43q3 -14 11 -25q7 -11 20 -21t34 -16q18 -5 29.5 1.5t14 16t-4 18t-23.5 6.5q-3 1 -13.5 0t-26.5 -2t-36.5 0t-43.5 6q-3 0 -15.5 3.5t-29 10t-34.5 16.5t-33 25
t-23.5 34.5t-6.5 45.5q2 27 13.5 47.5t28 36.5t37.5 27t42 19q50 18 113 23q56 -1 97.5 -14t69.5 -29q33 -18 55 -43l-180 -101q1 12 -2 23q-2 9 -8.5 16.5t-18.5 9.5q-9 1 -16 0q-6 -1 -11.5 -3.5t-6.5 -8.5q-2 -7 0 -12t6 -8.5t15 -2.5q8 -1 23 -2q13 -1 34.5 -1.5
t55.5 -1.5q48 -1 86 -14q16 -6 31.5 -15.5t27.5 -23t19 -32.5t6 -44zM491 152q1 15 -1 27.5t-9.5 23.5t-22 21.5t-37.5 21.5q-12 6 -32.5 8.5t-45 3.5t-50 0.5t-46.5 -0.5q-16 1 -29 7q-11 5 -20.5 15t-11.5 29q0 17 10 30q8 11 27 20t54 8q12 0 23 -3q10 -2 19.5 -6
t15.5 -12l66 39q-14 11 -32 19q-16 7 -40 12.5t-57 5.5q-51 -1 -92 -13q-18 -5 -35 -13t-31 -20t-23.5 -28.5t-11.5 -37.5q-1 -12 5 -25.5t16.5 -25.5t24 -21.5t28.5 -13.5q14 -5 32.5 -6.5t36.5 -1.5h34t25 -1q6 -1 20.5 -2t30.5 -6t28.5 -16.5t12.5 -32.5q0 -13 -8 -25.5
t-22.5 -21.5t-34 -13t-41.5 -1q-27 4 -44 13.5t-27 19.5q-11 11 -18 24l-88 -18q14 -23 34 -41q17 -17 43.5 -32t64.5 -23q54 -11 100.5 -5.5t83.5 25.5q28 15 43 29.5t22 27.5t8.5 22.5t1.5 12.5z" />
    <glyph glyph-name="R" unicode="R" horiz-adv-x="565" 
d="M622 29l-195 -49l-108 185l-9 -136l-143 -27l-52 378l-59 -29l-58 272q60 19 123 34q54 13 119.5 24t128.5 11q58 -1 106 -21q21 -9 41 -22.5t37.5 -34.5t30 -50t18.5 -67q5 -48 -6 -93q-5 -19 -14 -39.5t-24.5 -41t-38 -38.5t-53.5 -33zM456 29l79 29l-137 194
q38 21 71 48q27 23 52 55.5t32 73.5q11 47 0 87q-5 17 -14.5 35t-26.5 34t-43 28.5t-62 20.5q-41 8 -95 5q-46 -2 -110.5 -14t-145.5 -41l39 -166l58 25l50 -395l67 10v156l69 29zM359 487q40 -4 55.5 -24t18.5 -43q4 -27 -6 -60q-14 -37 -38.5 -58t-48.5 -32
q-28 -13 -59 -18l-11 216q11 11 26.5 15t29.5 5q16 1 33 -1zM378 409q2 13 -2 22q-4 8 -14 11.5t-32 -4.5v-107q17 10 28 21q10 10 17 24t3 33z" />
    <glyph glyph-name="X" unicode="X" horiz-adv-x="727" 
d="M767 111l-40 -267l-355 314l-121 -176l-206 239l148 119l-123 142l-53 -27l-16 138l206 95l135 -169l159 157l169 -247l-172 -121zM718 79l-303 231l180 141l-110 144l-154 -166l-153 202l-133 -66l8 -56l33 21l178 -200l-142 -133l113 -129l125 164l337 -295z" />
    <glyph glyph-name="W" unicode="W" horiz-adv-x="746" 
d="M640 1h-147l-45 92l-32 -82l-132 -13l-172 459l-63 -21l-46 197l314 34l66 -195l58 114l57 -86l43 197l256 -30zM604 51l133 573l-152 20l-65 -285l-66 126l-90 -153l-78 280l-226 -23l24 -96l62 14l172 -459l72 9l43 197l83 -199z" />
    <glyph glyph-name="L" unicode="L" horiz-adv-x="312" 
d="M356 207l-10 -207h-335l40 503h-49v146l275 50l-39 -502zM306 157h-117l30 483l-168 -19v-69h49l-40 -502h246v107z" />
    <glyph glyph-name="B" unicode="B" horiz-adv-x="569" 
d="M148 687q77 15 139.5 11t113.5 -39q75 -51 87 -119q0 -1 1 -2q5 -29 -1.5 -56t-14.5 -43q8 -5 19.5 -12t24 -15.5t25.5 -18.5t23 -21q19 -21 34.5 -50t22.5 -66q5 -28 1.5 -62.5t-19.5 -72.5q-15 -38 -43.5 -66t-68 -45.5t-88.5 -24.5t-106 -4q-41 3 -77 9t-63 13
t-43 12.5t-18 5.5l-16 6q-5 96 -9 178q-2 34 -3 69t-2.5 65t-2 53t-0.5 34q-6 -2 -16 -5l-20 -6q-11 -4 -24 -7l-4 225l16 7q0 1 10.5 6t28 12t41.5 15t52 14zM377 613q-44 30 -94 36t-96 0t-83.5 -18.5t-55.5 -20.5q0 -8 1 -23t2.5 -32t3 -35t2.5 -32q6 2 16.5 4.5
t21.5 6.5q12 4 26 9v-444q25 -7 74 -18t107 -14q96 -5 157 22t84 88q47 112 -28 198q-14 17 -29.5 29t-28.5 20q-15 10 -30 16l-31 13l22 27q9 11 14 24q5 11 7.5 26t0.5 32q-6 47 -63 86zM217 289l26 1q17 1 41.5 -1.5t47.5 -12.5t41 -30t23 -53q2 -42 -16 -63.5t-42 -30
t-48.5 -8t-34.5 1.5l-19 3l-16 167zM274 239q2 -23 6 -52t6 -47q11 -2 22 -1.5t20 5t13.5 14t3.5 24.5v3q-1 16 -8.5 26.5t-18 17t-22.5 9t-22 1.5zM214 532q9 1 25 3t32.5 -1.5t31 -16t19.5 -40.5q2 -22 -9.5 -37t-27 -24.5t-31.5 -13.5t-23 -5l-27 -4l-13 135l23 4v0z
M241 502q2 -14 2 -27t2 -28q12 1 26 7t13 22q3 27 -43 26z" />
    <glyph glyph-name="D" unicode="D" horiz-adv-x="483" 
d="M408 646q32 -17 53.5 -43t34 -56.5t18 -64t6.5 -65.5q2 -76 -17 -160q-10 -46 -34 -87t-57 -73t-71.5 -53t-77.5 -28h-5q-39 -7 -75 -9t-64 -2q-33 0 -61 1l-2 384l-52 6l-8 283q98 21 174.5 18t129.5 -14q62 -13 108 -37zM462 287q11 55 10 107q0 22 -3.5 46t-11 47
t-20 45t-30.5 40q-25 27 -73 45q-42 15 -111.5 23.5t-179.5 -3.5l13 -195l47 -6l7 -380q20 -2 41 -3q18 -1 41 0t46 5q52 11 97 39q19 12 38.5 29t36.5 40.5t30.5 53t21.5 67.5zM302 344q22 -19 27 -40t2 -38q-4 -20 -15 -40q-13 -19 -32.5 -33.5t-38.5 -24.5
q-22 -11 -45 -20l-11 214q26 8 46.5 6t35.5 -7q18 -6 31 -17zM285 272q2 14 -2 25q-4 9 -14 16.5t-32 5.5l3 -105q12 3 22 11q8 7 15 18t8 29z" />
    <glyph glyph-name="zero" unicode="0" horiz-adv-x="587" 
d="M302 681q64 3 122.5 -21.5t102.5 -69.5t71.5 -106t30.5 -132q3 -72 -20.5 -138.5t-70.5 -117.5q-42 -45 -95 -70.5t-112 -28.5q-59 -2 -114 18.5t-100 62.5q-51 47 -80 111.5t-32 136.5q-3 70 19 133.5t62 111.5t95.5 77.5t120.5 32.5zM153 116q38 -34 83 -51t93 -15
t92 22.5t78 58.5q40 43 60 100t18 119q-3 60 -25.5 112t-59.5 89.5t-85 58t-102 18.5t-100.5 -27t-80 -65.5t-51.5 -94t-16 -113.5q3 -62 28 -117t68 -95zM313 502q21 1 39.5 -10t32.5 -32t23.5 -50t11.5 -64t-3.5 -65t-17 -52.5t-28.5 -36.5t-38 -15q-27 -1 -53 20
q-23 20 -37 56t-17 81q-3 44 7 81.5t30 60.5q21 24 50 26zM315 236q3 -2 7 -4.5t8 -1.5q12 1 25 27.5t13 70.5v15q-3 50 -20.5 79t-31.5 28q-4 0 -7.5 -3t-6.5 -6q-10 -11 -18 -37.5t-6 -66.5q3 -40 14.5 -65t22.5 -36z" />
    <glyph glyph-name="two" unicode="2" horiz-adv-x="574" 
d="M47 657q1 1 21 5.5t52 10t73.5 9t87.5 2.5q126 -5 206.5 -55.5t110.5 -144.5q13 -38 13 -76q0 -72 -45 -135q-4 -5 -7 -8.5t-7 -7.5q9 1 24 1.5t29 2.5q17 1 35 3l-86 -288l-23 4q-1 0 -25.5 3.5t-64.5 8t-90 9t-102.5 6.5t-101.5 -0.5t-87 -10.5l-28 -7l-31 213l231 138
q6 3 14 9t15 12.5t12 13.5t5 13q0 3 -1 4q-2 2 -17 6.5t-53 2.5q-29 -1 -50 -6t-35 -11q-17 -7 -28 -16l-72 282l25 7v0zM280 631q-61 2 -113 -5t-81 -13q3 -13 9 -36t12.5 -48.5t12.5 -49t9 -37.5q16 4 36.5 7.5t41.5 4.5t41 -0.5t36 -6.5q32 -11 41 -34q5 -10 5 -25
q0 -13 -6.5 -29t-25.5 -34q-13 -13 -25.5 -21t-14.5 -10l-13 -7.5t-33.5 -19.5t-44.5 -26.5t-46 -27.5t-39.5 -23.5t-23.5 -14.5q1 -9 3.5 -24.5t5 -33l5 -35t4.5 -30.5q53 8 118.5 8t128 -4.5t115 -10.5t79.5 -10q3 11 9.5 32.5t14 46t15 49.5t12.5 42q-14 -2 -29.5 -2.5
t-29.5 -2.5q-16 -2 -31 -3l-113 -9q33 17 64 36q26 17 52.5 38t42.5 44q26 38 32.5 77.5t-8.5 84.5q-50 155 -268 163z" />
    <glyph glyph-name="three" unicode="3" horiz-adv-x="501" 
d="M-4 703l503 -32l-23 -147q-12 -13 -23 -26q-10 -11 -20.5 -23.5t-19.5 -23.5q23 -11 51.5 -30.5t50.5 -51.5q33 -51 33 -117q0 -14 -2 -29t-5 -31q-14 -66 -52 -115.5t-98 -76.5q-38 -17 -81.5 -23.5t-88.5 -2.5q-95 11 -179 60l-13 6l-12 183l-3 48l42 -24
q12 -7 34.5 -18t48.5 -19.5t52 -12t45 4.5q10 5 17 12t11 20q3 8 4 14.5t1 13.5q0 15 -9 32q-9 16 -24.5 27.5t-30.5 18.5t-26.5 10.5l-11.5 3.5l-16 4l-12 68q10 12 21 23q9 10 20 21.5t22 22.5q-24 1 -57.5 2.5t-63.5 2.5q-36 1 -73 2l-11 173zM51 647q2 -23 3.5 -49.5
t3.5 -46.5q7 0 21.5 -1t34 -1.5t42 -1.5t45.5 -2q53 -2 116 -4q-30 -33 -56 -60q-22 -23 -42 -44.5t-25 -27.5q1 -4 2 -9q10 -4 25 -10.5t30.5 -16t30 -23t24.5 -31.5q7 -14 11 -28t4 -29q0 -11 -2 -22t-5 -22q-8 -24 -23.5 -40t-36.5 -24q-55 -21 -147 12q-9 4 -18 7.5
t-17 7.5q1 -16 2 -32.5t2 -31.5t2 -27t1 -18q73 -39 150.5 -46t139.5 22q49 21 79.5 60.5t41.5 93.5q6 27 6 50q0 75 -53 120q-14 12 -28.5 19.5t-26 12t-19 6.5l-7.5 2l-44 10q28 32 51 58q20 23 37.5 42t21.5 24q1 8 4.5 31.5t6.5 45.5q-12 1 -41.5 3t-68.5 4.5t-83 5
t-83.5 5t-69.5 4t-42 2.5z" />
    <glyph glyph-name="I" unicode="I" horiz-adv-x="204" 
d="M235 -30l-198 11l-37 372l199 3zM70 21l116 -7l-22 296l-107 -3zM144 607q19 -4 34 -14.5t25 -25t13.5 -32t-0.5 -35.5t-14.5 -32.5t-25.5 -24t-33 -13.5t-36 0t-33 14.5t-25 25t-14 32t-1 35.5q8 38 40 58t70 12zM111 466q21 -5 37.5 8t21.5 36q5 20 -6 39t-29 24
q-20 4 -36.5 -9.5t-21.5 -34.5q-5 -23 5.5 -41.5t28.5 -21.5z" />
    <glyph glyph-name="H" unicode="H" horiz-adv-x="542" 
d="M77 502l-77 -11l54 148l258 34l-6 -262l69 3l6 177l205 15l-44 -601l-164 -8l-9 251l-67 2l-8 -238l-177 -25zM83 591l-17 -50l52 9l42 -509l88 12l5 245l161 -2l10 -250l74 4l37 505l-107 -7l-8 -181l-162 -5l7 263z" />
    <glyph glyph-name="A" unicode="A" horiz-adv-x="448" 
d="M423 562l80 -440l-210 -53q0 9 1 18q0 7 0.5 13.5t0.5 8.5q-16 -9 -38.5 -16t-50 -7.5t-58.5 8.5t-64 34q-42 31 -63 76t-19 100q3 63 34.5 118t82.5 85q28 16 54 22t49 5t43 -7.5t35 -14.5q0 2 0.5 7.5t1.5 10.5q1 6 2 13l98 17zM385 518q-13 -1 -23.5 -2.5t-21.5 -2.5
q-1 -6 -1.5 -11.5t-0.5 -10.5q-1 -5 -1 -10l-6 -50l-29 27q-2 1 -14.5 10t-34 15t-51.5 3.5t-66 -23.5q-41 -25 -66 -67t-28 -93q-3 -92 65 -143q40 -29 75.5 -32.5t62 4t42 19.5t17.5 13l36 34q-1 -18 -2 -33q-1 -13 -1.5 -25.5t-0.5 -17.5q12 3 26.5 7t29.5 7.5t28.5 7
t21.5 6.5q-1 8 -5.5 36t-10.5 66t-12.5 81t-12.5 81.5t-10.5 66.5t-5.5 37zM139 397q-8 -17 -7.5 -29t5.5 -20q5 -9 14 -15q15 -12 28 -11.5t22 6.5q11 7 20 20q12 19 10.5 32.5t-7.5 22.5q-8 11 -21 18q33 -5 50.5 -19.5t23.5 -33t1.5 -37.5t-14.5 -33q-20 -26 -43 -33.5
t-43 -4.5t-35.5 13t-19.5 18q-11 22 -10 41.5t7 33.5q7 17 19 31z" />
    <glyph glyph-name="J" unicode="J" horiz-adv-x="533" 
d="M318 177q40 2 51 36.5t0 95t-41 143t-73 180.5l258 -12l46 -138l-61 3q25 -51 45 -112t27.5 -123t0.5 -119.5t-35.5 -102.5t-80.5 -73t-134 -29q-67 -1 -117 16t-86 45t-58.5 64t-36 71.5t-19 68t-5.5 54.5l248 116q1 -54 9 -94q3 -18 8 -34.5t12.5 -29t17.5 -20t24 -6.5
zM330 582q15 -42 33 -92t32 -100t21.5 -96.5t1.5 -83t-30 -58.5t-71 -23q-20 0 -35.5 6.5t-27 17t-19.5 24.5t-14 29q-13 34 -16 79l-152 -68q11 -70 44 -125q14 -23 33.5 -45.5t46 -39.5t61.5 -27t79 -9q73 1 118 28t67.5 71.5t25 101.5t-9.5 118.5t-34.5 123t-50.5 115.5
l63 -4l-17 49z" />
    <glyph glyph-name="V" unicode="V" horiz-adv-x="661" 
d="M266 692l23 11l99 -284l94 274l239 -40l-225 -633l-174 -20l-187 435l-46 -21l-88 167l265 111v0zM425 336l-24 -70l-141 367l-187 -76l40 -69l46 23l208 -456l91 11l191 552l-131 19l-93 -301v0z" />
    <glyph glyph-name="U" unicode="U" horiz-adv-x="534" 
d="M272 593l173 -46l137 -432l-210 -90q-3 21 -7 40q-3 17 -6 33.5l-5 27.5q-23 -12 -58.5 -21t-83.5 -3q-109 15 -163.5 81t-49.5 175q2 39 11.5 70.5t21 53.5t20.5 34t10 13l8 11l180 -63l29 -9l-16 -24q-7 -13 -12 -27q-5 -12 -7.5 -27t-0.5 -30q3 -20 15 -31
q14 -10 38 -8q13 2 19 16q4 6 8 20t2.5 39.5t-10 64t-28.5 92.5zM302 275q-40 -5 -72 19q-28 23 -31 61q0 3 -1 7.5t-1 6.5q0 21 5 39.5t10 32.5q-12 3 -30 8t-36.5 10.5t-34.5 10.5t-25 7q-9 -15 -21.5 -48t-14.5 -81v-15q0 -82 40.5 -128t127.5 -60q32 -4 57 1t42.5 12.5
t27 15t9.5 9.5l29 24q6 -24 10 -45q4 -18 7.5 -36t5.5 -29q11 4 28 10t34.5 11.5t33 10.5t24.5 8q-3 9 -12 39t-21.5 69.5t-26 83.5t-25.5 82.5t-20.5 65.5t-9.5 32q-10 3 -27 8t-40 10q27 -83 27 -140q0 -23 -4.5 -41t-12.5 -33q-8 -14 -22.5 -24.5t-29.5 -13.5z" />
    <glyph glyph-name="eacute" unicode="&#xe9;" horiz-adv-x="423" 
d="M485 250q-13 -21 -39.5 -43t-53.5 -39q-32 -21 -68 -40q-64 -23 -114 -19t-85 18q-40 17 -71 45q-20 19 -31.5 40.5t-16.5 42.5t-5.5 41.5t2.5 38.5q6 43 28 85q26 46 62.5 69.5t71.5 34.5q40 12 84 12q49 0 86 -18.5t62 -41.5q29 -26 50 -60l-68 -66zM138 172
q42 -17 89 -16q40 1 89.5 18.5t101.5 69.5l-70 71q-15 -16 -34 -28q-17 -11 -39.5 -18.5t-49.5 -3.5l154 163q-16 17 -38 31q-19 11 -45.5 21t-58.5 8q-40 -2 -75 -15q-30 -11 -60.5 -34.5t-47.5 -67.5q-12 -38 -8 -74q3 -31 22.5 -65.5t69.5 -59.5zM154 393q16 15 36 21
q17 5 40.5 2.5t50.5 -23.5l-110 -128q-25 16 -36 35q-10 17 -9 40.5t28 52.5zM182 376q-15 -17 -19 -29t-2 -20q2 -10 10 -16l61 70q-11 7 -19.5 6.5t-15.5 -2.5q-8 -4 -15 -9zM391 621l-228 -122l-60 55l180 209zM182 549l155 86l-54 62l-117 -131z" />
    <glyph glyph-name="F" unicode="F" horiz-adv-x="550" 
d="M599 725l-32 -277l-266 -11l-8 -45l94 6l-27 -171l-91 7l-31 -239l-175 49l13 360l-75 -5l5 259zM545 674l-492 -66l-3 -162l76 5l-13 -368l85 -18l31 211l91 2l10 75l-94 -6l24 129l264 19l21 179v0z" />
    <glyph glyph-name="G" unicode="G" 
d="M292 625q54 2 93.5 -8.5t65 -25t38.5 -27t15 -13.5l11 -14l-120 -199l-12 -22l-22 13q-9 7 -20 12q-10 5 -24 8.5t-31 1.5q-16 -1 -27.5 -9.5t-19.5 -21.5t-12.5 -29.5t-6.5 -33.5t-0.5 -35t7 -33t16 -25t27.5 -10q9 0 15 5t9.5 13.5t5 17.5t2.5 17q2 24 0 43
q-1 11 -3 19l-6 25l244 44l2 -157q-10 -2 -21 -5q-9 -2 -18.5 -4.5t-15.5 -4.5q5 -14 14 -42t20 -56q11 -33 26 -70l-176 -40q-5 12 -9 23l-5.5 16.5t-2.5 8.5q-28 -18 -51 -23.5t-56 -6.5q-44 -2 -79.5 12.5t-62.5 39t-46.5 56.5t-32 66.5t-18.5 68.5t-5 62q0 61 17.5 121
t53.5 108t91 79t130 35zM50 282q0 -51 15.5 -98t42 -83t61.5 -56.5t73 -17.5q17 1 32.5 3.5t31.5 10t33.5 21.5t38.5 40q7 -20 13 -37q5 -14 9.5 -27.5t5.5 -18.5q17 4 35.5 8.5t36.5 8.5q-5 14 -14 41l-18 54q-11 32 -23 67q14 3 27 7q11 3 22.5 5.5t19.5 4.5
q-1 15 -1.5 30.5t-1.5 33.5q-13 -2 -32 -5.5t-38.5 -7.5t-38 -7t-29.5 -5q1 -6 1.5 -12t0.5 -14q0 -6 -0.5 -13t-1.5 -14q-3 -18 -9 -36t-16 -31.5t-24.5 -21.5t-33.5 -8q-29 1 -49 16t-32 37.5t-15.5 50t-0.5 54.5q8 63 37 100t75 39q29 2 47 -4.5t34 -13.5q6 10 19 31
t26.5 44t25.5 43.5t18 29.5q-8 6 -22 14.5t-33.5 15.5t-45.5 11t-58 3q-67 -3 -113 -31t-75 -70t-42.5 -92.5t-13.5 -99.5z" />
    <glyph glyph-name="one" unicode="1" horiz-adv-x="285" 
d="M289 696l43 -663l-317 -10q15 127 27 232q5 45 10 89t9.5 81t7.5 63.5t4 35.5q-9 0 -21.5 -0.5t-23.5 -0.5h-27l26 158l237 14zM242 644q-13 -1 -37.5 -2.5t-51 -3t-49.5 -2.5t-34 -2q-2 -13 -4.5 -28t-5.5 -32h43q12 0 26 1q-15 -126 -27 -231q-5 -45 -10 -89t-9.5 -81
t-7.5 -64l-4 -36q15 1 44.5 2t61 2t60 2t42.5 1q-1 11 -3.5 54t-6.5 102t-8.5 126t-8.5 126t-6.5 101.5t-3.5 53.5z" />
    <glyph glyph-name="four" unicode="4" horiz-adv-x="590" 
d="M318 687l238 -48l-17 -270l97 4l-4 -222h-97l1 -162l-301 23l26 145l-243 -5l-16 194zM335 636l-282 -310l10 -124l256 6l-26 -149l193 -18l-1 159h98l2 122l-99 -5l17 277l-168 42v0zM342 532l-3 -204l-205 5zM235 369l66 2v56z" />
    <glyph glyph-name="five" unicode="5" horiz-adv-x="584" 
d="M578 694l-29 -196q-57 1 -107 2q-43 1 -85.5 1t-64.5 -1q4 -7 8.5 -20t7.5 -19q17 5 45.5 10.5t76.5 4.5q36 -1 71.5 -13.5t63 -38.5t45 -66t17.5 -96q0 -122 -79 -196q-42 -39 -99.5 -60t-129.5 -23q-41 -1 -75 4.5t-62 15t-50.5 21t-38.5 22.5q-38 25 -60.5 53
t-28.5 48l-3 13l135 175l25 33l18 -37q1 -2 10 -17t27.5 -32t46.5 -31t66 -13q42 0 59 19q11 12 13 25t2 20q0 5 -1.5 12.5t-8.5 14t-22 11.5t-42 5q-11 0 -23.5 -4.5t-24.5 -10.5t-22 -12.5t-15 -10.5l-23 -17l-218 367l542 34zM518 636q-13 -1 -46 -2.5t-75.5 -3.5t-90 -4
t-91 -3.5t-78 -3.5t-49.5 -4q7 -12 19.5 -33.5t28 -47.5t31.5 -53.5t30.5 -52t25.5 -44t16 -27.5q17 10 42 21t51 11q39 0 62.5 -8.5t36.5 -21t17.5 -27t5.5 -27.5v-15.5t-3 -21t-9 -23.5t-17 -23q-31 -34 -95 -36q-34 0 -62 8.5t-49.5 22t-38 29t-26.5 29.5
q-10 -14 -24.5 -32.5t-28.5 -36.5t-25.5 -33t-16.5 -21q8 -13 26.5 -33.5t50 -39.5t77 -32.5t105.5 -11.5q121 3 189 63t68 164q0 50 -15.5 83t-38.5 52.5t-49 28t-47 8.5q-33 1 -56.5 -1.5t-38.5 -5.5t-22 -6l-7 -3q0 -1 -3.5 -3t-8.5 -4q-5 -3 -12 -7l-65 135q72 2 133 4
q26 1 51.5 1.5t47 1.5t38 1.5t23.5 0.5q2 17 5.5 41t7.5 47z" />
    <glyph glyph-name="six" unicode="6" horiz-adv-x="545" 
d="M331 665l250 -153q-48 -11 -89 -24.5t-76 -34.5q30 -3 64 -17t63 -39t48.5 -61t19.5 -83v-3q0 -69 -19.5 -116.5t-49 -78.5t-65.5 -48.5t-70 -26.5t-61.5 -11.5t-40.5 -4.5h-29.5t-58 5.5t-71.5 20t-69 42.5q-78 67 -76 200q1 62 24 117.5t57 102.5t74 84.5t75.5 64
t60 41.5t27.5 17zM110 70q21 -18 47.5 -29t53.5 -17t50.5 -7.5t38.5 -1.5q44 1 90 12.5t84 38.5t62 72t24 114q0 45 -19.5 75t-44.5 48.5t-50 26.5t-37 9q-15 1 -28 1t-27.5 -1.5t-30.5 -6t-36 -13.5q18 25 36.5 44t40.5 35t49.5 28.5t62.5 23.5q-20 11 -43 25t-43.5 26.5
t-36.5 22.5t-22 13q-13 -9 -39 -26.5t-57 -43.5t-63 -59t-59 -72t-44 -83.5t-18 -93.5v-4q0 -106 59 -157zM239 286q17 17 38 26t42 9q46 0 73 -29q26 -28 26 -69q0 -37 -29 -63t-77 -31q-26 -3 -47.5 3.5t-37.5 20.5q-25 22 -25 58q0 19 9.5 38.5t27.5 36.5zM261 189
q16 -14 45 -11q23 2 42.5 14t19.5 31q0 20 -12 34q-11 14 -37 14q-12 0 -24 -6t-21.5 -15t-15.5 -19.5t-6 -19.5q0 -13 9 -22z" />
    <glyph glyph-name="seven" unicode="7" horiz-adv-x="529" 
d="M-1 665l610 -4l-344 -756l-264 145l231 364l-213 -11zM59 613l16 -158l255 11l-250 -391l156 -94l291 627l-468 5v0z" />
    <glyph glyph-name="eight" unicode="8" horiz-adv-x="547" 
d="M193 478q0 32 24.5 54.5t59.5 22.5q17 0 32.5 -6t27 -16.5t18 -24.5t6.5 -30q0 -32 -24.5 -54t-59.5 -22t-59.5 22t-24.5 54zM242 480q0 -11 11.5 -22t26.5 -11q14 0 24 9.5t10 20.5q0 13 -11 24t-25 11q-15 0 -25.5 -9.5t-10.5 -22.5zM177 205q0 21 10 40.5t27 33.5
t39.5 22.5t47.5 8.5t46.5 -8t38 -22.5t26 -33.5t9.5 -40t-9.5 -40.5t-26 -34t-38.5 -23t-46 -8.5q-25 0 -47.5 8.5t-39.5 22.5t-27 33.5t-10 40.5zM229 205q0 -10 6 -19.5t16 -17t23 -12t27 -4.5q27 0 48 16.5t21 37.5t-20.5 36.5t-48.5 15.5q-14 0 -27 -4.5t-23 -12
t-16 -17t-6 -19.5zM83 493q0 36 15.5 68t42 55.5t62.5 37t77 13.5q42 0 78 -16t62.5 -41t41.5 -56t15 -61v-1q-2 -51 -32 -92q57 -30 96 -83t44 -128q4 -60 -24 -107.5t-74 -81t-101.5 -51t-107.5 -17.5q-60 0 -118 14t-103 45t-72.5 80.5t-26.5 119.5q-1 33 10 66.5t31 62
t47.5 50t59.5 32.5q-23 36 -23 91zM10 189q2 -57 26.5 -96t63 -63t85 -34.5t93.5 -11.5q38 -1 85 13t87 41t65 65t19 86q-5 39 -19 69t-35.5 54t-50.5 43.5t-63 36.5l24 23q33 32 35 78q0 21 -11.5 42.5t-31 39.5t-46 29t-56.5 11t-56.5 -9.5t-46.5 -26t-31.5 -39
t-11.5 -47.5q0 -51 27 -79l27 -32q-32 -8 -64 -25.5t-57.5 -42.5t-41.5 -57t-15 -68zM-42 191v1v-1z" />
    <glyph glyph-name="nine" unicode="9" 
d="M269 667q12 2 36.5 3.5t55.5 -2.5t65.5 -15.5t66.5 -35.5q44 -36 70 -89t32 -125q8 -111 -41 -205.5t-152 -167.5q-39 -27 -76.5 -45.5t-66.5 -30.5t-48 -17.5t-20 -5.5l-19 -5l-173 260q65 -2 117 0.5t106 19.5q-47 1 -80.5 15.5t-56 35.5t-36 46.5t-20.5 48.5t-8.5 42
t-0.5 27q1 59 29.5 103.5t67.5 75t81 47t71 20.5zM275 618q-20 -3 -53.5 -16t-66.5 -37.5t-58 -60.5t-26 -84q-5 -34 10 -66.5t41.5 -58t61.5 -41t72 -14.5q32 1 61 3t56 19q-20 -31 -44 -52.5t-56.5 -36t-76 -23.5t-102.5 -15q12 -17 27 -39.5t29.5 -44t26.5 -40t18 -26.5
q12 4 31 11.5t42.5 18t50 25t52.5 33.5q87 60 129 134t42 163q0 8 -0.5 15.5t-0.5 16.5q-4 59 -24.5 103t-55.5 73q-26 19 -54.5 28.5t-54.5 12.5t-46.5 1.5t-30.5 -2.5zM226 493q17 17 38 26t42 9q46 0 73 -29q26 -28 26 -69q0 -37 -29 -63t-77 -31q-26 -3 -47.5 3.5
t-37.5 20.5q-25 22 -25 58q0 19 9.5 38.5t27.5 36.5zM248 396q16 -14 45 -11q23 2 42.5 14t19.5 31q0 20 -12 34q-11 14 -37 14q-12 0 -24 -6t-21.5 -15t-15.5 -19.5t-6 -19.5q0 -13 9 -22z" />
    <glyph glyph-name="Y" unicode="Y" horiz-adv-x="649" 
d="M304 710l98 -215l178 143l130 -209l-233 -144l31 -334l-251 50l29 291l-157 172l-47 -29l-82 153zM267 643l-203 -79l35 -62l41 26l200 -219l-27 -266l145 -33l-30 298l218 135l-76 115l-190 -153l-113 238v0z" />
    <glyph glyph-name="Z" unicode="Z" horiz-adv-x="622" 
d="M109 620l513 -57l-255 -354l244 14l65 -289l-681 30l40 207l223 245l-221 -14zM148 557l-39 -102l264 4l-291 -310l-21 -133l554 -29l-54 176l-292 -8l267 370l-388 32v0z" />
    <glyph glyph-name="Q" unicode="Q" horiz-adv-x="599" 
d="M113 532q15 18 41 32t59.5 19t72.5 -1t79 -27.5t79.5 -61t74.5 -100.5q30 -54 41.5 -102.5t11.5 -90.5q0 -55 -13 -95t-25 -63l46 -23t67 -33q40 -19 87 -42l-220 -155q-30 33 -56 59q-22 23 -42.5 43.5t-25.5 27.5q-23 -5 -56 -7t-70.5 3.5t-76 20t-73.5 41.5
q-114 90 -111 267q1 58 11.5 105t27 82.5t35.5 60.5t36 40zM477 369q-19 33 -46.5 64t-61.5 54.5t-71.5 35.5t-75.5 8q-3 -1 -16.5 -4.5t-32 -14t-40 -30t-39.5 -51.5t-30 -78.5t-13 -110.5v-7q0 -150 92 -220q30 -23 64.5 -35.5t68.5 -17t64 -2.5t51 8l14 3q26 -27 49 -51
q20 -20 39 -40t27 -28q8 6 22.5 16t31.5 22t34.5 24.5l31.5 22.5q-18 8 -43.5 20.5t-49.5 24.5q-28 13 -58 28l-25 13l16 23q1 1 8 12.5t15 31.5t14.5 47.5t6.5 62.5q0 36 -10.5 78.5t-36.5 90.5zM223 389q54 5 92 -29.5t47 -97.5q8 -57 -10 -98.5t-57 -56.5
q-23 -8 -48 -5.5t-47 14.5q-18 11 -38.5 35t-29.5 72q-8 42 -0.5 72t22.5 49.5t33.5 30t33.5 13.5h1l1 1v0zM315 255q-2 17 -8.5 33t-17 28.5t-25.5 19.5t-35 5q-4 -1 -12.5 -4.5t-17.5 -12.5t-16 -24t-7 -38q0 -12 3 -30q9 -54 45 -74q14 -9 29 -9.5t25 3.5q23 8 32.5 36.5
t4.5 66.5z" />
    <glyph glyph-name="parenright" unicode=")" horiz-adv-x="353" 
d="M109 750l15 -10q2 -2 20 -18t44.5 -44.5t57.5 -69.5t59.5 -92.5t50.5 -114t31 -133.5q33 -282 -192 -564l-17 -20l-162 191l-17 19l21 13l13 9.5t32 27t42.5 43.5t44.5 59.5t37.5 74t22.5 88.5q14 105 -36.5 213t-155.5 223l-14 18l90 76zM106 690q-9 -7 -15 -13.5
t-15 -14.5q91 -103 137.5 -205.5t46.5 -199.5q0 -28 -3 -55q-9 -64 -33 -116t-53.5 -92t-58.5 -67.5t-48 -41.5q8 -9 24 -25t34 -33t34 -33.5t25 -26.5q85 112 125.5 215t40.5 213q0 35 -3 67q-11 85 -42.5 156.5t-69 126t-73 91.5t-53.5 54z" />
    <glyph glyph-name="parenleft" unicode="(" horiz-adv-x="348" 
d="M299 -263l-15 10q-2 2 -20 18t-44.5 44.5t-57.5 69.5t-59.5 92.5t-50.5 113.5t-31 134q-33 282 192 564l17 20l162 -191l17 -19l-21 -13l-13 -9.5t-32 -27t-42.5 -43.5t-44.5 -59.5t-37.5 -74t-22.5 -88.5q-14 -105 36.5 -213t155.5 -223l14 -18l-90 -76zM302 -203
q9 7 15 13.5t15 14.5q-91 103 -137.5 205.5t-46.5 199.5q0 28 3 55q9 64 33 116t53.5 92t58.5 67.5t48 41.5q-8 9 -24 25t-34 33t-34 33t-25 27q-85 -112 -125.5 -215t-40.5 -213q0 -36 3 -67q7 -57 24 -107.5t39.5 -94.5t48 -80.5t49.5 -65.5t44.5 -49t32.5 -31z" />
    <glyph glyph-name="hyphen" unicode="-" horiz-adv-x="321" 
d="M340 398l22 -206l-361 61l29 122zM70 337l-18 -52l262 -43l-9 54q-4 20 -7 37.5t-4 17.5z" />
    <glyph glyph-name="period" unicode="." horiz-adv-x="156" 
d="M0 80q0 18 7.5 33.5t20.5 27.5t30 19t37 7q19 0 36.5 -7t31 -19t21 -27.5t7.5 -33.5q0 -17 -7.5 -32.5t-21 -27t-31 -18.5t-36.5 -7q-20 0 -37 7t-30 18.5t-20.5 27t-7.5 32.5zM43 83q0 -20 15 -34t37 -14q21 0 36 14t15 34t-15 33.5t-36 13.5q-22 0 -37 -13.5t-15 -33.5
z" />
    <glyph glyph-name="slash" unicode="/" horiz-adv-x="394" 
d="M445 694l-273 -766l-173 126l354 672zM367 674l-304 -604l89 -63l235 662z" />
    <glyph glyph-name="backslash" unicode="\" horiz-adv-x="400" 
d="M348 -66l-349 734l212 34l225 -726zM389 3l-212 642l-108 -18l302 -635z" />
    <glyph glyph-name="colon" unicode=":" horiz-adv-x="156" 
d="M0 80q0 18 7.5 33.5t20.5 27.5t30 19t37 7q19 0 36.5 -7t31 -19t21 -27.5t7.5 -33.5q0 -17 -7.5 -32.5t-21 -27t-31 -18.5t-36.5 -7q-20 0 -37 7t-30 18.5t-20.5 27t-7.5 32.5zM43 83q0 -20 15 -34t37 -14q21 0 36 14t15 34t-15 33.5t-36 13.5q-22 0 -37 -13.5t-15 -33.5
zM190 395q0 -18 -7.5 -33.5t-20.5 -27.5t-30.5 -19t-36.5 -7q-20 0 -37 7t-30.5 19t-21 27.5t-7.5 33.5q0 17 7.5 32.5t21 27t30.5 18.5t37 7q19 0 36.5 -7t30.5 -18.5t20.5 -27t7.5 -32.5zM147 392q0 20 -15 34t-37 14q-21 0 -36 -14t-15 -34t15 -33.5t36 -13.5
q22 0 37 13.5t15 33.5z" />
    <glyph glyph-name="comma" unicode="," horiz-adv-x="172" 
d="M207 71q0 -16 -3.5 -48t-21.5 -64.5t-55 -58.5t-102 -30q0 -2 -5 5.5t-10 16.5q-6 11 -14 25q20 11 36 23q14 11 26 25.5t16 31.5q-44 8 -58.5 33.5t-14.5 54.5q0 16 8 31t21.5 25.5t31.5 17t39 6.5t40 -8t33.5 -21.5t23.5 -30.5t9 -34zM164 75q-4 19 -21 36t-40 17
t-38.5 -15t-15.5 -37q0 -20 17.5 -35t40.5 -16q6 -23 -2.5 -43.5t-22.5 -36.5q-16 -18 -37 -35l4 -6q66 20 93.5 66t21.5 105z" />
    <glyph glyph-name="semicolon" unicode=";" horiz-adv-x="172" 
d="M207 71q0 -16 -3.5 -48t-21.5 -64.5t-55 -58.5t-102 -30q0 -2 -5 5.5t-10 16.5q-6 11 -14 25q20 11 36 23q14 11 26 25.5t16 31.5q-44 8 -58.5 33.5t-14.5 54.5q0 16 8 31t21.5 25.5t31.5 17t39 6.5t40 -8t33.5 -21.5t23.5 -30.5t9 -34zM164 75q-4 19 -21 36t-40 17
t-38.5 -15t-15.5 -37q0 -20 17.5 -35t40.5 -16q6 -23 -2.5 -43.5t-22.5 -36.5q-16 -18 -37 -35l4 -6q66 20 93.5 66t21.5 105zM190 395q0 -18 -7.5 -33.5t-20.5 -27.5t-30.5 -19t-36.5 -7q-20 0 -37 7t-30.5 19t-21 27.5t-7.5 33.5q0 17 7.5 32.5t21 27t30.5 18.5t37 7
q19 0 36.5 -7t30.5 -18.5t20.5 -27t7.5 -32.5zM147 392q0 20 -15 34t-37 14q-21 0 -36 -14t-15 -34t15 -33.5t36 -13.5q22 0 37 13.5t15 33.5z" />
    <glyph glyph-name="exclam" unicode="!" 
d="M400 751l-115 -554l-170 25l39 470zM201 658l-36 -387l79 -11l93 425zM42 79q0 19 10 35.5t28 29t41.5 19.5t50.5 7t49.5 -8.5t38.5 -22.5t25 -32t9 -37t-10 -35.5t-28 -28.5t-41.5 -19t-50.5 -7t-49.5 8.5t-38.5 22.5t-25 31.5t-9 36.5zM93 79q-1 -28 24.5 -41.5
t60.5 -11.5q26 1 45.5 15t19.5 34t-22 37t-55 17q-26 0 -49 -15t-24 -35z" />
    <glyph glyph-name="quotedbl" unicode="&#x22;" horiz-adv-x="289" 
d="M195 669l-107 -228l-88 25l52 274zM81 679l-40 -184l31 -9l68 159zM334 676l-74 -240l-91 12l14 278zM219 670l-13 -188l32 -5l45 167z" />
    <glyph glyph-name="quotesingle" unicode="'" horiz-adv-x="147" 
d="M195 669l-107 -228l-88 25l52 274zM81 679l-40 -184l31 -9l68 159z" />
    <glyph glyph-name="less" unicode="&#x3c;" horiz-adv-x="479" 
d="M513 470l-231 -153l267 -145l-124 -183l-425 328l450 261zM430 529q-95 -60 -169 -107q-32 -20 -62 -39t-53.5 -34t-38 -23.5l-14.5 -8.5l13.5 -10.5l36 -28t51.5 -40.5t59 -47q70 -56 161 -128l56 89l-273 158l257 172l-24 47v0z" />
    <glyph glyph-name="greater" unicode="&#x3e;" 
d="M35 96l231 153l-267 145l124 183l425 -328l-450 -261zM118 37q94 60 168 107q31 20 61.5 39t54.5 34t38.5 23.5l14.5 8.5l-14 10.5t-36.5 28t-51.5 40.5t-59 47l-160 128l-56 -89l273 -158l-257 -172l24 -47v0z" />
    <glyph glyph-name="bracketleft" unicode="[" horiz-adv-x="360" 
d="M408 570l-194 7q-6 -180 -10 -321q-2 -60 -3.5 -117.5t-3 -102.5t-2 -72l-0.5 -27l9.5 1t25.5 2.5t36 3.5t41 4q49 4 112 9l-101 -174h-319l68 961l300 2zM336 699l-224 -2l-58 -862l243 -9l52 81l-200 -14l17 739l188 -15z" />
    <glyph glyph-name="bracketright" unicode="]" horiz-adv-x="371" 
d="M10 -42l194 -7q5 180 9 321q2 60 3.5 117.5t3 102.5t2.5 72l1 27l-9.5 -1.5t-25.5 -3t-36 -3t-41 -3.5q-49 -4 -112 -9l101 174h319l-68 -961l-300 -2zM82 -171l224 2l58 862l-243 9l-52 -81l200 14l-17 -739l-188 15z" />
    <glyph glyph-name="asciicircum" unicode="^" horiz-adv-x="543" 
d="M481 190l-153 231l-145 -267l-183 124l328 425l261 -450zM540 273q-60 94 -107 168q-20 31 -39 61.5t-34 54.5t-23.5 38.5l-8.5 14.5l-10.5 -14t-28 -36.5t-40.5 -51.5t-47 -59l-128 -160l89 -56l158 273l172 -257l47 24v0z" />
    <glyph glyph-name="plus" unicode="+" horiz-adv-x="590" 
d="M185 448l-6 212l262 -56l-20 -167l221 9l-72 -215l-172 11l-38 -172l-168 11l-4 154l-145 -13l-23 237zM235 584l-2 -188l-165 9l18 -122l147 11l2 -176l93 -3l37 182l173 -19l43 116l-211 -1l17 159z" />
    <glyph glyph-name="asterisk" unicode="*" horiz-adv-x="371" 
d="M56 648q27 26 62 40.5t73 14.5t72.5 -14.5t60.5 -40.5q27 -26 41.5 -60t14.5 -72q0 -39 -15 -73.5t-40.5 -60t-60 -40t-73.5 -14.5t-74 14.5t-60.5 40t-40.5 60t-15 73.5q0 38 14.5 72t40.5 60zM16 516q0 -36 13.5 -67.5t37.5 -55t56 -37t68 -13.5t67.5 13.5t55.5 37
t37.5 55t13.5 67.5q0 35 -13 66t-38 55q-25 25 -56.5 38t-66.5 13q-73 0 -124 -51q-25 -24 -38 -55t-13 -66zM113 515q0 31 21.5 53t53.5 22t54 -22t22 -53t-22 -53t-54 -22t-53.5 22t-21.5 53zM128 515q0 -25 17.5 -42.5t42.5 -17.5q26 0 43.5 17.5t17.5 42.5t-17.5 42.5
t-43.5 17.5q-25 0 -42.5 -17.5t-17.5 -42.5zM244 556l8 -13l98 56l-8 14zM29 432l7 -13l98 56l-7 13zM146 513q0 18 12.5 30.5t29.5 12.5t29.5 -12.5t12.5 -30.5q0 -17 -12.5 -29.5t-29.5 -12.5t-29.5 12.5t-12.5 29.5zM161 513q0 -11 8 -18.5t19 -7.5t19.5 7.5t8.5 18.5
q0 12 -8.5 19.5t-19.5 7.5t-19 -7.5t-8 -19.5z" />
    <glyph glyph-name="equal" unicode="=" 
d="M455 507l70 -175l-459 -6l-24 117zM518 228l-27 -124l-455 2l23 175zM102 366l355 16l-34 77l-323 -54zM97 231l-13 -88h378l-1 42z" />
    <glyph glyph-name="underscore" unicode="_" horiz-adv-x="548" 
d="M571 -1l23 -170l-592 5l15 139zM69 -74l-10 -52l478 2l-11 73z" />
    <glyph glyph-name="P" unicode="P" 
d="M521 382q-19 -33 -49 -63q-26 -26 -65.5 -53t-96.5 -43l-30 -223l-181 2l-11 461h-49l-38 213q60 16 125 21q28 2 59.5 1.5t65.5 -4.5t69.5 -13t70.5 -25q57 -30 95 -70q16 -17 29 -38.5t19.5 -47t4 -55t-17.5 -63.5zM266 265q69 13 110.5 35.5t64.5 44.5q26 26 38 54
q10 27 11 50.5t-5.5 44.5t-18 38.5t-24.5 31.5q-32 33 -80 57q-54 23 -109 30t-100 6q-53 -2 -103 -11l30 -137l46 7l18 -476l101 -5zM363 496q23 -16 32.5 -33t11.5 -31q3 -17 -1 -33q-12 -28 -34 -44.5t-43 -25.5q-26 -11 -53 -14l21 188q11 4 22 3.5t21 -2.5q11 -3 23 -8
zM318 366q14 6 25 15q9 8 16 18t5 24q0 11 -4 20q-3 8 -11 13.5t-23 4.5l-8 -95v0z" />
    <glyph glyph-name="O" unicode="O" horiz-adv-x="403" 
d="M438 274q-3 -48 -22 -90q-8 -18 -21 -37t-32 -36t-44.5 -31.5t-58.5 -24.5q-61 -16 -113 -6q-22 4 -44.5 14t-42 28t-35 46t-23.5 69q-7 72 16 129q10 24 27 48t44 42.5t66 30.5t93 14q52 -2 93 -22q18 -9 34.5 -23t30 -35t22.5 -49.5t10 -66.5zM172 92q43 -3 75.5 4
t56.5 20t40 30.5t26 35.5q24 43 25 99q-1 29 -8 51t-17.5 38.5t-23.5 28t-26 18.5q-32 17 -72 19q-36 -2 -64 -11t-49 -22.5t-35.5 -30.5t-24.5 -35q-24 -41 -29 -93q0 -53 20 -83.5t43 -45.5q27 -18 63 -23zM252 392q-18 -4 -27 -11.5t-13 -15.5q-4 -10 -4 -20
q-1 -20 7 -30t19 -14q11 -5 27 -4q22 2 32 10.5t14 19.5q4 12 2 28q16 -29 14.5 -51.5t-13 -38t-29.5 -24t-35 -8.5q-40 -2 -60.5 12t-28 33t-6 37.5t5.5 27.5q11 21 27.5 31.5t31.5 14.5q18 4 36 3z" />
    <glyph glyph-name="K" unicode="K" horiz-adv-x="569" 
d="M341 341l270 -173l-44 -258l-340 253l-34 -158h-181l36 495l-48 -3l23 136l268 44l-12 -98l69 94l167 -219zM559 148l-297 186l187 133l-96 122l-141 -128l15 156l-163 -25l-7 -41l42 5l-37 -501h100l31 190l341 -246z" />
    <glyph glyph-name="question" unicode="?" 
d="M272 694q60 4 115.5 -12.5t93.5 -51.5q62 -60 62 -148v-5q0 -77 -27.5 -129t-66 -84t-80.5 -48.5t-71 -22.5q4 -6 10.5 -15.5t13.5 -18.5l16 -22l-211 -84l-6 279q2 -2 13.5 -5t29 -6t39.5 -4t45 3l20 4t31 12t27.5 26t9.5 45q-1 8 -5.5 19.5t-13.5 18.5q-17 13 -42 9
t-45 -15.5t-35 -26t-25 -30.5t-16 -29l-155 169l5 14q17 39 47.5 67.5t67.5 47.5t77 29.5t76 13.5zM276 644q-29 -2 -61 -9t-61.5 -20.5t-55 -34.5t-40.5 -49q5 -7 16.5 -19.5t25.5 -27.5t28 -29.5t24 -25.5q14 20 42 43t72 31q30 4 50 -3.5t31 -16.5q16 -13 26.5 -31.5
t11.5 -41.5q2 -37 -11 -63t-34 -42.5t-45 -24.5t-43 -10t-42 -0.5t-44 3.5q1 -15 2 -34.5t1.5 -40.5t1.5 -41t2 -35q25 8 52 19t50 19q-5 7 -9.5 13.5t-8.5 11.5l-8 12l-28 37l45 2q3 0 20.5 2t43 10t54.5 23.5t53.5 42.5t40.5 66.5t16 96.5v4q-1 68 -47 112
q-30 28 -75 41.5t-96 9.5zM179 -52q-9 15 -8 32t10 34.5t26 33.5t40 28t46.5 15t44.5 -1t37.5 -14t25.5 -24q9 -15 8.5 -32t-10 -34t-26.5 -33t-40 -28t-46.5 -15t-44.5 0.5t-37.5 13.5t-25.5 24zM223 -28q13 -23 41.5 -22.5t58.5 17.5q22 12 31.5 31.5t0.5 34.5
q-10 16 -37 19.5t-56 -10.5q-23 -11 -35 -33t-4 -37z" />
    <glyph glyph-name="numbersign" unicode="#" horiz-adv-x="581" 
d="M125 569l26 139l122 -45l-9 -99l74 -2l14 148l102 -54l16 -100l143 -5l-6 -113l-122 -3l6 -54l135 10l-56 -151h-65l10 -82l-187 -13l4 91l-97 1l-11 -115l-187 63l13 59l-50 1l9 102l63 6l17 73l-73 1l-9 147zM380 645l-3 -124l-152 6q2 22 3 40.5t3 32.5q2 16 3 29
l-58 20l-25 -119l-107 5l9 -68l85 1l-31 -146l-60 -4l-9 -43h59l-13 -64l107 -32q1 12 3 27q2 13 3 30.5t3 38.5l171 -1l-2 -84l101 3l-9 81h77q9 21 16 39q3 7 5.5 14.5t4.5 12.5q3 6 5 12l-115 -8l-13 127l129 1l6 41l-140 5l-11 108zM205 328q4 35 7.5 70.5t6.5 70.5
l156 1l-3 -131l-167 -11v0zM246 364l91 6l3 63l-88 -2z" />
    <glyph glyph-name="a" unicode="a" horiz-adv-x="446" 
d="M423 562l80 -440l-210 -53q0 9 1 18q0 7 0.5 13.5t0.5 8.5q-16 -9 -38.5 -16t-50 -7.5t-58.5 8.5t-64 34q-42 31 -63 76t-19 100q3 63 34.5 118t82.5 85q28 16 54 22t49 5t43 -7.5t35 -14.5q0 2 0.5 7.5t1.5 10.5q1 6 2 13l98 17zM385 518q-13 -1 -23.5 -2.5t-21.5 -2.5
q-1 -6 -1.5 -11.5t-0.5 -10.5q-1 -5 -1 -10l-6 -50l-29 27q-2 1 -14.5 10t-34 15t-51.5 3.5t-66 -23.5q-41 -25 -66 -67t-28 -93q-3 -92 65 -143q40 -29 75.5 -32.5t62 4t42 19.5t17.5 13l36 34q-1 -18 -2 -33q-1 -13 -1.5 -25.5t-0.5 -17.5q12 3 26.5 7t29.5 7.5t28.5 7
t21.5 6.5q-1 8 -5.5 36t-10.5 66t-12.5 81t-12.5 81.5t-10.5 66.5t-5.5 37zM139 397q-8 -17 -7.5 -29t5.5 -20q5 -9 14 -15q15 -12 28 -11.5t22 6.5q11 7 20 20q12 19 10.5 32.5t-7.5 22.5q-8 11 -21 18q33 -5 50.5 -19.5t23.5 -33t1.5 -37.5t-14.5 -33q-20 -26 -43 -33.5
t-43 -4.5t-35.5 13t-19.5 18q-11 22 -10 41.5t7 33.5q7 17 19 31z" />
    <glyph glyph-name="b" unicode="b" horiz-adv-x="568" 
d="M148 687q77 15 139.5 11t113.5 -39q75 -51 87 -119q0 -1 1 -2q5 -29 -1.5 -56t-14.5 -43q8 -5 19.5 -12t24 -15.5t25.5 -18.5t23 -21q19 -21 34.5 -50t22.5 -66q5 -28 1.5 -62.5t-19.5 -72.5q-15 -38 -43.5 -66t-68 -45.5t-88.5 -24.5t-106 -4q-41 3 -77 9t-63 13
t-43 12.5t-18 5.5l-16 6q-5 96 -9 178q-2 34 -3 69t-2.5 65t-2 53t-0.5 34q-6 -2 -16 -5l-20 -6q-11 -4 -24 -7l-4 225l16 7q0 1 10.5 6t28 12t41.5 15t52 14zM377 613q-44 30 -94 36t-96 0t-83.5 -18.5t-55.5 -20.5q0 -8 1 -23t2.5 -32t3 -35t2.5 -32q6 2 16.5 4.5
t21.5 6.5q12 4 26 9v-444q25 -7 74 -18t107 -14q96 -5 157 22t84 88q47 112 -28 198q-14 17 -29.5 29t-28.5 20q-15 10 -30 16l-31 13l22 27q9 11 14 24q5 11 7.5 26t0.5 32q-6 47 -63 86zM217 289l26 1q17 1 41.5 -1.5t47.5 -12.5t41 -30t23 -53q2 -42 -16 -63.5t-42 -30
t-48.5 -8t-34.5 1.5l-19 3l-16 167zM274 239q2 -23 6 -52t6 -47q11 -2 22 -1.5t20 5t13.5 14t3.5 24.5v3q-1 16 -8.5 26.5t-18 17t-22.5 9t-22 1.5zM214 532q9 1 25 3t32.5 -1.5t31 -16t19.5 -40.5q2 -22 -9.5 -37t-27 -24.5t-31.5 -13.5t-23 -5l-27 -4l-13 135l23 4v0z
M241 502q2 -14 2 -27t2 -28q12 1 26 7t13 22q3 27 -43 26z" />
    <glyph glyph-name="c" unicode="c" horiz-adv-x="450" 
d="M517 175q-13 -27 -36.5 -55t-46.5 -51q-27 -27 -58 -52q-57 -38 -108.5 -43t-92.5 5q-48 11 -90 38q-45 31 -62 76.5t-19 87.5q-3 49 9 102q23 59 58.5 91.5t69.5 48.5q40 18 82 23q59 4 101 -12.5t68 -37.5q31 -26 50 -58l-60 -76zM209 21q44 -1 86 12q36 11 76.5 38
t70.5 80l-82 67q-14 -25 -33 -45q-17 -17 -42 -31.5t-58 -15.5q-29 -1 -52 8q-20 8 -37.5 27t-19.5 57q4 29 17 52q11 20 34.5 36.5t65.5 16.5q19 -2 37 -6q16 -5 32.5 -13t28.5 -25l39 70q-25 23 -57 35q-27 11 -65 13.5t-84 -17.5q-34 -20 -60 -48q-23 -24 -42 -60.5
t-20 -86.5q3 -44 21 -79q8 -15 19.5 -29.5t29 -26.5t41 -20t54.5 -9zM312 235q-10 14 -23 25q-11 9 -26.5 15.5t-35.5 3.5q-18 -3 -31 -10q-11 -6 -20.5 -18t-9.5 -33q3 -16 10 -27q6 -11 18 -19t33 -8q19 4 36 13q14 8 28 21.5t21 36.5z" />
    <glyph glyph-name="d" unicode="d" horiz-adv-x="482" 
d="M408 646q32 -17 53.5 -43t34 -56.5t18 -64t6.5 -65.5q2 -76 -17 -160q-10 -46 -34 -87t-57 -73t-71.5 -53t-77.5 -28h-5q-39 -7 -75 -9t-64 -2q-33 0 -61 1l-2 384l-52 6l-8 283q98 21 174.5 18t129.5 -14q62 -13 108 -37zM462 287q11 55 10 107q0 22 -3.5 46t-11 47
t-20 45t-30.5 40q-25 27 -73 45q-42 15 -111.5 23.5t-179.5 -3.5l13 -195l47 -6l7 -380q20 -2 41 -3q18 -1 41 0t46 5q52 11 97 39q19 12 38.5 29t36.5 40.5t30.5 53t21.5 67.5zM302 344q22 -19 27 -40t2 -38q-4 -20 -15 -40q-13 -19 -32.5 -33.5t-38.5 -24.5
q-22 -11 -45 -20l-11 214q26 8 46.5 6t35.5 -7q18 -6 31 -17zM285 272q2 14 -2 25q-4 9 -14 16.5t-32 5.5l3 -105q12 3 22 11q8 7 15 18t8 29z" />
    <glyph glyph-name="e" unicode="e" horiz-adv-x="427" 
d="M485 250q-13 -21 -39.5 -42.5t-53.5 -38.5q-32 -20 -68 -40q-64 -23 -114 -19t-85 18q-40 17 -71 45q-20 19 -31.5 40.5t-16.5 42.5t-5.5 41.5t2.5 38.5q6 43 28 85q25 46 62 69.5t72 34.5q40 12 83 12q49 0 86.5 -19t62.5 -42q29 -26 50 -60l-68 -66zM137 173
q42 -17 89 -16q40 1 90 18.5t102 69.5l-71 71q-15 -17 -34 -29q-17 -11 -39.5 -18t-49.5 -2l155 161q-17 18 -39 32q-19 12 -45 21.5t-59 7.5q-40 -2 -75 -15q-30 -11 -60 -34.5t-47 -67.5q-12 -39 -8 -75q3 -32 22 -65.5t69 -58.5zM154 394q16 15 36 21q17 5 40 2.5
t50 -23.5l-110 -127q-24 15 -35 34q-10 17 -9.5 40.5t28.5 52.5zM181 377q-15 -17 -18.5 -29t-1.5 -20q2 -10 9 -17l61 71q-11 6 -19.5 6t-15.5 -2q-8 -3 -15 -9z" />
    <glyph glyph-name="f" unicode="f" horiz-adv-x="552" 
d="M599 725l-32 -277l-266 -11l-8 -45l94 6l-27 -171l-91 7l-31 -239l-175 49l13 360l-75 -5l5 259zM53 608l-3 -162l76 5l-13 -368l85 -18l31 211l91 2l10 75l-94 -6l24 129l264 19l21 179z" />
    <glyph glyph-name="g" unicode="g" 
d="M292 625q54 2 93.5 -8.5t65 -25t38.5 -27t15 -13.5l11 -14l-120 -199l-12 -22l-22 13q-9 7 -20 12q-10 5 -24 8.5t-31 1.5q-16 -1 -27.5 -9.5t-19.5 -21.5t-12.5 -29.5t-6.5 -33.5t-0.5 -35t7 -33t16 -25t27.5 -10q9 0 15 5t9.5 13.5t5 17.5t2.5 17q2 24 0 43
q-1 11 -3 19l-6 25l244 44l2 -157q-10 -2 -21 -5q-9 -2 -18.5 -4.5t-15.5 -4.5q5 -14 14 -42t20 -56q11 -33 26 -70l-176 -40q-5 12 -9 23l-5.5 16.5t-2.5 8.5q-28 -18 -51 -23.5t-56 -6.5q-44 -2 -79.5 12.5t-62.5 39t-46.5 56.5t-32 66.5t-18.5 68.5t-5 62q0 61 17.5 121
t53.5 108t91 79t130 35zM50 282q0 -51 15.5 -98t42 -83t61.5 -56.5t73 -17.5q17 1 32.5 3.5t31.5 10t33.5 21.5t38.5 40q7 -20 13 -37q5 -14 9.5 -27.5t5.5 -18.5q17 4 35.5 8.5t36.5 8.5q-5 14 -14 41l-18 54q-11 32 -23 67q14 3 27 7q11 3 22.5 5.5t19.5 4.5
q-1 15 -1.5 30.5t-1.5 33.5q-13 -2 -32 -5.5t-38.5 -7.5t-38 -7t-29.5 -5q1 -6 1.5 -12t0.5 -14q0 -6 -0.5 -13t-1.5 -14q-3 -18 -9 -36t-16 -31.5t-24.5 -21.5t-33.5 -8q-29 1 -49 16t-32 37.5t-15.5 50t-0.5 54.5q8 63 37 100t75 39q29 2 47 -4.5t34 -13.5q6 10 19 31
t26.5 44t25.5 43.5t18 29.5q-8 6 -22 14.5t-33.5 15.5t-45.5 11t-58 3q-67 -3 -113 -31t-75 -70t-42.5 -92.5t-13.5 -99.5z" />
    <glyph glyph-name="h" unicode="h" horiz-adv-x="545" 
d="M77 502l-77 -11l54 148l258 34l-6 -262l69 3l6 177l205 15l-44 -601l-164 -8l-9 251l-67 2l-8 -238l-177 -25zM83 591l-17 -50l52 9l42 -509l88 12l5 245l161 -2l10 -250l74 4l37 505l-107 -7l-8 -181l-162 -5l7 263z" />
    <glyph glyph-name="i" unicode="i" horiz-adv-x="197" 
d="M235 -30l-198 11l-37 372l199 3zM70 21l116 -7l-22 296l-107 -3zM144 607q19 -4 34 -14.5t25 -25t13.5 -32t-0.5 -35.5t-14.5 -32.5t-25.5 -24t-33 -13.5t-36 0t-33 14.5t-25 25t-14 32t-1 35.5q8 38 40 58t70 12zM111 466q21 -5 37.5 8t21.5 36q5 20 -6 39t-29 24
q-20 4 -36.5 -9.5t-21.5 -34.5q-5 -23 5.5 -41.5t28.5 -21.5z" />
    <glyph glyph-name="j" unicode="j" horiz-adv-x="536" 
d="M318 177q40 2 51 36.5t0 95t-41 143t-73 180.5l258 -12l46 -138l-61 3q25 -51 45 -112t27.5 -123t0.5 -119.5t-35.5 -102.5t-80.5 -73t-134 -29q-67 -1 -117 16t-86 45t-58.5 64t-36 71.5t-19 68t-5.5 54.5l248 116q1 -54 9 -94q3 -18 8 -34.5t12.5 -29t17.5 -20t24 -6.5
zM330 582q15 -42 33 -92t32 -100t21.5 -96.5t1.5 -83t-30 -58.5t-71 -23q-20 0 -35.5 6.5t-27 17t-19.5 24.5t-14 29q-13 34 -16 79l-152 -68q11 -70 44 -125q14 -23 33.5 -45.5t46 -39.5t61.5 -27t79 -9q73 1 118 28t67.5 71.5t25 101.5t-9.5 118.5t-34.5 123t-50.5 115.5
l63 -4l-17 49z" />
    <glyph glyph-name="k" unicode="k" horiz-adv-x="567" 
d="M341 341l270 -173l-44 -258l-340 253l-34 -158h-181l36 495l-48 -3l23 136l268 44l-12 -98l69 94l167 -219zM559 148l-297 186l187 133l-96 122l-141 -128l15 156l-163 -25l-7 -41l42 5l-37 -501h100l31 190l341 -246z" />
    <glyph glyph-name="l" unicode="l" horiz-adv-x="317" 
d="M356 207l-10 -207h-335l40 503h-49v146l275 50l-39 -502zM306 157h-117l30 483l-168 -19v-69h49l-40 -502h246v107z" />
    <glyph glyph-name="m" unicode="m" horiz-adv-x="595" 
d="M648 -93l-266 32l-24 118l-31 -70l-64 104l-11 -76l-243 21l65 604l213 11v35l202 10zM426 -16l159 -20l-136 679l-101 -4l-33 -231l-52 191l-140 -7l-61 -513l147 -14l16 215l107 -175l46 141z" />
    <glyph glyph-name="n" unicode="n" horiz-adv-x="522" 
d="M570 641l-115 -708l-177 28l-24 64l-155 -6l-33 501l-39 6l-25 154l282 -24l37 -75l5 82zM514 600l-139 8l-27 -263l-103 272l-183 8l9 -55l31 -1l38 -492l106 -2l7 273l62 -343l104 -8z" />
    <glyph glyph-name="o" unicode="o" horiz-adv-x="400" 
d="M438 274q-3 -48 -22 -90q-8 -18 -21 -37t-32 -36t-44.5 -31.5t-58.5 -24.5q-61 -16 -113 -6q-22 4 -44.5 14t-42 28t-35 46t-23.5 69q-7 72 16 129q10 24 27 48t44 42.5t66 30.5t93 14q52 -2 93 -22q18 -9 34.5 -23t30 -35t22.5 -49.5t10 -66.5zM172 92q43 -3 75.5 4
t56.5 20t40 30.5t26 35.5q24 43 25 99q-1 29 -8 51t-17.5 38.5t-23.5 28t-26 18.5q-32 17 -72 19q-36 -2 -64 -11t-49 -22.5t-35.5 -30.5t-24.5 -35q-24 -41 -29 -93q0 -53 20 -83.5t43 -45.5q27 -18 63 -23zM252 392q-18 -4 -27 -11.5t-13 -15.5q-4 -10 -4 -20
q-1 -20 7 -30t19 -14q11 -5 27 -4q22 2 32 10.5t14 19.5q4 12 2 28q16 -29 14.5 -51.5t-13 -38t-29.5 -24t-35 -8.5q-40 -2 -60.5 12t-28 33t-6 37.5t5.5 27.5q11 21 27.5 31.5t31.5 14.5q18 4 36 3z" />
    <glyph glyph-name="p" unicode="p" 
d="M521 382q-19 -33 -49 -63q-26 -26 -65.5 -53t-96.5 -43l-30 -223l-181 2l-11 461h-49l-38 213q60 16 125 21q28 2 59.5 1.5t65.5 -4.5t69.5 -13t70.5 -25q57 -30 95 -70q16 -17 29 -38.5t19.5 -47t4 -55t-17.5 -63.5zM266 265q69 13 110.5 35.5t64.5 44.5q26 26 38 54
q10 27 11 50.5t-5.5 44.5t-18 38.5t-24.5 31.5q-32 33 -80 57q-54 23 -109 30t-100 6q-53 -2 -103 -11l30 -137l46 7l18 -476l101 -5zM363 496q23 -16 32.5 -33t11.5 -31q3 -17 -1 -33q-12 -28 -34 -44.5t-43 -25.5q-26 -11 -53 -14l21 188q11 4 22 3.5t21 -2.5q11 -3 23 -8
zM318 366q14 6 25 15q9 8 16 18t5 24q0 11 -4 20q-3 8 -11 13.5t-23 4.5l-8 -95v0z" />
    <glyph glyph-name="q" unicode="q" horiz-adv-x="599" 
d="M113 532q15 18 41 32t59.5 19t72.5 -1t79 -27.5t79.5 -61t74.5 -100.5q30 -54 41.5 -102.5t11.5 -90.5q0 -55 -13 -95t-25 -63l46 -23t67 -33q40 -19 87 -42l-220 -155q-30 33 -56 59q-22 23 -42.5 43.5t-25.5 27.5q-23 -5 -56 -7t-70.5 3.5t-76 20t-73.5 41.5
q-114 90 -111 267q1 58 11.5 105t27 82.5t35.5 60.5t36 40zM477 369q-19 33 -46.5 64t-61.5 54.5t-71.5 35.5t-75.5 8q-3 -1 -16.5 -4.5t-32 -14t-40 -30t-39.5 -51.5t-30 -78.5t-13 -110.5v-7q0 -150 92 -220q30 -23 64.5 -35.5t68.5 -17t64 -2.5t51 8l14 3q26 -27 49 -51
q20 -20 39 -40t27 -28q8 6 22.5 16t31.5 22t34.5 24.5l31.5 22.5q-18 8 -43.5 20.5t-49.5 24.5q-28 13 -58 28l-25 13l16 23q1 1 8 12.5t15 31.5t14.5 47.5t6.5 62.5q0 36 -10.5 78.5t-36.5 90.5zM223 389q54 5 92 -29.5t47 -97.5q8 -57 -10 -98.5t-57 -56.5
q-23 -8 -48 -5.5t-47 14.5q-18 11 -38.5 35t-29.5 72q-8 42 -0.5 72t22.5 49.5t33.5 30t33.5 13.5h1l1 1v0zM315 255q-2 17 -8.5 33t-17 28.5t-25.5 19.5t-35 5q-4 -1 -12.5 -4.5t-17.5 -12.5t-16 -24t-7 -38q0 -12 3 -30q9 -54 45 -74q14 -9 29 -9.5t25 3.5q23 8 32.5 36.5
t4.5 66.5z" />
    <glyph glyph-name="r" unicode="r" horiz-adv-x="565" 
d="M622 29l-195 -49l-108 185l-9 -136l-143 -27l-52 378l-59 -29l-58 272q60 19 123 34q54 13 119.5 24t128.5 11q58 -1 106 -21q21 -9 41 -22.5t37.5 -34.5t30 -50t18.5 -67q5 -48 -6 -93q-5 -19 -14 -39.5t-24.5 -41t-38 -38.5t-53.5 -33zM456 29l79 29l-137 194
q38 21 71 48q27 23 52 55.5t32 73.5q11 47 0 87q-5 17 -14.5 35t-26.5 34t-43 28.5t-62 20.5q-41 8 -95 5q-46 -2 -110.5 -14t-145.5 -41l39 -166l58 25l50 -395l67 10v156l69 29zM359 487q40 -4 55.5 -24t18.5 -43q4 -27 -6 -60q-14 -37 -38.5 -58t-48.5 -32
q-28 -13 -59 -18l-11 216q11 11 26.5 15t29.5 5q16 1 33 -1zM378 409q2 13 -2 22q-4 8 -14 11.5t-32 -4.5v-107q17 10 28 21q10 10 17 24t3 33z" />
    <glyph glyph-name="s" unicode="s" 
d="M542 161q-1 -27 -10.5 -57.5t-39 -56t-85 -40.5t-149.5 -10q-52 3 -99 27.5t-82 53.5q-42 33 -78 75l207 43q3 -14 11 -25q7 -11 20 -21t34 -16q18 -5 29.5 1.5t14 16t-4 18t-23.5 6.5q-3 1 -13.5 0t-26.5 -2t-36.5 0t-43.5 6q-3 0 -15.5 3.5t-29 10t-34.5 16.5t-33 25
t-23.5 34.5t-6.5 45.5q2 27 13.5 47.5t28 36.5t37.5 27t42 19q50 18 113 23q56 -1 97.5 -14t69.5 -29q33 -18 55 -43l-180 -101q1 12 -2 23q-2 9 -8.5 16.5t-18.5 9.5q-9 1 -16 0q-6 -1 -11.5 -3.5t-6.5 -8.5q-2 -7 0 -12t6 -8.5t15 -2.5q8 -1 23 -2q13 -1 34.5 -1.5
t55.5 -1.5q48 -1 86 -14q16 -6 31.5 -15.5t27.5 -23t19 -32.5t6 -44zM491 152q1 15 -1 27.5t-9.5 23.5t-22 21.5t-37.5 21.5q-12 6 -32.5 8.5t-45 3.5t-50 0.5t-46.5 -0.5q-16 1 -29 7q-11 5 -20.5 15t-11.5 29q0 17 10 30q8 11 27 20t54 8q12 0 23 -3q10 -2 19.5 -6
t15.5 -12l66 39q-14 11 -32 19q-16 7 -40 12.5t-57 5.5q-51 -1 -92 -13q-18 -5 -35 -13t-31 -20t-23.5 -28.5t-11.5 -37.5q-1 -12 5 -25.5t16.5 -25.5t24 -21.5t28.5 -13.5q14 -5 32.5 -6.5t36.5 -1.5h34t25 -1q6 -1 20.5 -2t30.5 -6t28.5 -16.5t12.5 -32.5q0 -13 -8 -25.5
t-22.5 -21.5t-34 -13t-41.5 -1q-27 4 -44 13.5t-27 19.5q-11 11 -18 24l-88 -18q14 -23 34 -41q17 -17 43.5 -32t64.5 -23q54 -11 100.5 -5.5t83.5 25.5q28 15 43 29.5t22 27.5t8.5 22.5t1.5 12.5z" />
    <glyph glyph-name="t" unicode="t" horiz-adv-x="439" 
d="M343 477l-46 -444l-145 2l-4 464l-142 4l-7 179l482 -33l-16 -194zM266 102l37 425l120 -25l9 107l-384 20l4 -87l142 -7l8 -446l64 -4v17z" />
    <glyph glyph-name="u" unicode="u" horiz-adv-x="538" 
d="M272 593l173 -46l137 -432l-210 -90q-3 21 -7 40q-3 17 -6 33.5l-5 27.5q-23 -12 -58.5 -21t-83.5 -3q-109 15 -163.5 81t-49.5 175q2 39 11.5 70.5t21 53.5t20.5 34t10 13l8 11l180 -63l29 -9l-16 -24q-7 -13 -12 -27q-5 -12 -7.5 -27t-0.5 -30q3 -20 15 -31
q14 -10 38 -8q13 2 19 16q4 6 8 20t2.5 39.5t-10 64t-28.5 92.5zM302 275q-40 -5 -72 19q-28 23 -31 61q0 3 -1 7.5t-1 6.5q0 21 5 39.5t10 32.5q-12 3 -30 8t-36.5 10.5t-34.5 10.5t-25 7q-9 -15 -21.5 -48t-14.5 -81v-15q0 -82 40.5 -128t127.5 -60q32 -4 57 1t42.5 12.5
t27 15t9.5 9.5l29 24q6 -24 10 -45q4 -18 7.5 -36t5.5 -29q11 4 28 10t34.5 11.5t33 10.5t24.5 8q-3 9 -12 39t-21.5 69.5t-26 83.5t-25.5 82.5t-20.5 65.5t-9.5 32q-10 3 -27 8t-40 10q27 -83 27 -140q0 -23 -4.5 -41t-12.5 -33q-8 -14 -22.5 -24.5t-29.5 -13.5z" />
    <glyph glyph-name="v" unicode="v" horiz-adv-x="658" 
d="M289 703l99 -284l94 274l239 -40l-225 -633l-174 -20l-187 435l-46 -21l-88 167l265 111zM401 266l-141 367l-187 -76l40 -69l46 23l208 -456l91 11l191 552l-131 19l-93 -301z" />
    <glyph glyph-name="w" unicode="w" horiz-adv-x="746" 
d="M640 1h-147l-45 92l-32 -82l-132 -13l-172 459l-63 -21l-46 197l314 34l66 -195l58 114l57 -86l43 197l256 -30zM604 51l133 573l-152 20l-65 -285l-66 126l-90 -153l-78 280l-226 -23l24 -96l62 14l172 -459l72 9l43 197l83 -199z" />
    <glyph glyph-name="x" unicode="x" horiz-adv-x="724" 
d="M767 111l-40 -267l-355 314l-121 -176l-206 239l148 119l-123 142l-53 -27l-16 138l206 95l135 -169l159 157l169 -247l-172 -121zM718 79l-303 231l180 141l-110 144l-154 -166l-153 202l-133 -66l8 -56l33 21l178 -200l-142 -133l113 -129l125 164l337 -295z" />
    <glyph glyph-name="y" unicode="y" horiz-adv-x="656" 
d="M304 710l98 -215l178 143l130 -209l-233 -144l31 -334l-251 50l29 291l-157 172l-47 -29l-82 153zM64 564l35 -62l41 26l200 -219l-27 -266l145 -33l-30 298l218 135l-76 115l-190 -153l-113 238z" />
    <glyph glyph-name="z" unicode="z" horiz-adv-x="624" 
d="M109 620l513 -57l-255 -354l244 14l65 -289l-681 30l40 207l223 245l-221 -14zM109 455l264 4l-291 -310l-21 -133l554 -29l-54 176l-292 -8l267 370l-388 32z" />
    <glyph glyph-name="ampersand" unicode="&#x26;" horiz-adv-x="459" 
d="M100 622q34 17 67 20.5t63 -2t55 -17t44 -23.5t30 -21t12 -10l12 -11l-69 -184q-9 10 -20 21.5t-23 20t-24 11.5t-22 -3q-14 -8 -12.5 -19.5t12.5 -21t28.5 -15t36.5 -0.5l-5 -137q-31 5 -54.5 4.5t-39.5 -11.5q-19 -14 -21 -27t18 -13q42 1 69 10.5t44.5 24t29 32
t24.5 35.5l160 -153l-7 -16q-14 -29 -40 -52t-58.5 -39t-69 -25t-70.5 -11q-77 -7 -138 16t-91 70q-34 51 -34 97q0 18 5 32q7 32 25 55.5t35 37.5q-29 23 -48 61t-24 80q-1 5 -1 10.5v10.5q0 53 26.5 94.5t74.5 67.5zM57 189q-3 -47 17 -78.5t51.5 -50t69 -25t70.5 -4.5
q64 5 115.5 31.5t74.5 61.5q-6 6 -18.5 18t-26.5 26t-28.5 27.5t-24.5 24.5q-8 -21 -40.5 -41t-71.5 -30.5t-74.5 -7.5t-49.5 30q-9 16 -0.5 35.5t27 35.5t44 25.5t51.5 5.5q0 14 0.5 26.5t0.5 23.5q-13 2 -28.5 10t-26.5 21q-19 18 -19 50v5q1 18 6 29t12 17.5t14.5 9.5
l12.5 5q19 5 39 -1.5t37 -15.5q9 24 19 50t15 41q-12 9 -32.5 23t-47.5 24t-58.5 11t-63.5 -16q-27 -15 -43 -34t-23.5 -39t-9 -38t-0.5 -31q2 -22 11 -44.5t23 -43t31 -36t34 -22.5q-12 -6 -26 -16t-27 -24t-22.5 -31.5t-13.5 -37.5zM146 772q17 13 39.5 18t48.5 2
q21 -3 39.5 -14t31.5 -26.5t19.5 -34.5t3.5 -38q-5 -35 -38 -52t-81 -9q-48 6 -78 44q-19 28 -16 60q4 30 31 50zM213 659q8 -2 19 -1t21.5 4t18 9t8.5 15q3 9 -0.5 18t-11 17.5t-18.5 14.5t-23 8q-8 1 -18.5 0t-20.5 -4t-17 -9t-7 -15q-2 -23 13.5 -37.5t35.5 -19.5z
M295 16q49 6 84.5 -12t40.5 -52q6 -33 -22.5 -59.5t-78.5 -36.5q-23 -4 -44 0t-38 16q-26 18 -33 52q-2 15 2 29.5t15 27.5t29.5 22t44.5 13zM252 -70q6 -23 21.5 -27.5t36.5 -2.5q29 2 45.5 14t16.5 30v1q0 14 -20.5 24.5t-50.5 6.5q-20 -3 -35.5 -16t-13.5 -30z" />
    <glyph glyph-name="percent" unicode="%" horiz-adv-x="498" 
d="M475 725l64 -309l-445 -512l-95 131l446 646zM453 613q-10 -14 -31.5 -45t-50 -73t-62.5 -91t-68.5 -98.5t-66.5 -96.5t-57.5 -84t-42 -61.5t-19.5 -28.5q8 -10 19 -26.5t23 -32.5q6 7 26 29.5t48 55t62 71.5t68.5 79t67.5 78t59 68t43 49.5t19 22.5q-1 6 -5 26.5
t-9.5 48t-12 57t-10.5 52.5zM56 509q8 23 24 43.5t37 35t46.5 19.5t52.5 -3q26 -7 43 -24t26 -40t10 -49.5t-5 -50.5q-7 -24 -21.5 -43.5t-34 -31.5t-43.5 -16t-50 1q-53 11 -79 52q-25 45 -6 107zM151 394q32 -7 59.5 9.5t36.5 48.5q3 14 3 31.5t-4.5 33t-14.5 28t-27 17.5
q-19 5 -36 0t-31.5 -15.5t-24.5 -24.5t-15 -28q-6 -20 -4.5 -37.5t9.5 -31.5q6 -12 19 -19.5t30 -11.5zM209 51q0 22 11.5 43t31.5 37t45.5 25.5t54.5 9.5q30 0 58 -12.5t50 -35.5q32 -33 30 -68q-2 -51 -40 -79.5t-101 -28.5q-29 0 -54.5 8.5t-44.5 23.5t-30 34.5t-11 42.5
zM253 51q0 -27 28.5 -46t67.5 -19q16 0 33 3t30.5 10.5t22.5 20t10 32.5q0 6 -4 15.5t-15 20.5q-14 16 -34 24.5t-40 8.5q-21 0 -39 -6.5t-31.5 -16.5t-21 -22.5t-7.5 -24.5z" />
    <glyph glyph-name="dollar" unicode="$" horiz-adv-x="559" 
d="M311 773l111 -3l-10 -81q24 -1 44.5 -4.5t35.5 -8t23.5 -8.5t10.5 -4l13 -6l-17 -181q-31 29 -58.5 45t-53.5 8q-10 -3 -13 -25q3 -11 15.5 -21.5t38.5 -18.5q30 -10 60 -29.5t52 -49t32.5 -68t1.5 -86.5q-1 -5 -5 -21.5t-13.5 -39t-26.5 -47.5t-44 -48t-65 -41t-89 -25
l-14 -93l-171 -8l13 108q-50 12 -83.5 33.5t-54.5 43t-30.5 38.5t-10.5 19l-3 8l148 262l18 -34q17 -32 34 -54t32 -38l22 108q-13 9 -27 22.5t-25.5 30.5t-19 36t-8.5 38q-1 12 1.5 27t10.5 31.5t22 33t37 30.5q11 8 27.5 13.5t28.5 10.5zM335 645q-31 -9 -56 -25
q-21 -14 -38.5 -35t-17.5 -52q0 -26 15 -52t59 -54l-33 -205q-9 2 -20.5 7.5t-26 18t-32 34t-38.5 54.5q-9 -17 -24.5 -43.5t-30.5 -53.5t-27 -48t-15 -27q3 -7 16 -23t36 -34.5t55 -35t74 -23.5l-11 -95q21 1 42.5 2t37.5 2l14 91q50 5 87 19.5t64 34.5t44.5 42t27.5 41.5
t14.5 34t5.5 19.5q6 39 -2.5 69.5t-27 54t-43 39t-49.5 23.5q-7 2 -20.5 8.5t-27 16t-24.5 22t-12 27.5q-1 3 -1 9q-2 18 8.5 35.5t40.5 26.5q31 6 50.5 -1t36.5 -18q2 27 3.5 48t3.5 32q-6 2 -14.5 5.5t-22 6.5t-34.5 5t-52 1l8 83h-32zM350 405h1q18 -6 32.5 -18t24 -27.5
t13.5 -33.5t0 -36q-2 -11 -7.5 -22.5t-16 -21.5t-27 -17t-41.5 -10zM385 301q2 11 -1.5 19t-8.5 13l-5 -55q6 2 10 10.5t5 12.5z" />
    <glyph glyph-name="at" unicode="@" horiz-adv-x="814" 
d="M93 529q44 55 99 89t113.5 50.5t118.5 18t114 -8t98.5 -27t74.5 -39.5q25 -20 51 -51.5t46 -70t33 -81.5t13 -87q0 -60 -25 -109.5t-71 -84.5q-23 -19 -49 -31q-1 -3 -5.5 -15t-11 -31t-14.5 -41.5t-17 -46.5q-20 -55 -45 -125l-15 -1q-144 -17 -254.5 6.5t-195.5 89.5
q-24 18 -47.5 46.5t-44 65.5t-35 81t-20.5 93q-3 30 -2 67t10 77.5t28.5 82.5t52.5 83zM179 -32q75 -59 174 -80t230 -7q2 6 8 22.5t13.5 37.5t16 43.5t15.5 41.5q-33 -10 -82 -19t-107 -7t-121 21.5t-122 67.5q-36 28 -59 68.5t-32 85.5t-3.5 92.5t26.5 90.5q17 34 45 64
t62.5 53.5t73 38t77.5 18.5q137 13 229.5 -45t123.5 -175q13 -53 4 -87.5t-23 -54.5q-17 -23 -39.5 -34.5t-39.5 -12.5q-11 -2 -29.5 0.5t-38.5 20.5q-25 26 -38 84t-15 146q-7 -4 -14 -8.5t-14 -9.5q-8 -5 -16 -11l-3 -62q-21 30 -47 48q-23 16 -55.5 21.5t-73.5 -13.5
q-33 -16 -51.5 -51t-16.5 -77q0 -35 18 -72t59 -56q37 -17 64.5 -17t45 6.5t26 15.5l8.5 9l18 26l18 -24q1 -1 7 -8t18 -16t29 -17t39 -11q65 -10 144 49q77 60 77 158q0 39 -11 77t-29 71t-40.5 60t-44.5 44q-18 13 -44 26t-59 22.5t-71.5 14.5t-80.5 4q-33 -1 -71.5 -7
t-78 -21.5t-78.5 -42t-73 -68.5q-29 -37 -46 -75t-25 -74t-9 -69.5t2 -60.5q5 -44 18.5 -83t31.5 -72t39 -58.5t41 -41.5zM234 123q50 -41 105 -58t106.5 -19t96.5 5.5t75 16.5h-19.5t-17.5 1q-36 5 -62.5 21t-41.5 30q-12 -11 -29.5 -19.5t-40 -11.5t-50 1.5t-59.5 19.5
q-48 20 -76 65.5t-30 100.5q-1 57 24 103.5t68 69.5q26 13 50 17t44.5 2t38.5 -9t32 -16q0 1 19 12.5t42 25.5q26 16 61 36v-42q0 -59 4 -99.5t10 -67t13.5 -42t15.5 -22.5t15.5 -8t18.5 0q7 0 20 6.5t24 23.5q15 18 17.5 44.5t-5.5 58.5q-6 23 -22.5 58t-51 66t-91 50
t-141.5 11q-32 -3 -64.5 -16t-62 -32.5t-54 -45.5t-38.5 -54q-19 -36 -24 -75.5t2.5 -77.5t27 -72t50.5 -58zM300 354q-7 -14 -6.5 -24t4.5 -17q4 -8 12 -13q13 -11 23.5 -10t18.5 6q9 6 16 17q10 16 9 27t-6 19q-6 9 -18 15q27 -4 42 -16t20 -27.5t2 -31.5t-12 -28
q-17 -22 -36 -28.5t-36.5 -3.5t-30 11t-16.5 15q-9 18 -8 34.5t6 28.5q5 14 16 26z" />
    <glyph glyph-name="Euro" unicode="&#x20ac;" horiz-adv-x="726" 
d="M157 510q12 16 36.5 43.5t61 54.5t84.5 47t105 19q73 0 123.5 -22t82 -48t46 -49t15.5 -25l4 -10l-93 -140l-18 -23l-19 22q-10 11 -21 23t-25.5 22t-32 16.5t-39.5 6.5q-26 0 -39 -4q8 -2 18.5 -5.5t20.5 -5.5q11 -4 22 -6q1 -25 2 -45q1 -17 1.5 -32.5t0.5 -17.5
q1 -2 5.5 -17t9.5 -34q6 -22 13 -49q-16 -5 -33 -10q-14 -5 -30 -9.5t-30 -8.5q13 -6 38 -12.5t53 -4.5q75 4 141 24t134 57l-121 -301l-4 -3q-1 -1 -15 -7.5t-41.5 -13t-67.5 -11t-94 -2.5q-68 3 -119.5 26t-89 54t-60.5 62t-33 49q-10 -4 -30 -10.5t-40 -13.5
q-24 -8 -51 -18l-22 223q22 2 41 3q17 1 34 1.5t28 1.5q0 11 1 21t2 19q-11 1 -30 1.5t-37 0.5h-45l82 195q16 -8 30 -14q12 -5 24.5 -11t20.5 -9zM185 455q-16 7 -31 13q-13 5 -26.5 10t-21.5 9q-8 -17 -19 -44t-21 -50q11 -1 28 -1h33h37l-5 -26q0 -2 -3 -20.5t-3 -41.5
v-7.5t2 -8.5l1 -23q-22 -1 -41 -2q-17 -1 -34 -1.5t-28 -0.5q1 -10 3 -25.5t3.5 -32t3.5 -33t3 -28.5q11 5 27.5 10t30.5 10q17 5 34 12l20 6l7 -17q1 -2 8 -15.5t21.5 -32.5t36 -41t51 -41.5t67.5 -32.5t85 -15q39 -2 70.5 1t54 7.5t37 10t20.5 8.5q2 3 10.5 21.5
t20.5 44.5t25 55t25 55q-35 -17 -89 -32t-125 -14q-40 0 -68.5 9t-47 19.5t-27.5 20t-10 10.5l-20 25q31 8 57 15q23 6 45.5 12t34.5 9q-2 8 -3.5 13t-3.5 13q-11 -1 -37 -2t-53 -3q-32 -2 -68 -5l-3 19q0 1 -1 8t-1 16.5t2 21.5t7 23l6 13q29 -1 55 -3q23 -2 45 -3.5
t35 -2.5v23q-8 2 -25.5 6.5t-35.5 9.5q-21 5 -46 12l15 26q0 1 6.5 8.5t20 15.5t34.5 14.5t51 5.5q48 -1 78.5 -20.5t53.5 -40.5q7 10 15.5 24t16.5 27.5t15 24.5t11 16q-7 10 -21.5 26.5t-40 32.5t-63.5 28t-90 12q-39 1 -72.5 -10t-60.5 -27.5t-48.5 -35.5t-35.5 -36
t-21.5 -28.5l-7.5 -11.5zM343 334q-2 -3 -2 -9q14 1 30 2t41 2q-25 2 -41.5 2.5t-27.5 2.5z" />
    </font>
</defs>
</svg>
