<?xml version="1.0" standalone="no"?>
<!DOCTYPE svg PUBLIC "-//W3C//DTD SVG 1.1//EN" "http://www.w3.org/Graphics/SVG/1.1/DTD/svg11.dtd" >
<svg>
<metadata>
Created by FontForge 20120731 at Fri Apr 11 17:00:33 2014
 By World Wide Web Server
Copyright (c) 1996, 1997 Brderbund Software. All rights reserved.
</metadata>
<defs>
<font id="ContinuumBold" horiz-adv-x="357" >
  <font-face 
    font-family="Continuum Bold"
    font-weight="400"
    font-stretch="normal"
    units-per-em="1000"
    panose-1="0 0 4 0 0 0 0 0 0 0"
    ascent="800"
    descent="-200"
    x-height="525"
    cap-height="700"
    bbox="-67 -229 1280 1015"
    underline-thickness="20"
    underline-position="-190"
    unicode-range="U+0020-F002"
  />
<missing-glyph horiz-adv-x="500" 
d="M63 0v815h375v-815h-375zM125 63h250v690h-250v-690z" />
    <glyph glyph-name=".notdef" horiz-adv-x="500" 
d="M63 0v815h375v-815h-375zM125 63h250v690h-250v-690z" />
    <glyph glyph-name=".null" horiz-adv-x="0" 
 />
    <glyph glyph-name="glyph2" horiz-adv-x="282" 
 />
    <glyph glyph-name="space" unicode=" " horiz-adv-x="282" 
 />
    <glyph glyph-name="exclam" unicode="!" horiz-adv-x="258" 
d="M52 192h153v508h-153v-508zM46 81q-2 35 22.5 60t59.5 25t59.5 -24t24.5 -59q0 -34 -24.5 -58.5t-58.5 -24.5q-35 0 -58 23t-25 58z" />
    <glyph glyph-name="quotedbl" unicode="&#x22;" horiz-adv-x="353" 
d="M37 467h105l20 233h-105zM191 467l20 233h105l-20 -233h-105z" />
    <glyph glyph-name="numbersign" unicode="#" horiz-adv-x="691" 
d="M648 399h-113l-21 -98h112l-26 -128h-113l-37 -173h-129l36 173h-92l-37 -173h-129l38 178q-31 -1 -114 0l29 123h111l21 98h-112l27 128h112l37 173h129l-37 -173h93l35 173h131l-37 -173h112zM313 399l-20 -98h92l21 98h-93z" />
    <glyph glyph-name="dollar" unicode="$" horiz-adv-x="510" 
d="M31 412v151q0 17 5 36q26 101 137 101h68v55h35v-55h202v-149h-202v-125h64q64 0 93.5 -25.5t43.5 -88.5q2 -9 2 -22v-143q0 -18 -2 -30q-17 -98 -124 -115q-13 -2 -21 -2h-56v-76h-35v76h-210v150h210v128h-70q-98 0 -130 87q-10 27 -10 47zM293 150q24 0 31 9.5t7 33.5
v48q0 37 -34 37h-21v-128h17zM231 426h10v125h-25q-28 0 -34 -30q-1 -2 -1 -8v-43q0 -44 50 -44z" />
    <glyph glyph-name="percent" unicode="%" horiz-adv-x="893" 
d="M521 113v132q0 26 13 53q28 59 107 59h109q14 0 28 -3q91 -20 91 -109v-132q0 -51 -33.5 -81.5t-85.5 -30.5h-109q-98 0 -118 95q-2 10 -2 17zM186 0h139l391 700h-137zM24 456v132q0 7 2 17q15 79 99 93q12 2 19 2h109q100 0 117 -95q2 -11 2 -17v-132q0 -6 -2 -17
q-14 -80 -99 -94q-12 -2 -18 -2h-109q-7 0 -19 2q-84 14 -99 94q-3 15 -2 17zM673 122h44q26 0 33 22q2 6 2 17v35q0 19 -9 29q-13 11 -26 11h-44q-25 0 -32 -22q-2 -6 -2 -18v-35q0 -39 34 -39zM176 465h45q12 0 25 10q9 12 9 29v36q0 39 -34 39h-45q-19 0 -29 -17
q-5 -7 -5 -22v-36q0 -17 10.5 -28t23.5 -11z" />
    <glyph glyph-name="ampersand" unicode="&#x26;" horiz-adv-x="684" 
d="M33 243q13 81 83 121l14 8l-31 49q-15 24 -15 66v64q0 71 40.5 110t111.5 39h95q90 0 127 -64q21 -36 21 -68v-72q0 -30 -5.5 -45.5t-24.5 -43.5q-29 -43 -63 -59l-28 -13l70 -76l1 25v48h153l-1 -103q0 -42 -20 -81q-1 -2 -13 -23l112 -125h-197l-22 25
q-46 -25 -107 -25h-134q-110 0 -152 85q-3 5 -17 64q0 57 2 94zM219 145q5 -1 10 -1l90 -1q5 0 15 5l-108 119l-25 -11q-21 -9 -21 -37v-36q5 -32 39 -38zM234 485q2 -4 2 -6l27 -40l34 16q14 7 25 20q13 17 10 30q-1 18 -3 25q-4 17 -11 21q-19 10 -21 10q-20 -1 -48 -5
q-18 -11 -18 -30v-20q0 -10 3 -21z" />
    <glyph glyph-name="quotesingle" unicode="'" horiz-adv-x="199" 
d="M37 467l20 233h105l-20 -233h-105z" />
    <glyph glyph-name="parenleft" unicode="(" horiz-adv-x="299" 
d="M46 556q0 17 8 51q10 30 38 72l18 21h165l-5 -6l-14 -15q-34 -37 -47 -75q-11 -33 -11 -88v-332q0 -55 11 -88q13 -38 47 -75l14 -15l5 -6h-165l-18 21q-46 67 -46 123v412z" />
    <glyph glyph-name="parenright" unicode=")" horiz-adv-x="299" 
d="M24 0l5 6l14 15q34 37 47 75q11 33 11 88v332q0 55 -11 88q-13 38 -47 75l-14 15l-5 6h166q5 -6 16 -21q42 -58 48 -123v-412q0 -56 -48 -123q-5 -7 -16 -21h-166z" />
    <glyph glyph-name="asterisk" unicode="*" horiz-adv-x="428" 
d="M31 565l65 106l112 -133l-55 162h126l-60 -162l116 132l62 -110l-171 -33l171 -34l-63 -106l-115 131l57 -162l-124 -1l56 164l-113 -128l-63 106l171 30z" />
    <glyph glyph-name="plus" unicode="+" horiz-adv-x="590" 
d="M33 282v137h197v197h131v-197h196v-137h-196v-196h-131v196h-197z" />
    <glyph glyph-name="comma" unicode="," horiz-adv-x="218" 
d="M24 -104l49 104q-49 24 -48 78q1 35 25 59.5t59 24.5q37 0 61 -26t24 -63q0 -21 -11 -44l-63 -132z" />
    <glyph glyph-name="hyphen" unicode="-" horiz-adv-x="314" 
d="M24 247v128h266v-128h-266z" />
    <glyph glyph-name="hyphen" unicode="&#x2010;" horiz-adv-x="314" 
d="M24 247v128h266v-128h-266z" />
    <glyph glyph-name="period" unicode="." horiz-adv-x="215" 
d="M24 81q-2 34 23.5 59.5t59.5 25.5q35 0 59 -24t24 -59q0 -34 -24.5 -58.5t-58.5 -24.5t-57.5 23.5t-25.5 57.5z" />
    <glyph glyph-name="slash" unicode="/" horiz-adv-x="578" 
d="M24 0l394 700h136l-392 -700h-138z" />
    <glyph glyph-name="zero" unicode="0" horiz-adv-x="591" 
d="M50 151v398q0 73 42 112t114 39h179q72 0 114.5 -39.5t42.5 -111.5v-398q0 -151 -158 -151h-178q-84 0 -120 33.5t-36 117.5zM250 151h91q28 0 39 10t11 38v302q0 28 -11 38t-39 10h-91q-28 0 -39 -10t-11 -38v-302q0 -28 11 -38t39 -10z" />
    <glyph glyph-name="one" unicode="1" horiz-adv-x="590" 
d="M220 0v700h150v-700h-150z" />
    <glyph glyph-name="two" unicode="2" horiz-adv-x="590" 
d="M68 700h295q160 0 159 -152l-1 -159q0 -38 -26 -74q-38 -53 -117 -54l-125 -1q-34 0 -34 -41v-68h303v-151h-454v263q0 66 37 108t102 43l129 1q35 0 35 40v52q0 36 -34 42h-269v151z" />
    <glyph glyph-name="three" unicode="3" horiz-adv-x="590" 
d="M60 0v155h279q4 0 8 2q13 4 18 17v64q0 32 -33 37q-2 1 -8 1h-114v148h114q2 0 4 1h4q33 6 33 37v64q0 11 -18 17q-4 2 -8 2h-279v155h300q74 0 114.5 -37.5t40.5 -92.5v-112q0 -35 -22 -65t-55 -43q33 -14 55 -43t22 -64v-113q0 -54 -41 -93q-26 -25 -52 -32
q-18 -5 -62 -5h-300z" />
    <glyph glyph-name="four" unicode="4" horiz-adv-x="591" 
d="M45 345l146 355h162l-146 -356h162v356h151l-1 -700h-150v193h-197q-78 0 -114 43q-23 28 -23 62q0 23 10 47z" />
    <glyph glyph-name="five" unicode="5" horiz-adv-x="589" 
d="M65 0v156l270 1q31 0 31 32v66q0 4 -1 7q-5 30 -32 35q-1 0 -4 1h-264v402h452v-156h-300v-94h150q71 0 109.5 -39.5t38.5 -111.5v-151q0 -69 -39 -108.5t-108 -39.5h-303z" />
    <glyph glyph-name="six" unicode="6" horiz-adv-x="591" 
d="M46 161v383q0 85 41 121q38 35 124 35h295v-155h-279q-1 0 -8 -2q-23 -6 -23 -34v-58h215q134 0 134 -146v-163q0 -4 -3 -32q-24 -110 -143 -110h-197q-22 -4 -41 -4q-70 0 -96 50q-19 36 -19 115zM246 156h112q37 4 37 38v66q0 35 -39 39q-1 0 -4 1h-109q-2 -1 -4 -1
q-43 -5 -43 -44v-51q0 -48 50 -48z" />
    <glyph glyph-name="seven" unicode="7" horiz-adv-x="591" 
d="M53 549v151h353q50 0 81 -25q34 -28 34 -76q0 -26 -9 -51l-197 -548h-160l198 549h-300z" />
    <glyph glyph-name="eight" unicode="8" horiz-adv-x="590" 
d="M47 148v99q0 76 74 108q-33 14 -53.5 43.5t-20.5 64.5v99q0 85 68 120q31 16 93 16h173q62 0 93 -16q68 -35 68 -120v-99q0 -72 -72 -108q72 -36 72 -108v-99q0 -93 -68 -132q-29 -17 -93 -17h-173q-63 0 -93 17q-68 39 -68 132zM197 186q0 -36 29 -36h138q28 0 28 36v60
q0 5 -3 14q-9 17 -33 21h-123q-36 -6 -36 -35v-60zM197 457q0 -25 44 -25h108q43 0 43 24v56q0 35 -44 35h-107q-44 0 -44 -35v-55z" />
    <glyph glyph-name="nine" unicode="9" horiz-adv-x="591" 
d="M46 395v163q0 67 39.5 104.5t106.5 37.5h196q83 0 120 -39t37 -122v-383q0 -85 -39.5 -120.5t-125.5 -35.5h-294v155h278q13 0 22 11.5t9 24.5v58h-216q-23 -4 -41 -4q-59 0 -79 48q-13 31 -13 102zM235 401h4q2 -1 3 -1h101q2 0 4 1h4q44 5 44 44v51q0 48 -51 48h-112
q-36 -4 -36 -38v-66q0 -35 39 -39z" />
    <glyph glyph-name="colon" unicode=":" horiz-adv-x="244" 
d="M39 81q2 -35 25 -58t58 -23q34 0 58.5 24.5t24.5 58.5q0 35 -24.5 59t-59.5 24t-59.5 -25t-22.5 -60zM39 439q-2 35 22.5 60.5t59.5 25.5t59.5 -24t24.5 -59q0 -34 -24.5 -58.5t-58.5 -24.5q-35 0 -58 22.5t-25 57.5z" />
    <glyph glyph-name="semicolon" unicode=";" horiz-adv-x="247" 
d="M39 439q2 -35 25 -57.5t58 -22.5q34 0 58.5 24.5t24.5 58.5q0 35 -24.5 59t-59.5 24t-59.5 -25.5t-22.5 -60.5zM39 -104l48 104q-48 23 -47 78q1 35 24.5 59.5t58.5 24.5q36 0 61 -26t25 -62q0 -20 -12 -45l-63 -132z" />
    <glyph glyph-name="less" unicode="&#x3c;" horiz-adv-x="550" 
d="M481 136l-479 165v96l479 165l40 -116l-280 -97l280 -97z" />
    <glyph glyph-name="equal" unicode="=" horiz-adv-x="660" 
d="M617 289v-137h-584v137h584zM617 549v-137h-584v137h584z" />
    <glyph glyph-name="greater" unicode="&#x3e;" horiz-adv-x="550" 
d="M72 136l479 165v96l-479 165l-40 -116l281 -97l-281 -97z" />
    <glyph glyph-name="question" unicode="?" horiz-adv-x="525" 
d="M24 549h264q6 0 9 -1q32 -5 32 -35v-77q0 -34 -31 -34l-6 -1h-36q-71 0 -105 -55q-17 -28 -17 -56v-98h151v72h62q102 0 128 100q4 15 4 28v156q0 70 -35.5 111t-105.5 41h-314v-151zM124 81q-2 34 23.5 59.5t59.5 25.5q35 0 59 -24t24 -59t-24 -59t-59 -24
q-34 0 -57.5 23.5t-25.5 57.5z" />
    <glyph glyph-name="at" unicode="@" horiz-adv-x="722" 
d="M684 152q-42 -152 -230 -152h-189q-109 0 -174 57.5t-65 165.5v250q0 111 65 170q62 57 174 57h189q113 0 176 -58t63 -169v-107q0 -109 -63.5 -165t-173.5 -57h-142q-52 0 -87 33t-35 85v46q0 54 33.5 87.5t87.5 33.5h107q-7 20 -19 20h-208v101h198q61 0 99 -43
q35 -41 35 -103v-137q0 -8 -1 -15q69 21 69 118v100q0 70 -32.5 99.5t-103.5 29.5h-193q-73 0 -105 -28.5t-32 -100.5v-244q0 -70 34 -99q31 -27 103 -27h193q94 0 120 51zM423 328h-111q-19 0 -19 -20v-44q0 -11 3.5 -14t16.5 -6h93q17 0 17 18v66z" />
    <glyph glyph-name="A" unicode="A" horiz-adv-x="615" 
d="M-4 0l194 613q30 94 118 94t118 -94l193 -613h-157l-48 151h-213l-47 -151h-158zM369 294l-71 226l-52 -226h123z" />
    <glyph glyph-name="B" unicode="B" horiz-adv-x="594" 
d="M46 700h361q77 0 114 -47q25 -32 25 -111v-57q0 -101 -60 -133q52 -24 60 -98q2 -18 2 -27v-70q0 -14 -2 -30q-16 -127 -145 -127h-355v700zM196 151h166q34 4 34 39v45q0 35 -37 41h-163q2 -124 0 -125zM196 427h167q35 0 35 38v46q0 15 -10 26.5t-25 11.5h-167v-122z
" />
    <glyph glyph-name="C" unicode="C" horiz-adv-x="535" 
d="M46 156v385q0 91 36 125t128 34h294v-151h-273q-29 -3 -35 -31v-306q0 -33 7 -44q10 -17 38 -17h263v-151h-316q-25 0 -53 11q-89 35 -89 145z" />
    <glyph glyph-name="D" unicode="D" horiz-adv-x="600" 
d="M46 0v700h357q151 0 151 -155v-391q0 -9 -2 -26q-15 -128 -143 -128q-4 -4 -363 0zM351 151q30 0 40 10q8 7 11 40q1 4 1 10v306q0 25 -41 31q-4 1 -12 1h-154v-398h155z" />
    <glyph glyph-name="E" unicode="E" horiz-adv-x="542" 
d="M46 146v402q0 12 3 31q19 121 143 121h311v-151h-272q-3 0 -9 -3q-26 -8 -26 -41v-78h307v-151h-307v-78q0 -43 39 -47h268v-151h-290q-167 0 -167 146z" />
    <glyph glyph-name="F" unicode="F" horiz-adv-x="526" 
d="M46 557q0 109 79 135q24 8 79 8h298v-151h-254q-45 0 -51 -34q-1 -3 -1 -9v-79h306v-151h-306v-276h-150v557z" />
    <glyph glyph-name="G" unicode="G" horiz-adv-x="592" 
d="M46 198v329q0 96 38.5 134.5t133.5 38.5h284v-151h-278q-24 -3 -28 -29v-340q6 -23 32 -29h120q44 0 48 31v220h150v-224q0 -67 -13 -95q-39 -83 -141 -83h-173q-153 0 -170 118q-3 20 -3 80z" />
    <glyph glyph-name="H" unicode="H" horiz-adv-x="605" 
d="M46 0v700h150v-273h212v273h151v-700h-151v276h-212v-276h-150z" />
    <glyph glyph-name="I" unicode="I" horiz-adv-x="242" 
d="M46 0v700h150v-700h-150z" />
    <glyph glyph-name="J" unicode="J" horiz-adv-x="319" 
d="M17 0v151h67q38 0 38 36v513h151v-532q0 -71 -18 -101q-40 -67 -134 -67h-104z" />
    <glyph glyph-name="K" unicode="K" horiz-adv-x="554" 
d="M46 0h150v700h-150v-700zM227 422l153 278h172l-189 -344l195 -356h-173l-157 281q-29 52 -29 73q0 15 10 37z" />
    <glyph glyph-name="L" unicode="L" horiz-adv-x="518" 
d="M46 171v529h150v-517q0 -32 38 -32h267l-1 -151h-279q-15 0 -26 1q-81 7 -115 47.5t-34 122.5z" />
    <glyph glyph-name="M" unicode="M" horiz-adv-x="794" 
d="M46 0v577q0 59 36 95.5t95 36.5q20 0 40 -4q72 -15 88 -88l88 -404l97 404q18 73 87 88q19 4 41 4q59 0 95 -36.5t36 -95.5v-577h-143v501l-109 -422q-5 -21 -16 -43q-25 -52 -84 -52q-76 0 -100 95l-107 422v-501h-144z" />
    <glyph glyph-name="N" unicode="N" horiz-adv-x="598" 
d="M46 0v561q0 61 31 102q34 45 93 45q25 0 50 -9q61 -22 83 -106l106 -405v512h143v-579q0 -54 -34.5 -91.5t-87.5 -39.5q-100 -3 -133 119l-107 401v-510h-144z" />
    <glyph glyph-name="O" unicode="O" horiz-adv-x="584" 
d="M46 549q0 17 4 37q13 62 52 89q36 25 102 25h178q157 0 157 -151v-398q0 -151 -158 -151h-177q-69 0 -103 23q-38 27 -50 91q-4 22 -4 36zM197 199q0 -48 50 -48h92q27 0 38.5 8.5t11.5 34.5v307q0 27 -11 37.5t-39 10.5h-92q-28 0 -38 -10t-10 -38z" />
    <glyph glyph-name="P" unicode="P" horiz-adv-x="571" 
d="M46 0v700h350q66 0 108 -37t42 -102v-172q0 -63 -38 -100t-101 -37h-211v-252h-150zM343 406q28 0 38 5q15 8 15 33v69q-3 31 -39 36h-161v-143h147z" />
    <glyph glyph-name="Q" unicode="Q" horiz-adv-x="587" 
d="M77 49q-31 30 -31 102v398q0 151 156 151h179q157 0 157 -151v-398q0 -54 -23 -93q-27 -47 -77 -52l104 -108h-209l-101 102h-30q-27 0 -66.5 15.5t-58.5 33.5zM246 151h91q27 0 38.5 8.5t11.5 34.5v307q0 28 -11 38t-39 10h-91q-28 0 -39 -10t-11 -38v-302q0 -28 11 -38
t39 -10z" />
    <glyph glyph-name="R" unicode="R" horiz-adv-x="580" 
d="M46 700h352q125 0 143 -115q1 -6 1 -27v-140q0 -19 -1 -29q-20 -97 -113 -111q-16 -2 -26 -2l-24 1l171 -277h-178l-158 261q-15 24 -12 54q8 88 91 88h61q40 0 40 40v64q0 35 -37 41q-3 1 -10 1h-150v-549h-150v700z" />
    <glyph glyph-name="S" unicode="S" horiz-adv-x="527" 
d="M39 562q0 19 4 35q26 103 139 103h306v-151l-265 -1q-22 0 -31 -19q-2 -10 -2 -15v-46q0 -7 1 -10q4 -26 37 -30q3 -1 10 -1h109q117 0 138 -109q3 -16 3 -29v-141q0 -70 -40.5 -109t-110.5 -39h-297v151h262l9 3q26 9 26 38v50q0 30 -32 34h-125q-77 0 -118 62
q-23 35 -23 75v149z" />
    <glyph glyph-name="T" unicode="T" horiz-adv-x="472" 
d="M11 549v151h451v-151h-151v-549h-151v549h-149z" />
    <glyph glyph-name="U" unicode="U" horiz-adv-x="598" 
d="M46 174v526h150v-521q4 -28 52 -28h102q46 0 51 26l1 5v518h150v-525q0 -69 -15 -98q-40 -77 -141 -77h-194q-104 0 -142 79q-14 29 -14 95z" />
    <glyph glyph-name="V" unicode="V" horiz-adv-x="600" 
d="M-11 700h160l149 -498l154 498h159l-207 -622q-29 -87 -104 -87q-76 0 -105 87z" />
    <glyph glyph-name="W" unicode="W" horiz-adv-x="824" 
d="M11 700h146l90 -486l50 384q6 48 36.5 80.5t77.5 32.5q22 0 45 -9q63 -24 73 -104l49 -384l90 486h146l-113 -611q-14 -74 -82 -95q-19 -6 -37 -6q-45 0 -77.5 28.5t-38.5 72.5l-59 416l-47 -416q-5 -44 -39 -72.5t-79 -28.5q-18 0 -37 6q-69 22 -82 95z" />
    <glyph glyph-name="X" unicode="X" horiz-adv-x="601" 
d="M-11 0l230 358l-218 342h179l117 -196l124 196h179l-218 -342l230 -358h-179l-137 215l-128 -215h-179z" />
    <glyph glyph-name="Y" unicode="Y" horiz-adv-x="599" 
d="M-11 700h172l133 -262l143 262h173l-236 -428v-272h-150v272z" />
    <glyph glyph-name="Z" unicode="Z" horiz-adv-x="534" 
d="M47 164l266 385h-277v151h369q83 0 101 -73q4 -16 4 -28q0 -30 -14 -50l-279 -398h272v-151h-331q-14 0 -39 3q-40 5 -67.5 33t-27.5 68q0 27 23 60z" />
    <glyph glyph-name="bracketleft" unicode="[" horiz-adv-x="245" 
d="M46 0v700h175v-105h-42v-490h42v-105h-175z" />
    <glyph glyph-name="backslash" unicode="\" horiz-adv-x="578" 
d="M554 0l-394 700h-136l392 -700h138z" />
    <glyph glyph-name="bracketright" unicode="]" horiz-adv-x="245" 
d="M24 0v105h42v490h-42v105h175v-700h-175z" />
    <glyph glyph-name="asciicircum" unicode="^" horiz-adv-x="569" 
d="M509 315h-107l-117 256l-118 -256h-107l176 366h97z" />
    <glyph glyph-name="underscore" unicode="_" horiz-adv-x="542" 
d="M539 -200h-542v49h542v-49z" />
    <glyph glyph-name="grave" unicode="`" 
d="M241 552h-108l-157 146h165z" />
    <glyph glyph-name="a" unicode="a" horiz-adv-x="530" 
d="M46 119v107q0 59 34.5 91.5t93.5 32.5h178l-1 28q-1 17 -28 21h-275v126h302q6 0 23 -2q94 -11 109 -98q2 -12 2 -23v-279q0 -14 -2 -24q-9 -45 -41 -72t-77 -27h-183q-116 0 -133 95q1 7 -2 24zM206 130q3 -1 7 -1h104q34 0 34 30v37q0 19 -17 27q-4 4 -18 4l-117 -1
q-17 -3 -20 -26v-41q0 -9 6.5 -17.5t20.5 -11.5z" />
    <glyph glyph-name="b" unicode="b" horiz-adv-x="534" 
d="M46 141v580h133v-196h189q53 0 86.5 -38t33.5 -92v-263q0 -40 -17 -70q-35 -62 -104 -62h-189q-62 0 -100 39.5t-32 101.5zM181 155q4 -16 23 -21q2 -1 8 -1h109q5 0 8 1q26 4 26 21v199q0 5 -1 7q-4 31 -34 31h-103q-30 0 -37 -31q-1 -2 -1 -6v-191q0 -6 2 -9z" />
    <glyph glyph-name="c" unicode="c" horiz-adv-x="430" 
d="M46 136v265q0 124 111 124h242v-133h-180q-35 0 -40 -22v-200q0 -13 7 -21q9 -16 30 -16h183v-133h-214q-139 0 -139 136z" />
    <glyph glyph-name="d" unicode="d" horiz-adv-x="534" 
d="M44 132v263q0 4 1 11v10q11 88 92 106q14 3 26 3h190v196h133v-580q0 -65 -33.5 -103t-98.5 -38h-189q-70 0 -105 62q-16 28 -16 70zM354 361q-6 31 -35 31h-102q-31 0 -38 -31q-1 -2 -1 -6v-191q0 -24 25 -30q2 -1 8 -1h109q6 0 8 1q26 4 26 21v206z" />
    <glyph glyph-name="e" unicode="e" horiz-adv-x="521" 
d="M46 402q0 13 3 27q21 96 127 96h181q110 0 124 -105q1 -7 1 -22v-105l-301 -114v-9q0 -37 26 -37h274v-133h-292q-52 0 -79 15q-64 35 -64 121v266zM347 359v5q-4 16 -25 20q-3 1 -7 1h-93q-29 0 -40 -20q-3 -5 -3 -14v-54z" />
    <glyph glyph-name="f" unicode="f" horiz-adv-x="276" 
d="M46 0v601q0 56 44 89q40 30 98 30h84v-127h-53q-3 -1 -4 -1q-36 -6 -36 -39v-28h93v-133h-93v-392h-133z" />
    <glyph glyph-name="g" unicode="g" horiz-adv-x="535" 
d="M46 -196v133h275q31 5 35 33v30h-173q-57 0 -96 32.5t-39 88.5v260q0 74 31.5 109t104.5 35h177q16 0 24 -1q58 -7 79 -29q25 -27 25 -81v-475q0 -16 -2 -23q-20 -112 -133 -112q-1 -1 -79 -1q-77 0 -229 1zM182 162q5 -18 22 -26q11 -3 13 -3h112q27 6 27 35v199
q-2 10 -13 17.5t-22 7.5h-106q-27 0 -33 -28q-1 -2 -1 -7v-189q0 -4 1 -6z" />
    <glyph glyph-name="h" unicode="h" horiz-adv-x="527" 
d="M46 0v721h133v-196h181q52 0 86.5 -34t34.5 -86v-405h-132l-1 367q0 22 -26 25h-105q-32 0 -38 -25v-367h-133z" />
    <glyph glyph-name="i" unicode="i" horiz-adv-x="225" 
d="M46 0v525h133v-525h-133zM29 659q-2 36 22.5 61t60.5 25q34 0 58.5 -24.5t24.5 -58.5q0 -35 -24.5 -59t-59.5 -24q-34 0 -57 23t-25 57z" />
    <glyph glyph-name="j" unicode="j" horiz-adv-x="223" 
d="M-46 -63h51q5 0 7 1q33 4 33 38v549h133l-1 -584q0 -65 -37 -101t-102 -36h-84v133zM26 659q-1 36 23 61t60 25q35 0 59 -24t24 -59q0 -34 -24.5 -58.5t-58.5 -24.5q-33 0 -57.5 23.5t-25.5 56.5z" />
    <glyph glyph-name="k" unicode="k" horiz-adv-x="500" 
d="M46 0v721h133v-721h-133zM196 316l124 209h154l-149 -254l164 -271h-157l-139 232q-14 23 -9 52q3 17 12 32z" />
    <glyph glyph-name="l" unicode="l" horiz-adv-x="225" 
d="M46 0v721h133v-721h-133z" />
    <glyph glyph-name="m" unicode="m" horiz-adv-x="749" 
d="M46 399q0 45 17 71q36 55 105 55h102q77 0 104 -47q27 47 104 47h102q69 0 105 -55q18 -28 18 -71l-1 -399h-133l1 352q0 40 -37 40h-59q-5 0 -13 -3q-21 -8 -21 -31v-358h-133v358q0 27 -28 34h-64q-30 0 -37 -31q0 -1 -1 -4v-5l2 -352h-133v399z" />
    <glyph glyph-name="n" unicode="n" horiz-adv-x="527" 
d="M46 0v400q0 10 2 24q15 101 123 101h185q108 0 123 -101q2 -14 2 -24v-400h-133v355q0 5 -1 8q-4 29 -43 29h-82q-39 0 -43 -29v-363h-133z" />
    <glyph glyph-name="o" unicode="o" horiz-adv-x="535" 
d="M209 133h118q11 0 20.5 12.5t9.5 24.5v186q0 11 -9.5 23.5t-20.5 12.5h-118q-12 0 -21 -12t-9 -24v-187q0 -12 9 -24t21 -12zM46 118v289q0 9 3 24q19 94 129 94h179q59 0 95.5 -30t36.5 -88v-289q0 -58 -36.5 -88t-95.5 -30h-179q-117 0 -129 94z" />
    <glyph glyph-name="p" unicode="p" horiz-adv-x="530" 
d="M46 -196v581q0 10 2 27q11 95 99 111q11 2 18 2h191q11 0 27 -3q101 -19 101 -131v-272q0 -35 -24 -67q-5 -6 -15 -16q-38 -36 -85 -36h-181v-196q0 2 -34 2q-33 0 -99 -2zM180 165q4 -27 33 -31q2 -1 8 -1h101q13 3 21 12q8 13 8 19v201q-4 21 -25 26q-2 1 -5 1h-104
q-23 0 -33 -23q-5 -9 -5 -17v-179q0 -5 1 -8z" />
    <glyph glyph-name="q" unicode="q" horiz-adv-x="530" 
d="M46 119v272q0 112 101 131q16 3 26 3h192q12 0 32 -5q74 -19 85 -108q2 -16 2 -27v-581h-133v196h-181q-48 0 -85 36q-10 9 -20 19q-15 22 -19 64zM208 133h101q5 0 8 1q27 4 33 31q1 3 1 8v179q0 8 -5 17q-10 23 -33 23h-104q-3 0 -5 -1q-21 -5 -25 -26v-201
q0 -26 29 -31z" />
    <glyph glyph-name="r" unicode="r" horiz-adv-x="275" 
d="M46 390q0 135 135 135h90v-133h-58q-34 -5 -34 -28v-364h-133v390z" />
    <glyph glyph-name="s" unicode="s" horiz-adv-x="479" 
d="M39 0v133h237q22 4 26 21q1 2 1 5v11q0 21 -22 26h-115q-30 0 -57 15q-67 38 -67 97v98q0 14 4 31q21 88 125 88h268l1 -133h-242q-4 -1 -10 -4q-15 -15 -15 -21v-12q0 -20 32 -25h119q45 0 80.5 -36t34.5 -81l-2 -96q-1 -32 -18.5 -61.5t-44.5 -43.5q-23 -12 -61 -12
h-274z" />
    <glyph glyph-name="t" unicode="t" horiz-adv-x="272" 
d="M46 0v721h133v-196h89v-133h-89v-392h-133z" />
    <glyph glyph-name="u" unicode="u" horiz-adv-x="527" 
d="M46 125v400h133v-363q4 -29 43 -29h82q39 0 43 29q1 3 1 8v355h133v-400q0 -10 -2 -24q-15 -101 -123 -101h-185q-108 0 -123 101q-2 14 -2 24z" />
    <glyph glyph-name="v" unicode="v" horiz-adv-x="509" 
d="M-11 525h135l130 -356l131 356h135l-177 -475q-22 -58 -89 -58q-66 0 -88 58z" />
    <glyph glyph-name="w" unicode="w" horiz-adv-x="705" 
d="M11 525h129l72 -368l46 283q15 92 95 92q39 0 63.5 -26t30.5 -66l46 -283l73 368h128l-86 -436q-9 -44 -37 -71q-31 -28 -74 -28q-42 0 -70.5 26.5t-35.5 67.5l-42 265l-35 -265q-5 -40 -35 -67t-70 -27q-44 0 -73.5 27.5t-38.5 71.5z" />
    <glyph glyph-name="x" unicode="x" horiz-adv-x="473" 
d="M-4 0l167 276l-149 249h154l65 -118l72 118h155l-150 -249l167 -276h-155l-88 144l-82 -144h-156z" />
    <glyph glyph-name="y" unicode="y" horiz-adv-x="528" 
d="M46 -196v133h266q6 0 8 1q26 6 30 31v31h-172q-41 0 -66 12.5t-48 46.5q-18 26 -18 74v392h133v-350q0 -42 36 -42h94q5 0 8 1q28 5 33 32v359h132v-578q0 -18 -2 -27q-15 -116 -123 -116h-311z" />
    <glyph glyph-name="z" unicode="z" horiz-adv-x="525" 
d="M57 162l251 230h-269v133h338q118 0 118 -102q0 -42 -23 -62l-262 -228h266v-133h-337q-46 0 -78 24q-36 27 -36 71q0 38 32 67z" />
    <glyph glyph-name="braceleft" unicode="{" horiz-adv-x="330" 
d="M37 350q28 0 45.5 21t17.5 49v312q0 83 87 83h106v-63h-13q-31 0 -43 -11t-12 -42v-264q0 -33 -22.5 -57t-55.5 -28q12 -1 26 -7q52 -22 52 -78v-264q0 -31 12 -42t43 -11h13v-63h-106q-87 0 -87 83v312q0 29 -17.5 49t-45.5 21z" />
    <glyph glyph-name="bar" unicode="|" horiz-adv-x="242" 
d="M46 0v700h150v-700h-150z" />
    <glyph glyph-name="braceright" unicode="}" horiz-adv-x="330" 
d="M37 -115v63h12q30 0 42.5 11.5t12.5 41.5v264q0 57 53 78q9 5 25 7q-16 2 -25 7q-53 21 -53 78v264q0 30 -12.5 41.5t-42.5 11.5h-12v63h105q87 0 87 -83v-312q0 -29 18 -49t46 -21q-29 0 -46.5 -20t-17.5 -50v-312q0 -83 -87 -83h-105z" />
    <glyph glyph-name="asciitilde" unicode="~" horiz-adv-x="569" 
d="M510 287q-28 -40 -49 -57q-33 -27 -73 -27q-44 0 -99 32q-62 35 -113 35q-49 0 -81 -71l-36 88q45 84 122 84q24 0 53 -9q21 -6 56 -23q22 -11 40 -18q42 -18 59 -18q31 0 58 33q7 9 28 38z" />
    <glyph glyph-name="Adieresis" unicode="&#xc4;" horiz-adv-x="615" 
d="M-4 0l194 613q30 94 118 94t118 -94l193 -613h-157l-48 151h-213l-47 -151h-158zM369 294l-71 226l-52 -226h123zM485 816h-135v115h135v-115zM276 816h-135v115h135v-115z" />
    <glyph glyph-name="Aring" unicode="&#xc5;" horiz-adv-x="615" 
d="M-4 0l194 613q30 94 118 94t118 -94l193 -613h-157l-48 151h-213l-47 -151h-158zM369 294l-71 226l-52 -226h123zM435 910q0 -45 -35 -74.5t-81 -29.5q-45 0 -80 29.5t-35 74.5q0 44 35 74.5t80 30.5q46 0 81 -30t35 -75zM375 910q0 22 -17 37t-39 15q-23 0 -39.5 -14.5
t-16.5 -37.5t16.5 -38t39.5 -15q24 0 40 15t16 38z" />
    <glyph glyph-name="Ccedilla" unicode="&#xc7;" horiz-adv-x="653" 
d="M620 0h-257l-19 -26q6 0 16.5 2.5t15.5 2.5q38 0 66 -22.5t28 -59.5q0 -48 -45 -74q-37 -22 -88 -22q-50 0 -123 25l23 48q59 -16 82 -16q19 0 35 10.5t16 28.5q0 36 -42 36q-18 0 -43 -7l-22 20l37 54q-38 0 -82 13q-94 28 -145 132q-43 87 -43 197q0 108 39 193
q45 102 134 138q66 27 135 27h280v-134h-291q-128 0 -128 -234q0 -77 29 -134q37 -72 107 -72l285 1v-127z" />
    <glyph glyph-name="Eacute" unicode="&#xc9;" horiz-adv-x="542" 
d="M46 146v402q0 12 3 31q19 121 143 121h311v-151h-272q-3 0 -9 -3q-26 -8 -26 -41v-78h307v-151h-307v-78q0 -43 39 -47h268v-151h-290q-167 0 -167 146zM483 960l-158 -146h-109l102 146h165z" />
    <glyph glyph-name="Ntilde" unicode="&#xd1;" horiz-adv-x="596" 
d="M46 0v561q0 61 31 102q34 45 93 45q25 0 50 -9q61 -22 83 -106l106 -405v512h143v-579q0 -54 -34.5 -91.5t-87.5 -39.5q-100 -3 -133 119l-107 401v-510h-144zM512 961q-21 -143 -117 -143q-39 0 -157 45q-41 0 -50 -47h-70q10 43 12 48q8 27 20 45q35 52 98 52
q19 0 71 -22.5t73 -22.5q40 0 51 45h69z" />
    <glyph glyph-name="Odieresis" unicode="&#xd6;" horiz-adv-x="581" 
d="M46 549q0 17 4 37q13 62 52 89q36 25 102 25h178q157 0 157 -151v-398q0 -151 -158 -151h-177q-69 0 -103 23q-38 27 -50 91q-4 22 -4 36zM197 199q0 -48 50 -48h92q27 0 38.5 8.5t11.5 34.5v307q0 27 -11 37.5t-39 10.5h-92q-28 0 -38 -10t-10 -38zM481 816h-135v115
h135v-115zM272 816h-135v115h135v-115z" />
    <glyph glyph-name="Udieresis" unicode="&#xdc;" horiz-adv-x="593" 
d="M46 174v526h150v-521q4 -28 52 -28h102q46 0 51 26l1 5v518h150v-525q0 -69 -15 -98q-40 -77 -141 -77h-194q-104 0 -142 79q-14 29 -14 95zM478 816h-135v115h135v-115zM269 816h-135v115h135v-115z" />
    <glyph glyph-name="aacute" unicode="&#xe1;" horiz-adv-x="529" 
d="M46 119v107q0 59 34.5 91.5t93.5 32.5h178l-1 28q-1 17 -28 21h-275v126h302q6 0 23 -2q94 -11 109 -98q2 -12 2 -23v-279q0 -14 -2 -24q-9 -45 -41 -72t-77 -27h-183q-116 0 -133 95q1 7 -2 24zM206 130q3 -1 7 -1h104q34 0 34 30v37q0 19 -17 27q-4 4 -18 4l-117 -1
q-17 -3 -20 -26v-41q0 -9 6.5 -17.5t20.5 -11.5zM442 742l-158 -146h-109l102 146h165z" />
    <glyph glyph-name="agrave" unicode="&#xe0;" horiz-adv-x="606" 
d="M46 119v107q0 59 34.5 91.5t93.5 32.5h178l-1 28q-1 17 -28 21h-275v126h302q6 0 23 -2q94 -11 109 -98q2 -12 2 -23v-279q0 -14 -2 -24q-9 -45 -41 -72t-77 -27h-183q-116 0 -133 95q1 7 -2 24zM206 130q3 -1 7 -1h104q34 0 34 30v37q0 19 -17 27q-4 4 -18 4l-117 -1
q-17 -3 -20 -26v-41q0 -9 6.5 -17.5t20.5 -11.5zM95 742l158 -146h109l-102 146h-165z" />
    <glyph glyph-name="acircumflex" unicode="&#xe2;" horiz-adv-x="526" 
d="M46 119v107q0 59 34.5 91.5t93.5 32.5h178l-1 28q-1 17 -28 21h-275v126h302q6 0 23 -2q94 -11 109 -98q2 -12 2 -23v-279q0 -14 -2 -24q-9 -45 -41 -72t-77 -27h-183q-116 0 -133 95q1 7 -2 24zM206 130q3 -1 7 -1h104q34 0 34 30v37q0 19 -17 27q-4 4 -18 4l-117 -1
q-17 -3 -20 -26v-41q0 -9 6.5 -17.5t20.5 -11.5zM462 592h-121l-68 82l-68 -82h-121l122 146h134z" />
    <glyph glyph-name="adieresis" unicode="&#xe4;" horiz-adv-x="523" 
d="M46 119v107q0 59 34.5 91.5t93.5 32.5h178l-1 28q-1 17 -28 21h-275v126h302q6 0 23 -2q94 -11 109 -98q2 -12 2 -23v-279q0 -14 -2 -24q-9 -45 -41 -72t-77 -27h-183q-116 0 -133 95q1 7 -2 24zM206 130q3 -1 7 -1h104q34 0 34 30v37q0 19 -17 27q-4 4 -18 4l-117 -1
q-17 -3 -20 -26v-41q0 -9 6.5 -17.5t20.5 -11.5zM439 597h-135v115h135v-115zM230 597h-135v115h135v-115z" />
    <glyph glyph-name="atilde" unicode="&#xe3;" horiz-adv-x="520" 
d="M46 119v107q0 59 34.5 91.5t93.5 32.5h178l-1 28q-1 17 -28 21h-275v126h302q6 0 23 -2q94 -11 109 -98q2 -12 2 -23v-279q0 -14 -2 -24q-9 -45 -41 -72t-77 -27h-183q-116 0 -133 95q1 7 -2 24zM206 130q3 -1 7 -1h104q34 0 34 30v37q0 19 -17 27q-4 4 -18 4l-117 -1
q-17 -3 -20 -26v-41q0 -9 6.5 -17.5t20.5 -11.5zM461 742q-21 -143 -117 -143q-39 0 -157 45q-41 0 -50 -47h-70q10 43 12 48q8 27 20 45q35 52 98 52q19 0 71 -22.5t73 -22.5q40 0 51 45h69z" />
    <glyph glyph-name="aring" unicode="&#xe5;" horiz-adv-x="606" 
d="M445 505q77 -29 100 -109q11 -39 11 -100v-297h-374q-64 0 -108 43t-44 107q0 65 39 111t103 46h242v28q0 22 -20 46t-70 24h-259v114h312q31 0 68 -13zM413 105v102h-176q-25 0 -42.5 -14.5t-17.5 -38.5q0 -21 17 -35t39 -14h180zM435 690q0 -45 -35 -74.5t-81 -29.5
q-45 0 -80 29.5t-35 74.5q0 44 35 74.5t80 30.5q46 0 81 -30t35 -75zM375 690q0 22 -17 37t-39 15q-23 0 -39.5 -14.5t-16.5 -37.5t16.5 -38t39.5 -15q24 0 40 15t16 38z" />
    <glyph glyph-name="ccedilla" unicode="&#xe7;" horiz-adv-x="544" 
d="M508 0h-181l-19 -26q6 0 16.5 2.5t15.5 2.5q39 0 65 -19q29 -22 29 -60q0 -48 -44 -75q-38 -24 -89 -24q-50 0 -123 25l23 48q59 -16 82 -16q19 0 35 10.5t16 28.5q0 36 -42 36q-18 0 -43 -7l-22 20l38 55q-110 0 -174 73q-61 70 -61 182q0 118 71.5 190t189.5 72h217
v-120h-197q-56 0 -94.5 -44t-38.5 -101t36.5 -99.5t92.5 -42.5h201v-111z" />
    <glyph glyph-name="eacute" unicode="&#xe9;" horiz-adv-x="514" 
d="M46 402q0 13 3 27q21 96 127 96h181q110 0 124 -105q1 -7 1 -22v-105l-301 -114v-9q0 -37 26 -37h274v-133h-292q-52 0 -79 15q-64 35 -64 121v266zM347 359v5q-4 16 -25 20q-3 1 -7 1h-93q-29 0 -40 -20q-3 -5 -3 -14v-54zM445 739l-158 -146h-109l102 146h165z" />
    <glyph glyph-name="egrave" unicode="&#xe8;" horiz-adv-x="517" 
d="M46 402q0 13 3 27q21 96 127 96h181q110 0 124 -105q1 -7 1 -22v-105l-301 -114v-9q0 -37 26 -37h274v-133h-292q-52 0 -79 15q-64 35 -64 121v266zM347 359v5q-4 16 -25 20q-3 1 -7 1h-93q-29 0 -40 -20q-3 -5 -3 -14v-54zM105 742l158 -146h109l-102 146h-165z" />
    <glyph glyph-name="ecircumflex" unicode="&#xea;" horiz-adv-x="520" 
d="M46 402q0 13 3 27q21 96 127 96h181q110 0 124 -105q1 -7 1 -22v-105l-301 -114v-9q0 -37 26 -37h274v-133h-292q-52 0 -79 15q-64 35 -64 121v266zM347 359v5q-4 16 -25 20q-3 1 -7 1h-93q-29 0 -40 -20q-3 -5 -3 -14v-54zM464 596h-121l-68 82l-68 -82h-121l122 146
h134z" />
    <glyph glyph-name="edieresis" unicode="&#xeb;" horiz-adv-x="542" 
d="M46 402q0 13 3 27q21 96 127 96h181q110 0 124 -105q1 -7 1 -22v-105l-301 -114v-9q0 -37 26 -37h274v-133h-292q-52 0 -79 15q-64 35 -64 121v266zM347 359v5q-4 16 -25 20q-3 1 -7 1h-93q-29 0 -40 -20q-3 -5 -3 -14v-54zM442 597h-135v115h135v-115zM233 597h-135v115
h135v-115z" />
    <glyph glyph-name="iacute" unicode="&#xed;" horiz-adv-x="240" 
d="M190 0h-140v518h140v-518zM253 698l-158 -146h-109l102 146h165z" />
    <glyph glyph-name="igrave" unicode="&#xec;" horiz-adv-x="240" 
d="M190 0h-140v518h140v-518z" />
    <glyph glyph-name="icircumflex" unicode="&#xee;" horiz-adv-x="240" 
d="M190 0h-140v518h140v-518zM311 552h-121l-68 82l-68 -82h-121l122 146h134z" />
    <glyph glyph-name="idieresis" unicode="&#xef;" horiz-adv-x="240" 
d="M190 0h-140v518h140v-518zM297 562h-135v115h135v-115zM88 562h-135v115h135v-115z" />
    <glyph glyph-name="ntilde" unicode="&#xf1;" horiz-adv-x="585" 
d="M46 0v400q0 10 2 24q15 101 123 101h185q108 0 123 -101q2 -14 2 -24v-400h-133v355q0 5 -1 8q-4 29 -43 29h-82q-39 0 -43 -29v-363h-133zM460 707q-21 -143 -117 -143q-39 0 -157 45q-41 0 -50 -47h-70q10 43 12 48q8 27 20 45q35 52 98 52q19 0 71 -22.5t73 -22.5
q40 0 51 45h69z" />
    <glyph glyph-name="oacute" unicode="&#xf3;" horiz-adv-x="659" 
d="M209 133h118q11 0 20.5 12.5t9.5 24.5v186q0 11 -9.5 23.5t-20.5 12.5h-118q-12 0 -21 -12t-9 -24v-187q0 -12 9 -24t21 -12zM46 118v289q0 9 3 24q19 94 129 94h179q59 0 95.5 -30t36.5 -88v-289q0 -58 -36.5 -88t-95.5 -30h-179q-117 0 -129 94zM460 698l-158 -146
h-109l102 146h165z" />
    <glyph glyph-name="ograve" unicode="&#xf2;" horiz-adv-x="659" 
d="M209 133h118q11 0 20.5 12.5t9.5 24.5v186q0 11 -9.5 23.5t-20.5 12.5h-118q-12 0 -21 -12t-9 -24v-187q0 -12 9 -24t21 -12zM46 118v289q0 9 3 24q19 94 129 94h179q59 0 95.5 -30t36.5 -88v-289q0 -58 -36.5 -88t-95.5 -30h-179q-117 0 -129 94z" />
    <glyph glyph-name="ocircumflex" unicode="&#xf4;" horiz-adv-x="659" 
d="M209 133h118q11 0 20.5 12.5t9.5 24.5v186q0 11 -9.5 23.5t-20.5 12.5h-118q-12 0 -21 -12t-9 -24v-187q0 -12 9 -24t21 -12zM46 118v289q0 9 3 24q19 94 129 94h179q59 0 95.5 -30t36.5 -88v-289q0 -58 -36.5 -88t-95.5 -30h-179q-117 0 -129 94zM515 552h-121l-68 82
l-68 -82h-121l122 146h134z" />
    <glyph glyph-name="odieresis" unicode="&#xf6;" horiz-adv-x="659" 
d="M209 133h118q11 0 20.5 12.5t9.5 24.5v186q0 11 -9.5 23.5t-20.5 12.5h-118q-12 0 -21 -12t-9 -24v-187q0 -12 9 -24t21 -12zM46 118v289q0 9 3 24q19 94 129 94h179q59 0 95.5 -30t36.5 -88v-289q0 -58 -36.5 -88t-95.5 -30h-179q-117 0 -129 94zM501 562h-135v115h135
v-115zM292 562h-135v115h135v-115z" />
    <glyph glyph-name="otilde" unicode="&#xf5;" horiz-adv-x="659" 
d="M209 133h118q11 0 20.5 12.5t9.5 24.5v186q0 11 -9.5 23.5t-20.5 12.5h-118q-12 0 -21 -12t-9 -24v-187q0 -12 9 -24t21 -12zM46 118v289q0 9 3 24q19 94 129 94h179q59 0 95.5 -30t36.5 -88v-289q0 -58 -36.5 -88t-95.5 -30h-179q-117 0 -129 94zM520 707
q-21 -143 -117 -143q-39 0 -157 45q-41 0 -50 -47h-70q10 43 12 48q8 27 20 45q35 52 98 52q19 0 71 -22.5t73 -22.5q40 0 51 45h69z" />
    <glyph glyph-name="uacute" unicode="&#xfa;" horiz-adv-x="583" 
d="M46 125v400h133v-363q4 -29 43 -29h82q39 0 43 29q1 3 1 8v355h133v-400q0 -10 -2 -24q-15 -101 -123 -101h-185q-108 0 -123 101q-2 14 -2 24zM442 698l-158 -146h-109l102 146h165z" />
    <glyph glyph-name="ugrave" unicode="&#xf9;" horiz-adv-x="583" 
d="M46 125v400h133v-363q4 -29 43 -29h82q39 0 43 29q1 3 1 8v355h133v-400q0 -10 -2 -24q-15 -101 -123 -101h-185q-108 0 -123 101q-2 14 -2 24z" />
    <glyph glyph-name="ucircumflex" unicode="&#xfb;" horiz-adv-x="583" 
d="M46 125v400h133v-363q4 -29 43 -29h82q39 0 43 29q1 3 1 8v355h133v-400q0 -10 -2 -24q-15 -101 -123 -101h-185q-108 0 -123 101q-2 14 -2 24zM482 552h-121l-68 82l-68 -82h-121l122 146h134z" />
    <glyph glyph-name="udieresis" unicode="&#xfc;" horiz-adv-x="583" 
d="M46 125v400h133v-363q4 -29 43 -29h82q39 0 43 29q1 3 1 8v355h133v-400q0 -10 -2 -24q-15 -101 -123 -101h-185q-108 0 -123 101q-2 14 -2 24zM474 562h-135v115h135v-115zM265 562h-135v115h135v-115z" />
    <glyph glyph-name="dagger" unicode="&#x2020;" horiz-adv-x="556" 
d="M520 387h-174v-558h-135v558h-175v113h175v218h135v-218h174v-113z" />
    <glyph glyph-name="degree" unicode="&#xb0;" horiz-adv-x="416" 
d="M365 556q0 -65 -46 -110.5t-111 -45.5q-64 0 -110.5 46t-46.5 110q0 63 43 109.5t106 46.5h7q66 0 112 -45t46 -111zM322 556q0 48 -34 81t-82 33h-6q-46 0 -75.5 -33.5t-29.5 -80.5q0 -48 32.5 -81t80.5 -33q47 0 80.5 33.5t33.5 80.5z" />
    <glyph glyph-name="cent" unicode="&#xa2;" horiz-adv-x="430" 
d="M46 139v266q0 4 1 11v11q6 47 25.5 67.5t66.5 28.5q12 2 18 2h113v79h35v-79h94v-129h-94v-261h94v-135h-94v-58h-35v58h-83q-23 5 -44 12q-53 18 -75 45t-22 82zM216 136h54v260h-52q-30 0 -36 -17q-1 -3 -2 -210q0 -33 36 -33z" />
    <glyph glyph-name="sterling" unicode="&#xa3;" horiz-adv-x="653" 
d="M563 28q-39 -28 -102 -28h-427v135q78 2 104 79q8 24 8 38v24h-111v135h112v134q0 155 147 155h93q69 0 108 -36.5t39 -104.5v-51h-133v6q0 6 -1 9q-3 21 -15 32q-17 12 -27 12h-27q-38 0 -49 -42v-1q-1 -3 -1 -5v-109h169v-134h-168q-1 -13 -5 -44q-10 -52 -56 -96h216
q8 0 12 1q49 4 49 51v9h135v-45q0 -73 -70 -124z" />
    <glyph glyph-name="section" unicode="&#xa7;" horiz-adv-x="515" 
d="M484 261q0 -27 -19 -62q-26 -47 -70 -68q58 -50 58 -125q0 -85 -57 -135t-143 -50q-107 0 -159 73q-36 50 -36 109h122q9 -79 82 -79q30 0 48.5 19.5t18.5 49.5q0 37 -54 66l-143 77q-54 29 -76 61q-25 36 -25 95q0 80 87 129q-49 47 -49 113q0 79 55 128q52 47 132 47
q87 0 137.5 -46t50.5 -133h-118q0 75 -72 75q-26 0 -45 -14q-22 -15 -22 -40q0 -34 35 -52l150 -79q57 -30 82 -62q30 -38 30 -97zM369 239q0 33 -54 62l-135 72q-16 -6 -27.5 -22.5t-11.5 -33.5q0 -38 42 -61l146 -81q40 23 40 64z" />
    <glyph glyph-name="bullet" unicode="&#x2022;" horiz-adv-x="341" 
d="M331 351q0 -68 -46.5 -115t-113.5 -47q-69 0 -115 46.5t-46 115.5t46 114.5t115 45.5q67 0 113.5 -46.5t46.5 -113.5z" />
    <glyph glyph-name="paragraph" unicode="&#xb6;" horiz-adv-x="556" 
d="M539 -190h-113v805h-100v-805h-113v537q-97 0 -154 39q-67 45 -67 138t71 138q60 38 159 38h317v-890z" />
    <glyph glyph-name="germandbls" unicode="&#xdf;" horiz-adv-x="586" 
d="M554 552q0 -73 -10 -101q-15 -43 -64 -64q71 -36 71 -111v-153q0 -60 -53 -94q-45 -29 -108 -29q-52 0 -90 13q-54 19 -54 62v138h109v-61q2 -44 28 -44q37 0 37 72v21q0 54 -6 78q-11 45 -45 45l-119 -1v112l89 1q75 1 75 65q0 36 -17 61q-20 29 -55 29h-123l1 -591
h-142v321h-42v114h42v265h315q69 0 115 -40t46 -108z" />
    <glyph glyph-name="registered" unicode="&#xae;" horiz-adv-x="757" 
d="M537 10h-295q-94 0 -153 48q-63 52 -60 144q1 43 1 297q0 98 56.5 149.5t155.5 51.5h295q99 0 155.5 -51.5t56.5 -149.5v-291q0 -97 -56.5 -147.5t-155.5 -50.5zM654 496q0 60 -27 84.5t-88 24.5h-298q-62 0 -89 -24t-27 -85v-285q0 -59 29 -84q26 -22 87 -22h298
q60 0 87.5 23.5t27.5 82.5v285zM467 138l-151 114v-114h-92v425h212q56 0 89.5 -31t33.5 -86v-47q0 -51 -32 -81.5t-83 -30.5h-21l199 -149h-155zM467 447q0 23 -31 23h-120v-91h127q14 0 18 3t6 16v49z" />
    <glyph glyph-name="copyright" unicode="&#xa9;" horiz-adv-x="757" 
d="M517 10h-255q-94 0 -153 48q-63 52 -60 144q1 43 1 297q0 98 56.5 149.5t155.5 51.5h255q99 0 155.5 -51.5t56.5 -149.5v-291q0 -97 -56.5 -147.5t-155.5 -50.5zM634 496q0 60 -27 84.5t-88 24.5h-258q-62 0 -89 -24t-27 -85v-285q0 -59 29 -84q26 -22 87 -22h258
q60 0 87.5 23.5t27.5 82.5v285zM238 249v212q0 99 89 99h194v-106h-144q-29 0 -32 -18v-160q0 -10 5 -17q7 -12 24 -12h147v-107h-172q-111 0 -111 109z" />
    <glyph glyph-name="trademark" unicode="&#x2122;" horiz-adv-x="884" 
d="M781 232v254l-105 -229q-3 -7 -16 -18.5t-28 -11.5q-30 0 -45 34l-9 14l-98 214v-257h-85l1 431q2 18 15.5 31.5t31.5 13.5q21 0 36 -20q6 -7 16 -30l137 -296l137 303q20 44 54 44q18 0 30.5 -14.5t12.5 -33.5v-429h-85zM236 615v-382h-85v382h-136v85h358v-85h-137z
" />
    <glyph glyph-name="acute" unicode="&#xb4;" 
d="M382 698l-158 -146h-109l102 146h165z" />
    <glyph glyph-name="dieresis" unicode="&#xa8;" 
d="M351 562h-135v115h135v-115zM142 562h-135v115h135v-115z" />
    <glyph glyph-name="AE" unicode="&#xc6;" horiz-adv-x="1206" 
d="M1169 0h-341q-70 0 -130 26v-26h-187l-1 160h-277l-121 -160h-173l542 700h219v-29q63 29 149 29h316v-124h-292q-72 0 -118 -48t-46 -116h460v-124h-458q0 -64 42 -112q47 -55 109 -55h307v-121zM513 282v246l-187 -246h187z" />
    <glyph glyph-name="Oslash" unicode="&#xd8;" horiz-adv-x="831" 
d="M801 351q0 -370 -381 -370q-162 0 -255 61l-51 -54l-59 -1l76 81q-101 93 -101 291q0 179 105 272q100 88 282 88q175 0 263 -62l56 60h61l-83 -88q87 -85 87 -278zM565 533q-55 61 -154 61q-102 0 -156 -71q-49 -63 -49 -168q0 -114 35 -169zM623 355q0 84 -32 142
l-322 -344q53 -47 158 -47q110 0 158 73q38 60 38 176z" />
    <glyph glyph-name="plusminus" unicode="&#xb1;" horiz-adv-x="584" 
d="M544 269h-195v-126h-113v126h-196v113h196v124h113v-124h195v-113zM544 0h-504v112h504v-112z" />
    <glyph glyph-name="yen" unicode="&#xa5;" horiz-adv-x="703" 
d="M735 700l-221 -291h88v-116h-175v-72h175v-117h-175v-106h-165v106h-182v117h182v72h-182v116h96l-218 291h203l182 -279l185 279h207z" />
    <glyph glyph-name="mu" unicode="&#xb5;" horiz-adv-x="611" 
d="M546 0h-136v77q-51 -91 -133 -91q-43 0 -71 25v-217h-141v738h141v-330q0 -98 89 -98q48 0 79 30.5t31 78.5v319h141v-532z" />
    <glyph glyph-name="mu" unicode="&#x3bc;" horiz-adv-x="611" 
d="M546 0h-136v77q-51 -91 -133 -91q-43 0 -71 25v-217h-141v738h141v-330q0 -98 89 -98q48 0 79 30.5t31 78.5v319h141v-532z" />
    <glyph glyph-name="ordfeminine" unicode="&#xaa;" horiz-adv-x="364" 
d="M334 362h-225q-40 0 -65.5 28.5t-25.5 69.5t22.5 71.5t62.5 30.5h145v18q0 13 -8.5 26t-19 16.5t-26.5 3.5h-155v74h156q76 0 106 -32q33 -37 33 -113v-193zM341 335l-1 -72h-320v72h321zM248 431v67h-106q-36 0 -36 -35q0 -32 34 -32h108z" />
    <glyph glyph-name="ordmasculine" unicode="&#xba;" horiz-adv-x="395" 
d="M377 533q0 -85 -47.5 -131.5t-132.5 -46.5q-179 0 -179 179q0 77 53 123q50 43 128 43q81 0 129 -42q49 -45 49 -125zM371 335l-1 -72h-350v72h351zM284 533q0 41 -23.5 68.5t-64.5 27.5q-40 0 -63 -29t-23 -70q0 -45 21 -75q25 -33 68 -33q85 0 85 111z" />
    <glyph glyph-name="ae" unicode="&#xe6;" horiz-adv-x="912" 
d="M875 -3l-693 2q-64 0 -108 43t-44 107q0 65 39 111t103 46h242v28q0 22 -20 46t-70 24h-259v114h265q121 0 171 -50l6 -6q64 56 135 56h232v-107h-170q-64 0 -96 -27q-35 -30 -35 -81h300v-108h-299q0 -46 28 -73.5t98 -27.5h175v-97zM413 105v102h-176
q-25 0 -42.5 -14.5t-17.5 -38.5q0 -21 17 -35t39 -14h180z" />
    <glyph glyph-name="oslash" unicode="&#xf8;" horiz-adv-x="659" 
d="M629 261q0 -135 -76.5 -206t-212.5 -71q-112 0 -190 44l-66 -76l-53 -1l86 100q-87 72 -87 212q0 121 92 191q84 64 209 64q92 0 161 -32l79 92h55l-98 -113q101 -65 101 -204zM408 388q-35 22 -81 22q-64 0 -103.5 -44t-39.5 -109q0 -58 25 -100zM474 262q0 60 -35 100
l-205 -237q41 -38 97 -38q143 0 143 175z" />
    <glyph glyph-name="questiondown" unicode="&#xbf;" horiz-adv-x="525" 
d="M479 151h-264q-6 0 -9 1q-32 5 -32 35v77q0 34 31 34l6 1h36q71 0 105 55q17 28 17 56v98h-151v-72h-62q-102 0 -128 -100q-4 -15 -4 -28v-156q0 -70 35.5 -111t105.5 -41h314v151zM379 619q2 -34 -23.5 -59.5t-59.5 -25.5q-35 0 -59 24t-24 59t24 59t59 24
q34 0 57.5 -23.5t25.5 -57.5z" />
    <glyph glyph-name="exclamdown" unicode="&#xa1;" horiz-adv-x="258" 
d="M206 508h-153v-508h153v508zM212 619q2 -35 -22.5 -60t-59.5 -25t-59.5 24t-24.5 59q0 34 24.5 58.5t58.5 24.5q35 0 58 -23t25 -58z" />
    <glyph glyph-name="logicalnot" unicode="&#xac;" horiz-adv-x="584" 
d="M544 108h-113v199h-391v113h504v-312z" />
    <glyph glyph-name="florin" unicode="&#x192;" horiz-adv-x="556" 
d="M516 718l-23 -109q-36 15 -59 15q-42 0 -59 -44q-7 -18 -16 -81l-3 -22h120v-98h-134l-58 -352q-18 -106 -53 -161q-49 -76 -141 -76q-31 0 -82 16l-19 6l25 111l14 -8q16 -9 36 -9q38 0 54 32q10 17 18 66l65 375h-122v98h136l25 106q12 56 41 94q45 60 132 60
q41 0 103 -19z" />
    <glyph glyph-name="guillemotleft" unicode="&#xab;" horiz-adv-x="556" 
d="M468 75l-167 145v120l167 144v-116l-99 -88l99 -88v-117zM256 75l-169 145v120l168 144l1 -116l-100 -88l100 -88v-117z" />
    <glyph glyph-name="guillemotright" unicode="&#xbb;" horiz-adv-x="556" 
d="M468 220l-167 -145v117l100 88l-100 88v117l167 -145v-120zM256 220l-169 -145v117l100 88l-100 88v117l169 -145v-120z" />
    <glyph glyph-name="ellipsis" unicode="&#x2026;" horiz-adv-x="750" 
d="M694 0h-141v127h141v-127zM444 0h-141v127h141v-127zM194 0h-141v127h141v-127z" />
    <glyph glyph-name="nonbreakingspace" unicode="&#xa0;" horiz-adv-x="282" 
 />
    <glyph glyph-name="Agrave" unicode="&#xc0;" horiz-adv-x="624" 
d="M-4 0l194 613q30 94 118 94t118 -94l193 -613h-157l-48 151h-213l-47 -151h-158zM369 294l-71 226l-52 -226h123zM142 959l158 -146h109l-102 146h-165z" />
    <glyph glyph-name="Atilde" unicode="&#xc3;" horiz-adv-x="616" 
d="M-4 0l194 613q30 94 118 94t118 -94l193 -613h-157l-48 151h-213l-47 -151h-158zM369 294l-71 226l-52 -226h123zM531 960q-21 -143 -117 -143q-39 0 -157 45q-41 0 -50 -47h-70q10 43 12 48q8 27 20 45q35 52 98 52q19 0 71 -22.5t73 -22.5q40 0 51 45h69z" />
    <glyph glyph-name="Otilde" unicode="&#xd5;" horiz-adv-x="584" 
d="M46 549q0 17 4 37q13 62 52 89q36 25 102 25h178q157 0 157 -151v-398q0 -151 -158 -151h-177q-69 0 -103 23q-38 27 -50 91q-4 22 -4 36zM197 199q0 -48 50 -48h92q27 0 38.5 8.5t11.5 34.5v307q0 27 -11 37.5t-39 10.5h-92q-28 0 -38 -10t-10 -38zM513 960
q-21 -143 -117 -143q-39 0 -157 45q-41 0 -50 -47h-70q10 43 12 48q8 27 20 45q35 52 98 52q19 0 71 -22.5t73 -22.5q40 0 51 45h69z" />
    <glyph glyph-name="OE" unicode="&#x152;" horiz-adv-x="1310" 
d="M1280 0h-341q-137 0 -221 87q-92 -99 -298 -99q-197 0 -291 85q-99 90 -99 286q0 177 106 268q99 85 281 85q220 0 308 -98q57 57 145 77q39 9 90 9h316v-124h-292q-72 0 -118 -48t-46 -116h460v-124h-458q0 -64 42 -112q47 -55 109 -55h307v-121zM623 355q0 107 -52 167
q-55 65 -160 65q-102 0 -156 -67q-49 -61 -49 -165q0 -113 36 -167q50 -75 185 -75q111 0 157 69q39 57 39 173z" />
    <glyph glyph-name="oe" unicode="&#x153;" horiz-adv-x="975" 
d="M939 -3h-244q-78 0 -140 60q-73 -73 -215 -73q-143 0 -223 67q-87 72 -87 212q0 121 92 191q84 64 209 64q143 0 222 -73q68 73 153 73h232v-107h-170q-64 0 -96 -27q-35 -30 -35 -81h300v-108h-299q0 -46 28 -73.5t98 -27.5h175v-97zM474 262q0 66 -40.5 107t-106.5 41
q-64 0 -103.5 -44t-39.5 -109q0 -71 37 -118q41 -52 110 -52q143 0 143 175z" />
    <glyph glyph-name="endash" unicode="&#x2013;" horiz-adv-x="590" 
d="M33 282v137h524v-137h-524z" />
    <glyph glyph-name="emdash" unicode="&#x2014;" horiz-adv-x="504" 
d="M24 254v130h455v-130h-455z" />
    <glyph glyph-name="quotedblleft" unicode="&#x201c;" horiz-adv-x="412" 
d="M229 568q-10 -20 -10 -47q0 -36 25 -61.5t61 -25.5q35 0 58.5 24.5t24.5 59.5q1 54 -49 79l49 103h-94zM35 568l63 132h95l-48 -103q48 -25 47 -79q-1 -35 -24.5 -59.5t-58.5 -24.5q-36 0 -60.5 26t-24.5 62q0 23 11 46z" />
    <glyph glyph-name="quotedblright" unicode="&#x201d;" horiz-adv-x="412" 
d="M24 435h96l63 132q11 23 11 44q0 36 -24.5 62.5t-60.5 26.5q-35 0 -59 -25t-25 -60q-1 -53 48 -77zM219 435l49 103q-48 22 -48 77q0 36 24 60.5t60 24.5t60 -26t24 -62q0 -17 -10 -45l-64 -132h-95z" />
    <glyph glyph-name="quoteleft" unicode="&#x2018;" horiz-adv-x="218" 
d="M35 568l63 132h95l-48 -103q48 -25 47 -79q-1 -35 -24.5 -59.5t-58.5 -24.5q-36 0 -60.5 26t-24.5 62q0 23 11 46z" />
    <glyph glyph-name="quoteright" unicode="&#x2019;" horiz-adv-x="218" 
d="M24 435l49 103q-49 24 -48 77q1 35 25 60t59 25q36 0 60.5 -26.5t24.5 -62.5q0 -21 -11 -44l-63 -132h-96z" />
    <glyph glyph-name="divide" unicode="&#xf7;" horiz-adv-x="590" 
d="M230 616h131v-131h-131v131zM230 218h131v-132h-131v132zM557 419v-137h-524v137h524z" />
    <glyph glyph-name="ydieresis" unicode="&#xff;" horiz-adv-x="523" 
d="M46 -196v133h266q6 0 8 1q26 6 30 31v31h-172q-41 0 -66 12.5t-48 46.5q-18 26 -18 74v392h133v-350q0 -42 36 -42h94q5 0 8 1q28 5 33 32v359h132v-578q0 -18 -2 -27q-15 -116 -123 -116h-311zM435 595h-135v115h135v-115zM226 595h-135v115h135v-115z" />
    <glyph glyph-name="Ydieresis" unicode="&#x178;" horiz-adv-x="601" 
d="M-11 700h172l133 -262l143 262h173l-236 -428v-272h-150v272zM476 816h-135v115h135v-115zM267 816h-135v115h135v-115z" />
    <glyph glyph-name="currency" unicode="&#xa4;" horiz-adv-x="556" 
d="M559 142l-66 -66l-99 97q-51 -32 -112 -32q-60 0 -121 32l-98 -97l-66 66l98 98q-32 58 -32 119q0 59 31 111l-97 100l66 66l98 -98q54 33 118 33q40 0 62 -6t54 -27l98 98l66 -66l-97 -98q20 -33 26 -54.5t6 -60.5t-6 -60.5t-26 -56.5zM381 356q0 48 -27 79.5t-74 31.5
q-50 0 -77 -31t-27 -81q0 -47 28.5 -79.5t74.5 -32.5q45 0 73.5 33.5t28.5 79.5z" />
    <glyph glyph-name="guilsinglleft" unicode="&#x2039;" horiz-adv-x="333" 
d="M250 75l-168 145v120l168 144v-116l-100 -88l100 -88v-117z" />
    <glyph glyph-name="guilsinglright" unicode="&#x203a;" horiz-adv-x="333" 
d="M250 220l-168 -145v117l100 88l-100 88v117l168 -145v-120z" />
    <glyph glyph-name="daggerdbl" unicode="&#x2021;" horiz-adv-x="556" 
d="M520 45h-175v-216h-135v216h-174v113h174v238h-174v113h174v209h135v-209h175v-113h-175v-238h175v-113z" />
    <glyph glyph-name="periodcentered" unicode="&#xb7;" horiz-adv-x="250" 
d="M194 310h-141v127h141v-127z" />
    <glyph glyph-name="periodcentered" unicode="&#x2219;" horiz-adv-x="250" 
d="M194 310h-141v127h141v-127z" />
    <glyph glyph-name="quotesinglbase" unicode="&#x201a;" horiz-adv-x="278" 
d="M209 18q0 -128 -138 -164v52q40 12 57 32.5t17 61.5h-77v128h141v-110z" />
    <glyph glyph-name="quotedblbase" unicode="&#x201e;" horiz-adv-x="500" 
d="M437 128l-1 -110q-1 -79 -50 -123q-29 -26 -87 -41v52q40 12 56.5 32.5t16.5 61.5h-77v128h142zM205 128l-1 -110q-1 -79 -50 -123q-29 -26 -87 -41v52q40 12 56.5 32.5t16.5 61.5h-76v128h141z" />
    <glyph glyph-name="Acircumflex" unicode="&#xc2;" horiz-adv-x="620" 
d="M-4 0l194 613q30 94 118 94t118 -94l193 -613h-157l-48 151h-213l-47 -151h-158zM369 294l-71 226l-52 -226h123zM492 814h-121l-68 82l-68 -82h-121l122 146h134z" />
    <glyph glyph-name="Ecircumflex" unicode="&#xca;" horiz-adv-x="546" 
d="M46 146v402q0 12 3 31q19 121 143 121h311v-151h-272q-3 0 -9 -3q-26 -8 -26 -41v-78h307v-151h-307v-78q0 -43 39 -47h268v-151h-290q-167 0 -167 146zM495 814h-121l-68 82l-68 -82h-121l122 146h134z" />
    <glyph glyph-name="Aacute" unicode="&#xc1;" horiz-adv-x="622" 
d="M-4 0l194 613q30 94 118 94t118 -94l193 -613h-157l-48 151h-213l-47 -151h-158zM369 294l-71 226l-52 -226h123zM481 960l-158 -146h-109l102 146h165z" />
    <glyph glyph-name="Edieresis" unicode="&#xcb;" horiz-adv-x="547" 
d="M46 146v402q0 12 3 31q19 121 143 121h311v-151h-272q-3 0 -9 -3q-26 -8 -26 -41v-78h307v-151h-307v-78q0 -43 39 -47h268v-151h-290q-167 0 -167 146zM475 816h-135v115h135v-115zM266 816h-135v115h135v-115z" />
    <glyph glyph-name="Egrave" unicode="&#xc8;" horiz-adv-x="546" 
d="M46 146v402q0 12 3 31q19 121 143 121h311v-151h-272q-3 0 -9 -3q-26 -8 -26 -41v-78h307v-151h-307v-78q0 -43 39 -47h268v-151h-290q-167 0 -167 146zM142 959l158 -146h109l-102 146h-165z" />
    <glyph glyph-name="Iacute" unicode="&#xcd;" horiz-adv-x="297" 
d="M46 0v700h150v-700h-150zM290 875l-158 -146h-109l102 146h165z" />
    <glyph glyph-name="Icircumflex" unicode="&#xce;" horiz-adv-x="288" 
d="M66 0v700h150v-700h-150zM329 726h-121l-68 82l-68 -82h-121l122 146h134z" />
    <glyph glyph-name="Idieresis" unicode="&#xcf;" horiz-adv-x="288" 
d="M76 0v700h150v-700h-150zM318 736h-135v115h135v-115zM109 736h-135v115h135v-115z" />
    <glyph glyph-name="Igrave" unicode="&#xcc;" horiz-adv-x="250" 
d="M46 0v700h150v-700h-150zM-48 959l158 -146h109l-102 146h-165z" />
    <glyph glyph-name="Oacute" unicode="&#xd3;" horiz-adv-x="575" 
d="M46 549q0 17 4 37q13 62 52 89q36 25 102 25h178q157 0 157 -151v-398q0 -151 -158 -151h-177q-69 0 -103 23q-38 27 -50 91q-4 22 -4 36zM197 199q0 -48 50 -48h92q27 0 38.5 8.5t11.5 34.5v307q0 27 -11 37.5t-39 10.5h-92q-28 0 -38 -10t-10 -38zM535 875l-158 -146
h-109l102 146h165z" />
    <glyph glyph-name="Ocircumflex" unicode="&#xd4;" horiz-adv-x="590" 
d="M46 549q0 17 4 37q13 62 52 89q36 25 102 25h178q157 0 157 -151v-398q0 -151 -158 -151h-177q-69 0 -103 23q-38 27 -50 91q-4 22 -4 36zM197 199q0 -48 50 -48h92q27 0 38.5 8.5t11.5 34.5v307q0 27 -11 37.5t-39 10.5h-92q-28 0 -38 -10t-10 -38zM498 814h-121l-68 82
l-68 -82h-121l122 146h134z" />
    <glyph glyph-name="Ograve" unicode="&#xd2;" horiz-adv-x="588" 
d="M46 549q0 17 4 37q13 62 52 89q36 25 102 25h178q157 0 157 -151v-398q0 -151 -158 -151h-177q-69 0 -103 23q-38 27 -50 91q-4 22 -4 36zM197 199q0 -48 50 -48h92q27 0 38.5 8.5t11.5 34.5v307q0 27 -11 37.5t-39 10.5h-92q-28 0 -38 -10t-10 -38zM142 959l158 -146
h109l-102 146h-165z" />
    <glyph glyph-name="Uacute" unicode="&#xda;" horiz-adv-x="604" 
d="M46 174v526h150v-521q4 -28 52 -28h102q46 0 51 26l1 5v518h150v-525q0 -69 -15 -98q-40 -77 -141 -77h-194q-104 0 -142 79q-14 29 -14 95zM475 875l-158 -146h-109l102 146h165z" />
    <glyph glyph-name="Ucircumflex" unicode="&#xdb;" horiz-adv-x="599" 
d="M46 174v526h150v-521q4 -28 52 -28h102q46 0 51 26l1 5v518h150v-525q0 -69 -15 -98q-40 -77 -141 -77h-194q-104 0 -142 79q-14 29 -14 95zM489 814h-121l-68 82l-68 -82h-121l122 146h134z" />
    <glyph glyph-name="Ugrave" unicode="&#xd9;" horiz-adv-x="595" 
d="M46 174v526h150v-521q4 -28 52 -28h102q46 0 51 26l1 5v518h150v-525q0 -69 -15 -98q-40 -77 -141 -77h-194q-104 0 -142 79q-14 29 -14 95zM142 959l158 -146h109l-102 146h-165z" />
    <glyph glyph-name="circumflex" unicode="&#x2c6;" 
d="M367 552h-121l-68 82l-68 -82h-121l122 146h134z" />
    <glyph glyph-name="tilde" unicode="&#x2dc;" 
d="M375 700q-21 -143 -117 -143q-39 0 -157 45q-41 0 -50 -47h-70q10 43 12 48q8 27 20 45q35 52 98 52q19 0 71 -22.5t73 -22.5q40 0 51 45h69z" />
    <glyph glyph-name="macron" unicode="&#xaf;" 
d="M364 552h-371v74h371v-74z" />
    <glyph glyph-name="macron" unicode="&#x2c9;" 
d="M364 552h-371v74h371v-74z" />
    <glyph glyph-name="cedilla" unicode="&#xb8;" 
d="M263 -130q0 -49 -44 -76q-37 -23 -89 -23q-50 0 -123 25l23 48q59 -16 82 -16q19 0 35 10.5t16 28.5q0 36 -42 36q-18 0 -43 -7l-22 20l58 84h64l-41 -56q20 5 32 5q39 0 65 -19q29 -22 29 -60z" />
    <glyph glyph-name="Scaron" unicode="&#x160;" horiz-adv-x="534" 
d="M39 562q0 19 4 35q26 103 139 103h306v-151l-265 -1q-22 0 -31 -19q-2 -10 -2 -15v-46q0 -7 1 -10q4 -26 37 -30q3 -1 10 -1h109q117 0 138 -109q3 -16 3 -29v-141q0 -70 -40.5 -109t-110.5 -39h-297v151h262l9 3q26 9 26 38v50q0 30 -32 34h-125q-77 0 -118 62
q-23 35 -23 75v149zM480 814h-121l-68 82l-68 -82h-121l122 146h134z" />
    <glyph glyph-name="scaron" unicode="&#x161;" horiz-adv-x="475" 
d="M39 0v133h237q22 4 26 21q1 2 1 5v11q0 21 -22 26h-115q-30 0 -57 15q-67 38 -67 97v98q0 14 4 31q21 88 125 88h268l1 -133h-242q-4 -1 -10 -4q-15 -15 -15 -21v-12q0 -20 32 -25h119q45 0 80.5 -36t34.5 -81l-2 -96q-1 -32 -18.5 -61.5t-44.5 -43.5q-23 -12 -61 -12
h-274zM443 596h-121l-68 82l-68 -82h-121l122 146h134z" />
    <glyph glyph-name="brokenbar" unicode="&#xa6;" horiz-adv-x="280" 
d="M197 447h-113v290h113v-290zM197 -19h-113v291h113v-291z" />
    <glyph glyph-name="Eth" unicode="&#xd0;" horiz-adv-x="722" 
d="M685 375q0 -148 -66 -252q-77 -123 -216 -123h-328v315h-80v125h80v278h329q140 0 215 -105q66 -92 66 -238zM531 367q0 226 -150 226h-157v-153h166v-125h-166v-191l155 1q82 1 122 85q30 65 30 157z" />
    <glyph glyph-name="eth" unicode="&#xf0;" horiz-adv-x="611" 
d="M579 301q0 -204 -130 -277q-67 -38 -147 -38q-121 0 -195 75.5t-74 197.5q0 111 64 185q68 79 177 79q75 0 131 -53q-19 41 -40 66q-15 17 -56 55l-107 -48l-64 53l108 47q-45 30 -73 44l109 50q46 -21 67 -36l11 -8l102 44l63 -52l-101 -44q155 -161 155 -340zM434 263
q0 63 -33.5 102t-95.5 39q-60 0 -94 -44q-32 -40 -32 -102q0 -66 30 -107q34 -47 97 -47q65 0 99 48q29 42 29 111z" />
    <glyph glyph-name="Yacute" unicode="&#xdd;" horiz-adv-x="599" 
d="M-11 700h172l133 -262l143 262h173l-236 -428v-272h-150v272zM491 964l-158 -146h-109l102 146h165z" />
    <glyph glyph-name="yacute" unicode="&#xfd;" horiz-adv-x="525" 
d="M46 -196v133h266q6 0 8 1q26 6 30 31v31h-172q-41 0 -66 12.5t-48 46.5q-18 26 -18 74v392h133v-350q0 -42 36 -42h94q5 0 8 1q28 5 33 32v359h132v-578q0 -18 -2 -27q-15 -116 -123 -116h-311zM464 735l-158 -146h-109l102 146h165z" />
    <glyph glyph-name="Thorn" unicode="&#xde;" horiz-adv-x="667" 
d="M628 395q0 -97 -56 -164q-59 -71 -154 -71l-191 -1v-159h-151v718h151v-98h190q95 0 153 -64.5t58 -160.5zM475 381q0 60 -21 86q-24 28 -82 28h-145v-211h156q43 0 67.5 26.5t24.5 70.5z" />
    <glyph glyph-name="thorn" unicode="&#xfe;" horiz-adv-x="611" 
d="M579 281q0 -123 -50 -202q-59 -93 -175 -93q-54 0 -87.5 18.5t-64.5 64.5v-277h-141v926h141v-255q58 84 156 84q103 0 165 -84q56 -76 56 -182zM434 271q0 65 -27 105q-32 48 -93 48q-117 0 -117 -163q0 -67 25 -108q31 -51 93 -51q119 0 119 169z" />
    <glyph glyph-name="minus" unicode="&#xad;" horiz-adv-x="584" 
d="M544 197h-505v113h505v-113z" />
    <glyph glyph-name="minus" unicode="&#x2212;" horiz-adv-x="584" 
d="M544 197h-505v113h505v-113z" />
    <glyph glyph-name="multiply" unicode="&#xd7;" horiz-adv-x="584" 
d="M546 80l-81 -79l-173 172l-172 -172l-81 79l174 174l-174 172l80 80l173 -173l173 173l79 -80l-172 -173z" />
    <glyph glyph-name="Lslash" unicode="&#x141;" horiz-adv-x="611" 
d="M584 0h-508v310l-97 -55v79l97 55v329h151v-254l127 74v-79l-127 -73v-256h357v-130z" />
    <glyph glyph-name="lslash" unicode="&#x142;" horiz-adv-x="278" 
d="M297 445l-87 -50v-395h-141v323l-87 -50v79l87 50v316h141v-244l87 50v-79z" />
    <glyph glyph-name="HT" horiz-adv-x="282" 
 />
    <glyph glyph-name="nonmarkingreturn" horiz-adv-x="282" 
 />
    <glyph glyph-name="Zcaron" unicode="&#x17d;" horiz-adv-x="544" 
d="M47 164l266 385h-277v151h369q83 0 101 -73q4 -16 4 -28q0 -30 -14 -50l-279 -398h272v-151h-331q-14 0 -39 3q-40 5 -67.5 33t-27.5 68q0 27 23 60zM495 894l-122 -146h-134l-122 146h121l68 -82l68 82h121z" />
    <glyph glyph-name="zcaron" unicode="&#x17e;" horiz-adv-x="520" 
d="M57 162l251 230h-269v133h338q118 0 118 -102q0 -42 -23 -62l-262 -228h266v-133h-337q-46 0 -78 24q-36 27 -36 71q0 38 32 67zM465 739l-122 -146h-134l-122 146h121l68 -82l68 82h121z" />
    <glyph glyph-name="notequal" unicode="&#x2260;" horiz-adv-x="571" 
d="M562 141h-314l-94 -167l-52 29l76 138h-162v59h195l79 142h-274v58h307l94 171l52 -29l-78 -142h171v-58h-203l-80 -142h283v-59z" />
    <glyph glyph-name="infinity" unicode="&#x221e;" horiz-adv-x="742" 
d="M716 276q0 -57 -41 -102.5t-98 -45.5q-58 0 -117 36q-26 16 -47 35q-10 9 -42 41q-22 -23 -68 -63q-66 -48 -137 -48q-58 0 -98.5 45t-40.5 103q0 61 43.5 102t104.5 41q67 0 162 -80l35 -30l10 8q25 23 77 65q54 37 111 37q60 0 103 -42t43 -102zM662 270q0 38 -27 67
t-65 29q-52 0 -127 -61l-27 -22l-9 -8l10 -11q39 -43 85 -69q28 -16 66 -16q39 0 66.5 26t27.5 65zM337 275l-9 8q-47 42 -88 64q-34 18 -65 18q-39 0 -67 -27t-28 -66t28.5 -66t67.5 -27q65 0 141 76z" />
    <glyph glyph-name="lessequal" unicode="&#x2264;" horiz-adv-x="571" 
d="M547 122l-518 239v64l518 240v-65l-448 -207l448 -207v-64zM547 0h-518v58h518v-58z" />
    <glyph glyph-name="greaterequal" unicode="&#x2265;" horiz-adv-x="571" 
d="M547 361l-517 -240v65l449 207l-449 206v66l517 -240v-64zM547 0h-517v58h517v-58z" />
    <glyph glyph-name="partialdiff" unicode="&#x2202;" horiz-adv-x="514" 
d="M480 417q0 -161 -49 -278q-66 -160 -205 -160q-85 0 -142 58.5t-57 143.5q0 93 55 162q59 75 150 75q70 0 147 -62l10 -8q11 72 11 111q0 70 -19 135q-25 83 -72 111q-39 23 -87 23q-26 0 -49 -8q-5 -2 -46 -19l-19 -8l-40 53l12 4l23 8l12 3l22 5q40 9 62 9
q138 0 214 -114q67 -99 67 -244zM380 311q-53 65 -109 65q-75 0 -118 -78q-35 -64 -35 -146q0 -56 18 -93q24 -49 74 -49q92 0 138 144q25 79 32 157z" />
    <glyph glyph-name="summation" unicode="&#x2211;" horiz-adv-x="742" 
d="M723 121l-3 -14l-17 -72l-18 -89l-7 -58l-75 11l-588 -3l363 414l-361 471l83 -6h542l7 -167h-23l-3 13q-14 59 -47 85q-29 21 -92 21h-287l281 -371l-304 -352h404q48 0 78 37q21 25 41 80h26z" />
    <glyph glyph-name="product" unicode="&#x220f;" horiz-adv-x="856" 
d="M835 -105h-319v25q100 0 100 75v728h-371v-733q0 -70 100 -70v-25h-319v25q100 0 100 70v676q0 42 -26 66t-68 24h-4v25h804v-25h-4q-94 0 -94 -101v-660q0 -75 101 -75v-25z" />
    <glyph glyph-name="pi" unicode="&#x3c0;" horiz-adv-x="571" 
d="M551 158q0 -65 -28 -114q-35 -60 -95 -60q-47 0 -74 49q-30 55 -27 134l3 77l18 173h-116l-1 -16q-6 -98 -27 -240q-15 -102 -28 -137q-16 -44 -61 -44q-25 0 -41 17t-16 43q0 13 8 21l50 67q17 17 21 48l30 241h-23q-47 0 -69 -13q-18 -12 -46 -54h-19q15 45 23 63
q14 31 37 56q33 37 80 37h393v-89h-130l-1 -13q-12 -156 -12 -207v-8q0 -109 65 -109q55 0 63 78h23z" />
    <glyph glyph-name="integral" unicode="&#x222b;" horiz-adv-x="285" 
d="M303 894q0 -47 -58 -47q-6 0 -14 4l-22 17q-4 1 -10 5q-23 0 -21 -34l1 -22l15 -187q5 -62 5 -233q0 -158 -5 -223q-13 -175 -53 -248q-20 -36 -80 -36q-25 0 -42 20t-17 45q0 20 23 34q15 9 25 9q12 0 48 -32q37 3 34 93l-8 261l1 285q0 133 11 199q24 147 99 147
q28 0 48 -15t20 -42z" />
    <glyph glyph-name="Omega" unicode="&#x3a9;" horiz-adv-x="799" 
d="M765 0h-306l16 158q52 21 78 48q69 70 69 211q0 119 -51 187q-58 78 -172 78q-111 0 -169 -79q-52 -70 -52 -185q0 -142 72 -214q27 -27 77 -46l16 -158h-308v168h18q6 -24 10 -32q8 -20 21 -24q26 -10 108 -8l92 2l-2 28q-89 27 -131 65q-95 85 -95 215q0 140 105 224
q97 78 240 78q142 0 239 -78q105 -84 105 -223q0 -73 -34 -139q-36 -69 -97 -103q-40 -22 -94 -39l-2 -28q16 0 47 -1t47 -1q87 0 105 7q21 14 29 45l3 12h16v-168z" />
    <glyph glyph-name="Omega" unicode="&#x2126;" horiz-adv-x="799" 
d="M765 0h-306l16 158q52 21 78 48q69 70 69 211q0 119 -51 187q-58 78 -172 78q-111 0 -169 -79q-52 -70 -52 -185q0 -142 72 -214q27 -27 77 -46l16 -158h-308v168h18q6 -24 10 -32q8 -20 21 -24q26 -10 108 -8l92 2l-2 28q-89 27 -131 65q-95 85 -95 215q0 140 105 224
q97 78 240 78q142 0 239 -78q105 -84 105 -223q0 -73 -34 -139q-36 -69 -97 -103q-40 -22 -94 -39l-2 -28q16 0 47 -1t47 -1q87 0 105 7q21 14 29 45l3 12h16v-168z" />
    <glyph glyph-name="radical" unicode="&#x221a;" horiz-adv-x="571" 
d="M536 947l-155 -989l-254 524l-100 -49l-18 35l154 75l204 -417l131 827z" />
    <glyph glyph-name="approxequal" unicode="&#x2248;" horiz-adv-x="571" 
d="M548 385q-52 -84 -149 -84l-18 3l-179 50q-18 5 -38 5q-59 0 -104 -63l-45 30q67 82 153 82l33 -3l174 -48l25 -4q62 0 110 57zM548 228q-53 -84 -147 -84q-10 0 -21 3l-178 50q-18 5 -40 5q-56 0 -102 -62l-46 28q64 83 154 83q16 0 35 -5l172 -46l24 -4q62 0 110 58z
" />
    <glyph glyph-name="approxequal" unicode="&#x22f2;" horiz-adv-x="571" 
d="M548 385q-52 -84 -149 -84l-18 3l-179 50q-18 5 -38 5q-59 0 -104 -63l-45 30q67 82 153 82l33 -3l174 -48l25 -4q62 0 110 57zM548 228q-53 -84 -147 -84q-10 0 -21 3l-178 50q-18 5 -40 5q-56 0 -102 -62l-46 28q64 83 154 83q16 0 35 -5l172 -46l24 -4q62 0 110 58z
" />
    <glyph glyph-name="Delta" unicode="&#x394;" horiz-adv-x="636" 
d="M632 0h-626l333 717zM502 52l-200 484l-226 -484h426z" />
    <glyph glyph-name="Delta" unicode="&#x2206;" horiz-adv-x="636" 
d="M632 0h-626l333 717zM502 52l-200 484l-226 -484h426z" />
    <glyph glyph-name="lozenge" unicode="&#x25ca;" horiz-adv-x="514" 
d="M485 392l-201 -392h-64l-201 392l200 383h65zM421 392l-169 325l-170 -325l170 -334z" />
    <glyph glyph-name="fraction" unicode="&#x2044;" horiz-adv-x="585" 
d="M536 716l-422 -728l-59 -1l423 729h58z" />
    <glyph glyph-name="fi" unicode="&#xf001;" horiz-adv-x="611" 
d="M543 595h-142v130h142v-130zM86 593q0 39 21 72.5t57 48.5t89 13l63 -2v-114l-19 1q-40 2 -55.5 -6t-14.5 -32l1 -42h91v-100h-91v-432l-141 2zM543 0h-142v532h142v-532z" />
    <glyph glyph-name="fl" unicode="&#xf002;" horiz-adv-x="611" 
d="M86 593q0 39 21 72.5t57 48.5t89 13l63 -2v-114l-19 1q-40 2 -55.5 -6t-14.5 -32l1 -42h91v-100h-91v-432h-141zM543 0h-142v718h142v-718z" />
    <glyph glyph-name="apple" unicode="&#xf000;" horiz-adv-x="822" 
d="M555 708q0 -65 -45 -117t-109 -52q0 75 40 122.5t114 57.5v-11zM724 176q-82 -204 -176 -204q-21 0 -42 9l-42 18q-9 4 -33 4q-37 0 -55 -5l-44 -19q-19 -8 -40 -8q-58 0 -115 85q-88 131 -88 262q0 95 49 159q54 70 146 70q33 0 81 -19q31 -12 49 -12t45 10q63 23 95 23
q96 0 150 -74q-83 -65 -83 -145q0 -112 103 -154z" />
    <glyph glyph-name="dotlessi" unicode="&#x131;" horiz-adv-x="240" 
d="M190 0h-140v518h140v-518z" />
    <glyph glyph-name="breve" unicode="&#x2d8;" 
d="M360 698q-16 -146 -192 -146q-94 0 -139 58q-31 40 -31 88h70q17 -70 107 -70q48 0 71 10q36 16 43 60h71z" />
    <glyph glyph-name="dotaccent" unicode="&#x2d9;" 
d="M246 562h-135v115h135v-115z" />
    <glyph glyph-name="ring" unicode="&#x2da;" 
d="M295 620q0 -45 -35 -74.5t-81 -29.5q-45 0 -80 29.5t-35 74.5q0 44 35 74.5t80 30.5q46 0 81 -30t35 -75zM235 620q0 22 -17 37t-39 15q-23 0 -39.5 -14.5t-16.5 -37.5t16.5 -38t39.5 -15q24 0 40 15t16 38z" />
    <glyph glyph-name="hungarumlaut" unicode="&#x2dd;" 
d="M521 698l-157 -146h-109l101 146h165zM276 698l-158 -146h-108l100 146h166z" />
    <glyph glyph-name="ogonek" unicode="&#x2db;" 
d="M326 -205q-63 -24 -117 -24q-49 0 -87 22q-46 25 -46 71q0 95 116 136h91v-4q-37 -18 -68 -49q-38 -39 -38 -72q0 -21 14.5 -34.5t35.5 -13.5q27 0 80 17z" />
    <glyph glyph-name="caron" unicode="&#x2c7;" 
d="M367 698l-122 -146h-134l-122 146h121l68 -82l68 82h121z" />
    <glyph glyph-name="glyph105" horiz-adv-x="280" 
 />
  </font>
</defs>
</svg>
