<?xml version="1.0" standalone="no"?>
<!DOCTYPE svg PUBLIC "-//W3C//DTD SVG 1.1//EN" "http://www.w3.org/Graphics/SVG/1.1/DTD/svg11.dtd" >
<svg xmlns="http://www.w3.org/2000/svg" xmlns:xlink="http://www.w3.org/1999/xlink" version="1.1">
<metadata>
Created by FontForge 20160407 at Fri Aug 12 07:04:11 2016
 By Jimmy Wärting
Copyright (c) 2001 Nintendo of America // font by POP! multimedia
</metadata>
<defs>
<font id="Unown" horiz-adv-x="480" >
  <font-face 
    font-family="UnownTM"
    font-weight="400"
    font-stretch="normal"
    units-per-em="1000"
    panose-1="0 0 4 0 0 0 0 0 0 0"
    ascent="800"
    descent="-200"
    x-height="640"
    cap-height="758"
    bbox="-2 0 659 800"
    underline-thickness="20"
    underline-position="-143"
    unicode-range="U+0020-00A0"
  />
<missing-glyph horiz-adv-x="500" 
d="M63 0v800h375v-800h-375zM125 63h250v675h-250v-675z" />
    <glyph glyph-name=".notdef" horiz-adv-x="500" 
d="M63 0v800h375v-800h-375zM125 63h250v675h-250v-675z" />
    <glyph glyph-name=".null" horiz-adv-x="0" 
 />
    <glyph glyph-name="nonmarkingreturn" horiz-adv-x="367" 
 />
    <glyph glyph-name="space" unicode=" " horiz-adv-x="367" 
 />
    <glyph glyph-name="A" unicode="A" 
d="M315 611q-26 18 -58 26l-18 83q-14 24 -29 24q-14 0 -28 -23l-4 -20l-14 -65q-43 -13 -77 -46q-52 -53 -51 -126q1 -76 53 -129q4 -3 10 -7v0l-66 -230q-5 -19 6 -31.5t30 -14.5q26 -3 37 22l25 109q20 -27 51 -36q14 -5 31 -4q42 1 79 41l27 -111q8 -33 44 -22t27 43
l-63 232l2 2q3 3 11 9q51 52 51 127q0 74 -51 126q-12 12 -25 21zM286 551q41 -41 41 -88t-33 -80.5t-81 -33.5q-47 0 -80 33.5t-33 80.5q0 39 26 73q3 4 7 7q33 34 80 34q41 0 73 -26zM213 332h6q1 2 1 0q19 -2 28 -17q20 -15 20 -48q-2 -71 -55 -70q-35 1 -52 28
q-11 19 -11 37q-1 20 9 40q7 10 14 14v1l7 7q15 7 31 8h2zM179 463q0 -34 34 -34q8 0 15 3q20 12 20 31v4q-1 2 -1 3q-8 27 -34 27q-14 0 -24 -10t-10 -24z" />
    <glyph glyph-name="B" unicode="B" horiz-adv-x="531" 
d="M265 722v23h-80v-23q-49 -11 -86 -48q-52 -52 -52 -126q0 -62 39 -111.5t99 -62.5v-20q-36 -10 -64 -39q-1 -1 -3 -2q-31 -33 -38 -73h-42q-34 -5 -32 -37q1 -32 32 -32h42l4 -14h1q16 -46 55.5 -74t87.5 -28q64 0 108.5 44.5t44.5 108.5q0 60 -42 105l-2 2
q-31 31 -71 41l-1 18q51 11 87.5 48.5t47.5 88.5h33q15 0 23 11q9 8 10 22q0 14 -9.5 25t-23.5 11h-32q-9 54 -49 93t-87 49zM339 548q0 -47 -33 -80.5t-81 -33.5q-47 0 -80 33.5t-33 80.5q0 42 27.5 74.5t67.5 37.5q6 2 18 2q51 0 82.5 -33t31.5 -81zM187 296q18 9 41 9
q41 0 69.5 -28.5t28.5 -68.5q0 -41 -28.5 -69t-69.5 -29v0q-40 1 -68.5 29t-28.5 69q0 58 56 88zM249 524q2 1 2 2t-1.5 2t-1.5 3q0 5 12 17q2 3 2 5q0 7 -13 20q-9 9 -24 9q-34 0 -34 -34t34 -34q15 0 24 10z" />
    <glyph glyph-name="C" unicode="C" horiz-adv-x="715" 
d="M647 436q1 15 2 41q-13 124 -105.5 206.5t-216.5 82.5q-135 0 -229.5 -94.5t-94.5 -229.5t95 -229q83 -82 190 -93v-54q0 -14 11 -23t25 -9q33 2 33 32v84q0 14 -10.5 27t-24.5 13h-2q-98 0 -171 73.5t-73 176.5q0 83 45 145l56 -55q-28 -43 -28 -96q0 -72 52 -125
t127 -53q66 0 115 41.5t61 106.5h109q32 8 34 32zM575 473h-73q-10 49 -48 87q-53 52 -126 52h-10q-58 -2 -102 -40l-56 56q71 63 166 63h13q90 -4 158 -66.5t78 -151.5zM296 544q15 3 32 3q35 0 63 -18q10 -7 17 -14q34 -34 34 -81t-33.5 -80.5t-80.5 -33.5q-32 0 -58 16
q-3 1 -3 2q-53 36 -53 96q0 38 23 68.5t59 41.5zM328 468q-34 0 -34 -34q0 -14 10 -24.5t24 -10.5t24 10t10 25q0 14 -10 24t-24 10z" />
    <glyph glyph-name="D" unicode="D" horiz-adv-x="588" 
d="M418 480l2 -2q13 -36 13 -80q0 -62 -27 -114q-17 -33 -47 -63q-68 -69 -164 -74q-25 -1 -31 -7q-24 -11 -16 -39q0 -11 8 -17q1 0 1 -1h2l2 -1q7 -3 19 -6h2q135 0 229.5 94.5t94.5 229.5v16q-1 13 -1 19q-12 112 -93 194q-93 94 -226 95h-4q-21 -1 -32 -20h-1v-133
q-52 -10 -91 -49q-52 -52 -52 -126t52 -126t126 -52q73 0 126 52t53 126t-53 126q-38 39 -92 49v76q81 -11 141 -72q43 -42 59 -95zM298 396q0 -46 -33 -80q-2 -3 -4 -3q-32 -31 -77 -31q-46 0 -76 31q-2 0 -4 3q-34 33 -34 80q0 48 33 81t81 33t81 -33t33 -81zM218 396
q0 34 -34 34q-14 0 -24 -10t-10 -24t10 -24t24 -10q34 0 34 34z" />
    <glyph glyph-name="E" unicode="E" horiz-adv-x="638" 
d="M506 711l-14 7q-25 2 -74 2q-103 2 -123 -19q-41 -32 -46 -87q-1 -7 -1 -31v-8q-51 -11 -88 -50t-47 -90h-67q-15 0 -25 -9.5t-11 -22.5t5 -20q1 -1 2 -4q12 -12 29 -12h67l3 -12q12 -46 47 -81t80 -46v-17l8 -38q1 -5 3 -10q10 -34 24 -50t52 -27q20 -6 33 -6l127 -1
q13 0 23 8.5t9 26.5v2q-1 19 -17 29l-19 13h-111q-43 8 -51 36q-1 5 -3 12v20q50 8 88.5 44t51.5 85q1 8 3 12h66q31 0 32 32q1 23 -21 34q-5 1 -11 2h-66q-10 53 -49.5 92t-92.5 49v2q4 17 7 34q6 22 18 28t39 6l112 2q23 1 23 34v4q-1 14 -15 25zM351 496q37 -25 46 -61
q5 -16 5 -34q0 -13 -1 -19t-3.5 -14t-4.5 -13v0q-24 -50 -71 -63q-16 -5 -33 -5q-48 0 -83 35q-26 28 -30 61q-1 12 -1 18q0 19 5 34q3 21 28 46q33 34 81 34q33 0 62 -19zM317 383q6 8 6 18q0 14 -10 25q-9 7 -20 9h-10q-10 -1 -19 -9q-10 -11 -10 -25q0 -11 5 -18
q8 -16 29 -16q14 0 25 9q2 2 4 7z" />
    <glyph glyph-name="F" unicode="F" horiz-adv-x="633" 
d="M552 577l-13 4h-184q-11 48 -48 86q-52 52 -126 52q-75 0 -127 -51.5t-52 -126.5q0 -74 50 -124l2 -2q3 -2 9 -7l4 -4q35 -30 78 -38l1 -180q0 -30 -23 -30l-4 -1q-16 -1 -27 -14l-3 -3q-7 -11 -7 -23q0 -5 1 -8q4 -8 11 -12l1 -1h-1q11 -7 24 -8q35 -3 53 17q9 11 11 23
l3 -7q3 -9 8.5 -16.5t15.5 -13.5q15 -9 35 -6q11 2 17 7q10 8 12 10q5 8 7 18q1 15 -17 33q-4 3 -7 5q-9 0 -28 9q-2 2 -5 7l-2 72h85q31 0 33 33q1 31 -33 36h-87l-1 54q50 10 89 48q0 1 16 19l63 -68l12 -10q12 -8 22 -7q17 2 33 19l131 148q15 40 -32 61zM292 520
q-8 -36 -31 -59q-34 -34 -81 -34q-48 0 -81 33.5t-33 80.5t33.5 80.5t80.5 33.5q48 0 80.5 -33t32.5 -81q0 -7 -1 -21zM354 499l2 10h108q8 1 12 -3l1 -1q0 -2 1 -4q1 -3 -46 -50l-4 -3q-6 -5 -8 -6q-4 0 -9 4q-13 11 -38 34zM239 277zM155 517l1 -1q10 -10 24 -10t23.5 10
t9.5 19q1 2 1 6q0 14 -10 24t-24 10t-24.5 -10t-10.5 -24q0 -13 10 -24z" />
    <glyph glyph-name="G" unicode="G" 
d="M364 731l-4 2q-70 34 -144 33q-8 1 -13 0q-8 0 -11 -1q-82 -4 -146 -47q-10 -7 -20 -18q-8 -23 -2 -32q2 -5 6 -9l47 -82q-42 -47 -42 -115q0 -70 45 -119l7 -7l2 -3q21 -19 45 -32l-110 -52q-3 -2 -8 -7q-8 -7 -10 -17q-4 -10 3 -23h1l-1 -1q5 -8 13 -12l310 -150
q17 -8 30 -2l4 2q8 6 15 20q7 28 -21 41l-242 118l157 76q25 12 34 18q15 9 30 24q7 6 12 13q40 48 40 113q0 62 -38 110l54 99q3 6 1 18q-3 19 -23 29q-1 2 -3 2q-8 5 -18 11zM216 691q63 0 113 -26l-27 -48q-40 23 -89 23q-45 0 -84 -20l-25 46q20 10 48.5 17.5t63.5 7.5z
M125 534q21 27 57 37q5 2 6 2q5 1 14 2h5q3 1 6 0q44 0 62 -18q51 -31 51 -95q0 -46 -32 -81q-1 0 -5 -4q-25 -22 -57 -27q-3 0 -8 -1q-8 0 -11 -1q-4 1 -11 1h-1q-28 3 -49 17h-1q-33 21 -46 60q-6 18 -6 36q0 42 26 72zM247 462q0 21 -14 27q-8 7 -20 7q-14 0 -24.5 -10
t-10.5 -24q0 -15 10 -25t25 -10q3 0 7 2q27 5 27 33z" />
    <glyph glyph-name="H" unicode="H" horiz-adv-x="733" 
d="M376 720v0q-24 -7 -29 -33q-5 -27 17 -41q80 -12 139 -70.5t70 -136.5h-72q-11 49 -49 86q-52 52 -126 52t-125 -52q-38 -37 -49 -86h-74q9 62 51 114t100 77q15 11 15 30q0 10 -3 22q-11 19 -38 18q-57 -23 -106 -71q-95 -94 -95 -229q0 -7 1 -10q0 -126 94 -220
q72 -71 166 -89q23 -2 29 27q5 27 -17 44q-79 15 -135.5 77t-62.5 141h73q9 -54 49 -95.5t94 -50.5q15 -3 33 -3q74 0 126 52q41 41 51 97h72q-6 -70 -52 -127.5t-113 -81.5q-22 -12 -14 -37q6 -33 34 -32q70 22 126 78q88 88 93 201q0 5 1 16v13q0 21 -1 30v5q-1 1 -1 4
q-11 107 -88 186.5t-184 94.5zM440 400v-7.5v-5.5q-2 -15 -9 -33l-3 -6q-10 -18 -21 -29q-33 -33 -81 -33q-45 0 -80 33q-30 29 -32 68q-1 1 -1 13q-1 19 7 39q0 2 2 5q8 20 24 36q33 33 80 33q48 0 80.5 -32.5t33.5 -80.5zM351 375q9 12 9 25q0 34 -34 34q-14 0 -24 -10
t-10 -24q0 -21 17 -30q8 -5 17 -5q10 0 18 5q4 2 7 5z" />
    <glyph glyph-name="I" unicode="I" horiz-adv-x="432" 
d="M209 722q-1 19 -11 28q-2 1 -4 3q-10 6 -20 5q-14 -1 -23.5 -10.5t-9.5 -26.5v-142q-50 -9 -91 -49q-52 -53 -52 -126q0 -63 40.5 -113t102.5 -62v-155q3 -18 13 -25.5t23 -6.5q33 1 33 32v155q43 7 79 37.5t53 71.5q12 31 12 66q0 73 -52 126q-40 40 -92 49v142zM95 485
q36 33 81 33q6 0 18 -1q5 -1 16 -4q24 -6 47 -28q33 -33 33 -81q0 -40 -22 -66q-1 -3 -11 -15q-25 -23 -63 -32h-18q-44 0 -81 32q-33 39 -32 81q0 46 32 81zM210 407q-1 19 -16 26q-9 6 -18 6q-15 0 -25 -10t-10 -25q0 -14 10.5 -24t24.5 -10q10 0 18 4q15 8 16 27v3v3z
" />
    <glyph glyph-name="J" unicode="J" horiz-adv-x="505" 
d="M431 723l-4 4q-11 7 -17 8h-1q-10 3 -13.5 0.5t-7.5 -6.5l-3 -2l-55 -63q-44 31 -102 31q-75 0 -126.5 -51.5t-51.5 -126.5q0 -73 52 -126v-1q38 -36 85 -47l4 -143l-2 -9q0 -2 -3.5 -10t-3.5 -9q-15 -27 -39 -27q-46 2 -56 41l-2 8q2 12 -3 23t-16 16v0q-8 4 -20 4
q-26 -2 -33 -24q-2 -4 -2.5 -7.5t-0.5 -7.5q0 -3 2 -7h-1l3 -19q3 -16 16 -42q37 -59 102 -65q1 1 3 0q65 -2 102 46q28 35 30 78v8l-3 145q68 15 111 74q30 43 31 95v6q0 37 -14 71v0q-4 10 -13 25l57 68q3 4 4 6q2 6 2 10v5q-1 1 -1 2q-2 11 -9 17zM115 517q0 47 33 80.5
t80 33.5t81 -33q26 -26 31 -61q2 -13 2 -20q0 -48 -33.5 -80.5t-80.5 -32.5q-30 0 -52 12q-6 3 -9 5q-9 6 -19 15q-1 2 -2 2q-31 34 -31 79zM194 517q0 -13 10 -24q2 -2 7 -6q9 -5 17 -5q29 0 35 32v3q0 15 -10 25t-25 10t-24.5 -10.5t-9.5 -24.5z" />
    <glyph glyph-name="K" unicode="K" horiz-adv-x="544" 
d="M147 722v-142q-52 -9 -92 -50q-51 -52 -51 -125q0 -74 51 -126q40 -41 92 -49v-155q0 -15 13 -26q9 -7 23 -7q33 1 33 33v154q52 10 92 50q27 27 41 63q25 -27 71 -67q12 -11 22 -15q16 -5 35 10q5 5 7 12q1 1 1 6q2 14 -7 25l-92 101q24 22 68 68q3 2 5 4q11 11 20 25
q6 9 8 15q3 9 0 19q-4 8 -9 14q-13 14 -30 11q-8 0 -14 -4h-1q-3 -1 -7 -3l-6 -4l-77 -77q-14 27 -35 48q-41 41 -92 50v142q-1 0 -1 1q-1 18 -12 28q-2 1 -3 2q-9 6 -21 5q-12 0 -22 -10t-10 -26zM200 517q3 -1 16 -4q26 -8 46 -28q33 -33 33 -80v-10q-1 -15 -6 -27
q-4 -20 -26.5 -43t-62.5 -33q-14 -2 -18 -1q-49 1 -81.5 33.5t-32.5 80.5q0 47 34 81t80 32q6 0 18 -1zM147 405q0 -15 10 -25t24 -10q13 1 25 10q8 9 10 21v7q-2 12 -10 21q-13 10 -25 10q-13 0 -23.5 -10t-10.5 -24z" />
    <glyph glyph-name="L" unicode="L" horiz-adv-x="481" 
d="M233 674h-2q-45 -1 -50 -3q-29 -5 -56 -21q-44 38 -60 50q-2 2 -6 4.5t-8 3.5q-9 3 -19 -3q-2 -1 -6 -4l-14 -16l-4 -7q-7 -21 7 -34q25 -23 53 -46q-31 -44 -31 -102q0 -64 41 -114t103 -61l-1 -162q2 -5 2 -8q11 -65 107 -59q23 0 70 2q22 2 68 4q43 1 42 45q0 3 -1 8
q-1 1 -1 2v3q-15 28 -33 41q-29 19 -61 25q-59 12 -123 -44v143q52 10 92 49q51 52 51 126q0 70 -45 119.5t-115 58.5zM216 610q6 0 17 -1q16 -4 45 -18q6 -3 18 -14q33 -34 33 -81q0 -48 -33 -81q-23 -22 -63 -32h-17q-40 0 -62 17q-8 4 -19 15q-34 34 -33 81q0 48 33.5 81
t80.5 33zM240 520q-14 11 -25 11q-14 0 -24 -10.5t-10 -24.5q0 -34 34 -34q12 0 25 10q8 9 10 21v6q-2 12 -10 21z" />
    <glyph glyph-name="M" unicode="M" horiz-adv-x="744" 
d="M650 329q0 12 -2 35q-9 97 -72 171l35 40q4 2 8 9q4 15 -11.5 31.5t-32.5 12.5q-4 0 -5.5 -1t-5.5 -3l-5 -4l-33 -36q-85 69 -200 69t-200 -69l-37 34q-8 4 -16 5q-2 0 -4 1h-1q-22 3 -34 -11q0 -1 -1 -1q-11 -16 -5 -32q4 -9 9 -13l36 -36q-69 -83 -71 -193v-9
q0 -97 48 -172q16 -13 35 -6q19 6 23 22q4 15 0 29q-33 53 -33 125v11q3 96 73 167q59 59 137 70l1 -72q-47 -10 -86 -48q-49 -49 -52 -117q-1 -3 -1 -9q0 -74 52.5 -126t126.5 -52t126 51.5t52 126.5v9q-3 61 -44 108.5t-100 57.5l-2 72q89 -11 152 -79.5t66 -158.5v-11
q0 -76 -37 -128q-4 -19 2.5 -32.5t27.5 -15.5q11 -1 22.5 4t18.5 17q40 69 40 157zM212 329v9q5 42 35.5 73t78.5 31q35 0 63 -18q10 -7 17 -14q30 -30 33 -72q1 -3 1 -9q0 -48 -33.5 -81t-80.5 -33t-80.5 33.5t-33.5 80.5zM301 353q-5 -5 -9 -15v-9q0 -14 10 -24.5
t24 -10.5t24 10t10 25q0 3 -1 9q-9 25 -33 25q-15 0 -25 -10z" />
    <glyph glyph-name="N" unicode="N" horiz-adv-x="723" 
d="M69 641q-13 -6 -17 -14l-3 -11l-42 -469q1 -3 2 -5h-2q5 -27 33 -32q10 -2 16 0q20 5 25 28l2 18h-2q2 1 2 2l30 386l55 -53q-23 -39 -23 -89q0 -9 1 -13q3 -65 51 -113q53 -52 126 -52q56 0 96 27l103 -98l15 -2q15 -2 33 -1q25 1 34 29l40 479v2q1 12 -7 20t-24 10
q-43 3 -43 -22q-1 -2 0 -5l-35 -415l-61 59q24 36 27 82v13q0 74 -52 126t-126 52q-57 0 -99 -30l-99 96q-15 8 -49 -2q-3 -2 -7 -3zM323 515q47 2 80.5 -32t33.5 -81v-7q-1 -4 -1 -6q-1 -15 -8 -32q-1 -1 -1 -4q-35 -65 -104 -65q-47 0 -80 33q-30 30 -33 68q-1 4 -1 13
q0 21 9 43v1q12 31 42 50.5t63 18.5zM288 402q0 -14 10.5 -24.5t24.5 -10.5q34 0 34 35q0 14 -10 24t-24 10q-15 0 -25 -10t-10 -24z" />
    <glyph glyph-name="O" unicode="O" horiz-adv-x="732" 
d="M2 400q0 -135 95.5 -229.5t228.5 -94.5q134 0 229 94.5t95 229.5q0 22 -1 35q-12 123 -105 206t-218 83q-135 0 -229.5 -94.5t-94.5 -229.5zM76 374q-1 15 -1 24q-1 104 73 177.5t178 73.5q105 0 178 -73t73 -178q0 -104 -74 -177q-61 -62 -143 -72v75q56 11 96 52.5
t47 97.5q2 16 2 26q0 74 -52.5 126t-126.5 52t-126 -52t-52 -126q0 -63 40.5 -113.5t102.5 -62.5v-75q-85 12 -146 75.5t-69 149.5zM389 495q7 -5 18 -15q33 -33 33 -80q0 -10 -2 -26q-9 -33 -31 -55q-33 -33 -81 -33q-34 0 -61 17q-54 35 -52 97q1 48 33 80.5t80 32.5
q36 0 63 -18zM292 400q0 -15 10 -25l1 -1q11 -9 23 -9q13 0 23 9q1 0 2 1q9 11 9 25q0 34 -34 34q-14 0 -24 -10t-10 -24z" />
    <glyph glyph-name="P" unicode="P" horiz-adv-x="469" 
d="M68 703h-1q-14 12 -29 12h-2.5h-2.5q-11 -4 -18 -12q-9 -13 -9 -25q0 -13 12 -26l61 -61q-29 -43 -29 -97q0 -24 5 -41v-333q0 -7 2 -12q3 -9 11.5 -16t23.5 -7q33 2 33 35v228q45 -33 103 -33q75 0 127 52t52 127q0 74 -52 125.5t-127 51.5q-57 0 -99 -29zM177 595
q23 12 51 12q47 0 80.5 -33t33.5 -80v-7.5v-5.5q-5 -44 -37.5 -72.5t-76.5 -28.5q-45 0 -80 33q-26 25 -32 64q-2 10 -1 17q-1 18 6 38q1 2 2 6q4 9 8.5 16.5t17.5 20.5t28 20zM230 528h-2q-14 0 -24 -10t-10 -24v-2q1 -9 4 -14q7 -19 30 -19q34 0 34 35q0 13 -9 24
q-2 0 -2 1q-8 8 -21 9z" />
    <glyph glyph-name="Q" unicode="Q" horiz-adv-x="580" 
d="M183 649q-74 0 -126 -52.5t-52 -126.5q0 -14 1 -21q6 -59 52 -104q52 -53 125 -53q55 0 99 29l159 -160q11 -10 24 -10q31 1 33 32q2 17 -8 27l-32 32l37 37v1q12 14 11 29v4q-6 26 -34 26q-14 0 -26 -11l-37 -37l-78 79q31 43 31 100q0 74 -52 126.5t-127 52.5zM78 514
q1 3 3.5 7.5t8.5 14.5q2 3 13 15q36 33 80 33q48 0 81 -33t33 -81q0 -20 -13 -54q-8 -13 -20 -26q-16 -14 -30 -22q-24 -11 -51 -11q-48 0 -80 33q-25 25 -32 60q-2 12 -1 20q0 25 8 44zM149 476v-3v-3q0 -10 5 -19q16 -15 29 -15h6q17 3 24 17q4 7 4 17t-2.5 15t-6.5 9.5
t-10 7.5t-15 3q-14 0 -23 -9t-11 -20z" />
    <glyph glyph-name="R" unicode="R" horiz-adv-x="448" 
d="M180 699q-74 0 -126 -52t-52 -126q0 -6 1 -10v-378q0 -15 11 -23.5t25 -8.5q13 1 22.5 10t9.5 22v247q47 -37 109 -37q58 0 100 31l71 -70q12 -11 28 -11q2 0 5 1q26 5 26 34q0 14 -12 25l-69 69q29 43 29 95v4q0 75 -51.5 126.5t-126.5 51.5zM67 528q2 42 33.5 74.5
t79.5 32.5q36 0 63 -19q10 -7 18 -14q33 -34 33 -81v-5q-2 -43 -34 -76t-80 -33q-46 0 -80 34q-31 31 -33 71v9v7zM180 555q-34 0 -34 -34q0 -14 10 -24.5t24 -10.5q15 0 24 11q8 7 10 18q0 1 1 3v3q0 15 -10 24.5t-25 9.5z" />
    <glyph glyph-name="S" unicode="S" horiz-adv-x="658" 
d="M341 744q-1 18 -12 28q-1 1 -4 2q-9 6 -20 5q-32 -2 -32 -36v-20q-110 -11 -191 -93q-40 -39 -62 -74q-2 -4 -7 -12t-3 -14q2 -8 9 -12l120 -71q-6 -19 -6 -46q0 -73 52.5 -125.5t125.5 -52.5q99 0 149 81l61 -41q-27 -43 -73 -74q-49 -32 -110 -39q-5 11 -13 16t-20 4
q-13 -1 -23 -10q-10 -13 -9 -26v-81q0 -15 11.5 -24t24.5 -9q14 1 23.5 9.5t9.5 23.5v26q113 10 198 93q35 35 59 80q6 25 -6 42q0 1 -3 3l-103 72q2 21 2 32q0 74 -52 126t-126 52t-126 -52q-9 -9 -16 -18l-59 41q13 17 23 27q61 61 144 72q3 -8 8 -11q10 -9 24 -8
q14 0 22 9q5 3 8 10.5t3 12.5v81q-1 0 -1 1zM311 515q47 0 81 -33q6 -7 13 -16q16 -23 19 -55q0 -6 1 -10q0 -24 -9 -45q-1 0 -1 -2q-2 -5 -8 -14q-36 -52 -96 -52q-47 0 -80.5 33t-32.5 80q0 40 17 62q5 8 15 19q34 33 81 33zM345 401q0 14 -10 24.5t-24 10.5
q-15 0 -25 -10t-10 -25q0 -14 10.5 -24t24.5 -10q34 0 34 34z" />
    <glyph glyph-name="T" unicode="T" horiz-adv-x="501" 
d="M39 614q1 0 1 -1h142v-143q-5 0 -19 -4q-41 -12 -73 -45q-53 -53 -53 -126q0 -74 52.5 -126t126.5 -52q73 0 125.5 52t52.5 126q0 75 -52 126q-40 41 -92 49v143h145q25 0 26 33q1 12 -5 24q-9 12 -21 12h-355q-29 0 -30 -32q-1 -17 7 -24q7 -11 22 -12zM296 376
q34 -33 34 -81q0 -26 -9 -45l-1 -1q-13 -30 -42 -49t-62 -19q-34 0 -61 19q-37 20 -49 65q-4 16 -4 30q0 48 33.5 81.5t80.5 33.5q34 0 63 -20q10 -6 17 -14zM216 330q-14 0 -24 -10t-10 -25q0 -34 34 -34q14 0 24 10t10 24q0 15 -10 25t-24 10z" />
    <glyph glyph-name="U" unicode="U" horiz-adv-x="745" 
d="M506 513q-15 46 -52.5 79t-84.5 41q-3 14 -13 24q-7 5 -12 7t-14 2q-5 1 -10 0q-4 0 -8 -2q-7 -1 -11.5 -4t-9.5 -8q-1 -2 -4.5 -10.5t-2.5 -11.5l1 -2q-57 -16 -92 -64t-35 -107q0 -52 27 -94l-53 -53q-47 64 -46 146v2q-1 13 -2.5 26t-12.5 22q-2 1 -4 3q-18 11 -34 1
q-3 -2 -7 -5q-14 -13 -13 -55q2 -129 94.5 -221.5t221.5 -95.5h8h8q67 0 120 26q41 19 101 69q80 82 92 185q1 12 1 44q0 46 -26 54q-23 7 -39 -9q-3 -3 -4 -6q-5 -11 -4 -27q2 -22 0 -37q-6 -72 -51 -130l-53 52q33 46 33 103q0 28 -9 56zM235 509q6 14 21 29q34 33 81 33
q36 0 63 -18q11 -8 17 -15q10 -10 19 -26q15 -26 15 -55q0 -24 -9 -45q-7 -12 -25.5 -35t-49.5 -29q-11 -4 -30 -4h-7q-20 1 -32 6q-7 2 -20 9q-2 1 -3 2l-6 4q-4 4 -13 12q-34 34 -33 80q1 25 9 45q1 2 3 7zM232 313l2 -2q27 -20 64 -28v-76q-63 11 -119 53zM399 212
q-11 -2 -32 -6v75q34 5 66 26l52 -53q-38 -30 -86 -42zM540 298v0v0zM504 252l2 2zM371 457q0 14 -10 24.5t-24 10.5q-35 0 -35 -35q0 -13 10.5 -23.5t24.5 -10.5q34 0 34 34z" />
    <glyph glyph-name="V" unicode="V" horiz-adv-x="557" 
d="M249 726h-5q-82 0 -148 -29q-19 -9 -37 -21q-10 -7 -29 -34l-4 -4q-14 -28 -13 -50v-8q4 -69 49 -122q27 -32 64 -49q8 -4 17 -7q-16 -11 -28 -23q-52 -51 -52 -127q0 -74 52.5 -126.5t125.5 -51.5q75 1 126.5 53t51.5 125q0 76 -52 127q-11 11 -25 21q2 1 6 4
q31 19 53 40q10 7 23 23q42 52 41 120v8q-1 5 -1 7.5t-1 10.5l55 30q10 6 22 13q7 4 18 20q4 13 -2 28q-9 22 -31 22q-13 0 -30 -9v0q-6 -1 -12 -5q-22 -11 -57 -36q-70 50 -177 50zM88 560q-4 17 -4 21v7q1 12 6 21q12 23 65 38q45 14 79 13q74 -2 135 -30q7 -3 14 -19
q3 -3 11 -25q1 -8 1 -11q3 -24 -16 -53q-5 -7 -33 -35q-53 -40 -106 -41q-87 4 -130 67q-13 20 -22 47zM355 252q0 -29 -14 -55q-7 -13 -19 -25q-35 -33 -80 -33q-35 0 -62 18q-7 4 -19 15q-9 7 -18 24q-15 25 -15 56q0 48 33 81t81 33q46 0 79.5 -33.5t33.5 -80.5zM241 287
q-14 0 -24 -10.5t-10 -24.5q0 -13 10.5 -23.5t23.5 -10.5q14 0 24.5 10.5t10.5 23.5q0 35 -35 35z" />
    <glyph glyph-name="W" unicode="W" horiz-adv-x="689" 
d="M314 690q-32 -3 -32 -36v-191q-52 -10 -92 -49q-4 -4 -11 -12q-3 1 -9 2q-67 24 -82 107l-5 31q-3 18 -20 24q-8 3 -16 2q-13 0 -18 -4q-18 -10 -18 -34q0 -87 65 -153q25 -25 56 -37l12 -5q-7 -25 -7 -47q0 -74 52.5 -126t126.5 -52q75 0 127 51.5t52 126.5q0 24 -6 46
l10 4q28 9 59 39q28 28 43 58q19 40 19 93q0 24 -17 35q-5 3 -19 3q-31 4 -36 -26q-3 -23 -16 -70q-20 -48 -71 -68q-2 -1 -6 -2q-45 52 -105 63v191v1q-1 18 -12 27q-1 1 -5 3q-7 6 -19 5zM430 288q0 -48 -33 -81t-81 -33q-47 0 -80.5 33t-33.5 81q0 47 33.5 80t80.5 33
q48 0 81 -33t33 -80zM316 322q-14 0 -24 -10t-10 -24q0 -35 34 -35q15 0 24.5 10.5t9.5 24.5t-10 24t-24 10z" />
    <glyph glyph-name="X" unicode="X" horiz-adv-x="568" 
d="M34 640q-30 -3 -31 -34q-1 -13 10 -23l83 -83q-26 -40 -26 -93q0 -59 33 -103l-86 -86q-2 -2 -6 -11t-2 -16q2 -30 33 -31q14 -1 24 9l87 88q42 -28 96 -28q51 0 92 26l83 -84h1q14 -12 28 -11q2 0 5 1h1q9 3 15.5 10.5t8 12t1.5 11.5q0 14 -12 25l-80 80q35 47 35 107
q0 55 -28 96l78 77v2q12 13 12 28q0 1 -1 4v2q-3 9 -11 15.5t-13.5 8t-9.5 0.5q-15 0 -26 -11l-76 -77q-45 33 -103 33q-61 0 -106 -35l-82 81q-14 12 -27 9zM306 506l6 -4q6 -4 16.5 -14.5t15.5 -17.5q0 -1 2 -3q17 -34 17 -60t-17 -60q-20 -31 -53 -45q-21 -8 -44 -9
q-24 0 -48 11q-5 2 -14 7q0 1 -1 1q-7 5 -18 15q-33 36 -33 80q1 26 9 44v1q21 37 45.5 53t59.5 16q32 0 57 -15zM74 568zM81 231v0v0v0zM251 441h-2q-15 0 -25 -10t-10 -24q0 -1 1 -3q0 -12 9 -21.5t22 -10.5h3q14 0 24 10.5t10 24.5v3q-1 12 -10 21t-22 10z" />
    <glyph glyph-name="Y" unicode="Y" horiz-adv-x="514" 
d="M386 703l-6 -5v0l-46 -45l-1.5 1.5l-2.5 2.5l-39 19q-39 12 -60 9q-61 1 -106 -34l-28 28v-1l-8 7v-1l-24 26q-13 10 -27 8q-31 -3 -32 -33q0 -13 10 -24l26 -26v0l11 -11h1l24 -24q-25 -41 -25 -93q0 -73 52 -126q34 -34 77 -46l4 -53q4 -49 -9 -74q-3 -7 -36 -51
q-4 0 -6 -1q-28 -3 -29 -29v-5q0 -2 1 -7q4 -31 30 -29q7 0 53 -2q8 0 16.5 13t18.5 13q16 0 28 -14q4 -4 8.5 -9t8.5 -4q13 1 49 -2q19 2 26 25q1 6 0 14q-2 17 -15 30q-7 7 -12.5 7.5t-22.5 20.5q-15 17 -18 26q-4 6 -5 14q-1 1 -1 3q-3 17 -4 59l-1 22v30q51 10 91 49
q49 50 52 120h1v6q0 55 -28 96l17 17v0l36 35v1q12 13 11 28q0 1 -1 5v1q-8 25 -34 25q-15 0 -25 -12zM78 646zM231 621q7 0 9 -1l25 -3l15 -6l14 -8q51 -40 51 -96q0 -4 -1 -6v-1q0 -40 -33 -73t-80 -33q-46 0 -81 33q-28 28 -32 67v7v6q0 48 32.5 81t80.5 33zM255 532
q-2 3 -9 7l-6 2q-2 1 -9 1q-35 0 -35 -35q0 -1 1 -3v-3q1 -3 1 -4q9 -24 33 -24q25 0 33 26v2q1 2 1 6q0 14 -10 25z" />
    <glyph glyph-name="Z" unicode="Z" horiz-adv-x="441" 
d="M31 702q-6 -5 -8 -12q-1 -3 -3 -11q0 -8 7 -24q10 -11 29 -12h1h32l69 -68q-57 -9 -98 -51q-52 -52 -52 -126q0 -91 71 -142h-1l165 -168h75q32 0 33 32q1 31 -33 37h-40l-68 64q66 9 110 60t44 117q0 89 -84 152v0q0 1 2 -0.5t5 -3.5l-165 166h-66q-16 0 -25 -10z
M263 482q1 -2 4 -3q32 -34 32 -81t-32.5 -80.5t-80.5 -33.5q-47 0 -80.5 33.5t-33.5 80.5q0 48 33 81l36 24q17 9 45 9q43 0 77 -30zM186 432q-14 0 -24.5 -9.5t-10.5 -24.5q0 -14 10 -24t25 -10q14 0 24 10t10 24q0 15 -10.5 24.5t-23.5 9.5z" />
    <glyph glyph-name="a" unicode="a" horiz-adv-x="455" 
d="M290 611q-26 18 -58 26l-18 83q-14 24 -29 24q-14 0 -28 -23l-4 -20l-14 -65q-43 -13 -77 -46q-52 -53 -51 -126q1 -76 53 -129q4 -3 10 -7v0l-66 -230q-5 -19 6 -31.5t30 -14.5q26 -3 37 22l25 109q20 -27 51 -36q14 -5 31 -4q42 1 79 41l27 -111q8 -33 44 -22t27 43
l-63 232l2 2q3 3 11 9q51 52 51 127q0 74 -51 126q-12 12 -25 21zM261 551q41 -41 41 -88t-33 -80.5t-81 -33.5q-47 0 -80 33.5t-33 80.5q0 39 26 73q3 4 7 7q33 34 80 34q41 0 73 -26zM188 332h6q1 2 1 0q19 -2 28 -17q20 -15 20 -48q-2 -71 -55 -70q-35 1 -52 28
q-11 19 -11 37q-1 20 9 40q7 10 14 14v1l7 7q15 7 31 8h2zM154 463q0 -34 34 -34q8 0 15 3q20 12 20 31v4q-1 2 -1 3q-8 27 -34 27q-14 0 -24 -10t-10 -24z" />
    <glyph glyph-name="b" unicode="b" horiz-adv-x="531" 
d="M265 722v23h-80v-23q-49 -11 -86 -48q-52 -52 -52 -126q0 -62 39 -111.5t99 -62.5v-20q-36 -10 -64 -39q-1 -1 -3 -2q-31 -33 -38 -73h-42q-34 -5 -32 -37q1 -32 32 -32h42l4 -14h1q16 -46 55.5 -74t87.5 -28q64 0 108.5 44.5t44.5 108.5q0 60 -42 105l-2 2
q-31 31 -71 41l-1 18q51 11 87.5 48.5t47.5 88.5h33q15 0 23 11q9 8 10 22q0 14 -9.5 25t-23.5 11h-32q-9 54 -49 93t-87 49zM339 548q0 -47 -33 -80.5t-81 -33.5q-47 0 -80 33.5t-33 80.5q0 42 27.5 74.5t67.5 37.5q6 2 18 2q51 0 82.5 -33t31.5 -81zM187 296q18 9 41 9
q41 0 69.5 -28.5t28.5 -68.5q0 -41 -28.5 -69t-69.5 -29v0q-40 1 -68.5 29t-28.5 69q0 58 56 88zM249 524q2 1 2 2t-1.5 2t-1.5 3q0 5 12 17q2 3 2 5q0 7 -13 20q-9 9 -24 9q-34 0 -34 -34t34 -34q15 0 24 10z" />
    <glyph glyph-name="c" unicode="c" horiz-adv-x="715" 
d="M647 436q1 15 2 41q-13 124 -105.5 206.5t-216.5 82.5q-135 0 -229.5 -94.5t-94.5 -229.5t95 -229q83 -82 190 -93v-54q0 -14 11 -23t25 -9q33 2 33 32v84q0 14 -10.5 27t-24.5 13h-2q-98 0 -171 73.5t-73 176.5q0 83 45 145l56 -55q-28 -43 -28 -96q0 -72 52 -125
t127 -53q66 0 115 41.5t61 106.5h109q32 8 34 32zM575 473h-73q-10 49 -48 87q-53 52 -126 52h-10q-58 -2 -102 -40l-56 56q71 63 166 63h13q90 -4 158 -66.5t78 -151.5zM296 544q15 3 32 3q35 0 63 -18q10 -7 17 -14q34 -34 34 -81t-33.5 -80.5t-80.5 -33.5q-32 0 -58 16
q-3 1 -3 2q-53 36 -53 96q0 38 23 68.5t59 41.5zM328 468q-34 0 -34 -34q0 -14 10 -24.5t24 -10.5t24 10t10 25q0 14 -10 24t-24 10z" />
    <glyph glyph-name="d" unicode="d" horiz-adv-x="588" 
d="M418 480l2 -2q13 -36 13 -80q0 -62 -27 -114q-17 -33 -47 -63q-68 -69 -164 -74q-25 -1 -31 -7q-24 -11 -16 -39q0 -11 8 -17q1 0 1 -1h2l2 -1q7 -3 19 -6h2q135 0 229.5 94.5t94.5 229.5v16q-1 13 -1 19q-12 112 -93 194q-93 94 -226 95h-4q-21 -1 -32 -20h-1v-133
q-52 -10 -91 -49q-52 -52 -52 -126t52 -126t126 -52q73 0 126 52t53 126t-53 126q-38 39 -92 49v76q81 -11 141 -72q43 -42 59 -95zM298 396q0 -46 -33 -80q-2 -3 -4 -3q-32 -31 -77 -31q-46 0 -76 31q-2 0 -4 3q-34 33 -34 80q0 48 33 81t81 33t81 -33t33 -81zM218 396
q0 34 -34 34q-14 0 -24 -10t-10 -24t10 -24t24 -10q34 0 34 34z" />
    <glyph glyph-name="e" unicode="e" horiz-adv-x="637" 
d="M506 711l-14 7q-25 2 -74 2q-103 2 -124 -19q-40 -32 -45 -87q-1 -7 -1 -31v-8q-51 -11 -88 -50t-47 -90h-67q-15 0 -25 -9.5t-11 -22.5t5 -20q1 -1 2 -4q12 -12 29 -12h67q1 -4 2 -12q12 -46 47.5 -81t80.5 -46v-17l8 -38q1 -5 3 -10q10 -34 24 -50t52 -27q19 -6 33 -6
l127 -1q13 0 23 8.5t9 26.5v2q-1 19 -17 29l-19 13h-111q-43 8 -51 36q-1 5 -3 12v20q50 8 88.5 44t51.5 85q1 8 2 12h67q31 0 32 32q1 23 -21 34q-5 1 -11 2h-67q-10 53 -49 92t-92 49v2q3 17 7 34q6 22 18 28t39 6l112 2q22 1 22 34v4q0 14 -14 25zM351 496q36 -25 46 -61
q5 -16 5 -34q0 -13 -1 -19t-3.5 -14t-4.5 -13v0q-24 -50 -71 -63q-17 -5 -34 -5q-47 0 -82 35q-27 28 -30 61q-2 12 -2 18q0 19 6 34q3 21 28 46q33 34 80 34q34 0 63 -19zM323 401q0 14 -10 25q-9 7 -20 9h-10q-10 -1 -19 -9q-10 -11 -10 -25q0 -11 5 -18q8 -16 29 -16
q14 0 25 9q1 2 5.5 8.5t4.5 16.5z" />
    <glyph glyph-name="f" unicode="f" horiz-adv-x="633" 
d="M552 577l-13 4h-184q-11 48 -48 86q-52 52 -126 52q-75 0 -127 -51.5t-52 -126.5q0 -74 50 -124l2 -2q3 -2 9 -7l4 -4q35 -30 78 -38l1 -180q0 -30 -23 -30l-4 -1q-16 -1 -27 -14l-3 -3q-7 -11 -7 -23q0 -5 1 -8q4 -8 11 -12l1 -1h-1q11 -7 24 -8q35 -3 53 17q9 11 11 23
l3 -7q3 -9 8.5 -16.5t15.5 -13.5q15 -9 35 -6q11 2 17 7q10 8 12 10q5 8 7 18q1 15 -17 33q-4 3 -7 5q-9 0 -28 9q-2 2 -5 7l-2 72h85q31 0 33 33q1 31 -33 36h-87l-1 54q50 10 89 48q0 1 16 19l63 -68l12 -10q12 -8 22 -7q17 2 33 19l131 148q15 40 -32 61zM292 520
q-8 -36 -31 -59q-34 -34 -81 -34q-48 0 -81 33.5t-33 80.5t33.5 80.5t80.5 33.5q48 0 80.5 -33t32.5 -81q0 -7 -1 -21zM354 499l2 10h108q8 1 12 -3l1 -1q0 -2 1 -4q1 -3 -46 -50l-4 -3q-6 -5 -8 -6q-4 0 -9 4q-13 11 -38 34zM239 277zM155 517l1 -1q10 -10 24 -10t23.5 10
t9.5 19q1 2 1 6q0 14 -10 24t-24 10t-24.5 -10t-10.5 -24q0 -13 10 -24z" />
    <glyph glyph-name="g" unicode="g" 
d="M364 731l-4 2q-70 34 -144 33q-8 1 -13 0q-8 0 -11 -1q-83 -4 -146 -48q-10 -6 -20 -17q-8 -23 -2 -32q2 -5 6 -9l47 -82q-42 -47 -42 -115q0 -70 45 -119l7 -7l2 -3q21 -19 45 -32l-110 -52q-3 -2 -8 -7q-8 -7 -10 -17q-4 -10 3 -23h1l-1 -1q5 -8 13 -12l310 -150
q17 -8 30 -2l4 2q8 6 15 20q7 28 -21 41l-242 118l157 76q25 12 34 18q15 9 30 24q7 6 12 13q40 48 40 113q0 62 -38 110l54 99q3 6 1 18q-3 19 -23 29q-1 2 -3 2q-8 5 -18 11zM216 691q63 0 113 -26l-27 -48q-40 23 -89 23q-45 0 -84 -20l-25 46q20 10 48.5 17.5t63.5 7.5z
M125 534q21 27 57 37q5 2 6 2q5 1 14 2h5q3 1 6 0q44 0 62 -18q51 -31 51 -95q0 -46 -32 -81q-1 0 -5 -4q-25 -22 -57 -27q-3 0 -8 -1q-8 0 -11 -1q-4 1 -11 1h-1q-28 3 -49 17h-1q-33 21 -46 60q-6 18 -6 36q0 42 26 72zM247 462q0 21 -14 27q-8 7 -20 7q-14 0 -24.5 -10
t-10.5 -24q0 -15 10 -25t25 -10q3 0 7 2q27 5 27 33z" />
    <glyph glyph-name="h" unicode="h" horiz-adv-x="733" 
d="M376 720v0q-24 -7 -29 -33q-5 -27 17 -41q80 -12 139 -70.5t70 -136.5h-72q-11 49 -49 86q-52 52 -126 52t-125 -52q-38 -37 -49 -86h-74q9 62 51 114t100 77q15 11 15 30q0 10 -3 22q-11 19 -38 18q-57 -23 -106 -71q-95 -94 -95 -229q0 -7 1 -10q0 -126 94 -220
q72 -71 166 -89q23 -2 29 27q5 27 -17 44q-79 15 -135.5 77t-62.5 141h73q9 -54 49 -95.5t94 -50.5q15 -3 33 -3q74 0 126 52q41 41 51 97h72q-6 -70 -52 -127.5t-113 -81.5q-22 -12 -14 -37q6 -33 34 -32q70 22 126 78q88 88 93 201q0 5 1 16v13q0 21 -1 30v5q-1 1 -1 4
q-11 107 -88 186.5t-184 94.5zM440 400v-7.5v-5.5q-2 -15 -9 -33l-3 -6q-10 -18 -21 -29q-33 -33 -81 -33q-45 0 -80 33q-30 29 -32 68q-1 1 -1 13q-1 19 7 39q0 2 2 5q8 20 24 36q33 33 80 33q48 0 80.5 -32.5t33.5 -80.5zM351 375q9 12 9 25q0 34 -34 34q-14 0 -24 -10
t-10 -24q0 -21 17 -30q8 -5 17 -5q10 0 18 5q4 2 7 5z" />
    <glyph glyph-name="i" unicode="i" horiz-adv-x="432" 
d="M209 722q-1 19 -11 28q-2 1 -4 3q-10 6 -20 5q-14 -1 -23.5 -10.5t-9.5 -26.5v-142q-50 -9 -91 -49q-52 -53 -52 -126q0 -63 40.5 -113t102.5 -62v-155q3 -18 13 -25.5t23 -6.5q33 1 33 32v155q43 7 79 37.5t53 71.5q12 31 12 66q0 73 -52 126q-40 40 -92 49v142zM95 485
q36 33 81 33q6 0 18 -1q5 -1 16 -4q24 -6 47 -28q33 -33 33 -81q0 -40 -22 -66q-1 -3 -11 -15q-25 -23 -63 -32h-18q-44 0 -81 32q-33 39 -32 81q0 46 32 81zM210 407q-1 19 -16 26q-9 6 -18 6q-15 0 -25 -10t-10 -25q0 -14 10.5 -24t24.5 -10q10 0 18 4q15 8 16 27v3v3z
" />
    <glyph glyph-name="j" unicode="j" horiz-adv-x="505" 
d="M431 723l-4 4q-11 7 -17 8h-1q-10 3 -13.5 0.5t-7.5 -6.5l-3 -2l-55 -63q-44 31 -102 31q-75 0 -126.5 -51.5t-51.5 -126.5q0 -73 52 -126v-1q38 -36 85 -47l4 -143l-2 -9q0 -2 -3.5 -10t-3.5 -9q-15 -27 -39 -27q-46 2 -56 41l-2 8q2 12 -3 23t-16 16v0q-8 4 -20 4
q-26 -2 -33 -24q-2 -4 -2.5 -7.5t-0.5 -7.5q0 -3 2 -7h-1l3 -19q3 -16 16 -42q37 -59 102 -65q1 1 3 0q65 -2 102 46q28 35 30 78v8l-3 145q68 15 111 74q30 43 31 95v6q0 37 -14 71v0q-4 10 -13 25l57 68q3 4 4 6q2 6 2 10v5q-1 1 -1 2q-2 11 -9 17zM115 517q0 47 33 80.5
t80 33.5t81 -33q26 -26 31 -61q2 -13 2 -20q0 -48 -33.5 -80.5t-80.5 -32.5q-30 0 -52 12q-6 3 -9 5q-9 6 -19 15q-1 2 -2 2q-31 34 -31 79zM194 517q0 -13 10 -24q2 -2 7 -6q9 -5 17 -5q29 0 35 32v3q0 15 -10 25t-25 10t-24.5 -10.5t-9.5 -24.5z" />
    <glyph glyph-name="k" unicode="k" horiz-adv-x="544" 
d="M147 722v-142q-52 -9 -92 -50q-51 -52 -51 -125q0 -74 51 -126q40 -41 92 -49v-155q0 -15 13 -26q9 -7 23 -7q33 1 33 33v154q52 10 92 50q27 27 41 63q25 -27 71 -67q12 -11 22 -15q16 -5 35 10q5 5 7 12q1 1 1 6q2 14 -7 25l-92 101q24 22 68 68q3 2 5 4q11 11 20 25
q6 9 8 15q3 9 0 19q-4 8 -9 14q-13 14 -30 11q-8 0 -14 -4h-1q-3 -1 -7 -3l-6 -4l-77 -77q-14 27 -35 48q-41 41 -92 50v142q-1 0 -1 1q-1 18 -12 28q-2 1 -3 2q-9 6 -21 5q-12 0 -22 -10t-10 -26zM200 517q3 -1 16 -4q26 -8 46 -28q33 -33 33 -80v-10q-1 -15 -6 -27
q-4 -20 -26.5 -43t-62.5 -33q-14 -2 -18 -1q-49 1 -81.5 33.5t-32.5 80.5q0 47 34 81t80 32q6 0 18 -1zM147 405q0 -15 10 -25t24 -10q13 1 25 10q8 9 10 21v7q-2 12 -10 21q-13 10 -25 10q-13 0 -23.5 -10t-10.5 -24z" />
    <glyph glyph-name="l" unicode="l" horiz-adv-x="481" 
d="M233 674h-3q-44 -1 -49 -3q-30 -5 -56 -21q-44 38 -60 50q-2 2 -6 4.5t-8 3.5q-10 3 -20 -3q-1 -1 -5 -4l-14 -16l-4 -7q-7 -21 7 -34q25 -23 53 -46q-31 -44 -31 -102q0 -64 41 -114t103 -61l-1 -162q1 -5 1 -8q11 -65 108 -59q23 0 70 2q22 2 66 3.5t43 45.5v8
q-1 1 -1 2l-1 3q-14 28 -32 41q-29 19 -61 25q-59 12 -124 -44v143q53 10 92 49q52 52 52 126q0 70 -45 119.5t-115 58.5zM215 610q6 0 18 -1q16 -4 45 -18q6 -3 17 -14q34 -34 34 -81q0 -48 -34 -81q-23 -22 -62 -32h-18q-39 0 -61 17q-8 4 -19 15q-34 34 -34 81
q1 48 34 81t80 33zM240 520q-14 11 -25 11q-14 0 -24 -10.5t-10 -24.5q0 -34 34 -34q12 0 25 10q8 9 9 21v6q-1 12 -9 21z" />
    <glyph glyph-name="m" unicode="m" horiz-adv-x="744" 
d="M650 329q0 12 -2 35q-9 97 -72 171l35 40q4 2 8 9q4 15 -11.5 31.5t-32.5 12.5q-4 0 -5.5 -1t-5.5 -3l-5 -4l-33 -36q-85 69 -200 69t-200 -69l-37 34q-8 4 -16 5q-2 0 -4 1h-1q-22 3 -34 -11q0 -1 -1 -1q-11 -16 -5 -32q4 -9 9 -13l36 -36q-69 -83 -71 -193v-9
q0 -97 48 -172q16 -13 35 -6q19 6 23 22q4 15 0 29q-33 53 -33 125v11q3 96 73 167q59 59 137 70l1 -72q-47 -10 -86 -48q-49 -49 -52 -117q-1 -3 -1 -9q0 -74 52.5 -126t126.5 -52t126 51.5t52 126.5v9q-3 61 -44 108.5t-100 57.5l-2 72q89 -11 152 -79.5t66 -158.5v-11
q0 -76 -37 -128q-4 -19 2.5 -32.5t27.5 -15.5q11 -1 22.5 4t18.5 17q40 69 40 157zM212 329v9q5 42 35.5 73t78.5 31q35 0 63 -18q10 -7 17 -14q30 -30 33 -72q1 -3 1 -9q0 -48 -33.5 -81t-80.5 -33t-80.5 33.5t-33.5 80.5zM301 353q-5 -5 -9 -15v-9q0 -14 10 -24.5
t24 -10.5t24 10t10 25q0 3 -1 9q-9 25 -33 25q-15 0 -25 -10z" />
    <glyph glyph-name="n" unicode="n" horiz-adv-x="734" 
d="M69 641q-13 -6 -17 -14l-3 -11l-42 -469q1 -3 2 -5h-2q5 -27 33 -32q10 -2 16 0q20 5 25 28l2 18h-2q2 1 2 2l30 386l55 -53q-23 -39 -23 -89q0 -9 1 -13q3 -65 51 -113q53 -52 126 -52q56 0 96 27l103 -98l15 -2q15 -2 33 -1q25 1 34 29l40 479v2q1 12 -7 20t-24 10
q-43 3 -43 -22q-1 -2 0 -5l-35 -415l-61 59q24 36 27 82v13q0 74 -52 126t-126 52q-57 0 -99 -30l-99 96q-15 8 -49 -2q-3 -2 -7 -3zM323 515q47 2 80.5 -32t33.5 -81v-7q-1 -4 -1 -6q-1 -15 -8 -32q-1 -1 -1 -4q-35 -65 -104 -65q-47 0 -80 33q-30 30 -33 68q-1 4 -1 13
q0 21 9 43v1q12 31 42 50.5t63 18.5zM288 402q0 -14 10.5 -24.5t24.5 -10.5q34 0 34 35q0 14 -10 24t-24 10q-15 0 -25 -10t-10 -24z" />
    <glyph glyph-name="o" unicode="o" horiz-adv-x="732" 
d="M2 400q0 -135 95.5 -229.5t228.5 -94.5q134 0 229 94.5t95 229.5q0 22 -1 35q-12 123 -105 206t-218 83q-135 0 -229.5 -94.5t-94.5 -229.5zM76 374q-1 15 -1 24q-1 104 73 177.5t178 73.5q105 0 178 -73t73 -178q0 -104 -74 -177q-61 -62 -143 -72v75q56 11 96 52.5
t47 97.5q2 16 2 26q0 74 -52.5 126t-126.5 52t-126 -52t-52 -126q0 -63 40.5 -113.5t102.5 -62.5v-75q-85 12 -146 75.5t-69 149.5zM389 495q7 -5 18 -15q33 -33 33 -80q0 -10 -2 -26q-9 -33 -31 -55q-33 -33 -81 -33q-34 0 -61 17q-54 35 -52 97q1 48 33 80.5t80 32.5
q36 0 63 -18zM292 400q0 -15 10 -25l1 -1q11 -9 23 -9q13 0 23 9q1 0 2 1q9 11 9 25q0 34 -34 34q-14 0 -24 -10t-10 -24z" />
    <glyph glyph-name="p" unicode="p" horiz-adv-x="469" 
d="M68 703h-1q-14 12 -29 12h-2.5h-2.5q-11 -4 -18 -12q-9 -13 -9 -25q0 -13 12 -26l61 -61q-29 -43 -29 -97q0 -24 5 -41v-333q0 -7 2 -12q3 -9 11.5 -16t23.5 -7q33 2 33 35v228q45 -33 103 -33q75 0 127 52t52 127q0 74 -52 125.5t-127 51.5q-57 0 -99 -29zM177 595
q23 12 51 12q47 0 80.5 -33t33.5 -80v-7.5v-5.5q-5 -44 -37.5 -72.5t-76.5 -28.5q-45 0 -80 33q-26 25 -32 64q-2 10 -1 17q-1 18 6 38q1 2 2 6q4 9 8.5 16.5t17.5 20.5t28 20zM230 528h-2q-14 0 -24 -10t-10 -24v-2q1 -9 4 -14q7 -19 30 -19q34 0 34 35q0 13 -9 24
q-2 0 -2 1q-8 8 -21 9z" />
    <glyph glyph-name="q" unicode="q" horiz-adv-x="580" 
d="M183 649q-74 0 -126 -52.5t-52 -126.5q0 -14 1 -21q6 -59 52 -104q52 -53 125 -53q55 0 99 29l159 -160q11 -10 24 -10q31 1 33 32q2 17 -8 27l-32 32l37 37v1q12 14 11 29v4q-6 26 -34 26q-14 0 -26 -11l-37 -37l-78 79q31 43 31 100q0 74 -52 126.5t-127 52.5zM78 514
q1 3 3.5 7.5t8.5 14.5q2 3 13 15q36 33 80 33q48 0 81 -33t33 -81q0 -20 -13 -54q-8 -13 -20 -26q-16 -14 -30 -22q-24 -11 -51 -11q-48 0 -80 33q-25 25 -32 60q-2 12 -1 20q0 25 8 44zM149 476v-3v-3q0 -10 5 -19q16 -15 29 -15h6q17 3 24 17q4 7 4 17t-2.5 15t-6.5 9.5
t-10 7.5t-15 3q-14 0 -23 -9t-11 -20z" />
    <glyph glyph-name="r" unicode="r" horiz-adv-x="466" 
d="M180 699q-74 0 -126 -52t-52 -126q0 -6 1 -10v-378q0 -15 11 -23.5t25 -8.5q13 1 22.5 10t9.5 22v247q47 -37 109 -37q58 0 100 31l71 -70q12 -11 28 -11q2 0 5 1q26 5 26 34q0 14 -12 25l-69 69q29 43 29 95v4q0 75 -51.5 126.5t-126.5 51.5zM67 528q2 42 33.5 74.5
t79.5 32.5q36 0 63 -19q10 -7 18 -14q33 -34 33 -81v-5q-2 -43 -34 -76t-80 -33q-46 0 -80 34q-31 31 -33 71v9v7zM180 555q-34 0 -34 -34q0 -14 10 -24.5t24 -10.5q15 0 24 11q8 7 10 18q0 1 1 3v3q0 15 -10 24.5t-25 9.5z" />
    <glyph glyph-name="s" unicode="s" horiz-adv-x="658" 
d="M341 744q-1 18 -12 28q-1 1 -4 2q-9 6 -20 5q-32 -2 -32 -36v-20q-110 -11 -191 -93q-40 -39 -62 -74q-2 -4 -7 -12t-3 -14q2 -8 9 -12l120 -71q-6 -19 -6 -46q0 -73 52.5 -125.5t125.5 -52.5q99 0 149 81l61 -41q-27 -43 -73 -74q-49 -32 -110 -39q-5 11 -13 16t-20 4
q-13 -1 -23 -10q-10 -13 -9 -26v-81q0 -15 11.5 -24t24.5 -9q14 1 23.5 9.5t9.5 23.5v26q113 10 198 93q35 35 59 80q6 25 -6 42q0 1 -3 3l-103 72q2 21 2 32q0 74 -52 126t-126 52t-126 -52q-9 -9 -16 -18l-59 41q13 17 23 27q61 61 144 72q3 -8 8 -11q10 -9 24 -8
q14 0 22 9q5 3 8 10.5t3 12.5v81q-1 0 -1 1zM311 515q47 0 81 -33q6 -7 13 -16q16 -23 19 -55q0 -6 1 -10q0 -24 -9 -45q-1 0 -1 -2q-2 -5 -8 -14q-36 -52 -96 -52q-47 0 -80.5 33t-32.5 80q0 40 17 62q5 8 15 19q34 33 81 33zM345 401q0 14 -10 24.5t-24 10.5
q-15 0 -25 -10t-10 -25q0 -14 10.5 -24t24.5 -10q34 0 34 34z" />
    <glyph glyph-name="t" unicode="t" horiz-adv-x="501" 
d="M39 614q1 0 1 -1h142v-143q-5 0 -19 -4q-41 -12 -73 -45q-53 -53 -53 -126q0 -74 52.5 -126t126.5 -52q73 0 125.5 52t52.5 126q0 75 -52 126q-40 41 -92 49v143h145q25 0 26 33q1 12 -5 24q-9 12 -21 12h-355q-29 0 -30 -32q-1 -17 7 -24q7 -11 22 -12zM296 376
q34 -33 34 -81q0 -26 -9 -45l-1 -1q-13 -30 -42 -49t-62 -19q-34 0 -61 19q-37 20 -49 65q-4 16 -4 30q0 48 33.5 81.5t80.5 33.5q34 0 63 -20q10 -6 17 -14zM216 330q-14 0 -24 -10t-10 -25q0 -34 34 -34q14 0 24 10t10 24q0 15 -10 25t-24 10z" />
    <glyph glyph-name="u" unicode="u" horiz-adv-x="745" 
d="M506 513q-15 46 -52.5 79t-84.5 41q-3 14 -13 24q-7 5 -12 7t-14 2q-5 1 -10 0q-4 0 -8 -2q-7 -1 -11.5 -4t-9.5 -8q-1 -2 -4.5 -10.5t-2.5 -11.5l1 -2q-57 -16 -92 -64t-35 -107q0 -52 27 -94l-53 -53q-47 64 -46 146v2q-1 13 -2.5 26t-12.5 22q-2 1 -4 3q-18 11 -34 1
q-3 -2 -7 -5q-14 -13 -13 -55q2 -129 94.5 -221.5t221.5 -95.5h8h8q67 0 120 26q41 19 101 69q80 82 92 185q1 12 1 44q0 46 -26 54q-23 7 -39 -9q-3 -3 -4 -6q-5 -11 -4 -27q2 -22 0 -37q-6 -72 -51 -130l-53 52q33 46 33 103q0 28 -9 56zM235 509q6 14 21 29q34 33 81 33
q36 0 63 -18q11 -8 17 -15q10 -10 19 -26q15 -26 15 -55q0 -24 -9 -45q-7 -12 -25.5 -35t-49.5 -29q-11 -4 -30 -4h-7q-20 1 -32 6q-7 2 -20 9q-2 1 -3 2l-6 4q-4 4 -13 12q-34 34 -33 80q1 25 9 45q1 2 3 7zM232 313l2 -2q27 -20 64 -28v-76q-63 11 -119 53zM399 212
q-11 -2 -32 -6v75q34 5 66 26l52 -53q-38 -30 -86 -42zM540 298v0v0zM504 252l2 2zM371 457q0 14 -10 24.5t-24 10.5q-35 0 -35 -35q0 -13 10.5 -23.5t24.5 -10.5q34 0 34 34z" />
    <glyph glyph-name="v" unicode="v" horiz-adv-x="557" 
d="M249 726h-5q-82 0 -148 -29q-19 -9 -37 -21q-10 -7 -29 -34l-4 -4q-14 -28 -13 -50v-8q4 -69 49 -122q27 -32 64 -49q8 -4 17 -7q-16 -11 -28 -23q-52 -51 -52 -127q0 -74 52.5 -126.5t125.5 -51.5q75 1 126.5 53t51.5 125q0 76 -52 127q-11 11 -25 21q2 1 6 4
q31 19 53 40q10 7 23 23q42 52 41 120v8q-1 5 -1 7.5t-1 10.5l55 30q10 6 22 13q7 4 18 20q4 13 -2 28q-9 22 -31 22q-13 0 -30 -9v0q-6 -1 -12 -5q-22 -11 -57 -36q-70 50 -177 50zM88 560q-4 17 -4 21v7q1 12 6 21q12 23 65 38q45 14 79 13q74 -2 135 -30q7 -3 14 -19
q3 -3 11 -25q1 -8 1 -11q3 -24 -16 -53q-5 -7 -33 -35q-53 -40 -106 -41q-87 4 -130 67q-13 20 -22 47zM355 252q0 -29 -14 -55q-7 -13 -19 -25q-35 -33 -80 -33q-35 0 -62 18q-7 4 -19 15q-9 7 -18 24q-15 25 -15 56q0 48 33 81t81 33q46 0 79.5 -33.5t33.5 -80.5zM241 287
q-14 0 -24 -10.5t-10 -24.5q0 -13 10.5 -23.5t23.5 -10.5q14 0 24.5 10.5t10.5 23.5q0 35 -35 35z" />
    <glyph glyph-name="w" unicode="w" horiz-adv-x="689" 
d="M314 690q-32 -3 -32 -36v-191q-52 -10 -92 -49q-4 -4 -11 -12q-3 1 -9 2q-67 24 -82 107l-5 31q-3 18 -20 24q-8 3 -16 2q-13 0 -18 -4q-18 -10 -18 -34q0 -87 65 -153q25 -25 56 -37l12 -5q-7 -25 -7 -47q0 -74 52.5 -126t126.5 -52q75 0 127 51.5t52 126.5q0 24 -6 46
l10 4q28 9 59 39q28 28 43 58q19 40 19 93q0 24 -17 35q-5 3 -19 3q-31 4 -36 -26q-3 -23 -16 -70q-20 -48 -71 -68q-2 -1 -6 -2q-45 52 -105 63v191v1q-1 18 -12 27q-1 1 -5 3q-7 6 -19 5zM430 288q0 -48 -33 -81t-81 -33q-47 0 -80.5 33t-33.5 81q0 47 33.5 80t80.5 33
q48 0 81 -33t33 -80zM316 322q-14 0 -24 -10t-10 -24q0 -35 34 -35q15 0 24.5 10.5t9.5 24.5t-10 24t-24 10z" />
    <glyph glyph-name="x" unicode="x" horiz-adv-x="568" 
d="M34 640q-30 -3 -31 -34q-1 -13 10 -23l83 -83q-26 -40 -26 -93q0 -59 33 -103l-86 -86q-2 -2 -6 -11t-2 -16q2 -30 33 -31q14 -1 24 9l87 88q42 -28 96 -28q51 0 92 26l83 -84h1q14 -12 28 -11q2 0 5 1h1q9 3 15.5 10.5t8 12t1.5 11.5q0 14 -12 25l-80 80q35 47 35 107
q0 55 -28 96l78 77v2q12 13 12 28q0 1 -1 4v2q-3 9 -11 15.5t-13.5 8t-9.5 0.5q-15 0 -26 -11l-76 -77q-45 33 -103 33q-61 0 -106 -35l-82 81q-14 12 -27 9zM306 506l6 -4q6 -4 16.5 -14.5t15.5 -17.5q0 -1 2 -3q17 -34 17 -60t-17 -60q-20 -31 -53 -45q-21 -8 -44 -9
q-24 0 -48 11q-5 2 -14 7q0 1 -1 1q-7 5 -18 15q-33 36 -33 80q1 26 9 44v1q21 37 45.5 53t59.5 16q32 0 57 -15zM74 568zM81 231v0v0v0zM251 441h-2q-15 0 -25 -10t-10 -24q0 -1 1 -3q0 -12 9 -21.5t22 -10.5h3q14 0 24 10.5t10 24.5v3q-1 12 -10 21t-22 10z" />
    <glyph glyph-name="y" unicode="y" horiz-adv-x="514" 
d="M386 703l-6 -5v0l-46 -45l-1.5 1.5l-2.5 2.5l-39 19q-39 12 -60 9q-61 1 -106 -34l-28 28v-1l-8 7v-1l-24 26q-13 10 -27 8q-31 -3 -32 -33q0 -13 10 -24l26 -26v0l11 -11h1l24 -24q-25 -41 -25 -93q0 -73 52 -126q34 -34 77 -46l4 -53q4 -49 -9 -74q-3 -7 -36 -51
q-4 0 -6 -1q-28 -3 -29 -29v-5q0 -2 1 -7q4 -31 30 -29q7 0 53 -2q8 0 16.5 13t18.5 13q16 0 28 -14q4 -4 8.5 -9t8.5 -4q13 1 49 -2q19 2 26 25q1 6 0 14q-2 17 -15 30q-7 7 -12.5 7.5t-22.5 20.5q-15 17 -18 26q-4 6 -5 14q-1 1 -1 3q-3 17 -4 59l-1 22v30q51 10 91 49
q49 50 52 120h1v6q0 55 -28 96l17 17v0l36 35v1q12 13 11 28q0 1 -1 5v1q-8 25 -34 25q-15 0 -25 -12zM78 646zM231 621q7 0 9 -1l25 -3l15 -6l14 -8q51 -40 51 -96q0 -4 -1 -6v-1q0 -40 -33 -73t-80 -33q-46 0 -81 33q-28 28 -32 67v7v6q0 48 32.5 81t80.5 33zM255 532
q-2 3 -9 7l-6 2q-2 1 -9 1q-35 0 -35 -35q0 -1 1 -3v-3q1 -3 1 -4q9 -24 33 -24q25 0 33 26v2q1 2 1 6q0 14 -10 25z" />
    <glyph glyph-name="z" unicode="z" horiz-adv-x="441" 
d="M31 702q-6 -5 -8 -12q-1 -3 -3 -11q0 -8 7 -24q10 -11 29 -12h1h32l69 -68q-57 -9 -98 -51q-52 -52 -52 -126q0 -91 71 -142h-1l165 -168h75q32 0 33 32q1 31 -33 37h-40l-68 64q66 9 110 60t44 117q0 89 -84 152v0q0 1 2 -0.5t5 -3.5l-165 166h-66q-16 0 -25 -10z
M263 482q1 -2 4 -3q32 -34 32 -81t-32.5 -80.5t-80.5 -33.5q-47 0 -80.5 33.5t-33.5 80.5q0 48 33 81l36 24q17 9 45 9q43 0 77 -30zM186 432q-14 0 -24.5 -9.5t-10.5 -24.5q0 -14 10 -24t25 -10q14 0 24 10t10 24q0 15 -10.5 24.5t-23.5 9.5z" />
    <glyph glyph-name="nonbreakingspace" unicode="&#xa0;" horiz-adv-x="367" 
 />
    </font>
</defs>
</svg>
