<?xml version="1.0" standalone="no"?>
<!DOCTYPE svg PUBLIC "-//W3C//DTD SVG 1.1//EN" "http://www.w3.org/Graphics/SVG/1.1/DTD/svg11.dtd" >
<svg>
<metadata>
Created by FontForge 20120731 at Wed May 28 19:27:10 2014
 By World Wide Web Server
Jenny Barck 2001
</metadata>
<defs>
<font id="HarryPotter" horiz-adv-x="348" >
  <font-face 
    font-family="Harry Potter"
    font-weight="400"
    font-stretch="normal"
    units-per-em="1000"
    panose-1="0 0 4 0 0 0 0 0 0 0"
    ascent="800"
    descent="-200"
    x-height="355"
    cap-height="800"
    bbox="-558 -691 1314 800.493"
    underline-thickness="20"
    underline-position="-123"
    unicode-range="U+0020-00F6"
  />
<missing-glyph horiz-adv-x="500" 
d="M63 0v800h375v-800h-375zM125 63h250v675h-250v-675z" />
    <glyph glyph-name=".notdef" horiz-adv-x="500" 
d="M63 0v800h375v-800h-375zM125 63h250v675h-250v-675z" />
    <glyph glyph-name=".null" horiz-adv-x="0" 
 />
    <glyph glyph-name="nonmarkingreturn" 
 />
    <glyph glyph-name="space" unicode=" " 
 />
    <glyph glyph-name="A" unicode="A" horiz-adv-x="764" 
d="M764 -200h-235l34 35l-109 404q-10 -3 -42 -27q-42 -27 -85 -27h-15l-41 -249l46 -47h-250l46 47l41 234q-11 7 -35 19q-41 18 -92 50q-29 39 -29 64q0 7 2 13q6 14 26.5 25t35.5 10q9 0 46 -4q-14 -7 -39 -23q-11 -7 -11 -22q0 -31 27 -40q11 -3 99 -12l66 499l-43 46
l147 5l190 -10l-31 -31l99 -393q11 0 31 8q22 7 62 0l-31 -23q-4 3 -10 3q-9 0 -20 -6.5t-39 -35.5l116 -470zM454 312l-68 450l-2 -2l-62 -501q2 -2 7 -2q15 0 44 17q20 11 81 38z" />
    <glyph glyph-name="B" unicode="B" horiz-adv-x="568" 
d="M518 -56l-22 -68q-19 -17 -61 -43q-15 -5 -52 -5q-39 0 -55 5q-21 7 -112 96l-4 -124l-197 12l67 44l3 497l-26 417l-6 20l167 -4l4 -61q88 37 110 36q10 -4 69 -72t66 -82q6 -34 -16 -256l-20 -35q56 -43 106 -122q7 -34 -21 -255zM335 683q-30 13 -72 13q-20 0 -40 -3
l-4 -306q85 -14 166 -31q-1 20 -7 248q2 8 2 15q0 28 -21 48q-16 16 -24 16zM399 261q-18 16 -35 28q-41 31 -70 39l-63 6l-13 -360q139 -23 189 -41q12 12 12 135q0 58 -3 137q1 6 1 12q0 25 -18 44z" />
    <glyph glyph-name="C" unicode="C" horiz-adv-x="553" 
d="M553 -52q-15 -45 -91.5 -96.5t-121.5 -51.5q-109 0 -176 86q-19 26 -34 51q-36 61 -45 109l-11 465l-74 14l28 70q21 -19 46 -14q14 5 18.5 22t9.5 35q8 11 32 30q60 48 195 132q59 6 134 -61q27 -39 27 -72q0 -21 -10 -34q-25 -27 -168 -108q-14 -7 -62 -35v-521
q33 -77 84 -86q38 -2 76.5 24.5t40.5 57.5q8 126 -12 191q-15 6 -35 6q-37 0 -75 -24l54 85q51 20 72 15q100 -37 98 -120q-1 -69 0 -170zM369 687q-16 6 -31 6t-26 -6q-12 -9 -23 -22q-24 -33 -34 -84q42 7 74 36q8 9 16 19q17 25 24 51z" />
    <glyph glyph-name="D" unicode="D" horiz-adv-x="513" 
d="M486 32q1 -7 1 -14q0 -76 -96 -149q-5 -2 -34 -26q-24 -20 -37 -15q-17 6 -80 40q-66 35 -78 47l-4 -115l-158 12l75 50l3 485l-26 407l-7 25l124 -8v-58q67 77 144 87q98 0 129 -30q44 -43 44 -188v-550zM382 551q2 10 2 21q0 42 -20 83q-46 36 -58 36q-4 0 -4 -3
l-130 -51l4 -622q77 -35 144 -35q13 0 22 1q8 32 14 99q17 161 26 471z" />
    <glyph glyph-name="E" unicode="E" horiz-adv-x="645" 
d="M645 -90l-372 -110l12 59l-225 -44l76 51l3 385q-64 14 -87 35q-52 47 -52 81q0 10 6 18q27 26 126 23q-24 -6 -41 -21q-19 -19 -19 -23q0 -6 16 -13q12 -5 51 -11v19l-26 415l-7 26l178 -4l3 -59q193 18 241 13l74 39l3 -134l-90 33l-213 -31l-18 -329q27 0 39 2
q45 9 160 49q37 11 86 11q18 0 36 -2q-125 -47 -203 -103q-23 -18 -61 -25q-29 -5 -58 -9l2 -288l351 16z" />
    <glyph glyph-name="F" unicode="F" horiz-adv-x="546" 
d="M546 654l-90 33l-214 -30l-16 -292l257 24l46 47l3 -140l-44 28l-257 -50l-14 -474l-217 13l77 51l1 473l14 411l-46 52l178 -4l4 -59q193 18 241 13l74 38z" />
    <glyph glyph-name="G" unicode="G" horiz-adv-x="686" 
d="M653 -8q-34 0 -101 29q1 -36 1 -73q-15 -45 -91.5 -96.5t-121.5 -51.5q-109 0 -176 86q-19 26 -34 51q-36 61 -45 109l-4 151q-18 6 -68 27l38 6q11 -1 30 -2l-7 283l-74 14l28 70q21 -19 46 -14q14 5 18.5 22t9.5 35q8 11 32 30q60 48 195 132q59 6 134 -61
q27 -39 27 -72q0 -21 -10 -34q-25 -27 -168 -108q-14 -7 -62 -35v-256q53 7 102 2q141 -13 181 -30q33 -14 73 -42q48 -35 60 -61q20 -42 20 -73q0 -38 -33 -38zM369 687q-16 6 -31 6t-26 -6q-12 -9 -23 -22q-24 -33 -34 -84q42 7 74 36q8 9 16 19q17 25 24 51zM551 96
q-1 -12 1 -73q25 -3 41 3q26 11 26 16t-10.5 16t-57.5 38zM454 25q0 78 -15 129q-33 14 -79 17q-38 3 -110 2v-204q33 -77 84 -86q39 -2 77 24.5t40.5 57.5t2.5 60z" />
    <glyph glyph-name="H" unicode="H" horiz-adv-x="753" 
d="M753 427l-33 -25q-4 3 -11 3q-10 0 -21 -6.5t-42 -37.5v-516l45 -45h-250l37 37l8 447q-11 -4 -45 -29q-45 -29 -90 -29h-17v-307l50 -49h-267l49 49v291q-11 7 -37 20t-53 26q-38 19 -45 28q-31 41 -31 68q0 7 3 14q5 14 27 26t38 10q10 0 49 -4q-15 -7 -41 -24
q-12 -8 -12 -24q0 -33 29 -42q12 -4 78 -24v438l-46 49h246l-26 -26v-441q3 -2 7 -2q17 0 48 18q21 13 86 41v406l-33 33h234l-33 -33v-348q12 0 33 8q24 8 66 0z" />
    <glyph glyph-name="I" unicode="I" horiz-adv-x="222" 
d="M201 362l-19 -234l-47 75l-11 -227l-37 48l-15 -224l-55 383l33 -28l-40 259l37 -24l-26 386l-7 24l176 -3l3 -56z" />
    <glyph glyph-name="J" unicode="J" horiz-adv-x="429" 
d="M429 530l-68 -9v-605l-245 -116l-107 90l-9 39l159 -5l-73 -38q32 -44 51 -47q7 1 17 7q25 15 65 53l17 894q-1 5 0 7v-7q3 -15 24 -51q16 -26 169 -212z" />
    <glyph glyph-name="K" unicode="K" horiz-adv-x="668" 
d="M668 60l-247 -170l7 127l-201 238l-31 -378q28 -27 68 -77l-258 1q-28 -8 61 76l46 701l-106 -52q162 205 207 274l28 -397l289 380l137 -205l-137 -16q-164 -201 -198 -228l198 -228z" />
    <glyph glyph-name="L" unicode="L" horiz-adv-x="581" 
d="M581 -6l-13 -107l-109 -87h-383v693l-76 9q140 165 186 234q12 19 27 57v7q1 -3 0 -7l21 -904l204 -2q7 1 14 6q17 14 37 47l-12 44z" />
    <glyph glyph-name="M" unicode="M" horiz-adv-x="1054" 
d="M1054 -164l-230 -36l47 141l-120 389l-160 -351l76 -138l-260 -9l75 120l-118 383l-169 -371l59 -152l-234 25l78 126l200 462q-121 324 -137 325q-7 0 -15 -5q-20 -13 -47 -46l74 -56l-173 13l14 46l128 98l242 -175l166 -517l161 403l-68 124l210 -4l-40 -107l169 -559
z" />
    <glyph glyph-name="N" unicode="N" horiz-adv-x="732" 
d="M732 -200l-255 7l46 37l-1 68l-309 682l-15 -616l134 -73h-332l61 49l5 797l-56 49h307l-34 -26l-4 -48l276 -593l14 612l-77 55l235 -7l-41 -33l-10 -915z" />
    <glyph glyph-name="O" unicode="O" horiz-adv-x="584" 
d="M583 377q1 -61 1 -111q0 -163 -15 -241q-14 -69 -50 -112q-94 -113 -169 -113q-113 0 -181 86q-20 26 -35 51q-37 61 -47 109l-11 465l-76 14l29 70q22 -19 47 -14q14 5 19 22t10 35q8 11 33 30q61 48 200 132q61 6 138 -61q60 -57 77 -105q26 -72 30 -257zM379 687
q-16 6 -31 6q-16 0 -27 -6q-13 -9 -24 -22q-25 -33 -35 -84q44 7 76 36q9 9 16 19q18 25 25 51zM403 -23l-1 590q-49 -26 -81 -42q-15 -7 -65 -35v-521q16 -80 65 -71q17 6 32 16q35 24 50 63z" />
    <glyph glyph-name="P" unicode="P" horiz-adv-x="463" 
d="M430 628q6 -33 -14 -242l-34 -58q-28 -29 -40.5 -34.5t-44.5 -7.5q-35 -2 -46 4q-6 3 -12 12q-14 19 -30 60l-17 -234l-45 75l-10 -227l-35 48l-13 -224l-52 383l31 -28l-38 259l34 -24l-24 386l-7 24l166 -3l3 -56q80 34 100 31q11 -3 66.5 -67t61.5 -77zM292 659
q3 13 3 23q0 23 -13 25q-11 0 -80 -10l-3 -276q74 -13 90 -11q9 21 3 249zM292 362l-52 7q4 -29 21 -28q11 5 31 21z" />
    <glyph glyph-name="Q" unicode="Q" horiz-adv-x="673" 
d="M658 -200q-6 -3 -18 -3q-37 0 -103 30q24 -4 44 3q26 11 26 16t-9 15q-35 34 -155 89q-66 -67 -122 -67q-61 0 -101.5 22.5t-77.5 73.5q-27 5 -134 47l37 6q31 -2 67 -4q-13 23 -32 81l-11 426l-69 13l27 64q20 -18 42 -13q14 4 18.5 20t8.5 32q7 10 31 28q55 44 183 121
q56 5 126 -56q56 -52 72 -96q23 -66 26 -236q2 -56 2 -102q0 -222 -39 -293q15 -4 25 -9q33 -13 72 -42q48 -34 60 -60q19 -42 19 -72q0 -25 -15 -34zM347 696q-14 6 -28 6q-15 0 -26 -7t-20 -19q-23 -30 -32 -77q39 6 69 33q8 8 15 17q16 23 22 47zM370 45l-1 542
q-45 -24 -75 -39q-13 -7 -59 -32v-478q14 -73 59 -65q16 6 30 15q32 22 46 57z" />
    <glyph glyph-name="R" unicode="R" horiz-adv-x="817" 
d="M817 16l-276 -78l20 96l-281 358q50 43 76 71q33 38 33 98q0 38 -15 52q-14 10 -45 10q-29 0 -68 -10v-709q37 -40 90 -55q52 -11 76 -11v-38q-145 10 -246 38q-45 14 -181 44l10 39q34 -6 50 16q40 69 40 127v522l-45 5l5 33l186 176l15 -104l158 87q81 -81 105 -159
q15 -55 15 -75q0 -31 -25 -46q-6 -4 -33 -37t-59 -54l254 -353z" />
    <glyph glyph-name="S" unicode="S" horiz-adv-x="502" 
d="M481 56l-338 -256q-135 222 -125 265q9 9 31 23q52 33 157 85l19 -27q-55 -25 -73 -81q-3 -16 -3 -31q0 -67 52 -75q28 -4 62 50q28 42 51 105q8 24 8 55q0 42 -16 82l-259 -43q-31 78 -47 157q-8 81 16 154l318 281q152 -211 145 -254q-9 -10 -29 -26q-49 -37 -150 -97
l-21 26q28 26 37.5 53.5t9.5 61.5q0 71 -37 73q-34 2 -71 -34t-44 -87q-1 -3 -16 -84q-11 -60 -9 -73q135 5 185 -3q60 -14 87 -28q34 -17 55 -50q26 -45 26 -110q0 -55 -21 -112z" />
    <glyph glyph-name="T" unicode="T" horiz-adv-x="973" 
d="M959 548q14 -56 14 -105q0 -78 -34 -106q-16 -12 -48 -12q-54 0 -131 37q36 -3 70 17q40 26 50 36q27 25 22 56q-14 88 -88 146t-174 58q-18 0 -37 -2q-46 -8 -123 -18l-14 -790l58 -65h-256l65 58l3 768q-43 -12 -111 -25q-24 -11 -63 -11q-72 0 -162 40l58 22
q127 7 191 18q13 3 79 26l-1 104l157 -29l2 -36q16 2 29 2q211 9 268 -15q46 -20 100 -67q64 -57 76 -107z" />
    <glyph glyph-name="U" unicode="U" horiz-adv-x="628" 
d="M628 800l-27 -37q0 -381 0 -351q-6 -270 -16 -347q-12 -98 -52 -146q-99 -119 -179 -119q-119 0 -192 92q-21 27 -37 54q-39 64 -49 115l-13 493l-26 123l-37 40l234 28l-68 -76l12 -180l77 -510q12 -77 69 -75q23 5 43 18q48 32 67 97l28 698l-87 80z" />
    <glyph glyph-name="V" unicode="V" horiz-adv-x="656" 
d="M656 693l-69 -164l-200 -729l-296 776l-91 149l239 75l-34 -179l170 -463l110 356l-80 179h251z" />
    <glyph glyph-name="W" unicode="W" horiz-adv-x="1314" 
d="M1314 -39l-11 -48l-134 -113l-299 152l-253 506l-191 -543l-334 754l-92 69l259 62l-48 -83l203 -506l140 373l-103 132l296 37l-71 -129l182 -376l148 394l-86 148h271l-74 -135l-172 -492q177 -315 197 -315q7 2 16 8q21 15 48 52l-91 48z" />
    <glyph glyph-name="X" unicode="X" horiz-adv-x="934" 
d="M934 -172l-311 -28l54 112l-176 287l-22 19l-197 -289l92 -122l-322 22l97 99l250 387l-282 343l-117 89l308 44l-44 -107l220 -279l176 288l-103 107h323l-88 -98l-218 -376l252 -395z" />
    <glyph glyph-name="Y" unicode="Y" horiz-adv-x="862" 
d="M888 722l-37 -49q-149 -380 -217 -509q-80 -155 -159 -311q-145 -278 -202 -353q-324 28 -429 61q-95 37 -99 39q-45 22 -45 50q0 8 3 16q7 17 20 35q33 43 90 81l166 -24l-16 -35q-30 6 -64 4q-28 -2 -46 -18t-18 -34q0 -13 9 -22q14 -7 52 -14q92 -17 291 -29l173 293
l-212 783l-49 24v25l307 6l6 -31l-84 -21l140 -576l236 554l-61 49z" />
    <glyph glyph-name="Z" unicode="Z" horiz-adv-x="750" 
d="M750 -121l-750 -79l559 905l-382 16l-136 -207l14 286l682 -32l-519 -841l437 63l68 286z" />
    <glyph glyph-name="a" unicode="a" horiz-adv-x="367" 
d="M362 41l-97 -126q-21 -8 -40 -2q-11 9 -29 47q-53 -30 -74 -45q-13 -10 -30 -10t-29 9.5t-30 67.5q-17 53 -21 85q-10 89 9 126q8 17 67 80l93 -4v-21q-47 -20 -55 -42q-1 -6 -1 -21q0 -48 7 -101q7 -65 19 -72q7 -4 16 -4q16 0 31 12v388q-9 17 -38 8q-28 -9 -30 -10
q-13 -5 -29 -19q-6 -6 -11 -15q-12 -20 -15 -48q-19 31 -38 67q-10 23 -10 52q0 12 2 24l143 76l154 -154v-348h36z" />
    <glyph glyph-name="b" unicode="b" horiz-adv-x="498" 
d="M498 229q-5 -289 -27 -342q-16 -24 -158 -87q-48 -5 -244 116v605l-69 9q127 149 169 212q11 18 24 53v5q1 -2 0 -5l17 -287v-609q63 -40 85 -43q8 0 48 30l16 208q3 39 3 69q0 76 -16 89q-38 6 -105 -51l3 94q38 34 100 34q17 0 31 -2q24 -7 45 -18q50 -29 78 -80z" />
    <glyph glyph-name="c" unicode="c" horiz-adv-x="361" 
d="M343 336l-171 -13l72 49q-25 20 -57 20q-15 -5 -43 -63q-41 -82 -44 -190q-5 -32 16 -122q17 -72 28 -101q49 14 83 28l-47 76l152 -82l-32 -34l-183 -53l-112 160l-7 139l33 195l168 100l128 -64z" />
    <glyph glyph-name="d" unicode="d" horiz-adv-x="479" 
d="M479 543l-67 -3l-13 -589q-112 -151 -214 -151q-29 0 -49 12q-45 31 -71 52q-51 40 -61.5 61.5t-10.5 122.5q0 85 7 211q50 76 127 86q80 9 124 -5l-3 -127q-61 61 -98 57q-25 -18 -24 -152v-204q27 -29 46 -33q8 0 112 61l24 858z" />
    <glyph glyph-name="e" unicode="e" horiz-adv-x="375" 
d="M363 229l-53 8l-62 14l-89 31q-9 -109 -9 -182q0 -56 5 -80q15 -60 39 -60q8 0 17.5 7.5t19.5 26.5q23 46 48 137q55 -55 55 -72q-2 -7 -29 -48q-73 -95 -97 -106q-22 -3 -71 9l-124 133l18 368q82 82 159 115q14 5 28 5q36 0 76 -34q23 -23 47 -46q22 -33 22 -226z
M243 317q-7 36 -26 106q-3 11 -14 26.5t-20 15.5q-10 0 -15 -19q-13 -54 -13 -120z" />
    <glyph glyph-name="f" unicode="f" horiz-adv-x="417" 
d="M422 484l-142 5l66 34q-28 39 -46 43q-8 0 -73 -54v-411h85l3 -69h-92l3 -353l41 -66l-198 -13l43 59l-17 402l-105 -19l13 72h92l5 384l219 102l96 -81z" />
    <glyph glyph-name="g" unicode="g" horiz-adv-x="429" 
d="M405 399q-4 -45 -31 -225q-19 -121 -37 -241q-8 -57 -36 -194q-33 -156 -56 -240q-264 -76 -356 -82q-89 0 -97 1q-44 6 -45 38q0 15 5 33q13 44 46 91l138 32l-3 -33q-25 -4 -51 -16q-36 -18 -36 -49q0 -18 15 -25q45 -6 283 70l68 262q-146 15 -146 36q0 1 1 2
q-25 26 -25 117q0 62 11 129q11 63 24 83q59 89 74 105q66 74 142 82l15 -47zM289 241h-67l-68 -73l-45 -152q-6 -100 75 -100q19 0 42 6z" />
    <glyph glyph-name="h" unicode="h" horiz-adv-x="523" 
d="M519 213q4 -10 4 -36q0 -53 -19.5 -184t-19.5 -140q0 -11 23 -53l-182 8q6 1 14 6q19 13 46 47l15 220q-11 116 -45 136q-6 2 -16 2q-25 0 -65 -11q-35 -10 -51 -19l-27 -313q40 -64 60 -68l-250 -8q-27 -9 61 76l45 698l-105 -52q131 154 173 219q25 39 25 56v3
q1 -1 0 -3l13 -218l8 -294q60 31 128 31q22 0 38 -3q56 -11 86 -37q24 -22 41 -63z" />
    <glyph glyph-name="i" unicode="i" horiz-adv-x="337" 
d="M216 543q0 -35 -24 -60.5t-58 -25.5t-58 25.5t-24 60.5q0 36 24 61t58 25t58 -25t24 -61zM326 -298q-102 8 -174 31q-32 11 -128 36l7 32q25 -5 36 13q28 55 28 103q0 22 2 294l-79 8l103 115l74 90l11 -85v-67l3 -485q28 -36 64 -45t53 -9v-31z" />
    <glyph glyph-name="j" unicode="j" horiz-adv-x="253" 
d="M223 589q0 -40 -29.5 -67.5t-71.5 -27.5t-71.5 27.5t-29.5 67.5q0 39 29.5 67t71.5 28t71.5 -28t29.5 -67zM221 352l-48 -78v-325l-15 -510l-242 -130l-102 110l-7 47l155 -10l-73 -44q20 -35 39 -35q10 0 17 9q16 11 96 91l27 801l-63 63z" />
    <glyph glyph-name="k" unicode="k" horiz-adv-x="581" 
d="M578 -98l-194 -102l15 83l-214 239l-22 -234q33 -27 65 -72l-222 -8q-27 -9 60 75l46 695l-105 -52q130 153 173 218q24 39 25 56l-9 -224l3 -328l170 96l45 60l59 -138l-68 11q-107 -74 -170 -101l234 -241z" />
    <glyph glyph-name="l" unicode="l" horiz-adv-x="256" 
d="M256 -192l-250 -8q-27 -9 61 76l45 698l-105 -52q131 154 173 219q25 39 25 56v3q1 -1 0 -3l-9 -921q40 -64 60 -68z" />
    <glyph glyph-name="m" unicode="m" horiz-adv-x="886" 
d="M859 -152l-178 -8q5 1 13 7q18 15 41 50l9 264q4 117 -50 117q-10 0 -19 -4q-34 -25 -94 -67q6 -12 6 -42q0 -49 -18 -171q-17 -115 -16 -128q1 -11 26 -49l-178 -9q6 2 14 8q18 15 41 49l9 264q4 118 -50 118q-10 0 -19 -4q-50 -22 -126 -71l-13 -271q44 -58 65 -61
l-243 -29q-3 -1 -4 -1q-14 0 56 80l26 357q-87 203 -99 204q-7 1 -43 -32l52 -35l-121 10l10 28l89 60l159 -95l60 -121l171 99q14 11 28 11q41 0 81 -79l170 99q8 7 18 7q30 0 70 -52q29 -36 52 -81q7 -13 7 -52q0 -55 -16 -186q-14 -123 -13 -134q1 -12 27 -50z" />
    <glyph glyph-name="n" unicode="n" horiz-adv-x="543" 
d="M514 205q3 -8 3 -25q0 -49 -28.5 -191t-28.5 -152q0 -11 22 -52l-178 7q6 1 14 7q19 13 45 45l32 262q3 23 3 42q0 80 -46 80q-9 0 -16 -3q-52 -17 -132 -59l-26 -307q39 -62 59 -67l-245 -7q-27 -9 59 74l52 395l-103 -50q88 93 135 146q30 29 61 65l11 -155l178 84
q8 5 17 5q30 0 66 -56q26 -39 46 -88zM196 395v3v-3z" />
    <glyph glyph-name="o" unicode="o" horiz-adv-x="395" 
d="M360 133q3 -128 -7 -183q-9 -50 -37 -77q-63 -64 -114 -64q-76 0 -123 49q-13 14 -24 29q-25 34 -31 61l-8 260l-51 8l20 40q14 -11 31 -8q10 2 13.5 11.5t6.5 20.5q5 6 22 17q42 27 136 73q41 4 93 -34q41 -32 53 -58q17 -41 20 -145zM222 307q-23 7 -40 0
q-9 -5 -16 -12q-17 -19 -23 -47q29 4 51 20q10 8 28 39zM238 -91l-1 331q-33 -15 -55 -24q-10 -4 -43 -19v-293q10 -44 43 -40q26 18 56 45z" />
    <glyph glyph-name="p" unicode="p" horiz-adv-x="433" 
d="M397 -25q-26 -39 -94 -67q-59 -21 -119 -43l-4 -457l39 -19l9 -20l-212 3v24l48 38l21 843l-86 14l150 128l24 -4l9 -106l119 23q9 6 19 6q26 0 49 -50q14 -36 24 -122q8 -75 8 -139q0 -45 -4 -52zM293 53q12 31 12 62q0 59 -33 91q-7 6 -18 11q-27 11 -72 15l-1 -249
q34 10 67 19q30 12 45 51z" />
    <glyph glyph-name="q" unicode="q" horiz-adv-x="406" 
d="M473 -340l-55 -82h-101l2 -177l46 -37v-23l-197 -1l9 19l37 18l4 191l-151 -31l47 86h104l3 221q-18 7 -42 7q-20 0 -57 -7t-52 -7q-34 0 -50 25q-4 6 -4 49q0 61 8 132q9 82 23 117q29 68 56 64l129 62l26 69l105 -93l-54 -28l7 -601zM223 -44v236q-55 -34 -77 -55
q-13 -13 -26 -48q-15 -41 -15 -80q0 -29 9 -53q14 -34 28 -34q9 0 30 10q34 17 51 24z" />
    <glyph glyph-name="r" unicode="r" horiz-adv-x="327" 
d="M290 390q10 -34 10 -46q0 -19 -17 -30q-12 -7 -93 -59l-14 18q22 12 24 33q0 67 -14 77q-18 14 -31 14v-446q28 -28 63 -35t52 -7v-24q-100 6 -170 24q-31 9 -125 28l7 24q24 -3 35 11q28 42 28 79v329l-32 3l4 21l128 111l10 -66l63 42q55 -52 72 -101z" />
    <glyph glyph-name="s" unicode="s" horiz-adv-x="347" 
d="M316 56l-213 -161q-85 140 -79 167q7 8 119 68l12 -17q-38 -17 -46 -51q-3 -10 -3 -20q0 -42 33 -47q34 -4 72 98q5 15 5 34q0 27 -11 52l-162 -27q-20 49 -30 99q-5 51 10 97l200 177q96 -133 92 -160q-6 -9 -113 -78l-13 17q17 16 23 33.5t6 38.5q0 45 -23 46
q-21 1 -44 -20q-24 -24 -29 -56q0 -2 -9 -53q-7 -38 -6 -46q85 3 116 -2q69 -16 90 -49q16 -28 16 -69q0 -35 -13 -71z" />
    <glyph glyph-name="t" unicode="t" horiz-adv-x="378" 
d="M359 -59l-9 -38l-113 -103l-207 128v443l-68 9q127 149 137 212q11 18 24 53v5q1 -2 0 -5l13 -210h103l-4 -77h-95l8 -425q60 -56 82 -57q3 -6 9 -6q13 0 34 29l-73 38z" />
    <glyph glyph-name="u" unicode="u" horiz-adv-x="543" 
d="M537 -175q-130 -19 -166 -37q7 74 9 74l-9 46q-78 -60 -159 -103q-9 -4 -20 -4q-56 0 -131 97q-18 23 -29 175q-13 166 -15 171.5t-18 5.5q-25 0 -73 -18l193 184q1 1 1 2l-1 -2q-14 -19 -13 -155l37 -244q15 -100 60 -100q12 0 24 8q42 28 103 86l-52 284q-51 46 -71 45
l219 68q3 2 4 2q11 0 -39 -84l72 -436z" />
    <glyph glyph-name="v" unicode="v" horiz-adv-x="552" 
d="M529 535l-55 -102l-186 -528l-241 482l-74 92l195 47l-28 -111l139 -288l111 297l-65 111h204z" />
    <glyph glyph-name="w" unicode="w" horiz-adv-x="717" 
d="M795 -172l-6 -31l-86 -72l-190 96l-161 323l-121 -346l-204 408l-63 78l165 40l-24 -95l118 -243l89 238l-65 84l188 23l-45 -82l115 -239l95 251l-55 94h172l-47 -86l-109 -313q112 -200 125 -200q7 0 41 37l-58 31z" />
    <glyph glyph-name="x" unicode="x" horiz-adv-x="588" 
d="M562 -198l-196 -17l34 71l-111 180l-14 12l-124 -182l58 -77l-203 14l61 63l158 244l-178 215l-74 56l194 28l-28 -67l139 -176l89 123l-65 67h204l-56 -61l-115 -179l159 -248z" />
    <glyph glyph-name="y" unicode="y" horiz-adv-x="633" 
d="M580 373q-146 -270 -242 -417q-41 -70 -130 -208q-108 -167 -177 -259q-353 31 -433 28q-40 14 -118 48q-38 21 -38 46q0 7 3 15q8 19 22 38q35 46 96 87l174 -26l-14 -29q-34 7 -67 4q-32 -2 -54 -21t-22 -41q0 -15 13.5 -25.5t56.5 -18.5q103 -19 326 -32l223 341
l-102 440l-90 40v18l262 2l10 -35l-54 -13l64 -295l191 326l-60 48l248 6z" />
    <glyph glyph-name="z" unicode="z" horiz-adv-x="493" 
d="M492 -105l-473 -50l290 430l-226 15l-75 -96l9 180l430 -20l-291 -429l275 40l43 180z" />
    <glyph glyph-name="Adieresis" unicode="&#xc4;" horiz-adv-x="607" 
d="M465 741q0 -24 -18.5 -41t-44.5 -17t-44 17t-18 41q0 25 18 42t44 17t44.5 -17t18.5 -42zM275 739q0 -24 -18 -41.5t-44 -17.5t-44.5 17.5t-18.5 41.5t18.5 41.5t44.5 17.5t44 -17.5t18 -41.5zM607 -200h-186l27 27l-86 321q-9 -3 -34 -21q-33 -22 -67 -22h-12l-33 -198
l37 -36h-198l36 36l33 186q-9 6 -28 15q-32 15 -73 40q-23 31 -23 51q0 15 17.5 27t33.5 11q7 0 36 -3q-11 -6 -30 -19q-9 -5 -9 -17q0 -24 21 -32q9 -3 78 -9l53 395l-34 37l116 4l151 -8l-25 -25l79 -311q9 0 25 6q17 6 48 0l-24 -18q-9 5 -24 -3q-8 -5 -31 -28l93 -372z
M362 206l-54 356l-2 -1l-49 -398q2 -1 5 -1q13 0 36 14q15 9 64 30z" />
    <glyph glyph-name="Aring" unicode="&#xc5;" horiz-adv-x="578" 
d="M360 724q0 -31 -24 -53.5t-58 -22.5q-33 0 -57 22.5t-24 53.5q0 32 24 54t57 22q34 0 58 -22t24 -54zM578 -200h-177l26 26l-82 306q-8 -3 -32 -21q-32 -20 -64 -20h-12l-31 -189l35 -35h-189l35 35l31 177q-8 6 -26 15q-31 13 -70 38q-22 29 -22 48q0 15 16.5 26
t31.5 10q8 0 35 -3q-11 -5 -29 -18q-9 -5 -9 -16q0 -23 21 -30q8 -3 74 -9l50 376l-32 35l111 4l143 -8l-23 -23l75 -297q8 0 23 6q17 6 47 0l-24 -17q-8 5 -23 -3q-7 -4 -29 -26l88 -355zM345 187l-52 339l-2 -1l-47 -379q3 -1 6 -1q11 0 34 13q14 8 61 29z" />
    <glyph glyph-name="Odieresis" unicode="&#xd6;" horiz-adv-x="530" 
d="M525 745q0 -21 -15.5 -35.5t-38.5 -14.5q-22 0 -38 14.5t-16 35.5t16 35.5t38 14.5q23 0 38.5 -14.5t15.5 -35.5zM180 731q0 -21 -16 -35.5t-38 -14.5q-23 0 -38.5 14.5t-15.5 35.5t15.5 35.5t38.5 14.5q22 0 38 -14.5t16 -35.5zM514 314q1 -54 1 -98q0 -146 -13 -214
q-12 -61 -44 -98q-81 -99 -146 -99q-98 0 -158 75q-17 23 -30 45q-33 53 -41 95l-11 418l-65 12l21 51q20 -15 41 -10q15 5 20 21.5t9 31.5q7 10 29 27q54 41 176 115q52 4 117 -53q65 -61 83 -145q9 -41 11 -174zM344 593q-19 7 -35 7t-26 -6q-40 -22 -56 -104q47 7 78 34
q8 8 15 18q16 24 24 51zM364 -43l-1 535q-50 -27 -80 -42q-13 -6 -60 -33v-467q14 -69 56 -69q5 0 8 1q17 6 30 16q33 22 47 59z" />
    <glyph glyph-name="adieresis" unicode="&#xe4;" horiz-adv-x="353" 
d="M312 459q0 -25 -19.5 -43t-46.5 -18t-46 18t-19 43t19 43t46 18t46.5 -18t19.5 -43zM138 468q0 -25 -19 -43t-46 -18t-46 18t-19 43t19 43t46 18t46 -18t19 -43zM344 -76l-87 -113q-19 -8 -36 -2q-10 8 -26 42q-47 -26 -67 -40q-12 -9 -27 -9t-25.5 8.5t-27.5 60.5
q-15 48 -18 76q-9 81 7 114q8 15 61 72l83 -4v-19q-42 -18 -49 -38q-4 -19 3 -90q7 -77 20 -84q6 -4 14 -4q14 0 27 11v349q-7 15 -34 7q-25 -8 -26 -9q-12 -5 -27 -17q-5 -5 -10 -13q-10 -18 -13 -44q-17 28 -34 61q-9 21 -9 47q0 10 2 21l129 68l138 -138v-313h32z" />
    <glyph glyph-name="aring" unicode="&#xe5;" horiz-adv-x="317" 
d="M219 471q0 -24 -18 -41t-44 -17t-44 17t-18 41t18 41t44 17t44 -17t18 -41zM308 -81l-83 -108q-17 -8 -34 -2q-9 7 -25 40q-45 -25 -64 -38q-11 -9 -25 -9q-15 0 -25 8.5t-26 57.5q-15 46 -18 73q-8 77 8 108q7 15 57 69l80 -4v-18q-40 -17 -47 -36q-4 -19 3 -86
q7 -73 19 -80q6 -4 13 -4q14 0 26 11v332q-7 15 -32 8q-24 -8 -25 -9q-11 -5 -26 -17q-5 -5 -9 -12q-10 -17 -12 -42q-17 27 -33 58q-9 20 -9 45q0 10 2 20l123 65l132 -132v-298h30z" />
    <glyph glyph-name="odieresis" unicode="&#xf6;" horiz-adv-x="384" 
d="M351 441q0 -26 -19.5 -44t-46.5 -18t-46.5 18t-19.5 44q0 25 19.5 43t46.5 18t46.5 -18t19.5 -43zM140 459q0 -26 -19.5 -44t-46.5 -18t-46.5 18t-19.5 44q0 25 19.5 43t46.5 18t46.5 -18t19.5 -43zM358 114q3 -125 -7 -178q-8 -48 -35 -75q-61 -61 -111 -61
q-74 0 -119 47q-13 14 -23 28q-25 33 -31 59l-7 253l-50 8l19 38q14 -11 31 -8q9 3 12 12t6.5 18t153.5 89q40 4 91 -33q39 -31 51 -57q17 -39 19 -140zM224 283q-22 6 -38 0q-9 -5 -16 -12q-16 -18 -23 -46q29 4 50 20q10 7 27 38zM240 -104l-1 322q-32 -14 -53 -23
q-10 -4 -43 -19v-284q10 -43 43 -39q25 18 54 43z" />
    <glyph glyph-name="nonbreakingspace" unicode="&#xa0;" 
 />
  </font>
</defs>
</svg>
