<?xml version="1.0" standalone="no"?>
<!DOCTYPE svg PUBLIC "-//W3C//DTD SVG 1.1//EN" "http://www.w3.org/Graphics/SVG/1.1/DTD/svg11.dtd" >
<svg>
<metadata>
Created by FontForge 20120731 at Fri Jul 11 15:19:52 2014
 By World Wide Web Server
Copyright (c) 2004-7 by Kris Sowersby. All rights reserved.
</metadata>
<defs>
<font id="National-Regular" horiz-adv-x="534" >
  <font-face 
    font-family="National Regular"
    font-weight="500"
    font-stretch="normal"
    units-per-em="1000"
    panose-1="2 0 5 3 0 0 0 2 0 4"
    ascent="800"
    descent="-200"
    x-height="462"
    cap-height="589"
    bbox="-102 -257 1182 971"
    underline-thickness="57"
    underline-position="28"
    stemh="76"
    stemv="90"
    unicode-range="U+0020-F778"
  />
<missing-glyph horiz-adv-x="608" 
 />
    <glyph glyph-name="f_b" unicode="fb" horiz-adv-x="796" 
d="M424 266v-87c0 -89 60 -123 112 -123c69 0 125 56 125 178c0 111 -44 165 -115 165c-66 0 -122 -49 -122 -133zM334 581c-24 14 -48 22 -80 22c-50 0 -82 -25 -82 -91v-50h97v-72h-97v-390h-91v390h-67v72h67v49c0 124 87 164 167 164c40 0 73 -8 100 -21l76 14v-294
c23 69 83 99 148 99c113 0 182 -82 182 -231c0 -141 -73 -254 -198 -254c-80 0 -123 36 -139 79l-24 -67h-59v581z" />
    <glyph glyph-name="f_f_b" unicode="ffb" horiz-adv-x="1048" 
d="M677 266v-87c0 -89 60 -123 111 -123c69 0 126 56 126 178c0 111 -45 165 -116 165c-66 0 -121 -49 -121 -133zM677 668v-294c23 69 83 99 147 99c113 0 182 -82 182 -231c0 -141 -73 -254 -198 -254c-79 0 -123 36 -139 79l-23 -67h-60v581c-24 14 -47 22 -80 22
c-49 0 -82 -25 -82 -91v-50h98v-72h-98v-390h-90v390h-162v-390h-91v390h-67v72h67v48c0 120 76 156 149 156c40 0 59 -6 84 -18l-17 -78c-22 15 -39 20 -63 20c-40 0 -62 -24 -62 -78v-50h162v49c0 124 86 164 167 164c40 0 73 -8 100 -21z" />
    <glyph glyph-name="f_f_h" unicode="ffh" horiz-adv-x="1024" 
d="M677 668v-294c22 66 69 99 139 99c77 0 141 -42 141 -143v-330h-91v304c0 56 -26 91 -80 91c-57 0 -109 -29 -109 -130v-265h-91v581c-24 14 -47 22 -80 22c-49 0 -82 -25 -82 -91v-50h98v-72h-98v-390h-90v390h-162v-390h-91v390h-67v72h67v48c0 120 76 156 149 156
c40 0 59 -6 84 -18l-17 -78c-22 15 -39 20 -63 20c-40 0 -62 -24 -62 -78v-50h162v49c0 124 86 164 167 164c40 0 73 -8 100 -21z" />
    <glyph glyph-name="f_f_j" unicode="ffj" horiz-adv-x="749" 
d="M424 390v-390h-90v390h-162v-390h-91v390h-67v72h67v48c0 120 76 156 149 156c40 0 59 -6 84 -18l-17 -78c-22 15 -39 20 -63 20c-40 0 -62 -24 -62 -78v-50h162v45c0 129 92 168 172 168c45 0 90 -9 127 -33l-32 -74c-23 17 -53 31 -92 31c-51 0 -85 -23 -85 -95v-42
h253v-469c0 -152 -83 -201 -220 -196v76c89 -8 129 26 129 116v401h-162z" />
    <glyph glyph-name="f_f_k" unicode="ffk" horiz-adv-x="982" 
d="M677 668v-391h22l153 185h109l-185 -215l200 -247h-111l-161 207h-27v-207h-91v581c-24 14 -47 22 -80 22c-49 0 -82 -25 -82 -91v-50h98v-72h-98v-390h-90v390h-162v-390h-91v390h-67v72h67v48c0 120 76 156 149 156c40 0 59 -6 84 -18l-17 -78c-22 15 -39 20 -63 20
c-40 0 -62 -24 -62 -78v-50h162v49c0 124 86 164 167 164c40 0 73 -8 100 -21z" />
    <glyph glyph-name="f_h" unicode="fh" horiz-adv-x="771" 
d="M424 668v-294c22 66 70 99 140 99c76 0 140 -42 140 -143v-330h-90v304c0 56 -26 91 -81 91c-56 0 -109 -29 -109 -130v-265h-90v581c-24 14 -48 22 -80 22c-50 0 -82 -25 -82 -91v-50h97v-72h-97v-390h-91v390h-67v72h67v49c0 124 87 164 167 164c40 0 73 -8 100 -21z
" />
    <glyph glyph-name="f_j" unicode="fj" horiz-adv-x="496" 
d="M334 -11v401h-162v-390h-91v390h-67v72h67v45c0 129 93 168 173 168c44 0 89 -9 126 -33l-32 -74c-23 17 -53 31 -92 31c-50 0 -84 -23 -84 -95v-42h252v-469c0 -152 -83 -201 -220 -196v76c90 -8 130 26 130 116z" />
    <glyph glyph-name="f_k" unicode="fk" horiz-adv-x="730" 
d="M424 668v-391h22l154 185h109l-186 -215l201 -247h-111l-162 207h-27v-207h-90v581c-24 14 -48 22 -80 22c-50 0 -82 -25 -82 -91v-50h97v-72h-97v-390h-91v390h-67v72h67v49c0 124 87 164 167 164c40 0 73 -8 100 -21z" />
    <glyph glyph-name="ff" unicode="ff" horiz-adv-x="536" 
d="M334 390h-162v-390h-91v390h-67v72h67v48c0 120 76 156 149 156c40 0 59 -6 84 -18l-17 -78c-22 15 -39 20 -63 20c-40 0 -62 -24 -62 -78v-50h162v52c0 121 78 161 159 161c36 0 68 -7 95 -18l-17 -80c-24 14 -44 21 -73 21c-45 0 -74 -23 -74 -89v-47h118v-72h-118
v-390h-90v390z" />
    <glyph glyph-name="fi" unicode="fi" horiz-adv-x="496" 
d="M81 390h-67v72h67v45c0 129 93 168 173 168c44 0 89 -9 126 -33l-32 -74c-23 17 -53 31 -92 31c-50 0 -84 -23 -84 -95v-42h252v-462h-90v390h-162v-390h-91v390z" />
    <glyph glyph-name="fl" unicode="fl" horiz-adv-x="529" 
d="M497 75l-2 -75c-23 -6 -39 -8 -56 -8c-58 0 -105 31 -105 100v489c-24 14 -48 22 -80 22c-50 0 -82 -25 -82 -91v-50h97v-72h-97v-390h-91v390h-67v72h67v49c0 124 87 164 167 164c40 0 73 -8 100 -21l76 14v-557c0 -29 17 -41 41 -41c13 0 22 2 32 5z" />
    <glyph glyph-name="ffi" unicode="ffi" horiz-adv-x="749" 
d="M334 462v45c0 129 92 168 172 168c45 0 90 -9 127 -33l-32 -74c-23 17 -53 31 -92 31c-51 0 -85 -23 -85 -95v-42h253v-462h-91v390h-162v-390h-90v390h-162v-390h-91v390h-67v72h67v48c0 120 76 156 149 156c40 0 59 -6 84 -18l-17 -78c-22 15 -39 20 -63 20
c-40 0 -62 -24 -62 -78v-50h162z" />
    <glyph glyph-name="ffl" unicode="ffl" horiz-adv-x="782" 
d="M334 462v49c0 124 86 164 167 164c40 0 73 -8 100 -21l76 14v-557c0 -29 16 -41 40 -41c14 0 22 2 33 5l-2 -75c-24 -6 -39 -8 -56 -8c-58 0 -106 31 -106 100v489c-24 14 -47 22 -80 22c-49 0 -82 -25 -82 -91v-50h98v-72h-98v-390h-90v390h-162v-390h-91v390h-67v72h67
v48c0 120 76 156 149 156c40 0 59 -6 84 -18l-17 -78c-22 15 -39 20 -63 20c-40 0 -62 -24 -62 -78v-50h162z" />
    <glyph glyph-name=".notdef" horiz-adv-x="608" 
 />
    <glyph glyph-name="space" unicode=" " horiz-adv-x="221" 
 />
    <glyph glyph-name="exclam" unicode="!" horiz-adv-x="229" 
d="M57 589h115l-27 -415h-61zM51 56c0 36 28 62 63 62c36 0 64 -26 64 -62c0 -35 -28 -62 -64 -62c-35 0 -63 27 -63 62z" />
    <glyph glyph-name="quotedbl" unicode="&#x22;" horiz-adv-x="348" 
d="M61 412v256h98l-42 -256h-56zM209 412v256h98l-42 -256h-56z" />
    <glyph glyph-name="numbersign" unicode="#" horiz-adv-x="613" 
d="M555 144h-160l-43 -144h-69l43 144h-104l-43 -144h-69l43 144h-115v67h135l26 87h-141v67h161l35 116h70l-35 -116h103l35 116h71l-35 -116h112v-67h-133l-26 -87h139v-67zM269 298l-27 -87h104l26 87h-103z" />
    <glyph glyph-name="dollar" unicode="$" horiz-adv-x="452" 
d="M210 -106v94c-100 3 -161 44 -174 127l84 18c7 -48 40 -73 90 -78v147l-34 8c-90 20 -122 70 -122 139c0 97 73 136 156 143v82h50v-82c88 -5 141 -45 150 -129l-88 -9c-3 37 -24 62 -62 70v-147l18 -3c82 -16 134 -63 134 -146c0 -89 -63 -130 -152 -138v-96h-50z
M140 358c0 -38 18 -61 69 -71h1v139c-44 -5 -70 -30 -70 -68zM326 120c0 37 -15 59 -66 71v-135c39 6 66 26 66 64z" />
    <glyph glyph-name="percent" unicode="%" horiz-adv-x="863" 
d="M175 229c-94 0 -142 75 -142 184c0 108 54 184 142 184c87 0 141 -76 141 -184c0 -109 -48 -184 -141 -184zM175 534c-47 0 -70 -50 -70 -122c0 -70 24 -124 70 -124c45 0 70 54 70 124c0 72 -24 122 -70 122zM248 0l306 590h62l-306 -590h-62zM689 -7
c-94 0 -142 75 -142 184c0 108 54 184 142 184c87 0 141 -76 141 -184c0 -109 -48 -184 -141 -184zM689 298c-47 0 -70 -50 -70 -122c0 -70 24 -124 70 -124c45 0 70 54 70 124c0 72 -24 122 -70 122z" />
    <glyph glyph-name="ampersand" unicode="&#x26;" horiz-adv-x="552" 
d="M543 46l-64 -59l-73 77c-51 -51 -118 -76 -196 -76c-106 0 -188 48 -188 157c0 76 40 137 134 171l-26 27c-27 28 -56 67 -56 122c0 85 66 136 160 136c96 0 160 -53 160 -135c0 -71 -37 -119 -118 -152l128 -131c13 26 22 68 23 111l79 -22c-6 -49 -20 -104 -47 -143z
M112 151c0 -58 46 -94 104 -94c61 0 107 21 140 57l-157 159c-56 -25 -87 -57 -87 -122zM234 537c-45 0 -74 -27 -74 -68c0 -29 14 -51 41 -79l34 -35c55 25 74 59 74 108c0 47 -26 74 -75 74z" />
    <glyph glyph-name="quotesingle" unicode="'" horiz-adv-x="200" 
d="M61 412v256h98l-42 -256h-56z" />
    <glyph glyph-name="parenleft" unicode="(" horiz-adv-x="337" 
d="M155 233c0 -186 70 -304 176 -435h-100c-90 109 -165 240 -165 435s75 326 165 435h100c-106 -131 -176 -249 -176 -435z" />
    <glyph glyph-name="parenright" unicode=")" horiz-adv-x="337" 
d="M182 233c0 186 -70 304 -176 435h100c91 -109 165 -240 165 -435s-74 -326 -165 -435h-100c106 131 176 249 176 435z" />
    <glyph glyph-name="asterisk" unicode="*" horiz-adv-x="366" 
d="M221 591l-13 -100l90 44l23 -69l-101 -17l72 -77l-61 -43l-48 90l-48 -91l-59 45l71 76l-102 17l24 68l90 -43l-13 100h75z" />
    <glyph glyph-name="plus" unicode="+" horiz-adv-x="498" 
d="M45 275h175v170h54v-170h179v-54h-179v-184h-54v184h-175v54z" />
    <glyph glyph-name="comma" unicode="," horiz-adv-x="283" 
d="M209 33c0 -99 -60 -142 -152 -147v43c49 7 81 29 81 74c-41 -8 -72 17 -72 56c0 40 28 62 67 62c41 0 76 -33 76 -88z" />
    <glyph glyph-name="hyphen" unicode="-" horiz-adv-x="366" 
d="M68 219v76h230v-76h-230z" />
    <glyph glyph-name="period" unicode="." horiz-adv-x="286" 
d="M75 62c0 39 30 68 68 68s68 -29 68 -68c0 -38 -30 -68 -68 -68s-68 30 -68 68z" />
    <glyph glyph-name="slash" unicode="/" horiz-adv-x="396" 
d="M10 -203l274 872h82l-276 -872h-80z" />
    <glyph glyph-name="zero" unicode="0" horiz-adv-x="585" 
d="M293 -12c-157 0 -245 111 -245 252c0 140 88 253 245 253c156 0 244 -113 244 -253c0 -141 -88 -252 -244 -252zM293 415c-101 0 -155 -76 -155 -176c0 -103 54 -175 155 -175c100 0 154 72 154 175c0 100 -54 176 -154 176z" />
    <glyph glyph-name="one" unicode="1" horiz-adv-x="352" 
d="M248 0h-89v395l-139 -25v75l228 44v-489z" />
    <glyph glyph-name="two" unicode="2" horiz-adv-x="447" 
d="M407 75v-75h-371v70c182 88 259 167 259 260c0 58 -36 87 -87 87c-49 0 -84 -31 -90 -98l-83 18c15 117 97 156 181 156c91 0 170 -46 170 -158c0 -128 -113 -220 -238 -256v-4h259z" />
    <glyph glyph-name="three" unicode="3" horiz-adv-x="448" 
d="M227 193v-5c100 -9 164 -73 164 -161c0 -105 -88 -165 -195 -165c-113 0 -183 54 -195 140l86 21c11 -62 49 -92 111 -92c63 0 103 37 103 99c0 66 -44 112 -168 123v69c129 15 157 57 157 119c0 51 -40 79 -87 79c-46 0 -82 -24 -92 -84l-85 21c17 81 79 136 181 136
c93 0 174 -46 174 -149c0 -81 -56 -141 -154 -151z" />
    <glyph glyph-name="four" unicode="4" horiz-adv-x="513" 
d="M300 -131v178h-284v60l285 374h88v-363h98v-71h-98v-178h-89zM184 118h116v149c0 69 4 114 4 114h-4s-18 -36 -59 -93l-79 -107c-32 -43 -55 -63 -55 -63v-4s19 4 77 4z" />
    <glyph glyph-name="five" unicode="5" horiz-adv-x="445" 
d="M72 153l13 328h295v-79h-220l-8 -191c21 18 50 29 88 29c97 0 167 -64 167 -185c0 -129 -87 -194 -205 -194c-111 0 -178 54 -189 140l79 24c11 -66 54 -98 114 -98c65 0 116 38 116 126c0 78 -44 121 -111 121c-32 0 -53 -10 -70 -21h-69z" />
    <glyph glyph-name="six" unicode="6" horiz-adv-x="516" 
d="M463 488l-74 -38c-19 53 -54 77 -103 77c-98 0 -154 -97 -155 -275h3c18 81 78 122 151 122c120 0 187 -84 187 -189c0 -109 -73 -197 -207 -197c-128 0 -213 96 -213 288c0 223 110 325 238 325c83 0 143 -40 173 -113zM156 179c0 -73 51 -119 115 -119
c65 0 116 46 116 119c0 76 -51 122 -116 122c-64 0 -115 -46 -115 -122z" />
    <glyph glyph-name="seven" unicode="7" horiz-adv-x="459" 
d="M322 402h-214v-75h-82v154h392v-62l-222 -550h-89z" />
    <glyph glyph-name="eight" unicode="8" horiz-adv-x="502" 
d="M251 -12c-124 0 -203 62 -203 161c0 76 48 127 113 148v5c-70 22 -101 74 -101 139c0 96 76 160 191 160c114 0 191 -64 191 -160c0 -65 -31 -117 -102 -139v-5c66 -21 114 -72 114 -148c0 -99 -79 -161 -203 -161zM251 536c-66 0 -103 -40 -103 -96
c0 -73 45 -104 103 -104s103 31 103 104c0 56 -37 96 -103 96zM251 265c-62 0 -115 -35 -115 -104c0 -65 44 -107 115 -107s115 42 115 107c0 69 -53 104 -115 104z" />
    <glyph glyph-name="nine" unicode="9" horiz-adv-x="511" 
d="M24 -25l73 37c19 -52 55 -81 115 -81c135 0 167 154 167 303h-4c-14 -88 -75 -130 -150 -130c-119 0 -188 86 -188 188c0 108 69 201 203 201c136 0 219 -92 219 -285c0 -220 -89 -346 -250 -346c-95 0 -156 40 -185 113zM354 300c0 75 -52 121 -115 121
c-67 0 -119 -46 -119 -121c0 -78 52 -125 119 -125c63 0 115 47 115 125z" />
    <glyph glyph-name="colon" unicode=":" horiz-adv-x="286" 
d="M75 62c0 39 30 68 68 68s68 -29 68 -68c0 -38 -30 -68 -68 -68s-68 30 -68 68zM75 395c0 39 30 68 68 68s68 -29 68 -68c0 -38 -30 -68 -68 -68s-68 30 -68 68z" />
    <glyph glyph-name="semicolon" unicode=";" horiz-adv-x="283" 
d="M209 33c0 -99 -60 -142 -152 -147v43c49 7 81 29 81 74c-41 -8 -72 17 -72 56c0 40 28 62 67 62c41 0 76 -33 76 -88zM66 395c0 39 30 68 68 68s68 -29 68 -68c0 -38 -30 -68 -68 -68s-68 30 -68 68z" />
    <glyph glyph-name="less" unicode="&#x3c;" horiz-adv-x="384" 
d="M333 417l-207 -170l207 -172l-36 -42l-252 214l253 212z" />
    <glyph glyph-name="equal" unicode="=" horiz-adv-x="498" 
d="M453 154h-408v53h408v-53zM453 285h-408v53h408v-53z" />
    <glyph glyph-name="greater" unicode="&#x3e;" horiz-adv-x="384" 
d="M253 247l-206 170l35 42l252 -212l-251 -214l-37 42z" />
    <glyph glyph-name="question" unicode="?" horiz-adv-x="394" 
d="M80 431l-80 29c18 84 80 141 189 141c114 0 188 -72 188 -175c0 -122 -91 -177 -173 -179v-82h-82v134h36c76 0 126 35 126 120c0 73 -42 106 -101 106c-53 0 -93 -28 -103 -94zM100 56c0 36 27 62 63 62s64 -26 64 -62c0 -35 -28 -62 -64 -62s-63 27 -63 62z" />
    <glyph glyph-name="at" unicode="@" horiz-adv-x="885" 
d="M528 159v87c0 68 -53 97 -95 97c-56 0 -103 -39 -103 -149c0 -89 40 -137 102 -137c42 0 96 31 96 102zM611 399v-302c0 -40 16 -53 42 -53c78 0 111 90 111 213c0 191 -147 280 -311 280c-172 0 -336 -109 -336 -338c0 -236 164 -340 362 -340c64 0 122 8 184 30l15 -59
c-61 -20 -129 -31 -200 -31c-230 1 -433 112 -433 400c0 232 161 397 411 397c253 0 378 -154 378 -335c0 -166 -54 -273 -193 -273c-58 0 -105 21 -111 83c-22 -63 -70 -83 -129 -83c-83 0 -158 67 -158 203s64 217 179 217c55 0 97 -27 110 -61l25 52h54z" />
    <glyph glyph-name="A" unicode="A" horiz-adv-x="569" 
d="M460 0l-57 161h-241l-56 -161h-96l215 589h121l213 -589h-99zM235 370l-47 -133h188l-45 132c-33 92 -46 155 -46 155h-4s-14 -62 -46 -154z" />
    <glyph glyph-name="B" unicode="B" horiz-adv-x="528" 
d="M353 304v-3c73 -7 130 -53 130 -136c0 -101 -65 -165 -209 -165h-191v589h193c119 0 183 -50 183 -150c0 -77 -44 -124 -106 -135zM175 331h91c61 0 100 28 100 91s-39 90 -106 90h-85v-181zM175 258v-181h106c68 0 109 29 109 96c0 51 -31 85 -110 85h-105z" />
    <glyph glyph-name="C" unicode="C" horiz-adv-x="563" 
d="M468 162l71 -52c-54 -83 -120 -122 -237 -122c-153 0 -258 109 -258 305c0 197 111 308 275 308c107 0 181 -47 221 -142l-86 -42c-24 70 -74 105 -140 105c-110 0 -174 -88 -174 -229c0 -139 57 -223 169 -223c72 0 119 27 159 92z" />
    <glyph glyph-name="D" unicode="D" horiz-adv-x="594" 
d="M175 77h79c116 0 199 62 199 220c0 165 -86 215 -190 215h-88v-435zM263 0h-180v589h183c165 0 284 -81 284 -288c0 -218 -130 -301 -287 -301z" />
    <glyph glyph-name="E" unicode="E" horiz-adv-x="496" 
d="M446 80v-80h-363v589h363v-80h-271v-174h240v-80h-240v-175h271z" />
    <glyph glyph-name="F" unicode="F" horiz-adv-x="461" 
d="M175 0h-92v589h347v-80h-255v-180h224v-80h-224v-249z" />
    <glyph glyph-name="G" unicode="G" horiz-adv-x="610" 
d="M313 304h234v-304h-73l-12 76c-24 -58 -94 -88 -162 -88c-151 0 -256 105 -256 304c0 197 111 309 275 309c112 0 184 -47 221 -142l-86 -42c-24 71 -76 105 -140 105c-103 0 -174 -81 -174 -230c0 -133 54 -228 169 -228c79 0 147 37 147 116v44h-143v80z" />
    <glyph glyph-name="H" unicode="H" horiz-adv-x="631" 
d="M175 0h-92v589h92v-250h281v250h92v-589h-92v259h-281v-259z" />
    <glyph glyph-name="I" unicode="I" horiz-adv-x="258" 
d="M83 589h92v-589h-92v589z" />
    <glyph glyph-name="J" unicode="J" horiz-adv-x="437" 
d="M280 589h93v-418c0 -136 -88 -183 -186 -183c-99 0 -155 49 -187 115l72 54c31 -67 60 -92 116 -92c75 0 92 50 92 127v397z" />
    <glyph glyph-name="K" unicode="K" horiz-adv-x="537" 
d="M519 0h-113l-185 259h-46v-259h-92v589h92v-250h49l172 250h108l-205 -286z" />
    <glyph glyph-name="L" unicode="L" horiz-adv-x="461" 
d="M83 589h92v-509h264v-80h-356v589z" />
    <glyph glyph-name="M" unicode="M" horiz-adv-x="719" 
d="M390 144h-61l-111 204c-34 64 -44 101 -44 101h-4s5 -36 5 -106v-343h-92v589h107l140 -272c23 -45 30 -72 30 -72h4s6 27 30 72l139 272h103v-589h-93v343c0 70 6 106 6 106h-4s-10 -37 -45 -101z" />
    <glyph glyph-name="N" unicode="N" horiz-adv-x="650" 
d="M177 589l232 -337c35 -52 67 -112 67 -112h4s-5 63 -5 137v312h92v-589h-91l-235 336c-37 53 -68 114 -68 114h-4s6 -63 6 -139v-311h-92v589h94z" />
    <glyph glyph-name="O" unicode="O" horiz-adv-x="619" 
d="M310 -12c-162 0 -266 110 -266 306c0 197 104 307 266 307s265 -110 265 -307c0 -196 -103 -306 -265 -306zM310 520c-111 0 -169 -86 -169 -226c0 -141 58 -226 169 -226s168 85 168 226c0 140 -58 226 -168 226z" />
    <glyph glyph-name="P" unicode="P" horiz-adv-x="499" 
d="M175 512v-220h85c87 0 114 44 114 111c0 71 -40 109 -115 109h-84zM175 0h-92v589h178c146 0 208 -68 208 -181c0 -118 -67 -192 -199 -192h-95v-216z" />
    <glyph glyph-name="Q" unicode="Q" horiz-adv-x="619" 
d="M515 -66l-29 -83c-131 -2 -205 61 -234 142c-128 23 -208 129 -208 301c0 197 104 307 266 307s265 -110 265 -307c0 -179 -87 -287 -225 -303c41 -44 102 -62 165 -57zM310 520c-111 0 -169 -86 -169 -226c0 -141 58 -226 169 -226s168 85 168 226
c0 140 -58 226 -168 226z" />
    <glyph glyph-name="R" unicode="R" horiz-adv-x="550" 
d="M515 0h-101c-14 16 -21 32 -26 55l-24 102c-17 69 -52 82 -110 82h-79v-239h-92v589h204c135 0 201 -57 201 -168c0 -93 -62 -142 -136 -146v-3c56 -7 86 -31 102 -94l30 -116c7 -24 16 -44 31 -62zM175 512v-196h108c74 0 109 31 109 98c0 61 -35 98 -108 98h-109z" />
    <glyph glyph-name="S" unicode="S" horiz-adv-x="478" 
d="M28 141l86 23c12 -72 59 -105 123 -105c63 0 106 29 106 84c0 52 -26 77 -122 113c-92 32 -172 70 -172 179c0 123 96 167 188 167c108 0 190 -42 200 -155l-91 -18c-6 65 -49 99 -108 99c-55 0 -95 -30 -95 -85c0 -59 47 -79 129 -109c90 -33 165 -69 165 -179
c0 -116 -92 -167 -205 -167c-116 0 -185 46 -204 153z" />
    <glyph glyph-name="T" unicode="T" horiz-adv-x="456" 
d="M274 0h-93v509h-171v80h436v-80h-172v-509z" />
    <glyph glyph-name="U" unicode="U" horiz-adv-x="582" 
d="M425 589h93v-396c0 -153 -112 -205 -227 -205c-116 0 -227 52 -227 205v396h92v-372c0 -106 49 -153 135 -153c85 0 134 47 134 151v374z" />
    <glyph glyph-name="V" unicode="V" horiz-adv-x="529" 
d="M109 589l118 -373c28 -89 38 -149 38 -149h4s8 59 35 148l118 374h97l-195 -589h-121l-193 589h99z" />
    <glyph glyph-name="W" unicode="W" horiz-adv-x="826" 
d="M470 589l92 -369c23 -92 32 -159 32 -159h4s8 68 30 158l93 370h93l-153 -589h-131l-90 347c-24 91 -25 158 -25 158h-4s-4 -66 -27 -158l-89 -347h-131l-152 589h98l92 -367c22 -91 31 -161 31 -161h4s7 69 31 160l95 368h107z" />
    <glyph glyph-name="X" unicode="X" horiz-adv-x="532" 
d="M418 0l-109 165c-39 57 -42 74 -42 74h-4s-5 -16 -43 -75l-106 -164h-104l203 298l-193 291h108l94 -149c42 -65 44 -79 44 -79h3s3 14 43 79l93 149h101l-187 -283l203 -306h-104z" />
    <glyph glyph-name="Y" unicode="Y" horiz-adv-x="484" 
d="M115 589l92 -187c34 -67 41 -100 41 -100h4s6 33 38 100l87 187h97l-180 -366v-223h-92v223l-192 366h105z" />
    <glyph glyph-name="Z" unicode="Z" horiz-adv-x="475" 
d="M448 527l-252 -373c-33 -49 -57 -73 -57 -73v-4s25 3 86 3h228v-80h-431v55l253 380c32 49 57 73 57 73v4s-26 -3 -86 -3h-212v80h414v-62z" />
    <glyph glyph-name="bracketleft" unicode="[" horiz-adv-x="328" 
d="M168 601v-736h125v-68h-210v872h210v-68h-125z" />
    <glyph glyph-name="backslash" unicode="\" horiz-adv-x="396" 
d="M112 669l274 -872h-81l-275 872h82z" />
    <glyph glyph-name="bracketright" unicode="]" horiz-adv-x="328" 
d="M160 -135v736h-125v68h210v-872h-210v68h125z" />
    <glyph glyph-name="asciicircum" unicode="^" horiz-adv-x="507" 
d="M384 321l-81 160c-44 88 -47 123 -47 123h-4s-3 -35 -48 -122l-84 -161h-90l187 347h74l186 -347h-93z" />
    <glyph glyph-name="underscore" unicode="_" horiz-adv-x="481" 
d="M50 -93v71h381v-71h-381z" />
    <glyph glyph-name="grave" unicode="`" horiz-adv-x="358" 
d="M275 529h-80l-115 146h121z" />
    <glyph glyph-name="a" unicode="a" horiz-adv-x="479" 
d="M305 139v67c-124 3 -178 -25 -178 -83c0 -38 25 -67 74 -67c48 0 104 29 104 83zM396 331v-222c0 -35 16 -43 34 -43c11 0 19 2 26 5v-70c-13 -5 -29 -8 -49 -8c-53 0 -87 22 -95 74c-24 -58 -78 -79 -137 -79c-81 0 -138 46 -138 125c0 102 79 161 268 152v57
c0 57 -34 79 -83 79c-50 0 -80 -26 -84 -74l-86 13c7 98 93 133 178 133c90 0 166 -36 166 -142z" />
    <glyph glyph-name="b" unicode="b" 
d="M162 265v-86c0 -89 60 -123 112 -123c69 0 126 56 126 178c0 111 -45 165 -116 165c-66 0 -122 -49 -122 -134zM155 67l-24 -67h-59v668h90v-294c23 69 84 99 148 99c113 0 182 -82 182 -231c0 -141 -73 -254 -198 -254c-80 0 -123 36 -139 79z" />
    <glyph glyph-name="c" unicode="c" horiz-adv-x="458" 
d="M349 136l78 -19c-16 -93 -90 -129 -181 -129c-121 0 -204 86 -204 240s83 245 211 245c98 0 162 -52 168 -144l-82 -17c-8 58 -39 87 -90 87c-79 0 -120 -70 -120 -171c0 -98 48 -168 124 -168c49 0 82 23 96 76z" />
    <glyph glyph-name="d" unicode="d" 
d="M372 184v102c0 82 -62 117 -115 117c-68 0 -124 -47 -124 -177c0 -109 48 -167 123 -167c51 0 116 41 116 125zM371 400v268h91v-668h-80l-10 80c-26 -70 -81 -92 -147 -92c-97 0 -183 79 -183 235c0 157 75 250 207 250c59 0 109 -33 122 -73z" />
    <glyph glyph-name="e" unicode="e" horiz-adv-x="478" 
d="M253 59c51 0 85 20 101 75l79 -21c-19 -93 -97 -125 -185 -125c-123 0 -206 85 -206 239c0 155 82 246 211 246c119 0 183 -82 183 -197c0 -26 -4 -50 -9 -64h-298c4 -90 46 -153 124 -153zM131 277h216c1 7 1 13 1 19c0 59 -38 106 -100 106c-66 0 -108 -45 -117 -125z
" />
    <glyph glyph-name="f" unicode="f" horiz-adv-x="284" 
d="M81 390h-67v72h67v52c0 121 77 161 159 161c37 0 69 -8 96 -19l-17 -77c-24 13 -44 20 -74 20c-46 0 -73 -23 -73 -89v-48h118v-72h-118v-390h-91v390z" />
    <glyph glyph-name="g" unicode="g" horiz-adv-x="485" 
d="M229 473c55 0 100 -12 134 -37c22 12 29 36 35 70l78 -27c-7 -44 -39 -74 -77 -83c14 -24 21 -53 21 -87c0 -107 -86 -160 -190 -160c-23 0 -47 3 -60 8c-23 -12 -31 -28 -31 -48c0 -26 17 -38 49 -38h113c105 0 161 -46 161 -129c0 -121 -130 -153 -251 -153
c-102 0 -202 26 -202 121c0 60 43 100 119 106c-42 5 -64 35 -64 72s19 68 68 81c-56 25 -90 72 -90 140c0 104 76 164 187 164zM94 -80c0 -49 53 -67 126 -67c94 0 155 18 155 76c0 35 -19 61 -78 61h-100c-66 0 -103 -22 -103 -70zM132 310c0 -58 35 -97 97 -97
c61 0 101 32 101 97s-40 98 -101 97c-61 0 -97 -35 -97 -97z" />
    <glyph glyph-name="h" unicode="h" horiz-adv-x="509" 
d="M162 668v-294c22 66 70 99 140 99c76 0 140 -42 140 -143v-330h-90v304c0 56 -26 91 -81 91c-56 0 -109 -29 -109 -130v-265h-90v668h90z" />
    <glyph glyph-name="i" unicode="i" horiz-adv-x="234" 
d="M56 610c0 36 28 60 60 60c35 0 63 -24 63 -60c0 -34 -28 -60 -63 -60c-32 0 -60 26 -60 60zM72 462h90v-462h-90v462z" />
    <glyph glyph-name="j" unicode="j" horiz-adv-x="234" 
d="M72 462h90v-469c0 -152 -83 -201 -220 -196v76c90 -8 130 26 130 116v473zM57 610c0 36 27 60 60 60c34 0 62 -24 62 -60c0 -34 -28 -60 -62 -60c-33 0 -60 26 -60 60z" />
    <glyph glyph-name="k" unicode="k" horiz-adv-x="468" 
d="M261 247l201 -247h-111l-161 207h-28v-207h-90v668h90v-391h23l153 185h109z" />
    <glyph glyph-name="l" unicode="l" horiz-adv-x="261" 
d="M229 75l-1 -75c-24 -6 -40 -8 -56 -8c-58 0 -106 31 -106 100v576h90v-557c0 -29 17 -41 41 -41c13 0 22 2 32 5z" />
    <glyph glyph-name="m" unicode="m" horiz-adv-x="773" 
d="M424 371c23 74 83 102 145 102c78 0 137 -42 137 -139v-334h-90v304c0 57 -25 91 -77 91c-53 0 -105 -37 -105 -130v-265h-90v304c0 57 -25 91 -77 91s-105 -38 -105 -130v-265h-90v462h71l11 -89c24 71 81 100 144 100c66 0 114 -29 126 -102z" />
    <glyph glyph-name="n" unicode="n" horiz-adv-x="509" 
d="M143 462l11 -89c25 69 78 100 148 100c76 0 140 -42 140 -143v-330h-90v303c0 57 -26 92 -81 92c-56 0 -109 -30 -109 -130v-265h-90v462h71z" />
    <glyph glyph-name="o" unicode="o" horiz-adv-x="505" 
d="M252 -12c-127 0 -210 88 -210 246c0 157 83 239 210 239c128 0 211 -82 211 -239c0 -158 -83 -246 -211 -246zM252 400c-79 0 -121 -54 -121 -167c0 -116 41 -174 121 -174c81 0 122 58 122 174c0 113 -42 167 -122 167z" />
    <glyph glyph-name="p" unicode="p" 
d="M162 264v-85c0 -89 60 -123 112 -123c69 0 126 56 126 178c0 111 -45 165 -116 165c-66 0 -122 -49 -122 -135zM162 61v-264h-90v665h74l11 -89c27 75 95 100 153 100c113 0 182 -82 182 -231c0 -141 -72 -254 -200 -254c-71 0 -114 33 -130 73z" />
    <glyph glyph-name="q" unicode="q" 
d="M372 185v101c0 82 -62 117 -115 117c-68 0 -124 -47 -124 -177c0 -109 48 -167 123 -167c51 0 116 41 116 126zM374 402l27 60h61v-665h-90v283c-26 -70 -81 -92 -147 -92c-97 0 -183 79 -183 235c0 157 75 250 206 250c61 0 111 -33 126 -71z" />
    <glyph glyph-name="r" unicode="r" horiz-adv-x="356" 
d="M338 472l-7 -101c-11 2 -26 4 -41 4c-65 0 -128 -51 -128 -141v-234h-90v462h76l11 -125c18 83 76 140 179 135z" />
    <glyph glyph-name="s" unicode="s" horiz-adv-x="419" 
d="M27 104l80 24c7 -53 45 -76 100 -76c53 0 92 20 92 62c0 38 -17 59 -72 73l-68 16c-84 20 -116 63 -116 131c0 104 86 139 174 139c97 0 157 -35 166 -125l-88 -10c-3 46 -31 67 -84 67c-51 0 -81 -23 -81 -62c0 -33 13 -54 63 -65l64 -15c82 -20 128 -58 128 -139
c0 -99 -78 -136 -179 -136c-105 0 -166 32 -179 116z" />
    <glyph glyph-name="t" unicode="t" horiz-adv-x="337" 
d="M305 90l17 -75c-30 -18 -69 -27 -112 -27c-83 0 -133 44 -133 130v272h-67v72h67v98l91 11v-109h137v-72h-138v-254c0 -50 23 -71 61 -71c30 0 51 8 77 25z" />
    <glyph glyph-name="u" unicode="u" horiz-adv-x="508" 
d="M359 0l-11 84c-22 -68 -69 -96 -142 -96c-84 0 -140 43 -140 153v321h90v-307c0 -68 26 -100 83 -100c50 0 107 45 107 134v273h90v-462h-77z" />
    <glyph glyph-name="v" unicode="v" horiz-adv-x="440" 
d="M169 0l-161 462h98l80 -254c27 -87 36 -147 36 -147h4s7 59 34 147l77 254h95l-158 -462h-105z" />
    <glyph glyph-name="w" unicode="w" horiz-adv-x="672" 
d="M383 462l65 -240c26 -93 31 -157 31 -157h4s3 63 26 157l62 240h91l-126 -462h-108l-61 219c-25 88 -30 146 -30 146h-4s-5 -57 -28 -146l-58 -219h-108l-129 462h93l63 -240c25 -93 31 -157 31 -157h4s3 66 28 158l64 239h90z" />
    <glyph glyph-name="x" unicode="x" horiz-adv-x="433" 
d="M323 0l-69 107c-38 59 -37 75 -37 75h-4s-1 -15 -39 -75l-69 -107h-96l153 232l-145 230h104l57 -97c37 -63 40 -77 40 -77h4s1 15 38 77l59 97h97l-145 -227l153 -235h-101z" />
    <glyph glyph-name="y" unicode="y" horiz-adv-x="440" 
d="M107 462l79 -254c28 -90 36 -146 36 -146h4s8 55 35 146l77 254h94l-170 -500c-47 -136 -106 -170 -188 -170c-22 0 -47 4 -67 11l8 77c20 -10 38 -14 60 -14c49 0 77 26 104 107l-171 489h99z" />
    <glyph glyph-name="z" unicode="z" horiz-adv-x="394" 
d="M362 402l-176 -254c-34 -49 -57 -73 -57 -73v-4s25 3 86 3h157v-74h-350v51l177 261c33 49 57 73 57 73v4s-26 -3 -86 -3h-138v76h330v-60z" />
    <glyph glyph-name="braceleft" unicode="{" horiz-adv-x="393" 
d="M149 237v-4c47 -6 83 -26 83 -101v-192c0 -51 13 -78 58 -78c27 0 43 6 61 16l16 -66c-32 -13 -61 -18 -96 -18c-94 0 -122 55 -122 137v193c0 67 -34 77 -69 77h-41v69h41c35 0 69 9 69 77v192c0 82 28 137 122 137c35 0 64 -5 96 -18l-16 -65c-18 9 -34 15 -61 15
c-45 0 -58 -26 -58 -78v-192c0 -78 -36 -94 -83 -101z" />
    <glyph glyph-name="bar" unicode="|" horiz-adv-x="277" 
d="M177 -203h-77v872h77v-872z" />
    <glyph glyph-name="braceright" unicode="}" horiz-adv-x="393" 
d="M244 233v4c-47 7 -83 23 -83 101v192c0 52 -13 78 -57 78c-27 0 -44 -6 -62 -15l-16 65c32 13 62 18 96 18c94 0 122 -55 122 -137v-192c0 -68 34 -77 69 -77h41v-69h-41c-35 0 -69 -10 -69 -77v-193c0 -82 -28 -137 -122 -137c-34 0 -64 5 -96 18l16 66
c18 -10 35 -16 62 -16c44 0 57 27 57 78v192c0 75 36 95 83 101z" />
    <glyph glyph-name="asciitilde" unicode="~" horiz-adv-x="472" 
d="M306 198c-31 0 -47 10 -72 23c-27 16 -40 25 -60 25c-21 0 -34 -13 -30 -47h-55c-25 65 9 126 74 126c35 0 54 -11 79 -26c27 -16 38 -23 55 -23c19 0 32 12 29 49h57c24 -70 -6 -127 -77 -127z" />
    <glyph glyph-name="Euro" unicode="&#x20ac;" horiz-adv-x="538" 
d="M337 162h-141c19 -64 62 -100 126 -100c55 0 88 22 117 76l68 -49c-42 -72 -102 -101 -192 -101c-104 0 -186 57 -211 174h-76v51h69v26c0 11 0 23 1 34h-70v50h78c27 110 109 170 218 170c94 0 150 -38 184 -118l-79 -44c-20 56 -54 88 -109 88c-63 0 -105 -35 -124 -96
h168l-10 -50h-167c-1 -10 -1 -20 -1 -30c0 -11 0 -21 1 -30h160z" />
    <glyph glyph-name="quotesinglbase" unicode="&#x201a;" horiz-adv-x="228" 
d="M190 31c0 -99 -60 -142 -152 -147v43c49 7 81 29 81 74c-41 -8 -72 17 -72 56c0 40 28 62 67 62c41 0 76 -33 76 -88z" />
    <glyph glyph-name="florin" unicode="&#x192;" horiz-adv-x="427" 
d="M34 -120l54 287h-68l13 77h69l18 96c20 115 93 154 173 154c52 0 100 -20 124 -54l-53 -67c-20 31 -47 44 -79 44c-37 0 -64 -26 -74 -79l-18 -94h117l-13 -77h-118l-54 -287h-91z" />
    <glyph glyph-name="quotedblbase" unicode="&#x201e;" horiz-adv-x="421" 
d="M190 31c0 -100 -61 -142 -152 -147v43c49 7 81 29 81 74c-41 -8 -72 16 -72 56c0 39 28 62 67 62c41 0 76 -34 76 -88zM383 31c0 -100 -61 -142 -152 -147v43c49 7 81 29 81 74c-41 -8 -72 16 -72 56c0 39 28 62 67 62c41 0 76 -34 76 -88z" />
    <glyph glyph-name="ellipsis" unicode="&#x2026;" horiz-adv-x="858" 
d="M75 62c0 39 30 68 68 68s68 -29 68 -68c0 -38 -30 -68 -68 -68s-68 30 -68 68zM361 62c0 39 30 68 68 68s68 -29 68 -68c0 -38 -30 -68 -68 -68s-68 30 -68 68zM647 62c0 39 30 68 68 68s68 -29 68 -68c0 -38 -30 -68 -68 -68s-68 30 -68 68z" />
    <glyph glyph-name="dagger" unicode="&#x2020;" horiz-adv-x="546" 
d="M236 288l-188 -11v89l188 -10l-10 233h95l-10 -233l187 10v-89l-187 11l10 -437h-95z" />
    <glyph glyph-name="daggerdbl" unicode="&#x2021;" horiz-adv-x="546" 
d="M311 306l-1 -169l188 11v-88l-187 11l10 -221h-95l10 221l-188 -11v88l188 -11v169l-188 -11v87l188 -11l-10 218h95l-11 -218l188 11v-87z" />
    <glyph glyph-name="circumflex" unicode="&#x2c6;" horiz-adv-x="463" 
d="M205 675h53l125 -147h-92l-34 42c-19 23 -23 38 -23 38h-5s-4 -15 -23 -38l-34 -42h-92z" />
    <glyph glyph-name="perthousand" unicode="&#x2030;" horiz-adv-x="1213" 
d="M175 229c-94 0 -142 75 -142 184c0 108 54 184 142 184c87 0 141 -76 141 -184c0 -109 -48 -184 -141 -184zM175 534c-47 0 -70 -50 -70 -122c0 -70 24 -124 70 -124c45 0 70 54 70 124c0 72 -24 122 -70 122zM248 0l306 590h62l-306 -590h-62zM689 -7
c-94 0 -142 75 -142 184c0 108 54 184 142 184c87 0 141 -76 141 -184c0 -109 -48 -184 -141 -184zM689 298c-47 0 -70 -50 -70 -122c0 -70 24 -124 70 -124c45 0 70 54 70 124c0 72 -24 122 -70 122zM1039 -7c-94 0 -142 75 -142 184c0 108 54 184 142 184
c87 0 141 -76 141 -184c0 -109 -48 -184 -141 -184zM1039 298c-47 0 -70 -50 -70 -122c0 -70 24 -124 70 -124c45 0 70 54 70 124c0 72 -24 122 -70 122z" />
    <glyph glyph-name="Scaron" unicode="&#x160;" horiz-adv-x="478" 
d="M28 141l86 23c12 -72 59 -105 123 -105c63 0 106 29 106 84c0 52 -26 77 -122 113c-92 32 -172 70 -172 179c0 123 96 167 188 167c108 0 190 -42 200 -155l-91 -18c-6 65 -49 99 -108 99c-55 0 -95 -30 -95 -85c0 -59 47 -79 129 -109c90 -33 165 -69 165 -179
c0 -116 -92 -167 -205 -167c-116 0 -185 46 -204 153zM272 649h-56l-124 129h96l32 -33c19 -20 23 -34 23 -34h3s4 14 23 34l31 33h97z" />
    <glyph glyph-name="guilsinglleft" unicode="&#x2039;" horiz-adv-x="294" 
d="M110 235v-4s18 -6 55 -51l99 -116l-49 -43l-185 213l185 213l49 -49l-99 -114c-38 -44 -55 -49 -55 -49z" />
    <glyph glyph-name="OE" unicode="&#x152;" horiz-adv-x="844" 
d="M310 -12c-162 0 -266 110 -266 306c0 197 104 307 266 307c30 0 59 -4 86 -12h398v-80h-282c34 -43 55 -102 61 -174h190v-80h-190c-6 -73 -26 -133 -61 -175h282v-80h-398c-27 -8 -56 -12 -86 -12zM310 520c-111 0 -167 -86 -167 -226c0 -141 56 -226 167 -226
s166 85 166 226c0 140 -56 226 -166 226z" />
    <glyph glyph-name="Zcaron" unicode="&#x17d;" horiz-adv-x="475" 
d="M448 527l-252 -373c-33 -49 -57 -73 -57 -73v-4s25 3 86 3h228v-80h-431v55l253 380c32 49 57 73 57 73v4s-26 -3 -86 -3h-212v80h414v-62zM265 649h-56l-124 129h96l32 -33c19 -20 23 -34 23 -34h3s4 14 23 34l31 33h97z" />
    <glyph glyph-name="quoteleft" unicode="&#x2018;" horiz-adv-x="228" 
d="M38 531c0 100 61 142 152 147v-43c-49 -7 -81 -29 -81 -74c41 8 72 -16 72 -56c0 -39 -28 -62 -67 -62c-41 0 -76 34 -76 88z" />
    <glyph glyph-name="quoteright" unicode="&#x2019;" horiz-adv-x="228" 
d="M190 590c0 -99 -60 -142 -152 -147v43c49 7 81 29 81 74c-41 -8 -72 17 -72 56c0 40 28 62 67 62c41 0 76 -33 76 -88z" />
    <glyph glyph-name="quotedblleft" unicode="&#x201c;" horiz-adv-x="421" 
d="M38 531c0 100 61 142 152 147v-43c-49 -7 -81 -29 -81 -74c41 8 72 -16 72 -56c0 -39 -28 -62 -67 -62c-41 0 -76 34 -76 88zM231 531c0 100 61 142 152 147v-43c-49 -7 -81 -29 -81 -74c41 8 72 -16 72 -56c0 -39 -28 -62 -67 -62c-41 0 -76 34 -76 88z" />
    <glyph glyph-name="quotedblright" unicode="&#x201d;" horiz-adv-x="421" 
d="M190 590c0 -100 -61 -142 -152 -147v43c49 7 81 29 81 74c-41 -8 -72 16 -72 56c0 39 28 62 67 62c41 0 76 -34 76 -88zM383 590c0 -100 -61 -142 -152 -147v43c49 7 81 29 81 74c-41 -8 -72 16 -72 56c0 39 28 62 67 62c41 0 76 -34 76 -88z" />
    <glyph glyph-name="bullet" unicode="&#x2022;" horiz-adv-x="330" 
d="M79 243c0 47 39 86 85 86c48 0 87 -39 87 -86c0 -46 -39 -85 -87 -85c-46 0 -85 39 -85 85z" />
    <glyph glyph-name="endash" unicode="&#x2013;" horiz-adv-x="500" 
d="M68 220v64h364v-64h-364z" />
    <glyph glyph-name="emdash" unicode="&#x2014;" horiz-adv-x="1000" 
d="M68 220v64h864v-64h-864z" />
    <glyph glyph-name="tilde" unicode="&#x2dc;" horiz-adv-x="472" 
d="M306 529c-31 0 -47 10 -72 23c-27 16 -40 25 -60 25c-21 0 -34 -13 -30 -47h-55c-25 65 9 124 74 124c35 0 54 -12 79 -27c27 -16 38 -23 55 -23c19 0 32 12 29 49h57c24 -70 -6 -124 -77 -124z" />
    <glyph glyph-name="trademark" unicode="&#x2122;" horiz-adv-x="592" 
d="M149 341h-56v200h-73v48h202v-48h-73v-200zM544 341h-56v163h-5l-48 -113h-47l-50 113h-5v-163h-56v248h71l62 -134h4l61 134h69v-248z" />
    <glyph glyph-name="scaron" unicode="&#x161;" horiz-adv-x="419" 
d="M27 104l80 24c7 -53 45 -76 100 -76c53 0 92 20 92 62c0 38 -17 59 -72 73l-68 16c-84 20 -116 63 -116 131c0 104 86 139 174 139c97 0 157 -35 166 -125l-88 -10c-3 46 -31 67 -84 67c-51 0 -81 -23 -81 -62c0 -33 13 -54 63 -65l64 -15c82 -20 128 -58 128 -139
c0 -99 -78 -136 -179 -136c-105 0 -166 32 -179 116zM242 528h-53l-125 147h92l34 -43c19 -23 23 -38 23 -38h5s4 15 23 38l34 43h92z" />
    <glyph glyph-name="guilsinglright" unicode="&#x203a;" horiz-adv-x="294" 
d="M184 231v4s-16 5 -55 49l-99 114l49 49l185 -213l-185 -213l-48 43l98 116c38 45 55 51 55 51z" />
    <glyph glyph-name="oe" unicode="&#x153;" horiz-adv-x="811" 
d="M586 59c51 0 85 20 101 75l79 -21c-19 -93 -97 -125 -186 -125c-71 0 -134 29 -163 93c-27 -64 -88 -93 -165 -93c-127 0 -210 88 -210 246c0 157 83 239 210 239c77 0 141 -28 167 -94c29 61 91 94 166 94c120 0 183 -82 183 -197c0 -26 -3 -50 -8 -64h-298
c4 -90 46 -153 124 -153zM252 400c-79 0 -121 -54 -121 -167c0 -116 41 -174 121 -174c81 0 122 58 122 174c0 113 -42 167 -122 167zM464 277h216c1 7 1 13 1 19c0 59 -38 106 -101 106c-65 0 -107 -45 -116 -125z" />
    <glyph glyph-name="zcaron" unicode="&#x17e;" horiz-adv-x="394" 
d="M362 402l-176 -254c-34 -49 -57 -73 -57 -73v-4s25 3 86 3h157v-74h-350v51l177 261c33 49 57 73 57 73v4s-26 -3 -86 -3h-138v76h330v-60zM230 528h-53l-125 147h92l34 -43c19 -23 23 -38 23 -38h5s4 15 23 38l34 43h92z" />
    <glyph glyph-name="Ydieresis" unicode="&#x178;" horiz-adv-x="484" 
d="M115 589l92 -187c34 -67 41 -100 41 -100h4s6 33 38 100l87 187h97l-180 -366v-223h-92v223l-192 366h105zM84 713c0 35 27 60 59 60c33 0 60 -25 60 -60c0 -34 -27 -59 -60 -59c-32 0 -59 25 -59 59zM280 712c0 35 27 60 59 60c34 0 60 -25 60 -60
c0 -33 -26 -59 -60 -59c-32 0 -59 26 -59 59z" />
    <glyph glyph-name="nbspace" unicode="&#xa0;" horiz-adv-x="153" 
 />
    <glyph glyph-name="exclamdown" unicode="&#xa1;" horiz-adv-x="229" 
d="M172 -126h-115l27 415h61zM51 407c0 35 28 62 63 62c36 0 64 -27 64 -62c0 -36 -28 -62 -64 -62c-35 0 -63 26 -63 62z" />
    <glyph glyph-name="cent" unicode="&#xa2;" horiz-adv-x="513" 
d="M248 -106v95c-116 11 -200 92 -200 250c0 149 81 237 200 252v83h50v-82c89 -3 143 -41 175 -117l-81 -44c-18 49 -48 80 -94 86v-355c46 5 77 27 105 76l70 -49c-40 -66 -96 -95 -175 -100v-95h-50zM141 243c0 -99 37 -163 107 -178v351c-69 -15 -107 -78 -107 -173z
" />
    <glyph glyph-name="sterling" unicode="&#xa3;" horiz-adv-x="508" 
d="M345 198h-134c3 -15 6 -30 6 -45c0 -37 -15 -65 -44 -77h167c31 0 63 6 73 49l67 -36c-13 -58 -60 -89 -128 -89h-293v78h29c30 0 47 27 47 63c0 21 -6 39 -13 57h-86v55h65c-7 22 -12 49 -12 84c0 110 90 156 178 156c87 0 150 -36 164 -130l-83 -17
c-9 47 -30 75 -85 75c-53 0 -87 -27 -87 -87c0 -29 8 -55 17 -81h152v-55z" />
    <glyph glyph-name="currency" unicode="&#xa4;" horiz-adv-x="452" 
d="M320 421l69 69l33 -33l-71 -71c14 -25 23 -57 23 -95c0 -37 -7 -68 -20 -93l68 -67l-33 -33l-64 64c-25 -23 -59 -34 -98 -34c-40 0 -75 11 -100 34l-64 -64l-33 33l69 69c-12 25 -19 55 -19 91c0 38 8 69 22 94l-72 72l33 33l69 -70c24 20 57 30 95 30
c37 0 69 -10 93 -29zM227 397c-48 0 -70 -36 -70 -106c0 -73 22 -110 70 -110s70 37 70 110c0 70 -22 106 -70 106z" />
    <glyph glyph-name="yen" unicode="&#xa5;" horiz-adv-x="504" 
d="M450 142h-150v-142h-91v142h-153v50h138l-28 50h-110v50h83l-105 189h104l78 -153c34 -64 38 -93 38 -93h4s5 30 36 92l79 154h97l-102 -189h82v-50h-109l-27 -50h136v-50z" />
    <glyph glyph-name="brokenbar" unicode="&#xa6;" horiz-adv-x="277" 
d="M177 278h-77v391h77v-391zM177 -203h-77v391h77v-391z" />
    <glyph glyph-name="section" unicode="&#xa7;" horiz-adv-x="440" 
d="M40 17l86 18c8 -53 52 -73 102 -73c46 0 84 18 84 58c0 31 -18 56 -72 72l-73 21c-76 22 -109 62 -109 122c0 59 34 92 83 106c-59 24 -83 72 -83 121c0 104 86 139 167 139c103 0 164 -36 172 -125l-89 -10c-2 45 -35 66 -83 66c-51 0 -79 -22 -79 -62
c0 -30 13 -50 64 -67l66 -21c69 -22 124 -51 124 -128c0 -57 -32 -96 -86 -104c50 -18 85 -68 85 -121c0 -99 -78 -136 -179 -136c-102 0 -168 41 -180 124zM312 239c0 47 -51 63 -118 83c-28 -11 -49 -34 -49 -69c0 -50 35 -62 116 -84c23 9 51 32 51 70z" />
    <glyph glyph-name="dieresis" unicode="&#xa8;" horiz-adv-x="476" 
d="M80 595c0 35 27 60 59 60c33 0 60 -25 60 -60c0 -34 -27 -59 -60 -59c-32 0 -59 25 -59 59zM276 594c0 35 27 60 59 60c34 0 60 -25 60 -60c0 -33 -26 -59 -60 -59c-32 0 -59 26 -59 59z" />
    <glyph glyph-name="copyright" unicode="&#xa9;" horiz-adv-x="703" 
d="M451 223l59 -45c-37 -52 -85 -77 -159 -77c-103 0 -182 64 -182 194c0 124 79 194 190 194c78 0 122 -30 151 -90l-69 -38c-15 41 -42 62 -85 62c-65 0 -107 -45 -107 -128c0 -80 39 -127 109 -127c42 0 68 17 93 55zM45 294c0 178 137 307 306 307s307 -129 307 -307
s-138 -306 -307 -306s-306 128 -306 306zM76 294c0 -162 124 -277 276 -277s276 115 276 277s-124 278 -276 278s-276 -116 -276 -278z" />
    <glyph glyph-name="ordfeminine" unicode="&#xaa;" horiz-adv-x="362" 
d="M211 380v43c-72 1 -101 -15 -101 -52c0 -25 14 -41 43 -41c27 0 58 16 58 50zM287 506v-143c0 -18 9 -23 20 -23c10 0 18 4 24 8v-55c-10 -7 -30 -11 -49 -11c-35 0 -60 12 -67 46c-15 -36 -49 -49 -89 -49c-53 0 -91 30 -91 82c0 67 50 107 176 103v28
c0 37 -18 53 -47 53s-47 -18 -49 -43l-70 10c5 65 63 89 124 89s118 -23 118 -95z" />
    <glyph glyph-name="guillemotleft" unicode="&#xab;" horiz-adv-x="485" 
d="M301 235v-4s17 -6 55 -51l98 -116l-48 -43l-186 213l186 213l48 -49l-99 -114c-38 -44 -54 -49 -54 -49zM110 235v-4s18 -6 55 -51l99 -116l-49 -43l-185 213l185 213l49 -49l-99 -114c-38 -44 -55 -49 -55 -49z" />
    <glyph glyph-name="logicalnot" unicode="&#xac;" horiz-adv-x="500" 
d="M395 262h-349v53h408v-189h-59v136z" />
    <glyph glyph-name="uni00AD" unicode="&#xad;" horiz-adv-x="360" 
d="M68 219v76h224v-76h-224z" />
    <glyph glyph-name="registered" unicode="&#xae;" horiz-adv-x="703" 
d="M512 120h-82c-9 12 -14 22 -18 40l-11 45c-9 35 -39 48 -75 48h-28v-133h-74v361h141c81 0 133 -35 133 -112c0 -60 -42 -90 -100 -93c38 -6 66 -17 78 -57l14 -54c5 -17 12 -33 22 -45zM298 420v-110h48c60 0 79 20 79 54c0 35 -25 56 -69 56h-58zM45 294
c0 178 137 307 306 307s307 -129 307 -307s-138 -306 -307 -306s-306 128 -306 306zM76 294c0 -162 124 -277 276 -277s276 115 276 277s-124 278 -276 278s-276 -116 -276 -278z" />
    <glyph glyph-name="macron" unicode="&#xaf;" horiz-adv-x="422" 
d="M342 558h-262v73h262v-73z" />
    <glyph glyph-name="degree" unicode="&#xb0;" horiz-adv-x="262" 
d="M36 505c0 53 39 96 95 96c55 0 95 -43 95 -96c0 -52 -40 -94 -95 -94c-56 0 -95 42 -95 94zM85 505c0 -27 18 -49 46 -49s46 22 46 49c0 28 -18 50 -46 50s-46 -22 -46 -50z" />
    <glyph glyph-name="plusminus" unicode="&#xb1;" horiz-adv-x="498" 
d="M45 340h175v134h54v-134h179v-54h-179v-148h-54v148h-175v54zM453 43h-408v53h408v-53z" />
    <glyph glyph-name="twosuperior" unicode="&#xb2;" horiz-adv-x="309" 
d="M288 293v-57h-266v52c114 80 175 127 175 193c0 35 -20 53 -54 53c-40 0 -59 -30 -60 -68l-60 27c1 51 47 104 131 104c63 0 118 -34 118 -109c0 -100 -101 -159 -160 -191v-4h176z" />
    <glyph glyph-name="threesuperior" unicode="&#xb3;" horiz-adv-x="317" 
d="M182 420v-3c68 -6 98 -39 98 -91c0 -62 -55 -97 -135 -97c-78 0 -125 33 -135 81l62 25c8 -30 37 -52 74 -52c36 0 60 14 60 48c0 36 -23 59 -105 60v48c72 2 96 22 96 55c0 28 -20 46 -52 46c-28 0 -52 -15 -59 -46l-61 23c12 48 57 80 126 80c62 0 117 -27 117 -92
c0 -44 -24 -77 -86 -85z" />
    <glyph glyph-name="acute" unicode="&#xb4;" horiz-adv-x="358" 
d="M162 529h-79l74 146h121z" />
    <glyph glyph-name="mu" unicode="&#xb5;" horiz-adv-x="514" 
d="M361 0l-11 87c-23 -74 -73 -98 -128 -99c-31 0 -55 10 -64 20v-211h-90v665h90v-301c0 -65 27 -100 77 -100c41 0 114 31 114 123v278h89v-462h-77z" />
    <glyph glyph-name="paragraph" unicode="&#xb6;" horiz-adv-x="523" 
d="M401 517v-538c0 -102 -59 -142 -143 -142c-37 0 -67 6 -105 27l24 82c25 -22 53 -30 77 -30c34 0 55 14 55 59v199h-48c-144 0 -229 64 -229 201c0 150 98 214 268 214h180v-72h-79z" />
    <glyph glyph-name="periodcentered" unicode="&#xb7;" horiz-adv-x="286" 
d="M75 266c0 39 30 68 68 68s68 -29 68 -68c0 -38 -30 -68 -68 -68s-68 30 -68 68z" />
    <glyph glyph-name="periodcentered" unicode="&#x22c5;" horiz-adv-x="286" 
d="M75 266c0 39 30 68 68 68s68 -29 68 -68c0 -38 -30 -68 -68 -68s-68 30 -68 68z" />
    <glyph glyph-name="cedilla" unicode="&#xb8;" horiz-adv-x="353" 
d="M273 -124c0 -59 -47 -87 -105 -87c-40 0 -72 14 -90 38l24 51c17 -24 38 -36 63 -36c22 0 36 11 36 34c0 25 -20 41 -66 42l7 90h46l-3 -49c62 -5 88 -35 88 -83z" />
    <glyph glyph-name="onesuperior" unicode="&#xb9;" horiz-adv-x="298" 
d="M286 236h-254v56h96v228l-106 -11v58l178 23v-298h86v-56z" />
    <glyph glyph-name="ordmasculine" unicode="&#xba;" horiz-adv-x="382" 
d="M191 279c-88 0 -147 57 -147 163c0 104 59 159 147 159s147 -55 147 -159c0 -106 -59 -163 -147 -163zM191 548c-48 0 -70 -36 -70 -106c0 -73 22 -110 70 -110s70 37 70 110c0 70 -22 106 -70 106z" />
    <glyph glyph-name="guillemotright" unicode="&#xbb;" horiz-adv-x="485" 
d="M184 231v4s-16 5 -55 49l-99 114l49 49l185 -213l-185 -213l-48 43l98 116c38 45 55 51 55 51zM374 231v4s-16 5 -55 49l-99 114l49 49l186 -213l-186 -213l-48 43l98 116c38 45 55 51 55 51z" />
    <glyph glyph-name="onequarter" unicode="&#xbc;" horiz-adv-x="864" 
d="M305 236h-254v56h96v228l-106 -11v58l178 23v-298h86v-56zM248 0l306 590h62l-306 -590h-62zM707 0v86h-179v54l176 213h75v-213h57v-54h-57v-86h-72zM709 139v84c0 40 4 71 4 71h-4s-10 -26 -35 -59l-42 -50c-24 -30 -48 -46 -48 -46v-4s15 4 56 4h69z" />
    <glyph glyph-name="onehalf" unicode="&#xbd;" horiz-adv-x="864" 
d="M305 236h-254v56h96v228l-106 -11v58l178 23v-298h86v-56zM248 0l306 590h62l-306 -590h-62zM802 57v-57h-266v52c114 80 175 127 175 193c0 35 -20 53 -54 53c-40 0 -59 -30 -60 -68l-60 27c1 51 47 104 131 104c63 0 118 -34 118 -109c0 -100 -101 -159 -160 -191v-4
h176z" />
    <glyph glyph-name="threequarters" unicode="&#xbe;" horiz-adv-x="864" 
d="M211 420v-3c68 -6 98 -39 98 -91c0 -62 -55 -97 -135 -97c-78 0 -125 33 -135 81l62 25c8 -30 37 -52 74 -52c36 0 60 14 60 48c0 36 -23 59 -105 60v48c72 2 96 22 96 55c0 28 -20 46 -52 46c-28 0 -52 -15 -59 -46l-61 23c12 48 57 80 126 80c62 0 117 -27 117 -92
c0 -44 -24 -77 -86 -85zM248 0l306 590h62l-306 -590h-62zM707 0v86h-179v54l176 213h75v-213h57v-54h-57v-86h-72zM709 139v84c0 40 4 71 4 71h-4s-10 -26 -35 -59l-42 -50c-24 -30 -48 -46 -48 -46v-4s15 4 56 4h69z" />
    <glyph glyph-name="questiondown" unicode="&#xbf;" horiz-adv-x="394" 
d="M314 31l80 -29c-18 -84 -80 -141 -189 -141c-114 0 -188 72 -188 175c0 122 91 177 173 179v82h82v-134h-36c-76 0 -126 -35 -126 -120c0 -73 42 -106 101 -106c53 0 93 28 103 94zM294 406c0 -36 -27 -62 -63 -62s-64 26 -64 62c0 35 28 62 64 62s63 -27 63 -62z" />
    <glyph glyph-name="Agrave" unicode="&#xc0;" horiz-adv-x="569" 
d="M460 0l-57 161h-241l-56 -161h-96l215 589h121l213 -589h-99zM235 370l-47 -133h188l-45 132c-33 92 -46 155 -46 155h-4s-14 -62 -46 -154zM331 653h-83l-100 123h120z" />
    <glyph glyph-name="Aacute" unicode="&#xc1;" horiz-adv-x="569" 
d="M460 0l-57 161h-241l-56 -161h-96l215 589h121l213 -589h-99zM235 370l-47 -133h188l-45 132c-33 92 -46 155 -46 155h-4s-14 -62 -46 -154zM322 653h-82l63 123h120z" />
    <glyph glyph-name="Acircumflex" unicode="&#xc2;" horiz-adv-x="569" 
d="M460 0l-57 161h-241l-56 -161h-96l215 589h121l213 -589h-99zM235 370l-47 -133h188l-45 132c-33 92 -46 155 -46 155h-4s-14 -62 -46 -154zM254 782h56l125 -129h-97l-31 33c-19 20 -23 34 -23 34h-3s-4 -14 -23 -34l-32 -33h-96z" />
    <glyph glyph-name="Atilde" unicode="&#xc3;" horiz-adv-x="569" 
d="M460 0l-57 161h-241l-56 -161h-96l215 589h121l213 -589h-99zM235 370l-47 -133h188l-45 132c-33 92 -46 155 -46 155h-4s-14 -62 -46 -154zM354 653c-31 0 -47 11 -72 24c-27 15 -40 25 -60 25c-21 0 -34 -13 -30 -47h-55c-25 64 9 126 74 126c35 0 54 -11 79 -26
c27 -17 38 -24 55 -24c19 0 32 13 29 49h57c24 -70 -6 -127 -77 -127z" />
    <glyph glyph-name="Adieresis" unicode="&#xc4;" horiz-adv-x="569" 
d="M460 0l-57 161h-241l-56 -161h-96l215 589h121l213 -589h-99zM235 370l-47 -133h188l-45 132c-33 92 -46 155 -46 155h-4s-14 -62 -46 -154zM126 713c0 35 27 60 59 60c33 0 60 -25 60 -60c0 -34 -27 -59 -60 -59c-32 0 -59 25 -59 59zM322 712c0 35 27 60 59 60
c34 0 60 -25 60 -60c0 -33 -26 -59 -60 -59c-32 0 -59 26 -59 59z" />
    <glyph glyph-name="Aring" unicode="&#xc5;" horiz-adv-x="569" 
d="M460 0l-57 161h-241l-56 -161h-96l215 589h121l213 -589h-99zM235 370l-47 -133h188l-45 132c-33 92 -46 155 -46 155h-4s-14 -62 -46 -154zM283 635c-66 0 -103 44 -103 100c0 52 41 97 103 97s103 -45 103 -97c0 -56 -37 -100 -103 -100zM283 790
c-34 0 -55 -24 -55 -57c0 -30 19 -53 55 -53s55 23 55 53c0 33 -21 57 -55 57z" />
    <glyph glyph-name="AE" unicode="&#xc6;" horiz-adv-x="833" 
d="M783 0h-363v161h-214l-98 -161h-100l361 589h414v-80h-271v-174h240v-80h-240v-175h271v-80zM422 522l-172 -285h170v135c-1 100 6 150 6 150h-4z" />
    <glyph glyph-name="Ccedilla" unicode="&#xc7;" horiz-adv-x="563" 
d="M413 -124c0 -59 -47 -87 -105 -87c-40 0 -72 14 -90 38l24 51c17 -24 38 -36 63 -36c22 0 36 11 36 34c0 25 -20 41 -66 42l5 71c-141 10 -236 117 -236 304c0 197 111 308 275 308c107 0 181 -47 221 -142l-86 -42c-24 70 -74 105 -140 105c-110 0 -174 -88 -174 -229
c0 -139 57 -223 169 -223c72 0 119 27 159 92l71 -52c-50 -77 -111 -116 -212 -121l-2 -30c62 -5 88 -35 88 -83z" />
    <glyph glyph-name="Egrave" unicode="&#xc8;" horiz-adv-x="496" 
d="M446 80v-80h-363v589h363v-80h-271v-174h240v-80h-240v-175h271zM311 653h-83l-100 123h120z" />
    <glyph glyph-name="Eacute" unicode="&#xc9;" horiz-adv-x="496" 
d="M446 80v-80h-363v589h363v-80h-271v-174h240v-80h-240v-175h271zM302 653h-82l63 123h120z" />
    <glyph glyph-name="Ecircumflex" unicode="&#xca;" horiz-adv-x="496" 
d="M446 80v-80h-363v589h363v-80h-271v-174h240v-80h-240v-175h271zM236 782h56l125 -129h-97l-31 33c-19 20 -23 34 -23 34h-3s-4 -14 -23 -34l-32 -33h-96z" />
    <glyph glyph-name="Edieresis" unicode="&#xcb;" horiz-adv-x="496" 
d="M446 80v-80h-363v589h363v-80h-271v-174h240v-80h-240v-175h271zM106 713c0 35 27 60 59 60c33 0 60 -25 60 -60c0 -34 -27 -59 -60 -59c-32 0 -59 25 -59 59zM302 712c0 35 27 60 59 60c34 0 60 -25 60 -60c0 -33 -26 -59 -60 -59c-32 0 -59 26 -59 59z" />
    <glyph glyph-name="Igrave" unicode="&#xcc;" horiz-adv-x="258" 
d="M83 589h92v-589h-92v589zM175 653h-83l-100 123h120z" />
    <glyph glyph-name="Iacute" unicode="&#xcd;" horiz-adv-x="258" 
d="M83 589h92v-589h-92v589zM167 653h-82l63 123h120z" />
    <glyph glyph-name="Icircumflex" unicode="&#xce;" horiz-adv-x="258" 
d="M83 589h92v-589h-92v589zM101 782h56l125 -129h-97l-31 33c-19 20 -23 34 -23 34h-3s-4 -14 -23 -34l-32 -33h-96z" />
    <glyph glyph-name="Idieresis" unicode="&#xcf;" horiz-adv-x="258" 
d="M83 589h92v-589h-92v589zM-29 713c0 35 27 60 59 60c33 0 60 -25 60 -60c0 -34 -27 -59 -60 -59c-32 0 -59 25 -59 59zM167 712c0 35 27 60 59 60c34 0 60 -25 60 -60c0 -33 -26 -59 -60 -59c-32 0 -59 26 -59 59z" />
    <glyph glyph-name="Eth" unicode="&#xd0;" horiz-adv-x="594" 
d="M263 0h-180v256h-59v78h59v255h183c165 0 284 -81 284 -288c0 -218 -130 -301 -287 -301zM175 77h79c116 0 199 62 199 220c0 165 -86 215 -190 215h-88v-178h111v-78h-111v-179z" />
    <glyph glyph-name="Ntilde" unicode="&#xd1;" horiz-adv-x="650" 
d="M177 589l232 -337c35 -52 67 -112 67 -112h4s-5 63 -5 137v312h92v-589h-91l-235 336c-37 53 -68 114 -68 114h-4s6 -63 6 -139v-311h-92v589h94zM395 653c-31 0 -47 11 -72 24c-27 15 -40 25 -60 25c-21 0 -34 -13 -30 -47h-55c-25 64 9 126 74 126c35 0 54 -11 79 -26
c27 -17 38 -24 55 -24c19 0 32 13 29 49h57c24 -70 -6 -127 -77 -127z" />
    <glyph glyph-name="Ograve" unicode="&#xd2;" horiz-adv-x="619" 
d="M310 -12c-162 0 -266 110 -266 306c0 197 104 307 266 307s265 -110 265 -307c0 -196 -103 -306 -265 -306zM310 520c-111 0 -169 -86 -169 -226c0 -141 58 -226 169 -226s168 85 168 226c0 140 -58 226 -168 226zM356 653h-83l-100 123h120z" />
    <glyph glyph-name="Oacute" unicode="&#xd3;" horiz-adv-x="619" 
d="M310 -12c-162 0 -266 110 -266 306c0 197 104 307 266 307s265 -110 265 -307c0 -196 -103 -306 -265 -306zM310 520c-111 0 -169 -86 -169 -226c0 -141 58 -226 169 -226s168 85 168 226c0 140 -58 226 -168 226zM347 653h-82l63 123h120z" />
    <glyph glyph-name="Ocircumflex" unicode="&#xd4;" horiz-adv-x="619" 
d="M310 -12c-162 0 -266 110 -266 306c0 197 104 307 266 307s265 -110 265 -307c0 -196 -103 -306 -265 -306zM310 520c-111 0 -169 -86 -169 -226c0 -141 58 -226 169 -226s168 85 168 226c0 140 -58 226 -168 226zM281 782h56l125 -129h-97l-31 33c-19 20 -23 34 -23 34
h-3s-4 -14 -23 -34l-32 -33h-96z" />
    <glyph glyph-name="Otilde" unicode="&#xd5;" horiz-adv-x="619" 
d="M310 -12c-162 0 -266 110 -266 306c0 197 104 307 266 307s265 -110 265 -307c0 -196 -103 -306 -265 -306zM310 520c-111 0 -169 -86 -169 -226c0 -141 58 -226 169 -226s168 85 168 226c0 140 -58 226 -168 226zM379 653c-31 0 -47 11 -72 24c-27 15 -40 25 -60 25
c-21 0 -34 -13 -30 -47h-55c-25 64 9 126 74 126c35 0 54 -11 79 -26c27 -17 38 -24 55 -24c19 0 32 13 29 49h57c24 -70 -6 -127 -77 -127z" />
    <glyph glyph-name="Odieresis" unicode="&#xd6;" horiz-adv-x="619" 
d="M310 -12c-162 0 -266 110 -266 306c0 197 104 307 266 307s265 -110 265 -307c0 -196 -103 -306 -265 -306zM310 520c-111 0 -169 -86 -169 -226c0 -141 58 -226 169 -226s168 85 168 226c0 140 -58 226 -168 226zM151 713c0 35 27 60 59 60c33 0 60 -25 60 -60
c0 -34 -27 -59 -60 -59c-32 0 -59 25 -59 59zM347 712c0 35 27 60 59 60c34 0 60 -25 60 -60c0 -33 -26 -59 -60 -59c-32 0 -59 26 -59 59z" />
    <glyph glyph-name="multiply" unicode="&#xd7;" horiz-adv-x="445" 
d="M45 113l136 136l-132 133l37 38l133 -133l140 139l37 -37l-139 -140l143 -143l-37 -37l-144 142l-137 -136z" />
    <glyph glyph-name="Oslash" unicode="&#xd8;" horiz-adv-x="619" 
d="M74 -14l-43 40l63 70c-33 50 -50 117 -50 198c0 197 104 307 266 307c72 0 133 -22 178 -64l54 60l46 -41l-61 -67c31 -50 48 -115 48 -195c0 -196 -103 -306 -265 -306c-72 0 -133 21 -178 63zM310 520c-111 0 -167 -86 -167 -226c0 -48 6 -89 19 -122l265 296
c-28 33 -67 52 -117 52zM476 294c0 45 -6 85 -18 118l-265 -294c27 -33 66 -50 117 -50c111 0 166 85 166 226z" />
    <glyph glyph-name="Ugrave" unicode="&#xd9;" horiz-adv-x="582" 
d="M425 589h93v-396c0 -153 -112 -205 -227 -205c-116 0 -227 52 -227 205v396h92v-372c0 -106 49 -153 135 -153c85 0 134 47 134 151v374zM337 653h-83l-100 123h120z" />
    <glyph glyph-name="Uacute" unicode="&#xda;" horiz-adv-x="582" 
d="M425 589h93v-396c0 -153 -112 -205 -227 -205c-116 0 -227 52 -227 205v396h92v-372c0 -106 49 -153 135 -153c85 0 134 47 134 151v374zM328 653h-82l63 123h120z" />
    <glyph glyph-name="Ucircumflex" unicode="&#xdb;" horiz-adv-x="582" 
d="M425 589h93v-396c0 -153 -112 -205 -227 -205c-116 0 -227 52 -227 205v396h92v-372c0 -106 49 -153 135 -153c85 0 134 47 134 151v374zM262 782h56l125 -129h-97l-31 33c-19 20 -23 34 -23 34h-3s-4 -14 -23 -34l-32 -33h-96z" />
    <glyph glyph-name="Udieresis" unicode="&#xdc;" horiz-adv-x="582" 
d="M425 589h93v-396c0 -153 -112 -205 -227 -205c-116 0 -227 52 -227 205v396h92v-372c0 -106 49 -153 135 -153c85 0 134 47 134 151v374zM132 713c0 35 27 60 59 60c33 0 60 -25 60 -60c0 -34 -27 -59 -60 -59c-32 0 -59 25 -59 59zM328 712c0 35 27 60 59 60
c34 0 60 -25 60 -60c0 -33 -26 -59 -60 -59c-32 0 -59 26 -59 59z" />
    <glyph glyph-name="Yacute" unicode="&#xdd;" horiz-adv-x="484" 
d="M115 589l92 -187c34 -67 41 -100 41 -100h4s6 33 38 100l87 187h97l-180 -366v-223h-92v223l-192 366h105zM280 653h-82l63 123h120z" />
    <glyph glyph-name="Thorn" unicode="&#xde;" horiz-adv-x="497" 
d="M175 406v-209h85c87 0 114 39 114 106c0 70 -40 103 -115 103h-84zM175 0h-92v589h92v-105h86c146 0 208 -63 208 -176c0 -118 -67 -187 -199 -187h-95v-121z" />
    <glyph glyph-name="germandbls" unicode="&#xdf;" horiz-adv-x="536" 
d="M72 0v451c0 160 84 224 206 224c118 0 183 -64 183 -155c0 -85 -47 -128 -118 -139v-4c97 -6 155 -72 155 -185c0 -124 -56 -204 -177 -204c-64 0 -99 21 -125 68l44 61c18 -38 42 -59 81 -59c55 0 86 40 86 137c0 88 -50 145 -138 145h-51v72h41c79 0 111 38 111 95
c0 60 -35 97 -96 97c-64 0 -112 -37 -112 -156v-448h-90z" />
    <glyph glyph-name="agrave" unicode="&#xe0;" horiz-adv-x="479" 
d="M305 139v67c-124 3 -178 -25 -178 -83c0 -38 25 -67 74 -67c48 0 104 29 104 83zM396 331v-222c0 -35 16 -43 34 -43c11 0 19 2 26 5v-70c-13 -5 -29 -8 -49 -8c-53 0 -87 22 -95 74c-24 -58 -78 -79 -137 -79c-81 0 -138 46 -138 125c0 102 79 161 268 152v57
c0 57 -34 79 -83 79c-50 0 -80 -26 -84 -74l-86 13c7 98 93 133 178 133c90 0 166 -36 166 -142zM280 529h-80l-115 146h121z" />
    <glyph glyph-name="aacute" unicode="&#xe1;" horiz-adv-x="479" 
d="M305 139v67c-124 3 -178 -25 -178 -83c0 -38 25 -67 74 -67c48 0 104 29 104 83zM396 331v-222c0 -35 16 -43 34 -43c11 0 19 2 26 5v-70c-13 -5 -29 -8 -49 -8c-53 0 -87 22 -95 74c-24 -58 -78 -79 -137 -79c-81 0 -138 46 -138 125c0 102 79 161 268 152v57
c0 57 -34 79 -83 79c-50 0 -80 -26 -84 -74l-86 13c7 98 93 133 178 133c90 0 166 -36 166 -142zM264 529h-79l74 146h121z" />
    <glyph glyph-name="acircumflex" unicode="&#xe2;" horiz-adv-x="479" 
d="M305 139v67c-124 3 -178 -25 -178 -83c0 -38 25 -67 74 -67c48 0 104 29 104 83zM396 331v-222c0 -35 16 -43 34 -43c11 0 19 2 26 5v-70c-13 -5 -29 -8 -49 -8c-53 0 -87 22 -95 74c-24 -58 -78 -79 -137 -79c-81 0 -138 46 -138 125c0 102 79 161 268 152v57
c0 57 -34 79 -83 79c-50 0 -80 -26 -84 -74l-86 13c7 98 93 133 178 133c90 0 166 -36 166 -142zM205 675h53l125 -147h-92l-34 42c-19 23 -23 38 -23 38h-5s-4 -15 -23 -38l-34 -42h-92z" />
    <glyph glyph-name="atilde" unicode="&#xe3;" horiz-adv-x="479" 
d="M305 139v67c-124 3 -178 -25 -178 -83c0 -38 25 -67 74 -67c48 0 104 29 104 83zM396 331v-222c0 -35 16 -43 34 -43c11 0 19 2 26 5v-70c-13 -5 -29 -8 -49 -8c-53 0 -87 22 -95 74c-24 -58 -78 -79 -137 -79c-81 0 -138 46 -138 125c0 102 79 161 268 152v57
c0 57 -34 79 -83 79c-50 0 -80 -26 -84 -74l-86 13c7 98 93 133 178 133c90 0 166 -36 166 -142zM302 529c-31 0 -47 10 -72 23c-27 16 -40 25 -60 25c-21 0 -34 -13 -30 -47h-55c-25 65 9 124 74 124c35 0 54 -12 79 -27c27 -16 38 -23 55 -23c19 0 32 12 29 49h57
c24 -70 -6 -124 -77 -124z" />
    <glyph glyph-name="adieresis" unicode="&#xe4;" horiz-adv-x="479" 
d="M305 139v67c-124 3 -178 -25 -178 -83c0 -38 25 -67 74 -67c48 0 104 29 104 83zM396 331v-222c0 -35 16 -43 34 -43c11 0 19 2 26 5v-70c-13 -5 -29 -8 -49 -8c-53 0 -87 22 -95 74c-24 -58 -78 -79 -137 -79c-81 0 -138 46 -138 125c0 102 79 161 268 152v57
c0 57 -34 79 -83 79c-50 0 -80 -26 -84 -74l-86 13c7 98 93 133 178 133c90 0 166 -36 166 -142zM74 595c0 35 27 60 59 60c33 0 60 -25 60 -60c0 -34 -27 -59 -60 -59c-32 0 -59 25 -59 59zM270 594c0 35 27 60 59 60c34 0 60 -25 60 -60c0 -33 -26 -59 -60 -59
c-32 0 -59 26 -59 59z" />
    <glyph glyph-name="aring" unicode="&#xe5;" horiz-adv-x="479" 
d="M305 139v67c-124 3 -178 -25 -178 -83c0 -38 25 -67 74 -67c48 0 104 29 104 83zM396 331v-222c0 -35 16 -43 34 -43c11 0 19 2 26 5v-70c-13 -5 -29 -8 -49 -8c-53 0 -87 22 -95 74c-24 -58 -78 -79 -137 -79c-81 0 -138 46 -138 125c0 102 79 161 268 152v57
c0 57 -34 79 -83 79c-50 0 -80 -26 -84 -74l-86 13c7 98 93 133 178 133c90 0 166 -36 166 -142zM231 520c-66 0 -103 44 -103 100c0 52 41 96 103 96s103 -44 103 -96c0 -56 -37 -100 -103 -100zM231 674c-34 0 -55 -23 -55 -56c0 -31 19 -53 55 -53s55 22 55 53
c0 33 -21 56 -55 56z" />
    <glyph glyph-name="ae" unicode="&#xe6;" horiz-adv-x="740" 
d="M514 59c51 0 86 20 102 75l78 -21c-18 -93 -96 -125 -185 -125c-70 0 -127 28 -163 80c-21 -52 -84 -80 -159 -80c-90 0 -150 42 -150 130c0 104 84 156 269 157c3 20 7 39 13 57c-7 48 -46 69 -90 69c-51 0 -87 -26 -91 -74l-86 13c7 98 93 133 177 133
c58 0 110 -17 136 -60c37 39 88 60 149 60c120 0 183 -84 183 -199c0 -25 -3 -49 -8 -63h-299c5 -91 47 -152 124 -152zM393 275h216c1 8 1 13 1 20c0 59 -39 107 -101 107c-67 0 -107 -47 -116 -127zM201 56c54 0 105 29 113 83c-6 22 -9 46 -10 73
c-116 -1 -177 -25 -177 -89c0 -38 25 -67 74 -67z" />
    <glyph glyph-name="ccedilla" unicode="&#xe7;" horiz-adv-x="458" 
d="M352 -124c0 -59 -47 -87 -105 -87c-40 0 -72 14 -90 38l24 51c17 -24 38 -36 63 -36c22 0 36 11 36 34c0 25 -20 41 -66 42l5 72c-106 11 -177 95 -177 238c0 154 83 245 211 245c98 0 162 -52 168 -144l-82 -17c-8 58 -39 87 -90 87c-79 0 -120 -70 -120 -171
c0 -98 48 -168 124 -168c49 0 82 23 96 76l78 -19c-15 -86 -80 -123 -161 -128l-2 -30c62 -5 88 -35 88 -83z" />
    <glyph glyph-name="egrave" unicode="&#xe8;" horiz-adv-x="478" 
d="M253 59c51 0 85 20 101 75l79 -21c-19 -93 -97 -125 -185 -125c-123 0 -206 85 -206 239c0 155 82 246 211 246c119 0 183 -82 183 -197c0 -26 -4 -50 -9 -64h-298c4 -90 46 -153 124 -153zM131 277h216c1 7 1 13 1 19c0 59 -38 106 -100 106c-66 0 -108 -45 -117 -125z
M298 529h-80l-115 146h121z" />
    <glyph glyph-name="eacute" unicode="&#xe9;" horiz-adv-x="478" 
d="M253 59c51 0 85 20 101 75l79 -21c-19 -93 -97 -125 -185 -125c-123 0 -206 85 -206 239c0 155 82 246 211 246c119 0 183 -82 183 -197c0 -26 -4 -50 -9 -64h-298c4 -90 46 -153 124 -153zM131 277h216c1 7 1 13 1 19c0 59 -38 106 -100 106c-66 0 -108 -45 -117 -125z
M283 529h-79l74 146h121z" />
    <glyph glyph-name="ecircumflex" unicode="&#xea;" horiz-adv-x="478" 
d="M253 59c51 0 85 20 101 75l79 -21c-19 -93 -97 -125 -185 -125c-123 0 -206 85 -206 239c0 155 82 246 211 246c119 0 183 -82 183 -197c0 -26 -4 -50 -9 -64h-298c4 -90 46 -153 124 -153zM131 277h216c1 7 1 13 1 19c0 59 -38 106 -100 106c-66 0 -108 -45 -117 -125z
M227 675h53l125 -147h-92l-34 42c-19 23 -23 38 -23 38h-5s-4 -15 -23 -38l-34 -42h-92z" />
    <glyph glyph-name="edieresis" unicode="&#xeb;" horiz-adv-x="478" 
d="M253 59c51 0 85 20 101 75l79 -21c-19 -93 -97 -125 -185 -125c-123 0 -206 85 -206 239c0 155 82 246 211 246c119 0 183 -82 183 -197c0 -26 -4 -50 -9 -64h-298c4 -90 46 -153 124 -153zM131 277h216c1 7 1 13 1 19c0 59 -38 106 -100 106c-66 0 -108 -45 -117 -125z
M95 595c0 35 27 60 59 60c33 0 60 -25 60 -60c0 -34 -27 -59 -60 -59c-32 0 -59 25 -59 59zM291 594c0 35 27 60 59 60c34 0 60 -25 60 -60c0 -33 -26 -59 -60 -59c-32 0 -59 26 -59 59z" />
    <glyph glyph-name="igrave" unicode="&#xec;" horiz-adv-x="234" 
d="M163 529h-80l-115 146h121zM72 462h90v-462h-90v462z" />
    <glyph glyph-name="iacute" unicode="&#xed;" horiz-adv-x="234" 
d="M152 529h-79l74 146h121zM72 462h90v-462h-90v462z" />
    <glyph glyph-name="icircumflex" unicode="&#xee;" horiz-adv-x="234" 
d="M72 462h90v-462h-90v462zM91 675h53l125 -147h-92l-34 42c-19 23 -23 38 -23 38h-5s-4 -15 -23 -38l-34 -42h-92z" />
    <glyph glyph-name="idieresis" unicode="&#xef;" horiz-adv-x="234" 
d="M-41 595c0 35 27 60 59 60c33 0 60 -25 60 -60c0 -34 -27 -59 -60 -59c-32 0 -59 25 -59 59zM155 594c0 35 27 60 59 60c34 0 60 -25 60 -60c0 -33 -26 -59 -60 -59c-32 0 -59 26 -59 59zM72 462h90v-462h-90v462z" />
    <glyph glyph-name="eth" unicode="&#xf0;" horiz-adv-x="507" 
d="M125 495l-11 43l124 25c-28 25 -83 54 -120 72l77 39c49 -21 94 -52 130 -87l103 22l12 -45l-77 -17c64 -80 102 -186 102 -287c0 -190 -85 -271 -212 -271c-128 0 -211 83 -211 240s86 234 191 234c57 0 95 -24 121 -61h4c-18 48 -46 89 -82 124zM374 227
c0 108 -44 166 -124 166c-79 0 -118 -58 -118 -166c0 -106 40 -167 120 -167c84 0 122 61 122 167z" />
    <glyph glyph-name="ntilde" unicode="&#xf1;" horiz-adv-x="509" 
d="M143 462l11 -89c25 69 78 100 148 100c76 0 140 -42 140 -143v-330h-90v303c0 57 -26 92 -81 92c-56 0 -109 -30 -109 -130v-265h-90v462h71zM332 529c-31 0 -47 10 -72 23c-27 16 -40 25 -60 25c-21 0 -34 -13 -30 -47h-55c-25 65 9 124 74 124c35 0 54 -12 79 -27
c27 -16 38 -23 55 -23c19 0 32 12 29 49h57c24 -70 -6 -124 -77 -124z" />
    <glyph glyph-name="ograve" unicode="&#xf2;" horiz-adv-x="505" 
d="M252 -12c-127 0 -210 88 -210 246c0 157 83 239 210 239c128 0 211 -82 211 -239c0 -158 -83 -246 -211 -246zM252 400c-79 0 -121 -54 -121 -167c0 -116 41 -174 121 -174c81 0 122 58 122 174c0 113 -42 167 -122 167zM300 529h-80l-115 146h121z" />
    <glyph glyph-name="oacute" unicode="&#xf3;" horiz-adv-x="505" 
d="M252 -12c-127 0 -210 88 -210 246c0 157 83 239 210 239c128 0 211 -82 211 -239c0 -158 -83 -246 -211 -246zM252 400c-79 0 -121 -54 -121 -167c0 -116 41 -174 121 -174c81 0 122 58 122 174c0 113 -42 167 -122 167zM284 529h-79l74 146h121z" />
    <glyph glyph-name="ocircumflex" unicode="&#xf4;" horiz-adv-x="505" 
d="M252 -12c-127 0 -210 88 -210 246c0 157 83 239 210 239c128 0 211 -82 211 -239c0 -158 -83 -246 -211 -246zM252 400c-79 0 -121 -54 -121 -167c0 -116 41 -174 121 -174c81 0 122 58 122 174c0 113 -42 167 -122 167zM226 675h53l125 -147h-92l-34 42
c-19 23 -23 38 -23 38h-5s-4 -15 -23 -38l-34 -42h-92z" />
    <glyph glyph-name="otilde" unicode="&#xf5;" horiz-adv-x="505" 
d="M252 -12c-127 0 -210 88 -210 246c0 157 83 239 210 239c128 0 211 -82 211 -239c0 -158 -83 -246 -211 -246zM252 400c-79 0 -121 -54 -121 -167c0 -116 41 -174 121 -174c81 0 122 58 122 174c0 113 -42 167 -122 167zM322 529c-31 0 -47 10 -72 23
c-27 16 -40 25 -60 25c-21 0 -34 -13 -30 -47h-55c-25 65 9 124 74 124c35 0 54 -12 79 -27c27 -16 38 -23 55 -23c19 0 32 12 29 49h57c24 -70 -6 -124 -77 -124z" />
    <glyph glyph-name="odieresis" unicode="&#xf6;" horiz-adv-x="505" 
d="M252 -12c-127 0 -210 88 -210 246c0 157 83 239 210 239c128 0 211 -82 211 -239c0 -158 -83 -246 -211 -246zM252 400c-79 0 -121 -54 -121 -167c0 -116 41 -174 121 -174c81 0 122 58 122 174c0 113 -42 167 -122 167zM94 595c0 35 27 60 59 60c33 0 60 -25 60 -60
c0 -34 -27 -59 -60 -59c-32 0 -59 25 -59 59zM290 594c0 35 27 60 59 60c34 0 60 -25 60 -60c0 -33 -26 -59 -60 -59c-32 0 -59 26 -59 59z" />
    <glyph glyph-name="divide" unicode="&#xf7;" horiz-adv-x="498" 
d="M453 221h-408v54h408v-54zM199 74c0 26 21 46 47 46c25 0 46 -20 46 -46c0 -25 -21 -45 -46 -45c-26 0 -47 20 -47 45zM199 415c0 26 21 48 47 48c25 0 46 -22 46 -48c0 -24 -21 -45 -46 -45c-26 0 -47 21 -47 45z" />
    <glyph glyph-name="oslash" unicode="&#xf8;" horiz-adv-x="505" 
d="M70 -14l-45 39l53 56c-23 40 -36 91 -36 153c0 157 83 239 210 239c58 0 107 -17 143 -51l47 50l45 -38l-55 -59c20 -37 31 -84 31 -141c0 -158 -83 -246 -211 -246c-55 0 -101 16 -136 47zM252 400c-79 0 -121 -54 -121 -167c0 -33 3 -61 10 -84l199 214
c-21 25 -50 37 -88 37zM374 233c0 27 -3 51 -8 71l-197 -212c20 -22 48 -33 83 -33c81 0 122 58 122 174z" />
    <glyph glyph-name="ugrave" unicode="&#xf9;" horiz-adv-x="508" 
d="M359 0l-11 84c-22 -68 -69 -96 -142 -96c-84 0 -140 43 -140 153v321h90v-307c0 -68 26 -100 83 -100c50 0 107 45 107 134v273h90v-462h-77zM299 529h-80l-115 146h121z" />
    <glyph glyph-name="uacute" unicode="&#xfa;" horiz-adv-x="508" 
d="M359 0l-11 84c-22 -68 -69 -96 -142 -96c-84 0 -140 43 -140 153v321h90v-307c0 -68 26 -100 83 -100c50 0 107 45 107 134v273h90v-462h-77zM283 529h-79l74 146h121z" />
    <glyph glyph-name="ucircumflex" unicode="&#xfb;" horiz-adv-x="508" 
d="M359 0l-11 84c-22 -68 -69 -96 -142 -96c-84 0 -140 43 -140 153v321h90v-307c0 -68 26 -100 83 -100c50 0 107 45 107 134v273h90v-462h-77zM225 675h53l125 -147h-92l-34 42c-19 23 -23 38 -23 38h-5s-4 -15 -23 -38l-34 -42h-92z" />
    <glyph glyph-name="udieresis" unicode="&#xfc;" horiz-adv-x="508" 
d="M359 0l-11 84c-22 -68 -69 -96 -142 -96c-84 0 -140 43 -140 153v321h90v-307c0 -68 26 -100 83 -100c50 0 107 45 107 134v273h90v-462h-77zM93 595c0 35 27 60 59 60c33 0 60 -25 60 -60c0 -34 -27 -59 -60 -59c-32 0 -59 25 -59 59zM289 594c0 35 27 60 59 60
c34 0 60 -25 60 -60c0 -33 -26 -59 -60 -59c-32 0 -59 26 -59 59z" />
    <glyph glyph-name="yacute" unicode="&#xfd;" horiz-adv-x="440" 
d="M107 462l79 -254c28 -90 36 -146 36 -146h4s8 55 35 146l77 254h94l-170 -500c-47 -136 -106 -170 -188 -170c-22 0 -47 4 -67 11l8 77c20 -10 38 -14 60 -14c49 0 77 26 104 107l-171 489h99zM258 529h-79l74 146h121z" />
    <glyph glyph-name="thorn" unicode="&#xfe;" 
d="M162 264v-85c0 -89 60 -123 112 -123c69 0 126 56 126 178c0 111 -45 165 -116 165c-66 0 -122 -49 -122 -135zM162 61v-264h-90v871h90v-287c25 68 87 92 148 92c113 0 182 -82 182 -231c0 -141 -72 -254 -200 -254c-71 0 -114 33 -130 73z" />
    <glyph glyph-name="ydieresis" unicode="&#xff;" horiz-adv-x="440" 
d="M107 462l79 -254c28 -90 36 -146 36 -146h4s8 55 35 146l77 254h94l-170 -500c-47 -136 -106 -170 -188 -170c-22 0 -47 4 -67 11l8 77c20 -10 38 -14 60 -14c49 0 77 26 104 107l-171 489h99zM67 595c0 35 27 60 59 60c33 0 60 -25 60 -60c0 -34 -27 -59 -60 -59
c-32 0 -59 25 -59 59zM263 594c0 35 27 60 59 60c34 0 60 -25 60 -60c0 -33 -26 -59 -60 -59c-32 0 -59 26 -59 59z" />
    <glyph glyph-name="Amacron" unicode="&#x100;" horiz-adv-x="569" 
d="M460 0l-57 161h-241l-56 -161h-96l215 589h121l213 -589h-99zM235 370l-47 -133h188l-45 132c-33 92 -46 155 -46 155h-4s-14 -62 -46 -154zM415 674h-264v71h264v-71z" />
    <glyph glyph-name="amacron" unicode="&#x101;" horiz-adv-x="479" 
d="M305 139v67c-124 3 -178 -25 -178 -83c0 -38 25 -67 74 -67c48 0 104 29 104 83zM396 331v-222c0 -35 16 -43 34 -43c11 0 19 2 26 5v-70c-13 -5 -29 -8 -49 -8c-53 0 -87 22 -95 74c-24 -58 -78 -79 -137 -79c-81 0 -138 46 -138 125c0 102 79 161 268 152v57
c0 57 -34 79 -83 79c-50 0 -80 -26 -84 -74l-86 13c7 98 93 133 178 133c90 0 166 -36 166 -142zM361 558h-262v73h262v-73z" />
    <glyph glyph-name="Abreve" unicode="&#x102;" horiz-adv-x="569" 
d="M460 0l-57 161h-241l-56 -161h-96l215 589h121l213 -589h-99zM235 370l-47 -133h188l-45 132c-33 92 -46 155 -46 155h-4s-14 -62 -46 -154zM283 650c-87 0 -135 51 -135 131h71c3 -41 18 -65 64 -65s62 24 65 65h71c0 -80 -48 -131 -136 -131z" />
    <glyph glyph-name="abreve" unicode="&#x103;" horiz-adv-x="479" 
d="M305 139v67c-124 3 -178 -25 -178 -83c0 -38 25 -67 74 -67c48 0 104 29 104 83zM396 331v-222c0 -35 16 -43 34 -43c11 0 19 2 26 5v-70c-13 -5 -29 -8 -49 -8c-53 0 -87 22 -95 74c-24 -58 -78 -79 -137 -79c-81 0 -138 46 -138 125c0 102 79 161 268 152v57
c0 57 -34 79 -83 79c-50 0 -80 -26 -84 -74l-86 13c7 98 93 133 178 133c90 0 166 -36 166 -142zM232 526c-88 0 -136 57 -136 141h71c3 -44 14 -74 65 -74c50 0 62 30 65 74h71c0 -84 -48 -141 -136 -141z" />
    <glyph glyph-name="Aogonek" unicode="&#x104;" horiz-adv-x="569" 
d="M322 -106c0 83 70 123 126 138l-45 129h-241l-56 -161h-96l215 589h121l213 -589h-54c-48 -3 -103 -33 -103 -93c0 -35 18 -57 52 -57c33 0 55 17 70 42l29 -44c-20 -34 -56 -59 -115 -59c-68 0 -116 35 -116 105zM235 370l-47 -133h188l-45 132c-33 92 -46 155 -46 155
h-4s-14 -62 -46 -154z" />
    <glyph glyph-name="aogonek" unicode="&#x105;" horiz-adv-x="479" 
d="M241 -106c0 65 51 104 97 122c-14 10 -24 29 -26 51c-23 -55 -78 -79 -137 -79c-81 0 -138 46 -138 125c0 102 79 161 268 152v57c0 57 -34 79 -83 79c-50 0 -80 -26 -84 -74l-86 13c7 98 93 133 178 133c90 0 166 -36 166 -142v-222c0 -35 16 -43 34 -43c11 0 19 2 26 5
v-70c-55 -5 -136 -24 -136 -94c0 -35 19 -57 53 -57c32 0 54 17 70 42l29 -44c-21 -34 -56 -59 -115 -59c-68 0 -116 35 -116 105zM305 139v67c-124 3 -178 -25 -178 -83c0 -38 25 -67 74 -67c48 0 104 29 104 83z" />
    <glyph glyph-name="Cacute" unicode="&#x106;" horiz-adv-x="563" 
d="M468 162l71 -52c-54 -83 -120 -122 -237 -122c-153 0 -258 109 -258 305c0 197 111 308 275 308c107 0 181 -47 221 -142l-86 -42c-24 70 -74 105 -140 105c-110 0 -174 -88 -174 -229c0 -139 57 -223 169 -223c72 0 119 27 159 92zM346 653h-82l63 123h120z" />
    <glyph glyph-name="cacute" unicode="&#x107;" horiz-adv-x="458" 
d="M349 136l78 -19c-16 -93 -90 -129 -181 -129c-121 0 -204 86 -204 240s83 245 211 245c98 0 162 -52 168 -144l-82 -17c-8 58 -39 87 -90 87c-79 0 -120 -70 -120 -171c0 -98 48 -168 124 -168c49 0 82 23 96 76zM288 529h-79l74 146h121z" />
    <glyph glyph-name="Ccircumflex" unicode="&#x108;" horiz-adv-x="563" 
d="M468 162l71 -52c-54 -83 -120 -122 -237 -122c-153 0 -258 109 -258 305c0 197 111 308 275 308c107 0 181 -47 221 -142l-86 -42c-24 70 -74 105 -140 105c-110 0 -174 -88 -174 -229c0 -139 57 -223 169 -223c72 0 119 27 159 92zM288 782h56l125 -129h-97l-31 33
c-19 20 -23 34 -23 34h-3s-4 -14 -23 -34l-32 -33h-96z" />
    <glyph glyph-name="ccircumflex" unicode="&#x109;" horiz-adv-x="458" 
d="M349 136l78 -19c-16 -93 -90 -129 -181 -129c-121 0 -204 86 -204 240s83 245 211 245c98 0 162 -52 168 -144l-82 -17c-8 58 -39 87 -90 87c-79 0 -120 -70 -120 -171c0 -98 48 -168 124 -168c49 0 82 23 96 76zM225 675h53l125 -147h-92l-34 42c-19 23 -23 38 -23 38
h-5s-4 -15 -23 -38l-34 -42h-92z" />
    <glyph glyph-name="Cdotaccent" unicode="&#x10a;" horiz-adv-x="563" 
d="M468 162l71 -52c-54 -83 -120 -122 -237 -122c-153 0 -258 109 -258 305c0 197 111 308 275 308c107 0 181 -47 221 -142l-86 -42c-24 70 -74 105 -140 105c-110 0 -174 -88 -174 -229c0 -139 57 -223 169 -223c72 0 119 27 159 92zM249 713c0 36 27 60 60 60
c35 0 62 -24 62 -60c0 -34 -27 -60 -62 -60c-33 0 -60 26 -60 60z" />
    <glyph glyph-name="cdotaccent" unicode="&#x10b;" horiz-adv-x="458" 
d="M349 136l78 -19c-16 -93 -90 -129 -181 -129c-121 0 -204 86 -204 240s83 245 211 245c98 0 162 -52 168 -144l-82 -17c-8 58 -39 87 -90 87c-79 0 -120 -70 -120 -171c0 -98 48 -168 124 -168c49 0 82 23 96 76zM190 593c0 35 27 60 60 60c35 0 62 -25 62 -60
c0 -34 -27 -60 -62 -60c-33 0 -60 26 -60 60z" />
    <glyph glyph-name="Ccaron" unicode="&#x10c;" horiz-adv-x="563" 
d="M468 162l71 -52c-54 -83 -120 -122 -237 -122c-153 0 -258 109 -258 305c0 197 111 308 275 308c107 0 181 -47 221 -142l-86 -42c-24 70 -74 105 -140 105c-110 0 -174 -88 -174 -229c0 -139 57 -223 169 -223c72 0 119 27 159 92zM335 649h-56l-124 129h96l32 -33
c19 -20 23 -34 23 -34h3s4 14 23 34l31 33h97z" />
    <glyph glyph-name="ccaron" unicode="&#x10d;" horiz-adv-x="458" 
d="M349 136l78 -19c-16 -93 -90 -129 -181 -129c-121 0 -204 86 -204 240s83 245 211 245c98 0 162 -52 168 -144l-82 -17c-8 58 -39 87 -90 87c-79 0 -120 -70 -120 -171c0 -98 48 -168 124 -168c49 0 82 23 96 76zM279 528h-53l-125 147h92l34 -43c19 -23 23 -38 23 -38h5
s4 15 23 38l34 43h92z" />
    <glyph glyph-name="Dcaron" unicode="&#x10e;" horiz-adv-x="594" 
d="M175 77h79c116 0 199 62 199 220c0 165 -86 215 -190 215h-88v-435zM263 0h-180v589h183c165 0 284 -81 284 -288c0 -218 -130 -301 -287 -301zM292 649h-56l-124 129h96l32 -33c19 -20 23 -34 23 -34h3s4 14 23 34l31 33h97z" />
    <glyph glyph-name="dcaron" unicode="&#x10f;" 
d="M639 674l-52 -176h-66l16 176h102zM372 184v102c0 82 -62 117 -115 117c-68 0 -124 -47 -124 -177c0 -109 48 -167 123 -167c51 0 116 41 116 125zM371 400v268h91v-668h-80l-10 80c-26 -70 -81 -92 -147 -92c-97 0 -183 79 -183 235c0 157 75 250 207 250
c59 0 109 -33 122 -73z" />
    <glyph glyph-name="Dcroat" unicode="&#x110;" horiz-adv-x="594" 
d="M263 0h-180v256h-59v78h59v255h183c165 0 284 -81 284 -288c0 -218 -130 -301 -287 -301zM175 77h79c116 0 199 62 199 220c0 165 -86 215 -190 215h-88v-178h111v-78h-111v-179z" />
    <glyph glyph-name="dcroat" unicode="&#x111;" 
d="M226 529v65h145v74h91v-74h67v-65h-67v-529h-80l-10 80c-26 -70 -81 -92 -147 -92c-97 0 -183 79 -183 235c0 157 75 250 207 250c59 0 109 -33 122 -73v129h-145zM372 184v102c0 82 -62 117 -115 117c-68 0 -124 -47 -124 -177c0 -109 48 -167 123 -167
c51 0 116 41 116 125z" />
    <glyph glyph-name="Emacron" unicode="&#x112;" horiz-adv-x="496" 
d="M446 80v-80h-363v589h363v-80h-271v-174h240v-80h-240v-175h271zM397 674h-264v71h264v-71z" />
    <glyph glyph-name="emacron" unicode="&#x113;" horiz-adv-x="478" 
d="M253 59c51 0 85 20 101 75l79 -21c-19 -93 -97 -125 -185 -125c-123 0 -206 85 -206 239c0 155 82 246 211 246c119 0 183 -82 183 -197c0 -26 -4 -50 -9 -64h-298c4 -90 46 -153 124 -153zM131 277h216c1 7 1 13 1 19c0 59 -38 106 -100 106c-66 0 -108 -45 -117 -125z
M382 558h-262v73h262v-73z" />
    <glyph glyph-name="Ebreve" unicode="&#x114;" horiz-adv-x="496" 
d="M446 80v-80h-363v589h363v-80h-271v-174h240v-80h-240v-175h271zM259 650c-87 0 -135 51 -135 131h71c3 -41 18 -65 64 -65s62 24 65 65h71c0 -80 -48 -131 -136 -131z" />
    <glyph glyph-name="ebreve" unicode="&#x115;" horiz-adv-x="478" 
d="M253 59c51 0 85 20 101 75l79 -21c-19 -93 -97 -125 -185 -125c-123 0 -206 85 -206 239c0 155 82 246 211 246c119 0 183 -82 183 -197c0 -26 -4 -50 -9 -64h-298c4 -90 46 -153 124 -153zM131 277h216c1 7 1 13 1 19c0 59 -38 106 -100 106c-66 0 -108 -45 -117 -125z
M250 526c-88 0 -136 57 -136 141h71c3 -44 14 -74 65 -74c50 0 62 30 65 74h71c0 -84 -48 -141 -136 -141z" />
    <glyph glyph-name="Edotaccent" unicode="&#x116;" horiz-adv-x="496" 
d="M446 80v-80h-363v589h363v-80h-271v-174h240v-80h-240v-175h271zM199 713c0 36 27 60 60 60c35 0 62 -24 62 -60c0 -34 -27 -60 -62 -60c-33 0 -60 26 -60 60z" />
    <glyph glyph-name="edotaccent" unicode="&#x117;" horiz-adv-x="478" 
d="M253 59c51 0 85 20 101 75l79 -21c-19 -93 -97 -125 -185 -125c-123 0 -206 85 -206 239c0 155 82 246 211 246c119 0 183 -82 183 -197c0 -26 -4 -50 -9 -64h-298c4 -90 46 -153 124 -153zM131 277h216c1 7 1 13 1 19c0 59 -38 106 -100 106c-66 0 -108 -45 -117 -125z
M190 593c0 35 27 60 60 60c35 0 62 -25 62 -60c0 -34 -27 -60 -62 -60c-33 0 -60 26 -60 60z" />
    <glyph glyph-name="Eogonek" unicode="&#x118;" horiz-adv-x="496" 
d="M446 80v-80h-18c-63 0 -109 -31 -109 -92c0 -36 18 -58 52 -58c33 0 55 17 70 42l29 -44c-20 -34 -56 -59 -115 -59c-68 0 -116 35 -116 105c0 54 30 87 70 106h-226v589h363v-80h-271v-174h240v-80h-240v-175h271z" />
    <glyph glyph-name="eogonek" unicode="&#x119;" horiz-adv-x="478" 
d="M177 -106c0 42 18 73 44 96c-109 11 -179 94 -179 237c0 155 82 246 211 246c119 0 183 -82 183 -197c0 -26 -4 -50 -9 -64h-298c4 -90 46 -153 124 -153c51 0 85 20 101 75l79 -21c-15 -74 -63 -99 -107 -114c-54 -19 -69 -53 -69 -91c0 -36 18 -58 52 -58
c33 0 55 17 70 42l29 -44c-20 -34 -56 -59 -115 -59c-68 0 -116 35 -116 105zM131 277h216c1 7 1 13 1 19c0 59 -38 106 -100 106c-66 0 -108 -45 -117 -125z" />
    <glyph glyph-name="Ecaron" unicode="&#x11a;" horiz-adv-x="496" 
d="M446 80v-80h-363v589h363v-80h-271v-174h240v-80h-240v-175h271zM290 649h-56l-124 129h96l32 -33c19 -20 23 -34 23 -34h3s4 14 23 34l31 33h97z" />
    <glyph glyph-name="ecaron" unicode="&#x11b;" horiz-adv-x="478" 
d="M253 59c51 0 85 20 101 75l79 -21c-19 -93 -97 -125 -185 -125c-123 0 -206 85 -206 239c0 155 82 246 211 246c119 0 183 -82 183 -197c0 -26 -4 -50 -9 -64h-298c4 -90 46 -153 124 -153zM131 277h216c1 7 1 13 1 19c0 59 -38 106 -100 106c-66 0 -108 -45 -117 -125z
M278 528h-53l-125 147h92l34 -43c19 -23 23 -38 23 -38h5s4 15 23 38l34 43h92z" />
    <glyph glyph-name="Gcircumflex" unicode="&#x11c;" horiz-adv-x="610" 
d="M313 304h234v-304h-73l-12 76c-24 -58 -94 -88 -162 -88c-151 0 -256 105 -256 304c0 197 111 309 275 309c112 0 184 -47 221 -142l-86 -42c-24 71 -76 105 -140 105c-103 0 -174 -81 -174 -230c0 -133 54 -228 169 -228c79 0 147 37 147 116v44h-143v80zM291 782h56
l125 -129h-97l-31 33c-19 20 -23 34 -23 34h-3s-4 -14 -23 -34l-32 -33h-96z" />
    <glyph glyph-name="gcircumflex" unicode="&#x11d;" horiz-adv-x="485" 
d="M229 473c55 0 100 -12 134 -37c22 12 29 36 35 70l78 -27c-7 -44 -39 -74 -77 -83c14 -24 21 -53 21 -87c0 -107 -86 -160 -190 -160c-23 0 -47 3 -60 8c-23 -12 -31 -28 -31 -48c0 -26 17 -38 49 -38h113c105 0 161 -46 161 -129c0 -121 -130 -153 -251 -153
c-102 0 -202 26 -202 121c0 60 43 100 119 106c-42 5 -64 35 -64 72s19 68 68 81c-56 25 -90 72 -90 140c0 104 76 164 187 164zM94 -80c0 -49 53 -67 126 -67c94 0 155 18 155 76c0 35 -19 61 -78 61h-100c-66 0 -103 -22 -103 -70zM132 310c0 -58 35 -97 97 -97
c61 0 101 32 101 97s-40 98 -101 97c-61 0 -97 -35 -97 -97zM216 677h53l125 -147h-92l-34 42c-19 23 -23 38 -23 38h-5s-4 -15 -23 -38l-34 -42h-92z" />
    <glyph glyph-name="Gbreve" unicode="&#x11e;" horiz-adv-x="610" 
d="M313 304h234v-304h-73l-12 76c-24 -58 -94 -88 -162 -88c-151 0 -256 105 -256 304c0 197 111 309 275 309c112 0 184 -47 221 -142l-86 -42c-24 71 -76 105 -140 105c-103 0 -174 -81 -174 -230c0 -133 54 -228 169 -228c79 0 147 37 147 116v44h-143v80zM320 650
c-87 0 -135 51 -135 131h71c3 -41 18 -65 64 -65s62 24 65 65h71c0 -80 -48 -131 -136 -131z" />
    <glyph glyph-name="gbreve" unicode="&#x11f;" horiz-adv-x="485" 
d="M229 473c55 0 100 -12 134 -37c22 12 29 36 35 70l78 -27c-7 -44 -39 -74 -77 -83c14 -24 21 -53 21 -87c0 -107 -86 -160 -190 -160c-23 0 -47 3 -60 8c-23 -12 -31 -28 -31 -48c0 -26 17 -38 49 -38h113c105 0 161 -46 161 -129c0 -121 -130 -153 -251 -153
c-102 0 -202 26 -202 121c0 60 43 100 119 106c-42 5 -64 35 -64 72s19 68 68 81c-56 25 -90 72 -90 140c0 104 76 164 187 164zM94 -80c0 -49 53 -67 126 -67c94 0 155 18 155 76c0 35 -19 61 -78 61h-100c-66 0 -103 -22 -103 -70zM132 310c0 -58 35 -97 97 -97
c61 0 101 32 101 97s-40 98 -101 97c-61 0 -97 -35 -97 -97zM236 526c-88 0 -136 57 -136 141h71c3 -44 14 -74 65 -74c50 0 62 30 65 74h71c0 -84 -48 -141 -136 -141z" />
    <glyph glyph-name="Gdotaccent" unicode="&#x120;" horiz-adv-x="610" 
d="M313 304h234v-304h-73l-12 76c-24 -58 -94 -88 -162 -88c-151 0 -256 105 -256 304c0 197 111 309 275 309c112 0 184 -47 221 -142l-86 -42c-24 71 -76 105 -140 105c-103 0 -174 -81 -174 -230c0 -133 54 -228 169 -228c79 0 147 37 147 116v44h-143v80zM259 726
c0 36 27 60 60 60c35 0 62 -24 62 -60c0 -34 -27 -60 -62 -60c-33 0 -60 26 -60 60z" />
    <glyph glyph-name="gdotaccent" unicode="&#x121;" horiz-adv-x="485" 
d="M229 473c55 0 100 -12 134 -37c22 12 29 36 35 70l78 -27c-7 -44 -39 -74 -77 -83c14 -24 21 -53 21 -87c0 -107 -86 -160 -190 -160c-23 0 -47 3 -60 8c-23 -12 -31 -28 -31 -48c0 -26 17 -38 49 -38h113c105 0 161 -46 161 -129c0 -121 -130 -153 -251 -153
c-102 0 -202 26 -202 121c0 60 43 100 119 106c-42 5 -64 35 -64 72s19 68 68 81c-56 25 -90 72 -90 140c0 104 76 164 187 164zM94 -80c0 -49 53 -67 126 -67c94 0 155 18 155 76c0 35 -19 61 -78 61h-100c-66 0 -103 -22 -103 -70zM132 310c0 -58 35 -97 97 -97
c61 0 101 32 101 97s-40 98 -101 97c-61 0 -97 -35 -97 -97zM171 595c0 35 27 60 60 60c35 0 62 -25 62 -60c0 -34 -27 -60 -62 -60c-33 0 -60 26 -60 60z" />
    <glyph glyph-name="Gcommaaccent" unicode="&#x122;" horiz-adv-x="610" 
d="M313 304h234v-304h-73l-12 76c-24 -58 -94 -88 -162 -88c-151 0 -256 105 -256 304c0 197 111 309 275 309c112 0 184 -47 221 -142l-86 -42c-24 71 -76 105 -140 105c-103 0 -174 -81 -174 -230c0 -133 54 -228 169 -228c79 0 147 37 147 116v44h-143v80zM390 -142
c0 -75 -43 -105 -121 -105v37c39 2 60 11 60 43c-36 -6 -61 14 -61 47c0 34 23 53 57 53c35 0 65 -28 65 -75z" />
    <glyph glyph-name="gcommaaccent" unicode="&#x123;" horiz-adv-x="485" 
d="M229 473c55 0 100 -12 134 -37c22 12 29 36 35 70l78 -27c-7 -44 -39 -74 -77 -83c14 -24 21 -53 21 -87c0 -107 -86 -160 -190 -160c-23 0 -47 3 -60 8c-23 -12 -31 -28 -31 -48c0 -26 17 -38 49 -38h113c105 0 161 -46 161 -129c0 -121 -130 -153 -251 -153
c-102 0 -202 26 -202 121c0 60 43 100 119 106c-42 5 -64 35 -64 72s19 68 68 81c-56 25 -90 72 -90 140c0 104 76 164 187 164zM94 -80c0 -49 53 -67 126 -67c94 0 155 18 155 76c0 35 -19 61 -78 61h-100c-66 0 -103 -22 -103 -70zM132 310c0 -58 35 -97 97 -97
c61 0 101 32 101 97s-40 98 -101 97c-61 0 -97 -35 -97 -97zM166 606c0 75 43 105 121 105v-37c-39 -2 -60 -11 -60 -43c36 6 61 -14 61 -47c0 -34 -24 -53 -57 -53c-35 0 -65 28 -65 75z" />
    <glyph glyph-name="Hcircumflex" unicode="&#x124;" horiz-adv-x="631" 
d="M175 0h-92v589h92v-250h281v250h92v-589h-92v259h-281v-259zM287 782h56l125 -129h-97l-31 33c-19 20 -23 34 -23 34h-3s-4 -14 -23 -34l-32 -33h-96z" />
    <glyph glyph-name="hcircumflex" unicode="&#x125;" horiz-adv-x="509" 
d="M162 668v-294c22 66 70 99 140 99c76 0 140 -42 140 -143v-330h-90v304c0 56 -26 91 -81 91c-56 0 -109 -29 -109 -130v-265h-90v668h90zM91 828h56l125 -129h-97l-31 33c-19 20 -23 34 -23 34h-3s-4 -14 -23 -34l-32 -33h-96z" />
    <glyph glyph-name="Hbar" unicode="&#x126;" horiz-adv-x="646" 
d="M13 417v77h76v95h92v-95h280v95h93v-95h79v-77h-79v-417h-93v257h-280v-257h-92v417h-76zM181 335h280v82h-280v-82z" />
    <glyph glyph-name="hbar" unicode="&#x127;" horiz-adv-x="509" 
d="M162 668v-74h144v-65h-144v-155c22 66 70 99 140 99c76 0 140 -42 140 -143v-330h-90v304c0 56 -26 91 -81 91c-56 0 -109 -29 -109 -130v-265h-90v529h-69v65h69v74h90z" />
    <glyph glyph-name="Itilde" unicode="&#x128;" horiz-adv-x="258" 
d="M83 589h92v-589h-92v589zM200 653c-31 0 -47 11 -72 24c-27 15 -40 25 -60 25c-21 0 -34 -13 -30 -47h-55c-25 64 9 126 74 126c35 0 54 -11 79 -26c27 -17 38 -24 55 -24c19 0 32 13 29 49h57c24 -70 -6 -127 -77 -127z" />
    <glyph glyph-name="itilde" unicode="&#x129;" horiz-adv-x="234" 
d="M188 529c-31 0 -47 10 -72 23c-27 16 -40 25 -60 25c-21 0 -34 -13 -30 -47h-55c-25 65 9 124 74 124c35 0 54 -12 79 -27c27 -16 38 -23 55 -23c19 0 32 12 29 49h57c24 -70 -6 -124 -77 -124zM72 462h90v-462h-90v462z" />
    <glyph glyph-name="imacron" unicode="&#x12b;" horiz-adv-x="234" 
d="M230 558h-227v73h227v-73zM72 462h90v-462h-90v462z" />
    <glyph glyph-name="Ibreve" unicode="&#x12c;" horiz-adv-x="258" 
d="M83 589h92v-589h-92v589zM129 650c-87 0 -135 51 -135 131h71c3 -41 18 -65 64 -65s62 24 65 65h71c0 -80 -48 -131 -136 -131z" />
    <glyph glyph-name="Iogonek" unicode="&#x12e;" horiz-adv-x="258" 
d="M-15 -106c0 69 49 108 98 127v568h92v-589c-49 0 -111 -30 -111 -93c0 -35 19 -57 53 -57c33 0 55 17 70 42l29 -44c-21 -34 -56 -59 -115 -59c-68 0 -116 35 -116 105z" />
    <glyph glyph-name="iogonek" unicode="&#x12f;" horiz-adv-x="234" 
d="M-28 -106c0 70 50 109 100 128v440h90v-462c-49 0 -111 -29 -111 -93c0 -35 19 -57 53 -57c33 0 55 17 70 42l29 -44c-21 -34 -56 -59 -115 -59c-68 0 -116 35 -116 105zM56 610c0 36 28 60 60 60c35 0 63 -24 63 -60c0 -34 -28 -60 -63 -60c-32 0 -60 26 -60 60z" />
    <glyph glyph-name="Idotaccent" unicode="&#x130;" horiz-adv-x="258" 
d="M83 589h92v-589h-92v589zM68 713c0 36 27 60 60 60c35 0 62 -24 62 -60c0 -34 -27 -60 -62 -60c-33 0 -60 26 -60 60z" />
    <glyph glyph-name="dotlessi" unicode="&#x131;" horiz-adv-x="234" 
d="M72 462h90v-462h-90v462z" />
    <glyph glyph-name="IJ" unicode="&#x132;" horiz-adv-x="658" 
d="M83 589h92v-589h-92v589zM502 589h93v-418c0 -136 -88 -183 -186 -183c-99 0 -155 49 -187 115l72 54c31 -67 60 -92 116 -92c75 0 92 50 92 127v397z" />
    <glyph glyph-name="ij" unicode="&#x133;" horiz-adv-x="469" 
d="M56 610c0 36 28 60 60 60c35 0 63 -24 63 -60c0 -34 -28 -60 -63 -60c-32 0 -60 26 -60 60zM72 462h90v-462h-90v462zM306 462h90v-469c0 -152 -83 -201 -220 -196v76c90 -8 130 26 130 116v473zM291 610c0 36 27 60 60 60c34 0 62 -24 62 -60c0 -34 -28 -60 -62 -60
c-33 0 -60 26 -60 60z" />
    <glyph glyph-name="Jcircumflex" unicode="&#x134;" horiz-adv-x="437" 
d="M280 589h93v-418c0 -136 -88 -183 -186 -183c-99 0 -155 49 -187 115l72 54c31 -67 60 -92 116 -92c75 0 92 50 92 127v397zM297 782h56l125 -129h-97l-31 33c-19 20 -23 34 -23 34h-3s-4 -14 -23 -34l-32 -33h-96z" />
    <glyph glyph-name="jcircumflex" unicode="&#x135;" horiz-adv-x="234" 
d="M72 462h90v-469c0 -152 -83 -201 -220 -196v76c90 -8 130 26 130 116v473zM91 675h53l125 -147h-92l-34 42c-19 23 -23 38 -23 38h-5s-4 -15 -23 -38l-34 -42h-92z" />
    <glyph glyph-name="Kcommaaccent" unicode="&#x136;" horiz-adv-x="537" 
d="M519 0h-113l-185 259h-46v-259h-92v589h92v-250h49l172 250h108l-205 -286zM330 -142c0 -75 -43 -105 -121 -105v37c39 2 60 11 60 43c-36 -6 -61 14 -61 47c0 34 23 53 57 53c35 0 65 -28 65 -75z" />
    <glyph glyph-name="kcommaaccent" unicode="&#x137;" horiz-adv-x="468" 
d="M261 247l201 -247h-111l-161 207h-28v-207h-90v668h90v-391h23l153 185h109zM314 -142c0 -75 -43 -105 -121 -105v37c39 2 60 11 60 43c-36 -6 -61 14 -61 47c0 34 23 53 57 53c35 0 65 -28 65 -75z" />
    <glyph glyph-name="kgreenlandic" unicode="&#x138;" horiz-adv-x="468" 
d="M261 247l201 -247h-111l-161 207h-28v-207h-90v462h89v-185h24l153 185h109z" />
    <glyph glyph-name="Lacute" unicode="&#x139;" horiz-adv-x="461" 
d="M83 589h92v-509h264v-80h-356v589zM175 653h-82l63 123h120z" />
    <glyph glyph-name="lacute" unicode="&#x13a;" horiz-adv-x="261" 
d="M229 75l-1 -75c-24 -6 -40 -8 -56 -8c-58 0 -106 31 -106 100v576h90v-557c0 -29 17 -41 41 -41c13 0 22 2 32 5zM151 718h-82l63 123h120z" />
    <glyph glyph-name="Lcommaaccent" unicode="&#x13b;" horiz-adv-x="461" 
d="M83 589h92v-509h264v-80h-356v589zM332 -142c0 -75 -43 -105 -121 -105v37c39 2 60 11 60 43c-36 -6 -61 14 -61 47c0 34 23 53 57 53c35 0 65 -28 65 -75z" />
    <glyph glyph-name="lcommaaccent" unicode="&#x13c;" horiz-adv-x="261" 
d="M229 75l-1 -75c-24 -6 -40 -8 -56 -8c-58 0 -106 31 -106 100v576h90v-557c0 -29 17 -41 41 -41c13 0 22 2 32 5zM212 -142c0 -75 -43 -105 -121 -105v37c39 2 60 11 60 43c-36 -6 -61 14 -61 47c0 34 23 53 57 53c35 0 65 -28 65 -75z" />
    <glyph glyph-name="Lcaron" unicode="&#x13d;" horiz-adv-x="461" 
d="M83 589h92v-509h264v-80h-356v589zM413 613l-52 -180h-66l16 180h102z" />
    <glyph glyph-name="lcaron" unicode="&#x13e;" horiz-adv-x="261" 
d="M335 674l-53 -176h-65l16 176h102zM229 75l-1 -75c-24 -6 -40 -8 -56 -8c-58 0 -106 31 -106 100v576h90v-557c0 -29 17 -41 41 -41c13 0 22 2 32 5z" />
    <glyph glyph-name="Ldot" unicode="&#x13f;" horiz-adv-x="461" 
d="M83 589h92v-509h264v-80h-356v589zM262 316c0 39 30 68 68 68s68 -29 68 -68c0 -38 -30 -68 -68 -68s-68 30 -68 68z" />
    <glyph glyph-name="ldot" unicode="&#x140;" horiz-adv-x="323" 
d="M229 75l-1 -75c-24 -6 -40 -8 -56 -8c-58 0 -106 31 -106 100v576h90v-557c0 -29 17 -41 41 -41c13 0 22 2 32 5zM208 319c0 39 30 68 68 68s68 -29 68 -68c0 -38 -30 -68 -68 -68s-68 30 -68 68z" />
    <glyph glyph-name="Lslash" unicode="&#x141;" horiz-adv-x="468" 
d="M30 217v71l60 22v279h92v-245l143 53v-74l-143 -52v-191h264v-80h-356v238z" />
    <glyph glyph-name="lslash" unicode="&#x142;" horiz-adv-x="271" 
d="M16 269v75l59 30v294h90v-247l74 39v-78l-74 -38v-233c0 -29 17 -41 41 -41c13 0 22 2 32 5l-1 -75c-24 -6 -40 -8 -56 -8c-58 0 -106 31 -106 100v207z" />
    <glyph glyph-name="Nacute" unicode="&#x143;" horiz-adv-x="650" 
d="M177 589l232 -337c35 -52 67 -112 67 -112h4s-5 63 -5 137v312h92v-589h-91l-235 336c-37 53 -68 114 -68 114h-4s6 -63 6 -139v-311h-92v589h94zM363 653h-82l63 123h120z" />
    <glyph glyph-name="nacute" unicode="&#x144;" horiz-adv-x="509" 
d="M143 462l11 -89c25 69 78 100 148 100c76 0 140 -42 140 -143v-330h-90v303c0 57 -26 92 -81 92c-56 0 -109 -30 -109 -130v-265h-90v462h71zM294 529h-79l74 146h121z" />
    <glyph glyph-name="Ncommaaccent" unicode="&#x145;" horiz-adv-x="650" 
d="M177 589l232 -337c35 -52 67 -112 67 -112h4s-5 63 -5 137v312h92v-589h-91l-235 336c-37 53 -68 114 -68 114h-4s6 -63 6 -139v-311h-92v589h94zM396 -142c0 -75 -43 -105 -121 -105v37c39 2 60 11 60 43c-36 -6 -61 14 -61 47c0 34 23 53 57 53c35 0 65 -28 65 -75z
" />
    <glyph glyph-name="ncommaaccent" unicode="&#x146;" horiz-adv-x="509" 
d="M143 462l11 -89c25 69 78 100 148 100c76 0 140 -42 140 -143v-330h-90v303c0 57 -26 92 -81 92c-56 0 -109 -30 -109 -130v-265h-90v462h71zM323 -142c0 -75 -43 -105 -121 -105v37c39 2 60 11 60 43c-36 -6 -61 14 -61 47c0 34 23 53 57 53c35 0 65 -28 65 -75z" />
    <glyph glyph-name="Ncaron" unicode="&#x147;" horiz-adv-x="650" 
d="M177 589l232 -337c35 -52 67 -112 67 -112h4s-5 63 -5 137v312h92v-589h-91l-235 336c-37 53 -68 114 -68 114h-4s6 -63 6 -139v-311h-92v589h94zM353 649h-56l-124 129h96l32 -33c19 -20 23 -34 23 -34h3s4 14 23 34l31 33h97z" />
    <glyph glyph-name="ncaron" unicode="&#x148;" horiz-adv-x="509" 
d="M143 462l11 -89c25 69 78 100 148 100c76 0 140 -42 140 -143v-330h-90v303c0 57 -26 92 -81 92c-56 0 -109 -30 -109 -130v-265h-90v462h71zM287 528h-53l-125 147h92l34 -43c19 -23 23 -38 23 -38h5s4 15 23 38l34 43h92z" />
    <glyph glyph-name="Eng" unicode="&#x14a;" horiz-adv-x="650" 
d="M567 589v-617c0 -138 -89 -183 -191 -183c-66 0 -116 27 -150 62l54 70c25 -32 63 -54 101 -54c76 0 94 49 94 126v7l-234 336c-37 53 -68 114 -68 114h-4s6 -63 6 -139v-311h-92v589h94l232 -337c35 -52 67 -112 67 -112h4s-5 63 -5 137v312h92z" />
    <glyph glyph-name="eng" unicode="&#x14b;" horiz-adv-x="509" 
d="M162 0h-90v462h71l11 -89c25 69 78 100 148 100c76 0 140 -42 140 -143v-337c0 -152 -83 -201 -220 -196v76c90 -8 130 26 130 115v315c0 57 -26 92 -81 92c-56 0 -109 -30 -109 -130v-265z" />
    <glyph glyph-name="Omacron" unicode="&#x14c;" horiz-adv-x="619" 
d="M310 -12c-162 0 -266 110 -266 306c0 197 104 307 266 307s265 -110 265 -307c0 -196 -103 -306 -265 -306zM310 520c-111 0 -169 -86 -169 -226c0 -141 58 -226 169 -226s168 85 168 226c0 140 -58 226 -168 226zM442 674h-264v71h264v-71z" />
    <glyph glyph-name="omacron" unicode="&#x14d;" horiz-adv-x="505" 
d="M252 -12c-127 0 -210 88 -210 246c0 157 83 239 210 239c128 0 211 -82 211 -239c0 -158 -83 -246 -211 -246zM252 400c-79 0 -121 -54 -121 -167c0 -116 41 -174 121 -174c81 0 122 58 122 174c0 113 -42 167 -122 167zM384 558h-262v73h262v-73z" />
    <glyph glyph-name="Obreve" unicode="&#x14e;" horiz-adv-x="619" 
d="M310 -12c-162 0 -266 110 -266 306c0 197 104 307 266 307s265 -110 265 -307c0 -196 -103 -306 -265 -306zM310 520c-111 0 -169 -86 -169 -226c0 -141 58 -226 169 -226s168 85 168 226c0 140 -58 226 -168 226zM310 650c-87 0 -135 51 -135 131h71
c3 -41 18 -65 64 -65s62 24 65 65h71c0 -80 -48 -131 -136 -131z" />
    <glyph glyph-name="obreve" unicode="&#x14f;" horiz-adv-x="505" 
d="M252 -12c-127 0 -210 88 -210 246c0 157 83 239 210 239c128 0 211 -82 211 -239c0 -158 -83 -246 -211 -246zM252 400c-79 0 -121 -54 -121 -167c0 -116 41 -174 121 -174c81 0 122 58 122 174c0 113 -42 167 -122 167zM253 526c-88 0 -136 57 -136 141h71
c3 -44 14 -74 65 -74c50 0 62 30 65 74h71c0 -84 -48 -141 -136 -141z" />
    <glyph glyph-name="Ohungarumlaut" unicode="&#x150;" horiz-adv-x="619" 
d="M310 -12c-162 0 -266 110 -266 306c0 197 104 307 266 307s265 -110 265 -307c0 -196 -103 -306 -265 -306zM310 520c-111 0 -169 -86 -169 -226c0 -141 58 -226 169 -226s168 85 168 226c0 140 -58 226 -168 226zM265 653h-67l62 123h109zM415 653h-71l74 123h113z" />
    <glyph glyph-name="ohungarumlaut" unicode="&#x151;" horiz-adv-x="505" 
d="M252 -12c-127 0 -210 88 -210 246c0 157 83 239 210 239c128 0 211 -82 211 -239c0 -158 -83 -246 -211 -246zM252 400c-79 0 -121 -54 -121 -167c0 -116 41 -174 121 -174c81 0 122 58 122 174c0 113 -42 167 -122 167zM207 529h-67l62 146h109zM357 529h-71l74 146h113
z" />
    <glyph glyph-name="Racute" unicode="&#x154;" horiz-adv-x="550" 
d="M515 0h-101c-14 16 -21 32 -26 55l-24 102c-17 69 -52 82 -110 82h-79v-239h-92v589h204c135 0 201 -57 201 -168c0 -93 -62 -142 -136 -146v-3c56 -7 86 -31 102 -94l30 -116c7 -24 16 -44 31 -62zM175 512v-196h108c74 0 109 31 109 98c0 61 -35 98 -108 98h-109z
M299 653h-82l63 123h120z" />
    <glyph glyph-name="racute" unicode="&#x155;" horiz-adv-x="356" 
d="M338 472l-7 -101c-11 2 -26 4 -41 4c-65 0 -128 -51 -128 -141v-234h-90v462h76l11 -125c18 83 76 140 179 135zM237 529h-79l74 146h121z" />
    <glyph glyph-name="Rcommaaccent" unicode="&#x156;" horiz-adv-x="550" 
d="M515 0h-101c-14 16 -21 32 -26 55l-24 102c-17 69 -52 82 -110 82h-79v-239h-92v589h204c135 0 201 -57 201 -168c0 -93 -62 -142 -136 -146v-3c56 -7 86 -31 102 -94l30 -116c7 -24 16 -44 31 -62zM175 512v-196h108c74 0 109 31 109 98c0 61 -35 98 -108 98h-109z
M332 -142c0 -75 -43 -105 -121 -105v37c39 2 60 11 60 43c-36 -6 -61 14 -61 47c0 34 23 53 57 53c35 0 65 -28 65 -75z" />
    <glyph glyph-name="rcommaaccent" unicode="&#x157;" horiz-adv-x="356" 
d="M338 472l-7 -101c-11 2 -26 4 -41 4c-65 0 -128 -51 -128 -141v-234h-90v462h76l11 -125c18 83 76 140 179 135zM178 -142c0 -75 -43 -105 -121 -105v37c39 2 60 11 60 43c-36 -6 -61 14 -61 47c0 34 23 53 57 53c35 0 65 -28 65 -75z" />
    <glyph glyph-name="Rcaron" unicode="&#x158;" horiz-adv-x="550" 
d="M515 0h-101c-14 16 -21 32 -26 55l-24 102c-17 69 -52 82 -110 82h-79v-239h-92v589h204c135 0 201 -57 201 -168c0 -93 -62 -142 -136 -146v-3c56 -7 86 -31 102 -94l30 -116c7 -24 16 -44 31 -62zM175 512v-196h108c74 0 109 31 109 98c0 61 -35 98 -108 98h-109z
M289 649h-56l-124 129h96l32 -33c19 -20 23 -34 23 -34h3s4 14 23 34l31 33h97z" />
    <glyph glyph-name="rcaron" unicode="&#x159;" horiz-adv-x="356" 
d="M338 472l-7 -101c-11 2 -26 4 -41 4c-65 0 -128 -51 -128 -141v-234h-90v462h76l11 -125c18 83 76 140 179 135zM222 528h-53l-125 147h92l34 -43c19 -23 23 -38 23 -38h5s4 15 23 38l34 43h92z" />
    <glyph glyph-name="Sacute" unicode="&#x15a;" horiz-adv-x="478" 
d="M28 141l86 23c12 -72 59 -105 123 -105c63 0 106 29 106 84c0 52 -26 77 -122 113c-92 32 -172 70 -172 179c0 123 96 167 188 167c108 0 190 -42 200 -155l-91 -18c-6 65 -49 99 -108 99c-55 0 -95 -30 -95 -85c0 -59 47 -79 129 -109c90 -33 165 -69 165 -179
c0 -116 -92 -167 -205 -167c-116 0 -185 46 -204 153zM282 653h-82l63 123h120z" />
    <glyph glyph-name="sacute" unicode="&#x15b;" horiz-adv-x="419" 
d="M27 104l80 24c7 -53 45 -76 100 -76c53 0 92 20 92 62c0 38 -17 59 -72 73l-68 16c-84 20 -116 63 -116 131c0 104 86 139 174 139c97 0 157 -35 166 -125l-88 -10c-3 46 -31 67 -84 67c-51 0 -81 -23 -81 -62c0 -33 13 -54 63 -65l64 -15c82 -20 128 -58 128 -139
c0 -99 -78 -136 -179 -136c-105 0 -166 32 -179 116zM256 529h-79l74 146h121z" />
    <glyph glyph-name="Scircumflex" unicode="&#x15c;" horiz-adv-x="478" 
d="M28 141l86 23c12 -72 59 -105 123 -105c63 0 106 29 106 84c0 52 -26 77 -122 113c-92 32 -172 70 -172 179c0 123 96 167 188 167c108 0 190 -42 200 -155l-91 -18c-6 65 -49 99 -108 99c-55 0 -95 -30 -95 -85c0 -59 47 -79 129 -109c90 -33 165 -69 165 -179
c0 -116 -92 -167 -205 -167c-116 0 -185 46 -204 153zM216 782h56l125 -129h-97l-31 33c-19 20 -23 34 -23 34h-3s-4 -14 -23 -34l-32 -33h-96z" />
    <glyph glyph-name="scircumflex" unicode="&#x15d;" horiz-adv-x="419" 
d="M27 104l80 24c7 -53 45 -76 100 -76c53 0 92 20 92 62c0 38 -17 59 -72 73l-68 16c-84 20 -116 63 -116 131c0 104 86 139 174 139c97 0 157 -35 166 -125l-88 -10c-3 46 -31 67 -84 67c-51 0 -81 -23 -81 -62c0 -33 13 -54 63 -65l64 -15c82 -20 128 -58 128 -139
c0 -99 -78 -136 -179 -136c-105 0 -166 32 -179 116zM197 675h53l125 -147h-92l-34 42c-19 23 -23 38 -23 38h-5s-4 -15 -23 -38l-34 -42h-92z" />
    <glyph glyph-name="Scedilla" unicode="&#x15e;" horiz-adv-x="478" 
d="M341 -124c0 -59 -47 -87 -105 -87c-40 0 -72 14 -90 38l24 51c17 -24 38 -36 63 -36c22 0 36 11 36 34c0 25 -20 41 -66 42l5 71c-102 6 -163 52 -180 152l86 23c12 -72 59 -105 123 -105c63 0 106 29 106 84c0 52 -26 77 -122 113c-92 32 -172 70 -172 179
c0 123 96 167 188 167c108 0 190 -42 200 -155l-91 -18c-6 65 -49 99 -108 99c-55 0 -95 -30 -95 -85c0 -59 47 -79 129 -109c90 -33 165 -69 165 -179c0 -108 -80 -159 -182 -166l-2 -30c62 -5 88 -35 88 -83z" />
    <glyph glyph-name="scedilla" unicode="&#x15f;" horiz-adv-x="419" 
d="M310 -124c0 -59 -47 -87 -105 -87c-40 0 -72 14 -90 38l24 51c17 -24 38 -36 63 -36c22 0 36 11 36 34c0 25 -20 41 -66 42l5 71c-87 6 -138 39 -150 115l80 24c7 -53 45 -76 100 -76c53 0 92 20 92 62c0 38 -17 59 -72 73l-68 16c-84 20 -116 63 -116 131
c0 104 86 139 174 139c97 0 157 -35 166 -125l-88 -10c-3 46 -31 67 -84 67c-51 0 -81 -23 -81 -62c0 -33 13 -54 63 -65l64 -15c82 -20 128 -58 128 -139c0 -93 -69 -131 -161 -135l-2 -30c62 -5 88 -35 88 -83z" />
    <glyph glyph-name="Tcommaaccent" unicode="&#x162;" horiz-adv-x="456" 
d="M274 0h-93v509h-171v80h436v-80h-172v-509zM287 -142c0 -75 -43 -105 -121 -105v37c39 2 60 11 60 43c-36 -6 -61 14 -61 47c0 34 23 53 57 53c35 0 65 -28 65 -75z" />
    <glyph glyph-name="tcommaaccent" unicode="&#x163;" horiz-adv-x="337" 
d="M305 90l17 -75c-30 -18 -69 -27 -112 -27c-83 0 -133 44 -133 130v272h-67v72h67v98l91 11v-109h137v-72h-138v-254c0 -50 23 -71 61 -71c30 0 51 8 77 25zM253 -142c0 -75 -43 -105 -121 -105v37c39 2 60 11 60 43c-36 -6 -61 14 -61 47c0 34 23 53 57 53
c35 0 65 -28 65 -75z" />
    <glyph glyph-name="Tcaron" unicode="&#x164;" horiz-adv-x="456" 
d="M274 0h-93v509h-171v80h436v-80h-172v-509zM256 649h-56l-124 129h96l32 -33c19 -20 23 -34 23 -34h3s4 14 23 34l31 33h97z" />
    <glyph glyph-name="tcaron" unicode="&#x165;" horiz-adv-x="337" 
d="M305 90l17 -75c-30 -18 -69 -27 -112 -27c-83 0 -133 44 -133 130v272h-67v72h67v98l91 11v-109h137v-72h-138v-254c0 -50 23 -71 61 -71c30 0 51 8 77 25zM333 694l-52 -180h-66l16 180h102z" />
    <glyph glyph-name="Tbar" unicode="&#x166;" horiz-adv-x="456" 
d="M274 0h-93v253h-111v76h111v180h-171v80h436v-80h-172v-180h114v-76h-114v-253z" />
    <glyph glyph-name="tbar" unicode="&#x167;" horiz-adv-x="337" 
d="M10 236v69h67v85h-67v72h67v98l91 11v-109h137v-72h-138v-85h138v-69h-138v-100c0 -50 23 -71 61 -71c30 0 51 8 77 25l17 -75c-30 -18 -69 -27 -112 -27c-83 0 -133 44 -133 130v118h-67z" />
    <glyph glyph-name="Utilde" unicode="&#x168;" horiz-adv-x="582" 
d="M425 589h93v-396c0 -153 -112 -205 -227 -205c-116 0 -227 52 -227 205v396h92v-372c0 -106 49 -153 135 -153c85 0 134 47 134 151v374zM360 653c-31 0 -47 11 -72 24c-27 15 -40 25 -60 25c-21 0 -34 -13 -30 -47h-55c-25 64 9 126 74 126c35 0 54 -11 79 -26
c27 -17 38 -24 55 -24c19 0 32 13 29 49h57c24 -70 -6 -127 -77 -127z" />
    <glyph glyph-name="utilde" unicode="&#x169;" horiz-adv-x="508" 
d="M359 0l-11 84c-22 -68 -69 -96 -142 -96c-84 0 -140 43 -140 153v321h90v-307c0 -68 26 -100 83 -100c50 0 107 45 107 134v273h90v-462h-77zM321 529c-31 0 -47 10 -72 23c-27 16 -40 25 -60 25c-21 0 -34 -13 -30 -47h-55c-25 65 9 124 74 124c35 0 54 -12 79 -27
c27 -16 38 -23 55 -23c19 0 32 12 29 49h57c24 -70 -6 -124 -77 -124z" />
    <glyph glyph-name="Umacron" unicode="&#x16a;" horiz-adv-x="582" 
d="M425 589h93v-396c0 -153 -112 -205 -227 -205c-116 0 -227 52 -227 205v396h92v-372c0 -106 49 -153 135 -153c85 0 134 47 134 151v374zM423 674h-264v71h264v-71z" />
    <glyph glyph-name="umacron" unicode="&#x16b;" horiz-adv-x="508" 
d="M359 0l-11 84c-22 -68 -69 -96 -142 -96c-84 0 -140 43 -140 153v321h90v-307c0 -68 26 -100 83 -100c50 0 107 45 107 134v273h90v-462h-77zM383 558h-262v73h262v-73z" />
    <glyph glyph-name="Ubreve" unicode="&#x16c;" horiz-adv-x="582" 
d="M425 589h93v-396c0 -153 -112 -205 -227 -205c-116 0 -227 52 -227 205v396h92v-372c0 -106 49 -153 135 -153c85 0 134 47 134 151v374zM290 650c-87 0 -135 51 -135 131h71c3 -41 18 -65 64 -65s62 24 65 65h71c0 -80 -48 -131 -136 -131z" />
    <glyph glyph-name="ubreve" unicode="&#x16d;" horiz-adv-x="508" 
d="M359 0l-11 84c-22 -68 -69 -96 -142 -96c-84 0 -140 43 -140 153v321h90v-307c0 -68 26 -100 83 -100c50 0 107 45 107 134v273h90v-462h-77zM251 526c-88 0 -136 57 -136 141h71c3 -44 14 -74 65 -74c50 0 62 30 65 74h71c0 -84 -48 -141 -136 -141z" />
    <glyph glyph-name="Uring" unicode="&#x16e;" horiz-adv-x="582" 
d="M425 589h93v-396c0 -153 -112 -205 -227 -205c-116 0 -227 52 -227 205v396h92v-372c0 -106 49 -153 135 -153c85 0 134 47 134 151v374zM299 635c-66 0 -103 44 -103 100c0 52 41 97 103 97s103 -45 103 -97c0 -56 -37 -100 -103 -100zM299 790c-34 0 -55 -24 -55 -57
c0 -30 19 -53 55 -53s55 23 55 53c0 33 -21 57 -55 57z" />
    <glyph glyph-name="uring" unicode="&#x16f;" horiz-adv-x="508" 
d="M359 0l-11 84c-22 -68 -69 -96 -142 -96c-84 0 -140 43 -140 153v321h90v-307c0 -68 26 -100 83 -100c50 0 107 45 107 134v273h90v-462h-77zM252 520c-66 0 -103 44 -103 100c0 52 41 96 103 96s103 -44 103 -96c0 -56 -37 -100 -103 -100zM252 674
c-34 0 -55 -23 -55 -56c0 -31 19 -53 55 -53s55 22 55 53c0 33 -21 56 -55 56z" />
    <glyph glyph-name="Uhungarumlaut" unicode="&#x170;" horiz-adv-x="582" 
d="M425 589h93v-396c0 -153 -112 -205 -227 -205c-116 0 -227 52 -227 205v396h92v-372c0 -106 49 -153 135 -153c85 0 134 47 134 151v374zM245 653h-67l62 123h109zM395 653h-71l74 123h113z" />
    <glyph glyph-name="uhungarumlaut" unicode="&#x171;" horiz-adv-x="508" 
d="M359 0l-11 84c-22 -68 -69 -96 -142 -96c-84 0 -140 43 -140 153v321h90v-307c0 -68 26 -100 83 -100c50 0 107 45 107 134v273h90v-462h-77zM205 529h-67l62 146h109zM355 529h-71l74 146h113z" />
    <glyph glyph-name="Uogonek" unicode="&#x172;" horiz-adv-x="582" 
d="M186 -106c0 44 20 76 47 99c-92 15 -169 72 -169 200v396h92v-372c0 -106 49 -153 135 -153c85 0 134 47 134 151v374h93v-396c0 -138 -91 -194 -194 -203c-32 -14 -58 -41 -58 -83c0 -35 18 -57 52 -57c33 0 55 17 70 42l29 -44c-20 -34 -56 -59 -115 -59
c-68 0 -116 35 -116 105z" />
    <glyph glyph-name="uogonek" unicode="&#x173;" horiz-adv-x="508" 
d="M250 -110c0 64 55 107 106 128l-8 70c-21 -63 -69 -100 -142 -100c-84 0 -140 43 -140 153v321h90v-307c0 -68 26 -100 81 -100c52 0 109 49 109 138v269h90v-462c-56 -2 -107 -37 -107 -94c0 -34 15 -56 49 -56c33 0 55 17 70 42l29 -44c-21 -34 -56 -59 -115 -59
c-68 0 -112 36 -112 101z" />
    <glyph glyph-name="Wcircumflex" unicode="&#x174;" horiz-adv-x="826" 
d="M470 589l92 -369c23 -92 32 -159 32 -159h4s8 68 30 158l93 370h93l-153 -589h-131l-90 347c-24 91 -25 158 -25 158h-4s-4 -66 -27 -158l-89 -347h-131l-152 589h98l92 -367c22 -91 31 -161 31 -161h4s7 69 31 160l95 368h107zM385 782h56l125 -129h-97l-31 33
c-19 20 -23 34 -23 34h-3s-4 -14 -23 -34l-32 -33h-96z" />
    <glyph glyph-name="wcircumflex" unicode="&#x175;" horiz-adv-x="672" 
d="M383 462l65 -240c26 -93 31 -157 31 -157h4s3 63 26 157l62 240h91l-126 -462h-108l-61 219c-25 88 -30 146 -30 146h-4s-5 -57 -28 -146l-58 -219h-108l-129 462h93l63 -240c25 -93 31 -157 31 -157h4s3 66 28 158l64 239h90zM309 675h53l125 -147h-92l-34 42
c-19 23 -23 38 -23 38h-5s-4 -15 -23 -38l-34 -42h-92z" />
    <glyph glyph-name="Ycircumflex" unicode="&#x176;" horiz-adv-x="484" 
d="M115 589l92 -187c34 -67 41 -100 41 -100h4s6 33 38 100l87 187h97l-180 -366v-223h-92v223l-192 366h105zM214 782h56l125 -129h-97l-31 33c-19 20 -23 34 -23 34h-3s-4 -14 -23 -34l-32 -33h-96z" />
    <glyph glyph-name="ycircumflex" unicode="&#x177;" horiz-adv-x="440" 
d="M107 462l79 -254c28 -90 36 -146 36 -146h4s8 55 35 146l77 254h94l-170 -500c-47 -136 -106 -170 -188 -170c-22 0 -47 4 -67 11l8 77c20 -10 38 -14 60 -14c49 0 77 26 104 107l-171 489h99zM199 675h53l125 -147h-92l-34 42c-19 23 -23 38 -23 38h-5s-4 -15 -23 -38
l-34 -42h-92z" />
    <glyph glyph-name="Zacute" unicode="&#x179;" horiz-adv-x="475" 
d="M448 527l-252 -373c-33 -49 -57 -73 -57 -73v-4s25 3 86 3h228v-80h-431v55l253 380c32 49 57 73 57 73v4s-26 -3 -86 -3h-212v80h414v-62zM275 653h-82l63 123h120z" />
    <glyph glyph-name="zacute" unicode="&#x17a;" horiz-adv-x="394" 
d="M362 402l-176 -254c-34 -49 -57 -73 -57 -73v-4s25 3 86 3h157v-74h-350v51l177 261c33 49 57 73 57 73v4s-26 -3 -86 -3h-138v76h330v-60zM233 529h-79l74 146h121z" />
    <glyph glyph-name="Zdotaccent" unicode="&#x17b;" horiz-adv-x="475" 
d="M448 527l-252 -373c-33 -49 -57 -73 -57 -73v-4s25 3 86 3h228v-80h-431v55l253 380c32 49 57 73 57 73v4s-26 -3 -86 -3h-212v80h414v-62zM176 727c0 36 27 60 60 60c35 0 62 -24 62 -60c0 -34 -27 -60 -62 -60c-33 0 -60 26 -60 60z" />
    <glyph glyph-name="zdotaccent" unicode="&#x17c;" horiz-adv-x="394" 
d="M362 402l-176 -254c-34 -49 -57 -73 -57 -73v-4s25 3 86 3h157v-74h-350v51l177 261c33 49 57 73 57 73v4s-26 -3 -86 -3h-138v76h330v-60zM140 609c0 35 27 60 60 60c35 0 62 -25 62 -60c0 -34 -27 -60 -62 -60c-33 0 -60 26 -60 60z" />
    <glyph glyph-name="Schwa" unicode="&#x18f;" horiz-adv-x="572" 
d="M50 444c27 109 113 157 222 157c153 0 256 -109 256 -305c0 -199 -101 -308 -257 -308c-148 0 -227 93 -227 246c0 26 3 52 7 78h382c-2 117 -61 208 -169 208c-75 0 -116 -39 -137 -106zM432 239h-294c-1 -7 -2 -19 -2 -29c0 -85 48 -148 134 -148c95 0 154 74 162 177z
" />
    <glyph glyph-name="Khook" unicode="&#x198;" horiz-adv-x="537" 
d="M366 455l-67 -155l220 -300h-113l-183 253h-48v-253h-92v589h92v-252h51l60 145c32 79 75 119 144 119c47 0 78 -26 92 -63l-55 -56c-10 22 -22 32 -40 32c-24 0 -41 -13 -61 -59z" />
    <glyph glyph-name="khook" unicode="&#x199;" horiz-adv-x="468" 
d="M162 207v-207h-90v511c0 167 156 179 254 143l-17 -81c-73 35 -148 39 -148 -81v-215h24l153 185h109l-186 -215l201 -247h-111l-161 207h-28z" />
    <glyph glyph-name="Ezh" unicode="&#x1b7;" horiz-adv-x="464" 
d="M137 270l116 165c34 48 57 73 57 73v4s-26 -3 -86 -3h-199v80h400v-62l-198 -265v-5c135 -2 212 -89 212 -215c0 -141 -100 -222 -230 -222c-128 0 -209 66 -223 182l76 28c14 -96 70 -140 145 -140c89 0 144 57 144 151c0 105 -80 164 -214 163v66z" />
    <glyph glyph-name="Acaron" unicode="&#x1cd;" horiz-adv-x="569" 
d="M460 0l-57 161h-241l-56 -161h-96l215 589h121l213 -589h-99zM235 370l-47 -133h188l-45 132c-33 92 -46 155 -46 155h-4s-14 -62 -46 -154zM310 649h-56l-124 129h96l32 -33c19 -20 23 -34 23 -34h3s4 14 23 34l31 33h97z" />
    <glyph glyph-name="acaron" unicode="&#x1ce;" horiz-adv-x="479" 
d="M305 139v67c-124 3 -178 -25 -178 -83c0 -38 25 -67 74 -67c48 0 104 29 104 83zM396 331v-222c0 -35 16 -43 34 -43c11 0 19 2 26 5v-70c-13 -5 -29 -8 -49 -8c-53 0 -87 22 -95 74c-24 -58 -78 -79 -137 -79c-81 0 -138 46 -138 125c0 102 79 161 268 152v57
c0 57 -34 79 -83 79c-50 0 -80 -26 -84 -74l-86 13c7 98 93 133 178 133c90 0 166 -36 166 -142zM259 528h-53l-125 147h92l34 -43c19 -23 23 -38 23 -38h5s4 15 23 38l34 43h92z" />
    <glyph glyph-name="Icaron" unicode="&#x1cf;" horiz-adv-x="258" 
d="M83 589h92v-589h-92v589zM157 649h-56l-124 129h96l32 -33c19 -20 23 -34 23 -34h3s4 14 23 34l31 33h97z" />
    <glyph glyph-name="icaron" unicode="&#x1d0;" horiz-adv-x="234" 
d="M144 528h-53l-125 147h92l34 -43c19 -23 23 -38 23 -38h5s4 15 23 38l34 43h92zM72 462h90v-462h-90v462z" />
    <glyph glyph-name="Ocaron" unicode="&#x1d1;" horiz-adv-x="619" 
d="M310 -12c-162 0 -266 110 -266 306c0 197 104 307 266 307s265 -110 265 -307c0 -196 -103 -306 -265 -306zM310 520c-111 0 -169 -86 -169 -226c0 -141 58 -226 169 -226s168 85 168 226c0 140 -58 226 -168 226zM337 649h-56l-124 129h96l32 -33c19 -20 23 -34 23 -34
h3s4 14 23 34l31 33h97z" />
    <glyph glyph-name="ocaron" unicode="&#x1d2;" horiz-adv-x="505" 
d="M252 -12c-127 0 -210 88 -210 246c0 157 83 239 210 239c128 0 211 -82 211 -239c0 -158 -83 -246 -211 -246zM252 400c-79 0 -121 -54 -121 -167c0 -116 41 -174 121 -174c81 0 122 58 122 174c0 113 -42 167 -122 167zM279 528h-53l-125 147h92l34 -43
c19 -23 23 -38 23 -38h5s4 15 23 38l34 43h92z" />
    <glyph glyph-name="Ucaron" unicode="&#x1d3;" horiz-adv-x="582" 
d="M425 589h93v-396c0 -153 -112 -205 -227 -205c-116 0 -227 52 -227 205v396h92v-372c0 -106 49 -153 135 -153c85 0 134 47 134 151v374zM318 649h-56l-124 129h96l32 -33c19 -20 23 -34 23 -34h3s4 14 23 34l31 33h97z" />
    <glyph glyph-name="ucaron" unicode="&#x1d4;" horiz-adv-x="508" 
d="M359 0l-11 84c-22 -68 -69 -96 -142 -96c-84 0 -140 43 -140 153v321h90v-307c0 -68 26 -100 83 -100c50 0 107 45 107 134v273h90v-462h-77zM278 528h-53l-125 147h92l34 -43c19 -23 23 -38 23 -38h5s4 15 23 38l34 43h92z" />
    <glyph glyph-name="adieresismacron" unicode="&#x1df;" horiz-adv-x="479" 
d="M305 139v67c-124 3 -178 -25 -178 -83c0 -38 25 -67 74 -67c48 0 104 29 104 83zM396 331v-222c0 -35 16 -43 34 -43c11 0 19 2 26 5v-70c-13 -5 -29 -8 -49 -8c-53 0 -87 22 -95 74c-24 -58 -78 -79 -137 -79c-81 0 -138 46 -138 125c0 102 79 161 268 152v57
c0 57 -34 79 -83 79c-50 0 -80 -26 -84 -74l-86 13c7 98 93 133 178 133c90 0 166 -36 166 -142zM364 665h-262v73h262v-73zM74 564c0 35 27 60 59 60c33 0 60 -25 60 -60c0 -34 -27 -59 -60 -59c-32 0 -59 25 -59 59zM270 563c0 35 27 60 59 60c34 0 60 -25 60 -60
c0 -33 -26 -59 -60 -59c-32 0 -59 26 -59 59z" />
    <glyph glyph-name="AEmacron" unicode="&#x1e2;" horiz-adv-x="833" 
d="M783 0h-363v161h-214l-98 -161h-100l361 589h414v-80h-271v-174h240v-80h-240v-175h271v-80zM422 522l-172 -285h170v135c-1 100 6 150 6 150h-4zM673 674h-264v71h264v-71z" />
    <glyph glyph-name="aemacron" unicode="&#x1e3;" horiz-adv-x="725" 
d="M500 61c50 0 85 19 101 74l79 -22c-19 -93 -96 -125 -185 -125c-70 0 -126 27 -162 79c-28 -49 -78 -79 -153 -79c-85 0 -143 46 -143 125c0 100 76 159 254 160c3 23 8 45 15 65c-6 45 -39 63 -83 63c-51 0 -81 -26 -85 -74l-85 13c7 98 93 133 178 133
c54 0 100 -16 128 -52c35 33 84 52 141 52c120 0 181 -84 183 -200c0 -20 -2 -44 -6 -62h-298c4 -88 44 -150 121 -150zM381 273h212c1 7 1 17 1 23c0 59 -37 106 -98 106c-67 0 -106 -49 -115 -129zM197 57c49 0 89 26 107 69c-9 24 -14 53 -15 85
c-116 -1 -160 -26 -160 -87c0 -39 25 -67 68 -67zM489 558h-262v73h262v-73z" />
    <glyph glyph-name="Gstroke" unicode="&#x1e4;" horiz-adv-x="632" 
d="M313 317h234v-114h59v-63h-59v-140h-73l-12 76c-24 -58 -94 -88 -162 -88c-151 0 -256 105 -256 304c0 197 111 309 275 309c112 0 184 -47 221 -142l-86 -42c-24 71 -76 105 -140 105c-103 0 -172 -81 -172 -230c0 -133 52 -229 167 -229c69 0 126 23 146 77h-142v63
h143v46h-143v68z" />
    <glyph glyph-name="gstroke" unicode="&#x1e5;" horiz-adv-x="536" 
d="M259 473c55 0 100 -12 134 -37c22 12 29 36 35 70l78 -27c-7 -44 -39 -74 -78 -83c15 -24 22 -53 22 -87c0 -107 -86 -160 -190 -160c-24 0 -47 3 -60 8c-23 -12 -32 -28 -32 -48c0 -26 18 -38 50 -38h113c104 0 160 -46 160 -129v-4h45v-35h-50
c-25 -89 -139 -114 -245 -114c-100 0 -197 25 -202 114h-39v35h42c12 44 52 73 116 78c-42 5 -65 35 -65 72s20 68 69 81c-57 25 -90 72 -90 140c0 104 76 164 187 164zM162 310c0 -58 35 -97 97 -97c61 0 101 32 101 97s-40 98 -101 97c-62 0 -97 -35 -97 -97zM225 -9
c-57 0 -93 -16 -101 -53h281c-3 32 -24 53 -78 53h-102zM249 -151c80 0 137 14 153 54h-278c10 -39 58 -54 125 -54z" />
    <glyph glyph-name="Gcaron" unicode="&#x1e6;" horiz-adv-x="610" 
d="M313 304h234v-304h-73l-12 76c-24 -58 -94 -88 -162 -88c-151 0 -256 105 -256 304c0 197 111 309 275 309c112 0 184 -47 221 -142l-86 -42c-24 71 -76 105 -140 105c-103 0 -174 -81 -174 -230c0 -133 54 -228 169 -228c79 0 147 37 147 116v44h-143v80zM347 649h-56
l-124 129h96l32 -33c19 -20 23 -34 23 -34h3s4 14 23 34l31 33h97z" />
    <glyph glyph-name="gcaron" unicode="&#x1e7;" horiz-adv-x="485" 
d="M229 473c55 0 100 -12 134 -37c22 12 29 36 35 70l78 -27c-7 -44 -39 -74 -77 -83c14 -24 21 -53 21 -87c0 -107 -86 -160 -190 -160c-23 0 -47 3 -60 8c-23 -12 -31 -28 -31 -48c0 -26 17 -38 49 -38h113c105 0 161 -46 161 -129c0 -121 -130 -153 -251 -153
c-102 0 -202 26 -202 121c0 60 43 100 119 106c-42 5 -64 35 -64 72s19 68 68 81c-56 25 -90 72 -90 140c0 104 76 164 187 164zM94 -80c0 -49 53 -67 126 -67c94 0 155 18 155 76c0 35 -19 61 -78 61h-100c-66 0 -103 -22 -103 -70zM132 310c0 -58 35 -97 97 -97
c61 0 101 32 101 97s-40 98 -101 97c-61 0 -97 -35 -97 -97zM266 528h-53l-125 147h92l34 -43c19 -23 23 -38 23 -38h5s4 15 23 38l34 43h92z" />
    <glyph glyph-name="Kcaron" unicode="&#x1e8;" horiz-adv-x="537" 
d="M519 0h-113l-185 259h-46v-259h-92v589h92v-250h49l172 250h108l-205 -286zM287 649h-56l-124 129h96l32 -33c19 -20 23 -34 23 -34h3s4 14 23 34l31 33h97z" />
    <glyph glyph-name="kcaron" unicode="&#x1e9;" horiz-adv-x="468" 
d="M261 247l201 -247h-111l-161 207h-28v-207h-90v668h90v-391h23l153 185h109zM145 709h-56l-124 129h96l32 -33c19 -20 23 -34 23 -34h3s4 14 23 34l31 33h97z" />
    <glyph glyph-name="Oogonek" unicode="&#x1ea;" horiz-adv-x="619" 
d="M201 -106c0 44 20 77 48 100c-127 24 -205 129 -205 300c0 197 104 307 266 307s265 -110 265 -307c0 -184 -91 -292 -236 -304c-32 -14 -59 -41 -59 -83c0 -35 19 -57 53 -57c33 0 55 17 70 42l29 -44c-21 -34 -56 -59 -115 -59c-68 0 -116 35 -116 105zM310 520
c-111 0 -169 -86 -169 -226c0 -141 58 -226 169 -226s168 85 168 226c0 140 -58 226 -168 226z" />
    <glyph glyph-name="oogonek" unicode="&#x1eb;" horiz-adv-x="505" 
d="M136 -106c0 47 22 80 52 103c-90 25 -146 106 -146 237c0 157 83 239 210 239c128 0 211 -82 211 -239c0 -149 -74 -236 -190 -245c-31 -14 -57 -41 -57 -82c0 -35 18 -57 53 -57c32 0 54 17 69 42l29 -44c-20 -34 -55 -59 -115 -59c-68 0 -116 35 -116 105zM252 400
c-79 0 -121 -54 -121 -167c0 -116 41 -174 121 -174c81 0 122 58 122 174c0 113 -42 167 -122 167z" />
    <glyph glyph-name="oogonekmacron" unicode="&#x1ed;" horiz-adv-x="505" 
d="M384 558h-262v73h262v-73zM136 -106c0 47 22 80 52 103c-90 25 -146 106 -146 237c0 157 83 239 210 239c128 0 211 -82 211 -239c0 -149 -74 -236 -190 -245c-31 -14 -57 -41 -57 -82c0 -35 18 -57 53 -57c32 0 54 17 69 42l29 -44c-20 -34 -55 -59 -115 -59
c-68 0 -116 35 -116 105zM252 400c-79 0 -121 -54 -121 -167c0 -116 41 -174 121 -174c81 0 122 58 122 174c0 113 -42 167 -122 167z" />
    <glyph glyph-name="Ezhcaron" unicode="&#x1ee;" horiz-adv-x="464" 
d="M137 270l116 165c34 48 57 73 57 73v4s-26 -3 -86 -3h-199v80h400v-62l-198 -265v-5c135 -2 212 -89 212 -215c0 -141 -100 -222 -230 -222c-128 0 -209 66 -223 182l76 28c14 -96 70 -140 145 -140c89 0 144 57 144 151c0 105 -80 164 -214 163v66zM261 649h-56
l-124 129h96l32 -33c19 -20 23 -34 23 -34h3s4 14 23 34l31 33h97z" />
    <glyph glyph-name="ezhcaron" unicode="&#x1ef;" horiz-adv-x="395" 
d="M113 213l79 99c37 47 64 73 64 73v4s-33 -3 -93 -3h-132v76h330v-60l-166 -202v-3c105 -3 168 -78 168 -177c0 -112 -86 -174 -199 -174c-97 0 -162 57 -175 140l80 23c10 -62 51 -92 103 -92c58 0 105 39 105 99c0 68 -42 125 -164 139v58zM226 528h-53l-125 147h92
l34 -43c19 -23 23 -38 23 -38h5s4 15 23 38l34 43h92z" />
    <glyph glyph-name="jcaron" unicode="&#x1f0;" horiz-adv-x="234" 
d="M144 528h-53l-125 147h92l34 -43c19 -23 23 -38 23 -38h5s4 15 23 38l34 43h92zM72 462h90v-469c0 -152 -83 -201 -220 -196v76c90 -8 130 26 130 116v473z" />
    <glyph glyph-name="jcaron" unicode="&#xe10c;" horiz-adv-x="234" 
d="M144 528h-53l-125 147h92l34 -43c19 -23 23 -38 23 -38h5s4 15 23 38l34 43h92zM72 462h90v-469c0 -152 -83 -201 -220 -196v76c90 -8 130 26 130 116v473z" />
    <glyph glyph-name="Gacute" unicode="&#x1f4;" horiz-adv-x="610" 
d="M313 304h234v-304h-73l-12 76c-24 -58 -94 -88 -162 -88c-151 0 -256 105 -256 304c0 197 111 309 275 309c112 0 184 -47 221 -142l-86 -42c-24 71 -76 105 -140 105c-103 0 -174 -81 -174 -230c0 -133 54 -228 169 -228c79 0 147 37 147 116v44h-143v80zM357 653h-82
l63 123h120z" />
    <glyph glyph-name="gacute" unicode="&#x1f5;" horiz-adv-x="485" 
d="M229 473c55 0 100 -12 134 -37c22 12 29 36 35 70l78 -27c-7 -44 -39 -74 -77 -83c14 -24 21 -53 21 -87c0 -107 -86 -160 -190 -160c-23 0 -47 3 -60 8c-23 -12 -31 -28 -31 -48c0 -26 17 -38 49 -38h113c105 0 161 -46 161 -129c0 -121 -130 -153 -251 -153
c-102 0 -202 26 -202 121c0 60 43 100 119 106c-42 5 -64 35 -64 72s19 68 68 81c-56 25 -90 72 -90 140c0 104 76 164 187 164zM94 -80c0 -49 53 -67 126 -67c94 0 155 18 155 76c0 35 -19 61 -78 61h-100c-66 0 -103 -22 -103 -70zM132 310c0 -58 35 -97 97 -97
c61 0 101 32 101 97s-40 98 -101 97c-61 0 -97 -35 -97 -97zM274 529h-79l74 146h121z" />
    <glyph glyph-name="aringacute" unicode="&#x1fb;" horiz-adv-x="479" 
d="M305 139v67c-124 3 -178 -25 -178 -83c0 -38 25 -67 74 -67c48 0 104 29 104 83zM396 331v-222c0 -35 16 -43 34 -43c11 0 19 2 26 5v-70c-13 -5 -29 -8 -49 -8c-53 0 -87 22 -95 74c-24 -58 -78 -79 -137 -79c-81 0 -138 46 -138 125c0 102 79 161 268 152v57
c0 57 -34 79 -83 79c-50 0 -80 -26 -84 -74l-86 13c7 98 93 133 178 133c90 0 166 -36 166 -142zM229 508c-66 0 -103 44 -103 100c0 52 41 96 103 96s103 -44 103 -96c0 -56 -37 -100 -103 -100zM229 662c-34 0 -55 -23 -55 -56c0 -31 19 -53 55 -53s55 22 55 53
c0 33 -21 56 -55 56zM272 740h-82l63 123h120z" />
    <glyph glyph-name="AEacute" unicode="&#x1fc;" horiz-adv-x="833" 
d="M783 0h-363v161h-214l-98 -161h-100l361 589h414v-80h-271v-174h240v-80h-240v-175h271v-80zM422 522l-172 -285h170v135c-1 100 6 150 6 150h-4zM578 653h-82l63 123h120z" />
    <glyph glyph-name="aeacute" unicode="&#x1fd;" horiz-adv-x="725" 
d="M500 61c50 0 85 19 101 74l79 -22c-19 -93 -96 -125 -185 -125c-70 0 -126 27 -162 79c-28 -49 -78 -79 -153 -79c-85 0 -143 46 -143 125c0 100 76 159 254 160c3 23 8 45 15 65c-6 45 -39 63 -83 63c-51 0 -81 -26 -85 -74l-85 13c7 98 93 133 178 133
c54 0 100 -16 128 -52c35 33 84 52 141 52c120 0 181 -84 183 -200c0 -20 -2 -44 -6 -62h-298c4 -88 44 -150 121 -150zM381 273h212c1 7 1 17 1 23c0 59 -37 106 -98 106c-67 0 -106 -49 -115 -129zM197 57c49 0 89 26 107 69c-9 24 -14 53 -15 85
c-116 -1 -160 -26 -160 -87c0 -39 25 -67 68 -67zM389 529h-79l74 146h121z" />
    <glyph glyph-name="Oslashacute" unicode="&#x1fe;" horiz-adv-x="619" 
d="M74 -14l-43 40l63 70c-33 50 -50 117 -50 198c0 197 104 307 266 307c72 0 133 -22 178 -64l54 60l46 -41l-61 -67c31 -50 48 -115 48 -195c0 -196 -103 -306 -265 -306c-72 0 -133 21 -178 63zM310 520c-111 0 -167 -86 -167 -226c0 -48 6 -89 19 -122l265 296
c-28 33 -67 52 -117 52zM476 294c0 45 -6 85 -18 118l-265 -294c27 -33 66 -50 117 -50c111 0 166 85 166 226zM347 653h-82l63 123h120z" />
    <glyph glyph-name="oslashacute" unicode="&#x1ff;" horiz-adv-x="505" 
d="M70 -14l-45 39l53 56c-23 40 -36 91 -36 153c0 157 83 239 210 239c58 0 107 -17 143 -51l47 50l45 -38l-55 -59c20 -37 31 -84 31 -141c0 -158 -83 -246 -211 -246c-55 0 -101 16 -136 47zM252 400c-79 0 -121 -54 -121 -167c0 -33 3 -61 10 -84l199 214
c-21 25 -50 37 -88 37zM374 233c0 27 -3 51 -8 71l-197 -212c20 -22 48 -33 83 -33c81 0 122 58 122 174zM292 529h-79l74 146h121z" />
    <glyph glyph-name="Ainvertedbreve" unicode="&#x202;" horiz-adv-x="569" 
d="M460 0l-57 161h-241l-56 -161h-96l215 589h121l213 -589h-99zM235 370l-47 -133h188l-45 132c-33 92 -46 155 -46 155h-4s-14 -62 -46 -154zM282 785c88 0 136 -52 136 -132h-71c-3 41 -19 66 -65 66s-61 -25 -64 -66h-71c0 80 48 132 135 132z" />
    <glyph glyph-name="ainvertedbreve" unicode="&#x203;" horiz-adv-x="479" 
d="M305 139v67c-124 3 -178 -25 -178 -83c0 -38 25 -67 74 -67c48 0 104 29 104 83zM396 331v-222c0 -35 16 -43 34 -43c11 0 19 2 26 5v-70c-13 -5 -29 -8 -49 -8c-53 0 -87 22 -95 74c-24 -58 -78 -79 -137 -79c-81 0 -138 46 -138 125c0 102 79 161 268 152v57
c0 57 -34 79 -83 79c-50 0 -80 -26 -84 -74l-86 13c7 98 93 133 178 133c90 0 166 -36 166 -142zM230 672c88 0 136 -57 136 -141h-71c-3 44 -15 74 -65 74c-51 0 -62 -30 -65 -74h-71c0 84 48 141 136 141z" />
    <glyph glyph-name="Einvertedbreve" unicode="&#x206;" horiz-adv-x="496" 
d="M446 80v-80h-363v589h363v-80h-271v-174h240v-80h-240v-175h271zM257 787c88 0 136 -52 136 -132h-71c-3 41 -19 66 -65 66s-61 -25 -64 -66h-71c0 80 48 132 135 132z" />
    <glyph glyph-name="einvertedbreve" unicode="&#x207;" horiz-adv-x="478" 
d="M253 59c51 0 85 20 101 75l79 -21c-19 -93 -97 -125 -185 -125c-123 0 -206 85 -206 239c0 155 82 246 211 246c119 0 183 -82 183 -197c0 -26 -4 -50 -9 -64h-298c4 -90 46 -153 124 -153zM131 277h216c1 7 1 13 1 19c0 59 -38 106 -100 106c-66 0 -108 -45 -117 -125z
M251 672c88 0 136 -57 136 -141h-71c-3 44 -15 74 -65 74c-51 0 -62 -30 -65 -74h-71c0 84 48 141 136 141z" />
    <glyph glyph-name="Iinvertedbreve" unicode="&#x20a;" horiz-adv-x="258" 
d="M83 589h92v-589h-92v589zM129 787c88 0 136 -52 136 -132h-71c-3 41 -19 66 -65 66s-61 -25 -64 -66h-71c0 80 48 132 135 132z" />
    <glyph glyph-name="iinvertedbreve" unicode="&#x20b;" horiz-adv-x="234" 
d="M72 462h90v-462h-90v462zM117 672c88 0 136 -57 136 -141h-71c-3 44 -15 74 -65 74c-51 0 -62 -30 -65 -74h-71c0 84 48 141 136 141z" />
    <glyph glyph-name="Oinvertedbreve" unicode="&#x20e;" horiz-adv-x="619" 
d="M310 -12c-162 0 -266 110 -266 306c0 197 104 307 266 307s265 -110 265 -307c0 -196 -103 -306 -265 -306zM310 520c-111 0 -169 -86 -169 -226c0 -141 58 -226 169 -226s168 85 168 226c0 140 -58 226 -168 226zM310 787c88 0 136 -52 136 -132h-71
c-3 41 -19 66 -65 66s-61 -25 -64 -66h-71c0 80 48 132 135 132z" />
    <glyph glyph-name="oinvertedbreve" unicode="&#x20f;" horiz-adv-x="505" 
d="M252 -12c-127 0 -210 88 -210 246c0 157 83 239 210 239c128 0 211 -82 211 -239c0 -158 -83 -246 -211 -246zM252 400c-79 0 -121 -54 -121 -167c0 -116 41 -174 121 -174c81 0 122 58 122 174c0 113 -42 167 -122 167zM253 672c88 0 136 -57 136 -141h-71
c-3 44 -15 74 -65 74c-51 0 -62 -30 -65 -74h-71c0 84 48 141 136 141z" />
    <glyph glyph-name="Rinvertedbreve" unicode="&#x212;" horiz-adv-x="550" 
d="M515 0h-101c-14 16 -21 32 -26 55l-24 102c-17 69 -52 82 -110 82h-79v-239h-92v589h204c135 0 201 -57 201 -168c0 -93 -62 -142 -136 -146v-3c56 -7 86 -31 102 -94l30 -116c7 -24 16 -44 31 -62zM175 512v-196h108c74 0 109 31 109 98c0 61 -35 98 -108 98h-109z
M261 787c88 0 136 -52 136 -132h-71c-3 41 -19 66 -65 66s-61 -25 -64 -66h-71c0 80 48 132 135 132z" />
    <glyph glyph-name="rinvertedbreve" unicode="&#x213;" horiz-adv-x="356" 
d="M338 472l-7 -101c-11 2 -26 4 -41 4c-65 0 -128 -51 -128 -141v-234h-90v462h76l11 -125c18 83 76 140 179 135zM205 672c88 0 136 -57 136 -141h-71c-3 44 -15 74 -65 74c-51 0 -62 -30 -65 -74h-71c0 84 48 141 136 141z" />
    <glyph glyph-name="Uinvertedbreve" unicode="&#x216;" horiz-adv-x="582" 
d="M425 589h93v-396c0 -153 -112 -205 -227 -205c-116 0 -227 52 -227 205v396h92v-372c0 -106 49 -153 135 -153c85 0 134 47 134 151v374zM290 787c88 0 136 -52 136 -132h-71c-3 41 -19 66 -65 66s-61 -25 -64 -66h-71c0 80 48 132 135 132z" />
    <glyph glyph-name="uinvertedbreve" unicode="&#x217;" horiz-adv-x="508" 
d="M359 0l-11 84c-22 -68 -69 -96 -142 -96c-84 0 -140 43 -140 153v321h90v-307c0 -68 26 -100 83 -100c50 0 107 45 107 134v273h90v-462h-77zM251 672c88 0 136 -57 136 -141h-71c-3 44 -15 74 -65 74c-51 0 -62 -30 -65 -74h-71c0 84 48 141 136 141z" />
    <glyph glyph-name="Scommaaccent" unicode="&#x218;" horiz-adv-x="478" 
d="M28 141l86 23c12 -72 59 -105 123 -105c63 0 106 29 106 84c0 52 -26 77 -122 113c-92 32 -172 70 -172 179c0 123 96 167 188 167c108 0 190 -42 200 -155l-91 -18c-6 65 -49 99 -108 99c-55 0 -95 -30 -95 -85c0 -59 47 -79 129 -109c90 -33 165 -69 165 -179
c0 -116 -92 -167 -205 -167c-116 0 -185 46 -204 153zM315 -142c0 -75 -43 -105 -121 -105v37c39 2 60 11 60 43c-36 -6 -61 14 -61 47c0 34 23 53 57 53c35 0 65 -28 65 -75z" />
    <glyph glyph-name="scommaaccent" unicode="&#x219;" horiz-adv-x="419" 
d="M27 104l80 24c7 -53 45 -76 100 -76c53 0 92 20 92 62c0 38 -17 59 -72 73l-68 16c-84 20 -116 63 -116 131c0 104 86 139 174 139c97 0 157 -35 166 -125l-88 -10c-3 46 -31 67 -84 67c-51 0 -81 -23 -81 -62c0 -33 13 -54 63 -65l64 -15c82 -20 128 -58 128 -139
c0 -99 -78 -136 -179 -136c-105 0 -166 32 -179 116zM279 -142c0 -75 -43 -105 -121 -105v37c39 2 60 11 60 43c-36 -6 -61 14 -61 47c0 34 23 53 57 53c35 0 65 -28 65 -75z" />
    <glyph glyph-name="dotlessj" unicode="&#x237;" horiz-adv-x="234" 
d="M72 462h90v-469c0 -152 -83 -201 -220 -196v76c90 -8 130 26 130 116v473z" />
    <glyph glyph-name="schwa" unicode="&#x259;" horiz-adv-x="478" 
d="M226 400c-51 0 -85 -25 -102 -79l-79 21c19 93 97 131 185 131c123 0 206 -85 206 -239c0 -155 -80 -246 -208 -246c-120 0 -184 82 -186 201c0 18 2 39 6 57h298c-4 89 -44 154 -120 154zM344 184h-211c-1 -8 -1 -13 -1 -20c0 -59 39 -106 100 -106c67 0 104 46 112 126
z" />
    <glyph glyph-name="ezh" unicode="&#x292;" horiz-adv-x="395" 
d="M113 213l79 99c37 47 64 73 64 73v4s-33 -3 -93 -3h-132v76h330v-60l-166 -202v-3c105 -3 168 -78 168 -177c0 -112 -86 -174 -199 -174c-97 0 -162 57 -175 140l80 23c10 -62 51 -92 103 -92c58 0 105 39 105 99c0 68 -42 125 -164 139v58z" />
    <glyph glyph-name="caron" unicode="&#x2c7;" horiz-adv-x="463" 
d="M258 528h-53l-125 147h92l34 -43c19 -23 23 -38 23 -38h5s4 15 23 38l34 43h92z" />
    <glyph glyph-name="breve" unicode="&#x2d8;" horiz-adv-x="432" 
d="M216 526c-88 0 -136 57 -136 141h71c3 -44 14 -74 65 -74c50 0 62 30 65 74h71c0 -84 -48 -141 -136 -141z" />
    <glyph glyph-name="dotaccent" unicode="&#x2d9;" horiz-adv-x="282" 
d="M80 609c0 35 27 60 60 60c35 0 62 -25 62 -60c0 -34 -27 -60 -62 -60c-33 0 -60 26 -60 60z" />
    <glyph glyph-name="ring" unicode="&#x2da;" horiz-adv-x="366" 
d="M183 520c-66 0 -103 44 -103 100c0 52 41 96 103 96s103 -44 103 -96c0 -56 -37 -100 -103 -100zM183 674c-34 0 -55 -23 -55 -56c0 -31 19 -53 55 -53s55 22 55 53c0 33 -21 56 -55 56z" />
    <glyph glyph-name="ogonek" unicode="&#x2db;" horiz-adv-x="384" 
d="M62 -106c0 102 107 140 162 145l29 -39c-50 0 -111 -30 -111 -93c0 -35 18 -57 52 -57c33 0 55 17 70 42l29 -44c-20 -34 -56 -59 -115 -59c-68 0 -116 35 -116 105z" />
    <glyph glyph-name="hungarumlaut" unicode="&#x2dd;" horiz-adv-x="493" 
d="M147 529h-67l62 146h109zM297 529h-71l74 146h113z" />
    <glyph glyph-name="uni0312" unicode="&#x312;" horiz-adv-x="282" 
d="M80 727c0 75 43 105 121 105v-37c-39 -2 -60 -11 -60 -43c36 6 61 -14 61 -47c0 -34 -24 -53 -57 -53c-35 0 -65 28 -65 75z" />
    <glyph glyph-name="uni0320" unicode="&#x320;" horiz-adv-x="422" 
d="M342 -182h-262v72h262v-72z" />
    <glyph glyph-name="uni0323" unicode="&#x323;" horiz-adv-x="282" 
d="M80 -119c0 36 27 60 60 60c34 0 62 -24 62 -60c0 -34 -28 -60 -62 -60c-33 0 -60 26 -60 60z" />
    <glyph glyph-name="uni0329" unicode="&#x329;" horiz-adv-x="242" 
d="M80 -197v144h82v-139z" />
    <glyph glyph-name="pi" unicode="&#x3c0;" horiz-adv-x="639" 
d="M167 481h412v-72h-107v-290c0 -40 11 -58 38 -58c28 0 40 19 53 45l46 -46c-25 -49 -56 -72 -117 -72c-72 0 -111 35 -111 119v302h-119l-44 -409h-91l49 409h-13c-54 0 -78 -32 -79 -91h-74c0 102 51 163 157 163z" />
    <glyph glyph-name="uni0E3F" unicode="&#xe3f;" horiz-adv-x="538" 
d="M245 -106v106h-157v481h157v93h50v-93h10c99 0 164 -42 164 -123c0 -60 -28 -98 -90 -109v-4c68 -4 111 -51 111 -112c0 -88 -59 -133 -180 -133h-15v-106h-50zM310 209h-15v-139h8c62 0 97 15 97 71c0 43 -26 68 -90 68zM381 344c0 47 -38 67 -86 68v-135h5
c52 0 81 20 81 67zM179 209v-139h66v139h-66zM179 277h66v135h-66v-135z" />
    <glyph glyph-name="Ddotbelow" unicode="&#x1e0c;" horiz-adv-x="594" 
d="M175 77h79c116 0 199 62 199 220c0 165 -86 215 -190 215h-88v-435zM263 0h-180v589h183c165 0 284 -81 284 -288c0 -218 -130 -301 -287 -301zM204 -139c0 35 27 60 60 60c35 0 62 -25 62 -60c0 -34 -27 -60 -62 -60c-33 0 -60 26 -60 60z" />
    <glyph glyph-name="ddotbelow" unicode="&#x1e0d;" 
d="M372 184v102c0 82 -62 117 -115 117c-68 0 -124 -47 -124 -177c0 -109 48 -167 123 -167c51 0 116 41 116 125zM371 400v268h91v-668h-80l-10 80c-26 -70 -81 -92 -147 -92c-97 0 -183 79 -183 235c0 157 75 250 207 250c59 0 109 -33 122 -73zM191 -139
c0 35 27 60 60 60c35 0 62 -25 62 -60c0 -34 -27 -60 -62 -60c-33 0 -60 26 -60 60z" />
    <glyph glyph-name="Dcedilla" unicode="&#x1e10;" horiz-adv-x="594" 
d="M361 -124c0 -59 -47 -87 -105 -87c-40 0 -72 14 -90 38l24 51c17 -24 38 -36 63 -36c22 0 36 11 36 34c0 25 -20 41 -66 42l6 82h-146v589h183c165 0 284 -81 284 -288c0 -212 -123 -297 -275 -301l-2 -41c62 -5 88 -35 88 -83zM175 77h79c116 0 199 62 199 220
c0 165 -86 215 -190 215h-88v-435z" />
    <glyph glyph-name="dcedilla" unicode="&#x1e11;" 
d="M348 -124c0 -59 -47 -87 -105 -87c-40 0 -72 14 -90 38l24 51c17 -24 38 -36 63 -36c22 0 36 11 36 34c0 25 -20 41 -66 42l5 70c-93 5 -173 84 -173 235c0 157 75 250 207 250c59 0 109 -33 122 -73v268h91v-668h-80l-10 80c-21 -57 -61 -82 -110 -89l-2 -32
c62 -5 88 -35 88 -83zM372 184v102c0 82 -62 117 -115 117c-68 0 -124 -47 -124 -177c0 -109 48 -167 123 -167c51 0 116 41 116 125z" />
    <glyph glyph-name="Hdotbelow" unicode="&#x1e24;" horiz-adv-x="631" 
d="M175 0h-92v589h92v-250h281v250h92v-589h-92v259h-281v-259zM254 -139c0 35 27 60 60 60c35 0 62 -25 62 -60c0 -34 -27 -60 -62 -60c-33 0 -60 26 -60 60z" />
    <glyph glyph-name="hdotbelow" unicode="&#x1e25;" horiz-adv-x="509" 
d="M162 668v-294c22 66 70 99 140 99c76 0 140 -42 140 -143v-330h-90v304c0 56 -26 91 -81 91c-56 0 -109 -29 -109 -130v-265h-90v668h90zM196 -139c0 35 27 60 60 60c35 0 62 -25 62 -60c0 -34 -27 -60 -62 -60c-33 0 -60 26 -60 60z" />
    <glyph glyph-name="Ldotbelow" unicode="&#x1e36;" horiz-adv-x="461" 
d="M83 589h92v-509h264v-80h-356v589zM200 -139c0 35 27 60 60 60c35 0 62 -25 62 -60c0 -34 -27 -60 -62 -60c-33 0 -60 26 -60 60z" />
    <glyph glyph-name="ldotbelow" unicode="&#x1e37;" horiz-adv-x="261" 
d="M229 75l-1 -75c-24 -6 -40 -8 -56 -8c-58 0 -106 31 -106 100v576h90v-557c0 -29 17 -41 41 -41c13 0 22 2 32 5zM86 -139c0 35 27 60 60 60c35 0 62 -25 62 -60c0 -34 -27 -60 -62 -60c-33 0 -60 26 -60 60z" />
    <glyph glyph-name="ldotbelowmacron" unicode="&#x1e39;" horiz-adv-x="261" 
d="M229 75l-1 -75c-24 -6 -40 -8 -56 -8c-58 0 -106 31 -106 100v576h90v-557c0 -29 17 -41 41 -41c13 0 22 2 32 5zM86 -139c0 35 27 60 60 60c35 0 62 -25 62 -60c0 -34 -27 -60 -62 -60c-33 0 -60 26 -60 60zM247 741h-264v71h264v-71z" />
    <glyph glyph-name="Mdotbelow" unicode="&#x1e42;" horiz-adv-x="719" 
d="M390 144h-61l-111 204c-34 64 -44 101 -44 101h-4s5 -36 5 -106v-343h-92v589h107l140 -272c23 -45 30 -72 30 -72h4s6 27 30 72l139 272h103v-589h-93v343c0 70 6 106 6 106h-4s-10 -37 -45 -101zM298 -139c0 35 27 60 60 60c35 0 62 -25 62 -60c0 -34 -27 -60 -62 -60
c-33 0 -60 26 -60 60z" />
    <glyph glyph-name="mdotbelow" unicode="&#x1e43;" horiz-adv-x="773" 
d="M424 371c23 74 83 102 145 102c78 0 137 -42 137 -139v-334h-90v304c0 57 -25 91 -77 91c-53 0 -105 -37 -105 -130v-265h-90v304c0 57 -25 91 -77 91s-105 -38 -105 -130v-265h-90v462h71l11 -89c24 71 81 100 144 100c66 0 114 -29 126 -102zM328 -139
c0 35 27 60 60 60c35 0 62 -25 62 -60c0 -34 -27 -60 -62 -60c-33 0 -60 26 -60 60z" />
    <glyph glyph-name="Ndotaccent" unicode="&#x1e44;" horiz-adv-x="650" 
d="M177 589l232 -337c35 -52 67 -112 67 -112h4s-5 63 -5 137v312h92v-589h-91l-235 336c-37 53 -68 114 -68 114h-4s6 -63 6 -139v-311h-92v589h94zM264 712c0 36 27 60 60 60c35 0 62 -24 62 -60c0 -34 -27 -60 -62 -60c-33 0 -60 26 -60 60z" />
    <glyph glyph-name="ndotaccent" unicode="&#x1e45;" horiz-adv-x="509" 
d="M143 462l11 -89c25 69 78 100 148 100c76 0 140 -42 140 -143v-330h-90v303c0 57 -26 92 -81 92c-56 0 -109 -30 -109 -130v-265h-90v462h71zM201 596c0 35 27 60 60 60c35 0 62 -25 62 -60c0 -34 -27 -60 -62 -60c-33 0 -60 26 -60 60z" />
    <glyph glyph-name="Ndotbelow" unicode="&#x1e46;" horiz-adv-x="650" 
d="M177 589l232 -337c35 -52 67 -112 67 -112h4s-5 63 -5 137v312h92v-589h-91l-235 336c-37 53 -68 114 -68 114h-4s6 -63 6 -139v-311h-92v589h94zM264 -139c0 35 27 60 60 60c35 0 62 -25 62 -60c0 -34 -27 -60 -62 -60c-33 0 -60 26 -60 60z" />
    <glyph glyph-name="ndotbelow" unicode="&#x1e47;" horiz-adv-x="509" 
d="M143 462l11 -89c25 69 78 100 148 100c76 0 140 -42 140 -143v-330h-90v303c0 57 -26 92 -81 92c-56 0 -109 -30 -109 -130v-265h-90v462h71zM199 -139c0 35 27 60 60 60c35 0 62 -25 62 -60c0 -34 -27 -60 -62 -60c-33 0 -60 26 -60 60z" />
    <glyph glyph-name="Rdotbelow" unicode="&#x1e5a;" horiz-adv-x="550" 
d="M515 0h-101c-14 16 -21 32 -26 55l-24 102c-17 69 -52 82 -110 82h-79v-239h-92v589h204c135 0 201 -57 201 -168c0 -93 -62 -142 -136 -146v-3c56 -7 86 -31 102 -94l30 -116c7 -24 16 -44 31 -62zM175 512v-196h108c74 0 109 31 109 98c0 61 -35 98 -108 98h-109z
M200 -139c0 35 27 60 60 60c35 0 62 -25 62 -60c0 -34 -27 -60 -62 -60c-33 0 -60 26 -60 60z" />
    <glyph glyph-name="rdotbelow" unicode="&#x1e5b;" horiz-adv-x="356" 
d="M338 472l-7 -101c-11 2 -26 4 -41 4c-65 0 -128 -51 -128 -141v-234h-90v462h76l11 -125c18 83 76 140 179 135zM55 -139c0 35 27 60 60 60c35 0 62 -25 62 -60c0 -34 -27 -60 -62 -60c-33 0 -60 26 -60 60z" />
    <glyph glyph-name="Rdotbelowmacron" unicode="&#x1e5c;" horiz-adv-x="550" 
d="M515 0h-101c-14 16 -21 32 -26 55l-24 102c-17 69 -52 82 -110 82h-79v-239h-92v589h204c135 0 201 -57 201 -168c0 -93 -62 -142 -136 -146v-3c56 -7 86 -31 102 -94l30 -116c7 -24 16 -44 31 -62zM175 512v-196h108c74 0 109 31 109 98c0 61 -35 98 -108 98h-109z
M200 -139c0 35 27 60 60 60c35 0 62 -25 62 -60c0 -34 -27 -60 -62 -60c-33 0 -60 26 -60 60zM394 674h-264v71h264v-71z" />
    <glyph glyph-name="rdotbelowmacron" unicode="&#x1e5d;" horiz-adv-x="356" 
d="M338 472l-7 -101c-11 2 -26 4 -41 4c-65 0 -128 -51 -128 -141v-234h-90v462h76l11 -125c18 83 76 140 179 135zM336 558h-262v73h262v-73zM55 -139c0 35 27 60 60 60c35 0 62 -25 62 -60c0 -34 -27 -60 -62 -60c-33 0 -60 26 -60 60z" />
    <glyph glyph-name="Sdotbelow" unicode="&#x1e62;" horiz-adv-x="478" 
d="M28 141l86 23c12 -72 59 -105 123 -105c63 0 106 29 106 84c0 52 -26 77 -122 113c-92 32 -172 70 -172 179c0 123 96 167 188 167c108 0 190 -42 200 -155l-91 -18c-6 65 -49 99 -108 99c-55 0 -95 -30 -95 -85c0 -59 47 -79 129 -109c90 -33 165 -69 165 -179
c0 -116 -92 -167 -205 -167c-116 0 -185 46 -204 153zM183 -139c0 35 27 60 60 60c35 0 62 -25 62 -60c0 -34 -27 -60 -62 -60c-33 0 -60 26 -60 60z" />
    <glyph glyph-name="sdotbelow" unicode="&#x1e63;" horiz-adv-x="419" 
d="M27 104l80 24c7 -53 45 -76 100 -76c53 0 92 20 92 62c0 38 -17 59 -72 73l-68 16c-84 20 -116 63 -116 131c0 104 86 139 174 139c97 0 157 -35 166 -125l-88 -10c-3 46 -31 67 -84 67c-51 0 -81 -23 -81 -62c0 -33 13 -54 63 -65l64 -15c82 -20 128 -58 128 -139
c0 -99 -78 -136 -179 -136c-105 0 -166 32 -179 116zM157 -139c0 35 27 60 60 60c35 0 62 -25 62 -60c0 -34 -27 -60 -62 -60c-33 0 -60 26 -60 60z" />
    <glyph glyph-name="Tdotbelow" unicode="&#x1e6c;" horiz-adv-x="456" 
d="M274 0h-93v509h-171v80h436v-80h-172v-509zM167 -139c0 35 27 60 60 60c35 0 62 -25 62 -60c0 -34 -27 -60 -62 -60c-33 0 -60 26 -60 60z" />
    <glyph glyph-name="tdotbelow" unicode="&#x1e6d;" horiz-adv-x="337" 
d="M305 90l17 -75c-30 -18 -69 -27 -112 -27c-83 0 -133 44 -133 130v272h-67v72h67v98l91 11v-109h137v-72h-138v-254c0 -50 23 -71 61 -71c30 0 51 8 77 25zM124 -139c0 35 27 60 60 60c35 0 62 -25 62 -60c0 -34 -27 -60 -62 -60c-33 0 -60 26 -60 60z" />
    <glyph glyph-name="Wgrave" unicode="&#x1e80;" horiz-adv-x="826" 
d="M470 589l92 -369c23 -92 32 -159 32 -159h4s8 68 30 158l93 370h93l-153 -589h-131l-90 347c-24 91 -25 158 -25 158h-4s-4 -66 -27 -158l-89 -347h-131l-152 589h98l92 -367c22 -91 31 -161 31 -161h4s7 69 31 160l95 368h107zM459 653h-83l-100 123h120z" />
    <glyph glyph-name="wgrave" unicode="&#x1e81;" horiz-adv-x="672" 
d="M383 462l65 -240c26 -93 31 -157 31 -157h4s3 63 26 157l62 240h91l-126 -462h-108l-61 219c-25 88 -30 146 -30 146h-4s-5 -57 -28 -146l-58 -219h-108l-129 462h93l63 -240c25 -93 31 -157 31 -157h4s3 66 28 158l64 239h90zM383 529h-80l-115 146h121z" />
    <glyph glyph-name="Wacute" unicode="&#x1e82;" horiz-adv-x="826" 
d="M470 589l92 -369c23 -92 32 -159 32 -159h4s8 68 30 158l93 370h93l-153 -589h-131l-90 347c-24 91 -25 158 -25 158h-4s-4 -66 -27 -158l-89 -347h-131l-152 589h98l92 -367c22 -91 31 -161 31 -161h4s7 69 31 160l95 368h107zM450 653h-82l63 123h120z" />
    <glyph glyph-name="wacute" unicode="&#x1e83;" horiz-adv-x="672" 
d="M383 462l65 -240c26 -93 31 -157 31 -157h4s3 63 26 157l62 240h91l-126 -462h-108l-61 219c-25 88 -30 146 -30 146h-4s-5 -57 -28 -146l-58 -219h-108l-129 462h93l63 -240c25 -93 31 -157 31 -157h4s3 66 28 158l64 239h90zM367 529h-79l74 146h121z" />
    <glyph glyph-name="Wdieresis" unicode="&#x1e84;" horiz-adv-x="826" 
d="M470 589l92 -369c23 -92 32 -159 32 -159h4s8 68 30 158l93 370h93l-153 -589h-131l-90 347c-24 91 -25 158 -25 158h-4s-4 -66 -27 -158l-89 -347h-131l-152 589h98l92 -367c22 -91 31 -161 31 -161h4s7 69 31 160l95 368h107zM254 713c0 35 27 60 59 60
c33 0 60 -25 60 -60c0 -34 -27 -59 -60 -59c-32 0 -59 25 -59 59zM450 712c0 35 27 60 59 60c34 0 60 -25 60 -60c0 -33 -26 -59 -60 -59c-32 0 -59 26 -59 59z" />
    <glyph glyph-name="wdieresis" unicode="&#x1e85;" horiz-adv-x="672" 
d="M383 462l65 -240c26 -93 31 -157 31 -157h4s3 63 26 157l62 240h91l-126 -462h-108l-61 219c-25 88 -30 146 -30 146h-4s-5 -57 -28 -146l-58 -219h-108l-129 462h93l63 -240c25 -93 31 -157 31 -157h4s3 66 28 158l64 239h90zM177 595c0 35 27 60 59 60
c33 0 60 -25 60 -60c0 -34 -27 -59 -60 -59c-32 0 -59 25 -59 59zM373 594c0 35 27 60 59 60c34 0 60 -25 60 -60c0 -33 -26 -59 -60 -59c-32 0 -59 26 -59 59z" />
    <glyph glyph-name="Idotbelow" unicode="&#x1eca;" horiz-adv-x="258" 
d="M83 589h92v-589h-92v589zM68 -139c0 35 27 60 60 60c35 0 62 -25 62 -60c0 -34 -27 -60 -62 -60c-33 0 -60 26 -60 60z" />
    <glyph glyph-name="idotbelow" unicode="&#x1ecb;" horiz-adv-x="234" 
d="M56 610c0 36 28 60 60 60c35 0 63 -24 63 -60c0 -34 -28 -60 -63 -60c-32 0 -60 26 -60 60zM72 462h90v-462h-90v462zM56 -139c0 35 27 60 60 60c35 0 62 -25 62 -60c0 -34 -27 -60 -62 -60c-33 0 -60 26 -60 60z" />
    <glyph glyph-name="Odotbelow" unicode="&#x1ecc;" horiz-adv-x="619" 
d="M310 -12c-162 0 -266 110 -266 306c0 197 104 307 266 307s265 -110 265 -307c0 -196 -103 -306 -265 -306zM310 520c-111 0 -169 -86 -169 -226c0 -141 58 -226 169 -226s168 85 168 226c0 140 -58 226 -168 226zM249 -139c0 35 27 60 60 60c35 0 62 -25 62 -60
c0 -34 -27 -60 -62 -60c-33 0 -60 26 -60 60z" />
    <glyph glyph-name="odotbelow" unicode="&#x1ecd;" horiz-adv-x="505" 
d="M252 -12c-127 0 -210 88 -210 246c0 157 83 239 210 239c128 0 211 -82 211 -239c0 -158 -83 -246 -211 -246zM252 400c-79 0 -121 -54 -121 -167c0 -116 41 -174 121 -174c81 0 122 58 122 174c0 113 -42 167 -122 167zM191 -139c0 35 27 60 60 60c35 0 62 -25 62 -60
c0 -34 -27 -60 -62 -60c-33 0 -60 26 -60 60z" />
    <glyph glyph-name="Udotbelow" unicode="&#x1ee4;" horiz-adv-x="582" 
d="M425 589h93v-396c0 -153 -112 -205 -227 -205c-116 0 -227 52 -227 205v396h92v-372c0 -106 49 -153 135 -153c85 0 134 47 134 151v374zM229 -139c0 35 27 60 60 60c35 0 62 -25 62 -60c0 -34 -27 -60 -62 -60c-33 0 -60 26 -60 60z" />
    <glyph glyph-name="udotbelow" unicode="&#x1ee5;" horiz-adv-x="508" 
d="M359 0l-11 84c-22 -68 -69 -96 -142 -96c-84 0 -140 43 -140 153v321h90v-307c0 -68 26 -100 83 -100c50 0 107 45 107 134v273h90v-462h-77zM190 -139c0 35 27 60 60 60c35 0 62 -25 62 -60c0 -34 -27 -60 -62 -60c-33 0 -60 26 -60 60z" />
    <glyph glyph-name="Ygrave" unicode="&#x1ef2;" horiz-adv-x="484" 
d="M115 589l92 -187c34 -67 41 -100 41 -100h4s6 33 38 100l87 187h97l-180 -366v-223h-92v223l-192 366h105zM288 653h-83l-100 123h120z" />
    <glyph glyph-name="ygrave" unicode="&#x1ef3;" horiz-adv-x="440" 
d="M107 462l79 -254c28 -90 36 -146 36 -146h4s8 55 35 146l77 254h94l-170 -500c-47 -136 -106 -170 -188 -170c-22 0 -47 4 -67 11l8 77c20 -10 38 -14 60 -14c49 0 77 26 104 107l-171 489h99zM274 529h-80l-115 146h121z" />
    <glyph glyph-name="Ytilde" unicode="&#x1ef8;" horiz-adv-x="484" 
d="M115 589l92 -187c34 -67 41 -100 41 -100h4s6 33 38 100l87 187h97l-180 -366v-223h-92v223l-192 366h105zM312 653c-31 0 -47 11 -72 24c-27 15 -40 25 -60 25c-21 0 -34 -13 -30 -47h-55c-25 64 9 126 74 126c35 0 54 -11 79 -26c27 -17 38 -24 55 -24
c19 0 32 13 29 49h57c24 -70 -6 -127 -77 -127z" />
    <glyph glyph-name="ytilde" unicode="&#x1ef9;" horiz-adv-x="440" 
d="M107 462l79 -254c28 -90 36 -146 36 -146h4s8 55 35 146l77 254h94l-170 -500c-47 -136 -106 -170 -188 -170c-22 0 -47 4 -67 11l8 77c20 -10 38 -14 60 -14c49 0 77 26 104 107l-171 489h99zM297 529c-31 0 -47 10 -72 23c-27 16 -40 25 -60 25c-21 0 -34 -13 -30 -47
h-55c-25 65 9 124 74 124c35 0 54 -12 79 -27c27 -16 38 -23 55 -23c19 0 32 12 29 49h57c24 -70 -6 -124 -77 -124z" />
    <glyph glyph-name="enspace" unicode="&#x2002;" horiz-adv-x="450" 
 />
    <glyph glyph-name="emspace" unicode="&#x2003;" horiz-adv-x="900" 
 />
    <glyph glyph-name="threeperemspace" unicode="&#x2004;" horiz-adv-x="300" 
 />
    <glyph glyph-name="fourperemspace" unicode="&#x2005;" horiz-adv-x="225" 
 />
    <glyph glyph-name="sixperemspace" unicode="&#x2006;" horiz-adv-x="150" 
 />
    <glyph glyph-name="figurespace" unicode="&#x2007;" horiz-adv-x="513" 
 />
    <glyph glyph-name="punctuationspace" unicode="&#x2008;" horiz-adv-x="171" 
 />
    <glyph glyph-name="thinspace" unicode="&#x2009;" horiz-adv-x="90" 
 />
    <glyph glyph-name="hairspace" unicode="&#x200a;" horiz-adv-x="45" 
 />
    <glyph glyph-name="zerowidthspace" unicode="&#x200b;" horiz-adv-x="0" 
 />
    <glyph glyph-name="figuredash" unicode="&#x2012;" horiz-adv-x="595" 
d="M68 220v64h459v-64h-459z" />
    <glyph glyph-name="uni2015" unicode="&#x2015;" horiz-adv-x="1250" 
d="M68 220v64h1114v-64h-1114z" />
    <glyph glyph-name="fraction" unicode="&#x2044;" horiz-adv-x="164" 
d="M-102 0l306 590h62l-306 -590h-62z" />
    <glyph glyph-name="uni2070" unicode="&#x2070;" horiz-adv-x="349" 
d="M175 229c-94 0 -142 75 -142 184c0 108 54 184 142 184c87 0 141 -76 141 -184c0 -109 -48 -184 -141 -184zM175 534c-47 0 -70 -50 -70 -122c0 -70 24 -124 70 -124c45 0 70 54 70 124c0 72 -24 122 -70 122z" />
    <glyph glyph-name="uni2074" unicode="&#x2074;" horiz-adv-x="342" 
d="M193 236v86h-179v54l176 213h75v-213h57v-54h-57v-86h-72zM195 375v84c0 40 4 71 4 71h-4s-10 -26 -35 -59l-42 -50c-24 -30 -48 -46 -48 -46v-4s15 4 56 4h69z" />
    <glyph glyph-name="uni2075" unicode="&#x2075;" horiz-adv-x="315" 
d="M50 391l9 198h210v-59h-154l-5 -93c14 18 40 28 71 28c61 0 105 -38 105 -110c0 -83 -55 -126 -142 -126c-72 0 -119 34 -126 84l62 27c7 -39 33 -57 69 -57c40 0 67 21 67 67c0 42 -22 64 -56 64c-26 0 -41 -10 -52 -23h-58z" />
    <glyph glyph-name="uni2076" unicode="&#x2076;" horiz-adv-x="332" 
d="M299 529l-53 -30c-11 27 -32 40 -62 40c-54 0 -87 -52 -87 -150h4c8 43 41 73 95 73c66 0 111 -48 111 -113s-46 -120 -134 -120c-84 0 -140 56 -140 173c0 133 71 195 155 195c51 0 92 -23 111 -68zM114 345c0 -40 28 -64 64 -64s64 24 64 64s-28 64 -63 64
c-37 0 -65 -24 -65 -64z" />
    <glyph glyph-name="uni2077" unicode="&#x2077;" horiz-adv-x="298" 
d="M208 528h-127v-53h-62v114h268v-40l-141 -313h-73z" />
    <glyph glyph-name="uni2078" unicode="&#x2078;" horiz-adv-x="348" 
d="M174 389c-33 0 -65 -17 -65 -54c0 -35 25 -55 65 -55s65 20 65 55c0 37 -31 54 -65 54zM174 229c-80 0 -137 34 -137 98c0 45 30 77 77 85v4c-45 7 -69 40 -69 80c0 63 53 101 129 101c77 0 129 -38 129 -101c0 -40 -24 -73 -69 -80v-4c47 -8 77 -40 77 -85
c0 -64 -56 -98 -137 -98zM174 545c-37 0 -64 -20 -64 -51c0 -33 32 -50 64 -50s64 17 64 50c0 31 -27 51 -64 51z" />
    <glyph glyph-name="uni2079" unicode="&#x2079;" horiz-adv-x="332" 
d="M29 297l53 30c11 -27 33 -40 62 -40c57 0 91 52 91 150h-4c-8 -43 -42 -73 -95 -73c-67 0 -111 48 -111 113s46 120 134 120c84 0 140 -56 140 -173c0 -133 -72 -195 -156 -195c-51 0 -95 23 -114 68zM218 479c0 40 -29 64 -64 64c-36 0 -65 -24 -65 -64
c0 -39 29 -64 63 -64c37 0 66 25 66 64z" />
    <glyph glyph-name="uni207A" unicode="&#x207a;" horiz-adv-x="445" 
d="M45 442h153v148h45v-148h157v-46h-157v-160h-45v160h-153v46z" />
    <glyph glyph-name="uni207B" unicode="&#x207b;" horiz-adv-x="445" 
d="M400 396h-355v46h355v-46z" />
    <glyph glyph-name="uni207C" unicode="&#x207c;" horiz-adv-x="445" 
d="M400 340h-355v46h355v-46zM400 461h-355v46h355v-46z" />
    <glyph glyph-name="uni207D" unicode="&#x207d;" horiz-adv-x="230" 
d="M97 409c0 -98 36 -158 91 -227h-58c-46 56 -85 125 -85 227s39 171 85 227h58c-55 -67 -91 -130 -91 -227z" />
    <glyph glyph-name="uni207E" unicode="&#x207e;" horiz-adv-x="230" 
d="M136 409c0 97 -36 160 -91 227h57c47 -56 86 -125 86 -227s-39 -171 -86 -227h-57c55 69 91 129 91 227z" />
    <glyph glyph-name="n.superior" unicode="&#x207f;" horiz-adv-x="392" 
d="M119 593l9 -59c16 47 59 67 103 67c53 0 107 -29 107 -109v-205h-76v190c0 43 -17 65 -55 65c-29 0 -72 -11 -72 -93v-162h-76v306h60z" />
    <glyph glyph-name="uni2080" unicode="&#x2080;" horiz-adv-x="349" 
d="M175 -7c-94 0 -142 75 -142 184c0 108 54 184 142 184c87 0 141 -76 141 -184c0 -109 -48 -184 -141 -184zM175 298c-47 0 -70 -50 -70 -122c0 -70 24 -124 70 -124c45 0 70 54 70 124c0 72 -24 122 -70 122z" />
    <glyph glyph-name="uni2081" unicode="&#x2081;" horiz-adv-x="298" 
d="M286 0h-254v56h96v228l-106 -11v58l178 23v-298h86v-56z" />
    <glyph glyph-name="uni2082" unicode="&#x2082;" horiz-adv-x="309" 
d="M288 57v-57h-266v52c114 80 175 127 175 193c0 35 -20 53 -54 53c-40 0 -59 -30 -60 -68l-60 27c1 51 47 104 131 104c63 0 118 -34 118 -109c0 -100 -101 -159 -160 -191v-4h176z" />
    <glyph glyph-name="uni2083" unicode="&#x2083;" horiz-adv-x="317" 
d="M182 184v-3c68 -6 98 -39 98 -91c0 -62 -55 -97 -135 -97c-78 0 -125 33 -135 81l62 25c8 -30 37 -52 74 -52c36 0 60 14 60 48c0 36 -23 59 -105 60v48c72 2 96 22 96 55c0 28 -20 46 -52 46c-28 0 -52 -15 -59 -46l-61 23c12 48 57 80 126 80c62 0 117 -27 117 -92
c0 -44 -24 -77 -86 -85z" />
    <glyph glyph-name="uni2084" unicode="&#x2084;" horiz-adv-x="342" 
d="M193 0v86h-179v54l176 213h75v-213h57v-54h-57v-86h-72zM195 139v84c0 40 4 71 4 71h-4s-10 -26 -35 -59l-42 -50c-24 -30 -48 -46 -48 -46v-4s15 4 56 4h69z" />
    <glyph glyph-name="uni2085" unicode="&#x2085;" horiz-adv-x="315" 
d="M50 155l9 198h210v-59h-154l-5 -93c14 18 40 28 71 28c61 0 105 -38 105 -110c0 -83 -55 -126 -142 -126c-72 0 -119 34 -126 84l62 27c7 -39 33 -57 69 -57c40 0 67 21 67 67c0 42 -22 64 -56 64c-26 0 -41 -10 -52 -23h-58z" />
    <glyph glyph-name="uni2086" unicode="&#x2086;" horiz-adv-x="332" 
d="M299 293l-53 -30c-11 27 -32 40 -62 40c-54 0 -87 -52 -87 -150h4c8 43 41 73 95 73c66 0 111 -48 111 -113s-46 -120 -134 -120c-84 0 -140 56 -140 173c0 133 71 195 155 195c51 0 92 -23 111 -68zM114 109c0 -40 28 -64 64 -64s64 24 64 64s-28 64 -63 64
c-37 0 -65 -24 -65 -64z" />
    <glyph glyph-name="uni2087" unicode="&#x2087;" horiz-adv-x="298" 
d="M208 292h-127v-53h-62v114h268v-40l-141 -313h-73z" />
    <glyph glyph-name="uni2088" unicode="&#x2088;" horiz-adv-x="348" 
d="M174 153c-33 0 -65 -17 -65 -54c0 -35 25 -55 65 -55s65 20 65 55c0 37 -31 54 -65 54zM174 -7c-80 0 -137 34 -137 98c0 45 30 77 77 85v4c-45 7 -69 40 -69 80c0 63 53 101 129 101c77 0 129 -38 129 -101c0 -40 -24 -73 -69 -80v-4c47 -8 77 -40 77 -85
c0 -64 -56 -98 -137 -98zM174 309c-37 0 -64 -20 -64 -51c0 -33 32 -50 64 -50s64 17 64 50c0 31 -27 51 -64 51z" />
    <glyph glyph-name="uni2089" unicode="&#x2089;" horiz-adv-x="332" 
d="M29 61l53 30c11 -27 33 -40 62 -40c57 0 91 52 91 150h-4c-8 -43 -42 -73 -95 -73c-67 0 -111 48 -111 113s46 120 134 120c84 0 140 -56 140 -173c0 -133 -72 -195 -156 -195c-51 0 -95 23 -114 68zM218 243c0 40 -29 64 -64 64c-36 0 -65 -24 -65 -64
c0 -39 29 -64 63 -64c37 0 66 25 66 64z" />
    <glyph glyph-name="uni208A" unicode="&#x208a;" horiz-adv-x="445" 
d="M45 206h153v149h45v-149h157v-45h-157v-161h-45v161h-153v45z" />
    <glyph glyph-name="uni208B" unicode="&#x208b;" horiz-adv-x="445" 
d="M400 160h-355v46h355v-46z" />
    <glyph glyph-name="uni208C" unicode="&#x208c;" horiz-adv-x="445" 
d="M400 104h-355v46h355v-46zM400 225h-355v46h355v-46z" />
    <glyph glyph-name="uni208D" unicode="&#x208d;" horiz-adv-x="230" 
d="M97 174c0 -99 36 -159 91 -228h-58c-46 56 -85 125 -85 228c0 101 39 170 85 226h58c-55 -67 -91 -130 -91 -226z" />
    <glyph glyph-name="uni208E" unicode="&#x208e;" horiz-adv-x="230" 
d="M136 174c0 96 -36 159 -91 226h57c47 -56 86 -125 86 -226c0 -103 -39 -172 -86 -228h-57c55 69 91 129 91 228z" />
    <glyph glyph-name="uni20A1" unicode="&#x20a1;" horiz-adv-x="509" 
d="M106 -66l32 94c-56 40 -90 110 -90 211c0 163 97 254 235 254h14l29 84l47 -16l-26 -75c16 -3 31 -9 44 -16l28 81l47 -16l-33 -97c16 -17 29 -38 40 -63l-76 -41l-93 -272c44 6 73 29 99 75l70 -48c-43 -71 -105 -100 -194 -101l-33 -96l-47 16l28 84
c-15 3 -30 7 -44 12l-29 -87zM139 243c0 -52 10 -94 30 -124l103 302c-85 -4 -133 -71 -133 -178zM209 79c12 -7 27 -13 43 -16l110 322c-11 12 -24 22 -40 28z" />
    <glyph glyph-name="uni20A2" unicode="&#x20a2;" horiz-adv-x="521" 
d="M410 135l67 -46c-44 -72 -107 -101 -199 -101c-129 0 -226 82 -226 251c0 163 97 254 235 254c98 0 156 -38 190 -118l-81 -44c-20 57 -56 90 -113 90c-89 0 -140 -68 -140 -178c0 -94 35 -158 98 -178v203h65l7 -66c11 44 47 72 95 72l-4 -83c-6 3 -15 5 -22 5
c-31 0 -68 -21 -68 -66v-69c41 7 71 29 96 74z" />
    <glyph glyph-name="franc" unicode="&#x20a3;" horiz-adv-x="449" 
d="M353 150h-156v-150h-92v150h-73v50h73v50h-73v50h73v181h325v-76h-233v-105h156v-50h-156v-50h156v-50z" />
    <glyph glyph-name="lira" unicode="&#x20a4;" horiz-adv-x="496" 
d="M333 154h-116v-1c0 -37 -15 -65 -44 -77h167c31 0 63 6 73 49l67 -36c-13 -58 -60 -89 -128 -89h-293v78h29c30 0 47 27 47 63c0 4 0 9 -1 13h-98v50h84c-5 14 -12 29 -18 46h-66v50h55c-1 11 -2 23 -2 37c0 110 90 156 178 156c87 0 150 -36 164 -130l-83 -17
c-9 47 -30 75 -85 75c-53 0 -87 -27 -87 -87c0 -12 1 -23 4 -34h153v-50h-139c6 -16 11 -31 15 -46h124v-50z" />
    <glyph glyph-name="uni20A6" unicode="&#x20a6;" horiz-adv-x="672" 
d="M635 160h-79v-160h-93l-187 249c-44 58 -71 112 -71 112h-4s5 -72 5 -149v-212h-92v160h-77v50h77v44h-77v50h77v177h100l185 -253c43 -59 65 -105 65 -105h4s-4 75 -4 149v209h92v-177h79v-50h-79v-44h79v-50z" />
    <glyph glyph-name="peseta" unicode="&#x20a7;" horiz-adv-x="1195" 
d="M177 0h-91v481h169c99 0 164 -27 191 -90h330c20 75 97 102 177 102c101 0 165 -38 173 -130l-91 -9c-3 47 -35 71 -91 71c-51 0 -85 -25 -85 -67c0 -37 18 -60 68 -70l68 -14c81 -17 134 -65 134 -146c0 -101 -81 -140 -189 -140s-174 41 -187 127l83 18
c8 -54 51 -78 110 -78c55 0 95 19 95 65c0 40 -17 60 -75 73l-74 16c-74 16 -109 54 -118 106h-120v-315h-92v315h-102v-1c0 -123 -76 -173 -203 -173h-80v-141zM177 407v-192h71c81 0 118 23 118 99c0 66 -37 93 -117 93h-72z" />
    <glyph glyph-name="uni20A8" unicode="&#x20a8;" horiz-adv-x="842" 
d="M177 407v-154h88c68 0 94 23 94 76c0 51 -29 78 -94 78h-88zM277 481c118 0 178 -47 178 -145c0 -80 -51 -117 -122 -120v-4c51 -7 69 -40 103 -69l59 -49c37 -32 76 -41 137 -41c35 0 70 10 70 40c0 23 -11 38 -53 47l-53 11c-59 14 -90 48 -90 106c0 80 71 108 141 108
c78 0 127 -29 133 -98l-80 -8c-4 29 -21 46 -61 46c-31 0 -51 -13 -51 -41c0 -21 11 -34 48 -42l43 -9c76 -17 105 -54 105 -118c0 -74 -65 -107 -164 -107c-117 0 -171 25 -229 81l-51 49c-35 32 -60 64 -114 64h-49v-182h-91v481h191z" />
    <glyph glyph-name="uni20A9" unicode="&#x20a9;" horiz-adv-x="855" 
d="M815 177h-131l-48 -177h-112l-74 261c-21 74 -22 136 -22 136h-3s-1 -61 -22 -136l-72 -261h-115l-47 177h-129v51h116l-12 43h-104v51h91l-42 159h94l74 -287c20 -75 23 -133 23 -133h3s4 58 24 132l76 288h94l75 -288c20 -75 25 -132 25 -132h3s3 57 21 131l75 289h90
l-43 -159h92v-51h-106l-11 -43h117v-51z" />
    <glyph glyph-name="uni20AA" unicode="&#x20aa;" horiz-adv-x="719" 
d="M482 124h-87v215c0 38 -14 70 -72 70h-143v-409h-92v481h251c118 0 143 -62 143 -152v-205zM549 481h92v-329c0 -91 -25 -152 -144 -152h-252v356h87v-284h146c55 0 71 31 71 69v340z" />
    <glyph glyph-name="uni20AE" unicode="&#x20ae;" horiz-adv-x="458" 
d="M274 0h-92v139l-108 -18v51l108 18v49l-108 -18v51l108 18v115h-162v76h418v-76h-164v-99l106 18v-51l-106 -18v-49l106 18v-51l-106 -18v-155z" />
    <glyph glyph-name="uni20B1" unicode="&#x20b1;" horiz-adv-x="574" 
d="M554 280h-78c-13 -98 -86 -139 -200 -139h-79v-141h-92v280h-75v51h75v150h169c126 0 197 -45 204 -150h76v-51zM197 409v-78h187c-6 55 -43 78 -116 78h-71zM267 213c67 0 104 17 115 67h-185v-67h70z" />
    <glyph glyph-name="afii61289" unicode="&#x2113;" horiz-adv-x="336" 
d="M39 128l-30 49l66 46v240c0 146 49 206 138 206c74 0 105 -46 105 -127c0 -156 -83 -277 -160 -344v-58c0 -60 21 -77 67 -77c23 0 42 5 58 12l-1 -75c-18 -6 -47 -12 -76 -12c-78 0 -131 33 -131 127v40zM158 481v-208c54 52 103 151 103 275c0 44 -14 63 -44 63
c-36 0 -59 -41 -59 -130z" />
    <glyph glyph-name="afii61352" unicode="&#x2116;" horiz-adv-x="993" 
d="M654 0v70h297v-70h-297zM177 306v-188c0 -93 -43 -131 -124 -144l-25 83c42 7 56 23 56 78v454h94l228 -333c36 -52 67 -112 67 -112h4s-5 63 -5 137v178c0 93 43 131 124 144l25 -83c-43 -7 -56 -23 -56 -78v-442h-92l-230 332c-38 53 -68 114 -68 114h-4s6 -63 6 -140z
M801 153c-89 0 -147 57 -147 163c0 104 58 159 147 159c88 0 146 -55 146 -159c0 -106 -58 -163 -146 -163zM799 412c-44 0 -64 -33 -64 -97c0 -68 20 -103 64 -103s64 35 64 103c0 64 -20 97 -64 97z" />
    <glyph glyph-name="servicemark" unicode="&#x2120;" horiz-adv-x="596" 
d="M20 401l55 12c5 -26 26 -35 52 -35c25 0 40 8 40 28c0 13 -8 27 -35 33l-35 8c-41 9 -67 34 -67 71c0 58 49 77 100 77c57 0 92 -20 97 -66l-57 -7c-3 23 -19 31 -42 31c-22 0 -39 -9 -39 -28c0 -14 7 -26 35 -33l31 -7c45 -9 72 -35 72 -77c0 -53 -44 -71 -102 -71
c-63 0 -98 20 -105 64zM548 342h-56v163h-5l-48 -113h-47l-50 113h-5v-163h-56v248h71l62 -134h4l61 134h69v-248z" />
    <glyph glyph-name="ohm" unicode="&#x2126;" horiz-adv-x="651" 
d="M326 521c-111 0 -168 -85 -168 -215c0 -115 54 -192 113 -222v-84h-210v84h108c-52 29 -109 122 -109 231c0 176 104 286 266 286s265 -110 265 -286c0 -109 -56 -202 -109 -231h108v-84h-209v84c58 30 112 107 112 222c0 130 -56 215 -167 215z" />
    <glyph glyph-name="estimated" unicode="&#x212e;" horiz-adv-x="647" 
d="M323 601c196 0 279 -151 279 -307v-26h-431v-169c37 -36 88 -58 152 -58c89 0 149 37 184 104h66c-38 -92 -119 -157 -250 -157c-194 0 -278 151 -278 306c0 156 84 307 278 307zM323 548c-64 0 -115 -21 -152 -58v-170h304v170c-37 37 -87 58 -152 58z" />
    <glyph glyph-name="uni2153" unicode="&#x2153;" horiz-adv-x="864" 
d="M305 236h-254v56h96v228l-106 -11v58l178 23v-298h86v-56zM248 0l306 590h62l-306 -590h-62zM696 184v-3c68 -6 98 -39 98 -91c0 -62 -55 -97 -135 -97c-78 0 -125 33 -135 81l62 25c8 -30 37 -52 74 -52c36 0 60 14 60 48c0 36 -23 59 -105 60v48c72 2 96 22 96 55
c0 28 -20 46 -52 46c-28 0 -52 -15 -59 -46l-61 23c12 48 57 80 126 80c62 0 117 -27 117 -92c0 -44 -24 -77 -86 -85z" />
    <glyph glyph-name="uni2154" unicode="&#x2154;" horiz-adv-x="864" 
d="M315 293v-57h-266v52c114 80 175 127 175 193c0 35 -20 53 -54 53c-40 0 -59 -30 -60 -68l-60 27c1 51 47 104 131 104c63 0 118 -34 118 -109c0 -100 -101 -159 -160 -191v-4h176zM248 0l306 590h62l-306 -590h-62zM696 184v-3c68 -6 98 -39 98 -91
c0 -62 -55 -97 -135 -97c-78 0 -125 33 -135 81l62 25c8 -30 37 -52 74 -52c36 0 60 14 60 48c0 36 -23 59 -105 60v48c72 2 96 22 96 55c0 28 -20 46 -52 46c-28 0 -52 -15 -59 -46l-61 23c12 48 57 80 126 80c62 0 117 -27 117 -92c0 -44 -24 -77 -86 -85z" />
    <glyph glyph-name="uni215B" unicode="&#x215b;" horiz-adv-x="864" 
d="M305 236h-254v56h96v228l-106 -11v58l178 23v-298h86v-56zM248 0l306 590h62l-306 -590h-62zM688 153c-33 0 -65 -17 -65 -54c0 -35 25 -55 65 -55s65 20 65 55c0 37 -31 54 -65 54zM688 -7c-80 0 -137 34 -137 98c0 45 30 77 77 85v4c-45 7 -69 40 -69 80
c0 63 53 101 129 101c77 0 129 -38 129 -101c0 -40 -24 -73 -69 -80v-4c47 -8 77 -40 77 -85c0 -64 -56 -98 -137 -98zM688 309c-37 0 -64 -20 -64 -51c0 -33 32 -50 64 -50s64 17 64 50c0 31 -27 51 -64 51z" />
    <glyph glyph-name="uni215C" unicode="&#x215c;" horiz-adv-x="864" 
d="M211 420v-3c68 -6 98 -39 98 -91c0 -62 -55 -97 -135 -97c-78 0 -125 33 -135 81l62 25c8 -30 37 -52 74 -52c36 0 60 14 60 48c0 36 -23 59 -105 60v48c72 2 96 22 96 55c0 28 -20 46 -52 46c-28 0 -52 -15 -59 -46l-61 23c12 48 57 80 126 80c62 0 117 -27 117 -92
c0 -44 -24 -77 -86 -85zM248 0l306 590h62l-306 -590h-62zM688 153c-33 0 -65 -17 -65 -54c0 -35 25 -55 65 -55s65 20 65 55c0 37 -31 54 -65 54zM688 -7c-80 0 -137 34 -137 98c0 45 30 77 77 85v4c-45 7 -69 40 -69 80c0 63 53 101 129 101c77 0 129 -38 129 -101
c0 -40 -24 -73 -69 -80v-4c47 -8 77 -40 77 -85c0 -64 -56 -98 -137 -98zM688 309c-37 0 -64 -20 -64 -51c0 -33 32 -50 64 -50s64 17 64 50c0 31 -27 51 -64 51z" />
    <glyph glyph-name="uni215D" unicode="&#x215d;" horiz-adv-x="864" 
d="M72 391l9 198h210v-59h-154l-5 -93c14 18 40 28 71 28c61 0 105 -38 105 -110c0 -83 -55 -126 -142 -126c-72 0 -119 34 -126 84l62 27c7 -39 33 -57 69 -57c40 0 67 21 67 67c0 42 -22 64 -56 64c-26 0 -41 -10 -52 -23h-58zM248 0l306 590h62l-306 -590h-62zM688 153
c-33 0 -65 -17 -65 -54c0 -35 25 -55 65 -55s65 20 65 55c0 37 -31 54 -65 54zM688 -7c-80 0 -137 34 -137 98c0 45 30 77 77 85v4c-45 7 -69 40 -69 80c0 63 53 101 129 101c77 0 129 -38 129 -101c0 -40 -24 -73 -69 -80v-4c47 -8 77 -40 77 -85c0 -64 -56 -98 -137 -98z
M688 309c-37 0 -64 -20 -64 -51c0 -33 32 -50 64 -50s64 17 64 50c0 31 -27 51 -64 51z" />
    <glyph glyph-name="uni215E" unicode="&#x215e;" horiz-adv-x="807" 
d="M230 528h-127v-53h-62v114h268v-40l-141 -313h-73zM193 0l306 590h62l-306 -590h-62zM633 153c-33 0 -65 -17 -65 -54c0 -35 25 -55 65 -55s65 20 65 55c0 37 -31 54 -65 54zM633 -7c-80 0 -137 34 -137 98c0 45 30 77 77 85v4c-45 7 -69 40 -69 80c0 63 53 101 129 101
c77 0 129 -38 129 -101c0 -40 -24 -73 -69 -80v-4c47 -8 77 -40 77 -85c0 -64 -56 -98 -137 -98zM633 309c-37 0 -64 -20 -64 -51c0 -33 32 -50 64 -50s64 17 64 50c0 31 -27 51 -64 51z" />
    <glyph glyph-name="arrowleft" unicode="&#x2190;" horiz-adv-x="672" 
d="M170 336h457v-82h-459l205 -209l-60 -57l-293 305l292 308l62 -56z" />
    <glyph glyph-name="arrowup" unicode="&#x2191;" horiz-adv-x="685" 
d="M384 451v-451h-82v453l-209 -206l-57 61l305 293l308 -292l-57 -62z" />
    <glyph glyph-name="arrowright" unicode="&#x2192;" horiz-adv-x="672" 
d="M20 336h457l-201 209l62 56l289 -308l-288 -305l-61 57l202 209h-460v82z" />
    <glyph glyph-name="arrowdown" unicode="&#x2193;" horiz-adv-x="685" 
d="M301 139v450h82v-453l209 206l57 -60l-305 -294l-308 293l57 62z" />
    <glyph glyph-name="uni2196" unicode="&#x2196;" horiz-adv-x="683" 
d="M607 0l-449 452v-353h-79v490h470v-77h-334l450 -453z" />
    <glyph glyph-name="uni2197" unicode="&#x2197;" horiz-adv-x="683" 
d="M525 452l-449 -452l-58 59l450 453h-333v77h469v-490h-79v353z" />
    <glyph glyph-name="uni2198" unicode="&#x2198;" horiz-adv-x="683" 
d="M76 589l449 -451v352h79v-490h-469v77h333l-450 453z" />
    <glyph glyph-name="uni2199" unicode="&#x2199;" horiz-adv-x="683" 
d="M158 138l449 451l58 -59l-450 -453h334v-77h-470v490h79v-352z" />
    <glyph glyph-name="partialdiff" unicode="&#x2202;" horiz-adv-x="518" 
d="M140 623l61 51c168 -73 269 -240 269 -410c0 -190 -84 -271 -211 -271c-128 0 -211 85 -211 240c0 154 86 232 191 232c60 0 97 -26 125 -62c-40 92 -111 165 -224 220zM380 231c0 103 -44 159 -124 159s-118 -56 -118 -159c0 -104 40 -164 120 -164c84 0 122 61 122 164
z" />
    <glyph glyph-name="increment" unicode="&#x2206;" horiz-adv-x="569" 
d="M559 0h-549l215 589h121zM433 77l-102 292c-33 92 -47 152 -47 152h-4s-13 -59 -45 -151l-102 -292z" />
    <glyph glyph-name="product" unicode="&#x220f;" horiz-adv-x="623" 
d="M170 -202h-91v791h465v-791h-92v706h-282v-706z" />
    <glyph glyph-name="summation" unicode="&#x2211;" horiz-adv-x="446" 
d="M402 509h-150c-61 0 -95 3 -95 3v-4s28 -23 64 -70l111 -143l-117 -144c-36 -46 -65 -70 -65 -70v-4s35 3 95 3h157v-80h-402l223 296l-223 293h402v-80z" />
    <glyph glyph-name="minus" unicode="&#x2212;" horiz-adv-x="498" 
d="M453 221h-408v54h408v-54z" />
    <glyph glyph-name="radical" unicode="&#x221a;" horiz-adv-x="577" 
d="M193 463l134 -362h3l153 583l84 -9l-188 -675h-92l-142 346l-93 -49l-34 69z" />
    <glyph glyph-name="infinity" unicode="&#x221e;" horiz-adv-x="864" 
d="M127 248c0 -73 45 -111 97 -111c44 0 75 14 109 50l55 61l-55 61c-33 36 -65 50 -109 50c-52 0 -97 -38 -97 -111zM432 199l-49 -54c-44 -49 -91 -78 -161 -78c-98 0 -173 67 -173 181s75 181 173 181c70 0 117 -28 161 -78l49 -54l49 54c45 49 91 78 161 78
c98 0 173 -67 173 -181s-75 -181 -173 -181c-70 0 -117 28 -161 78zM737 248c0 73 -45 111 -97 111c-44 0 -76 -14 -109 -50l-55 -61l55 -61c33 -36 65 -50 109 -50c52 0 97 38 97 111z" />
    <glyph glyph-name="integral" unicode="&#x222b;" horiz-adv-x="282" 
d="M89 -37v552c0 117 81 156 162 156c33 0 65 -6 93 -16l-17 -82c-24 13 -50 21 -73 21c-42 0 -74 -24 -74 -90v-552c0 -117 -81 -156 -162 -156c-33 0 -65 6 -92 17l17 81c23 -13 49 -21 73 -21c41 0 73 24 73 90z" />
    <glyph glyph-name="approxequal" unicode="&#x2248;" horiz-adv-x="498" 
d="M361 252c-74 0 -152 48 -220 48c-36 0 -68 -15 -96 -47v55c25 33 62 45 95 45c72 0 152 -47 222 -47c29 0 64 14 91 45v-63c-22 -24 -52 -36 -92 -36zM361 134c-74 0 -152 49 -220 49c-36 0 -68 -16 -96 -49v57c25 31 62 45 95 45c72 0 152 -49 222 -49c29 0 64 15 91 46
v-63c-22 -24 -52 -36 -92 -36z" />
    <glyph glyph-name="notequal" unicode="&#x2260;" horiz-adv-x="498" 
d="M453 285h-127l-65 -78h192v-53h-236l-103 -125l-41 34l75 91h-103v53h146l65 78h-211v53h254l94 113l42 -34l-67 -79h85v-53z" />
    <glyph glyph-name="lessequal" unicode="&#x2264;" horiz-adv-x="405" 
d="M346 438l-202 -146l203 -148l-39 -46l-259 193l261 192zM360 21h-315v53h315v-53z" />
    <glyph glyph-name="greaterequal" unicode="&#x2265;" horiz-adv-x="405" 
d="M261 292l-202 146l37 45l259 -192l-258 -193l-39 46zM360 21h-315v53h315v-53z" />
    <glyph glyph-name="blacksquare" unicode="&#x25a0;" horiz-adv-x="755" 
d="M83 0v589h589v-589h-589z" />
    <glyph glyph-name="whitesquare" unicode="&#x25a1;" horiz-adv-x="755" 
d="M83 0v589h589v-589h-589zM126 546v-503h503v503h-503z" />
    <glyph glyph-name="blacksmallsquare" unicode="&#x25aa;" horiz-adv-x="492" 
d="M83 139v325h326v-325h-326z" />
    <glyph glyph-name="whitesmallsquare" unicode="&#x25ab;" horiz-adv-x="492" 
d="M83 139v325h326v-325h-326zM126 421v-239h240v239h-240z" />
    <glyph glyph-name="triagup" unicode="&#x25b2;" horiz-adv-x="571" 
d="M40 0l245 601l246 -601h-491z" />
    <glyph glyph-name="triagrt" unicode="&#x25ba;" horiz-adv-x="684" 
d="M83 536l601 -245l-601 -246v491z" />
    <glyph glyph-name="triagdn" unicode="&#x25bc;" horiz-adv-x="571" 
d="M285 -12l-245 601h491z" />
    <glyph glyph-name="triaglf" unicode="&#x25c4;" horiz-adv-x="684" 
d="M0 291l601 245v-491z" />
    <glyph glyph-name="lozenge" unicode="&#x25ca;" horiz-adv-x="509" 
d="M461 303l-174 -336h-66l-173 336l173 328h66zM380 302l-124 244l-125 -244l125 -253z" />
    <glyph glyph-name="circle" unicode="&#x25cb;" horiz-adv-x="522" 
d="M44 295c0 120 96 217 216 217s218 -97 218 -217s-98 -216 -218 -216s-216 96 -216 216zM89 294c0 -96 77 -174 172 -174s173 78 173 174c0 97 -78 176 -173 176s-172 -79 -172 -176z" />
    <glyph glyph-name="blackcircle" unicode="&#x25cf;" horiz-adv-x="701" 
d="M44 294c0 169 137 307 306 307s307 -138 307 -307s-138 -306 -307 -306s-306 137 -306 306z" />
    <glyph glyph-name="anglebracketleft" unicode="&#x3008;" horiz-adv-x="328" 
d="M288 -203h-86l-153 441l153 430h86l-150 -433z" />
    <glyph glyph-name="anglebracketright" unicode="&#x3009;" horiz-adv-x="328" 
d="M126 -203h-86l150 438l-150 433h86l153 -430z" />
    <glyph glyph-name=".null" horiz-adv-x="0" 
 />
    <glyph glyph-name="CR" horiz-adv-x="221" 
 />
    <glyph glyph-name="zero.OP" unicode="&#xe54a;" horiz-adv-x="585" 
d="M293 -12c-157 0 -245 111 -245 252c0 140 88 253 245 253c156 0 244 -113 244 -253c0 -141 -88 -252 -244 -252zM293 415c-101 0 -155 -76 -155 -176c0 -103 54 -175 155 -175c100 0 154 72 154 175c0 100 -54 176 -154 176z" />
    <glyph glyph-name="one.OP" unicode="&#xe54c;" horiz-adv-x="352" 
d="M248 0h-89v395l-139 -25v75l228 44v-489z" />
    <glyph glyph-name="two.OP" unicode="&#xe54d;" horiz-adv-x="447" 
d="M407 75v-75h-371v70c182 88 259 167 259 260c0 58 -36 87 -87 87c-49 0 -84 -31 -90 -98l-83 18c15 117 97 156 181 156c91 0 170 -46 170 -158c0 -128 -113 -220 -238 -256v-4h259z" />
    <glyph glyph-name="three.OP" unicode="&#xe54e;" horiz-adv-x="448" 
d="M227 193v-5c100 -9 164 -73 164 -161c0 -105 -88 -165 -195 -165c-113 0 -183 54 -195 140l86 21c11 -62 49 -92 111 -92c63 0 103 37 103 99c0 66 -44 112 -168 123v69c129 15 157 57 157 119c0 51 -40 79 -87 79c-46 0 -82 -24 -92 -84l-85 21c17 81 79 136 181 136
c93 0 174 -46 174 -149c0 -81 -56 -141 -154 -151z" />
    <glyph glyph-name="four.OP" unicode="&#xe54f;" horiz-adv-x="513" 
d="M300 -131v178h-284v60l285 374h88v-363h98v-71h-98v-178h-89zM184 118h116v149c0 69 4 114 4 114h-4s-18 -36 -59 -93l-79 -107c-32 -43 -55 -63 -55 -63v-4s19 4 77 4z" />
    <glyph glyph-name="five.OP" unicode="&#xe540;" horiz-adv-x="445" 
d="M72 153l13 328h295v-79h-220l-8 -191c21 18 50 29 88 29c97 0 167 -64 167 -185c0 -129 -87 -194 -205 -194c-111 0 -178 54 -189 140l79 24c11 -66 54 -98 114 -98c65 0 116 38 116 126c0 78 -44 121 -111 121c-32 0 -53 -10 -70 -21h-69z" />
    <glyph glyph-name="six.OP" unicode="&#xe551;" horiz-adv-x="516" 
d="M463 488l-74 -38c-19 53 -54 77 -103 77c-98 0 -154 -97 -155 -275h3c18 81 78 122 151 122c120 0 187 -84 187 -189c0 -109 -73 -197 -207 -197c-128 0 -213 96 -213 288c0 223 110 325 238 325c83 0 143 -40 173 -113zM156 179c0 -73 51 -119 115 -119
c65 0 116 46 116 119c0 76 -51 122 -116 122c-64 0 -115 -46 -115 -122z" />
    <glyph glyph-name="seven.OP" unicode="&#xe552;" horiz-adv-x="459" 
d="M322 402h-214v-75h-82v154h392v-62l-222 -550h-89z" />
    <glyph glyph-name="eight.OP" unicode="&#xe553;" horiz-adv-x="502" 
d="M251 -12c-124 0 -203 62 -203 161c0 76 48 127 113 148v5c-70 22 -101 74 -101 139c0 96 76 160 191 160c114 0 191 -64 191 -160c0 -65 -31 -117 -102 -139v-5c66 -21 114 -72 114 -148c0 -99 -79 -161 -203 -161zM251 536c-66 0 -103 -40 -103 -96
c0 -73 45 -104 103 -104s103 31 103 104c0 56 -37 96 -103 96zM251 265c-62 0 -115 -35 -115 -104c0 -65 44 -107 115 -107s115 42 115 107c0 69 -53 104 -115 104z" />
    <glyph glyph-name="nine.OP" unicode="&#xe554;" horiz-adv-x="511" 
d="M24 -25l73 37c19 -52 55 -81 115 -81c135 0 167 154 167 303h-4c-14 -88 -75 -130 -150 -130c-119 0 -188 86 -188 188c0 108 69 201 203 201c136 0 219 -92 219 -285c0 -220 -89 -346 -250 -346c-95 0 -156 40 -185 113zM354 300c0 75 -52 121 -115 121
c-67 0 -119 -46 -119 -121c0 -78 52 -125 119 -125c63 0 115 47 115 125z" />
    <glyph glyph-name="zero.LP" unicode="&#xe534;" horiz-adv-x="561" 
d="M281 -12c-151 0 -232 129 -232 306c0 168 87 307 232 307c144 0 231 -139 231 -307c0 -177 -81 -306 -231 -306zM280 521c-88 0 -141 -96 -141 -229c0 -130 53 -229 141 -229s140 99 140 229c0 133 -52 229 -140 229z" />
    <glyph glyph-name="one.LP" unicode="&#xe536;" horiz-adv-x="333" 
d="M235 0h-93v490l-127 -21v82l220 39v-590z" />
    <glyph glyph-name="two.LP" unicode="&#xe537;" horiz-adv-x="452" 
d="M416 80v-80h-381v71c160 129 279 217 279 345c0 72 -39 110 -102 110c-62 0 -97 -38 -97 -93c0 -38 22 -72 50 -95l-75 -37c-27 21 -63 70 -63 133c0 84 58 167 188 167c107 0 192 -54 192 -182c0 -169 -168 -283 -264 -335v-4h273z" />
    <glyph glyph-name="three.LP" unicode="&#xe538;" horiz-adv-x="446" 
d="M244 310v-5c106 -6 162 -64 162 -157c0 -102 -89 -160 -199 -160c-116 0 -188 53 -200 137l88 21c11 -61 50 -90 114 -90s105 36 105 97c0 70 -42 110 -169 116v69c133 15 157 51 157 114c0 48 -36 73 -90 73c-47 0 -81 -22 -91 -78l-89 20c16 79 79 134 185 134
c96 0 179 -45 179 -145c0 -84 -51 -137 -152 -146z" />
    <glyph glyph-name="four.LP" unicode="&#xe539;" horiz-adv-x="513" 
d="M300 0v154h-284v61l285 374h90v-363h96v-72h-96v-154h-91zM300 226v148c0 69 4 114 4 114h-4s-18 -36 -59 -93l-78 -106c-32 -43 -55 -63 -55 -63v-4s19 4 77 4h115z" />
    <glyph glyph-name="five.LP" unicode="&#xe53a;" horiz-adv-x="457" 
d="M78 272l11 317h303v-80h-227l-6 -174c20 19 45 30 84 30c99 0 169 -62 169 -183c0 -129 -85 -194 -205 -194s-178 54 -189 140l80 24c10 -66 48 -97 113 -97s114 37 114 122c0 79 -42 121 -109 121c-32 0 -52 -13 -70 -26h-68z" />
    <glyph glyph-name="six.LP" unicode="&#xe53b;" horiz-adv-x="508" 
d="M460 488l-74 -38c-19 53 -54 77 -103 77c-98 0 -149 -95 -150 -272h3c18 81 73 119 146 119c120 0 187 -84 187 -189c0 -109 -73 -197 -204 -197s-216 96 -216 288c0 223 110 325 238 325c84 0 143 -40 173 -113zM153 178c0 -73 50 -119 115 -119c66 0 115 46 115 119
c0 76 -49 122 -115 122c-65 0 -115 -46 -115 -122z" />
    <glyph glyph-name="seven.LP" unicode="&#xe53c;" horiz-adv-x="434" 
d="M312 509h-219v-73h-82v153h402v-61l-211 -528h-94z" />
    <glyph glyph-name="eight.LP" unicode="&#xe53d;" horiz-adv-x="494" 
d="M247 -12c-124 0 -203 62 -203 161c0 76 46 127 111 148v5c-70 22 -99 74 -99 139c0 96 76 160 191 160c114 0 191 -64 191 -160c0 -65 -29 -117 -100 -139v-5c66 -21 112 -72 112 -148c0 -99 -79 -161 -203 -161zM247 535c-66 0 -101 -39 -101 -96
c0 -72 43 -103 101 -103s101 31 101 103c0 57 -35 96 -101 96zM247 265c-62 0 -114 -35 -114 -104c0 -65 43 -106 114 -106s113 41 113 106c0 69 -51 104 -113 104z" />
    <glyph glyph-name="nine.LP" unicode="&#xe53e;" horiz-adv-x="519" 
d="M37 101l73 39c19 -51 55 -81 116 -81c132 0 164 133 161 283h-4c-14 -88 -75 -130 -150 -130c-119 0 -188 86 -188 188c0 108 69 201 203 201c136 0 222 -92 222 -285c0 -220 -87 -328 -247 -328c-96 0 -157 40 -186 113zM362 408c0 74 -52 120 -115 120
c-67 0 -116 -46 -116 -120c0 -77 49 -124 116 -124c63 0 115 47 115 124z" />
    <glyph glyph-name="zero.LT" unicode="&#xe53f;" horiz-adv-x="570" 
d="M285 -12c-150 0 -232 129 -232 306c0 168 87 307 232 307s232 -139 232 -307c0 -177 -82 -306 -232 -306zM284 521c-88 0 -140 -96 -140 -229c0 -130 52 -229 140 -229s141 99 141 229c0 133 -53 229 -141 229z" />
    <glyph glyph-name="one.LT" unicode="&#xe541;" horiz-adv-x="570" 
d="M487 0h-392v80h159v411l-154 -22v82l244 39v-510h143v-80z" />
    <glyph glyph-name="two.LT" unicode="&#xe542;" horiz-adv-x="570" 
d="M496 80v-80h-400v71c160 129 279 217 279 345c0 72 -38 110 -102 110c-61 0 -97 -38 -97 -93c0 -38 23 -72 50 -95l-75 -37c-27 21 -63 70 -63 133c0 84 59 167 189 167c106 0 191 -54 191 -182c0 -169 -168 -283 -263 -335v-4h291z" />
    <glyph glyph-name="three.LT" unicode="&#xe543;" horiz-adv-x="570" 
d="M302 310v-5c106 -6 163 -64 163 -157c0 -102 -90 -160 -199 -160c-116 0 -189 53 -200 137l88 21c10 -61 50 -90 113 -90c65 0 106 36 106 97c0 70 -42 110 -170 116v69c133 15 158 51 158 114c0 48 -36 73 -90 73c-48 0 -81 -22 -92 -78l-88 20c16 79 79 134 185 134
c96 0 179 -45 179 -145c0 -84 -51 -137 -153 -146z" />
    <glyph glyph-name="four.LT" unicode="&#xe544;" horiz-adv-x="570" 
d="M333 0v154h-284v61l285 374h90v-363h97v-72h-97v-154h-91zM333 226v145c0 69 4 114 4 114h-4s-18 -36 -59 -93l-75 -103c-32 -43 -55 -63 -55 -63v-4s19 4 78 4h111z" />
    <glyph glyph-name="five.LT" unicode="&#xe545;" horiz-adv-x="570" 
d="M137 272l12 317h303v-80h-227l-6 -174c19 19 45 30 84 30c98 0 169 -62 169 -183c0 -129 -85 -194 -205 -194s-178 54 -189 140l79 24c11 -66 49 -97 114 -97s114 37 114 122c0 79 -42 121 -109 121c-32 0 -53 -13 -70 -26h-69z" />
    <glyph glyph-name="six.LT" unicode="&#xe546;" horiz-adv-x="570" 
d="M489 488l-73 -38c-19 53 -55 77 -104 77c-97 0 -148 -95 -149 -272h3c18 81 73 119 145 119c120 0 188 -84 188 -189c0 -109 -73 -197 -204 -197s-216 96 -216 288c0 223 110 325 238 325c83 0 143 -40 172 -113zM183 178c0 -73 50 -119 114 -119c67 0 115 46 115 119
c0 76 -48 122 -115 122c-64 0 -114 -46 -114 -122z" />
    <glyph glyph-name="seven.LT" unicode="&#xe547;" horiz-adv-x="570" 
d="M376 509h-218v-73h-82v153h402v-61l-212 -528h-93z" />
    <glyph glyph-name="eight.LT" unicode="&#xe548;" horiz-adv-x="570" 
d="M285 -12c-124 0 -203 62 -203 161c0 76 46 127 111 148v5c-70 22 -99 74 -99 139c0 96 77 160 191 160s191 -64 191 -160c0 -65 -29 -117 -99 -139v-5c65 -21 111 -72 111 -148c0 -99 -79 -161 -203 -161zM285 535c-66 0 -101 -39 -101 -96c0 -72 43 -103 101 -103
s101 31 101 103c0 57 -35 96 -101 96zM285 265c-62 0 -114 -35 -114 -104c0 -65 43 -106 114 -106s114 41 114 106c0 69 -52 104 -114 104z" />
    <glyph glyph-name="nine.LT" unicode="&#xe549;" horiz-adv-x="570" 
d="M62 101l73 39c19 -51 55 -81 116 -81c132 0 164 133 161 283h-4c-14 -88 -75 -130 -149 -130c-120 0 -189 86 -189 188c0 108 69 201 203 201c136 0 222 -92 222 -285c0 -220 -87 -328 -246 -328c-97 0 -158 40 -187 113zM387 408c0 74 -52 120 -114 120
c-67 0 -117 -46 -117 -120c0 -77 50 -124 117 -124c62 0 114 47 114 124z" />
    <glyph glyph-name="zero.OT" unicode="&#xe555;" horiz-adv-x="570" 
d="M285 -12c-157 0 -245 111 -245 252c0 140 88 253 245 253c156 0 244 -113 244 -253c0 -141 -88 -252 -244 -252zM285 415c-101 0 -155 -76 -155 -176c0 -103 54 -175 155 -175s154 72 154 175c0 100 -53 176 -154 176z" />
    <glyph glyph-name="one.OT" unicode="&#xe557;" horiz-adv-x="570" 
d="M503 0h-420v75h170v318l-155 -22v77l244 39v-412h161v-75z" />
    <glyph glyph-name="two.OT" unicode="&#xe558;" horiz-adv-x="570" 
d="M480 75v-75h-381v70c182 88 258 167 258 260c0 58 -35 87 -87 87c-48 0 -83 -31 -89 -98l-83 18c15 117 97 156 181 156c90 0 170 -46 170 -158c0 -128 -114 -220 -238 -256v-4h269z" />
    <glyph glyph-name="three.OT" unicode="&#xe559;" horiz-adv-x="570" 
d="M288 193v-5c100 -9 164 -73 164 -161c0 -105 -88 -165 -195 -165c-113 0 -183 54 -195 140l86 21c11 -62 49 -92 111 -92c63 0 103 37 103 99c0 66 -44 112 -168 123v69c129 15 157 57 157 119c0 51 -40 79 -87 79c-46 0 -82 -24 -92 -84l-85 21c17 81 79 136 181 136
c93 0 174 -46 174 -149c0 -81 -56 -141 -154 -151z" />
    <glyph glyph-name="four.OT" unicode="&#xe55a;" horiz-adv-x="570" 
d="M333 -131v178h-284v60l285 374h89v-363h98v-71h-98v-178h-90zM218 118h115v149c0 69 4 114 4 114h-4s-18 -36 -59 -93l-79 -107c-32 -43 -55 -63 -55 -63v-4s19 4 78 4z" />
    <glyph glyph-name="five.OT" unicode="&#xe55b;" horiz-adv-x="570" 
d="M135 153l12 328h296v-79h-221l-7 -191c21 18 50 29 88 29c91 0 167 -64 167 -185c0 -129 -88 -194 -206 -194c-110 0 -178 54 -188 140l79 24c10 -66 53 -98 114 -98c65 0 116 38 116 121s-44 126 -112 126c-31 0 -53 -10 -69 -21h-69z" />
    <glyph glyph-name="six.OT" unicode="&#xe55c;" horiz-adv-x="570" 
d="M496 488l-74 -38c-19 53 -54 77 -103 77c-97 0 -154 -97 -155 -275h4c17 81 78 122 150 122c120 0 188 -84 188 -189c0 -109 -74 -197 -208 -197c-128 0 -213 96 -213 288c0 223 110 325 238 325c83 0 143 -40 173 -113zM189 179c0 -73 51 -119 115 -119
c66 0 117 46 117 119c0 76 -51 122 -117 122c-64 0 -115 -46 -115 -122z" />
    <glyph glyph-name="seven.OT" unicode="&#xe55d;" horiz-adv-x="570" 
d="M385 402h-214v-75h-82v154h392v-62l-222 -550h-89z" />
    <glyph glyph-name="eight.OT" unicode="&#xe55e;" horiz-adv-x="570" 
d="M285 -12c-124 0 -203 62 -203 161c0 76 48 127 113 148v5c-70 22 -101 74 -101 139c0 96 77 160 191 160s191 -64 191 -160c0 -65 -31 -117 -101 -139v-5c65 -21 113 -72 113 -148c0 -99 -79 -161 -203 -161zM285 536c-66 0 -103 -40 -103 -96c0 -73 45 -104 103 -104
s103 31 103 104c0 56 -37 96 -103 96zM285 265c-62 0 -115 -35 -115 -104c0 -65 44 -107 115 -107s115 42 115 107c0 69 -53 104 -115 104z" />
    <glyph glyph-name="nine.OT" unicode="&#xe55f;" horiz-adv-x="570" 
d="M56 -25l73 37c18 -52 55 -81 115 -81c134 0 166 154 166 303h-4c-14 -88 -75 -130 -149 -130c-119 0 -189 86 -189 188c0 108 69 201 204 201s218 -92 218 -285c0 -220 -88 -346 -249 -346c-96 0 -157 40 -185 113zM386 300c0 75 -53 121 -116 121
c-67 0 -119 -46 -119 -121c0 -78 52 -125 119 -125c63 0 116 47 116 125z" />
    <glyph glyph-name="a.school" unicode="&#xe151;" 
d="M372 183v104c0 81 -62 116 -115 116c-68 0 -124 -47 -124 -177c0 -109 48 -167 123 -167c51 0 116 41 116 124zM374 402l27 60h61v-462h-80l-10 80c-26 -70 -81 -92 -147 -92c-96 0 -183 79 -183 235c0 157 75 250 207 250c61 0 110 -33 125 -71z" />
    <glyph glyph-name="g.school" unicode="&#xe161;" 
d="M401 462h61v-446c0 -169 -118 -227 -222 -227c-119 0 -179 49 -207 122l75 42c18 -54 59 -93 131 -93c77 0 133 48 133 145v78c-27 -70 -82 -92 -148 -92c-93 0 -182 75 -182 233c0 152 75 249 206 249c61 0 111 -33 126 -72zM372 187v100c0 80 -62 116 -115 116
c-68 0 -124 -47 -124 -177c0 -108 48 -165 123 -165c50 0 116 39 116 126z" />
    <glyph glyph-name="y.school" unicode="&#xe16b;" horiz-adv-x="508" 
d="M66 462h90v-303c0 -69 26 -101 83 -101c50 0 107 45 107 134v270h90v-456c0 -155 -91 -217 -213 -217c-107 0 -162 48 -189 121l73 42c17 -56 55 -93 117 -93c86 0 122 48 122 136v82c-20 -63 -72 -86 -139 -86c-84 0 -141 43 -141 153v318z" />
    <glyph glyph-name="caronSlovak" unicode="&#xe413;" horiz-adv-x="263" 
d="M192 668l-52 -180h-66l16 180h102z" />
    <glyph glyph-name="invertedbreve" unicode="&#xe411;" horiz-adv-x="432" 
d="M216 672c88 0 136 -57 136 -141h-71c-3 44 -15 74 -65 74c-51 0 -62 -30 -65 -74h-71c0 84 48 141 136 141z" />
    <glyph glyph-name="doublegrave" unicode="&#xe412;" horiz-adv-x="493" 
d="M413 529h-67l-104 146h109zM266 529h-71l-115 146h113z" />
    <glyph glyph-name="acute.cap" unicode="&#xe422;" horiz-adv-x="343" 
d="M162 653h-82l63 123h120z" />
    <glyph glyph-name="grave.cap" unicode="&#xe421;" horiz-adv-x="343" 
d="M263 653h-83l-100 123h120z" />
    <glyph glyph-name="circumflex.cap" unicode="&#xe423;" horiz-adv-x="465" 
d="M204 782h56l125 -129h-97l-31 33c-19 20 -23 34 -23 34h-3s-4 -14 -23 -34l-32 -33h-96z" />
    <glyph glyph-name="dieresis.cap" unicode="&#xe429;" horiz-adv-x="476" 
d="M80 713c0 35 27 60 59 60c33 0 60 -25 60 -60c0 -34 -27 -59 -60 -59c-32 0 -59 25 -59 59zM276 712c0 35 27 60 59 60c34 0 60 -25 60 -60c0 -33 -26 -59 -60 -59c-32 0 -59 26 -59 59z" />
    <glyph glyph-name="tilde.cap" unicode="&#xe424;" horiz-adv-x="472" 
d="M306 653c-31 0 -47 11 -72 24c-27 15 -40 25 -60 25c-21 0 -34 -13 -30 -47h-55c-25 64 9 126 74 126c35 0 54 -11 79 -26c27 -17 38 -24 55 -24c19 0 32 13 29 49h57c24 -70 -6 -127 -77 -127z" />
    <glyph glyph-name="ring.cap" unicode="&#xe42a;" horiz-adv-x="366" 
d="M183 635c-66 0 -103 44 -103 100c0 52 41 97 103 97s103 -45 103 -97c0 -56 -37 -100 -103 -100zM183 790c-34 0 -55 -24 -55 -57c0 -30 19 -53 55 -53s55 23 55 53c0 33 -21 57 -55 57z" />
    <glyph glyph-name="caron.cap" unicode="&#xe42d;" horiz-adv-x="465" 
d="M260 649h-56l-124 129h96l32 -33c19 -20 23 -34 23 -34h3s4 14 23 34l31 33h97z" />
    <glyph glyph-name="macron.cap" unicode="&#xe425;" horiz-adv-x="424" 
d="M344 674h-264v71h264v-71z" />
    <glyph glyph-name="breve.cap" unicode="&#xe426;" horiz-adv-x="431" 
d="M215 650c-87 0 -135 51 -135 131h71c3 -41 18 -65 64 -65s62 24 65 65h71c0 -80 -48 -131 -136 -131z" />
    <glyph glyph-name="invertedbreve.cap" unicode="&#xe427;" horiz-adv-x="431" 
d="M215 787c88 0 136 -52 136 -132h-71c-3 41 -19 66 -65 66s-61 -25 -64 -66h-71c0 80 48 132 135 132z" />
    <glyph glyph-name="hungarumlaut.cap" unicode="&#xe42b;" horiz-adv-x="493" 
d="M147 653h-67l62 123h109zM297 653h-71l74 123h113z" />
    <glyph glyph-name="doublegrave.cap" unicode="&#xe42c;" horiz-adv-x="493" 
d="M413 653h-67l-104 123h109zM266 653h-71l-115 123h113z" />
    <glyph glyph-name="dotaccent.cap" unicode="&#xe428;" horiz-adv-x="282" 
d="M80 727c0 36 27 60 60 60c35 0 62 -24 62 -60c0 -34 -27 -60 -62 -60c-33 0 -60 26 -60 60z" />
    <glyph glyph-name="Anocross" horiz-adv-x="569" 
d="M460 0l-129 369c-33 92 -47 152 -47 152h-4s-13 -59 -45 -151l-129 -370h-96l215 589h121l213 -589h-99z" />
    <glyph glyph-name="barredO" horiz-adv-x="619" 
d="M310 -12c-162 0 -266 110 -266 306c0 197 104 307 266 307s265 -110 265 -307c0 -196 -103 -306 -265 -306zM310 68c100 0 157 70 166 188h-334c10 -118 67 -188 168 -188zM310 520c-99 0 -156 -69 -167 -183h333c-11 114 -68 183 -166 183z" />
    <glyph glyph-name="Ndescender" horiz-adv-x="650" 
d="M567 -203h-92v205l-234 334c-37 53 -68 114 -68 114h-4s6 -63 6 -139v-311h-92v589h94l232 -337c35 -52 67 -112 67 -112h4s-5 63 -5 137v312h92v-792z" />
    <glyph glyph-name="barredo" horiz-adv-x="505" 
d="M252 -12c-127 0 -210 88 -210 246c0 157 83 239 210 239c128 0 211 -82 211 -239c0 -158 -83 -246 -211 -246zM252 59c73 0 113 47 121 141h-241c7 -94 48 -141 120 -141zM252 400c-70 0 -111 -43 -120 -131h240c-8 88 -49 131 -120 131z" />
    <glyph glyph-name="ndescender" horiz-adv-x="509" 
d="M143 462l11 -89c25 69 78 100 148 100c76 0 140 -42 140 -143v-534h-90v507c0 57 -26 92 -81 92c-56 0 -109 -30 -109 -130v-265h-90v462h71z" />
    <glyph glyph-name="doublebar" unicode="&#x2016;" horiz-adv-x="438" 
d="M177 -203h-77v872h77v-872zM338 -203h-77v872h77v-872z" />
    <glyph glyph-name="bullet.cap" unicode="&#xe466;" horiz-adv-x="330" 
d="M79 294c0 47 39 86 85 86c48 0 87 -39 87 -86c0 -46 -39 -85 -87 -85c-46 0 -85 39 -85 85z" />
    <glyph glyph-name="registered.superior" unicode="&#xe514;" horiz-adv-x="465" 
d="M45 413c0 111 84 188 186 188c105 0 189 -77 189 -188c0 -109 -84 -187 -189 -187c-102 0 -186 78 -186 187zM73 414c0 -94 71 -161 158 -161c88 0 160 67 160 161c0 93 -72 161 -160 161c-87 0 -158 -68 -158 -161zM322 316h-47c-5 7 -8 13 -11 22l-6 25
c-4 21 -21 28 -40 28h-16v-75h-41v201h78c45 0 74 -20 74 -62c0 -34 -23 -50 -55 -53c22 -2 37 -9 42 -30l8 -30c4 -10 7 -19 14 -26zM202 482v-61h26c34 0 45 13 45 31c0 19 -14 30 -39 30h-32z" />
    <glyph glyph-name="published" unicode="&#x2117;" horiz-adv-x="703" 
d="M380 244h-69v-131h-76v372h146c83 0 136 -37 136 -119c0 -86 -62 -122 -137 -122zM311 422v-115h59c52 0 71 20 71 57s-25 58 -71 58h-59zM45 294c0 178 137 307 306 307s307 -129 307 -307s-138 -306 -307 -306s-306 128 -306 306zM76 294c0 -162 124 -277 276 -277
s276 115 276 277s-124 278 -276 278s-276 -116 -276 -278z" />
    <glyph glyph-name="zero.inf" unicode="&#xe571;" horiz-adv-x="349" 
d="M175 -210c-94 0 -142 75 -142 184c0 108 54 184 142 184c87 0 141 -76 141 -184c0 -109 -48 -184 -141 -184zM175 95c-47 0 -70 -50 -70 -122c0 -70 24 -124 70 -124c45 0 70 54 70 124c0 72 -24 122 -70 122z" />
    <glyph glyph-name="one.inf" unicode="&#xe572;" horiz-adv-x="298" 
d="M286 -203h-254v56h96v228l-106 -11v58l178 23v-298h86v-56z" />
    <glyph glyph-name="two.inf" unicode="&#xe573;" horiz-adv-x="309" 
d="M288 -146v-57h-266v52c114 80 175 127 175 193c0 35 -20 53 -54 53c-40 0 -59 -30 -60 -68l-60 27c1 51 47 104 131 104c63 0 118 -34 118 -109c0 -100 -101 -159 -160 -191v-4h176z" />
    <glyph glyph-name="three.inf" unicode="&#xe574;" horiz-adv-x="317" 
d="M182 -19v-3c68 -6 98 -39 98 -91c0 -62 -55 -97 -135 -97c-78 0 -125 33 -135 81l62 25c8 -30 37 -52 74 -52c36 0 60 14 60 48c0 36 -23 59 -105 60v48c72 2 96 22 96 55c0 28 -20 46 -52 46c-28 0 -52 -15 -59 -46l-61 23c12 48 57 80 126 80c62 0 117 -27 117 -92
c0 -44 -24 -77 -86 -85z" />
    <glyph glyph-name="four.inf" unicode="&#xe575;" horiz-adv-x="342" 
d="M193 -203v86h-179v54l176 213h75v-213h57v-54h-57v-86h-72zM195 -64v84c0 40 4 71 4 71h-4s-10 -26 -35 -59l-42 -50c-24 -30 -48 -46 -48 -46v-4s15 4 56 4h69z" />
    <glyph glyph-name="five.inf" unicode="&#xe576;" horiz-adv-x="315" 
d="M50 -48l9 198h210v-59h-154l-5 -93c14 18 40 28 71 28c61 0 105 -38 105 -110c0 -83 -55 -126 -142 -126c-72 0 -119 34 -126 84l62 27c7 -39 33 -57 69 -57c40 0 67 21 67 67c0 42 -22 64 -56 64c-26 0 -41 -10 -52 -23h-58z" />
    <glyph glyph-name="six.inf" unicode="&#xe577;" horiz-adv-x="332" 
d="M299 90l-53 -30c-11 27 -32 40 -62 40c-54 0 -87 -52 -87 -150h4c8 43 41 73 95 73c66 0 111 -48 111 -113s-46 -120 -134 -120c-84 0 -140 56 -140 173c0 133 71 195 155 195c51 0 92 -23 111 -68zM114 -94c0 -40 28 -64 64 -64s64 24 64 64s-28 64 -63 64
c-37 0 -65 -24 -65 -64z" />
    <glyph glyph-name="seven.inf" unicode="&#xe578;" horiz-adv-x="298" 
d="M208 89h-127v-53h-62v114h268v-40l-141 -313h-73z" />
    <glyph glyph-name="eight.inf" unicode="&#xe579;" horiz-adv-x="348" 
d="M174 -50c-33 0 -65 -17 -65 -54c0 -35 25 -55 65 -55s65 20 65 55c0 37 -31 54 -65 54zM174 -210c-80 0 -137 34 -137 98c0 45 30 77 77 85v4c-45 7 -69 40 -69 80c0 63 53 101 129 101c77 0 129 -38 129 -101c0 -40 -24 -73 -69 -80v-4c47 -8 77 -40 77 -85
c0 -64 -56 -98 -137 -98zM174 106c-37 0 -64 -20 -64 -51c0 -33 32 -50 64 -50s64 17 64 50c0 31 -27 51 -64 51z" />
    <glyph glyph-name="nine.inf" unicode="&#xe57a;" horiz-adv-x="332" 
d="M29 -142l53 30c11 -27 33 -40 62 -40c57 0 91 52 91 150h-4c-8 -43 -42 -73 -95 -73c-67 0 -111 48 -111 113s46 120 134 120c84 0 140 -56 140 -173c0 -133 -72 -195 -156 -195c-51 0 -95 23 -114 68zM218 40c0 40 -29 64 -64 64c-36 0 -65 -24 -65 -64
c0 -39 29 -64 63 -64c37 0 66 25 66 64z" />
    <glyph glyph-name="plus.inf" unicode="&#xe57b;" horiz-adv-x="445" 
d="M45 4h153v148h45v-148h157v-46h-157v-161h-45v161h-153v46z" />
    <glyph glyph-name="minus.inf" unicode="&#xe57c;" horiz-adv-x="445" 
d="M400 -43h-355v47h355v-47z" />
    <glyph glyph-name="equal.inf" unicode="&#xe57d;" horiz-adv-x="445" 
d="M400 -99h-355v47h355v-47zM400 22h-355v47h355v-47z" />
    <glyph glyph-name="parenleft.inf" unicode="&#xe57e;" horiz-adv-x="230" 
d="M97 -29c0 -98 36 -158 91 -228h-58c-46 57 -85 125 -85 228c0 101 39 170 85 227h58c-55 -67 -91 -130 -91 -227z" />
    <glyph glyph-name="parenright.inf" unicode="&#xe57f;" horiz-adv-x="230" 
d="M136 -29c0 97 -36 160 -91 227h57c47 -57 86 -126 86 -227c0 -103 -39 -171 -86 -228h-57c55 70 91 130 91 228z" />
    <glyph glyph-name="a.superior" unicode="&#xe361;" horiz-adv-x="362" 
d="M211 380v43c-72 1 -101 -15 -101 -52c0 -25 14 -41 43 -41c27 0 58 16 58 50zM287 506v-143c0 -18 9 -23 20 -23c10 0 18 4 24 8v-55c-10 -7 -30 -11 -49 -11c-35 0 -60 12 -67 46c-15 -36 -49 -49 -89 -49c-53 0 -91 30 -91 82c0 67 50 107 176 103v28
c0 37 -18 53 -47 53s-47 -18 -49 -43l-70 10c5 65 63 89 124 89s118 -23 118 -95z" />
    <glyph glyph-name="b.superior" unicode="&#xe362;" horiz-adv-x="388" 
d="M135 461v-53c0 -57 34 -78 70 -78c48 0 78 35 78 110c0 71 -26 104 -72 104c-39 0 -76 -29 -76 -83zM132 325l-22 -38h-51v426h76v-178c17 44 50 66 100 66c76 0 125 -55 125 -154c0 -94 -51 -168 -139 -168c-45 0 -79 21 -89 46z" />
    <glyph glyph-name="c.superior" unicode="&#xe363;" horiz-adv-x="340" 
d="M246 382l65 -18c-11 -61 -64 -85 -125 -85c-84 0 -142 57 -142 159c0 101 58 163 145 163c68 0 114 -36 117 -97l-66 -14c-5 35 -20 53 -51 53c-48 0 -70 -43 -70 -103c0 -58 23 -104 72 -104c29 0 46 9 55 46z" />
    <glyph glyph-name="d.superior" unicode="&#xe364;" horiz-adv-x="403" 
d="M269 408v66c0 53 -36 72 -71 72c-38 0 -79 -28 -79 -110c0 -68 31 -102 77 -102c35 0 73 21 73 74zM269 553v160h75v-426h-59l-12 52c-24 -45 -57 -60 -103 -60c-65 0 -126 52 -126 153c0 105 52 169 143 169c42 0 74 -22 82 -48z" />
    <glyph glyph-name="e.superior" unicode="&#xe365;" horiz-adv-x="357" 
d="M193 334c33 0 55 15 61 46l62 -18c-13 -63 -68 -83 -129 -83c-84 0 -143 55 -143 157c0 103 58 165 146 165c84 0 128 -55 128 -133c0 -17 -2 -29 -5 -41h-194c0 -61 28 -93 74 -93zM121 472h124c1 4 1 9 1 13c-1 34 -18 63 -58 63c-42 0 -63 -25 -67 -76z" />
    <glyph glyph-name="f.superior" unicode="&#xe366;" horiz-adv-x="229" 
d="M66 534h-45v57h45v21c0 84 59 105 112 105c29 0 53 -7 72 -15l-10 -61c-17 11 -32 17 -54 17c-28 0 -44 -14 -44 -51v-16h79v-57h-79v-247h-76v247z" />
    <glyph glyph-name="g.superior" unicode="&#xe367;" horiz-adv-x="353" 
d="M166 601c38 0 68 -8 92 -23c15 9 22 27 26 50l59 -23c-4 -25 -31 -48 -59 -52c9 -16 15 -34 15 -54c0 -70 -59 -101 -133 -101c-14 0 -27 1 -38 4c-11 -5 -19 -14 -19 -25c0 -15 12 -22 30 -22h90c65 0 105 -31 105 -86c0 -78 -91 -97 -173 -97c-72 0 -140 15 -140 75
c0 34 26 62 80 66c-36 3 -51 25 -51 49c0 21 14 42 47 48c-39 16 -60 45 -60 89c0 64 53 102 129 102zM90 254c0 -27 32 -38 77 -38c62 0 96 11 96 45c0 21 -16 32 -44 32h-77c-30 0 -52 -14 -52 -39zM110 497c0 -35 20 -57 56 -57c37 0 59 18 59 57c0 38 -22 59 -59 59
c-36 0 -56 -23 -56 -59z" />
    <glyph glyph-name="h.superior" unicode="&#xe368;" horiz-adv-x="392" 
d="M135 713v-174c15 44 52 62 96 62c53 0 107 -29 107 -109v-205h-76v190c0 43 -17 65 -55 65c-29 0 -72 -11 -72 -93v-162h-76v426h76z" />
    <glyph glyph-name="i.superior" unicode="&#xe369;" horiz-adv-x="194" 
d="M50 677c0 28 23 48 48 48c29 0 50 -20 50 -48c0 -27 -21 -46 -50 -46c-25 0 -48 19 -48 46zM59 593h76v-306h-76v306z" />
    <glyph glyph-name="j.superior" unicode="&#xe36a;" horiz-adv-x="196" 
d="M61 593h76v-285c0 -89 -38 -135 -148 -135v62c56 0 72 13 72 84v274zM53 677c0 28 23 48 47 48c29 0 50 -20 50 -48c0 -27 -21 -46 -50 -46c-24 0 -47 19 -47 46z" />
    <glyph glyph-name="k.superior" unicode="&#xe36b;" horiz-adv-x="349" 
d="M219 453l120 -166h-90l-93 135h-21v-135h-76v426h76v-238h19l85 118h90z" />
    <glyph glyph-name="l.superior" unicode="&#xe36c;" horiz-adv-x="224" 
d="M187 356v-61c-16 -7 -33 -13 -61 -13c-41 0 -71 22 -71 73v358h76v-336c0 -22 9 -30 24 -30c12 0 21 3 32 9z" />
    <glyph glyph-name="m.superior" unicode="&#xe36d;" horiz-adv-x="572" 
d="M319 533c17 47 50 68 100 68c52 0 99 -29 99 -109v-205h-75v190c0 43 -18 65 -52 65c-32 0 -64 -16 -64 -94v-161h-76v190c0 43 -17 65 -52 65c-29 0 -64 -16 -64 -93v-162h-76v306h60l10 -59c16 47 49 67 97 67c41 0 83 -20 93 -68z" />
    <glyph glyph-name="o.superior" unicode="&#xe36e;" horiz-adv-x="382" 
d="M191 279c-88 0 -147 57 -147 163c0 104 59 159 147 159s147 -55 147 -159c0 -106 -59 -163 -147 -163zM191 548c-48 0 -70 -36 -70 -106c0 -73 22 -110 70 -110s70 37 70 110c0 70 -22 106 -70 106z" />
    <glyph glyph-name="p.superior" unicode="&#xe36f;" horiz-adv-x="404" 
d="M135 461v-53c0 -57 34 -78 70 -78c48 0 78 35 78 110c0 71 -26 104 -72 104c-39 0 -76 -29 -76 -83zM135 325v-146h-76v414h59l14 -58c18 43 55 66 103 66c76 0 125 -55 125 -154c0 -100 -51 -168 -139 -168c-45 0 -77 21 -86 46z" />
    <glyph glyph-name="q.superior" unicode="&#xe360;" horiz-adv-x="403" 
d="M269 408v66c0 53 -36 72 -71 72c-38 0 -79 -28 -79 -110c0 -68 31 -102 77 -102c35 0 73 21 73 74zM270 553l18 40h56v-414h-75v155c-24 -45 -53 -55 -99 -55c-65 0 -126 52 -126 153c0 105 52 169 143 169c42 0 76 -22 83 -48z" />
    <glyph glyph-name="r.superior" unicode="&#xe371;" horiz-adv-x="272" 
d="M252 601l-5 -86c-8 4 -18 5 -31 5c-44 0 -81 -30 -81 -93v-140h-76v306h67l7 -79c15 55 54 87 119 87z" />
    <glyph glyph-name="s.superior" unicode="&#xe372;" horiz-adv-x="319" 
d="M30 361l69 11c5 -31 25 -44 57 -44c30 0 54 13 54 39c0 20 -9 33 -45 41l-45 9c-51 12 -77 42 -77 92c0 68 60 92 120 92c67 0 109 -24 115 -84l-70 -7c-3 26 -17 40 -52 40c-27 0 -43 -11 -43 -36c0 -17 10 -31 41 -35l36 -8c65 -14 90 -46 90 -101
c0 -64 -55 -91 -124 -91c-74 0 -117 27 -126 82z" />
    <glyph glyph-name="t.superior" unicode="&#xe373;" horiz-adv-x="255" 
d="M219 358l12 -61c-21 -12 -50 -18 -78 -18c-57 0 -93 27 -93 87v168h-43v57h43v64l76 10v-74h78v-57h-78v-153c0 -27 10 -41 34 -41c17 0 33 5 49 18z" />
    <glyph glyph-name="u.superior" unicode="&#xe374;" horiz-adv-x="389" 
d="M271 287l-10 59c-16 -47 -56 -67 -100 -67c-54 0 -107 29 -107 109v205h76v-190c0 -43 17 -65 54 -65c29 0 70 11 70 93v162h76v-306h-59z" />
    <glyph glyph-name="v.superior" unicode="&#xe375;" horiz-adv-x="353" 
d="M133 287l-113 306h79l57 -168c19 -58 20 -95 20 -95h5s3 37 22 95l55 168h75l-110 -306h-90z" />
    <glyph glyph-name="w.superior" unicode="&#xe376;" horiz-adv-x="494" 
d="M280 593l41 -159c18 -61 21 -102 21 -102h4s-1 39 14 102l41 159h73l-84 -306h-88l-41 144c-11 40 -12 96 -12 96h-4s-1 -56 -12 -96l-39 -144h-87l-87 306h76l42 -158c17 -62 17 -103 17 -103h4s1 41 17 103l41 158h63z" />
    <glyph glyph-name="x.superior" horiz-adv-x="341" 
d="M242 287l-47 70c-23 36 -24 50 -24 50h-4s-1 -14 -24 -50l-46 -70h-77l102 154l-97 152h82l38 -64c22 -38 25 -56 25 -56h4s2 18 25 56l38 64h80l-98 -150l102 -156h-79z" />
    <glyph glyph-name="y.superior" unicode="&#xe378;" horiz-adv-x="342" 
d="M103 593l52 -149c20 -55 20 -89 20 -89h4s0 34 19 89l51 149h78l-121 -317c-33 -85 -76 -107 -134 -107c-16 0 -35 3 -48 7l3 58c13 -5 27 -8 43 -8c33 0 52 15 71 68l-119 299h81z" />
    <glyph glyph-name="z.superior" unicode="&#xe379;" horiz-adv-x="314" 
d="M279 287h-244v43l151 206h-146v57h235v-50l-151 -201h155v-55z" />
    <glyph glyph-name="cordinal" unicode="&#xe181;" horiz-adv-x="340" 
d="M246 382l65 -18c-11 -61 -64 -85 -125 -85c-84 0 -142 57 -142 159c0 101 58 163 145 163c68 0 114 -36 117 -97l-66 -14c-5 35 -20 53 -51 53c-48 0 -70 -43 -70 -103c0 -58 23 -104 72 -104c29 0 46 9 55 46z" />
    <glyph glyph-name="parenleft.cap" unicode="&#xe491;" horiz-adv-x="337" 
d="M66 295c0 168 74 279 163 373h102c-105 -113 -176 -214 -176 -373s71 -261 176 -374h-102c-89 94 -163 206 -163 374z" />
    <glyph glyph-name="parenright.cap" unicode="&#xe492;" horiz-adv-x="337" 
d="M271 295c0 -168 -74 -280 -163 -374h-102c105 113 176 215 176 374s-71 260 -176 373h102c89 -94 163 -205 163 -373z" />
    <glyph glyph-name="bracketleft.cap" unicode="&#xe493;" horiz-adv-x="328" 
d="M168 600v-610h123v-67h-208v745h208v-68h-123z" />
    <glyph glyph-name="bracketright.cap" unicode="&#xe494;" horiz-adv-x="328" 
d="M160 -10v610h-123v68h208v-745h-208v67h123z" />
    <glyph glyph-name="braceleft.cap" unicode="&#xe495;" horiz-adv-x="393" 
d="M149 297v-4c47 -6 83 -26 83 -101v-132c0 -51 13 -78 58 -78c27 0 43 6 61 16l16 -66c-32 -13 -61 -18 -96 -18c-94 0 -122 55 -122 137v133c0 67 -34 77 -69 77h-41v69h41c35 0 69 9 69 77v132c0 82 28 137 122 137c35 0 64 -5 96 -18l-16 -65c-18 9 -34 15 -61 15
c-45 0 -58 -26 -58 -78v-132c0 -78 -36 -94 -83 -101z" />
    <glyph glyph-name="braceright.cap" unicode="&#xe496;" horiz-adv-x="393" 
d="M244 293v4c-47 7 -83 23 -83 101v132c0 52 -13 78 -57 78c-27 0 -44 -6 -62 -15l-16 65c32 13 62 18 96 18c94 0 122 -55 122 -137v-132c0 -68 34 -77 69 -77h41v-69h-41c-35 0 -69 -10 -69 -77v-133c0 -82 -28 -137 -122 -137c-34 0 -64 5 -96 18l16 66
c18 -10 35 -16 62 -16c44 0 57 27 57 78v132c0 75 36 95 83 101z" />
    <glyph glyph-name="onethirdemdash" unicode="&#xe471;" horiz-adv-x="433" 
d="M68 220v64h297v-64h-297z" />
    <glyph glyph-name="threequarteremdash" unicode="&#xe472;" horiz-adv-x="361" 
d="M68 220v64h225v-64h-225z" />
    <glyph glyph-name="periodcentered.cap" unicode="&#xe481;" horiz-adv-x="286" 
d="M75 302c0 39 30 68 68 68s68 -29 68 -68c0 -38 -30 -68 -68 -68s-68 30 -68 68z" />
    <glyph glyph-name="hyphen.cap" unicode="&#xe482;" horiz-adv-x="366" 
d="M68 260v76h230v-76h-230z" />
    <glyph glyph-name="onethirdemdash.cap" unicode="&#xe483;" horiz-adv-x="433" 
d="M68 261v64h297v-64h-297z" />
    <glyph glyph-name="endash.cap" unicode="&#xe484;" horiz-adv-x="500" 
d="M68 261v64h364v-64h-364z" />
    <glyph glyph-name="threequarteremdash.cap" unicode="&#xe485;" horiz-adv-x="361" 
d="M68 261v64h225v-64h-225z" />
    <glyph glyph-name="emdash.cap" unicode="&#xe486;" horiz-adv-x="1000" 
d="M68 261v64h864v-64h-864z" />
    <glyph glyph-name="figuredash.cap" unicode="&#xe487;" horiz-adv-x="595" 
d="M68 261v64h459v-64h-459z" />
    <glyph glyph-name="anglebracketleft.cap" unicode="&#xe497;" horiz-adv-x="330" 
d="M292 -77h-88l-155 377l155 368h88l-152 -370z" />
    <glyph glyph-name="anglebracketright.cap" unicode="&#xe498;" horiz-adv-x="328" 
d="M125 -77h-88l152 375l-152 370h88l155 -368z" />
    <glyph glyph-name="Euro.LP" unicode="&#xe521;" horiz-adv-x="570" 
d="M367 212h-177c17 -90 65 -142 145 -142c66 0 107 27 145 92l70 -52c-50 -83 -113 -122 -222 -122c-124 0 -213 79 -237 224h-53v51h47v30c0 10 0 20 1 30h-48v50h53c25 147 120 228 253 228c100 0 169 -47 208 -142l-85 -42c-22 70 -68 105 -128 105
c-79 0 -131 -56 -149 -149h204l-10 -50h-200c-1 -10 -1 -20 -1 -30c0 -11 0 -21 1 -30h193z" />
    <glyph glyph-name="dollar.LP" unicode="&#xe522;" horiz-adv-x="489" 
d="M215 -106v95c-105 5 -167 51 -185 152l86 23c10 -63 47 -96 99 -104v199c-89 31 -164 70 -164 176c0 112 80 159 164 166v83h50v-83c95 -6 165 -50 174 -154l-91 -18c-5 56 -37 90 -83 99v-191l9 -3c90 -33 165 -69 165 -179c0 -105 -76 -156 -174 -165v-96h-50zM346 143
c0 44 -19 68 -81 96v-178c49 7 81 34 81 82zM144 443c0 -44 25 -66 71 -86v170c-43 -8 -71 -37 -71 -84z" />
    <glyph glyph-name="cent.LP" unicode="&#xe523;" horiz-adv-x="506" 
d="M248 -63v95c-116 10 -200 92 -200 250c0 149 81 237 200 252v83h50v-82c89 -3 143 -41 175 -117l-81 -44c-18 49 -48 80 -94 86v-355c46 5 77 27 105 76l70 -49c-40 -66 -96 -95 -175 -100v-95h-50zM141 286c0 -99 37 -163 107 -178v351c-69 -15 -107 -78 -107 -173z" />
    <glyph glyph-name="sterling.LP" unicode="&#xe524;" horiz-adv-x="470" 
d="M338 265h-127c6 -27 11 -52 11 -74c0 -66 -37 -105 -69 -116h177c31 0 62 6 72 47l66 -38c-13 -56 -58 -84 -126 -84h-303v77h30c31 0 67 37 67 106c0 23 -6 51 -15 82h-78v58h62c-10 38 -19 77 -19 114c0 120 85 164 173 164c85 0 144 -35 158 -126l-84 -22
c-8 44 -22 73 -75 73c-46 0 -80 -26 -80 -92c0 -35 8 -73 18 -111h142v-58z" />
    <glyph glyph-name="florin.LP" unicode="&#xe525;" horiz-adv-x="403" 
d="M51 0l53 286h-68l13 75h68l16 86c20 115 94 154 174 154c52 0 100 -20 124 -54l-53 -67c-21 31 -48 44 -79 44c-36 0 -64 -26 -74 -79l-17 -84h118l-13 -75h-118l-54 -286h-90z" />
    <glyph glyph-name="yen.LP" unicode="&#xe526;" horiz-adv-x="502" 
d="M459 190h-156v-190h-92v190h-146v51h136l-25 49h-111v51h84l-130 248h105l92 -187c34 -67 41 -100 41 -100h4s6 33 38 100l87 187h97l-122 -248h98v-51h-123l-24 -49h147v-51z" />
    <glyph glyph-name="uni20A1.LP" unicode="&#xe527;" horiz-adv-x="498" 
d="M102 4l32 94c-56 40 -90 110 -90 211c0 163 97 254 235 254h14l29 84l47 -16l-26 -75c16 -3 31 -9 44 -16l28 81l47 -16l-33 -97c16 -17 29 -38 40 -63l-76 -41l-93 -272c44 6 73 29 99 75l70 -48c-43 -71 -105 -100 -194 -101l-33 -96l-47 16l28 84c-15 2 -30 6 -44 12
l-29 -87zM135 313c0 -54 10 -96 29 -126l104 304c-85 -4 -133 -71 -133 -178zM205 148c12 -7 27 -12 43 -15l110 322c-11 12 -24 22 -39 28z" />
    <glyph glyph-name="uni20A2.LP" unicode="&#xe528;" horiz-adv-x="549" 
d="M484 323l-6 -95c-10 3 -24 4 -39 4c-63 0 -108 -50 -108 -137v-28c50 9 86 38 118 92l66 -49c-50 -83 -114 -122 -224 -122c-146 0 -246 109 -246 305c0 197 105 308 262 308c102 0 171 -47 210 -142l-86 -42c-23 70 -69 106 -130 106c-101 0 -157 -88 -157 -229
c0 -116 34 -196 103 -221v241h71l10 -112c18 79 66 122 156 121z" />
    <glyph glyph-name="uni20A3.LP" unicode="&#xe529;" horiz-adv-x="434" 
d="M359 220h-178v-220h-92v220h-55v50h55v50h-55v50h55v219h347v-80h-255v-139h178v-50h-178v-50h178v-50z" />
    <glyph glyph-name="uni20A4.LP" unicode="&#xe52a;" horiz-adv-x="464" 
d="M361 212h-146c1 -8 1 -14 1 -21c0 -66 -37 -105 -70 -116h177c31 0 62 6 72 47l67 -38c-14 -56 -59 -84 -126 -84h-304v77h30c32 0 67 37 67 106c0 9 -1 19 -3 29h-90v50h79c-5 16 -9 33 -14 50h-65v50h52c-5 25 -9 50 -9 75c0 120 86 164 173 164c85 0 145 -35 158 -126
l-83 -22c-9 44 -23 73 -76 73c-46 0 -79 -26 -79 -92c0 -23 3 -47 9 -72h180v-50h-168l12 -50h156v-50z" />
    <glyph glyph-name="uni20A6.LP" unicode="&#xe52b;" horiz-adv-x="666" 
d="M646 220h-87v-220h-91l-211 324c-36 54 -64 126 -64 126h-4s6 -63 6 -139v-311h-92v220h-83v50h83v50h-83v50h83v219h94l210 -329c34 -52 61 -120 61 -120h4s-5 63 -5 137v312h92v-219h87v-50h-87v-50h87v-50z" />
    <glyph glyph-name="uni20A7.LP" unicode="&#xe52c;" horiz-adv-x="1185" 
d="M647 0h-91v405h-87c-1 -117 -68 -189 -199 -189h-95v-216h-92v589h178c111 0 173 -40 197 -108h299c21 88 103 121 183 121c108 0 190 -42 199 -155l-90 -18c-6 65 -50 99 -108 99c-56 0 -96 -30 -96 -85c0 -59 47 -79 129 -109c91 -33 166 -69 166 -179
c0 -116 -93 -167 -205 -167c-117 0 -186 46 -204 153l86 23c12 -72 59 -105 123 -105c63 0 106 29 106 84c0 52 -26 77 -122 113c-83 29 -156 62 -170 149h-107v-405zM175 512v-220h85c87 0 114 44 114 111c0 71 -40 109 -115 109h-84z" />
    <glyph glyph-name="uni20A8.LP" unicode="&#xe52d;" horiz-adv-x="908" 
d="M175 512v-196h108c74 0 109 31 109 98c0 61 -35 98 -108 98h-109zM287 589c135 0 201 -57 201 -168c0 -93 -72 -145 -146 -149v-2c56 -7 86 -40 131 -85l61 -58c22 -20 70 -72 156 -72c52 0 90 17 90 59c0 38 -17 59 -70 73l-67 16c-81 20 -112 63 -112 131
c0 104 83 139 168 139c95 0 153 -35 162 -125l-85 -10c-3 46 -30 67 -82 67c-50 0 -79 -23 -79 -62c0 -33 13 -54 62 -65l61 -15c79 -20 125 -58 125 -139c0 -99 -76 -136 -179 -136c-124 0 -184 51 -244 107l-63 59c-50 50 -80 85 -149 85h-53v-239h-92v589h204z" />
    <glyph glyph-name="uni20A9.LP" unicode="&#xe52e;" horiz-adv-x="906" 
d="M884 220h-126l-57 -220h-132l-89 347c-24 91 -25 156 -25 156h-4s-5 -64 -28 -156l-88 -347h-131l-57 220h-125v50h112l-13 50h-99v50h86l-56 219h99l91 -367c23 -91 32 -159 32 -159h4s6 67 29 158l96 368h107l92 -369c23 -92 31 -157 31 -157h4s8 66 30 156l93 370h94
l-57 -219h87v-50h-100l-13 -50h113v-50z" />
    <glyph glyph-name="uni20AA.LP" unicode="&#xe52f;" horiz-adv-x="713" 
d="M477 124h-87v325c0 38 -14 69 -72 69h-143v-518h-92v590h251c118 0 143 -61 143 -152v-314zM545 590h92v-438c0 -91 -25 -152 -144 -152h-253v466h87v-394h147c55 0 71 31 71 69v449z" />
    <glyph glyph-name="uni20AE.LP" unicode="&#xe520;" horiz-adv-x="474" 
d="M283 0h-93v193l-107 -18v51l107 18v49l-107 -18v51l107 18v165h-171v80h436v-80h-172v-149l106 18v-51l-106 -18v-49l106 18v-51l-106 -18v-209z" />
    <glyph glyph-name="uni20B1.LP" unicode="&#xe531;" horiz-adv-x="547" 
d="M537 371h-69c-13 -96 -79 -155 -196 -155h-95v-216h-92v371h-75v51h75v167h178c140 0 202 -63 207 -167h67v-51zM177 513v-91h197c-7 59 -45 91 -113 91h-84zM262 290c71 0 102 31 110 81h-195v-81h85z" />
    <glyph glyph-name="uni0E3F.LP" unicode="&#xe532;" horiz-adv-x="529" 
d="M246 -106v106h-163v589h163v95h50v-96c107 -5 165 -54 165 -149c0 -77 -44 -124 -106 -135v-3c73 -7 130 -53 130 -136c0 -96 -59 -159 -189 -165v-106h-50zM392 173c0 48 -28 80 -96 84v-180c60 4 96 33 96 96zM175 331h71v181h-71v-181zM175 258v-181h71v181h-71z
M368 422c0 51 -26 78 -72 87v-176c44 8 72 36 72 89z" />
    <glyph glyph-name="numbersign.LP" unicode="&#xe533;" horiz-adv-x="609" 
d="M553 192h-158l-58 -192h-69l58 192h-105l-58 -192h-69l58 192h-116v67h136l25 82h-141v67h161l55 180h70l-55 -180h103l55 180h71l-55 -180h112v-67h-132l-25 -82h137v-67zM267 341l-25 -82h104l24 82h-103z" />
    <glyph glyph-name="at.cap" unicode="&#xe513;" horiz-adv-x="879" 
d="M528 230v87c0 68 -53 97 -95 97c-56 0 -103 -39 -103 -149c0 -89 40 -137 102 -137c42 0 96 31 96 102zM611 470v-302c0 -40 16 -53 42 -53c78 0 111 90 111 213c0 191 -147 280 -311 280c-172 0 -336 -109 -336 -338c0 -236 164 -340 362 -340c64 0 122 8 184 30l15 -59
c-61 -20 -129 -31 -200 -31c-230 1 -433 112 -433 400c0 232 161 397 411 397c253 0 378 -154 378 -335c0 -166 -54 -273 -193 -273c-58 0 -105 21 -111 83c-22 -63 -70 -83 -129 -83c-83 0 -158 67 -158 203s64 217 179 217c55 0 97 -27 110 -61l25 52h54z" />
    <glyph glyph-name="exclamdown.cap" unicode="&#xe441;" horiz-adv-x="229" 
d="M172 0h-115l27 415h61zM51 533c0 35 28 62 63 62c36 0 64 -27 64 -62c0 -36 -28 -62 -64 -62c-35 0 -63 26 -63 62z" />
    <glyph glyph-name="questiondown.cap" unicode="&#xe444;" horiz-adv-x="394" 
d="M314 158l80 -29c-18 -84 -80 -141 -189 -141c-114 0 -188 72 -188 175c0 122 91 177 173 179v82h82v-134h-36c-76 0 -126 -35 -126 -120c0 -73 42 -106 101 -106c53 0 93 28 103 94zM294 533c0 -36 -27 -62 -63 -62s-64 26 -64 62c0 35 28 62 64 62s63 -27 63 -62z" />
    <glyph glyph-name="guilsinglleft.cap" unicode="&#xe451;" horiz-adv-x="294" 
d="M110 295v-4s18 -6 55 -51l99 -116l-49 -43l-185 213l185 213l49 -49l-99 -114c-38 -44 -55 -49 -55 -49z" />
    <glyph glyph-name="guilsinglright.cap" unicode="&#xe452;" horiz-adv-x="294" 
d="M184 291v4s-16 5 -55 49l-99 114l49 49l185 -213l-185 -213l-48 43l98 116c38 45 55 51 55 51z" />
    <glyph glyph-name="guillemotleft.cap" unicode="&#xe453;" horiz-adv-x="485" 
d="M301 295v-4s17 -6 55 -51l98 -116l-48 -43l-186 213l186 213l48 -49l-99 -114c-38 -44 -54 -49 -54 -49zM110 295v-4s18 -6 55 -51l99 -116l-49 -43l-185 213l185 213l49 -49l-99 -114c-38 -44 -55 -49 -55 -49z" />
    <glyph glyph-name="guillemotright.cap" unicode="&#xe454;" horiz-adv-x="485" 
d="M184 291v4s-16 5 -55 49l-99 114l49 49l185 -213l-185 -213l-48 43l98 116c38 45 55 51 55 51zM374 291v4s-16 5 -55 49l-99 114l49 49l186 -213l-186 -213l-48 43l98 116c38 45 55 51 55 51z" />
    <glyph glyph-name="plus.cap" unicode="&#xe591;" horiz-adv-x="498" 
d="M45 328h175v170h54v-170h179v-54h-179v-184h-54v184h-175v54z" />
    <glyph glyph-name="minus.cap" unicode="&#xe592;" horiz-adv-x="498" 
d="M453 274h-408v54h408v-54z" />
    <glyph glyph-name="multiply.cap" unicode="&#xe593;" horiz-adv-x="445" 
d="M45 166l136 136l-132 133l37 38l133 -133l140 139l37 -37l-139 -140l143 -143l-37 -37l-144 142l-137 -136z" />
    <glyph glyph-name="divide.cap" unicode="&#xe594;" horiz-adv-x="498" 
d="M453 274h-408v54h408v-54zM199 127c0 26 21 46 47 46c25 0 46 -20 46 -46c0 -25 -21 -45 -46 -45c-26 0 -47 20 -47 45zM199 468c0 26 21 48 47 48c25 0 46 -22 46 -48c0 -24 -21 -45 -46 -45c-26 0 -47 21 -47 45z" />
    <glyph glyph-name="equal.cap" unicode="&#xe595;" horiz-adv-x="498" 
d="M453 207h-408v53h408v-53zM453 338h-408v53h408v-53z" />
    <glyph glyph-name="less.cap" unicode="&#xe596;" horiz-adv-x="384" 
d="M333 470l-207 -170l207 -172l-36 -42l-252 214l253 212z" />
    <glyph glyph-name="greater.cap" unicode="&#xe597;" horiz-adv-x="384" 
d="M253 300l-206 170l35 42l252 -212l-251 -214l-37 42z" />
    <glyph glyph-name="reversequoteleft" unicode="&#x201b;" horiz-adv-x="228" 
d="M38 590c0 55 35 88 76 88c39 0 67 -22 67 -62c0 -39 -31 -64 -72 -56c0 -45 32 -67 81 -74v-43c-92 5 -152 48 -152 147z" />
    <glyph glyph-name="reversequotedblleft" unicode="&#x201f;" horiz-adv-x="421" 
d="M38 590c0 54 35 88 76 88c39 0 67 -23 67 -62c0 -40 -31 -64 -72 -56c0 -45 32 -67 81 -74v-43c-91 5 -152 47 -152 147zM231 590c0 54 35 88 76 88c39 0 67 -23 67 -62c0 -40 -31 -64 -72 -56c0 -45 32 -67 81 -74v-43c-91 5 -152 47 -152 147z" />
    <glyph glyph-name="slash.cap" unicode="&#xe461;" horiz-adv-x="336" 
d="M10 -77l234 745h82l-236 -745h-80z" />
    <glyph glyph-name="backslash.cap" unicode="&#xe462;" horiz-adv-x="336" 
d="M92 668l234 -745h-80l-236 745h82z" />
    <glyph glyph-name="bar.cap" unicode="&#xe463;" horiz-adv-x="277" 
d="M177 -77h-77v745h77v-745z" />
    <glyph glyph-name="doublebar.cap" unicode="&#xe464;" horiz-adv-x="438" 
d="M177 -77h-77v745h77v-745zM338 -77h-77v745h77v-745z" />
    <glyph glyph-name="brokenbar.cap" unicode="&#xe465;" horiz-adv-x="277" 
d="M177 322h-77v347h77v-347zM177 -77h-77v309h77v-309z" />
    <glyph glyph-name="altcedilla" unicode="&#xe416;" horiz-adv-x="347" 
d="M267 -129c0 -57 -41 -85 -100 -85c-43 0 -75 16 -87 40l24 49c30 -40 99 -48 99 4c0 29 -24 46 -69 46l5 42c71 8 128 -29 128 -96z" />
    </font>
</defs>
</svg>
