<?xml version="1.0" standalone="no"?>
<!DOCTYPE svg PUBLIC "-//W3C//DTD SVG 1.1//EN" "http://www.w3.org/Graphics/SVG/1.1/DTD/svg11.dtd" >
<svg xmlns="http://www.w3.org/2000/svg" xmlns:xlink="http://www.w3.org/1999/xlink" version="1.1">
<metadata>
Created by FontForge 20161116 at Fri Jul 20 03:08:08 2012
 By Jimmy Warting
(c) 1999-2010 Typodermic Fonts. This font is not freely distributable. Visit typodermic.com for more info.
</metadata>
<defs>
<font id="NasalizationRg-Regular" horiz-adv-x="649" >
  <font-face 
    font-family="Nasalization Rg"
    font-weight="400"
    font-stretch="normal"
    units-per-em="1000"
    panose-1="2 0 5 5 2 0 0 2 0 4"
    ascent="731"
    descent="-269"
    cap-height="689"
    bbox="-194 -269 1329 931"
    underline-thickness="10"
    underline-position="-70"
    unicode-range="U+0017-F8FF"
  />
<missing-glyph horiz-adv-x="741" 
d="M20 -268v1051h701v-1051h-701zM290 64l-191 52l-51 -190l191 -51zM305 120q5 16 19 22t29 6q28 0 55 -9.5t58 -9.5q43 0 82 16t69 46.5t47.5 74.5t17.5 100q0 81 -46.5 137t-119.5 76l-386 103l-50 -187l377 -101q14 -4 21.5 -15.5t7.5 -24.5q0 -17 -11 -29.5t-22 -12.5
q-17 0 -33.5 3.5t-34 8t-35.5 8.5t-37 4q-71 0 -124 -39.5t-74 -125.5z" />
    <glyph glyph-name=".notdef" unicode="&#x28;P&#x29;" horiz-adv-x="741" 
d="M20 -268v1051h701v-1051h-701zM290 64l-191 52l-51 -190l191 -51zM305 120q5 16 19 22t29 6q28 0 55 -9.5t58 -9.5q43 0 82 16t69 46.5t47.5 74.5t17.5 100q0 81 -46.5 137t-119.5 76l-386 103l-50 -187l377 -101q14 -4 21.5 -15.5t7.5 -24.5q0 -17 -11 -29.5t-22 -12.5
q-17 0 -33.5 3.5t-34 8t-35.5 8.5t-37 4q-71 0 -124 -39.5t-74 -125.5z" />
    <glyph glyph-name="copyright" unicode="&#x28;C&#x29;" horiz-adv-x="760" 
d="M447 76q94 0 145 62.5t51 193.5q0 144 -50.5 212t-147.5 68h-129q-92 0 -144.5 -66.5t-52.5 -202.5t51 -201.5t145 -65.5h132zM339 0q-146 0 -222.5 83.5t-76.5 260.5t77 261t222 84h83q144 0 221.5 -84t77.5 -258q0 -177 -74.5 -262t-223.5 -85h-84zM365 168
q-162 0 -162 178t163 178h131v-64h-146q-42 0 -62 -27.5t-20 -87.5q0 -113 82 -113h146v-64h-132z" />
    <glyph glyph-name="registered" unicode="&#x28;R&#x29;" horiz-adv-x="760" 
d="M446 76q94 0 145.5 62.5t51.5 193.5q0 144 -51 212t-148 68h-128q-92 0 -144.5 -66.5t-52.5 -202.5t51 -201.5t145 -65.5h131zM339 0q-146 0 -222.5 83.5t-76.5 260.5q0 175 77.5 260t221.5 85h83q144 0 221.5 -84t77.5 -258q0 -177 -74.5 -262t-224.5 -85h-83zM295 264
v-111h-71v118q0 57 33.5 86.5t90.5 29.5h84q18 0 30.5 13t12.5 33q0 17 -13 31t-30 14h-208v70h197q34 0 58 -9.5t39 -25.5t21.5 -37t6.5 -44q0 -18 -5.5 -38t-20 -36t-38.5 -26.5t-61 -10.5h-60q-4 0 -8.5 -0.5t-9.5 -1.5l213 -91v-79z" />
    <glyph glyph-name="uni0017" horiz-adv-x="302" 
 />
    <glyph glyph-name="space" unicode=" " horiz-adv-x="302" 
 />
    <glyph glyph-name="exclam" unicode="!" horiz-adv-x="220" 
d="M50 121h121v-121h-121v121zM50 689h121v-451h-121v451z" />
    <glyph glyph-name="quotedbl" unicode="&#x22;" horiz-adv-x="392" 
d="M33 505zM53 505l-20 157v137h128v-137l-21 -157h-87zM249 505l-20 157v137h128v-137l-21 -157h-87z" />
    <glyph glyph-name="numbersign" unicode="#" horiz-adv-x="556" 
d="M346 244v128h-130v-128h130zM447 80h-101v60h-130v-60h-103v60h-66v104h66v128h-66v103h66v62h103v-62h130v62h101v-62h58v-103h-58v-128h58v-104h-58v-60z" />
    <glyph glyph-name="dollar" unicode="$" horiz-adv-x="512" 
d="M350 237q0 26 -15 35t-39 13v-98q23 2 38 11.5t16 38.5zM171 466q0 -32 16.5 -45t45.5 -14v117q-62 -3 -62 -58zM75 66v121h158v99q-93 6 -138 47t-45 131q0 93 44.5 134.5t138.5 45.5v45h63v-44h129v-121h-129v-119q41 -2 73.5 -11.5t55 -29.5t34.5 -51t12 -76
q0 -89 -45.5 -127t-129.5 -44v-66h-63v66h-158z" />
    <glyph glyph-name="percent" unicode="%" horiz-adv-x="815" 
d="M40 0zM215 415q81 0 81 107v4q0 113 -82 113h-33q-81 0 -81 -113v-4q0 -107 81 -107h34zM199 699q155 0 157 -171v-1q0 -172 -156 -172h-4q-156 0 -156 172v1q0 171 157 171h2zM97 0l530 689h92l-529 -689h-93zM634 50q81 0 81 107v4q0 113 -82 113h-33q-81 0 -81 -113
v-4q0 -107 81 -107h34zM618 334q155 0 157 -171v-1q0 -172 -156 -172h-4q-156 0 -156 172v1q0 171 157 171h2z" />
    <glyph glyph-name="ampersand" unicode="&#x26;" horiz-adv-x="662" 
d="M249 286q-32 0 -55 -24t-23 -56q0 -38 22 -62t57 -24h138v166h-139zM611 286h-101v-166h101v-120h-343q-60 0 -101.5 17.5t-67.5 46.5t-37.5 65.5t-11.5 74.5q0 42 18 80.5t47 62.5q-30 24 -47.5 63t-17.5 76q0 99 56.5 151t161.5 52h81v-121h-100q-32 0 -55 -24t-23 -56
q0 -34 22 -57.5t57 -23.5h361v-121z" />
    <glyph glyph-name="quotesingle" unicode="'" horiz-adv-x="196" 
d="M53 505l-20 157v137h128v-137l-21 -157h-87z" />
    <glyph glyph-name="parenleft" unicode="(" horiz-adv-x="334" 
d="M280 -144q-46 16 -84.5 43.5t-66 70.5t-43 103.5t-15.5 143.5v238q0 83 15.5 143.5t43 103t66 70t84.5 44.5l35 -77q-79 -30 -119 -98.5t-40 -183.5v-245q0 -117 40.5 -184.5t118.5 -96.5z" />
    <glyph glyph-name="parenright" unicode=")" horiz-adv-x="334" 
d="M28 -69q78 29 118.5 96.5t40.5 184.5v245q0 115 -40.5 183.5t-118.5 98.5l34 77q46 -17 84.5 -44.5t66.5 -70t43.5 -103t15.5 -143.5v-238q0 -83 -15.5 -143.5t-43.5 -103.5t-66.5 -70.5t-84.5 -43.5z" />
    <glyph glyph-name="asterisk" unicode="*" horiz-adv-x="477" 
d="M372 426l-83 -44l-50 98l-50 -98l-83 44l58 111h-126v95h123l-56 116l82 42l52 -104l53 104l83 -44l-59 -114h122v-95h-124z" />
    <glyph glyph-name="plus" unicode="+" horiz-adv-x="536" 
d="M222 104v203h-202v91h202v202h91v-202h204v-91h-204v-203h-91z" />
    <glyph glyph-name="comma" unicode="," horiz-adv-x="234" 
d="M194 1q0 -38 -14 -70t-38.5 -54.5t-58 -35t-72.5 -12.5v121q27 0 40.5 12.5t13.5 31.5v127h129v-120z" />
    <glyph glyph-name="hyphen" unicode="-" horiz-adv-x="354" 
d="M40 408h280v-123h-280v123z" />
    <glyph glyph-name="period" unicode="." horiz-adv-x="196" 
d="M33 121h128v-121h-128v121z" />
    <glyph glyph-name="slash" unicode="/" horiz-adv-x="497" 
d="M-9 -91l416 803h86l-415 -803h-87z" />
    <glyph glyph-name="zero" unicode="0" horiz-adv-x="712" 
d="M391 120q161 0 161 214v9q0 117 -40.5 171t-122.5 54h-66q-82 0 -122.5 -54t-40.5 -171v-9q0 -214 162 -214h69zM359 689q311 0 314 -342v-3q0 -344 -313 -344h-7q-313 0 -313 344v3q1 342 314 342h5z" />
    <glyph glyph-name="one" unicode="1" horiz-adv-x="323" 
d="M28 689q45 0 89 -15t79 -44t56.5 -73t21.5 -101v-456h-122v457q0 28 -9.5 49t-26 34.5t-39.5 20.5t-49 7v121z" />
    <glyph glyph-name="two" unicode="2" horiz-adv-x="763" 
d="M541 689q84 0 125.5 -44t41.5 -114q0 -51 -25.5 -91.5t-85.5 -66.5l-378 -165q-17 -8 -28 -21t-11 -30v-37h511v-120h-632v158q0 16 4 37t16 42.5t34 42.5t57 36l380 165q19 8 28.5 22.5t9.5 28.5q0 16 -9 26t-35 10h-459v121h456z" />
    <glyph glyph-name="three" unicode="3" 
d="M393 689q57 0 98 -15.5t67.5 -42.5t39 -64.5t12.5 -80.5q0 -37 -18 -76t-58 -63q40 -24 58 -62.5t18 -80.5q0 -38 -11.5 -75t-37.5 -65.5t-67 -46t-101 -17.5h-344v120h362q35 0 57 24t22 62q0 16 -6.5 30.5t-17 25.5t-24.5 17.5t-30 6.5h-163v121h162q35 0 57 23.5
t22 57.5q0 16 -6.5 30.5t-17 25.5t-24.5 17.5t-30 6.5h-363v121h344z" />
    <glyph glyph-name="four" unicode="4" horiz-adv-x="620" 
d="M175 332q-14 -20 -14 -40q0 -19 16.5 -31.5t48.5 -12.5h221v276q0 44 -35 44h-30q-14 0 -24.5 -1.5t-19 -5t-15.5 -10.5t-14 -19zM447 127h-258q-33 0 -60.5 14t-47 37t-30.5 53t-11 62q0 23 7 47.5t21 46.5l137 210q59 92 182 92h38q41 0 69 -9t45 -28t24.5 -49t7.5 -72
v-531h-124v127z" />
    <glyph glyph-name="five" unicode="5" horiz-adv-x="662" 
d="M586 568h-415v-161h245q96 0 146 -54.5t50 -148.5q0 -43 -14.5 -80t-40.5 -64.5t-62 -43.5t-79 -16h-367v121h367q16 0 29.5 7.5t24 19.5t16.5 27t6 30q0 32 -22 56.5t-54 24.5h-367v403h537v-121z" />
    <glyph glyph-name="six" unicode="6" horiz-adv-x="701" 
d="M162 286q15 -167 160 -166l144 1q31 0 53 25t22 58t-21 57.5t-54 24.5h-304zM353 0q-313 0 -313 344v3q1 342 314 342h250v-121h-281q-139 0 -159 -161h308q40 0 75 -17t60.5 -44.5t40 -63.5t14.5 -73v-10q0 -38 -15.5 -73.5t-42 -63.5t-61 -45t-72.5 -17h-118z" />
    <glyph glyph-name="seven" unicode="7" horiz-adv-x="723" 
d="M544 689q34 0 61 -12t45.5 -32t28.5 -45.5t10 -53.5q0 -31 -12 -62t-37 -57l-396 -427h-163l479 518q12 12 12 25q0 10 -7 17.5t-20 7.5h-505v121h504z" />
    <glyph glyph-name="eight" unicode="8" horiz-adv-x="681" 
d="M181 431q13 -11 26 -17.5t31 -6.5h205q36 0 57.5 23.5t21.5 57.5q0 32 -23 56t-55 24h-207q-16 0 -30 -6.5t-24.5 -17.5t-17 -25.5t-6.5 -30.5q0 -34 22 -57zM501 144q21 24 21 62q0 32 -23 56t-55 24h-207q-16 0 -30 -6.5t-24.5 -17.5t-17 -25.5t-6.5 -30.5
q0 -36 21.5 -61t57.5 -25h205q34 0 58 24zM426 689q59 0 100.5 -15.5t67.5 -43t37.5 -64.5t11.5 -80q0 -37 -18 -76t-58 -63q40 -24 58 -62.5t18 -80.5q0 -38 -11.5 -75t-37.5 -65.5t-67 -46t-101 -17.5h-170q-60 0 -101.5 17.5t-67 46.5t-37 65.5t-11.5 74.5q0 42 17 80.5
t57 62.5q-40 24 -57 63t-17 76q0 43 12 80t38 64.5t67 43t100 15.5h170z" />
    <glyph glyph-name="nine" unicode="9" horiz-adv-x="703" 
d="M541 407q-21 160 -159 160h-145q-15 0 -28.5 -7t-24 -19t-16.5 -27t-6 -31q0 -32 21.5 -54t53.5 -22h304zM352 689q312 0 312 -343v-3q-3 -343 -314 -343h-251v120h282q72 0 109 39.5t50 126.5h-309q-41 0 -75.5 16t-60 42t-40 60.5t-14.5 72.5v11q0 37 15.5 73.5
t42 64.5t61 45.5t73.5 17.5h119z" />
    <glyph glyph-name="colon" unicode=":" horiz-adv-x="205" 
d="M40 120h128v-120h-128v120zM40 407h128v-121h-128v121z" />
    <glyph glyph-name="semicolon" unicode=";" horiz-adv-x="213" 
d="M42 407h129v-122h-129v122zM171 1q0 -38 -14 -70t-38.5 -54.5t-57.5 -35t-72 -12.5v121q28 0 40.5 12.5t12.5 31.5v127h129v-120z" />
    <glyph glyph-name="less" unicode="&#x3c;" horiz-adv-x="536" 
d="M20 297v111l497 188v-111l-383 -132l383 -133v-110z" />
    <glyph glyph-name="equal" unicode="=" horiz-adv-x="536" 
d="M20 208v91h497v-91h-497zM20 406v91h497v-91h-497z" />
    <glyph glyph-name="greater" unicode="&#x3e;" horiz-adv-x="536" 
d="M20 110v110l382 133l-382 132v111l497 -188v-111z" />
    <glyph glyph-name="question" unicode="?" horiz-adv-x="672" 
d="M166 122h127v-122h-127v122zM415 689q40 0 74.5 -13.5t60 -40t40.5 -64t15 -85.5v-6q0 -40 -14.5 -75t-40 -61.5t-60.5 -42t-75 -15.5h-27q-32 0 -58 -23.5t-34 -59.5h-125v15q0 36 17 70.5t45 60.5t62.5 42t70.5 16h41q32 0 55 23.5t23 57.5q0 32 -23 56t-55 24h-361
v121h369z" />
    <glyph glyph-name="at" unicode="@" horiz-adv-x="707" 
d="M689 18q-63 -56 -128.5 -77t-139.5 -21q-103 0 -176.5 31.5t-121 82t-70 114.5t-22.5 129q0 79 22 145t69.5 113t121 73t176.5 26q71 0 116 -17.5t70.5 -49t34.5 -76t9 -99.5v-243h-208q-88 0 -130 35.5t-42 113.5q0 81 38 117t113 36q55 0 84.5 -8t44.5 -20
q-1 32 -7.5 56t-21 39.5t-39.5 23t-62 7.5q-146 0 -213 -73t-67 -200q0 -62 21 -111t60 -83t94 -52t123 -18q28 0 58.5 5t60 15t56 24.5t46.5 32.5zM544 325q-10 17 -32.5 29t-64.5 12q-66 0 -66 -70q0 -31 16 -46t53 -15h94v90z" />
    <glyph glyph-name="A" unicode="A" horiz-adv-x="742" 
d="M591 0l-194 548q-7 19 -26 19t-26 -19l-194 -548h-128l214 600q16 45 51 67t83 22t83 -22t51 -67l214 -600h-128z" />
    <glyph glyph-name="B" unicode="B" 
d="M393 689q59 0 100.5 -15.5t67.5 -43t37.5 -64.5t11.5 -80q0 -37 -18 -76t-58 -63q40 -24 58 -62.5t18 -80.5q0 -38 -11.5 -75t-37.5 -65.5t-67 -46t-101 -17.5h-344v120h362q35 0 57 24t22 62q0 16 -6.5 30.5t-17 25.5t-24.5 17.5t-30 6.5h-363v121h362q35 0 57 23.5
t22 57.5q0 16 -6.5 30.5t-17 25.5t-24.5 17.5t-30 6.5h-363v121h344z" />
    <glyph glyph-name="C" unicode="C" 
d="M353 0q-313 0 -313 344v3q1 342 314 342h250v-121h-281q-82 0 -122.5 -54t-40.5 -171q0 -223 162 -223h281v-120h-250z" />
    <glyph glyph-name="D" unicode="D" horiz-adv-x="685" 
d="M170 120h193q82 0 122 54.5t40 172.5q0 221 -161 221h-194v-448zM334 689q312 0 312 -343v-3q-3 -343 -313 -343h-284v689h285z" />
    <glyph glyph-name="E" unicode="E" 
d="M600 568h-363q-16 0 -30 -6.5t-24.5 -17.5t-17 -25.5t-6.5 -30.5q0 -34 22 -57.5t57 -23.5h362v-121h-363q-16 0 -30 -6.5t-24.5 -17.5t-17 -25.5t-6.5 -30.5q0 -38 22 -62t57 -24h362v-120h-344q-60 0 -101.5 17.5t-67 46.5t-37 65.5t-11.5 74.5q0 42 17 80.5t57 62.5
q-40 24 -57 63t-17 76q0 44 13 81.5t39.5 64.5t67.5 42t97 15h344v-121z" />
    <glyph glyph-name="F" unicode="F" horiz-adv-x="613" 
d="M575 568h-225q-79 0 -127.5 -41t-52.5 -120h405v-121h-405v-286h-121v391q0 69 19 124t57.5 93.5t95.5 59.5t133 21h221v-121z" />
    <glyph glyph-name="G" unicode="G" horiz-adv-x="701" 
d="M353 0q-313 0 -313 344v3q1 342 314 342h250v-121h-281q-82 0 -122.5 -54t-40.5 -171q0 -223 162 -223h144q15 0 29 7t24 18.5t16 26.5t6 32q0 33 -21 57.5t-54 24.5h-109v121h115q40 0 74.5 -15.5t60 -43t40.5 -66t15 -83.5q0 -38 -15.5 -73.5t-42 -63.5t-61 -45
t-72.5 -17h-118z" />
    <glyph glyph-name="H" unicode="H" horiz-adv-x="660" 
d="M490 286h-320v-286h-121v689h121v-282h320v282h120v-689h-120v286z" />
    <glyph glyph-name="I" unicode="I" horiz-adv-x="219" 
d="M49 689h121v-689h-121v689z" />
    <glyph glyph-name="J" unicode="J" horiz-adv-x="576" 
d="M39 120h187q85 0 132.5 46.5t47.5 130.5v392h120v-391q0 -68 -19 -123t-57 -94t-94.5 -60t-132.5 -21h-184v120z" />
    <glyph glyph-name="K" unicode="K" horiz-adv-x="676" 
d="M170 0h-121v689h121v-219l456 225v-138l-459 -212l459 -218v-134l-456 227v-220z" />
    <glyph glyph-name="L" unicode="L" horiz-adv-x="598" 
d="M354 0q-76 0 -133 21t-95.5 60t-57.5 94t-19 123v391h121v-392q0 -84 47.5 -130.5t132.5 -46.5h210v-120h-206z" />
    <glyph glyph-name="M" unicode="M" horiz-adv-x="1177" 
d="M231 584q18 51 59.5 79t95.5 28q37 0 69.5 -12t56.5 -34t38 -53.5t14 -69.5v-347q0 -60 51 -60q17 0 26 10.5t16 31.5l138 427q17 51 59.5 79t95.5 28q37 0 69.5 -12t56.5 -34t38 -53.5t14 -69.5v-522h-128v510q0 60 -52 60q-17 0 -25.5 -11.5t-15.5 -32.5l-140 -426
q-14 -51 -57.5 -79.5t-96.5 -28.5q-38 0 -70 12t-56 34t-37.5 53.5t-13.5 69.5v349q0 60 -52 60q-17 0 -25 -11.5t-16 -32.5l-184 -526h-136z" />
    <glyph glyph-name="N" unicode="N" horiz-adv-x="791" 
d="M742 164q0 -39 -14 -70t-38 -53.5t-56.5 -34.5t-69.5 -12q-54 0 -96 28.5t-59 79.5l-138 424q-6 21 -15.5 32.5t-26.5 11.5q-51 0 -51 -60v-510h-129v522q0 38 13.5 69.5t37.5 53.5t56.5 34t70.5 12q53 0 95 -28t59 -79l139 -425q7 -21 16 -31.5t26 -10.5q51 0 51 60v512
h129v-525z" />
    <glyph glyph-name="O" unicode="O" horiz-adv-x="760" 
d="M323 568q-82 0 -122.5 -54t-40.5 -171q0 -223 162 -223h116q162 0 162 223q0 117 -41 171t-122 54h-114zM406 689q311 0 314 -342v-3q0 -344 -313 -344h-54q-313 0 -313 344v3q1 342 314 342h52z" />
    <glyph glyph-name="P" unicode="P" horiz-adv-x="650" 
d="M50 206q0 100 58.5 150.5t158.5 50.5h145q33 0 56 23.5t23 57.5q0 16 -6.5 30.5t-17 25.5t-24.5 17.5t-30 6.5h-363v121h344q57 0 98 -16t67.5 -44t39 -64.5t12.5 -78.5q0 -36 -11.5 -72t-37.5 -64.5t-67.5 -46t-100.5 -17.5h-148q-32 0 -53.5 -24.5t-21.5 -57.5v-204
h-121v206z" />
    <glyph glyph-name="Q" unicode="Q" horiz-adv-x="768" 
d="M323 568q-82 0 -122.5 -54t-40.5 -171v-9q0 -214 162 -214h134l-129 62v135l247 -118q26 54 26 135v9q0 117 -41 171t-122 54h-114zM406 689q156 0 235 -84.5t79 -257.5q0 -123 -38 -201l48 -22v-131l-128 59q-37 -25 -84.5 -38.5t-110.5 -13.5h-54q-313 0 -313 344v3
q1 342 314 342h52z" />
    <glyph glyph-name="R" unicode="R" horiz-adv-x="661" 
d="M50 206q0 100 58.5 150.5t158.5 50.5h145q33 0 56 23.5t23 57.5q0 16 -6.5 30.5t-17 25.5t-24.5 17.5t-30 6.5h-363v121h344q57 0 98 -16t67.5 -44t39 -64.5t12.5 -78.5q0 -36 -11.5 -72t-37.5 -64.5t-67.5 -46t-100.5 -17.5h-139l372 -164v-133l-456 206v-195h-121v206z
" />
    <glyph glyph-name="S" unicode="S" horiz-adv-x="684" 
d="M645 201q0 -100 -57.5 -150.5t-160.5 -50.5h-354v120h377q32 0 53 24.5t21 59.5q0 33 -21 57.5t-53 24.5h-194q-60 0 -101.5 18t-67 47t-37 64.5t-11.5 70.5q0 42 12 78.5t38.5 64.5t67.5 44t99 16h344v-121h-363q-16 0 -30 -6.5t-24.5 -17.5t-17 -25.5t-6.5 -30.5
q0 -34 23 -57.5t56 -23.5h191q100 0 158 -50.5t58 -150.5v-5z" />
    <glyph glyph-name="T" unicode="T" horiz-adv-x="506" 
d="M318 0h-120v568h-170v121h450v-121h-160v-568z" />
    <glyph glyph-name="U" unicode="U" horiz-adv-x="679" 
d="M629 261q0 -59 -18 -107t-54 -82t-90.5 -53t-126.5 -19q-71 0 -125 19t-91 53.5t-56 82.5t-19 105v429h121v-426q0 -63 45.5 -103t126.5 -40h3q81 0 122 40t41 103v426h121v-428z" />
    <glyph glyph-name="V" unicode="V" horiz-adv-x="742" 
d="M373 118q7 0 13 4t11 16l194 551h128l-214 -606q-16 -45 -51 -66t-83 -21t-83.5 22t-50.5 65l-214 606h128l194 -552q3 -11 9 -15t14 -4h5z" />
    <glyph glyph-name="W" unicode="W" horiz-adv-x="1177" 
d="M343 162q7 -20 15.5 -31t25.5 -11q52 0 52 60v343q0 38 13.5 69.5t37.5 53.5t56 34t70 12q53 0 95.5 -28t59.5 -79l139 -423q7 -20 15.5 -31t25.5 -11q52 0 52 60v509h128v-522q0 -38 -14 -69.5t-38 -53.5t-56.5 -34t-69.5 -12q-52 0 -95 28.5t-60 79.5l-138 421
q-6 21 -15.5 32.5t-26.5 11.5q-51 0 -51 -60v-344q0 -38 -14 -69.5t-38 -53.5t-56.5 -34t-69.5 -12q-55 0 -96 28.5t-59 79.5l-208 583h136z" />
    <glyph glyph-name="X" unicode="X" horiz-adv-x="665" 
d="M646 0h-144l-169 279l-169 -279h-145l221 354l-221 335h143l171 -276l170 276h143l-222 -335z" />
    <glyph glyph-name="Y" unicode="Y" horiz-adv-x="665" 
d="M273 305l-255 384h144l171 -276l170 276h144l-254 -376v-313h-120v305z" />
    <glyph glyph-name="Z" unicode="Z" horiz-adv-x="738" 
d="M534 481q17 8 28.5 22t11.5 28q0 16 -11 26.5t-34 10.5h-460v121h456q84 0 125.5 -44t41.5 -114q0 -13 -2 -32.5t-12.5 -41.5t-33 -44t-62.5 -40l-379 -165q-20 -9 -29.5 -22t-9.5 -27q0 -19 13 -29t31 -10h468v-120h-465q-84 0 -126 44t-42 113q0 18 4 39.5t16 43
t34 41.5t58 35z" />
    <glyph glyph-name="bracketleft" unicode="[" horiz-adv-x="324" 
d="M83 -144v960h218v-74h-133v-812h133v-74h-218z" />
    <glyph glyph-name="backslash" unicode="\" horiz-adv-x="507" 
d="M431 -73l-448 852h87l448 -852h-87z" />
    <glyph glyph-name="bracketright" unicode="]" horiz-adv-x="320" 
d="M23 -144v74h131v812h-131v74h218v-960h-218z" />
    <glyph glyph-name="asciicircum" unicode="^" horiz-adv-x="536" 
d="M346 350l-78 225l-78 -225h-107l129 339h111l127 -339h-104z" />
    <glyph glyph-name="underscore" unicode="_" horiz-adv-x="528" 
d="M0 -152v83h528v-83h-528z" />
    <glyph glyph-name="grave" unicode="`" horiz-adv-x="436" 
d="M20 817v114l396 -132v-85z" />
    <glyph glyph-name="a" unicode="a" horiz-adv-x="742" 
d="M368 568q-15 0 -23 -20l-118 -329h286l-116 328q-5 12 -11 16.5t-13 4.5h-5zM186 99l-35 -99h-128l214 601q16 45 51 67t83 22t83 -22t51 -67l214 -601h-128l-36 99h-369z" />
    <glyph glyph-name="b" unicode="b" 
d="M170 407h241q35 0 57 23.5t22 57.5q0 16 -6.5 30.5t-17 25.5t-24.5 17.5t-30 6.5h-242v-161zM170 120h241q37 0 58 25t21 61q0 16 -6.5 30.5t-17 25.5t-24.5 17.5t-30 6.5h-242v-166zM393 689q59 0 100.5 -15.5t67.5 -43t37.5 -64.5t11.5 -80q0 -37 -18 -76t-58 -63
q40 -24 58 -62.5t18 -80.5q0 -38 -11.5 -75t-37.5 -65.5t-67 -46t-101 -17.5h-344v689h344z" />
    <glyph glyph-name="c" unicode="c" 
d="M40 0zM353 0q-313 0 -313 344v3q1 342 314 342h250v-121h-281q-82 0 -122.5 -54t-40.5 -171q0 -223 162 -223h281v-120h-250z" />
    <glyph glyph-name="d" unicode="d" horiz-adv-x="685" 
d="M49 0zM170 120h193q82 0 122 54.5t40 172.5q0 221 -161 221h-194v-448zM334 689q312 0 312 -343v-3q-3 -343 -313 -343h-284v689h285z" />
    <glyph glyph-name="e" unicode="e" 
d="M39 0zM600 568h-363q-16 0 -30 -6.5t-24.5 -17.5t-17 -25.5t-6.5 -30.5q0 -34 22 -57.5t57 -23.5h362v-121h-363q-16 0 -30 -6.5t-24.5 -17.5t-17 -25.5t-6.5 -30.5q0 -38 22 -62t57 -24h362v-120h-344q-60 0 -101.5 17.5t-67 46.5t-37 65.5t-11.5 74.5q0 42 17 80.5
t57 62.5q-40 24 -57 63t-17 76q0 44 13 81.5t39.5 64.5t67.5 42t97 15h344v-121z" />
    <glyph glyph-name="f" unicode="f" horiz-adv-x="613" 
d="M49 0zM575 568h-225q-79 0 -127.5 -41t-52.5 -120h405v-121h-405v-286h-121v391q0 69 19 124t57.5 93.5t95.5 59.5t133 21h221v-121z" />
    <glyph glyph-name="g" unicode="g" horiz-adv-x="701" 
d="M40 0zM353 0q-313 0 -313 344v3q1 342 314 342h250v-121h-281q-82 0 -122.5 -54t-40.5 -171q0 -223 162 -223h144q15 0 29 7t24 18.5t16 26.5t6 32q0 33 -21 57.5t-54 24.5h-109v121h115q40 0 74.5 -15.5t60 -43t40.5 -66t15 -83.5q0 -38 -15.5 -73.5t-42 -63.5t-61 -45
t-72.5 -17h-118z" />
    <glyph glyph-name="h" unicode="h" horiz-adv-x="660" 
d="M49 0zM490 286h-320v-286h-121v689h121v-282h320v282h120v-689h-120v286z" />
    <glyph glyph-name="i" unicode="i" horiz-adv-x="219" 
d="M49 0zM49 689h121v-689h-121v689z" />
    <glyph glyph-name="j" unicode="j" horiz-adv-x="576" 
d="M39 0zM39 120h187q85 0 132.5 46.5t47.5 130.5v392h120v-391q0 -68 -19 -123t-57 -94t-94.5 -60t-132.5 -21h-184v120z" />
    <glyph glyph-name="k" unicode="k" horiz-adv-x="676" 
d="M49 0zM170 0h-121v689h121v-219l456 225v-138l-459 -212l459 -218v-134l-456 227v-220z" />
    <glyph glyph-name="l" unicode="l" horiz-adv-x="598" 
d="M49 0zM354 0q-76 0 -133 21t-95.5 60t-57.5 94t-19 123v391h121v-392q0 -84 47.5 -130.5t132.5 -46.5h210v-120h-206z" />
    <glyph glyph-name="m" unicode="m" horiz-adv-x="1177" 
d="M53 0v522q0 38 13.5 69.5t37.5 53.5t56.5 34t70.5 12q54 0 96 -28t59 -79l138 -422q7 -20 16 -31t26 -11q51 0 51 60v342q0 38 13.5 69.5t37.5 53.5t56.5 34t70.5 12q52 0 94.5 -28t60.5 -79l209 -584h-137l-182 526q-8 21 -16.5 32.5t-25.5 11.5q-52 0 -52 -60v-343
q0 -38 -13.5 -69.5t-37.5 -53.5t-56.5 -34t-70.5 -12q-54 0 -95.5 28.5t-58.5 79.5l-138 420q-7 21 -16 32.5t-26 11.5q-52 0 -52 -60v-510h-129z" />
    <glyph glyph-name="n" unicode="n" horiz-adv-x="791" 
d="M49 0zM742 164q0 -39 -14 -70t-38 -53.5t-56.5 -34.5t-69.5 -12q-54 0 -96 28.5t-59 79.5l-138 424q-6 21 -15.5 32.5t-26.5 11.5q-51 0 -51 -60v-510h-129v522q0 38 13.5 69.5t37.5 53.5t56.5 34t70.5 12q53 0 95 -28t59 -79l139 -425q7 -21 16 -31.5t26 -10.5
q51 0 51 60v512h129v-525z" />
    <glyph glyph-name="o" unicode="o" horiz-adv-x="760" 
d="M40 0zM323 568q-82 0 -122.5 -54t-40.5 -171q0 -223 162 -223h116q162 0 162 223q0 117 -41 171t-122 54h-114zM406 689q311 0 314 -342v-3q0 -344 -313 -344h-54q-313 0 -313 344v3q1 342 314 342h52z" />
    <glyph glyph-name="p" unicode="p" 
d="M170 407h241q33 0 56 23.5t23 57.5q0 16 -6.5 30.5t-17 25.5t-24.5 17.5t-30 6.5h-242v-161zM393 689q57 0 98 -16t67.5 -44t39 -64.5t12.5 -78.5q0 -36 -11.5 -72t-37.5 -64.5t-67.5 -46t-100.5 -17.5h-223v-286h-121v689h344z" />
    <glyph glyph-name="q" unicode="q" horiz-adv-x="768" 
d="M40 0zM323 568q-82 0 -122.5 -54t-40.5 -171v-9q0 -214 162 -214h134l-129 62v135l247 -118q26 54 26 135v9q0 117 -41 171t-122 54h-114zM406 689q156 0 235 -84.5t79 -257.5q0 -123 -38 -201l48 -22v-131l-128 59q-37 -25 -84.5 -38.5t-110.5 -13.5h-54
q-313 0 -313 344v3q1 342 314 342h52z" />
    <glyph glyph-name="r" unicode="r" 
d="M170 403h241q33 0 56 24.5t23 58.5q0 16 -6.5 31t-17 26t-24.5 18t-30 7h-242v-165zM393 689q57 0 98 -16t67.5 -44t39 -64.5t12.5 -78.5q0 -36 -11.5 -72t-37.5 -64.5t-67.5 -46t-100.5 -17.5h-56l278 -156v-144l-445 271v-257h-121v689h344z" />
    <glyph glyph-name="s" unicode="s" horiz-adv-x="684" 
d="M39 0zM645 201q0 -100 -57.5 -150.5t-160.5 -50.5h-354v120h377q32 0 53 24.5t21 59.5q0 33 -21 57.5t-53 24.5h-194q-60 0 -101.5 18t-67 47t-37 64.5t-11.5 70.5q0 42 12 78.5t38.5 64.5t67.5 44t99 16h344v-121h-363q-16 0 -30 -6.5t-24.5 -17.5t-17 -25.5t-6.5 -30.5
q0 -34 23 -57.5t56 -23.5h191q100 0 158 -50.5t58 -150.5v-5z" />
    <glyph glyph-name="t" unicode="t" horiz-adv-x="506" 
d="M28 0zM318 0h-120v568h-170v121h450v-121h-160v-568z" />
    <glyph glyph-name="u" unicode="u" horiz-adv-x="679" 
d="M49 0zM629 261q0 -59 -18 -107t-54 -82t-90.5 -53t-126.5 -19q-71 0 -125 19t-91 53.5t-56 82.5t-19 105v429h121v-426q0 -63 45.5 -103t126.5 -40h3q81 0 122 40t41 103v426h121v-428z" />
    <glyph glyph-name="v" unicode="v" horiz-adv-x="742" 
d="M23 0zM373 118q7 0 13 4t11 16l194 551h128l-214 -606q-16 -45 -51 -66t-83 -21t-83.5 22t-50.5 65l-214 606h128l194 -552q3 -11 9 -15t14 -4h5z" />
    <glyph glyph-name="w" unicode="w" horiz-adv-x="1177" 
d="M945 103q-19 -49 -61 -78t-93 -29q-38 0 -70.5 12t-56.5 34t-37.5 53t-13.5 70v346q0 60 -51 60q-17 0 -26 -11.5t-16 -32.5l-139 -424h1q-16 -51 -58.5 -79t-96.5 -28q-38 0 -70.5 12t-56.5 34t-37.5 53t-13.5 70v524h129v-511q0 -60 51 -60q17 0 26.5 10.5t15.5 31.5
l140 425q17 51 58.5 79t94.5 28q37 0 69.5 -12t56.5 -34t38 -53.5t14 -69.5v-345q0 -60 51 -60q17 0 25.5 10.5t16.5 31.5l183 529h137z" />
    <glyph glyph-name="x" unicode="x" horiz-adv-x="665" 
d="M19 0zM646 0h-144l-169 279l-169 -279h-145l221 354l-221 335h143l171 -276l170 276h143l-222 -335z" />
    <glyph glyph-name="y" unicode="y" horiz-adv-x="665" 
d="M18 0zM273 305l-255 384h144l171 -276l170 276h144l-254 -376v-313h-120v305z" />
    <glyph glyph-name="z" unicode="z" horiz-adv-x="738" 
d="M43 0zM534 481q17 8 28.5 22t11.5 28q0 16 -11 26.5t-34 10.5h-460v121h456q84 0 125.5 -44t41.5 -114q0 -13 -2 -32.5t-12.5 -41.5t-33 -44t-62.5 -40l-379 -165q-20 -9 -29.5 -22t-9.5 -27q0 -19 13 -29t31 -10h468v-120h-465q-84 0 -126 44t-42 113q0 18 4 39.5t16 43
t34 41.5t58 35z" />
    <glyph glyph-name="braceleft" unicode="{" horiz-adv-x="342" 
d="M261 -144q-26 0 -52.5 6t-48.5 22.5t-36 46t-14 77.5v216q0 48 -19.5 66t-48.5 18h-24v82h30q27 0 44.5 19t17.5 61v209q0 40 13.5 66.5t35 42t47.5 22t52 6.5h61v-78h-53q-21 0 -34.5 -5.5t-21.5 -19t-11.5 -37t-3.5 -59.5v-171q0 -20 -7.5 -36.5t-19 -29t-25 -20.5
t-26.5 -12q13 -6 27 -14t25 -20t18.5 -27.5t7.5 -36.5v-218q0 -31 4.5 -50t13.5 -29.5t22 -14t30 -3.5h54v-79h-58z" />
    <glyph glyph-name="bar" unicode="|" horiz-adv-x="292" 
d="M111 -99v887h76v-887h-76z" />
    <glyph glyph-name="braceright" unicode="}" horiz-adv-x="342" 
d="M18 -144v79h54q16 0 29 3.5t22 14t14 29.5t5 50v218q0 21 7 36.5t18.5 27.5t25 20t26.5 14q-13 4 -26.5 12.5t-25 20.5t-18.5 28.5t-7 36.5v170q0 36 -3.5 60t-12 37.5t-22 19t-33.5 5.5h-53v78h60q25 0 51.5 -6.5t48 -22t35.5 -42t14 -66.5v-209q0 -42 17.5 -61
t44.5 -19h30v-82h-26q-27 0 -46.5 -17.5t-19.5 -66.5v-214q0 -48 -14 -78.5t-36 -47t-49 -22.5t-53 -6h-57z" />
    <glyph glyph-name="asciitilde" unicode="~" horiz-adv-x="536" 
d="M517 318q-28 -28 -54.5 -41.5t-60.5 -13.5q-37 0 -69.5 15.5t-64 34t-63 34t-65.5 15.5q-25 0 -53 -17t-66 -59v101q23 26 49 41t61 15q40 0 73.5 -15.5t64.5 -34t61.5 -34t63.5 -15.5q26 0 55.5 17t67.5 62v-105z" />
    <glyph glyph-name="nonbreakingspace" unicode="&#xa0;" horiz-adv-x="302" 
 />
    <glyph glyph-name="exclamdown" unicode="&#xa1;" horiz-adv-x="220" 
d="M171 567h-121v122h121v-122zM171 0h-121v451h121v-451z" />
    <glyph glyph-name="cent" unicode="&#xa2;" 
d="M409 0v-182h-81v182q-288 13 -288 344v3q1 327 288 341v125h81v-124h195v-121h-195v-448h194v-120h-194zM160 343q0 -112 40.5 -167.5t127.5 -55.5v448q-87 0 -127.5 -54t-40.5 -171z" />
    <glyph glyph-name="sterling" unicode="&#xa3;" horiz-adv-x="548" 
d="M119 120v166h-74v121h74q1 63 21 115t58.5 89t94.5 57.5t130 20.5h83v-121h-87q-79 0 -127.5 -41t-52.5 -120h150v-121h-150v-166h267v-120h-461v120h74z" />
    <glyph glyph-name="yen" unicode="&#xa5;" horiz-adv-x="752" 
d="M426 0h-130v48h-105v93h105v53h-105v91h84l-253 404h146l195 -301l192 301h149l-259 -404h79v-91h-98v-53h98v-93h-98v-48z" />
    <glyph glyph-name="brokenbar" unicode="&#xa6;" horiz-adv-x="292" 
d="M111 -99v377h76v-377h-76zM111 411v377h76v-377h-76z" />
    <glyph glyph-name="dieresis" unicode="&#xa8;" horiz-adv-x="437" 
d="M291 754v118h126v-118h-126zM20 754v118h125v-118h-125z" />
    <glyph glyph-name="ordfeminine" unicode="&#xaa;" horiz-adv-x="445" 
d="M221 604q-9 0 -14 -11l-71 -198h171l-69 197q-5 12 -14 12h-3zM112 323l-21 -59h-77l128 360q10 28 31.5 40.5t49.5 12.5t49 -13t31 -40l129 -360h-77l-21 59h-222z" />
    <glyph glyph-name="guillemotleft" unicode="&#xab;" horiz-adv-x="602" 
d="M16 100zM16 353l203 251l65 -70l-150 -181l149 -182l-64 -71zM317 353l203 251l65 -70l-150 -181l149 -182l-64 -71z" />
    <glyph glyph-name="macron" unicode="&#xaf;" horiz-adv-x="504" 
d="M20 766v95h464v-95h-464z" />
    <glyph glyph-name="degree" unicode="&#xb0;" horiz-adv-x="353" 
d="M177 646q-38 0 -57.5 -21t-19.5 -50t19.5 -49.5t57.5 -20.5q35 0 58 20.5t23 49.5t-23 50t-58 21zM177 433q-32 0 -59 11.5t-46 31t-29.5 45t-10.5 54.5q0 30 10.5 56t29.5 45.5t46 31t59 11.5q31 0 58 -11t47 -30.5t31 -45.5t11 -57q0 -29 -11.5 -54.5t-31.5 -45
t-46.5 -31t-57.5 -11.5z" />
    <glyph glyph-name="plusminus" unicode="&#xb1;" horiz-adv-x="536" 
d="M20 0zM222 104v203h-202v91h202v202h91v-202h204v-91h-204v-203h-91zM20 -22v91h497v-91h-497z" />
    <glyph glyph-name="twosuperior" unicode="&#xb2;" horiz-adv-x="411" 
d="M44 355zM285 699q42 0 63 -22t21 -57q0 -26 -13 -46t-43 -33l-189 -82q-8 -4 -13.5 -11t-5.5 -15v-18h255v-60h-316v79q0 7 2 17.5t8 21.5t17 21.5t29 18.5l190 82q9 4 14 11.5t5 14.5q0 8 -4.5 13t-17.5 5h-230v60h228z" />
    <glyph glyph-name="threesuperior" unicode="&#xb3;" horiz-adv-x="354" 
d="M39 355zM211 699q57 0 83 -28t26 -73q0 -18 -9 -38t-29 -32q20 -12 29 -31.5t9 -39.5q0 -19 -6 -37.5t-18.5 -32.5t-33.5 -23t-51 -9h-172v60h181q17 0 28.5 12t11.5 31q0 16 -11.5 28t-27.5 12h-82v60h81q17 0 28.5 12t11.5 29q0 16 -11.5 28t-27.5 12h-182v60h172z" />
    <glyph glyph-name="acute" unicode="&#xb4;" horiz-adv-x="436" 
d="M20 714v85l396 132v-114z" />
    <glyph glyph-name="paragraph" unicode="&#xb6;" horiz-adv-x="559" 
d="M444 -110v555h-235v-555h-70v558q-63 14 -89.5 43.5t-26.5 80.5q0 25 8 46.5t26.5 37t47.5 24.5t71 9h339v-799h-71z" />
    <glyph glyph-name="periodcentered" unicode="&#xb7;" horiz-adv-x="196" 
d="M33 391h128v-121h-128v121z" />
    <glyph glyph-name="cedilla" unicode="&#xb8;" horiz-adv-x="204" 
d="M20 -158q23 0 35 14t12 34v71h118v-73q0 -35 -13 -63.5t-35 -49.5t-52.5 -32.5t-64.5 -11.5v111z" />
    <glyph glyph-name="onesuperior" unicode="&#xb9;" horiz-adv-x="191" 
d="M29 355zM29 699q22 0 44.5 -7.5t39.5 -22t28 -36.5t11 -50v-228h-61v228q0 29 -18 42.5t-44 13.5v60z" />
    <glyph glyph-name="ordmasculine" unicode="&#xba;" horiz-adv-x="456" 
d="M264 336q96 0 96 132q0 70 -24 102.5t-73 32.5h-68q-51 0 -74.5 -32.5t-23.5 -102.5q0 -132 97 -132h70zM244 676q188 0 189 -205v-3q0 -204 -188 -204h-34q-187 0 -187 204v3q2 102 48.5 153.5t140.5 51.5h31z" />
    <glyph glyph-name="guillemotright" unicode="&#xbb;" horiz-adv-x="602" 
d="M16 100zM16 171l150 182l-150 181l65 70l203 -251l-203 -253zM317 171l150 182l-150 181l65 70l203 -251l-203 -253z" />
    <glyph glyph-name="onequarter" unicode="&#xbc;" horiz-adv-x="737" 
d="M40 0zM72 699q22 0 44.5 -7.5t39.5 -22t28 -36.5t11 -50v-228h-61v228q0 29 -18 42.5t-44 13.5v60zM40 0l530 689h92l-529 -689h-93zM499 156q-7 -11 -7 -20q0 -22 33 -22h110v138q0 22 -17 22h-15q-14 0 -21.5 -3.5t-15.5 -14.5zM635 53h-129q-17 0 -30.5 7t-23 18.5
t-15 26.5t-5.5 31q0 24 14 47l68 105q30 46 91 46h19q42 0 57.5 -18t15.5 -61v-265h-62v63z" />
    <glyph glyph-name="onehalf" unicode="&#xbd;" horiz-adv-x="826" 
d="M40 0zM92 699q22 0 44.5 -7.5t39.5 -22t28 -36.5t11 -50v-228h-61v228q0 29 -18 42.5t-44 13.5v60zM40 0l530 689h92l-529 -689h-93zM702 334q42 0 63 -22t21 -57q0 -26 -13 -46t-43 -33l-189 -82q-8 -4 -13.5 -11t-5.5 -15v-18h255v-60h-316v79q0 7 2 17.5t8 21.5
t17 21.5t29 18.5l190 82q9 4 14 11.5t5 14.5q0 8 -4.5 13t-17.5 5h-230v60h228z" />
    <glyph glyph-name="threequarters" unicode="&#xbe;" horiz-adv-x="728" 
d="M40 0zM212 699q57 0 83 -28t26 -73q0 -18 -9 -38t-29 -32q20 -12 29 -31.5t9 -39.5q0 -19 -6 -37.5t-18.5 -32.5t-33.5 -23t-51 -9h-172v60h181q17 0 28.5 12t11.5 31q0 16 -11.5 28t-27.5 12h-82v60h81q17 0 28.5 12t11.5 29q0 16 -11.5 28t-27.5 12h-182v60h172zM61 0
l530 689h92l-529 -689h-93zM490 156q-7 -11 -7 -20q0 -22 33 -22h110v138q0 22 -17 22h-15q-14 0 -21.5 -3.5t-15.5 -14.5zM626 53h-129q-17 0 -30.5 7t-23 18.5t-15 26.5t-5.5 31q0 24 14 47l68 105q30 46 91 46h19q42 0 57.5 -18t15.5 -61v-265h-62v63z" />
    <glyph glyph-name="questiondown" unicode="&#xbf;" horiz-adv-x="672" 
d="M486 566h-127v123h127v-123zM237 0q-40 0 -75 13.5t-60.5 40t-40.5 64t-15 85.5v6q0 40 14.5 75t40.5 61.5t60.5 42t75.5 15.5h27q32 0 58 23.5t34 59.5h125v-15q0 -36 -17 -70.5t-45 -60.5t-63 -42t-71 -16h-40q-33 0 -55.5 -23.5t-22.5 -58.5q0 -32 22.5 -56t55.5 -24
h360v-120h-368z" />
    <glyph glyph-name="Agrave" unicode="&#xc0;" horiz-adv-x="742" 
d="M23 0zM591 0l-194 548q-7 19 -26 19t-26 -19l-194 -548h-128l214 600q16 45 51 67t83 22t83 -22t51 -67l214 -600h-128zM143 817v114l396 -132v-85z" />
    <glyph glyph-name="Aacute" unicode="&#xc1;" horiz-adv-x="742" 
d="M23 0zM591 0l-194 548q-7 19 -26 19t-26 -19l-194 -548h-128l214 600q16 45 51 67t83 22t83 -22t51 -67l214 -600h-128zM203 714v85l396 132v-114z" />
    <glyph glyph-name="Acircumflex" unicode="&#xc2;" horiz-adv-x="742" 
d="M23 0zM591 0l-194 548q-7 19 -26 19t-26 -19l-194 -548h-128l214 600q16 45 51 67t83 22t83 -22t51 -67l214 -600h-128zM476 721l-106 141l-107 -141h-100l128 171q15 20 36 29.5t43 9.5t42.5 -9.5t35.5 -29.5l130 -171h-102z" />
    <glyph glyph-name="Atilde" unicode="&#xc3;" horiz-adv-x="742" 
d="M23 0zM591 0l-194 548q-7 19 -26 19t-26 -19l-194 -548h-128l214 600q16 45 51 67t83 22t83 -22t51 -67l214 -600h-128zM139 766v95h464v-95h-464z" />
    <glyph glyph-name="Adieresis" unicode="&#xc4;" horiz-adv-x="742" 
d="M23 0zM591 0l-194 548q-7 19 -26 19t-26 -19l-194 -548h-128l214 600q16 45 51 67t83 22t83 -22t51 -67l214 -600h-128zM443 754v118h126v-118h-126zM172 754v118h125v-118h-125z" />
    <glyph glyph-name="Aring" unicode="&#xc5;" horiz-adv-x="742" 
d="M23 0zM591 0l-194 548q-7 19 -26 19t-26 -19l-194 -548h-128l214 600q16 45 51 67t83 22t83 -22t51 -67l214 -600h-128zM487 820q0 -51 -26.5 -81.5t-90.5 -30.5q-65 0 -90.5 31t-25.5 81t25.5 80.5t90.5 30.5t91 -30t26 -81zM370 750q39 0 53 20t14 50q0 29 -14 49
t-53 20t-54 -20t-15 -49q0 -30 15 -50t54 -20z" />
    <glyph glyph-name="AE" unicode="&#xc6;" horiz-adv-x="930" 
d="M233 584h-2q17 51 59 79t96 28q12 0 19.5 -0.5t11.5 -1.5h449v-121h-308q6 -24 6 -46v-115h302v-121h-302v-166h302v-120h-430v510q0 60 -52 60q-34 0 -41 -45l-196 -525h-124z" />
    <glyph glyph-name="Ccedilla" unicode="&#xc7;" 
d="M40 0zM353 0q-313 0 -313 344v3q1 342 314 342h250v-121h-281q-82 0 -122.5 -54t-40.5 -171q0 -223 162 -223h281v-120h-250zM272 -158q23 0 35 14t12 34v71h118v-73q0 -35 -13 -63.5t-35 -49.5t-52.5 -32.5t-64.5 -11.5v111z" />
    <glyph glyph-name="Egrave" unicode="&#xc8;" 
d="M39 0zM600 568h-363q-16 0 -30 -6.5t-24.5 -17.5t-17 -25.5t-6.5 -30.5q0 -34 22 -57.5t57 -23.5h362v-121h-363q-16 0 -30 -6.5t-24.5 -17.5t-17 -25.5t-6.5 -30.5q0 -38 22 -62t57 -24h362v-120h-344q-60 0 -101.5 17.5t-67 46.5t-37 65.5t-11.5 74.5q0 42 17 80.5
t57 62.5q-40 24 -57 63t-17 76q0 44 13 81.5t39.5 64.5t67.5 42t97 15h344v-121zM116 817v114l396 -132v-85z" />
    <glyph glyph-name="Eacute" unicode="&#xc9;" 
d="M39 0zM600 568h-363q-16 0 -30 -6.5t-24.5 -17.5t-17 -25.5t-6.5 -30.5q0 -34 22 -57.5t57 -23.5h362v-121h-363q-16 0 -30 -6.5t-24.5 -17.5t-17 -25.5t-6.5 -30.5q0 -38 22 -62t57 -24h362v-120h-344q-60 0 -101.5 17.5t-67 46.5t-37 65.5t-11.5 74.5q0 42 17 80.5
t57 62.5q-40 24 -57 63t-17 76q0 44 13 81.5t39.5 64.5t67.5 42t97 15h344v-121zM186 714v85l396 132v-114z" />
    <glyph glyph-name="Ecircumflex" unicode="&#xca;" 
d="M39 0zM600 568h-363q-16 0 -30 -6.5t-24.5 -17.5t-17 -25.5t-6.5 -30.5q0 -34 22 -57.5t57 -23.5h362v-121h-363q-16 0 -30 -6.5t-24.5 -17.5t-17 -25.5t-6.5 -30.5q0 -38 22 -62t57 -24h362v-120h-344q-60 0 -101.5 17.5t-67 46.5t-37 65.5t-11.5 74.5q0 42 17 80.5
t57 62.5q-40 24 -57 63t-17 76q0 44 13 81.5t39.5 64.5t67.5 42t97 15h344v-121zM450 721l-106 141l-107 -141h-100l128 171q15 20 36 29.5t43 9.5t42.5 -9.5t35.5 -29.5l130 -171h-102z" />
    <glyph glyph-name="Edieresis" unicode="&#xcb;" 
d="M39 0zM600 568h-363q-16 0 -30 -6.5t-24.5 -17.5t-17 -25.5t-6.5 -30.5q0 -34 22 -57.5t57 -23.5h362v-121h-363q-16 0 -30 -6.5t-24.5 -17.5t-17 -25.5t-6.5 -30.5q0 -38 22 -62t57 -24h362v-120h-344q-60 0 -101.5 17.5t-67 46.5t-37 65.5t-11.5 74.5q0 42 17 80.5
t57 62.5q-40 24 -57 63t-17 76q0 44 13 81.5t39.5 64.5t67.5 42t97 15h344v-121zM417 754v118h126v-118h-126zM146 754v118h125v-118h-125z" />
    <glyph glyph-name="Igrave" unicode="&#xcc;" horiz-adv-x="219" 
d="M0 0zM49 689h121v-689h-121v689zM-117 817v114l396 -132v-85z" />
    <glyph glyph-name="Iacute" unicode="&#xcd;" horiz-adv-x="219" 
d="M0 0zM49 689h121v-689h-121v689zM-57 714v85l396 132v-114z" />
    <glyph glyph-name="Icircumflex" unicode="&#xce;" horiz-adv-x="219" 
d="M0 0zM49 689h121v-689h-121v689zM216 721l-106 141l-107 -141h-100l128 171q15 20 36 29.5t43 9.5t42.5 -9.5t35.5 -29.5l130 -171h-102z" />
    <glyph glyph-name="Idieresis" unicode="&#xcf;" horiz-adv-x="219" 
d="M0 0zM49 689h121v-689h-121v689zM183 754v118h126v-118h-126zM-88 754v118h125v-118h-125z" />
    <glyph glyph-name="Eth" unicode="&#xd0;" horiz-adv-x="685" 
d="M8 408h41v281h285q312 0 312 -343v-3q-3 -343 -313 -343h-284v285h-41v123zM170 408h118v-123h-118v-165h193q82 0 122 54.5t40 172.5q0 221 -161 221h-194v-160z" />
    <glyph glyph-name="Ntilde" unicode="&#xd1;" horiz-adv-x="791" 
d="M49 0zM742 164q0 -39 -14 -70t-38 -53.5t-56.5 -34.5t-69.5 -12q-54 0 -96 28.5t-59 79.5l-138 424q-6 21 -15.5 32.5t-26.5 11.5q-51 0 -51 -60v-510h-129v522q0 38 13.5 69.5t37.5 53.5t56.5 34t70.5 12q53 0 95 -28t59 -79l139 -425q7 -21 16 -31.5t26 -10.5
q51 0 51 60v512h129v-525zM163 766v95h464v-95h-464z" />
    <glyph glyph-name="Ograve" unicode="&#xd2;" horiz-adv-x="760" 
d="M40 0zM323 568q-82 0 -122.5 -54t-40.5 -171q0 -223 162 -223h116q162 0 162 223q0 117 -41 171t-122 54h-114zM406 689q311 0 314 -342v-3q0 -344 -313 -344h-54q-313 0 -313 344v3q1 342 314 342h52zM152 817v114l396 -132v-85z" />
    <glyph glyph-name="Oacute" unicode="&#xd3;" horiz-adv-x="760" 
d="M40 0zM323 568q-82 0 -122.5 -54t-40.5 -171q0 -223 162 -223h116q162 0 162 223q0 117 -41 171t-122 54h-114zM406 689q311 0 314 -342v-3q0 -344 -313 -344h-54q-313 0 -313 344v3q1 342 314 342h52zM212 714v85l396 132v-114z" />
    <glyph glyph-name="Ocircumflex" unicode="&#xd4;" horiz-adv-x="760" 
d="M40 0zM323 568q-82 0 -122.5 -54t-40.5 -171q0 -223 162 -223h116q162 0 162 223q0 117 -41 171t-122 54h-114zM406 689q311 0 314 -342v-3q0 -344 -313 -344h-54q-313 0 -313 344v3q1 342 314 342h52zM485 721l-106 141l-107 -141h-100l128 171q15 20 36 29.5t43 9.5
t42.5 -9.5t35.5 -29.5l130 -171h-102z" />
    <glyph glyph-name="Otilde" unicode="&#xd5;" horiz-adv-x="760" 
d="M40 0zM323 568q-82 0 -122.5 -54t-40.5 -171q0 -223 162 -223h116q162 0 162 223q0 117 -41 171t-122 54h-114zM406 689q311 0 314 -342v-3q0 -344 -313 -344h-54q-313 0 -313 344v3q1 342 314 342h52zM148 766v95h464v-95h-464z" />
    <glyph glyph-name="Odieresis" unicode="&#xd6;" horiz-adv-x="760" 
d="M40 0zM323 568q-82 0 -122.5 -54t-40.5 -171q0 -223 162 -223h116q162 0 162 223q0 117 -41 171t-122 54h-114zM406 689q311 0 314 -342v-3q0 -344 -313 -344h-54q-313 0 -313 344v3q1 342 314 342h52zM452 754v118h126v-118h-126zM181 754v118h125v-118h-125z" />
    <glyph glyph-name="multiply" unicode="&#xd7;" horiz-adv-x="536" 
d="M268 288l-144 -144l-64 64l143 145l-143 142l64 64l144 -142l143 142l64 -64l-143 -142l144 -145l-64 -64z" />
    <glyph glyph-name="Oslash" unicode="&#xd8;" horiz-adv-x="760" 
d="M119 -30l45 76q-124 81 -124 298v3q1 342 314 342h52q73 0 127 -18l29 48h81l-46 -79q122 -80 123 -293v-3q0 -344 -313 -344h-54q-72 0 -123 16l-27 -46h-84zM323 568q-82 0 -122.5 -54t-40.5 -171q0 -140 65 -193l247 418h-149zM600 343q0 143 -64 194l-244 -417h146
q162 0 162 223z" />
    <glyph glyph-name="Ugrave" unicode="&#xd9;" horiz-adv-x="679" 
d="M49 0zM629 261q0 -59 -18 -107t-54 -82t-90.5 -53t-126.5 -19q-71 0 -125 19t-91 53.5t-56 82.5t-19 105v429h121v-426q0 -63 45.5 -103t126.5 -40h3q81 0 122 40t41 103v426h121v-428zM111 817v114l396 -132v-85z" />
    <glyph glyph-name="Uacute" unicode="&#xda;" horiz-adv-x="679" 
d="M49 0zM629 261q0 -59 -18 -107t-54 -82t-90.5 -53t-126.5 -19q-71 0 -125 19t-91 53.5t-56 82.5t-19 105v429h121v-426q0 -63 45.5 -103t126.5 -40h3q81 0 122 40t41 103v426h121v-428zM171 714v85l396 132v-114z" />
    <glyph glyph-name="Ucircumflex" unicode="&#xdb;" horiz-adv-x="679" 
d="M49 0zM629 261q0 -59 -18 -107t-54 -82t-90.5 -53t-126.5 -19q-71 0 -125 19t-91 53.5t-56 82.5t-19 105v429h121v-426q0 -63 45.5 -103t126.5 -40h3q81 0 122 40t41 103v426h121v-428zM445 721l-106 141l-107 -141h-100l128 171q15 20 36 29.5t43 9.5t42.5 -9.5
t35.5 -29.5l130 -171h-102z" />
    <glyph glyph-name="Udieresis" unicode="&#xdc;" horiz-adv-x="679" 
d="M49 0zM629 261q0 -59 -18 -107t-54 -82t-90.5 -53t-126.5 -19q-71 0 -125 19t-91 53.5t-56 82.5t-19 105v429h121v-426q0 -63 45.5 -103t126.5 -40h3q81 0 122 40t41 103v426h121v-428zM412 754v118h126v-118h-126zM141 754v118h125v-118h-125z" />
    <glyph glyph-name="Yacute" unicode="&#xdd;" horiz-adv-x="665" 
d="M18 0zM273 305l-255 384h144l171 -276l170 276h144l-254 -376v-313h-120v305zM164 714v85l396 132v-114z" />
    <glyph glyph-name="Thorn" unicode="&#xde;" horiz-adv-x="596" 
d="M170 270h186q34 0 56.5 23.5t22.5 58.5q0 32 -23 56t-55 24h-187v-162zM170 689v-137h168q57 0 98.5 -16t67.5 -44t38.5 -64.5t12.5 -78.5q0 -36 -11.5 -72t-37.5 -64.5t-67.5 -46t-100.5 -17.5h-168v-149h-121v689h121z" />
    <glyph glyph-name="germandbls" unicode="&#xdf;" horiz-adv-x="1368" 
d="M39 0zM645 201q0 -100 -57.5 -150.5t-160.5 -50.5h-354v120h377q32 0 53 24.5t21 59.5q0 33 -21 57.5t-53 24.5h-194q-60 0 -101.5 18t-67 47t-37 64.5t-11.5 70.5q0 42 12 78.5t38.5 64.5t67.5 44t99 16h344v-121h-363q-16 0 -30 -6.5t-24.5 -17.5t-17 -25.5t-6.5 -30.5
q0 -34 23 -57.5t56 -23.5h191q100 0 158 -50.5t58 -150.5v-5zM1329 201q0 -100 -57.5 -150.5t-160.5 -50.5h-354v120h377q32 0 53 24.5t21 59.5q0 33 -21 57.5t-53 24.5h-194q-60 0 -101.5 18t-67 47t-37 64.5t-11.5 70.5q0 42 12 78.5t38.5 64.5t67.5 44t99 16h344v-121
h-363q-16 0 -30 -6.5t-24.5 -17.5t-17 -25.5t-6.5 -30.5q0 -34 23 -57.5t56 -23.5h191q100 0 158 -50.5t58 -150.5v-5z" />
    <glyph glyph-name="agrave" unicode="&#xe0;" horiz-adv-x="742" 
d="M23 0zM368 568q-15 0 -23 -20l-118 -329h286l-116 328q-5 12 -11 16.5t-13 4.5h-5zM186 99l-35 -99h-128l214 601q16 45 51 67t83 22t83 -22t51 -67l214 -601h-128l-36 99h-369zM143 817v114l396 -132v-85z" />
    <glyph glyph-name="aacute" unicode="&#xe1;" horiz-adv-x="742" 
d="M23 0zM368 568q-15 0 -23 -20l-118 -329h286l-116 328q-5 12 -11 16.5t-13 4.5h-5zM186 99l-35 -99h-128l214 601q16 45 51 67t83 22t83 -22t51 -67l214 -601h-128l-36 99h-369zM203 714v85l396 132v-114z" />
    <glyph glyph-name="acircumflex" unicode="&#xe2;" horiz-adv-x="742" 
d="M23 0zM368 568q-15 0 -23 -20l-118 -329h286l-116 328q-5 12 -11 16.5t-13 4.5h-5zM186 99l-35 -99h-128l214 601q16 45 51 67t83 22t83 -22t51 -67l214 -601h-128l-36 99h-369zM476 721l-106 141l-107 -141h-100l128 171q15 20 36 29.5t43 9.5t42.5 -9.5t35.5 -29.5
l130 -171h-102z" />
    <glyph glyph-name="atilde" unicode="&#xe3;" horiz-adv-x="742" 
d="M23 0zM368 568q-15 0 -23 -20l-118 -329h286l-116 328q-5 12 -11 16.5t-13 4.5h-5zM186 99l-35 -99h-128l214 601q16 45 51 67t83 22t83 -22t51 -67l214 -601h-128l-36 99h-369zM139 766v95h464v-95h-464z" />
    <glyph glyph-name="adieresis" unicode="&#xe4;" horiz-adv-x="742" 
d="M23 0zM368 568q-15 0 -23 -20l-118 -329h286l-116 328q-5 12 -11 16.5t-13 4.5h-5zM186 99l-35 -99h-128l214 601q16 45 51 67t83 22t83 -22t51 -67l214 -601h-128l-36 99h-369zM443 754v118h126v-118h-126zM172 754v118h125v-118h-125z" />
    <glyph glyph-name="aring" unicode="&#xe5;" horiz-adv-x="742" 
d="M23 0zM368 568q-15 0 -23 -20l-118 -329h286l-116 328q-5 12 -11 16.5t-13 4.5h-5zM186 99l-35 -99h-128l214 601q16 45 51 67t83 22t83 -22t51 -67l214 -601h-128l-36 99h-369zM487 820q0 -51 -26.5 -81.5t-90.5 -30.5q-65 0 -90.5 31t-25.5 81t25.5 80.5t90.5 30.5
t91 -30t26 -81zM370 750q39 0 53 20t14 50q0 29 -14 49t-53 20t-54 -20t-15 -49q0 -30 15 -50t54 -20z" />
    <glyph glyph-name="ae" unicode="&#xe6;" horiz-adv-x="930" 
d="M233 584h-2q17 51 59 79t96 28h16q2 0 6 -0.5t9 -1.5h449v-121h-308q6 -24 6 -46v-115h302v-121h-302v-166h302v-120h-430v99h-252l-37 -99h-124zM436 211v299q0 60 -52 60q-34 0 -41 -45l-117 -314h210z" />
    <glyph glyph-name="ccedilla" unicode="&#xe7;" 
d="M40 0zM353 0q-313 0 -313 344v3q1 342 314 342h250v-121h-281q-82 0 -122.5 -54t-40.5 -171q0 -223 162 -223h281v-120h-250zM272 -158q23 0 35 14t12 34v71h118v-73q0 -35 -13 -63.5t-35 -49.5t-52.5 -32.5t-64.5 -11.5v111z" />
    <glyph glyph-name="egrave" unicode="&#xe8;" 
d="M39 0zM600 568h-363q-16 0 -30 -6.5t-24.5 -17.5t-17 -25.5t-6.5 -30.5q0 -34 22 -57.5t57 -23.5h362v-121h-363q-16 0 -30 -6.5t-24.5 -17.5t-17 -25.5t-6.5 -30.5q0 -38 22 -62t57 -24h362v-120h-344q-60 0 -101.5 17.5t-67 46.5t-37 65.5t-11.5 74.5q0 42 17 80.5
t57 62.5q-40 24 -57 63t-17 76q0 44 13 81.5t39.5 64.5t67.5 42t97 15h344v-121zM116 817v114l396 -132v-85z" />
    <glyph glyph-name="eacute" unicode="&#xe9;" 
d="M39 0zM600 568h-363q-16 0 -30 -6.5t-24.5 -17.5t-17 -25.5t-6.5 -30.5q0 -34 22 -57.5t57 -23.5h362v-121h-363q-16 0 -30 -6.5t-24.5 -17.5t-17 -25.5t-6.5 -30.5q0 -38 22 -62t57 -24h362v-120h-344q-60 0 -101.5 17.5t-67 46.5t-37 65.5t-11.5 74.5q0 42 17 80.5
t57 62.5q-40 24 -57 63t-17 76q0 44 13 81.5t39.5 64.5t67.5 42t97 15h344v-121zM186 714v85l396 132v-114z" />
    <glyph glyph-name="ecircumflex" unicode="&#xea;" 
d="M39 0zM600 568h-363q-16 0 -30 -6.5t-24.5 -17.5t-17 -25.5t-6.5 -30.5q0 -34 22 -57.5t57 -23.5h362v-121h-363q-16 0 -30 -6.5t-24.5 -17.5t-17 -25.5t-6.5 -30.5q0 -38 22 -62t57 -24h362v-120h-344q-60 0 -101.5 17.5t-67 46.5t-37 65.5t-11.5 74.5q0 42 17 80.5
t57 62.5q-40 24 -57 63t-17 76q0 44 13 81.5t39.5 64.5t67.5 42t97 15h344v-121zM450 721l-106 141l-107 -141h-100l128 171q15 20 36 29.5t43 9.5t42.5 -9.5t35.5 -29.5l130 -171h-102z" />
    <glyph glyph-name="edieresis" unicode="&#xeb;" 
d="M39 0zM600 568h-363q-16 0 -30 -6.5t-24.5 -17.5t-17 -25.5t-6.5 -30.5q0 -34 22 -57.5t57 -23.5h362v-121h-363q-16 0 -30 -6.5t-24.5 -17.5t-17 -25.5t-6.5 -30.5q0 -38 22 -62t57 -24h362v-120h-344q-60 0 -101.5 17.5t-67 46.5t-37 65.5t-11.5 74.5q0 42 17 80.5
t57 62.5q-40 24 -57 63t-17 76q0 44 13 81.5t39.5 64.5t67.5 42t97 15h344v-121zM417 754v118h126v-118h-126zM146 754v118h125v-118h-125z" />
    <glyph glyph-name="igrave" unicode="&#xec;" horiz-adv-x="219" 
d="M0 0zM49 689h121v-689h-121v689zM-117 817v114l396 -132v-85z" />
    <glyph glyph-name="iacute" unicode="&#xed;" horiz-adv-x="219" 
d="M0 0zM49 689h121v-689h-121v689zM-57 714v85l396 132v-114z" />
    <glyph glyph-name="icircumflex" unicode="&#xee;" horiz-adv-x="219" 
d="M0 0zM49 689h121v-689h-121v689zM216 721l-106 141l-107 -141h-100l128 171q15 20 36 29.5t43 9.5t42.5 -9.5t35.5 -29.5l130 -171h-102z" />
    <glyph glyph-name="idieresis" unicode="&#xef;" horiz-adv-x="219" 
d="M0 0zM49 689h121v-689h-121v689zM183 754v118h126v-118h-126zM-88 754v118h125v-118h-125z" />
    <glyph glyph-name="eth" unicode="&#xf0;" horiz-adv-x="685" 
d="M8 0zM8 408h41v281h285q312 0 312 -343v-3q-3 -343 -313 -343h-284v285h-41v123zM170 408h118v-123h-118v-165h193q82 0 122 54.5t40 172.5q0 221 -161 221h-194v-160z" />
    <glyph glyph-name="ntilde" unicode="&#xf1;" horiz-adv-x="791" 
d="M49 0zM742 164q0 -39 -14 -70t-38 -53.5t-56.5 -34.5t-69.5 -12q-54 0 -96 28.5t-59 79.5l-138 424q-6 21 -15.5 32.5t-26.5 11.5q-51 0 -51 -60v-510h-129v522q0 38 13.5 69.5t37.5 53.5t56.5 34t70.5 12q53 0 95 -28t59 -79l139 -425q7 -21 16 -31.5t26 -10.5
q51 0 51 60v512h129v-525zM163 766v95h464v-95h-464z" />
    <glyph glyph-name="ograve" unicode="&#xf2;" horiz-adv-x="760" 
d="M40 0zM323 568q-82 0 -122.5 -54t-40.5 -171q0 -223 162 -223h116q162 0 162 223q0 117 -41 171t-122 54h-114zM406 689q311 0 314 -342v-3q0 -344 -313 -344h-54q-313 0 -313 344v3q1 342 314 342h52zM152 817v114l396 -132v-85z" />
    <glyph glyph-name="oacute" unicode="&#xf3;" horiz-adv-x="760" 
d="M40 0zM323 568q-82 0 -122.5 -54t-40.5 -171q0 -223 162 -223h116q162 0 162 223q0 117 -41 171t-122 54h-114zM406 689q311 0 314 -342v-3q0 -344 -313 -344h-54q-313 0 -313 344v3q1 342 314 342h52zM212 714v85l396 132v-114z" />
    <glyph glyph-name="ocircumflex" unicode="&#xf4;" horiz-adv-x="760" 
d="M40 0zM323 568q-82 0 -122.5 -54t-40.5 -171q0 -223 162 -223h116q162 0 162 223q0 117 -41 171t-122 54h-114zM406 689q311 0 314 -342v-3q0 -344 -313 -344h-54q-313 0 -313 344v3q1 342 314 342h52zM485 721l-106 141l-107 -141h-100l128 171q15 20 36 29.5t43 9.5
t42.5 -9.5t35.5 -29.5l130 -171h-102z" />
    <glyph glyph-name="otilde" unicode="&#xf5;" horiz-adv-x="760" 
d="M40 0zM323 568q-82 0 -122.5 -54t-40.5 -171q0 -223 162 -223h116q162 0 162 223q0 117 -41 171t-122 54h-114zM406 689q311 0 314 -342v-3q0 -344 -313 -344h-54q-313 0 -313 344v3q1 342 314 342h52zM148 766v95h464v-95h-464z" />
    <glyph glyph-name="odieresis" unicode="&#xf6;" horiz-adv-x="760" 
d="M40 0zM323 568q-82 0 -122.5 -54t-40.5 -171q0 -223 162 -223h116q162 0 162 223q0 117 -41 171t-122 54h-114zM406 689q311 0 314 -342v-3q0 -344 -313 -344h-54q-313 0 -313 344v3q1 342 314 342h52zM452 754v118h126v-118h-126zM181 754v118h125v-118h-125z" />
    <glyph glyph-name="divide" unicode="&#xf7;" horiz-adv-x="536" 
d="M20 96zM20 307v91h497v-91h-497zM204 609h128v-121h-128v121zM204 217h128v-121h-128v121z" />
    <glyph glyph-name="oslash" unicode="&#xf8;" horiz-adv-x="760" 
d="M40 0zM119 -30l45 76q-124 81 -124 298v3q1 342 314 342h52q73 0 127 -18l29 48h81l-46 -79q122 -80 123 -293v-3q0 -344 -313 -344h-54q-72 0 -123 16l-27 -46h-84zM323 568q-82 0 -122.5 -54t-40.5 -171q0 -140 65 -193l247 418h-149zM600 343q0 143 -64 194l-244 -417
h146q162 0 162 223z" />
    <glyph glyph-name="ugrave" unicode="&#xf9;" horiz-adv-x="679" 
d="M49 0zM629 261q0 -59 -18 -107t-54 -82t-90.5 -53t-126.5 -19q-71 0 -125 19t-91 53.5t-56 82.5t-19 105v429h121v-426q0 -63 45.5 -103t126.5 -40h3q81 0 122 40t41 103v426h121v-428zM111 817v114l396 -132v-85z" />
    <glyph glyph-name="uacute" unicode="&#xfa;" horiz-adv-x="679" 
d="M49 0zM629 261q0 -59 -18 -107t-54 -82t-90.5 -53t-126.5 -19q-71 0 -125 19t-91 53.5t-56 82.5t-19 105v429h121v-426q0 -63 45.5 -103t126.5 -40h3q81 0 122 40t41 103v426h121v-428zM171 714v85l396 132v-114z" />
    <glyph glyph-name="ucircumflex" unicode="&#xfb;" horiz-adv-x="679" 
d="M49 0zM629 261q0 -59 -18 -107t-54 -82t-90.5 -53t-126.5 -19q-71 0 -125 19t-91 53.5t-56 82.5t-19 105v429h121v-426q0 -63 45.5 -103t126.5 -40h3q81 0 122 40t41 103v426h121v-428zM445 721l-106 141l-107 -141h-100l128 171q15 20 36 29.5t43 9.5t42.5 -9.5
t35.5 -29.5l130 -171h-102z" />
    <glyph glyph-name="udieresis" unicode="&#xfc;" horiz-adv-x="679" 
d="M49 0zM629 261q0 -59 -18 -107t-54 -82t-90.5 -53t-126.5 -19q-71 0 -125 19t-91 53.5t-56 82.5t-19 105v429h121v-426q0 -63 45.5 -103t126.5 -40h3q81 0 122 40t41 103v426h121v-428zM412 754v118h126v-118h-126zM141 754v118h125v-118h-125z" />
    <glyph glyph-name="yacute" unicode="&#xfd;" horiz-adv-x="665" 
d="M18 0zM273 305l-255 384h144l171 -276l170 276h144l-254 -376v-313h-120v305zM164 714v85l396 132v-114z" />
    <glyph glyph-name="thorn" unicode="&#xfe;" horiz-adv-x="596" 
d="M49 0zM170 270h186q34 0 56.5 23.5t22.5 58.5q0 32 -23 56t-55 24h-187v-162zM170 689v-137h168q57 0 98.5 -16t67.5 -44t38.5 -64.5t12.5 -78.5q0 -36 -11.5 -72t-37.5 -64.5t-67.5 -46t-100.5 -17.5h-168v-149h-121v689h121z" />
    <glyph glyph-name="ydieresis" unicode="&#xff;" horiz-adv-x="665" 
d="M18 0zM273 305l-255 384h144l171 -276l170 276h144l-254 -376v-313h-120v305zM405 754v118h126v-118h-126zM134 754v118h125v-118h-125z" />
    <glyph glyph-name="Amacron" unicode="&#x100;" horiz-adv-x="742" 
d="M23 0zM591 0l-194 548q-7 19 -26 19t-26 -19l-194 -548h-128l214 600q16 45 51 67t83 22t83 -22t51 -67l214 -600h-128zM139 766v95h464v-95h-464z" />
    <glyph glyph-name="amacron" unicode="&#x101;" horiz-adv-x="742" 
d="M23 0zM368 568q-15 0 -23 -20l-118 -329h286l-116 328q-5 12 -11 16.5t-13 4.5h-5zM186 99l-35 -99h-128l214 601q16 45 51 67t83 22t83 -22t51 -67l214 -601h-128l-36 99h-369zM139 766v95h464v-95h-464z" />
    <glyph glyph-name="Abreve" unicode="&#x102;" horiz-adv-x="742" 
d="M23 0zM591 0l-194 548q-7 19 -26 19t-26 -19l-194 -548h-128l214 600q16 45 51 67t83 22t83 -22t51 -67l214 -600h-128zM598 931q-5 -60 -25 -100.5t-50.5 -64.5t-69.5 -34.5t-82 -10.5q-44 0 -83 10.5t-69.5 34.5t-50 64.5t-24.5 100.5h90q1 -66 36 -106.5t101 -40.5
q64 0 100.5 40.5t37.5 106.5h89z" />
    <glyph glyph-name="abreve" unicode="&#x103;" horiz-adv-x="742" 
d="M23 0zM368 568q-15 0 -23 -20l-118 -329h286l-116 328q-5 12 -11 16.5t-13 4.5h-5zM186 99l-35 -99h-128l214 601q16 45 51 67t83 22t83 -22t51 -67l214 -601h-128l-36 99h-369zM598 931q-5 -60 -25 -100.5t-50.5 -64.5t-69.5 -34.5t-82 -10.5q-44 0 -83 10.5t-69.5 34.5
t-50 64.5t-24.5 100.5h90q1 -66 36 -106.5t101 -40.5q64 0 100.5 40.5t37.5 106.5h89z" />
    <glyph glyph-name="Aogonek" unicode="&#x104;" horiz-adv-x="742" 
d="M609 -268q-69 0 -102 34t-33 85q0 45 23.5 72.5t65.5 46.5l65 30h-37l-194 548q-7 19 -26 19t-26 -19l-194 -548h-128l214 600q16 45 51 67t83 22t83 -22t51 -67l214 -600l-95 -49q-23 -12 -33 -25t-10 -39q0 -20 17 -33t44 -13h77v-109h-110z" />
    <glyph glyph-name="aogonek" unicode="&#x105;" horiz-adv-x="742" 
d="M609 -268q-69 0 -102 34t-33 85q0 45 23.5 72.5t65.5 46.5l65 30h-37l-36 99h-369l-35 -99h-128l214 601q16 45 51 67t83 22t83 -22t51 -67l214 -601l-95 -49q-23 -12 -33 -25t-10 -39q0 -20 17 -33t44 -13h77v-109h-110zM368 568q-15 0 -23 -20l-118 -329h286l-116 328
q-5 12 -11 16.5t-13 4.5h-5z" />
    <glyph glyph-name="Cacute" unicode="&#x106;" 
d="M40 0zM353 0q-313 0 -313 344v3q1 342 314 342h250v-121h-281q-82 0 -122.5 -54t-40.5 -171q0 -223 162 -223h281v-120h-250zM216 714v85l396 132v-114z" />
    <glyph glyph-name="cacute" unicode="&#x107;" 
d="M40 0zM353 0q-313 0 -313 344v3q1 342 314 342h250v-121h-281q-82 0 -122.5 -54t-40.5 -171q0 -223 162 -223h281v-120h-250zM216 714v85l396 132v-114z" />
    <glyph glyph-name="Ccircumflex" unicode="&#x108;" 
d="M40 0zM353 0q-313 0 -313 344v3q1 342 314 342h250v-121h-281q-82 0 -122.5 -54t-40.5 -171q0 -223 162 -223h281v-120h-250zM480 721l-106 141l-107 -141h-100l128 171q15 20 36 29.5t43 9.5t42.5 -9.5t35.5 -29.5l130 -171h-102z" />
    <glyph glyph-name="ccircumflex" unicode="&#x109;" 
d="M40 0zM353 0q-313 0 -313 344v3q1 342 314 342h250v-121h-281q-82 0 -122.5 -54t-40.5 -171q0 -223 162 -223h281v-120h-250zM480 721l-106 141l-107 -141h-100l128 171q15 20 36 29.5t43 9.5t42.5 -9.5t35.5 -29.5l130 -171h-102z" />
    <glyph glyph-name="Cdotaccent" unicode="&#x10a;" 
d="M40 0zM353 0q-313 0 -313 344v3q1 342 314 342h250v-121h-281q-82 0 -122.5 -54t-40.5 -171q0 -223 162 -223h281v-120h-250zM322 754v118h125v-118h-125z" />
    <glyph glyph-name="cdotaccent" unicode="&#x10b;" 
d="M40 0zM353 0q-313 0 -313 344v3q1 342 314 342h250v-121h-281q-82 0 -122.5 -54t-40.5 -171q0 -223 162 -223h281v-120h-250zM322 754v118h125v-118h-125z" />
    <glyph glyph-name="Ccaron" unicode="&#x10c;" 
d="M40 0zM353 0q-313 0 -313 344v3q1 342 314 342h250v-121h-281q-82 0 -122.5 -54t-40.5 -171q0 -223 162 -223h281v-120h-250zM462 760q-15 -20 -35.5 -29.5t-42.5 -9.5q-23 0 -43.5 9.5t-35.5 29.5l-128 171h100l107 -142l106 142h102z" />
    <glyph glyph-name="ccaron" unicode="&#x10d;" 
d="M40 0zM353 0q-313 0 -313 344v3q1 342 314 342h250v-121h-281q-82 0 -122.5 -54t-40.5 -171q0 -223 162 -223h281v-120h-250zM462 760q-15 -20 -35.5 -29.5t-42.5 -9.5q-23 0 -43.5 9.5t-35.5 29.5l-128 171h100l107 -142l106 142h102z" />
    <glyph glyph-name="Dcaron" unicode="&#x10e;" horiz-adv-x="685" 
d="M49 0zM170 120h193q82 0 122 54.5t40 172.5q0 221 -161 221h-194v-448zM334 689q312 0 312 -343v-3q-3 -343 -313 -343h-284v689h285zM390 760q-15 -20 -35.5 -29.5t-42.5 -9.5q-23 0 -43.5 9.5t-35.5 29.5l-128 171h100l107 -142l106 142h102z" />
    <glyph glyph-name="dcaron" unicode="&#x10f;" horiz-adv-x="685" 
d="M49 0zM170 120h193q82 0 122 54.5t40 172.5q0 221 -161 221h-194v-448zM334 689q312 0 312 -343v-3q-3 -343 -313 -343h-284v689h285zM390 760q-15 -20 -35.5 -29.5t-42.5 -9.5q-23 0 -43.5 9.5t-35.5 29.5l-128 171h100l107 -142l106 142h102z" />
    <glyph glyph-name="Dcroat" unicode="&#x110;" horiz-adv-x="685" 
d="M8 0zM8 408h41v281h285q312 0 312 -343v-3q-3 -343 -313 -343h-284v285h-41v123zM170 408h118v-123h-118v-165h193q82 0 122 54.5t40 172.5q0 221 -161 221h-194v-160z" />
    <glyph glyph-name="dcroat" unicode="&#x111;" horiz-adv-x="685" 
d="M8 0zM8 408h41v281h285q312 0 312 -343v-3q-3 -343 -313 -343h-284v285h-41v123zM170 408h118v-123h-118v-165h193q82 0 122 54.5t40 172.5q0 221 -161 221h-194v-160z" />
    <glyph glyph-name="Emacron" unicode="&#x112;" 
d="M39 0zM600 568h-363q-16 0 -30 -6.5t-24.5 -17.5t-17 -25.5t-6.5 -30.5q0 -34 22 -57.5t57 -23.5h362v-121h-363q-16 0 -30 -6.5t-24.5 -17.5t-17 -25.5t-6.5 -30.5q0 -38 22 -62t57 -24h362v-120h-344q-60 0 -101.5 17.5t-67 46.5t-37 65.5t-11.5 74.5q0 42 17 80.5
t57 62.5q-40 24 -57 63t-17 76q0 44 13 81.5t39.5 64.5t67.5 42t97 15h344v-121zM102 766v95h464v-95h-464z" />
    <glyph glyph-name="emacron" unicode="&#x113;" 
d="M39 0zM600 568h-363q-16 0 -30 -6.5t-24.5 -17.5t-17 -25.5t-6.5 -30.5q0 -34 22 -57.5t57 -23.5h362v-121h-363q-16 0 -30 -6.5t-24.5 -17.5t-17 -25.5t-6.5 -30.5q0 -38 22 -62t57 -24h362v-120h-344q-60 0 -101.5 17.5t-67 46.5t-37 65.5t-11.5 74.5q0 42 17 80.5
t57 62.5q-40 24 -57 63t-17 76q0 44 13 81.5t39.5 64.5t67.5 42t97 15h344v-121zM102 766v95h464v-95h-464z" />
    <glyph glyph-name="Ebreve" unicode="&#x114;" 
d="M39 0zM600 568h-363q-16 0 -30 -6.5t-24.5 -17.5t-17 -25.5t-6.5 -30.5q0 -34 22 -57.5t57 -23.5h362v-121h-363q-16 0 -30 -6.5t-24.5 -17.5t-17 -25.5t-6.5 -30.5q0 -38 22 -62t57 -24h362v-120h-344q-60 0 -101.5 17.5t-67 46.5t-37 65.5t-11.5 74.5q0 42 17 80.5
t57 62.5q-40 24 -57 63t-17 76q0 44 13 81.5t39.5 64.5t67.5 42t97 15h344v-121zM571 931q-5 -60 -25 -100.5t-50.5 -64.5t-69.5 -34.5t-82 -10.5q-44 0 -83 10.5t-69.5 34.5t-50 64.5t-24.5 100.5h90q1 -66 36 -106.5t101 -40.5q64 0 100.5 40.5t37.5 106.5h89z" />
    <glyph glyph-name="ebreve" unicode="&#x115;" 
d="M39 0zM600 568h-363q-16 0 -30 -6.5t-24.5 -17.5t-17 -25.5t-6.5 -30.5q0 -34 22 -57.5t57 -23.5h362v-121h-363q-16 0 -30 -6.5t-24.5 -17.5t-17 -25.5t-6.5 -30.5q0 -38 22 -62t57 -24h362v-120h-344q-60 0 -101.5 17.5t-67 46.5t-37 65.5t-11.5 74.5q0 42 17 80.5
t57 62.5q-40 24 -57 63t-17 76q0 44 13 81.5t39.5 64.5t67.5 42t97 15h344v-121zM571 931q-5 -60 -25 -100.5t-50.5 -64.5t-69.5 -34.5t-82 -10.5q-44 0 -83 10.5t-69.5 34.5t-50 64.5t-24.5 100.5h90q1 -66 36 -106.5t101 -40.5q64 0 100.5 40.5t37.5 106.5h89z" />
    <glyph glyph-name="Edotaccent" unicode="&#x116;" 
d="M39 0zM600 568h-363q-16 0 -30 -6.5t-24.5 -17.5t-17 -25.5t-6.5 -30.5q0 -34 22 -57.5t57 -23.5h362v-121h-363q-16 0 -30 -6.5t-24.5 -17.5t-17 -25.5t-6.5 -30.5q0 -38 22 -62t57 -24h362v-120h-344q-60 0 -101.5 17.5t-67 46.5t-37 65.5t-11.5 74.5q0 42 17 80.5
t57 62.5q-40 24 -57 63t-17 76q0 44 13 81.5t39.5 64.5t67.5 42t97 15h344v-121zM292 754v118h125v-118h-125z" />
    <glyph glyph-name="edotaccent" unicode="&#x117;" 
d="M39 0zM600 568h-363q-16 0 -30 -6.5t-24.5 -17.5t-17 -25.5t-6.5 -30.5q0 -34 22 -57.5t57 -23.5h362v-121h-363q-16 0 -30 -6.5t-24.5 -17.5t-17 -25.5t-6.5 -30.5q0 -38 22 -62t57 -24h362v-120h-344q-60 0 -101.5 17.5t-67 46.5t-37 65.5t-11.5 74.5q0 42 17 80.5
t57 62.5q-40 24 -57 63t-17 76q0 44 13 81.5t39.5 64.5t67.5 42t97 15h344v-121zM292 754v118h125v-118h-125z" />
    <glyph glyph-name="Eogonek" unicode="&#x118;" 
d="M490 -268q-69 0 -102 34t-33 85q0 45 23.5 72.5t65.5 46.5l65 30h-253q-60 0 -101.5 17.5t-67 46.5t-37 65.5t-11.5 74.5q0 42 17 80.5t57 62.5q-40 24 -57 63t-17 76q0 44 13 81.5t39.5 64.5t67.5 42t97 15h344v-121h-363q-16 0 -30 -6.5t-24.5 -17.5t-17 -25.5
t-6.5 -30.5q0 -34 22 -57.5t57 -23.5h362v-121h-363q-16 0 -30 -6.5t-24.5 -17.5t-17 -25.5t-6.5 -30.5q0 -38 22 -62t57 -24h362v-120l-95 -49q-23 -12 -33 -25t-10 -39q0 -20 17 -33t44 -13h77v-109h-110z" />
    <glyph glyph-name="eogonek" unicode="&#x119;" 
d="M39 0zM490 -268q-69 0 -102 34t-33 85q0 45 23.5 72.5t65.5 46.5l65 30h-253q-60 0 -101.5 17.5t-67 46.5t-37 65.5t-11.5 74.5q0 42 17 80.5t57 62.5q-40 24 -57 63t-17 76q0 44 13 81.5t39.5 64.5t67.5 42t97 15h344v-121h-363q-16 0 -30 -6.5t-24.5 -17.5t-17 -25.5
t-6.5 -30.5q0 -34 22 -57.5t57 -23.5h362v-121h-363q-16 0 -30 -6.5t-24.5 -17.5t-17 -25.5t-6.5 -30.5q0 -38 22 -62t57 -24h362v-120l-95 -49q-23 -12 -33 -25t-10 -39q0 -20 17 -33t44 -13h77v-109h-110z" />
    <glyph glyph-name="Ecaron" unicode="&#x11a;" 
d="M39 0zM600 568h-363q-16 0 -30 -6.5t-24.5 -17.5t-17 -25.5t-6.5 -30.5q0 -34 22 -57.5t57 -23.5h362v-121h-363q-16 0 -30 -6.5t-24.5 -17.5t-17 -25.5t-6.5 -30.5q0 -38 22 -62t57 -24h362v-120h-344q-60 0 -101.5 17.5t-67 46.5t-37 65.5t-11.5 74.5q0 42 17 80.5
t57 62.5q-40 24 -57 63t-17 76q0 44 13 81.5t39.5 64.5t67.5 42t97 15h344v-121zM422 760q-15 -20 -35.5 -29.5t-42.5 -9.5q-23 0 -43.5 9.5t-35.5 29.5l-128 171h100l107 -142l106 142h102z" />
    <glyph glyph-name="ecaron" unicode="&#x11b;" 
d="M39 0zM600 568h-363q-16 0 -30 -6.5t-24.5 -17.5t-17 -25.5t-6.5 -30.5q0 -34 22 -57.5t57 -23.5h362v-121h-363q-16 0 -30 -6.5t-24.5 -17.5t-17 -25.5t-6.5 -30.5q0 -38 22 -62t57 -24h362v-120h-344q-60 0 -101.5 17.5t-67 46.5t-37 65.5t-11.5 74.5q0 42 17 80.5
t57 62.5q-40 24 -57 63t-17 76q0 44 13 81.5t39.5 64.5t67.5 42t97 15h344v-121zM422 760q-15 -20 -35.5 -29.5t-42.5 -9.5q-23 0 -43.5 9.5t-35.5 29.5l-128 171h100l107 -142l106 142h102z" />
    <glyph glyph-name="Gcircumflex" unicode="&#x11c;" horiz-adv-x="701" 
d="M40 0zM353 0q-313 0 -313 344v3q1 342 314 342h250v-121h-281q-82 0 -122.5 -54t-40.5 -171q0 -223 162 -223h144q15 0 29 7t24 18.5t16 26.5t6 32q0 33 -21 57.5t-54 24.5h-109v121h115q40 0 74.5 -15.5t60 -43t40.5 -66t15 -83.5q0 -38 -15.5 -73.5t-42 -63.5t-61 -45
t-72.5 -17h-118zM456 721l-106 141l-107 -141h-100l128 171q15 20 36 29.5t43 9.5t42.5 -9.5t35.5 -29.5l130 -171h-102z" />
    <glyph glyph-name="gcircumflex" unicode="&#x11d;" horiz-adv-x="701" 
d="M40 0zM353 0q-313 0 -313 344v3q1 342 314 342h250v-121h-281q-82 0 -122.5 -54t-40.5 -171q0 -223 162 -223h144q15 0 29 7t24 18.5t16 26.5t6 32q0 33 -21 57.5t-54 24.5h-109v121h115q40 0 74.5 -15.5t60 -43t40.5 -66t15 -83.5q0 -38 -15.5 -73.5t-42 -63.5t-61 -45
t-72.5 -17h-118zM456 721l-106 141l-107 -141h-100l128 171q15 20 36 29.5t43 9.5t42.5 -9.5t35.5 -29.5l130 -171h-102z" />
    <glyph glyph-name="Gbreve" unicode="&#x11e;" horiz-adv-x="701" 
d="M40 0zM353 0q-313 0 -313 344v3q1 342 314 342h250v-121h-281q-82 0 -122.5 -54t-40.5 -171q0 -223 162 -223h144q15 0 29 7t24 18.5t16 26.5t6 32q0 33 -21 57.5t-54 24.5h-109v121h115q40 0 74.5 -15.5t60 -43t40.5 -66t15 -83.5q0 -38 -15.5 -73.5t-42 -63.5t-61 -45
t-72.5 -17h-118zM577 931q-5 -60 -25 -100.5t-50.5 -64.5t-69.5 -34.5t-82 -10.5q-44 0 -83 10.5t-69.5 34.5t-50 64.5t-24.5 100.5h90q1 -66 36 -106.5t101 -40.5q64 0 100.5 40.5t37.5 106.5h89z" />
    <glyph glyph-name="gbreve" unicode="&#x11f;" horiz-adv-x="701" 
d="M40 0zM353 0q-313 0 -313 344v3q1 342 314 342h250v-121h-281q-82 0 -122.5 -54t-40.5 -171q0 -223 162 -223h144q15 0 29 7t24 18.5t16 26.5t6 32q0 33 -21 57.5t-54 24.5h-109v121h115q40 0 74.5 -15.5t60 -43t40.5 -66t15 -83.5q0 -38 -15.5 -73.5t-42 -63.5t-61 -45
t-72.5 -17h-118zM577 931q-5 -60 -25 -100.5t-50.5 -64.5t-69.5 -34.5t-82 -10.5q-44 0 -83 10.5t-69.5 34.5t-50 64.5t-24.5 100.5h90q1 -66 36 -106.5t101 -40.5q64 0 100.5 40.5t37.5 106.5h89z" />
    <glyph glyph-name="Gdotaccent" unicode="&#x120;" horiz-adv-x="701" 
d="M40 0zM353 0q-313 0 -313 344v3q1 342 314 342h250v-121h-281q-82 0 -122.5 -54t-40.5 -171q0 -223 162 -223h144q15 0 29 7t24 18.5t16 26.5t6 32q0 33 -21 57.5t-54 24.5h-109v121h115q40 0 74.5 -15.5t60 -43t40.5 -66t15 -83.5q0 -38 -15.5 -73.5t-42 -63.5t-61 -45
t-72.5 -17h-118zM308 754v118h125v-118h-125z" />
    <glyph glyph-name="gdotaccent" unicode="&#x121;" horiz-adv-x="701" 
d="M40 0zM353 0q-313 0 -313 344v3q1 342 314 342h250v-121h-281q-82 0 -122.5 -54t-40.5 -171q0 -223 162 -223h144q15 0 29 7t24 18.5t16 26.5t6 32q0 33 -21 57.5t-54 24.5h-109v121h115q40 0 74.5 -15.5t60 -43t40.5 -66t15 -83.5q0 -38 -15.5 -73.5t-42 -63.5t-61 -45
t-72.5 -17h-118zM308 754v118h125v-118h-125z" />
    <glyph glyph-name="Gcommaaccent" unicode="&#x122;" horiz-adv-x="701" 
d="M40 0zM353 0q-313 0 -313 344v3q1 342 314 342h250v-121h-281q-82 0 -122.5 -54t-40.5 -171q0 -223 162 -223h144q15 0 29 7t24 18.5t16 26.5t6 32q0 33 -21 57.5t-54 24.5h-109v121h115q40 0 74.5 -15.5t60 -43t40.5 -66t15 -83.5q0 -38 -15.5 -73.5t-42 -63.5t-61 -45
t-72.5 -17h-118zM268 -158q23 0 35 14t12 34v71h118v-73q0 -35 -13 -63.5t-35 -49.5t-52.5 -32.5t-64.5 -11.5v111z" />
    <glyph glyph-name="gcommaaccent" unicode="&#x123;" horiz-adv-x="701" 
d="M40 0zM353 0q-313 0 -313 344v3q1 342 314 342h250v-121h-281q-82 0 -122.5 -54t-40.5 -171q0 -223 162 -223h144q15 0 29 7t24 18.5t16 26.5t6 32q0 33 -21 57.5t-54 24.5h-109v121h115q40 0 74.5 -15.5t60 -43t40.5 -66t15 -83.5q0 -38 -15.5 -73.5t-42 -63.5t-61 -45
t-72.5 -17h-118zM268 -158q23 0 35 14t12 34v71h118v-73q0 -35 -13 -63.5t-35 -49.5t-52.5 -32.5t-64.5 -11.5v111z" />
    <glyph glyph-name="Hcircumflex" unicode="&#x124;" horiz-adv-x="660" 
d="M49 0zM490 286h-320v-286h-121v689h121v-282h320v282h120v-689h-120v286zM435 721l-106 141l-107 -141h-100l128 171q15 20 36 29.5t43 9.5t42.5 -9.5t35.5 -29.5l130 -171h-102z" />
    <glyph glyph-name="hcircumflex" unicode="&#x125;" horiz-adv-x="660" 
d="M49 0zM490 286h-320v-286h-121v689h121v-282h320v282h120v-689h-120v286zM435 721l-106 141l-107 -141h-100l128 171q15 20 36 29.5t43 9.5t42.5 -9.5t35.5 -29.5l130 -171h-102z" />
    <glyph glyph-name="Hbar" unicode="&#x126;" horiz-adv-x="660" 
d="M490 286h-320v-286h-121v689h121v-93h320v93h120v-689h-120v286zM490 407v94h-320v-94h320z" />
    <glyph glyph-name="hbar" unicode="&#x127;" horiz-adv-x="660" 
d="M49 0zM490 286h-320v-286h-121v689h121v-93h320v93h120v-689h-120v286zM490 407v94h-320v-94h320z" />
    <glyph glyph-name="Itilde" unicode="&#x128;" horiz-adv-x="219" 
d="M0 0zM49 689h121v-689h-121v689zM-121 766v95h464v-95h-464z" />
    <glyph glyph-name="itilde" unicode="&#x129;" horiz-adv-x="219" 
d="M0 0zM49 689h121v-689h-121v689zM-121 766v95h464v-95h-464z" />
    <glyph glyph-name="uni012A" unicode="&#x12a;" horiz-adv-x="219" 
d="M0 0zM49 689h121v-689h-121v689zM-121 766v95h464v-95h-464z" />
    <glyph glyph-name="imacron" unicode="&#x12b;" horiz-adv-x="219" 
d="M0 0zM49 689h121v-689h-121v689zM-121 766v95h464v-95h-464z" />
    <glyph glyph-name="Ibreve" unicode="&#x12c;" horiz-adv-x="219" 
d="M0 0zM49 689h121v-689h-121v689zM338 931q-5 -60 -25 -100.5t-50.5 -64.5t-69.5 -34.5t-82 -10.5q-44 0 -83 10.5t-69.5 34.5t-50 64.5t-24.5 100.5h90q1 -66 36 -106.5t101 -40.5q64 0 100.5 40.5t37.5 106.5h89z" />
    <glyph glyph-name="ibreve" unicode="&#x12d;" horiz-adv-x="219" 
d="M0 0zM49 689h121v-689h-121v689zM338 931q-5 -60 -25 -100.5t-50.5 -64.5t-69.5 -34.5t-82 -10.5q-44 0 -83 10.5t-69.5 34.5t-50 64.5t-24.5 100.5h90q1 -66 36 -106.5t101 -40.5q64 0 100.5 40.5t37.5 106.5h89z" />
    <glyph glyph-name="Iogonek" unicode="&#x12e;" horiz-adv-x="219" 
d="M49 689h121v-689l-95 -49q-23 -12 -33 -25t-10 -39q0 -20 17 -33t44 -13h77v-109h-110q-69 0 -102 34t-33 85q0 45 23.5 72.5t65.5 46.5l65 30h-30v689z" />
    <glyph glyph-name="iogonek" unicode="&#x12f;" horiz-adv-x="219" 
d="M0 0zM49 689h121v-689l-95 -49q-23 -12 -33 -25t-10 -39q0 -20 17 -33t44 -13h77v-109h-110q-69 0 -102 34t-33 85q0 45 23.5 72.5t65.5 46.5l65 30h-30v689z" />
    <glyph glyph-name="Idotaccent" unicode="&#x130;" horiz-adv-x="219" 
d="M47 0zM49 689h121v-689h-121v689zM47 754v118h125v-118h-125z" />
    <glyph glyph-name="dotlessi" unicode="&#x131;" horiz-adv-x="219" 
d="M49 689h121v-689h-121v689z" />
    <glyph glyph-name="IJ" unicode="&#x132;" horiz-adv-x="795" 
d="M49 0zM49 689h121v-689h-121v689zM258 120h187q85 0 132.5 46.5t47.5 130.5v392h120v-391q0 -68 -19 -123t-57 -94t-94.5 -60t-132.5 -21h-184v120z" />
    <glyph glyph-name="ij" unicode="&#x133;" horiz-adv-x="795" 
d="M49 0zM49 689h121v-689h-121v689zM258 120h187q85 0 132.5 46.5t47.5 130.5v392h120v-391q0 -68 -19 -123t-57 -94t-94.5 -60t-132.5 -21h-184v120z" />
    <glyph glyph-name="Jcircumflex" unicode="&#x134;" horiz-adv-x="576" 
d="M39 0zM39 120h187q85 0 132.5 46.5t47.5 130.5v392h120v-391q0 -68 -19 -123t-57 -94t-94.5 -60t-132.5 -21h-184v120zM423 721l-106 141l-107 -141h-100l128 171q15 20 36 29.5t43 9.5t42.5 -9.5t35.5 -29.5l130 -171h-102z" />
    <glyph glyph-name="jcircumflex" unicode="&#x135;" horiz-adv-x="576" 
d="M39 0zM39 120h187q85 0 132.5 46.5t47.5 130.5v392h120v-391q0 -68 -19 -123t-57 -94t-94.5 -60t-132.5 -21h-184v120zM423 721l-106 141l-107 -141h-100l128 171q15 20 36 29.5t43 9.5t42.5 -9.5t35.5 -29.5l130 -171h-102z" />
    <glyph glyph-name="Kcommaaccent" unicode="&#x136;" horiz-adv-x="676" 
d="M49 0zM170 0h-121v689h121v-219l456 225v-138l-459 -212l459 -218v-134l-456 227v-220zM255 -158q23 0 35 14t12 34v71h118v-73q0 -35 -13 -63.5t-35 -49.5t-52.5 -32.5t-64.5 -11.5v111z" />
    <glyph glyph-name="kcommaaccent" unicode="&#x137;" horiz-adv-x="676" 
d="M49 0zM170 0h-121v689h121v-219l456 225v-138l-459 -212l459 -218v-134l-456 227v-220zM255 -158q23 0 35 14t12 34v71h118v-73q0 -35 -13 -63.5t-35 -49.5t-52.5 -32.5t-64.5 -11.5v111z" />
    <glyph glyph-name="Lacute" unicode="&#x139;" horiz-adv-x="598" 
d="M0 0zM354 0q-76 0 -133 21t-95.5 60t-57.5 94t-19 123v391h121v-392q0 -84 47.5 -130.5t132.5 -46.5h210v-120h-206zM-58 714v85l396 132v-114z" />
    <glyph glyph-name="lacute" unicode="&#x13a;" horiz-adv-x="598" 
d="M0 0zM354 0q-76 0 -133 21t-95.5 60t-57.5 94t-19 123v391h121v-392q0 -84 47.5 -130.5t132.5 -46.5h210v-120h-206zM-58 714v85l396 132v-114z" />
    <glyph glyph-name="Lcommaaccent" unicode="&#x13b;" horiz-adv-x="598" 
d="M49 0zM354 0q-76 0 -133 21t-95.5 60t-57.5 94t-19 123v391h121v-392q0 -84 47.5 -130.5t132.5 -46.5h210v-120h-206zM216 -158q23 0 35 14t12 34v71h118v-73q0 -35 -13 -63.5t-35 -49.5t-52.5 -32.5t-64.5 -11.5v111z" />
    <glyph glyph-name="lcommaaccent" unicode="&#x13c;" horiz-adv-x="598" 
d="M49 0zM354 0q-76 0 -133 21t-95.5 60t-57.5 94t-19 123v391h121v-392q0 -84 47.5 -130.5t132.5 -46.5h210v-120h-206zM216 -158q23 0 35 14t12 34v71h118v-73q0 -35 -13 -63.5t-35 -49.5t-52.5 -32.5t-64.5 -11.5v111z" />
    <glyph glyph-name="Lcaron" unicode="&#x13d;" horiz-adv-x="598" 
d="M49 0zM354 0q-76 0 -133 21t-95.5 60t-57.5 94t-19 123v391h121v-392q0 -84 47.5 -130.5t132.5 -46.5h210v-120h-206zM480 661q0 -33 -10 -61.5t-29 -49.5t-45.5 -33t-59.5 -12h-38v118q54 15 54 68v108h128v-138z" />
    <glyph glyph-name="lcaron" unicode="&#x13e;" horiz-adv-x="598" 
d="M49 0zM354 0q-76 0 -133 21t-95.5 60t-57.5 94t-19 123v391h121v-392q0 -84 47.5 -130.5t132.5 -46.5h210v-120h-206zM480 661q0 -33 -10 -61.5t-29 -49.5t-45.5 -33t-59.5 -12h-38v118q54 15 54 68v108h128v-138z" />
    <glyph glyph-name="Ldot" unicode="&#x13f;" horiz-adv-x="598" 
d="M49 0zM354 0q-76 0 -133 21t-95.5 60t-57.5 94t-19 123v391h121v-392q0 -84 47.5 -130.5t132.5 -46.5h210v-120h-206zM295 337v118h125v-118h-125z" />
    <glyph glyph-name="ldot" unicode="&#x140;" horiz-adv-x="598" 
d="M49 0zM354 0q-76 0 -133 21t-95.5 60t-57.5 94t-19 123v391h121v-392q0 -84 47.5 -130.5t132.5 -46.5h210v-120h-206zM295 337v118h125v-118h-125z" />
    <glyph glyph-name="Lslash" unicode="&#x141;" horiz-adv-x="598" 
d="M10 395l39 13v281h121v-242l208 71v-77l-208 -70v-74q0 -84 47.5 -130.5t132.5 -46.5h210v-120h-206q-76 0 -133 21t-95.5 60t-57.5 94t-19 123v34l-39 -14v77z" />
    <glyph glyph-name="lslash" unicode="&#x142;" horiz-adv-x="598" 
d="M10 0zM10 395l39 13v281h121v-242l208 71v-77l-208 -70v-74q0 -84 47.5 -130.5t132.5 -46.5h210v-120h-206q-76 0 -133 21t-95.5 60t-57.5 94t-19 123v34l-39 -14v77z" />
    <glyph glyph-name="Nacute" unicode="&#x143;" horiz-adv-x="791" 
d="M49 0zM742 164q0 -39 -14 -70t-38 -53.5t-56.5 -34.5t-69.5 -12q-54 0 -96 28.5t-59 79.5l-138 424q-6 21 -15.5 32.5t-26.5 11.5q-51 0 -51 -60v-510h-129v522q0 38 13.5 69.5t37.5 53.5t56.5 34t70.5 12q53 0 95 -28t59 -79l139 -425q7 -21 16 -31.5t26 -10.5
q51 0 51 60v512h129v-525zM227 714v85l396 132v-114z" />
    <glyph glyph-name="nacute" unicode="&#x144;" horiz-adv-x="791" 
d="M49 0zM742 164q0 -39 -14 -70t-38 -53.5t-56.5 -34.5t-69.5 -12q-54 0 -96 28.5t-59 79.5l-138 424q-6 21 -15.5 32.5t-26.5 11.5q-51 0 -51 -60v-510h-129v522q0 38 13.5 69.5t37.5 53.5t56.5 34t70.5 12q53 0 95 -28t59 -79l139 -425q7 -21 16 -31.5t26 -10.5
q51 0 51 60v512h129v-525zM227 714v85l396 132v-114z" />
    <glyph glyph-name="Ncommaaccent" unicode="&#x145;" horiz-adv-x="791" 
d="M49 0zM742 164q0 -39 -14 -70t-38 -53.5t-56.5 -34.5t-69.5 -12q-54 0 -96 28.5t-59 79.5l-138 424q-6 21 -15.5 32.5t-26.5 11.5q-51 0 -51 -60v-510h-129v522q0 38 13.5 69.5t37.5 53.5t56.5 34t70.5 12q53 0 95 -28t59 -79l139 -425q7 -21 16 -31.5t26 -10.5
q51 0 51 60v512h129v-525zM313 -158q23 0 35 14t12 34v71h118v-73q0 -35 -13 -63.5t-35 -49.5t-52.5 -32.5t-64.5 -11.5v111z" />
    <glyph glyph-name="ncommaaccent" unicode="&#x146;" horiz-adv-x="791" 
d="M49 0zM742 164q0 -39 -14 -70t-38 -53.5t-56.5 -34.5t-69.5 -12q-54 0 -96 28.5t-59 79.5l-138 424q-6 21 -15.5 32.5t-26.5 11.5q-51 0 -51 -60v-510h-129v522q0 38 13.5 69.5t37.5 53.5t56.5 34t70.5 12q53 0 95 -28t59 -79l139 -425q7 -21 16 -31.5t26 -10.5
q51 0 51 60v512h129v-525zM313 -158q23 0 35 14t12 34v71h118v-73q0 -35 -13 -63.5t-35 -49.5t-52.5 -32.5t-64.5 -11.5v111z" />
    <glyph glyph-name="Ncaron" unicode="&#x147;" horiz-adv-x="791" 
d="M49 0zM742 164q0 -39 -14 -70t-38 -53.5t-56.5 -34.5t-69.5 -12q-54 0 -96 28.5t-59 79.5l-138 424q-6 21 -15.5 32.5t-26.5 11.5q-51 0 -51 -60v-510h-129v522q0 38 13.5 69.5t37.5 53.5t56.5 34t70.5 12q53 0 95 -28t59 -79l139 -425q7 -21 16 -31.5t26 -10.5
q51 0 51 60v512h129v-525zM473 760q-15 -20 -35.5 -29.5t-42.5 -9.5q-23 0 -43.5 9.5t-35.5 29.5l-128 171h100l107 -142l106 142h102z" />
    <glyph glyph-name="ncaron" unicode="&#x148;" horiz-adv-x="791" 
d="M49 0zM742 164q0 -39 -14 -70t-38 -53.5t-56.5 -34.5t-69.5 -12q-54 0 -96 28.5t-59 79.5l-138 424q-6 21 -15.5 32.5t-26.5 11.5q-51 0 -51 -60v-510h-129v522q0 38 13.5 69.5t37.5 53.5t56.5 34t70.5 12q53 0 95 -28t59 -79l139 -425q7 -21 16 -31.5t26 -10.5
q51 0 51 60v512h129v-525zM473 760q-15 -20 -35.5 -29.5t-42.5 -9.5q-23 0 -43.5 9.5t-35.5 29.5l-128 171h100l107 -142l106 142h102z" />
    <glyph glyph-name="Eng" unicode="&#x14a;" horiz-adv-x="791" 
d="M255 -149h187q78 0 124 39.5t54 111.5q-29 -8 -56 -8q-54 0 -96 28.5t-59 79.5l-138 424q-6 21 -15.5 32.5t-26.5 11.5q-51 0 -51 -60v-510h-129v522q0 38 13.5 69.5t37.5 53.5t56.5 34t70.5 12q53 0 95 -28t59 -79l139 -425q7 -21 16 -31.5t26 -10.5q51 0 51 60v512h129
v-660q0 -68 -19 -123t-57 -94t-94.5 -60t-132.5 -21h-184v120z" />
    <glyph glyph-name="eng" unicode="&#x14b;" horiz-adv-x="791" 
d="M49 0zM255 -149h187q78 0 124 39.5t54 111.5q-29 -8 -56 -8q-54 0 -96 28.5t-59 79.5l-138 424q-6 21 -15.5 32.5t-26.5 11.5q-51 0 -51 -60v-510h-129v522q0 38 13.5 69.5t37.5 53.5t56.5 34t70.5 12q53 0 95 -28t59 -79l139 -425q7 -21 16 -31.5t26 -10.5q51 0 51 60
v512h129v-660q0 -68 -19 -123t-57 -94t-94.5 -60t-132.5 -21h-184v120z" />
    <glyph glyph-name="Omacron" unicode="&#x14c;" horiz-adv-x="760" 
d="M40 0zM323 568q-82 0 -122.5 -54t-40.5 -171q0 -223 162 -223h116q162 0 162 223q0 117 -41 171t-122 54h-114zM406 689q311 0 314 -342v-3q0 -344 -313 -344h-54q-313 0 -313 344v3q1 342 314 342h52zM148 766v95h464v-95h-464z" />
    <glyph glyph-name="omacron" unicode="&#x14d;" horiz-adv-x="760" 
d="M40 0zM323 568q-82 0 -122.5 -54t-40.5 -171q0 -223 162 -223h116q162 0 162 223q0 117 -41 171t-122 54h-114zM406 689q311 0 314 -342v-3q0 -344 -313 -344h-54q-313 0 -313 344v3q1 342 314 342h52zM148 766v95h464v-95h-464z" />
    <glyph glyph-name="Obreve" unicode="&#x14e;" horiz-adv-x="760" 
d="M40 0zM323 568q-82 0 -122.5 -54t-40.5 -171q0 -223 162 -223h116q162 0 162 223q0 117 -41 171t-122 54h-114zM406 689q311 0 314 -342v-3q0 -344 -313 -344h-54q-313 0 -313 344v3q1 342 314 342h52zM607 931q-5 -60 -25 -100.5t-50.5 -64.5t-69.5 -34.5t-82 -10.5
q-44 0 -83 10.5t-69.5 34.5t-50 64.5t-24.5 100.5h90q1 -66 36 -106.5t101 -40.5q64 0 100.5 40.5t37.5 106.5h89z" />
    <glyph glyph-name="obreve" unicode="&#x14f;" horiz-adv-x="760" 
d="M40 0zM323 568q-82 0 -122.5 -54t-40.5 -171q0 -223 162 -223h116q162 0 162 223q0 117 -41 171t-122 54h-114zM406 689q311 0 314 -342v-3q0 -344 -313 -344h-54q-313 0 -313 344v3q1 342 314 342h52zM607 931q-5 -60 -25 -100.5t-50.5 -64.5t-69.5 -34.5t-82 -10.5
q-44 0 -83 10.5t-69.5 34.5t-50 64.5t-24.5 100.5h90q1 -66 36 -106.5t101 -40.5q64 0 100.5 40.5t37.5 106.5h89z" />
    <glyph glyph-name="Ohungarumlaut" unicode="&#x150;" horiz-adv-x="760" 
d="M40 0zM323 568q-82 0 -122.5 -54t-40.5 -171q0 -223 162 -223h116q162 0 162 223q0 117 -41 171t-122 54h-114zM406 689q311 0 314 -342v-3q0 -344 -313 -344h-54q-313 0 -313 344v3q1 342 314 342h52zM434 718l83 213h106l-98 -213h-91zM187 718l83 213h106l-98 -213
h-91z" />
    <glyph glyph-name="ohungarumlaut" unicode="&#x151;" horiz-adv-x="760" 
d="M40 0zM323 568q-82 0 -122.5 -54t-40.5 -171q0 -223 162 -223h116q162 0 162 223q0 117 -41 171t-122 54h-114zM406 689q311 0 314 -342v-3q0 -344 -313 -344h-54q-313 0 -313 344v3q1 342 314 342h52zM434 718l83 213h106l-98 -213h-91zM187 718l83 213h106l-98 -213
h-91z" />
    <glyph glyph-name="OE" unicode="&#x152;" horiz-adv-x="1009" 
d="M385 120q66 0 102.5 55.5t36.5 167.5q0 115 -30.5 170t-109.5 55h-65q-79 0 -109.5 -54.5t-30.5 -170.5q0 -112 36.5 -167.5t102.5 -55.5h67zM956 568h-236q-32 0 -55 -24t-23 -56q0 -34 22 -57.5t57 -23.5h235v-121h-236q-32 0 -55 -24t-23 -56q0 -38 22 -62t57 -24h235
v-120h-217q-35 0 -62 4.5t-48.5 15t-38.5 27.5t-32 42q-19 -29 -39 -45.5t-44 -25.5t-53.5 -12.5t-66.5 -5.5h-6q-78 0 -133.5 21t-90.5 64t-51 108t-16 154q0 80 14.5 143.5t48.5 107.5t90 67.5t139 23.5h4q73 0 119.5 -20t83.5 -69q27 52 70 70.5t112 18.5h217v-121z" />
    <glyph glyph-name="oe" unicode="&#x153;" horiz-adv-x="1009" 
d="M58 0zM385 120q66 0 102.5 55.5t36.5 167.5q0 115 -30.5 170t-109.5 55h-65q-79 0 -109.5 -54.5t-30.5 -170.5q0 -112 36.5 -167.5t102.5 -55.5h67zM956 568h-236q-32 0 -55 -24t-23 -56q0 -34 22 -57.5t57 -23.5h235v-121h-236q-32 0 -55 -24t-23 -56q0 -38 22 -62
t57 -24h235v-120h-217q-35 0 -62 4.5t-48.5 15t-38.5 27.5t-32 42q-19 -29 -39 -45.5t-44 -25.5t-53.5 -12.5t-66.5 -5.5h-6q-78 0 -133.5 21t-90.5 64t-51 108t-16 154q0 80 14.5 143.5t48.5 107.5t90 67.5t139 23.5h4q73 0 119.5 -20t83.5 -69q27 52 70 70.5t112 18.5h217
v-121z" />
    <glyph glyph-name="Racute" unicode="&#x154;" horiz-adv-x="661" 
d="M50 0zM50 206q0 100 58.5 150.5t158.5 50.5h145q33 0 56 23.5t23 57.5q0 16 -6.5 30.5t-17 25.5t-24.5 17.5t-30 6.5h-363v121h344q57 0 98 -16t67.5 -44t39 -64.5t12.5 -78.5q0 -36 -11.5 -72t-37.5 -64.5t-67.5 -46t-100.5 -17.5h-139l372 -164v-133l-456 206v-195
h-121v206zM152 714v85l396 132v-114z" />
    <glyph glyph-name="racute" unicode="&#x155;" 
d="M49 0zM170 403h241q33 0 56 24.5t23 58.5q0 16 -6.5 31t-17 26t-24.5 18t-30 7h-242v-165zM393 689q57 0 98 -16t67.5 -44t39 -64.5t12.5 -78.5q0 -36 -11.5 -72t-37.5 -64.5t-67.5 -46t-100.5 -17.5h-56l278 -156v-144l-445 271v-257h-121v689h344zM136 714v85l396 132
v-114z" />
    <glyph glyph-name="Rcommaaccent" unicode="&#x156;" horiz-adv-x="661" 
d="M50 0zM50 206q0 100 58.5 150.5t158.5 50.5h145q33 0 56 23.5t23 57.5q0 16 -6.5 30.5t-17 25.5t-24.5 17.5t-30 6.5h-363v121h344q57 0 98 -16t67.5 -44t39 -64.5t12.5 -78.5q0 -36 -11.5 -72t-37.5 -64.5t-67.5 -46t-100.5 -17.5h-139l372 -164v-133l-456 206v-195
h-121v206zM248 -158q23 0 35 14t12 34v71h118v-73q0 -35 -13 -63.5t-35 -49.5t-52.5 -32.5t-64.5 -11.5v111z" />
    <glyph glyph-name="rcommaaccent" unicode="&#x157;" 
d="M49 0zM170 403h241q33 0 56 24.5t23 58.5q0 16 -6.5 31t-17 26t-24.5 18t-30 7h-242v-165zM393 689q57 0 98 -16t67.5 -44t39 -64.5t12.5 -78.5q0 -36 -11.5 -72t-37.5 -64.5t-67.5 -46t-100.5 -17.5h-56l278 -156v-144l-445 271v-257h-121v689h344zM242 -158q23 0 35 14
t12 34v71h118v-73q0 -35 -13 -63.5t-35 -49.5t-52.5 -32.5t-64.5 -11.5v111z" />
    <glyph glyph-name="Rcaron" unicode="&#x158;" horiz-adv-x="661" 
d="M50 0zM50 206q0 100 58.5 150.5t158.5 50.5h145q33 0 56 23.5t23 57.5q0 16 -6.5 30.5t-17 25.5t-24.5 17.5t-30 6.5h-363v121h344q57 0 98 -16t67.5 -44t39 -64.5t12.5 -78.5q0 -36 -11.5 -72t-37.5 -64.5t-67.5 -46t-100.5 -17.5h-139l372 -164v-133l-456 206v-195
h-121v206zM388 760q-15 -20 -35.5 -29.5t-42.5 -9.5q-23 0 -43.5 9.5t-35.5 29.5l-128 171h100l107 -142l106 142h102z" />
    <glyph glyph-name="rcaron" unicode="&#x159;" 
d="M49 0zM170 403h241q33 0 56 24.5t23 58.5q0 16 -6.5 31t-17 26t-24.5 18t-30 7h-242v-165zM393 689q57 0 98 -16t67.5 -44t39 -64.5t12.5 -78.5q0 -36 -11.5 -72t-37.5 -64.5t-67.5 -46t-100.5 -17.5h-56l278 -156v-144l-445 271v-257h-121v689h344zM382 760
q-15 -20 -35.5 -29.5t-42.5 -9.5q-23 0 -43.5 9.5t-35.5 29.5l-128 171h100l107 -142l106 142h102z" />
    <glyph glyph-name="Sacute" unicode="&#x15a;" horiz-adv-x="684" 
d="M39 0zM645 201q0 -100 -57.5 -150.5t-160.5 -50.5h-354v120h377q32 0 53 24.5t21 59.5q0 33 -21 57.5t-53 24.5h-194q-60 0 -101.5 18t-67 47t-37 64.5t-11.5 70.5q0 42 12 78.5t38.5 64.5t67.5 44t99 16h344v-121h-363q-16 0 -30 -6.5t-24.5 -17.5t-17 -25.5t-6.5 -30.5
q0 -34 23 -57.5t56 -23.5h191q100 0 158 -50.5t58 -150.5v-5zM174 714v85l396 132v-114z" />
    <glyph glyph-name="sacute" unicode="&#x15b;" horiz-adv-x="684" 
d="M39 0zM645 201q0 -100 -57.5 -150.5t-160.5 -50.5h-354v120h377q32 0 53 24.5t21 59.5q0 33 -21 57.5t-53 24.5h-194q-60 0 -101.5 18t-67 47t-37 64.5t-11.5 70.5q0 42 12 78.5t38.5 64.5t67.5 44t99 16h344v-121h-363q-16 0 -30 -6.5t-24.5 -17.5t-17 -25.5t-6.5 -30.5
q0 -34 23 -57.5t56 -23.5h191q100 0 158 -50.5t58 -150.5v-5zM174 714v85l396 132v-114z" />
    <glyph glyph-name="Scircumflex" unicode="&#x15c;" horiz-adv-x="684" 
d="M39 0zM645 201q0 -100 -57.5 -150.5t-160.5 -50.5h-354v120h377q32 0 53 24.5t21 59.5q0 33 -21 57.5t-53 24.5h-194q-60 0 -101.5 18t-67 47t-37 64.5t-11.5 70.5q0 42 12 78.5t38.5 64.5t67.5 44t99 16h344v-121h-363q-16 0 -30 -6.5t-24.5 -17.5t-17 -25.5t-6.5 -30.5
q0 -34 23 -57.5t56 -23.5h191q100 0 158 -50.5t58 -150.5v-5zM447 721l-106 141l-107 -141h-100l128 171q15 20 36 29.5t43 9.5t42.5 -9.5t35.5 -29.5l130 -171h-102z" />
    <glyph glyph-name="scircumflex" unicode="&#x15d;" horiz-adv-x="684" 
d="M39 0zM645 201q0 -100 -57.5 -150.5t-160.5 -50.5h-354v120h377q32 0 53 24.5t21 59.5q0 33 -21 57.5t-53 24.5h-194q-60 0 -101.5 18t-67 47t-37 64.5t-11.5 70.5q0 42 12 78.5t38.5 64.5t67.5 44t99 16h344v-121h-363q-16 0 -30 -6.5t-24.5 -17.5t-17 -25.5t-6.5 -30.5
q0 -34 23 -57.5t56 -23.5h191q100 0 158 -50.5t58 -150.5v-5zM447 721l-106 141l-107 -141h-100l128 171q15 20 36 29.5t43 9.5t42.5 -9.5t35.5 -29.5l130 -171h-102z" />
    <glyph glyph-name="Scedilla" unicode="&#x15e;" horiz-adv-x="684" 
d="M39 0zM645 201q0 -100 -57.5 -150.5t-160.5 -50.5h-354v120h377q32 0 53 24.5t21 59.5q0 33 -21 57.5t-53 24.5h-194q-60 0 -101.5 18t-67 47t-37 64.5t-11.5 70.5q0 42 12 78.5t38.5 64.5t67.5 44t99 16h344v-121h-363q-16 0 -30 -6.5t-24.5 -17.5t-17 -25.5t-6.5 -30.5
q0 -34 23 -57.5t56 -23.5h191q100 0 158 -50.5t58 -150.5v-5zM259 -158q23 0 35 14t12 34v71h118v-73q0 -35 -13 -63.5t-35 -49.5t-52.5 -32.5t-64.5 -11.5v111z" />
    <glyph glyph-name="scedilla" unicode="&#x15f;" horiz-adv-x="684" 
d="M39 0zM645 201q0 -100 -57.5 -150.5t-160.5 -50.5h-354v120h377q32 0 53 24.5t21 59.5q0 33 -21 57.5t-53 24.5h-194q-60 0 -101.5 18t-67 47t-37 64.5t-11.5 70.5q0 42 12 78.5t38.5 64.5t67.5 44t99 16h344v-121h-363q-16 0 -30 -6.5t-24.5 -17.5t-17 -25.5t-6.5 -30.5
q0 -34 23 -57.5t56 -23.5h191q100 0 158 -50.5t58 -150.5v-5zM259 -158q23 0 35 14t12 34v71h118v-73q0 -35 -13 -63.5t-35 -49.5t-52.5 -32.5t-64.5 -11.5v111z" />
    <glyph glyph-name="Scaron" unicode="&#x160;" horiz-adv-x="684" 
d="M39 0zM645 201q0 -100 -57.5 -150.5t-160.5 -50.5h-354v120h377q32 0 53 24.5t21 59.5q0 33 -21 57.5t-53 24.5h-194q-60 0 -101.5 18t-67 47t-37 64.5t-11.5 70.5q0 42 12 78.5t38.5 64.5t67.5 44t99 16h344v-121h-363q-16 0 -30 -6.5t-24.5 -17.5t-17 -25.5t-6.5 -30.5
q0 -34 23 -57.5t56 -23.5h191q100 0 158 -50.5t58 -150.5v-5zM419 760q-15 -20 -35.5 -29.5t-42.5 -9.5q-23 0 -43.5 9.5t-35.5 29.5l-128 171h100l107 -142l106 142h102z" />
    <glyph glyph-name="scaron" unicode="&#x161;" horiz-adv-x="684" 
d="M39 0zM645 201q0 -100 -57.5 -150.5t-160.5 -50.5h-354v120h377q32 0 53 24.5t21 59.5q0 33 -21 57.5t-53 24.5h-194q-60 0 -101.5 18t-67 47t-37 64.5t-11.5 70.5q0 42 12 78.5t38.5 64.5t67.5 44t99 16h344v-121h-363q-16 0 -30 -6.5t-24.5 -17.5t-17 -25.5t-6.5 -30.5
q0 -34 23 -57.5t56 -23.5h191q100 0 158 -50.5t58 -150.5v-5zM419 760q-15 -20 -35.5 -29.5t-42.5 -9.5q-23 0 -43.5 9.5t-35.5 29.5l-128 171h100l107 -142l106 142h102z" />
    <glyph glyph-name="Tcommaaccent" unicode="&#x162;" horiz-adv-x="506" 
d="M28 0zM318 0h-120v568h-170v121h450v-121h-160v-568zM155 -158q23 0 35 14t12 34v71h118v-73q0 -35 -13 -63.5t-35 -49.5t-52.5 -32.5t-64.5 -11.5v111z" />
    <glyph glyph-name="tcommaaccent" unicode="&#x163;" horiz-adv-x="506" 
d="M28 0zM318 0h-120v568h-170v121h450v-121h-160v-568zM155 -158q23 0 35 14t12 34v71h118v-73q0 -35 -13 -63.5t-35 -49.5t-52.5 -32.5t-64.5 -11.5v111z" />
    <glyph glyph-name="Tcaron" unicode="&#x164;" horiz-adv-x="506" 
d="M28 0zM318 0h-120v568h-170v121h450v-121h-160v-568zM330 760q-15 -20 -35.5 -29.5t-42.5 -9.5q-23 0 -43.5 9.5t-35.5 29.5l-128 171h100l107 -142l106 142h102z" />
    <glyph glyph-name="tcaron" unicode="&#x165;" horiz-adv-x="506" 
d="M28 0zM318 0h-120v568h-170v121h450v-121h-160v-568zM330 760q-15 -20 -35.5 -29.5t-42.5 -9.5q-23 0 -43.5 9.5t-35.5 29.5l-128 171h100l107 -142l106 142h102z" />
    <glyph glyph-name="Tbar" unicode="&#x166;" horiz-adv-x="506" 
d="M128 358h70v210h-170v121h450v-121h-160v-210h70v-123h-70v-235h-120v235h-70v123z" />
    <glyph glyph-name="tbar" unicode="&#x167;" horiz-adv-x="506" 
d="M28 0zM128 358h70v210h-170v121h450v-121h-160v-210h70v-123h-70v-235h-120v235h-70v123z" />
    <glyph glyph-name="Utilde" unicode="&#x168;" horiz-adv-x="679" 
d="M49 0zM629 261q0 -59 -18 -107t-54 -82t-90.5 -53t-126.5 -19q-71 0 -125 19t-91 53.5t-56 82.5t-19 105v429h121v-426q0 -63 45.5 -103t126.5 -40h3q81 0 122 40t41 103v426h121v-428zM107 766v95h464v-95h-464z" />
    <glyph glyph-name="utilde" unicode="&#x169;" horiz-adv-x="679" 
d="M49 0zM629 261q0 -59 -18 -107t-54 -82t-90.5 -53t-126.5 -19q-71 0 -125 19t-91 53.5t-56 82.5t-19 105v429h121v-426q0 -63 45.5 -103t126.5 -40h3q81 0 122 40t41 103v426h121v-428zM107 766v95h464v-95h-464z" />
    <glyph glyph-name="Umacron" unicode="&#x16a;" horiz-adv-x="679" 
d="M49 0zM629 261q0 -59 -18 -107t-54 -82t-90.5 -53t-126.5 -19q-71 0 -125 19t-91 53.5t-56 82.5t-19 105v429h121v-426q0 -63 45.5 -103t126.5 -40h3q81 0 122 40t41 103v426h121v-428zM107 766v95h464v-95h-464z" />
    <glyph glyph-name="umacron" unicode="&#x16b;" horiz-adv-x="679" 
d="M49 0zM629 261q0 -59 -18 -107t-54 -82t-90.5 -53t-126.5 -19q-71 0 -125 19t-91 53.5t-56 82.5t-19 105v429h121v-426q0 -63 45.5 -103t126.5 -40h3q81 0 122 40t41 103v426h121v-428zM107 766v95h464v-95h-464z" />
    <glyph glyph-name="Ubreve" unicode="&#x16c;" horiz-adv-x="679" 
d="M49 0zM629 261q0 -59 -18 -107t-54 -82t-90.5 -53t-126.5 -19q-71 0 -125 19t-91 53.5t-56 82.5t-19 105v429h121v-426q0 -63 45.5 -103t126.5 -40h3q81 0 122 40t41 103v426h121v-428zM566 931q-5 -60 -25 -100.5t-50.5 -64.5t-69.5 -34.5t-82 -10.5q-44 0 -83 10.5
t-69.5 34.5t-50 64.5t-24.5 100.5h90q1 -66 36 -106.5t101 -40.5q64 0 100.5 40.5t37.5 106.5h89z" />
    <glyph glyph-name="ubreve" unicode="&#x16d;" horiz-adv-x="679" 
d="M49 0zM629 261q0 -59 -18 -107t-54 -82t-90.5 -53t-126.5 -19q-71 0 -125 19t-91 53.5t-56 82.5t-19 105v429h121v-426q0 -63 45.5 -103t126.5 -40h3q81 0 122 40t41 103v426h121v-428zM566 931q-5 -60 -25 -100.5t-50.5 -64.5t-69.5 -34.5t-82 -10.5q-44 0 -83 10.5
t-69.5 34.5t-50 64.5t-24.5 100.5h90q1 -66 36 -106.5t101 -40.5q64 0 100.5 40.5t37.5 106.5h89z" />
    <glyph glyph-name="Uring" unicode="&#x16e;" horiz-adv-x="679" 
d="M49 0zM629 261q0 -59 -18 -107t-54 -82t-90.5 -53t-126.5 -19q-71 0 -125 19t-91 53.5t-56 82.5t-19 105v429h121v-426q0 -63 45.5 -103t126.5 -40h3q81 0 122 40t41 103v426h121v-428zM456 820q0 -51 -26.5 -81.5t-90.5 -30.5q-65 0 -90.5 31t-25.5 81t25.5 80.5
t90.5 30.5t91 -30t26 -81zM339 750q39 0 53 20t14 50q0 29 -14 49t-53 20t-54 -20t-15 -49q0 -30 15 -50t54 -20z" />
    <glyph glyph-name="uring" unicode="&#x16f;" horiz-adv-x="679" 
d="M49 0zM629 261q0 -59 -18 -107t-54 -82t-90.5 -53t-126.5 -19q-71 0 -125 19t-91 53.5t-56 82.5t-19 105v429h121v-426q0 -63 45.5 -103t126.5 -40h3q81 0 122 40t41 103v426h121v-428zM456 820q0 -51 -26.5 -81.5t-90.5 -30.5q-65 0 -90.5 31t-25.5 81t25.5 80.5
t90.5 30.5t91 -30t26 -81zM339 750q39 0 53 20t14 50q0 29 -14 49t-53 20t-54 -20t-15 -49q0 -30 15 -50t54 -20z" />
    <glyph glyph-name="Uhungarumlaut" unicode="&#x170;" horiz-adv-x="679" 
d="M49 0zM629 261q0 -59 -18 -107t-54 -82t-90.5 -53t-126.5 -19q-71 0 -125 19t-91 53.5t-56 82.5t-19 105v429h121v-426q0 -63 45.5 -103t126.5 -40h3q81 0 122 40t41 103v426h121v-428zM397 718l83 213h106l-98 -213h-91zM150 718l83 213h106l-98 -213h-91z" />
    <glyph glyph-name="uhungarumlaut" unicode="&#x171;" horiz-adv-x="679" 
d="M49 0zM629 261q0 -59 -18 -107t-54 -82t-90.5 -53t-126.5 -19q-71 0 -125 19t-91 53.5t-56 82.5t-19 105v429h121v-426q0 -63 45.5 -103t126.5 -40h3q81 0 122 40t41 103v426h121v-428zM397 718l83 213h106l-98 -213h-91zM150 718l83 213h106l-98 -213h-91z" />
    <glyph glyph-name="Uogonek" unicode="&#x172;" horiz-adv-x="679" 
d="M315 -268q-69 0 -102 34t-33 85q0 46 23.5 72.5t65.5 46.5l62 30q-69 1 -121.5 20.5t-88 54t-54 81.5t-18.5 104v429h121v-426q0 -63 45.5 -103t126.5 -40h3q81 0 122 40t41 103v426h121v-428q0 -46 -12.5 -82.5t-35.5 -66t-56 -53.5t-73 -45l-122 -63q-23 -12 -33 -25
t-10 -39q0 -20 17 -33t44 -13h77v-109h-110z" />
    <glyph glyph-name="uogonek" unicode="&#x173;" horiz-adv-x="679" 
d="M49 0zM315 -268q-69 0 -102 34t-33 85q0 46 23.5 72.5t65.5 46.5l62 30q-69 1 -121.5 20.5t-88 54t-54 81.5t-18.5 104v429h121v-426q0 -63 45.5 -103t126.5 -40h3q81 0 122 40t41 103v426h121v-428q0 -46 -12.5 -82.5t-35.5 -66t-56 -53.5t-73 -45l-122 -63
q-23 -12 -33 -25t-10 -39q0 -20 17 -33t44 -13h77v-109h-110z" />
    <glyph glyph-name="Wcircumflex" unicode="&#x174;" horiz-adv-x="1177" 
d="M23 0zM343 162q7 -20 15.5 -31t25.5 -11q52 0 52 60v343q0 38 13.5 69.5t37.5 53.5t56 34t70 12q53 0 95.5 -28t59.5 -79l139 -423q7 -20 15.5 -31t25.5 -11q52 0 52 60v509h128v-522q0 -38 -14 -69.5t-38 -53.5t-56.5 -34t-69.5 -12q-52 0 -95 28.5t-60 79.5l-138 421
q-6 21 -15.5 32.5t-26.5 11.5q-51 0 -51 -60v-344q0 -38 -14 -69.5t-38 -53.5t-56.5 -34t-69.5 -12q-55 0 -96 28.5t-59 79.5l-208 583h136zM714 721l-106 141l-107 -141h-100l128 171q15 20 36 29.5t43 9.5t42.5 -9.5t35.5 -29.5l130 -171h-102z" />
    <glyph glyph-name="wcircumflex" unicode="&#x175;" horiz-adv-x="1177" 
d="M49 0zM945 103q-19 -49 -61 -78t-93 -29q-38 0 -70.5 12t-56.5 34t-37.5 53t-13.5 70v346q0 60 -51 60q-17 0 -26 -11.5t-16 -32.5l-139 -424h1q-16 -51 -58.5 -79t-96.5 -28q-38 0 -70.5 12t-56.5 34t-37.5 53t-13.5 70v524h129v-511q0 -60 51 -60q17 0 26.5 10.5
t15.5 31.5l140 425q17 51 58.5 79t94.5 28q37 0 69.5 -12t56.5 -34t38 -53.5t14 -69.5v-345q0 -60 51 -60q17 0 25.5 10.5t16.5 31.5l183 529h137zM674 721l-106 141l-107 -141h-100l128 171q15 20 36 29.5t43 9.5t42.5 -9.5t35.5 -29.5l130 -171h-102z" />
    <glyph glyph-name="Ycircumflex" unicode="&#x176;" horiz-adv-x="665" 
d="M18 0zM273 305l-255 384h144l171 -276l170 276h144l-254 -376v-313h-120v305zM438 721l-106 141l-107 -141h-100l128 171q15 20 36 29.5t43 9.5t42.5 -9.5t35.5 -29.5l130 -171h-102z" />
    <glyph glyph-name="ycircumflex" unicode="&#x177;" horiz-adv-x="665" 
d="M18 0zM273 305l-255 384h144l171 -276l170 276h144l-254 -376v-313h-120v305zM438 721l-106 141l-107 -141h-100l128 171q15 20 36 29.5t43 9.5t42.5 -9.5t35.5 -29.5l130 -171h-102z" />
    <glyph glyph-name="Ydieresis" unicode="&#x178;" horiz-adv-x="665" 
d="M18 0zM273 305l-255 384h144l171 -276l170 276h144l-254 -376v-313h-120v305zM405 754v118h126v-118h-126zM134 754v118h125v-118h-125z" />
    <glyph glyph-name="Zacute" unicode="&#x179;" horiz-adv-x="738" 
d="M43 0zM534 481q17 8 28.5 22t11.5 28q0 16 -11 26.5t-34 10.5h-460v121h456q84 0 125.5 -44t41.5 -114q0 -13 -2 -32.5t-12.5 -41.5t-33 -44t-62.5 -40l-379 -165q-20 -9 -29.5 -22t-9.5 -27q0 -19 13 -29t31 -10h468v-120h-465q-84 0 -126 44t-42 113q0 18 4 39.5t16 43
t34 41.5t58 35zM201 714v85l396 132v-114z" />
    <glyph glyph-name="zacute" unicode="&#x17a;" horiz-adv-x="738" 
d="M43 0zM534 481q17 8 28.5 22t11.5 28q0 16 -11 26.5t-34 10.5h-460v121h456q84 0 125.5 -44t41.5 -114q0 -13 -2 -32.5t-12.5 -41.5t-33 -44t-62.5 -40l-379 -165q-20 -9 -29.5 -22t-9.5 -27q0 -19 13 -29t31 -10h468v-120h-465q-84 0 -126 44t-42 113q0 18 4 39.5t16 43
t34 41.5t58 35zM201 714v85l396 132v-114z" />
    <glyph glyph-name="Zdotaccent" unicode="&#x17b;" horiz-adv-x="738" 
d="M43 0zM534 481q17 8 28.5 22t11.5 28q0 16 -11 26.5t-34 10.5h-460v121h456q84 0 125.5 -44t41.5 -114q0 -13 -2 -32.5t-12.5 -41.5t-33 -44t-62.5 -40l-379 -165q-20 -9 -29.5 -22t-9.5 -27q0 -19 13 -29t31 -10h468v-120h-465q-84 0 -126 44t-42 113q0 18 4 39.5t16 43
t34 41.5t58 35zM306 754v118h125v-118h-125z" />
    <glyph glyph-name="zdotaccent" unicode="&#x17c;" horiz-adv-x="738" 
d="M43 0zM534 481q17 8 28.5 22t11.5 28q0 16 -11 26.5t-34 10.5h-460v121h456q84 0 125.5 -44t41.5 -114q0 -13 -2 -32.5t-12.5 -41.5t-33 -44t-62.5 -40l-379 -165q-20 -9 -29.5 -22t-9.5 -27q0 -19 13 -29t31 -10h468v-120h-465q-84 0 -126 44t-42 113q0 18 4 39.5t16 43
t34 41.5t58 35zM306 754v118h125v-118h-125z" />
    <glyph glyph-name="Zcaron" unicode="&#x17d;" horiz-adv-x="738" 
d="M43 0zM534 481q17 8 28.5 22t11.5 28q0 16 -11 26.5t-34 10.5h-460v121h456q84 0 125.5 -44t41.5 -114q0 -13 -2 -32.5t-12.5 -41.5t-33 -44t-62.5 -40l-379 -165q-20 -9 -29.5 -22t-9.5 -27q0 -19 13 -29t31 -10h468v-120h-465q-84 0 -126 44t-42 113q0 18 4 39.5t16 43
t34 41.5t58 35zM446 760q-15 -20 -35.5 -29.5t-42.5 -9.5q-23 0 -43.5 9.5t-35.5 29.5l-128 171h100l107 -142l106 142h102z" />
    <glyph glyph-name="zcaron" unicode="&#x17e;" horiz-adv-x="738" 
d="M43 0zM534 481q17 8 28.5 22t11.5 28q0 16 -11 26.5t-34 10.5h-460v121h456q84 0 125.5 -44t41.5 -114q0 -13 -2 -32.5t-12.5 -41.5t-33 -44t-62.5 -40l-379 -165q-20 -9 -29.5 -22t-9.5 -27q0 -19 13 -29t31 -10h468v-120h-465q-84 0 -126 44t-42 113q0 18 4 39.5t16 43
t34 41.5t58 35zM446 760q-15 -20 -35.5 -29.5t-42.5 -9.5q-23 0 -43.5 9.5t-35.5 29.5l-128 171h100l107 -142l106 142h102z" />
    <glyph glyph-name="Scommaaccent" unicode="&#x218;" horiz-adv-x="684" 
d="M39 0zM645 201q0 -100 -57.5 -150.5t-160.5 -50.5h-354v120h377q32 0 53 24.5t21 59.5q0 33 -21 57.5t-53 24.5h-194q-60 0 -101.5 18t-67 47t-37 64.5t-11.5 70.5q0 42 12 78.5t38.5 64.5t67.5 44t99 16h344v-121h-363q-16 0 -30 -6.5t-24.5 -17.5t-17 -25.5t-6.5 -30.5
q0 -34 23 -57.5t56 -23.5h191q100 0 158 -50.5t58 -150.5v-5zM259 -158q23 0 35 14t12 34v71h118v-73q0 -35 -13 -63.5t-35 -49.5t-52.5 -32.5t-64.5 -11.5v111z" />
    <glyph glyph-name="scommaaccent" unicode="&#x219;" horiz-adv-x="684" 
d="M39 0zM645 201q0 -100 -57.5 -150.5t-160.5 -50.5h-354v120h377q32 0 53 24.5t21 59.5q0 33 -21 57.5t-53 24.5h-194q-60 0 -101.5 18t-67 47t-37 64.5t-11.5 70.5q0 42 12 78.5t38.5 64.5t67.5 44t99 16h344v-121h-363q-16 0 -30 -6.5t-24.5 -17.5t-17 -25.5t-6.5 -30.5
q0 -34 23 -57.5t56 -23.5h191q100 0 158 -50.5t58 -150.5v-5zM259 -158q23 0 35 14t12 34v71h118v-73q0 -35 -13 -63.5t-35 -49.5t-52.5 -32.5t-64.5 -11.5v111z" />
    <glyph glyph-name="uni021A" unicode="&#x21a;" horiz-adv-x="506" 
d="M28 0zM318 0h-120v568h-170v121h450v-121h-160v-568zM155 -158q23 0 35 14t12 34v71h118v-73q0 -35 -13 -63.5t-35 -49.5t-52.5 -32.5t-64.5 -11.5v111z" />
    <glyph glyph-name="uni021B" unicode="&#x21b;" horiz-adv-x="506" 
d="M28 0zM318 0h-120v568h-170v121h450v-121h-160v-568zM155 -158q23 0 35 14t12 34v71h118v-73q0 -35 -13 -63.5t-35 -49.5t-52.5 -32.5t-64.5 -11.5v111z" />
    <glyph glyph-name="circumflex" unicode="&#x2c6;" horiz-adv-x="454" 
d="M333 721l-106 141l-107 -141h-100l128 171q15 20 36 29.5t43 9.5t42.5 -9.5t35.5 -29.5l130 -171h-102z" />
    <glyph glyph-name="caron" unicode="&#x2c7;" horiz-adv-x="454" 
d="M305 760q-15 -20 -35.5 -29.5t-42.5 -9.5q-23 0 -43.5 9.5t-35.5 29.5l-128 171h100l107 -142l106 142h102z" />
    <glyph glyph-name="breve" unicode="&#x2d8;" horiz-adv-x="494" 
d="M474 931q-5 -60 -25 -100.5t-50.5 -64.5t-69.5 -34.5t-82 -10.5q-44 0 -83 10.5t-69.5 34.5t-50 64.5t-24.5 100.5h90q1 -66 36 -106.5t101 -40.5q64 0 100.5 40.5t37.5 106.5h89z" />
    <glyph glyph-name="dotaccent" unicode="&#x2d9;" horiz-adv-x="165" 
d="M20 754v118h125v-118h-125z" />
    <glyph glyph-name="ring" unicode="&#x2da;" horiz-adv-x="273" 
d="M253 820q0 -51 -26.5 -81.5t-90.5 -30.5q-65 0 -90.5 31t-25.5 81t25.5 80.5t90.5 30.5t91 -30t26 -81zM136 750q39 0 53 20t14 50q0 29 -14 49t-53 20t-54 -20t-15 -49q0 -30 15 -50t54 -20z" />
    <glyph glyph-name="ogonek" unicode="&#x2db;" horiz-adv-x="284" 
d="M155 -268q-69 0 -102 34t-33 85q0 45 23.5 72.5t65.5 46.5l65 30h91l-95 -49q-23 -12 -33 -25t-10 -39q0 -20 17 -33t44 -13h77v-109h-110z" />
    <glyph glyph-name="tilde" unicode="&#x2dc;" horiz-adv-x="504" 
d="M20 766v95h464v-95h-464z" />
    <glyph glyph-name="hungarumlaut" unicode="&#x2dd;" horiz-adv-x="476" 
d="M267 718l83 213h106l-98 -213h-91zM20 718l83 213h106l-98 -213h-91z" />
    <glyph glyph-name="Wgrave" unicode="&#x1e80;" horiz-adv-x="1177" 
d="M23 0zM343 162q7 -20 15.5 -31t25.5 -11q52 0 52 60v343q0 38 13.5 69.5t37.5 53.5t56 34t70 12q53 0 95.5 -28t59.5 -79l139 -423q7 -20 15.5 -31t25.5 -11q52 0 52 60v509h128v-522q0 -38 -14 -69.5t-38 -53.5t-56.5 -34t-69.5 -12q-52 0 -95 28.5t-60 79.5l-138 421
q-6 21 -15.5 32.5t-26.5 11.5q-51 0 -51 -60v-344q0 -38 -14 -69.5t-38 -53.5t-56.5 -34t-69.5 -12q-55 0 -96 28.5t-59 79.5l-208 583h136zM380 817v114l396 -132v-85z" />
    <glyph glyph-name="wgrave" unicode="&#x1e81;" horiz-adv-x="1177" 
d="M49 0zM945 103q-19 -49 -61 -78t-93 -29q-38 0 -70.5 12t-56.5 34t-37.5 53t-13.5 70v346q0 60 -51 60q-17 0 -26 -11.5t-16 -32.5l-139 -424h1q-16 -51 -58.5 -79t-96.5 -28q-38 0 -70.5 12t-56.5 34t-37.5 53t-13.5 70v524h129v-511q0 -60 51 -60q17 0 26.5 10.5
t15.5 31.5l140 425q17 51 58.5 79t94.5 28q37 0 69.5 -12t56.5 -34t38 -53.5t14 -69.5v-345q0 -60 51 -60q17 0 25.5 10.5t16.5 31.5l183 529h137zM340 817v114l396 -132v-85z" />
    <glyph glyph-name="Wacute" unicode="&#x1e82;" horiz-adv-x="1177" 
d="M23 0zM343 162q7 -20 15.5 -31t25.5 -11q52 0 52 60v343q0 38 13.5 69.5t37.5 53.5t56 34t70 12q53 0 95.5 -28t59.5 -79l139 -423q7 -20 15.5 -31t25.5 -11q52 0 52 60v509h128v-522q0 -38 -14 -69.5t-38 -53.5t-56.5 -34t-69.5 -12q-52 0 -95 28.5t-60 79.5l-138 421
q-6 21 -15.5 32.5t-26.5 11.5q-51 0 -51 -60v-344q0 -38 -14 -69.5t-38 -53.5t-56.5 -34t-69.5 -12q-55 0 -96 28.5t-59 79.5l-208 583h136zM440 714v85l396 132v-114z" />
    <glyph glyph-name="wacute" unicode="&#x1e83;" horiz-adv-x="1177" 
d="M49 0zM945 103q-19 -49 -61 -78t-93 -29q-38 0 -70.5 12t-56.5 34t-37.5 53t-13.5 70v346q0 60 -51 60q-17 0 -26 -11.5t-16 -32.5l-139 -424h1q-16 -51 -58.5 -79t-96.5 -28q-38 0 -70.5 12t-56.5 34t-37.5 53t-13.5 70v524h129v-511q0 -60 51 -60q17 0 26.5 10.5
t15.5 31.5l140 425q17 51 58.5 79t94.5 28q37 0 69.5 -12t56.5 -34t38 -53.5t14 -69.5v-345q0 -60 51 -60q17 0 25.5 10.5t16.5 31.5l183 529h137zM400 714v85l396 132v-114z" />
    <glyph glyph-name="Wdieresis" unicode="&#x1e84;" horiz-adv-x="1177" 
d="M23 0zM343 162q7 -20 15.5 -31t25.5 -11q52 0 52 60v343q0 38 13.5 69.5t37.5 53.5t56 34t70 12q53 0 95.5 -28t59.5 -79l139 -423q7 -20 15.5 -31t25.5 -11q52 0 52 60v509h128v-522q0 -38 -14 -69.5t-38 -53.5t-56.5 -34t-69.5 -12q-52 0 -95 28.5t-60 79.5l-138 421
q-6 21 -15.5 32.5t-26.5 11.5q-51 0 -51 -60v-344q0 -38 -14 -69.5t-38 -53.5t-56.5 -34t-69.5 -12q-55 0 -96 28.5t-59 79.5l-208 583h136zM681 754v118h126v-118h-126zM410 754v118h125v-118h-125z" />
    <glyph glyph-name="wdieresis" unicode="&#x1e85;" horiz-adv-x="1177" 
d="M49 0zM945 103q-19 -49 -61 -78t-93 -29q-38 0 -70.5 12t-56.5 34t-37.5 53t-13.5 70v346q0 60 -51 60q-17 0 -26 -11.5t-16 -32.5l-139 -424h1q-16 -51 -58.5 -79t-96.5 -28q-38 0 -70.5 12t-56.5 34t-37.5 53t-13.5 70v524h129v-511q0 -60 51 -60q17 0 26.5 10.5
t15.5 31.5l140 425q17 51 58.5 79t94.5 28q37 0 69.5 -12t56.5 -34t38 -53.5t14 -69.5v-345q0 -60 51 -60q17 0 25.5 10.5t16.5 31.5l183 529h137zM641 754v118h126v-118h-126zM370 754v118h125v-118h-125z" />
    <glyph glyph-name="Ygrave" unicode="&#x1ef2;" horiz-adv-x="665" 
d="M18 0zM273 305l-255 384h144l171 -276l170 276h144l-254 -376v-313h-120v305zM104 817v114l396 -132v-85z" />
    <glyph glyph-name="ygrave" unicode="&#x1ef3;" horiz-adv-x="665" 
d="M18 0zM273 305l-255 384h144l171 -276l170 276h144l-254 -376v-313h-120v305zM104 817v114l396 -132v-85z" />
    <glyph glyph-name="endash" unicode="&#x2013;" horiz-adv-x="450" 
d="M40 408h368v-123h-368v123z" />
    <glyph glyph-name="emdash" unicode="&#x2014;" horiz-adv-x="645" 
d="M40 408h565v-123h-565v123z" />
    <glyph glyph-name="quoteleft" unicode="&#x2018;" horiz-adv-x="251" 
d="M179 508q-33 0 -60 12t-46 33t-29.5 50t-10.5 62v137h129v-108q0 -52 54 -67v-119h-37z" />
    <glyph glyph-name="quoteright" unicode="&#x2019;" horiz-adv-x="250" 
d="M215 661q0 -33 -10 -61.5t-29 -49.5t-45.5 -33t-59.5 -12h-38v118q54 15 54 68v108h128v-138z" />
    <glyph glyph-name="quotesinglbase" unicode="&#x201a;" horiz-adv-x="251" 
d="M33 0zM216 12q0 -38 -14 -70t-38.5 -54.5t-58 -35t-72.5 -12.5v121q27 0 40.5 12.5t13.5 31.5v127h129v-120z" />
    <glyph glyph-name="quotedblleft" unicode="&#x201c;" horiz-adv-x="502" 
d="M33 508zM179 508q-33 0 -60 12t-46 33t-29.5 50t-10.5 62v137h129v-108q0 -52 54 -67v-119h-37zM430 508q-33 0 -60 12t-46 33t-29.5 50t-10.5 62v137h129v-108q0 -52 54 -67v-119h-37z" />
    <glyph glyph-name="quotedblright" unicode="&#x201d;" horiz-adv-x="500" 
d="M33 505zM215 661q0 -33 -10 -61.5t-29 -49.5t-45.5 -33t-59.5 -12h-38v118q54 15 54 68v108h128v-138zM465 661q0 -33 -10 -61.5t-29 -49.5t-45.5 -33t-59.5 -12h-38v118q54 15 54 68v108h128v-138z" />
    <glyph glyph-name="quotedblbase" unicode="&#x201e;" horiz-adv-x="502" 
d="M33 0zM216 12q0 -38 -14 -70t-38.5 -54.5t-58 -35t-72.5 -12.5v121q27 0 40.5 12.5t13.5 31.5v127h129v-120zM467 12q0 -38 -14 -70t-38.5 -54.5t-58 -35t-72.5 -12.5v121q27 0 40.5 12.5t13.5 31.5v127h129v-120z" />
    <glyph glyph-name="dagger" unicode="&#x2020;" horiz-adv-x="557" 
d="M244 -14v540h-221v62h221v132h73v-132h217v-62h-217v-540h-73z" />
    <glyph glyph-name="daggerdbl" unicode="&#x2021;" horiz-adv-x="557" 
d="M316 119v-133h-72v133h-221v61h221v346h-221v62h221v132h72v-132h219v-62h-219v-346h219v-61h-219z" />
    <glyph glyph-name="bullet" unicode="&#x2022;" horiz-adv-x="480" 
d="M428 518v-351h-375v351h375z" />
    <glyph glyph-name="ellipsis" unicode="&#x2026;" horiz-adv-x="980" 
d="M33 0zM33 121h128v-121h-128v121zM425 121h128v-121h-128v121zM817 121h128v-121h-128v121z" />
    <glyph glyph-name="perthousand" unicode="&#x2030;" horiz-adv-x="1111" 
d="M40 0zM215 415q81 0 81 107v4q0 113 -82 113h-33q-81 0 -81 -113v-4q0 -107 81 -107h34zM199 699q155 0 157 -171v-1q0 -172 -156 -172h-4q-156 0 -156 172v1q0 171 157 171h2zM67 0l530 689h92l-529 -689h-93zM574 50q81 0 81 107v4q0 113 -82 113h-33q-81 0 -81 -113
v-4q0 -107 81 -107h34zM558 334q155 0 157 -171v-1q0 -172 -156 -172h-4q-156 0 -156 172v1q0 171 157 171h2zM930 50q81 0 81 107v4q0 113 -82 113h-33q-81 0 -81 -113v-4q0 -107 81 -107h34zM914 334q155 0 157 -171v-1q0 -172 -156 -172h-4q-156 0 -156 172v1
q0 171 157 171h2z" />
    <glyph glyph-name="guilsinglleft" unicode="&#x2039;" horiz-adv-x="301" 
d="M16 353l203 251l65 -70l-150 -181l149 -182l-64 -71z" />
    <glyph glyph-name="guilsinglright" unicode="&#x203a;" horiz-adv-x="301" 
d="M16 171l150 182l-150 181l65 70l203 -251l-203 -253z" />
    <glyph glyph-name="fraction" unicode="&#x2044;" horiz-adv-x="233" 
d="M-194 0l530 689h92l-529 -689h-93z" />
    <glyph glyph-name="zerosuperior" unicode="&#x2070;" horiz-adv-x="386" 
d="M35 355zM210 415q81 0 81 107v4q0 113 -82 113h-33q-81 0 -81 -113v-4q0 -107 81 -107h34zM194 699q155 0 157 -171v-1q0 -172 -156 -172h-4q-156 0 -156 172v1q0 171 157 171h2z" />
    <glyph glyph-name="foursuperior" unicode="&#x2074;" horiz-adv-x="340" 
d="M35 355zM102 521q-7 -11 -7 -20q0 -22 33 -22h110v138q0 22 -17 22h-15q-14 0 -21.5 -3.5t-15.5 -14.5zM238 418h-129q-17 0 -30.5 7t-23 18.5t-15 26.5t-5.5 31q0 24 14 47l68 105q30 46 91 46h19q42 0 57.5 -18t15.5 -61v-265h-62v63z" />
    <glyph glyph-name="fivesuperior" unicode="&#x2075;" horiz-adv-x="361" 
d="M39 355zM308 639h-208v-81h123q48 0 73 -27.5t25 -73.5q0 -43 -27.5 -72.5t-70.5 -29.5h-184v60h184q16 0 27 13.5t11 28.5q0 16 -11 28.5t-27 12.5h-184v201h269v-60z" />
    <glyph glyph-name="sixsuperior" unicode="&#x2076;" horiz-adv-x="380" 
d="M35 355zM96 498q8 -83 80 -83h72q15 0 26 12.5t11 29.5t-10 29t-27 12h-152zM191 355q-156 0 -156 172v1q0 171 157 171h125v-60h-141q-70 0 -79 -81h154q20 0 37.5 -8.5t30 -22.5t20 -31.5t7.5 -36.5v-5q0 -19 -8 -36.5t-21 -31.5t-30.5 -22.5t-36.5 -8.5h-59z" />
    <glyph glyph-name="sevensuperior" unicode="&#x2077;" horiz-adv-x="391" 
d="M35 355zM287 699q34 0 53 -21.5t19 -49.5q0 -16 -6 -31.5t-18 -28.5l-198 -213h-82l240 259q6 6 6 12q0 13 -14 13h-252v60h252z" />
    <glyph glyph-name="eightsuperior" unicode="&#x2078;" horiz-adv-x="370" 
d="M34 355zM105 570q7 -5 13.5 -8.5t15.5 -3.5h102q18 0 29 12t11 29q0 16 -11.5 28t-27.5 12h-104q-16 0 -27.5 -12t-11.5 -28q0 -15 11 -29zM265 427q11 14 11 31q0 16 -11.5 28t-27.5 12h-104q-16 0 -27.5 -12t-11.5 -28q0 -18 11 -30.5t29 -12.5h102q17 0 29 12z
M228 699q59 0 83.5 -29t24.5 -72q0 -18 -9 -38t-29 -32q20 -12 29 -31.5t9 -39.5q0 -19 -6 -37.5t-18.5 -32.5t-33 -23t-50.5 -9h-85q-30 0 -51 9t-33.5 23t-18.5 32.5t-6 37.5q0 20 8.5 39.5t28.5 31.5q-20 12 -28.5 32t-8.5 38q0 43 25 72t84 29h85z" />
    <glyph glyph-name="ninesuperior" unicode="&#x2079;" horiz-adv-x="381" 
d="M35 355zM285 558q-11 80 -79 80h-73q-15 0 -26 -13t-11 -29t10.5 -27t26.5 -11h152zM191 699q156 0 156 -171v-2q-2 -171 -157 -171h-126v60h141q36 0 54.5 20t25.5 63h-155q-20 0 -37.5 8t-30.5 21t-20 30t-7 36v6q0 19 8 37t21 32t30.5 22.5t36.5 8.5h60z" />
    <glyph glyph-name="zeroinferior" unicode="&#x2080;" horiz-adv-x="386" 
d="M210 50q81 0 81 107v4q0 113 -82 113h-33q-81 0 -81 -113v-4q0 -107 81 -107h34zM194 334q155 0 157 -171v-1q0 -172 -156 -172h-4q-156 0 -156 172v1q0 171 157 171h2z" />
    <glyph glyph-name="oneinferior" unicode="&#x2081;" horiz-adv-x="191" 
d="M29 334q22 0 44.5 -7.5t39.5 -22t28 -36.5t11 -50v-228h-61v228q0 29 -18 42.5t-44 13.5v60z" />
    <glyph glyph-name="twoinferior" unicode="&#x2082;" horiz-adv-x="411" 
d="M285 334q42 0 63 -22t21 -57q0 -26 -13 -46t-43 -33l-189 -82q-8 -4 -13.5 -11t-5.5 -15v-18h255v-60h-316v79q0 7 2 17.5t8 21.5t17 21.5t29 18.5l190 82q9 4 14 11.5t5 14.5q0 8 -4.5 13t-17.5 5h-230v60h228z" />
    <glyph glyph-name="threeinferior" unicode="&#x2083;" horiz-adv-x="354" 
d="M211 334q57 0 83 -28t26 -73q0 -18 -9 -38t-29 -32q20 -12 29 -31.5t9 -39.5q0 -19 -6 -37.5t-18.5 -32.5t-33.5 -23t-51 -9h-172v60h181q17 0 28.5 12t11.5 31q0 16 -11.5 28t-27.5 12h-82v60h81q17 0 28.5 12t11.5 29q0 16 -11.5 28t-27.5 12h-182v60h172z" />
    <glyph glyph-name="fourinferior" unicode="&#x2084;" horiz-adv-x="340" 
d="M102 156q-7 -11 -7 -20q0 -22 33 -22h110v138q0 22 -17 22h-15q-14 0 -21.5 -3.5t-15.5 -14.5zM238 53h-129q-17 0 -30.5 7t-23 18.5t-15 26.5t-5.5 31q0 24 14 47l68 105q30 46 91 46h19q42 0 57.5 -18t15.5 -61v-265h-62v63z" />
    <glyph glyph-name="fiveinferior" unicode="&#x2085;" horiz-adv-x="361" 
d="M308 274h-208v-81h123q48 0 73 -27.5t25 -73.5q0 -43 -27.5 -72.5t-70.5 -29.5h-184v60h184q16 0 27 13.5t11 28.5q0 16 -11 28.5t-27 12.5h-184v201h269v-60z" />
    <glyph glyph-name="sixinferior" unicode="&#x2086;" horiz-adv-x="380" 
d="M96 133q8 -83 80 -83h72q15 0 26 12.5t11 29.5t-10 29t-27 12h-152zM191 -10q-156 0 -156 172v1q0 171 157 171h125v-60h-141q-70 0 -79 -81h154q20 0 37.5 -8.5t30 -22.5t20 -31.5t7.5 -36.5v-5q0 -19 -8 -36.5t-21 -31.5t-30.5 -22.5t-36.5 -8.5h-59z" />
    <glyph glyph-name="seveninferior" unicode="&#x2087;" horiz-adv-x="391" 
d="M287 334q34 0 53 -21.5t19 -49.5q0 -16 -6 -31.5t-18 -28.5l-198 -213h-82l240 259q6 6 6 12q0 13 -14 13h-252v60h252z" />
    <glyph glyph-name="eightinferior" unicode="&#x2088;" horiz-adv-x="370" 
d="M105 205q7 -5 13.5 -8.5t15.5 -3.5h102q18 0 29 12t11 29q0 16 -11.5 28t-27.5 12h-104q-16 0 -27.5 -12t-11.5 -28q0 -15 11 -29zM265 62q11 14 11 31q0 16 -11.5 28t-27.5 12h-104q-16 0 -27.5 -12t-11.5 -28q0 -18 11 -30.5t29 -12.5h102q17 0 29 12zM228 334
q59 0 83.5 -29t24.5 -72q0 -18 -9 -38t-29 -32q20 -12 29 -31.5t9 -39.5q0 -19 -6 -37.5t-18.5 -32.5t-33 -23t-50.5 -9h-85q-30 0 -51 9t-33.5 23t-18.5 32.5t-6 37.5q0 20 8.5 39.5t28.5 31.5q-20 12 -28.5 32t-8.5 38q0 43 25 72t84 29h85z" />
    <glyph glyph-name="nineinferior" unicode="&#x2089;" horiz-adv-x="381" 
d="M285 193q-11 80 -79 80h-73q-15 0 -26 -13t-11 -29t10.5 -27t26.5 -11h152zM191 334q156 0 156 -171v-2q-2 -171 -157 -171h-126v60h141q36 0 54.5 20t25.5 63h-155q-20 0 -37.5 8t-30.5 21t-20 30t-7 36v6q0 19 8 37t21 32t30.5 22.5t36.5 8.5h60z" />
    <glyph glyph-name="Euro" unicode="&#x20ac;" horiz-adv-x="621" 
d="M200 313h226l-47 -109h-159q21 -42 54 -63t87 -21h196v-120h-165q-242 0 -297 204h-54v109h38v66h-38v108h56q26 100 100.5 151t195.5 51h190l-51 -121h-170q-51 0 -86.5 -21t-52.5 -60h275l-45 -108h-253v-66z" />
    <glyph glyph-name="trademark" unicode="&#x2122;" horiz-adv-x="985" 
d="M130 303v316h-93v72h255v-72h-90v-316h-72zM845 303v290q0 28 -25 28q-17 0 -23 -21l-70 -223q-11 -35 -37 -56t-57 -21q-42 0 -71.5 25.5t-29.5 70.5v197q0 28 -25 28q-9 0 -13.5 -5t-8.5 -16l-102 -297h-81l117 327q11 32 35.5 48t53.5 16q42 0 71 -25.5t29 -70.5v-196
q0 -30 26 -30q14 0 22 23l75 233q11 34 35.5 50t53.5 16q43 0 71.5 -25.5t28.5 -70.5v-295h-75z" />
    <glyph glyph-name="onethird" unicode="&#x2153;" horiz-adv-x="787" 
d="M40 0zM92 699q22 0 44.5 -7.5t39.5 -22t28 -36.5t11 -50v-228h-61v228q0 29 -18 42.5t-44 13.5v60zM40 0l530 689h92l-529 -689h-93zM638 334q57 0 83 -28t26 -73q0 -18 -9 -38t-29 -32q20 -12 29 -31.5t9 -39.5q0 -19 -6 -37.5t-18.5 -32.5t-33.5 -23t-51 -9h-172v60
h181q17 0 28.5 12t11.5 31q0 16 -11.5 28t-27.5 12h-82v60h81q17 0 28.5 12t11.5 29q0 16 -11.5 28t-27.5 12h-182v60h172z" />
    <glyph glyph-name="twothirds" unicode="&#x2154;" horiz-adv-x="830" 
d="M41 0zM282 699q42 0 63 -22t21 -57q0 -26 -13 -46t-43 -33l-189 -82q-8 -4 -13.5 -11t-5.5 -15v-18h255v-60h-316v79q0 7 2 17.5t8 21.5t17 21.5t29 18.5l190 82q9 4 14 11.5t5 14.5q0 8 -4.5 13t-17.5 5h-230v60h228zM123 0l530 689h92l-529 -689h-93zM681 334
q57 0 83 -28t26 -73q0 -18 -9 -38t-29 -32q20 -12 29 -31.5t9 -39.5q0 -19 -6 -37.5t-18.5 -32.5t-33.5 -23t-51 -9h-172v60h181q17 0 28.5 12t11.5 31q0 16 -11.5 28t-27.5 12h-82v60h81q17 0 28.5 12t11.5 29q0 16 -11.5 28t-27.5 12h-182v60h172z" />
    <glyph glyph-name="oneeighth" unicode="&#x215b;" horiz-adv-x="793" 
d="M40 0zM92 699q22 0 44.5 -7.5t39.5 -22t28 -36.5t11 -50v-228h-61v228q0 29 -18 42.5t-44 13.5v60zM40 0l530 689h92l-529 -689h-93zM522 205q7 -5 13.5 -8.5t15.5 -3.5h102q18 0 29 12t11 29q0 16 -11.5 28t-27.5 12h-104q-16 0 -27.5 -12t-11.5 -28q0 -15 11 -29z
M682 62q11 14 11 31q0 16 -11.5 28t-27.5 12h-104q-16 0 -27.5 -12t-11.5 -28q0 -18 11 -30.5t29 -12.5h102q17 0 29 12zM645 334q59 0 83.5 -29t24.5 -72q0 -18 -9 -38t-29 -32q20 -12 29 -31.5t9 -39.5q0 -19 -6 -37.5t-18.5 -32.5t-33 -23t-50.5 -9h-85q-30 0 -51 9
t-33.5 23t-18.5 32.5t-6 37.5q0 20 8.5 39.5t28.5 31.5q-20 12 -28.5 32t-8.5 38q0 43 25 72t84 29h85z" />
    <glyph glyph-name="threeeighths" unicode="&#x215c;" horiz-adv-x="774" 
d="M40 0zM212 699q57 0 83 -28t26 -73q0 -18 -9 -38t-29 -32q20 -12 29 -31.5t9 -39.5q0 -19 -6 -37.5t-18.5 -32.5t-33.5 -23t-51 -9h-172v60h181q17 0 28.5 12t11.5 31q0 16 -11.5 28t-27.5 12h-82v60h81q17 0 28.5 12t11.5 29q0 16 -11.5 28t-27.5 12h-182v60h172zM61 0
l530 689h92l-529 -689h-93zM503 205q7 -5 13.5 -8.5t15.5 -3.5h102q18 0 29 12t11 29q0 16 -11.5 28t-27.5 12h-104q-16 0 -27.5 -12t-11.5 -28q0 -15 11 -29zM663 62q11 14 11 31q0 16 -11.5 28t-27.5 12h-104q-16 0 -27.5 -12t-11.5 -28q0 -18 11 -30.5t29 -12.5h102
q17 0 29 12zM626 334q59 0 83.5 -29t24.5 -72q0 -18 -9 -38t-29 -32q20 -12 29 -31.5t9 -39.5q0 -19 -6 -37.5t-18.5 -32.5t-33 -23t-50.5 -9h-85q-30 0 -51 9t-33.5 23t-18.5 32.5t-6 37.5q0 20 8.5 39.5t28.5 31.5q-20 12 -28.5 32t-8.5 38q0 43 25 72t84 29h85z" />
    <glyph glyph-name="fiveeighths" unicode="&#x215d;" horiz-adv-x="781" 
d="M40 0zM309 639h-208v-81h123q48 0 73 -27.5t25 -73.5q0 -43 -27.5 -72.5t-70.5 -29.5h-184v60h184q16 0 27 13.5t11 28.5q0 16 -11 28.5t-27 12.5h-184v201h269v-60zM68 0l530 689h92l-529 -689h-93zM510 205q7 -5 13.5 -8.5t15.5 -3.5h102q18 0 29 12t11 29
q0 16 -11.5 28t-27.5 12h-104q-16 0 -27.5 -12t-11.5 -28q0 -15 11 -29zM670 62q11 14 11 31q0 16 -11.5 28t-27.5 12h-104q-16 0 -27.5 -12t-11.5 -28q0 -18 11 -30.5t29 -12.5h102q17 0 29 12zM633 334q59 0 83.5 -29t24.5 -72q0 -18 -9 -38t-29 -32q20 -12 29 -31.5
t9 -39.5q0 -19 -6 -37.5t-18.5 -32.5t-33 -23t-50.5 -9h-85q-30 0 -51 9t-33.5 23t-18.5 32.5t-6 37.5q0 20 8.5 39.5t28.5 31.5q-20 12 -28.5 32t-8.5 38q0 43 25 72t84 29h85z" />
    <glyph glyph-name="seveneighths" unicode="&#x215e;" horiz-adv-x="783" 
d="M40 0zM300 699q34 0 53 -21.5t19 -49.5q0 -16 -6 -31.5t-18 -28.5l-198 -213h-82l240 259q6 6 6 12q0 13 -14 13h-252v60h252zM40 0l530 689h92l-529 -689h-93zM512 205q7 -5 13.5 -8.5t15.5 -3.5h102q18 0 29 12t11 29q0 16 -11.5 28t-27.5 12h-104q-16 0 -27.5 -12
t-11.5 -28q0 -15 11 -29zM672 62q11 14 11 31q0 16 -11.5 28t-27.5 12h-104q-16 0 -27.5 -12t-11.5 -28q0 -18 11 -30.5t29 -12.5h102q17 0 29 12zM635 334q59 0 83.5 -29t24.5 -72q0 -18 -9 -38t-29 -32q20 -12 29 -31.5t9 -39.5q0 -19 -6 -37.5t-18.5 -32.5t-33 -23
t-50.5 -9h-85q-30 0 -51 9t-33.5 23t-18.5 32.5t-6 37.5q0 20 8.5 39.5t28.5 31.5q-20 12 -28.5 32t-8.5 38q0 43 25 72t84 29h85z" />
    <glyph glyph-name="minus" unicode="&#x2212;" horiz-adv-x="536" 
d="M20 307v91h497v-91h-497z" />
    <glyph glyph-name="approxequal" unicode="&#x2248;" horiz-adv-x="536" 
d="M21 144zM517 199q-28 -28 -54.5 -41.5t-60.5 -13.5q-37 0 -69.5 15.5t-64 34t-63 34t-65.5 15.5q-25 0 -53 -17t-66 -59v101q23 26 49 41t61 15q40 0 73.5 -15.5t64.5 -34t61.5 -34t63.5 -15.5q26 0 55.5 17t67.5 62v-105zM517 438q-28 -28 -54.5 -41.5t-60.5 -13.5
q-37 0 -69.5 15.5t-64 34t-63 34t-65.5 15.5q-25 0 -53 -17t-66 -59v101q23 26 49 41t61 15q40 0 73.5 -15.5t64.5 -34t61.5 -34t63.5 -15.5q26 0 55.5 17t67.5 62v-105z" />
    <glyph glyph-name="notequal" unicode="&#x2260;" horiz-adv-x="536" 
d="M361 406l-82 -107h238v-91h-308l-159 -208h-93l160 208h-97v91h167l82 107h-249v91h319l148 192h92l-148 -192h86v-91h-156z" />
    <glyph glyph-name="lessequal" unicode="&#x2264;" horiz-adv-x="536" 
d="M20 0zM20 297v111l497 188v-111l-383 -132l383 -133v-110zM20 -2v91h497v-91h-497z" />
    <glyph glyph-name="greaterequal" unicode="&#x2265;" horiz-adv-x="536" 
d="M20 0zM20 110v110l382 133l-382 132v111l497 -188v-111zM20 -2v91h497v-91h-497z" />
    <glyph glyph-name="uniF8FF" unicode="&#xf8ff;" horiz-adv-x="302" 
 />
    <glyph glyph-name="nonmarkingreturn" horiz-adv-x="548" 
 />
    <glyph glyph-name=".null" horiz-adv-x="0" 
 />
    <glyph glyph-name=".ttfautohint" horiz-adv-x="0" 
d="M0 0z" />
    </font>
</defs>
</svg>
