<?xml version="1.0" standalone="no"?>
<!DOCTYPE svg PUBLIC "-//W3C//DTD SVG 1.1//EN" "http://www.w3.org/Graphics/SVG/1.1/DTD/svg11.dtd" >
<svg xmlns="http://www.w3.org/2000/svg" xmlns:xlink="http://www.w3.org/1999/xlink" version="1.1">
<metadata>
Created by FontForge 20150825 at Mon Sep 28 21:31:33 2015
 By Jimmy Wärting
Copyright (c) Village Type &#38; Design LLC. All rights reserved.
</metadata>
<defs>
<font id="ApexNew-Bold" horiz-adv-x="500" >
  <font-face 
    font-family="Apex New Bold"
    font-weight="600"
    font-stretch="normal"
    units-per-em="1000"
    panose-1="2 1 6 0 4 5 1 1 1 3"
    ascent="750"
    descent="-250"
    x-height="500"
    cap-height="750"
    bbox="-220 -270 1505 1090"
    underline-thickness="25"
    underline-position="-100"
    unicode-range="U+0020-FF3F"
  />
<missing-glyph horiz-adv-x="649" 
d="M403 293h-156v242h156v-242zM325 47c-107 0 -201 -25 -275 -57v166c74 31 167 52 275 52s201 -21 275 -52v-166c-74 32 -168 57 -275 57zM515 760c54 0 95 -41 95 -95c0 -53 -41 -95 -95 -95c-53 0 -95 42 -95 95c0 54 42 95 95 95zM135 760c53 0 95 -41 95 -95
c0 -53 -42 -95 -95 -95c-54 0 -95 42 -95 95c0 54 41 95 95 95z" />
    <glyph glyph-name="f_b" unicode="fb" horiz-adv-x="949" 
d="M541 0h-96v630c-8 1 -15 1 -23 1c-92 0 -171 -22 -171 -97v-34h128v-133h-128v-367h-160v367h-81v106l81 22v39c0 187 172 230 316 230c75 0 142 -8 198 -22v-260c30 18 70 32 125 32c130 0 194 -80 194 -264s-64 -264 -194 -264c-80 0 -127 24 -162 54zM605 368v-236
s31 -21 71 -21c74 0 90 53 90 139c0 85 -16 139 -90 139c-40 0 -71 -21 -71 -21z" />
    <glyph glyph-name="f_f_b" unicode="ffb" horiz-adv-x="1309" 
d="M901 0h-96v630c-8 1 -15 1 -23 1c-92 0 -171 -22 -171 -97v-34h128v-133h-128v-367h-160v367h-200v-367h-160v367h-81v106l81 22v39c0 187 172 230 316 230c66 0 126 -7 200 -22c51 16 107 22 160 22c75 0 142 -8 198 -22v-260c30 18 70 32 125 32
c130 0 194 -80 194 -264s-64 -264 -194 -264c-80 0 -127 24 -162 54zM965 368v-236s31 -21 71 -21c74 0 90 53 90 139c0 85 -16 139 -90 139c-40 0 -71 -21 -71 -21zM451 534c0 38 7 70 20 97c-15 1 -32 2 -49 2c-92 0 -171 -22 -171 -97v-36h200v34z" />
    <glyph glyph-name="ff" unicode="ff" horiz-adv-x="750" 
d="M755 747v-134c-15 7 -38 18 -78 18c-35 0 -66 -15 -66 -62v-69h129v-133h-129v-367h-160v367h-200v-367h-160v367h-81v106l81 22v39c0 187 172 230 316 230c58 0 112 -5 156 -12c27 8 60 12 98 12c22 0 67 -5 94 -17zM251 536v-36h200v88c0 15 1 30 3 44l-32 1
c-92 0 -171 -22 -171 -97z" />
    <glyph glyph-name="f_h" unicode="fh" horiz-adv-x="950" 
d="M91 495v39c0 187 172 230 316 230c75 0 142 -8 198 -22v-260c35 18 75 32 130 32c136 0 175 -72 175 -168v-346h-160v327c0 37 -13 62 -56 62c-39 0 -74 -16 -89 -26v-363h-160v630c-8 1 -15 1 -23 1c-92 0 -171 -22 -171 -97v-34h128v-133h-128v-367h-160v367h-81v106z
" />
    <glyph glyph-name="f_f_h" unicode="ffh" horiz-adv-x="1310" 
d="M91 495v39c0 187 172 230 316 230c66 0 126 -7 200 -22c51 16 107 22 160 22c75 0 142 -8 198 -22v-260c35 18 75 32 130 32c136 0 175 -72 175 -168v-346h-160v327c0 37 -13 62 -56 62c-39 0 -74 -16 -89 -26v-363h-160v630c-8 1 -15 1 -23 1c-92 0 -171 -22 -171 -97
v-34h128v-133h-128v-367h-160v367h-200v-367h-160v367h-81v106zM451 534c0 38 7 70 20 97c-15 1 -32 2 -49 2c-92 0 -171 -22 -171 -97v-36h200v34z" />
    <glyph glyph-name="fi" unicode="fi" horiz-adv-x="665" 
d="M640 125v-129s-21 -4 -46 -4c-86 0 -154 44 -154 141v234h-189v-367h-160v367h-81v106l81 22v39c0 187 167 230 311 230c75 0 137 -9 197 -23v-133c-57 13 -103 23 -182 23c-92 0 -166 -22 -166 -97v-34h348v-345c0 -19 9 -30 41 -30z" />
    <glyph glyph-name="ffi" unicode="ffi" horiz-adv-x="1025" 
d="M1000 125v-129s-21 -4 -46 -4c-86 0 -154 44 -154 141v234h-189v-367h-160v367h-200v-367h-160v367h-81v106l81 22v39c0 187 172 230 316 230c65 0 125 -7 198 -22c49 16 105 22 157 22c75 0 137 -9 197 -23v-133c-57 13 -103 23 -182 23c-92 0 -166 -22 -166 -97v-34
h348v-345c0 -19 9 -30 41 -30zM451 534c0 38 7 70 19 97c-15 1 -31 2 -48 2c-92 0 -171 -22 -171 -97v-36h200v34z" />
    <glyph glyph-name="f_j" unicode="fj" horiz-adv-x="665" 
d="M91 495v39c0 187 167 230 311 230c75 0 137 -9 197 -23v-133c-57 13 -103 23 -182 23c-92 0 -166 -22 -166 -97v-34h348v-562c0 -144 -133 -202 -262 -202v134c85 0 103 38 103 84v413h-189v-367h-160v367h-81v106z" />
    <glyph glyph-name="f_f_j" unicode="ffj" horiz-adv-x="1025" 
d="M697 -264v134c85 0 103 38 103 84v413h-189v-367h-160v367h-200v-367h-160v367h-81v106l81 22v39c0 187 172 230 316 230c65 0 125 -7 198 -22c49 16 105 22 157 22c75 0 137 -9 197 -23v-133c-57 13 -103 23 -182 23c-92 0 -166 -22 -166 -97v-34h348v-562
c0 -144 -133 -202 -262 -202zM451 534c0 38 7 70 19 97c-15 1 -31 2 -48 2c-92 0 -171 -22 -171 -97v-36h200v34z" />
    <glyph glyph-name="f_k" unicode="fk" horiz-adv-x="945" 
d="M91 495v39c0 187 172 230 316 230c75 0 142 -8 193 -21v-403l128 160h200l-194 -204l209 -296h-195l-116 189l-32 -34v-155h-155v630c-8 1 -15 1 -23 1c-92 0 -171 -22 -171 -97v-34h128v-133h-128v-367h-160v367h-81v106z" />
    <glyph glyph-name="f_f_k" unicode="ffk" horiz-adv-x="1310" 
d="M91 495v39c0 187 172 230 316 230c66 0 126 -7 200 -22c51 16 107 22 160 22c75 0 142 -8 198 -22v-402l128 160h200l-194 -204l209 -296h-195l-116 189l-32 -34v-155h-155v630c-9 1 -18 1 -28 1c-92 0 -171 -22 -171 -97v-34h128v-133h-128v-367h-160v367h-200v-367
h-160v367h-81v106zM451 534c0 38 7 70 20 97c-15 1 -32 2 -49 2c-92 0 -171 -22 -171 -97v-36h200v34z" />
    <glyph glyph-name="fl" unicode="fl" horiz-adv-x="675" 
d="M650 125v-129s-21 -4 -46 -4c-86 0 -154 44 -154 141v497c-9 1 -19 1 -28 1c-92 0 -171 -22 -171 -97v-34h128v-133h-128v-367h-160v367h-81v106l81 22v39c0 187 172 230 316 230c75 0 142 -9 202 -23v-586c0 -19 9 -30 41 -30z" />
    <glyph glyph-name="ffl" unicode="ffl" horiz-adv-x="1035" 
d="M1010 125v-129s-21 -4 -46 -4c-86 0 -154 44 -154 141v497c-9 1 -19 1 -28 1c-92 0 -171 -22 -171 -97v-34h128v-133h-128v-367h-160v367h-200v-367h-160v367h-81v106l81 22v39c0 187 172 230 316 230c66 0 126 -7 200 -22c51 16 107 22 160 22c75 0 142 -9 202 -23v-586
c0 -19 9 -30 41 -30zM451 534c0 38 7 70 20 97c-15 1 -32 2 -49 2c-92 0 -171 -22 -171 -97v-36h200v34z" />
    <glyph glyph-name="f_t" unicode="ft" horiz-adv-x="753" 
d="M91 495v39c0 187 172 230 316 230c75 0 142 -9 202 -23v-241h124v-133h-124v-191c0 -39 15 -61 66 -61c21 0 41 4 49 6v-125c-22 -6 -60 -10 -82 -10c-140 0 -193 59 -193 177v204h-198v-367h-160v367h-81v106zM251 534v-34h198v130c-9 1 -18 1 -27 1
c-92 0 -171 -22 -171 -97z" />
    <glyph glyph-name="f_f_t" unicode="fft" horiz-adv-x="1113" 
d="M91 495v39c0 187 172 230 316 230c66 0 126 -7 200 -22c51 16 107 22 160 22c75 0 142 -9 202 -23v-241h124v-133h-124v-191c0 -39 15 -61 66 -61c21 0 41 4 49 6v-125c-22 -6 -60 -10 -82 -10c-140 0 -193 59 -193 177v204h-198v-367h-160v367h-200v-367h-160v367h-81
v106zM451 534c0 38 7 70 20 97c-15 1 -32 2 -49 2c-92 0 -171 -22 -171 -97v-36h200v34zM611 534v-34h198v130c-9 1 -18 1 -27 1c-92 0 -171 -22 -171 -97z" />
    <glyph glyph-name="f_dotlessi" unicode="f&#x131;" horiz-adv-x="665" 
d="M640 -8h-46c-86 0 -154 44 -154 141v234h-189v-367h-160v367h-81v106l81 22v93c0 118 65 176 210 176c22 0 67 -5 94 -17v-134c-15 7 -38 18 -78 18c-35 0 -66 -15 -66 -62v-69h348v-345c0 -19 9 -30 41 -30v-133z" />
    <glyph glyph-name="f_f_dotlessi" unicode="ff&#x131;" horiz-adv-x="1025" 
d="M91 495v39c0 187 172 230 316 230c51 0 98 -4 151 -13c28 9 63 13 103 13c22 0 67 -5 94 -17v-134c-15 7 -38 18 -78 18c-35 0 -66 -15 -66 -62v-69h348v-345c0 -19 9 -30 41 -30v-129s-21 -4 -46 -4c-86 0 -154 44 -154 141v234h-189v-367h-160v367h-200v-367h-160v367
h-81v106zM451 588c0 16 1 31 3 44c-10 1 -21 1 -32 1c-92 0 -171 -22 -171 -97v-36h200v88z" />
    <glyph glyph-name="f_t_t" unicode="ftt" horiz-adv-x="1113" 
d="M1084 121v-125c-22 -6 -60 -10 -82 -10c-140 0 -193 59 -193 177v204h-200v-191c0 -39 15 -61 66 -61c21 0 41 4 49 6v-125c-22 -6 -60 -10 -82 -10c-140 0 -193 59 -193 177v204h-198v-367h-160v367h-81v106l81 22v39c0 187 172 230 316 230c75 0 142 -9 202 -23v-241
h200v98l160 43v-141h124v-133h-124v-191c0 -39 15 -61 66 -61c21 0 41 4 49 6zM251 534v-34h198v130c-9 1 -18 1 -27 1c-92 0 -171 -22 -171 -97z" />
    <glyph glyph-name="t_t" unicode="tt" horiz-adv-x="750" 
d="M721 121v-125c-22 -6 -60 -10 -82 -10c-140 0 -193 59 -193 177v204h-200v-191c0 -39 15 -61 66 -61c21 0 41 4 49 6v-125c-22 -6 -60 -10 -82 -10c-140 0 -193 59 -193 177v204h-81v106l81 22v103l160 43v-141h200v98l160 43v-141h124v-133h-124v-191
c0 -39 15 -61 66 -61c21 0 41 4 49 6z" />
    <glyph glyph-name="interrobang" unicode="&#x21;&#x3f;" horiz-adv-x="480" 
d="M245 210h-116l-27 397c-31 -6 -62 -14 -81 -24v150c29 15 97 31 181 31c211 0 264 -98 264 -219c0 -139 -100 -178 -174 -208c-16 -6 -29 -11 -40 -17zM92 81c0 53 41 95 95 95c53 0 95 -42 95 -95c0 -54 -42 -95 -95 -95c-54 0 -95 41 -95 95zM308 538
c0 28 -12 49 -37 62l-9 -137c34 17 46 38 46 75z" />
    <glyph glyph-name="interrobangdown" unicode="&#xa1;&#xbf;" horiz-adv-x="480" 
d="M235 290h116l26 -397c32 6 62 14 82 24v-150c-29 -15 -97 -31 -181 -31c-211 0 -264 98 -264 219c0 139 100 178 174 208c15 6 29 11 39 16zM388 419c0 -53 -41 -95 -95 -95c-53 0 -95 42 -95 95c0 54 42 95 95 95c54 0 95 -41 95 -95zM172 -38c0 -28 11 -49 37 -62
l9 137c-34 -18 -46 -38 -46 -75z" />
    <glyph glyph-name=".notdef" horiz-adv-x="649" 
d="M403 293h-156v242h156v-242zM325 47c-107 0 -201 -25 -275 -57v166c74 31 167 52 275 52s201 -21 275 -52v-166c-74 32 -168 57 -275 57zM515 760c54 0 95 -41 95 -95c0 -53 -41 -95 -95 -95c-53 0 -95 42 -95 95c0 54 42 95 95 95zM135 760c53 0 95 -41 95 -95
c0 -53 -42 -95 -95 -95c-54 0 -95 42 -95 95c0 54 41 95 95 95z" />
    <glyph glyph-name="space" unicode=" " horiz-adv-x="200" 
 />
    <glyph glyph-name="A" unicode="A" horiz-adv-x="640" 
d="M190 0h-170l208 754h184l208 -754h-170l-35 154h-190zM320 565l-64 -284h128z" />
    <glyph glyph-name="B" unicode="B" horiz-adv-x="601" 
d="M46 0v750h269c190 0 242 -90 242 -212c0 -64 -32 -116 -81 -142c56 -19 103 -74 103 -167c0 -130 -59 -229 -260 -229h-273zM206 323v-187h111c67 0 92 39 92 94c0 56 -26 93 -92 93h-111zM387 533c0 35 -11 81 -78 81h-103v-161h103c66 0 78 46 78 80z" />
    <glyph glyph-name="C" unicode="C" horiz-adv-x="562" 
d="M41 375c1 282 105 389 324 389c87 0 126 -16 156 -28v-151c-45 18 -80 29 -140 29c-122 0 -178 -49 -178 -239s56 -239 178 -239c60 0 95 11 140 29v-151c-30 -12 -69 -28 -156 -28c-219 0 -323 107 -324 389z" />
    <glyph glyph-name="D" unicode="D" horiz-adv-x="645" 
d="M289 0h-243v750h243c254 0 320 -162 320 -375s-66 -375 -320 -375zM206 604v-458h86c117 0 151 84 151 229c0 144 -34 229 -151 229h-86z" />
    <glyph glyph-name="E" unicode="E" horiz-adv-x="560" 
d="M495 459v-143h-289v-170h318v-146h-478v750h478v-146h-318v-145h289z" />
    <glyph glyph-name="F" unicode="F" horiz-adv-x="536" 
d="M489 449v-143h-283v-306h-160v750h473v-146h-313v-155h283z" />
    <glyph glyph-name="G" unicode="G" horiz-adv-x="641" 
d="M358 -14c-223 0 -317 128 -317 389s94 389 322 389c102 0 176 -15 221 -35v-156c-62 26 -129 41 -191 41c-143 0 -190 -64 -190 -239c0 -187 51 -239 190 -239c15 0 35 1 46 3v152h-106v143h266v-397c-45 -28 -133 -51 -241 -51z" />
    <glyph glyph-name="H" unicode="H" horiz-adv-x="640" 
d="M594 0h-160v314h-228v-314h-160v750h160v-290h228v290h160v-750z" />
    <glyph glyph-name="I" unicode="I" horiz-adv-x="274" 
d="M217 0h-160v750h160v-750z" />
    <glyph glyph-name="J" unicode="J" horiz-adv-x="369" 
d="M8 4v153c16 -7 52 -17 86 -17c42 0 72 22 72 68v542h162v-578c0 -124 -68 -186 -221 -186c-23 0 -70 5 -99 18z" />
    <glyph glyph-name="K" unicode="K" horiz-adv-x="645" 
d="M439 0l-180 295l-55 -70v-225h-158v750h158v-320l223 320h193l-260 -328l278 -422h-199z" />
    <glyph glyph-name="L" unicode="L" horiz-adv-x="520" 
d="M206 750v-604h303v-146h-463v750h160z" />
    <glyph glyph-name="M" unicode="M" horiz-adv-x="792" 
d="M593 459l-116 -368h-162l-116 368l5 -459h-158v750h201l149 -467l149 467h201v-750h-158z" />
    <glyph glyph-name="N" unicode="N" horiz-adv-x="646" 
d="M600 0h-158l-242 448l4 -448h-158v750h158l242 -448l-4 448h158v-750z" />
    <glyph glyph-name="O" unicode="O" horiz-adv-x="680" 
d="M340 -14c-236 0 -299 160 -299 389s63 389 299 389s299 -160 299 -389s-63 -389 -299 -389zM340 619c-99 0 -137 -69 -137 -244s38 -244 137 -244s137 69 137 244s-38 244 -137 244z" />
    <glyph glyph-name="P" unicode="P" horiz-adv-x="580" 
d="M206 260v-260h-160v750h254c200 0 269 -117 269 -245c0 -130 -69 -245 -269 -245h-94zM206 604v-200h95c80 0 95 61 95 100s-15 100 -95 100h-95z" />
    <glyph glyph-name="Q" unicode="Q" horiz-adv-x="680" 
d="M523 36v-1l177 -36v-161l-472 163c-146 51 -187 183 -187 374c0 229 62 389 299 389c236 0 299 -160 299 -389c0 -152 -28 -275 -116 -339zM340 619c-99 0 -137 -69 -137 -244s38 -244 137 -244s137 69 137 244s-38 244 -137 244z" />
    <glyph glyph-name="R" unicode="R" horiz-adv-x="605" 
d="M206 281v-281h-160v750h255c202 0 268 -92 268 -235c0 -93 -26 -164 -105 -202l133 -313h-187l-101 281h-103zM206 604v-178h109c71 0 80 48 80 89c0 42 -9 89 -80 89h-109z" />
    <glyph glyph-name="S" unicode="S" horiz-adv-x="595" 
d="M307 456c166 -23 257 -57 257 -217c0 -186 -117 -253 -294 -253c-81 0 -180 14 -234 46v164c35 -20 119 -58 218 -58c113 0 146 35 146 86c0 57 -25 76 -101 86c-190 25 -263 81 -263 228c0 136 83 226 281 226c102 0 177 -18 212 -37v-155c-41 20 -124 40 -200 40
c-83 0 -129 -26 -129 -74c0 -54 29 -71 107 -82z" />
    <glyph glyph-name="T" unicode="T" horiz-adv-x="552" 
d="M537 604h-181v-604h-160v604h-181v146h522v-146z" />
    <glyph glyph-name="U" unicode="U" horiz-adv-x="640" 
d="M320 -14c-114 0 -279 45 -279 251v513h160v-505c0 -97 63 -114 119 -114s119 17 119 114v505h160v-513c0 -206 -165 -251 -279 -251z" />
    <glyph glyph-name="V" unicode="V" horiz-adv-x="640" 
d="M450 750h170l-208 -754h-184l-208 754h170l130 -571z" />
    <glyph glyph-name="W" unicode="W" horiz-adv-x="890" 
d="M340 750h210l83 -523l61 523h171l-116 -754h-208l-96 563l-96 -563h-208l-116 754h171l61 -523z" />
    <glyph glyph-name="X" unicode="X" horiz-adv-x="678" 
d="M469 0l-131 269l-131 -269h-188l207 390l-194 360h184l122 -268l122 268h184l-194 -360l207 -390h-188z" />
    <glyph glyph-name="Y" unicode="Y" horiz-adv-x="656" 
d="M647 750l-238 -459v-291h-162v291l-238 459h183l136 -313l136 313h183z" />
    <glyph glyph-name="Z" unicode="Z" horiz-adv-x="629" 
d="M599 0h-569v106l335 490l-305 -3v157h524v-106l-335 -490l350 3v-157z" />
    <glyph glyph-name="Aacute" unicode="&#xc1;" horiz-adv-x="640" 
d="M190 0h-170l208 754h184l208 -754h-170l-35 154h-190zM320 565l-64 -284h128zM385 790h-120l50 120h170z" />
    <glyph glyph-name="Agrave" unicode="&#xc0;" horiz-adv-x="640" 
d="M190 0h-170l208 754h184l208 -754h-170l-35 154h-190zM320 565l-64 -284h128zM375 790h-120l-100 120h170z" />
    <glyph glyph-name="Acircumflex" unicode="&#xc2;" horiz-adv-x="640" 
d="M190 0h-170l208 754h184l208 -754h-170l-35 154h-190zM255 790h-133l123 120h150l123 -120h-133l-65 45zM320 565l-64 -284h128z" />
    <glyph glyph-name="Adieresis" unicode="&#xc4;" horiz-adv-x="640" 
d="M190 0h-170l208 754h184l208 -754h-170l-35 154h-190zM345 860c0 53 41 95 95 95c53 0 95 -42 95 -95c0 -54 -42 -95 -95 -95c-54 0 -95 41 -95 95zM105 860c0 53 41 95 95 95c53 0 95 -42 95 -95c0 -54 -42 -95 -95 -95c-54 0 -95 41 -95 95zM320 565l-64 -284h128z" />
    <glyph glyph-name="Atilde" unicode="&#xc3;" horiz-adv-x="640" 
d="M190 0h-170l208 754h184l208 -754h-170l-35 154h-190zM192 790h-87c0 97 44 145 130 145c85 0 120 -61 169 -61c31 0 44 16 44 36h87c0 -97 -45 -145 -130 -145s-120 61 -169 61c-31 0 -44 -16 -44 -36zM320 565l-64 -284h128z" />
    <glyph glyph-name="Aring" unicode="&#xc5;" horiz-adv-x="640" 
d="M190 0h-170l208 754h184l208 -754h-170l-35 154h-190zM426 860c0 -72 -43 -95 -106 -95s-106 23 -106 95s43 95 106 95s106 -23 106 -95zM320 565l-64 -284h128zM298 860c0 -8 8 -11 22 -11s22 3 22 11s-8 11 -22 11s-22 -3 -22 -11z" />
    <glyph glyph-name="Acaron" unicode="&#x1cd;" horiz-adv-x="640" 
d="M190 0h-170l208 754h184l208 -754h-170l-35 154h-190zM385 910h133l-123 -120h-150l-123 120h133l65 -45zM320 565l-64 -284h128z" />
    <glyph glyph-name="Amacron" unicode="&#x100;" horiz-adv-x="640" 
d="M190 0h-170l208 754h184l208 -754h-170l-35 154h-190zM476 910v-120h-312v120h312zM320 565l-64 -284h128z" />
    <glyph glyph-name="Abreve" unicode="&#x102;" horiz-adv-x="640" 
d="M190 0h-170l208 754h184l208 -754h-170l-35 154h-190zM320 870c50 0 60 10 60 40h128c0 -94 -48 -136 -188 -136s-188 42 -188 136h128c0 -30 10 -40 60 -40zM320 565l-64 -284h128z" />
    <glyph glyph-name="Ainvertedbreve" unicode="&#x202;" horiz-adv-x="640" 
d="M190 0h-170l208 754h184l208 -754h-170l-35 154h-190zM320 830c-50 0 -60 -10 -60 -40h-128c0 94 48 136 188 136s188 -42 188 -136h-128c0 30 -10 40 -60 40zM320 565l-64 -284h128z" />
    <glyph glyph-name="Adoublegrave" unicode="&#xe000;" horiz-adv-x="640" 
d="M190 0h-170l208 754h184l208 -754h-170l-35 154h-190zM320 565l-64 -284h128zM486 790h-120l-100 120h170zM296 790h-120l-100 120h170z" />
    <glyph glyph-name="Adotabove" unicode="&#xe001;" horiz-adv-x="640" 
d="M190 0h-170l208 754h184l208 -754h-170l-35 154h-190zM225 860c0 53 41 95 95 95c53 0 95 -42 95 -95c0 -54 -42 -95 -95 -95c-54 0 -95 41 -95 95zM320 565l-64 -284h128z" />
    <glyph glyph-name="Aringacute" unicode="&#x1fa;" horiz-adv-x="640" 
d="M190 0h-170l208 754h184l208 -754h-170l-35 154h-190zM426 860c0 -72 -43 -95 -106 -95s-106 23 -106 95c0 14 1 27 5 37l38 133h170l-62 -80c37 -10 61 -37 61 -90zM320 565l-64 -284h128zM298 860c0 -8 8 -11 22 -11s22 3 22 11s-8 11 -22 11s-22 -3 -22 -11z" />
    <glyph glyph-name="Adieresismacron" unicode="&#x1de;" horiz-adv-x="640" 
d="M190 0h-170l208 754h184l208 -754h-170l-35 154h-190zM476 1090v-120h-312v120h312zM105 860c0 53 41 95 95 95c53 0 95 -42 95 -95c0 -54 -42 -95 -95 -95c-54 0 -95 41 -95 95zM345 860c0 53 41 95 95 95c53 0 95 -42 95 -95c0 -54 -42 -95 -95 -95
c-54 0 -95 41 -95 95zM320 565l-64 -284h128z" />
    <glyph glyph-name="Aogonek" unicode="&#x104;" horiz-adv-x="640" 
d="M190 0h-170l208 754h184l208 -754c-71 -15 -113 -65 -113 -102c0 -34 25 -51 59 -51c33 0 58 8 68 12v-90c-14 -7 -41 -19 -100 -19c-75 0 -147 37 -147 123c0 52 28 89 66 116l-38 165h-190zM320 565l-64 -284h128z" />
    <glyph glyph-name="Anocross" unicode="&#xe002;" horiz-adv-x="640" 
d="M320 565l-130 -565h-170l208 754h184l208 -754h-170z" />
    <glyph glyph-name="AE" unicode="&#xc6;" horiz-adv-x="987" 
d="M923 462v-150h-286l23 -162h292v-150h-452l-18 152h-223l-63 -152h-186l353 750h589v-150h-355l19 -138h307zM434 571l-116 -279h148z" />
    <glyph glyph-name="AEacute" unicode="&#x1fc;" horiz-adv-x="987" 
d="M923 462v-150h-286l23 -162h292v-150h-452l-18 152h-223l-63 -152h-186l353 750h589v-150h-355l19 -138h307zM434 571l-116 -279h148zM535 790h-120l50 120h170z" />
    <glyph glyph-name="AEmacron" unicode="&#x1e2;" horiz-adv-x="987" 
d="M923 462v-150h-286l23 -162h292v-150h-452l-18 152h-223l-63 -152h-186l353 750h589v-150h-355l19 -138h307zM434 571l-116 -279h148zM636 910v-120h-312v120h312z" />
    <glyph glyph-name="Cacute" unicode="&#x106;" horiz-adv-x="560" 
d="M385 790h-120l50 120h170zM41 375c1 282 105 389 324 389c87 0 126 -16 156 -28v-151c-45 18 -80 29 -140 29c-122 0 -178 -49 -178 -239s56 -239 178 -239c60 0 95 11 140 29v-151c-30 -12 -69 -28 -156 -28c-219 0 -323 107 -324 389z" />
    <glyph glyph-name="Ccircumflex" unicode="&#x108;" horiz-adv-x="560" 
d="M265 790h-133l123 120h150l123 -120h-133l-65 45zM41 375c1 282 105 389 324 389c87 0 126 -16 156 -28v-151c-45 18 -80 29 -140 29c-122 0 -178 -49 -178 -239s56 -239 178 -239c60 0 95 11 140 29v-151c-30 -12 -69 -28 -156 -28c-219 0 -323 107 -324 389z" />
    <glyph glyph-name="Ccaron" unicode="&#x10c;" horiz-adv-x="560" 
d="M395 910h133l-123 -120h-150l-123 120h133l65 -45zM41 375c1 282 105 389 324 389c87 0 126 -16 156 -28v-151c-45 18 -80 29 -140 29c-122 0 -178 -49 -178 -239s56 -239 178 -239c60 0 95 11 140 29v-151c-30 -12 -69 -28 -156 -28c-219 0 -323 107 -324 389z" />
    <glyph glyph-name="Cdotaccent" unicode="&#x10a;" horiz-adv-x="560" 
d="M235 860c0 53 41 95 95 95c53 0 95 -42 95 -95c0 -54 -42 -95 -95 -95c-54 0 -95 41 -95 95zM41 375c1 282 105 389 324 389c87 0 126 -16 156 -28v-151c-45 18 -80 29 -140 29c-122 0 -178 -49 -178 -239s56 -239 178 -239c60 0 95 11 140 29v-151
c-30 -12 -69 -28 -156 -28c-219 0 -323 107 -324 389z" />
    <glyph glyph-name="Ccedilla" unicode="&#xc7;" horiz-adv-x="560" 
d="M459 -145c0 -76 -58 -105 -128 -105c-43 0 -83 10 -100 19v91c18 -6 52 -15 87 -15c23 0 38 6 38 23c0 14 -9 29 -71 38l9 85c-171 22 -252 134 -253 384c1 282 105 389 324 389c87 0 126 -16 156 -28v-151c-45 18 -80 29 -140 29c-122 0 -178 -49 -178 -239
s56 -239 178 -239c60 0 95 11 140 29v-151c-30 -12 -69 -28 -155 -28l3 -43c61 -14 90 -41 90 -88z" />
    <glyph glyph-name="Dcaron" unicode="&#x10e;" horiz-adv-x="645" 
d="M360 910h133l-123 -120h-150l-123 120h133l65 -45zM289 0h-243v750h243c254 0 320 -162 320 -375s-66 -375 -320 -375zM206 604v-458h86c117 0 151 84 151 229c0 144 -34 229 -151 229h-86z" />
    <glyph glyph-name="Dcedilla" unicode="&#x1e10;" horiz-adv-x="645" 
d="M289 0h-243v750h243c254 0 320 -162 320 -375s-66 -375 -320 -375zM206 604v-458h86c117 0 151 84 151 229c0 144 -34 229 -151 229h-86zM250 -94l6 56c140 -10 168 -60 168 -107c0 -76 -58 -105 -128 -105c-43 0 -83 10 -100 19v91c18 -6 52 -15 87 -15c23 0 38 6 38 23
c0 14 -9 29 -71 38z" />
    <glyph glyph-name="Ddotbelow" unicode="&#x1e0c;" horiz-adv-x="645" 
d="M200 -150c0 53 41 95 95 95c53 0 95 -42 95 -95c0 -54 -42 -95 -95 -95c-54 0 -95 41 -95 95zM289 0h-243v750h243c254 0 320 -162 320 -375s-66 -375 -320 -375zM206 604v-458h86c117 0 151 84 151 229c0 144 -34 229 -151 229h-86z" />
    <glyph glyph-name="Dcroat" unicode="&#x110;" horiz-adv-x="708" 
d="M352 0h-243v317h-84v120h84v313h243c254 0 320 -162 320 -375s-66 -375 -320 -375zM269 604v-167h130v-120h-130v-171h86c117 0 151 84 151 229c0 144 -34 229 -151 229h-86z" />
    <glyph glyph-name="Eacute" unicode="&#xc9;" horiz-adv-x="560" 
d="M350 790h-120l50 120h170zM495 459v-143h-289v-170h318v-146h-478v750h478v-146h-318v-145h289z" />
    <glyph glyph-name="Egrave" unicode="&#xc8;" horiz-adv-x="560" 
d="M361 790h-120l-100 120h170zM495 459v-143h-289v-170h318v-146h-478v750h478v-146h-318v-145h289z" />
    <glyph glyph-name="Ecircumflex" unicode="&#xca;" horiz-adv-x="560" 
d="M230 790h-133l123 120h150l123 -120h-133l-65 45zM495 459v-143h-289v-170h318v-146h-478v750h478v-146h-318v-145h289z" />
    <glyph glyph-name="Edieresis" unicode="&#xcb;" horiz-adv-x="560" 
d="M80 860c0 53 41 95 95 95c53 0 95 -42 95 -95c0 -54 -42 -95 -95 -95c-54 0 -95 41 -95 95zM320 860c0 53 41 95 95 95c53 0 95 -42 95 -95c0 -54 -42 -95 -95 -95c-54 0 -95 41 -95 95zM495 459v-143h-289v-170h318v-146h-478v750h478v-146h-318v-145h289z" />
    <glyph glyph-name="Ecaron" unicode="&#x11a;" horiz-adv-x="560" 
d="M360 910h133l-123 -120h-150l-123 120h133l65 -45zM495 459v-143h-289v-170h318v-146h-478v750h478v-146h-318v-145h289z" />
    <glyph glyph-name="Emacron" unicode="&#x112;" horiz-adv-x="560" 
d="M451 910v-120h-312v120h312zM495 459v-143h-289v-170h318v-146h-478v750h478v-146h-318v-145h289z" />
    <glyph glyph-name="Ebreve" unicode="&#x114;" horiz-adv-x="560" 
d="M295 870c50 0 60 10 60 40h128c0 -94 -48 -136 -188 -136s-188 42 -188 136h128c0 -30 10 -40 60 -40zM495 459v-143h-289v-170h318v-146h-478v750h478v-146h-318v-145h289z" />
    <glyph glyph-name="Einvertedbreve" unicode="&#x206;" horiz-adv-x="560" 
d="M295 830c-50 0 -60 -10 -60 -40h-128c0 94 48 136 188 136s188 -42 188 -136h-128c0 30 -10 40 -60 40zM495 459v-143h-289v-170h318v-146h-478v750h478v-146h-318v-145h289z" />
    <glyph glyph-name="Edoublegrave" unicode="&#xe003;" horiz-adv-x="560" 
d="M461 790h-120l-100 120h170zM271 790h-120l-100 120h170zM495 459v-143h-289v-170h318v-146h-478v750h478v-146h-318v-145h289z" />
    <glyph glyph-name="Edotaccent" unicode="&#x116;" horiz-adv-x="560" 
d="M200 860c0 53 41 95 95 95c53 0 95 -42 95 -95c0 -54 -42 -95 -95 -95c-54 0 -95 41 -95 95zM495 459v-143h-289v-170h318v-146h-478v750h478v-146h-318v-145h289z" />
    <glyph glyph-name="Eacutedotbelow" unicode="&#xe004;" horiz-adv-x="560" 
d="M200 -150c0 53 41 95 95 95c53 0 95 -42 95 -95c0 -54 -42 -95 -95 -95c-54 0 -95 41 -95 95zM350 790h-120l50 120h170zM495 459v-143h-289v-170h318v-146h-478v750h478v-146h-318v-145h289z" />
    <glyph glyph-name="Egravedotbelow" unicode="&#xe005;" horiz-adv-x="560" 
d="M200 -150c0 53 41 95 95 95c53 0 95 -42 95 -95c0 -54 -42 -95 -95 -95c-54 0 -95 41 -95 95zM361 790h-120l-100 120h170zM495 459v-143h-289v-170h318v-146h-478v750h478v-146h-318v-145h289z" />
    <glyph glyph-name="Eogonek" unicode="&#x118;" horiz-adv-x="560" 
d="M495 459v-143h-289v-170h318v-143l1 -3c-71 -15 -113 -65 -113 -102c0 -34 25 -51 59 -51c33 0 58 8 68 12v-90c-14 -7 -41 -19 -100 -19c-75 0 -147 37 -147 123c0 60 37 100 84 127h-330v750h478v-146h-318v-145h289z" />
    <glyph glyph-name="Gacute" unicode="&#x1f4;" horiz-adv-x="640" 
d="M405 790h-120l50 120h170zM358 -14c-223 0 -317 128 -317 389s94 389 322 389c102 0 176 -15 221 -35v-156c-62 26 -129 41 -191 41c-143 0 -190 -64 -190 -239c0 -187 51 -239 190 -239c15 0 35 1 46 3v152h-106v143h266v-397c-45 -28 -133 -51 -241 -51z" />
    <glyph glyph-name="Gcircumflex" unicode="&#x11c;" horiz-adv-x="640" 
d="M285 790h-133l123 120h150l123 -120h-133l-65 45zM358 -14c-223 0 -317 128 -317 389s94 389 322 389c102 0 176 -15 221 -35v-156c-62 26 -129 41 -191 41c-143 0 -190 -64 -190 -239c0 -187 51 -239 190 -239c15 0 35 1 46 3v152h-106v143h266v-397
c-45 -28 -133 -51 -241 -51z" />
    <glyph glyph-name="Gtilde" unicode="&#xe006;" horiz-adv-x="640" 
d="M222 790h-87c0 97 44 145 130 145c85 0 120 -61 169 -61c31 0 44 16 44 36h87c0 -97 -45 -145 -130 -145s-120 61 -169 61c-31 0 -44 -16 -44 -36zM358 -14c-223 0 -317 128 -317 389s94 389 322 389c102 0 176 -15 221 -35v-156c-62 26 -129 41 -191 41
c-143 0 -190 -64 -190 -239c0 -187 51 -239 190 -239c15 0 35 1 46 3v152h-106v143h266v-397c-45 -28 -133 -51 -241 -51z" />
    <glyph glyph-name="Gcaron" unicode="&#x1e6;" horiz-adv-x="640" 
d="M415 910h133l-123 -120h-150l-123 120h133l65 -45zM358 -14c-223 0 -317 128 -317 389s94 389 322 389c102 0 176 -15 221 -35v-156c-62 26 -129 41 -191 41c-143 0 -190 -64 -190 -239c0 -187 51 -239 190 -239c15 0 35 1 46 3v152h-106v143h266v-397
c-45 -28 -133 -51 -241 -51z" />
    <glyph glyph-name="Gbreve" unicode="&#x11e;" horiz-adv-x="640" 
d="M350 870c50 0 60 10 60 40h128c0 -94 -48 -136 -188 -136s-188 42 -188 136h128c0 -30 10 -40 60 -40zM358 -14c-223 0 -317 128 -317 389s94 389 322 389c102 0 176 -15 221 -35v-156c-62 26 -129 41 -191 41c-143 0 -190 -64 -190 -239c0 -187 51 -239 190 -239
c15 0 35 1 46 3v152h-106v143h266v-397c-45 -28 -133 -51 -241 -51z" />
    <glyph glyph-name="Gdotaccent" unicode="&#x120;" horiz-adv-x="640" 
d="M255 860c0 53 41 95 95 95c53 0 95 -42 95 -95c0 -54 -42 -95 -95 -95c-54 0 -95 41 -95 95zM358 -14c-223 0 -317 128 -317 389s94 389 322 389c102 0 176 -15 221 -35v-156c-62 26 -129 41 -191 41c-143 0 -190 -64 -190 -239c0 -187 51 -239 190 -239c15 0 35 1 46 3
v152h-106v143h266v-397c-45 -28 -133 -51 -241 -51z" />
    <glyph glyph-name="Gcommaturnedabove" unicode="&#xe007;" horiz-adv-x="640" 
d="M355 910h120l-50 -120h-170zM358 -14c-223 0 -317 128 -317 389s94 389 322 389c102 0 176 -15 221 -35v-156c-62 26 -129 41 -191 41c-143 0 -190 -64 -190 -239c0 -187 51 -239 190 -239c15 0 35 1 46 3v152h-106v143h266v-397c-45 -28 -133 -51 -241 -51z" />
    <glyph glyph-name="Gcommaaccent" unicode="&#x122;" horiz-adv-x="640" 
d="M390 -250h-131l14 199h178zM358 -14c-223 0 -317 128 -317 389s94 389 322 389c102 0 176 -15 221 -35v-156c-62 26 -129 41 -191 41c-143 0 -190 -64 -190 -239c0 -187 51 -239 190 -239c15 0 35 1 46 3v152h-106v143h266v-397c-45 -28 -133 -51 -241 -51z" />
    <glyph glyph-name="Gstroke" unicode="&#x1e4;" horiz-adv-x="699" 
d="M358 -14c-223 0 -317 128 -317 389s94 389 322 389c102 0 176 -15 221 -35v-156c-62 26 -129 41 -191 41c-143 0 -190 -64 -190 -239c0 -187 51 -239 190 -239c15 0 35 1 46 3v16h-106v120h106v16h-106v143h266v-159h75v-120h-75v-118c-45 -28 -133 -51 -241 -51z" />
    <glyph glyph-name="Hcircumflex" unicode="&#x124;" horiz-adv-x="640" 
d="M255 790h-133l123 120h150l123 -120h-133l-65 45zM594 0h-160v314h-228v-314h-160v750h160v-290h228v290h160v-750z" />
    <glyph glyph-name="Hcaron" unicode="&#xe008;" horiz-adv-x="640" 
d="M385 910h133l-123 -120h-150l-123 120h133l65 -45zM594 0h-160v314h-228v-314h-160v750h160v-290h228v290h160v-750z" />
    <glyph glyph-name="Hdotbelow" unicode="&#x1e24;" horiz-adv-x="640" 
d="M225 -150c0 53 41 95 95 95c53 0 95 -42 95 -95c0 -54 -42 -95 -95 -95c-54 0 -95 41 -95 95zM594 0h-160v314h-228v-314h-160v750h160v-290h228v290h160v-750z" />
    <glyph glyph-name="Hmacronbelow" unicode="&#xe009;" horiz-adv-x="640" 
d="M476 -90v-120h-312v120h312zM594 0h-160v314h-228v-314h-160v750h160v-290h228v290h160v-750z" />
    <glyph glyph-name="Hbar" unicode="&#x126;" horiz-adv-x="640" 
d="M594 0h-160v314h-228v-314h-160v750h160v-85h228v85h160v-750zM206 460h228v85h-228v-85z" />
    <glyph glyph-name="Iacute" unicode="&#xcd;" horiz-adv-x="274" 
d="M195 790h-120l50 120h170zM217 0h-160v750h160v-750z" />
    <glyph glyph-name="Igrave" unicode="&#xcc;" horiz-adv-x="274" 
d="M200 790h-120l-100 120h170zM217 0h-160v750h160v-750z" />
    <glyph glyph-name="Icircumflex" unicode="&#xce;" horiz-adv-x="274" 
d="M72 790h-133l123 120h150l123 -120h-133l-65 45zM217 0h-160v750h160v-750z" />
    <glyph glyph-name="Idieresis" unicode="&#xcf;" horiz-adv-x="274" 
d="M-68 860c0 53 41 95 95 95c53 0 95 -42 95 -95c0 -54 -42 -95 -95 -95c-54 0 -95 41 -95 95zM152 860c0 53 41 95 95 95c53 0 95 -42 95 -95c0 -54 -42 -95 -95 -95c-54 0 -95 41 -95 95zM217 0h-160v750h160v-750z" />
    <glyph glyph-name="Itilde" unicode="&#x128;" horiz-adv-x="274" 
d="M9 790h-87c0 97 44 145 130 145c85 0 120 -61 169 -61c31 0 44 16 44 36h87c0 -97 -45 -145 -130 -145s-120 61 -169 61c-31 0 -44 -16 -44 -36zM217 0h-160v750h160v-750z" />
    <glyph glyph-name="Icaron" unicode="&#x1cf;" horiz-adv-x="274" 
d="M202 910h133l-123 -120h-150l-123 120h133l65 -45zM217 0h-160v750h160v-750z" />
    <glyph glyph-name="Imacron" unicode="&#x12a;" horiz-adv-x="274" 
d="M293 910v-120h-312v120h312zM217 0h-160v750h160v-750z" />
    <glyph glyph-name="Ibreve" unicode="&#x12c;" horiz-adv-x="274" 
d="M137 870c50 0 60 10 60 40h128c0 -94 -48 -136 -188 -136s-188 42 -188 136h128c0 -30 10 -40 60 -40zM217 0h-160v750h160v-750z" />
    <glyph glyph-name="Iinvertedbreve" unicode="&#x20a;" horiz-adv-x="274" 
d="M137 830c-50 0 -60 -10 -60 -40h-128c0 94 48 136 188 136s188 -42 188 -136h-128c0 30 -10 40 -60 40zM217 0h-160v750h160v-750z" />
    <glyph glyph-name="Idoublegrave" unicode="&#xe00b;" horiz-adv-x="274" 
d="M303 790h-120l-100 120h170zM113 790h-120l-100 120h170zM217 0h-160v750h160v-750z" />
    <glyph glyph-name="Idotaccent" unicode="&#x130;" horiz-adv-x="274" 
d="M42 860c0 53 41 95 95 95c53 0 95 -42 95 -95c0 -54 -42 -95 -95 -95c-54 0 -95 41 -95 95zM217 0h-160v750h160v-750z" />
    <glyph glyph-name="Idotbelow" unicode="&#x1eca;" horiz-adv-x="274" 
d="M42 -150c0 53 41 95 95 95c53 0 95 -42 95 -95c0 -54 -42 -95 -95 -95c-54 0 -95 41 -95 95zM217 0h-160v750h160v-750z" />
    <glyph glyph-name="Iogonek" unicode="&#x12e;" horiz-adv-x="274" 
d="M217 0c-58 -15 -98 -70 -98 -107c0 -29 25 -46 59 -46c33 0 58 8 68 12v-90c-14 -7 -41 -19 -100 -19c-75 0 -147 37 -147 123c0 50 24 86 58 113v764h160v-750z" />
    <glyph glyph-name="Jcircumflex" unicode="&#x134;" horiz-adv-x="369" 
d="M182 790h-133l123 120h150l123 -120h-133l-65 45zM8 4v153c16 -7 52 -17 86 -17c42 0 72 22 72 68v542h162v-578c0 -124 -68 -186 -221 -186c-23 0 -70 5 -99 18z" />
    <glyph glyph-name="Jcaron" unicode="&#xe00c;" horiz-adv-x="369" 
d="M312 910h133l-123 -120h-150l-123 120h133l65 -45zM8 4v153c16 -7 52 -17 86 -17c42 0 72 22 72 68v542h162v-578c0 -124 -68 -186 -221 -186c-23 0 -70 5 -99 18z" />
    <glyph glyph-name="Kcaron" unicode="&#x1e8;" horiz-adv-x="645" 
d="M375 910h133l-123 -120h-150l-123 120h133l65 -45zM439 0l-180 295l-55 -70v-225h-158v750h158v-320l223 320h193l-260 -328l278 -422h-199z" />
    <glyph glyph-name="Kcommaaccent" unicode="&#x136;" horiz-adv-x="645" 
d="M340 -250h-131l14 199h178zM439 0l-180 295l-55 -70v-225h-158v750h158v-320l223 320h193l-260 -328l278 -422h-199z" />
    <glyph glyph-name="Kcedilla" unicode="&#xe00d;" horiz-adv-x="645" 
d="M255 -94l6 56c140 -10 168 -60 168 -107c0 -76 -58 -105 -128 -105c-43 0 -83 10 -100 19v91c18 -6 52 -15 87 -15c23 0 38 6 38 23c0 14 -9 29 -71 38zM439 0l-180 295l-55 -70v-225h-158v750h158v-320l223 320h193l-260 -328l278 -422h-199z" />
    <glyph glyph-name="Khook" unicode="&#x198;" horiz-adv-x="645" 
d="M204 750v-305c35 16 54 53 87 122c45 96 111 193 313 193v-155c-136 0 -156 -80 -210 -185l-15 -27l259 -393h-199l-171 279c-20 -12 -42 -22 -64 -28v-251h-158v750h158z" />
    <glyph glyph-name="Lacute" unicode="&#x139;" horiz-adv-x="520" 
d="M206 750v-604h303v-146h-463v750h160zM184 790h-120l50 120h170z" />
    <glyph glyph-name="Lcaron" unicode="&#x13d;" horiz-adv-x="520" 
d="M206 750v-604h303v-146h-463v750h160zM302 750h98l-48 -200h-66z" />
    <glyph glyph-name="Lcommaaccent" unicode="&#x13b;" horiz-adv-x="520" 
d="M315 -250h-131l14 199h178zM206 750v-604h303v-146h-463v750h160z" />
    <glyph glyph-name="Lcedilla" unicode="&#xe00e;" horiz-adv-x="520" 
d="M206 750v-604h303v-146h-463v750h160zM230 -94l6 56c140 -10 168 -60 168 -107c0 -76 -58 -105 -128 -105c-43 0 -83 10 -100 19v91c18 -6 52 -15 87 -15c23 0 38 6 38 23c0 14 -9 29 -71 38z" />
    <glyph glyph-name="Ldotbelow" unicode="&#x1e36;" horiz-adv-x="520" 
d="M180 -150c0 53 41 95 95 95c53 0 95 -42 95 -95c0 -54 -42 -95 -95 -95c-54 0 -95 41 -95 95zM206 750v-604h303v-146h-463v750h160z" />
    <glyph glyph-name="Ldotbelowmacron" unicode="&#x1e38;" horiz-adv-x="520" 
d="M180 -150c0 53 41 95 95 95c53 0 95 -42 95 -95c0 -54 -42 -95 -95 -95c-54 0 -95 41 -95 95zM206 750v-604h303v-146h-463v750h160zM282 910v-120h-312v120h312z" />
    <glyph glyph-name="Ldot" unicode="&#x13f;" horiz-adv-x="520" 
d="M291 387c0 53 41 95 95 95c53 0 95 -42 95 -95c0 -54 -42 -95 -95 -95c-54 0 -95 41 -95 95zM206 750v-604h303v-146h-463v750h160z" />
    <glyph glyph-name="Lslash" unicode="&#x141;" horiz-adv-x="559" 
d="M245 750v-322l172 86v-102l-172 -86v-180h303v-146h-463v247l-85 -42v102l85 42v401h160z" />
    <glyph glyph-name="Mmacron" unicode="&#xe00f;" horiz-adv-x="792" 
d="M593 459l-116 -368h-162l-116 368l5 -459h-158v750h201l149 -467l149 467h201v-750h-158zM551 910v-120h-312v120h312z" />
    <glyph glyph-name="Mcedilla" unicode="&#xe010;" horiz-adv-x="792" 
d="M593 459l-116 -368h-162l-116 368l5 -459h-158v750h201l149 -467l149 467h201v-750h-158zM350 -94l6 56c140 -10 168 -60 168 -107c0 -76 -58 -105 -128 -105c-43 0 -83 10 -100 19v91c18 -6 52 -15 87 -15c23 0 38 6 38 23c0 14 -9 29 -71 38z" />
    <glyph glyph-name="Mdotbelow" unicode="&#x1e42;" horiz-adv-x="792" 
d="M593 459l-116 -368h-162l-116 368l5 -459h-158v750h201l149 -467l149 467h201v-750h-158zM300 -150c0 53 41 95 95 95c53 0 95 -42 95 -95c0 -54 -42 -95 -95 -95c-54 0 -95 41 -95 95z" />
    <glyph glyph-name="Nacute" unicode="&#x143;" horiz-adv-x="646" 
d="M378 790h-120l50 120h170zM600 0h-158l-242 448l4 -448h-158v750h158l242 -448l-4 448h158v-750z" />
    <glyph glyph-name="Ngrave" unicode="&#xe011;" horiz-adv-x="646" 
d="M389 790h-120l-100 120h170zM600 0h-158l-242 448l4 -448h-158v750h158l242 -448l-4 448h158v-750z" />
    <glyph glyph-name="Ndieresis" unicode="&#xe012;" horiz-adv-x="646" 
d="M108 860c0 53 41 95 95 95c53 0 95 -42 95 -95c0 -54 -42 -95 -95 -95c-54 0 -95 41 -95 95zM348 860c0 53 41 95 95 95c53 0 95 -42 95 -95c0 -54 -42 -95 -95 -95c-54 0 -95 41 -95 95zM600 0h-158l-242 448l4 -448h-158v750h158l242 -448l-4 448h158v-750z" />
    <glyph glyph-name="Ntilde" unicode="&#xd1;" horiz-adv-x="646" 
d="M195 790h-87c0 97 44 145 130 145c85 0 120 -61 169 -61c31 0 44 16 44 36h87c0 -97 -45 -145 -130 -145s-120 61 -169 61c-31 0 -44 -16 -44 -36zM600 0h-158l-242 448l4 -448h-158v750h158l242 -448l-4 448h158v-750z" />
    <glyph glyph-name="Ncaron" unicode="&#x147;" horiz-adv-x="646" 
d="M388 910h133l-123 -120h-150l-123 120h133l65 -45zM600 0h-158l-242 448l4 -448h-158v750h158l242 -448l-4 448h158v-750z" />
    <glyph glyph-name="Nmacron" unicode="&#xe013;" horiz-adv-x="646" 
d="M479 910v-120h-312v120h312zM600 0h-158l-242 448l4 -448h-158v750h158l242 -448l-4 448h158v-750z" />
    <glyph glyph-name="Ndotaccent" unicode="&#x1e44;" horiz-adv-x="646" 
d="M228 860c0 53 41 95 95 95c53 0 95 -42 95 -95c0 -54 -42 -95 -95 -95c-54 0 -95 41 -95 95zM600 0h-158l-242 448l4 -448h-158v750h158l242 -448l-4 448h158v-750z" />
    <glyph glyph-name="Ncommaaccent" unicode="&#x145;" horiz-adv-x="646" 
d="M363 -250h-131l14 199h178zM600 0h-158l-242 448l4 -448h-158v750h158l242 -448l-4 448h158v-750z" />
    <glyph glyph-name="Ncedilla" unicode="&#xe014;" horiz-adv-x="646" 
d="M600 0h-158l-242 448l4 -448h-158v750h158l242 -448l-4 448h158v-750zM278 -94l6 56c140 -10 168 -60 168 -107c0 -76 -58 -105 -128 -105c-43 0 -83 10 -100 19v91c18 -6 52 -15 87 -15c23 0 38 6 38 23c0 14 -9 29 -71 38z" />
    <glyph glyph-name="Ndotbelow" unicode="&#x1e46;" horiz-adv-x="646" 
d="M228 -150c0 53 41 95 95 95c53 0 95 -42 95 -95c0 -54 -42 -95 -95 -95c-54 0 -95 41 -95 95zM600 0h-158l-242 448l4 -448h-158v750h158l242 -448l-4 448h158v-750z" />
    <glyph glyph-name="Ndescender" unicode="&#xe015;" horiz-adv-x="696" 
d="M600 100h100v-225h-100v125h-158l-242 448l4 -448h-158v750h158l242 -448l-4 448h158v-650z" />
    <glyph glyph-name="Oacute" unicode="&#xd3;" horiz-adv-x="680" 
d="M395 790h-120l50 120h170zM340 -14c-236 0 -299 160 -299 389s63 389 299 389s299 -160 299 -389s-63 -389 -299 -389zM340 619c-99 0 -137 -69 -137 -244s38 -244 137 -244s137 69 137 244s-38 244 -137 244z" />
    <glyph glyph-name="Ograve" unicode="&#xd2;" horiz-adv-x="680" 
d="M406 790h-120l-100 120h170zM340 -14c-236 0 -299 160 -299 389s63 389 299 389s299 -160 299 -389s-63 -389 -299 -389zM340 619c-99 0 -137 -69 -137 -244s38 -244 137 -244s137 69 137 244s-38 244 -137 244z" />
    <glyph glyph-name="Ocircumflex" unicode="&#xd4;" horiz-adv-x="680" 
d="M275 790h-133l123 120h150l123 -120h-133l-65 45zM340 -14c-236 0 -299 160 -299 389s63 389 299 389s299 -160 299 -389s-63 -389 -299 -389zM340 619c-99 0 -137 -69 -137 -244s38 -244 137 -244s137 69 137 244s-38 244 -137 244z" />
    <glyph glyph-name="Odieresis" unicode="&#xd6;" horiz-adv-x="680" 
d="M125 860c0 53 41 95 95 95c53 0 95 -42 95 -95c0 -54 -42 -95 -95 -95c-54 0 -95 41 -95 95zM365 860c0 53 41 95 95 95c53 0 95 -42 95 -95c0 -54 -42 -95 -95 -95c-54 0 -95 41 -95 95zM340 -14c-236 0 -299 160 -299 389s63 389 299 389s299 -160 299 -389
s-63 -389 -299 -389zM340 619c-99 0 -137 -69 -137 -244s38 -244 137 -244s137 69 137 244s-38 244 -137 244z" />
    <glyph glyph-name="Otilde" unicode="&#xd5;" horiz-adv-x="680" 
d="M212 790h-87c0 97 44 145 130 145c85 0 120 -61 169 -61c31 0 44 16 44 36h87c0 -97 -45 -145 -130 -145s-120 61 -169 61c-31 0 -44 -16 -44 -36zM340 -14c-236 0 -299 160 -299 389s63 389 299 389s299 -160 299 -389s-63 -389 -299 -389zM340 619
c-99 0 -137 -69 -137 -244s38 -244 137 -244s137 69 137 244s-38 244 -137 244z" />
    <glyph glyph-name="Ocaron" unicode="&#x1d1;" horiz-adv-x="680" 
d="M405 910h133l-123 -120h-150l-123 120h133l65 -45zM340 -14c-236 0 -299 160 -299 389s63 389 299 389s299 -160 299 -389s-63 -389 -299 -389zM340 619c-99 0 -137 -69 -137 -244s38 -244 137 -244s137 69 137 244s-38 244 -137 244z" />
    <glyph glyph-name="Omacron" unicode="&#x14c;" horiz-adv-x="680" 
d="M496 910v-120h-312v120h312zM340 -14c-236 0 -299 160 -299 389s63 389 299 389s299 -160 299 -389s-63 -389 -299 -389zM340 619c-99 0 -137 -69 -137 -244s38 -244 137 -244s137 69 137 244s-38 244 -137 244z" />
    <glyph glyph-name="Obreve" unicode="&#x14e;" horiz-adv-x="680" 
d="M340 870c50 0 60 10 60 40h128c0 -94 -48 -136 -188 -136s-188 42 -188 136h128c0 -30 10 -40 60 -40zM340 -14c-236 0 -299 160 -299 389s63 389 299 389s299 -160 299 -389s-63 -389 -299 -389zM340 619c-99 0 -137 -69 -137 -244s38 -244 137 -244s137 69 137 244
s-38 244 -137 244z" />
    <glyph glyph-name="Oinvertedbreve" unicode="&#x20e;" horiz-adv-x="680" 
d="M340 830c-50 0 -60 -10 -60 -40h-128c0 94 48 136 188 136s188 -42 188 -136h-128c0 30 -10 40 -60 40zM340 -14c-236 0 -299 160 -299 389s63 389 299 389s299 -160 299 -389s-63 -389 -299 -389zM340 619c-99 0 -137 -69 -137 -244s38 -244 137 -244s137 69 137 244
s-38 244 -137 244z" />
    <glyph glyph-name="Ohungarumlaut" unicode="&#x150;" horiz-adv-x="680" 
d="M295 790h-120l50 120h170zM485 790h-120l50 120h170zM340 -14c-236 0 -299 160 -299 389s63 389 299 389s299 -160 299 -389s-63 -389 -299 -389zM340 619c-99 0 -137 -69 -137 -244s38 -244 137 -244s137 69 137 244s-38 244 -137 244z" />
    <glyph glyph-name="Odoublegrave" unicode="&#xe016;" horiz-adv-x="680" 
d="M506 790h-120l-100 120h170zM316 790h-120l-100 120h170zM340 -14c-236 0 -299 160 -299 389s63 389 299 389s299 -160 299 -389s-63 -389 -299 -389zM340 619c-99 0 -137 -69 -137 -244s38 -244 137 -244s137 69 137 244s-38 244 -137 244z" />
    <glyph glyph-name="Ocommaturnedabove" unicode="&#xe017;" horiz-adv-x="680" 
d="M395 790h-120l50 120h170zM340 -14c-236 0 -299 160 -299 389s63 389 299 389s299 -160 299 -389s-63 -389 -299 -389zM340 619c-99 0 -137 -69 -137 -244s38 -244 137 -244s137 69 137 244s-38 244 -137 244z" />
    <glyph glyph-name="Otildemacron" unicode="&#xe018;" horiz-adv-x="680" 
d="M212 807h-87c0 97 44 145 130 145c85 0 120 -61 169 -61c31 0 44 16 44 36h87c0 -97 -45 -145 -130 -145s-120 61 -169 61c-31 0 -44 -16 -44 -36zM496 1090v-120h-312v120h312zM340 -14c-236 0 -299 160 -299 389s63 389 299 389s299 -160 299 -389s-63 -389 -299 -389z
M340 619c-99 0 -137 -69 -137 -244s38 -244 137 -244s137 69 137 244s-38 244 -137 244z" />
    <glyph glyph-name="Odotabove" unicode="&#xe019;" horiz-adv-x="680" 
d="M245 867c0 53 41 95 95 95c53 0 95 -42 95 -95c0 -54 -42 -95 -95 -95c-54 0 -95 41 -95 95zM340 -14c-236 0 -299 160 -299 389s63 389 299 389s299 -160 299 -389s-63 -389 -299 -389zM340 619c-99 0 -137 -69 -137 -244s38 -244 137 -244s137 69 137 244
s-38 244 -137 244z" />
    <glyph glyph-name="Odotabovemacron" unicode="&#xe01a;" horiz-adv-x="680" 
d="M245 867c0 53 41 95 95 95c53 0 95 -42 95 -95c0 -54 -42 -95 -95 -95c-54 0 -95 41 -95 95zM496 1090v-120h-312v120h312zM340 -14c-236 0 -299 160 -299 389s63 389 299 389s299 -160 299 -389s-63 -389 -299 -389zM340 619c-99 0 -137 -69 -137 -244s38 -244 137 -244
s137 69 137 244s-38 244 -137 244z" />
    <glyph glyph-name="Ocedilla" unicode="&#xe01b;" horiz-adv-x="680" 
d="M340 -14c-236 0 -299 160 -299 389s63 389 299 389s299 -160 299 -389s-63 -389 -299 -389zM340 619c-99 0 -137 -69 -137 -244s38 -244 137 -244s137 69 137 244s-38 244 -137 244zM295 -94l6 56c140 -10 168 -60 168 -107c0 -76 -58 -105 -128 -105
c-43 0 -83 10 -100 19v91c18 -6 52 -15 87 -15c23 0 38 6 38 23c0 14 -9 29 -71 38z" />
    <glyph glyph-name="Odotbelow" unicode="&#x1ecc;" horiz-adv-x="680" 
d="M245 -150c0 53 41 95 95 95c53 0 95 -42 95 -95c0 -54 -42 -95 -95 -95c-54 0 -95 41 -95 95zM340 -14c-236 0 -299 160 -299 389s63 389 299 389s299 -160 299 -389s-63 -389 -299 -389zM340 619c-99 0 -137 -69 -137 -244s38 -244 137 -244s137 69 137 244
s-38 244 -137 244z" />
    <glyph glyph-name="Oogonek" unicode="&#x1ea;" horiz-adv-x="680" 
d="M230 -127c0 52 26 89 62 116c-197 20 -251 173 -251 386c0 229 63 389 299 389s299 -160 299 -389c0 -192 -45 -336 -198 -377c-54 -17 -91 -69 -91 -105c0 -29 25 -46 59 -46c33 0 58 8 68 12v-90c-14 -7 -41 -19 -100 -19c-75 0 -147 37 -147 123zM340 619
c-99 0 -137 -69 -137 -244s38 -244 137 -244s137 69 137 244s-38 244 -137 244z" />
    <glyph glyph-name="Oogonekmacron" unicode="&#x1ec;" horiz-adv-x="680" 
d="M230 -127c0 52 26 89 62 116c-197 20 -251 173 -251 386c0 229 63 389 299 389s299 -160 299 -389c0 -192 -45 -336 -198 -377c-54 -17 -91 -69 -91 -105c0 -29 25 -46 59 -46c33 0 58 8 68 12v-90c-14 -7 -41 -19 -100 -19c-75 0 -147 37 -147 123zM340 619
c-99 0 -137 -69 -137 -244s38 -244 137 -244s137 69 137 244s-38 244 -137 244zM496 910v-120h-312v120h312z" />
    <glyph glyph-name="Ounderlineaccent" unicode="&#xe01c;" horiz-adv-x="680" 
d="M290 -50h100v-200h-100v200zM340 -14c-236 0 -299 160 -299 389s63 389 299 389s299 -160 299 -389s-63 -389 -299 -389zM340 619c-99 0 -137 -69 -137 -244s38 -244 137 -244s137 69 137 244s-38 244 -137 244z" />
    <glyph glyph-name="Oslash" unicode="&#xd8;" horiz-adv-x="680" 
d="M340 -14c-66 0 -118 13 -159 35l-13 -21h-103l48 79c-54 69 -72 172 -72 296c0 229 63 389 299 389c69 0 124 -14 166 -40l16 26h103l-53 -87c50 -69 67 -169 67 -288c0 -229 -63 -389 -299 -389zM340 619c-99 0 -137 -69 -137 -244c0 -53 3 -96 11 -130l210 345
c-21 20 -48 29 -84 29zM477 375c0 46 -3 85 -9 118l-206 -339c20 -16 46 -23 78 -23c99 0 137 69 137 244z" />
    <glyph glyph-name="Oslashacute" unicode="&#x1fe;" horiz-adv-x="680" 
d="M340 -14c-66 0 -118 13 -159 35l-13 -21h-103l48 79c-54 69 -72 172 -72 296c0 229 63 389 299 389c69 0 124 -14 166 -40l16 26h103l-53 -87c50 -69 67 -169 67 -288c0 -229 -63 -389 -299 -389zM340 619c-99 0 -137 -69 -137 -244c0 -53 3 -96 11 -130l210 345
c-21 20 -48 29 -84 29zM477 375c0 46 -3 85 -9 118l-206 -339c20 -16 46 -23 78 -23c99 0 137 69 137 244zM395 790h-120l50 120h170z" />
    <glyph glyph-name="barredO" unicode="&#xe01d;" horiz-adv-x="680" 
d="M340 -14c-236 0 -299 160 -299 389s63 389 299 389s299 -160 299 -389s-63 -389 -299 -389zM340 131c89 0 129 56 136 196h-272c7 -140 46 -196 136 -196zM340 619c-84 0 -125 -50 -135 -172h269c-10 122 -50 172 -134 172z" />
    <glyph glyph-name="OE" unicode="&#x152;" horiz-adv-x="893" 
d="M828 459v-143h-259v-170h288v-146h-501c-254 0 -320 162 -320 375s66 375 320 375h501v-146h-288v-145h259zM409 146v458h-56c-117 0 -151 -84 -151 -229c0 -144 34 -229 151 -229h56z" />
    <glyph glyph-name="Pmacron" unicode="&#xe01e;" horiz-adv-x="580" 
d="M431 910v-120h-312v120h312zM206 260v-260h-160v750h254c200 0 269 -117 269 -245c0 -130 -69 -245 -269 -245h-94zM206 604v-200h95c80 0 95 61 95 100s-15 100 -95 100h-95z" />
    <glyph glyph-name="Racute" unicode="&#x154;" horiz-adv-x="620" 
d="M345 790h-120l50 120h170zM206 281v-281h-160v750h255c202 0 268 -92 268 -235c0 -93 -26 -164 -105 -202l133 -313h-187l-101 281h-103zM206 604v-178h109c71 0 80 48 80 89c0 42 -9 89 -80 89h-109z" />
    <glyph glyph-name="Rcaron" unicode="&#x158;" horiz-adv-x="620" 
d="M355 910h133l-123 -120h-150l-123 120h133l65 -45zM206 281v-281h-160v750h255c202 0 268 -92 268 -235c0 -93 -26 -164 -105 -202l133 -313h-187l-101 281h-103zM206 604v-178h109c71 0 80 48 80 89c0 42 -9 89 -80 89h-109z" />
    <glyph glyph-name="Rinvertedbreve" unicode="&#x212;" horiz-adv-x="620" 
d="M290 830c-50 0 -60 -10 -60 -40h-128c0 94 48 136 188 136s188 -42 188 -136h-128c0 30 -10 40 -60 40zM206 281v-281h-160v750h255c202 0 268 -92 268 -235c0 -93 -26 -164 -105 -202l133 -313h-187l-101 281h-103zM206 604v-178h109c71 0 80 48 80 89
c0 42 -9 89 -80 89h-109z" />
    <glyph glyph-name="Rdoublegrave" unicode="&#xe01f;" horiz-adv-x="620" 
d="M456 790h-120l-100 120h170zM266 790h-120l-100 120h170zM206 281v-281h-160v750h255c202 0 268 -92 268 -235c0 -93 -26 -164 -105 -202l133 -313h-187l-101 281h-103zM206 604v-178h109c71 0 80 48 80 89c0 42 -9 89 -80 89h-109z" />
    <glyph glyph-name="Rcommaaccent" unicode="&#x156;" horiz-adv-x="620" 
d="M350 -250h-131l14 199h178zM206 281v-281h-160v750h255c202 0 268 -92 268 -235c0 -93 -26 -164 -105 -202l133 -313h-187l-101 281h-103zM206 604v-178h109c71 0 80 48 80 89c0 42 -9 89 -80 89h-109z" />
    <glyph glyph-name="Rcedilla" unicode="&#xe020;" horiz-adv-x="620" 
d="M206 281v-281h-160v750h255c202 0 268 -92 268 -235c0 -93 -26 -164 -105 -202l133 -313h-187l-101 281h-103zM206 604v-178h109c71 0 80 48 80 89c0 42 -9 89 -80 89h-109zM265 -94l6 56c140 -10 168 -60 168 -107c0 -76 -58 -105 -128 -105c-43 0 -83 10 -100 19v91
c18 -6 52 -15 87 -15c23 0 38 6 38 23c0 14 -9 29 -71 38z" />
    <glyph glyph-name="Rdotbelow" unicode="&#x1e5a;" horiz-adv-x="620" 
d="M215 -150c0 53 41 95 95 95c53 0 95 -42 95 -95c0 -54 -42 -95 -95 -95c-54 0 -95 41 -95 95zM206 281v-281h-160v750h255c202 0 268 -92 268 -235c0 -93 -26 -164 -105 -202l133 -313h-187l-101 281h-103zM206 604v-178h109c71 0 80 48 80 89c0 42 -9 89 -80 89h-109z
" />
    <glyph glyph-name="Rdotbelowmacron" unicode="&#x1e5c;" horiz-adv-x="620" 
d="M446 910v-120h-312v120h312zM215 -150c0 53 41 95 95 95c53 0 95 -42 95 -95c0 -54 -42 -95 -95 -95c-54 0 -95 41 -95 95zM206 281v-281h-160v750h255c202 0 268 -92 268 -235c0 -93 -26 -164 -105 -202l133 -313h-187l-101 281h-103zM206 604v-178h109
c71 0 80 48 80 89c0 42 -9 89 -80 89h-109z" />
    <glyph glyph-name="Sacute" unicode="&#x15a;" horiz-adv-x="595" 
d="M355 790h-120l50 120h170zM307 456c166 -23 257 -57 257 -217c0 -186 -117 -253 -294 -253c-81 0 -180 14 -234 46v164c35 -20 119 -58 218 -58c113 0 146 35 146 86c0 57 -25 76 -101 86c-190 25 -263 81 -263 228c0 136 83 226 281 226c102 0 177 -18 212 -37v-155
c-41 20 -124 40 -200 40c-83 0 -129 -26 -129 -74c0 -54 29 -71 107 -82z" />
    <glyph glyph-name="Scircumflex" unicode="&#x15c;" horiz-adv-x="595" 
d="M235 790h-133l123 120h150l123 -120h-133l-65 45zM307 456c166 -23 257 -57 257 -217c0 -186 -117 -253 -294 -253c-81 0 -180 14 -234 46v164c35 -20 119 -58 218 -58c113 0 146 35 146 86c0 57 -25 76 -101 86c-190 25 -263 81 -263 228c0 136 83 226 281 226
c102 0 177 -18 212 -37v-155c-41 20 -124 40 -200 40c-83 0 -129 -26 -129 -74c0 -54 29 -71 107 -82z" />
    <glyph glyph-name="Scaron" unicode="&#x160;" horiz-adv-x="595" 
d="M365 910h133l-123 -120h-150l-123 120h133l65 -45zM307 456c166 -23 257 -57 257 -217c0 -186 -117 -253 -294 -253c-81 0 -180 14 -234 46v164c35 -20 119 -58 218 -58c113 0 146 35 146 86c0 57 -25 76 -101 86c-190 25 -263 81 -263 228c0 136 83 226 281 226
c102 0 177 -18 212 -37v-155c-41 20 -124 40 -200 40c-83 0 -129 -26 -129 -74c0 -54 29 -71 107 -82z" />
    <glyph glyph-name="Scommaaccent" unicode="&#x218;" horiz-adv-x="595" 
d="M330 -250h-131l14 199h178zM307 456c166 -23 257 -57 257 -217c0 -186 -117 -253 -294 -253c-81 0 -180 14 -234 46v164c35 -20 119 -58 218 -58c113 0 146 35 146 86c0 57 -25 76 -101 86c-190 25 -263 81 -263 228c0 136 83 226 281 226c102 0 177 -18 212 -37v-155
c-41 20 -124 40 -200 40c-83 0 -129 -26 -129 -74c0 -54 29 -71 107 -82z" />
    <glyph glyph-name="Scedilla" unicode="&#x15e;" horiz-adv-x="595" 
d="M245 -94l8 80c-77 2 -167 16 -217 46v164c35 -20 119 -58 218 -58c113 0 146 35 146 86c0 57 -25 76 -101 86c-190 25 -263 81 -263 228c0 136 83 226 281 226c102 0 177 -18 212 -37v-155c-41 20 -124 40 -200 40c-83 0 -129 -26 -129 -74c0 -54 29 -71 107 -82
c166 -23 257 -57 257 -217c0 -166 -93 -237 -238 -250l3 -46c61 -14 90 -41 90 -88c0 -76 -58 -105 -128 -105c-43 0 -83 10 -100 19v91c18 -6 52 -15 87 -15c23 0 38 6 38 23c0 14 -9 29 -71 38z" />
    <glyph glyph-name="Sdotbelow" unicode="&#x1e62;" horiz-adv-x="595" 
d="M195 -150c0 53 41 95 95 95c53 0 95 -42 95 -95c0 -54 -42 -95 -95 -95c-54 0 -95 41 -95 95zM307 456c166 -23 257 -57 257 -217c0 -186 -117 -253 -294 -253c-81 0 -180 14 -234 46v164c35 -20 119 -58 218 -58c113 0 146 35 146 86c0 57 -25 76 -101 86
c-190 25 -263 81 -263 228c0 136 83 226 281 226c102 0 177 -18 212 -37v-155c-41 20 -124 40 -200 40c-83 0 -129 -26 -129 -74c0 -54 29 -71 107 -82z" />
    <glyph glyph-name="Tcaron" unicode="&#x164;" horiz-adv-x="555" 
d="M341 910h133l-123 -120h-150l-123 120h133l65 -45zM537 604h-181v-604h-160v604h-181v146h522v-146z" />
    <glyph glyph-name="Tcommaaccent" unicode="&#x162;" horiz-adv-x="555" 
d="M303 -250h-131l14 199h178zM537 604h-181v-604h-160v604h-181v146h522v-146z" />
    <glyph glyph-name="Tcommaaccent" unicode="&#x21a;" horiz-adv-x="555" 
d="M303 -250h-131l14 199h178zM537 604h-181v-604h-160v604h-181v146h522v-146z" />
    <glyph glyph-name="Tcedilla" unicode="&#xe021;" horiz-adv-x="555" 
d="M537 604h-181v-604h-160v604h-181v146h522v-146zM222 -94l6 56c140 -10 168 -60 168 -107c0 -76 -58 -105 -128 -105c-43 0 -83 10 -100 19v91c18 -6 52 -15 87 -15c23 0 38 6 38 23c0 14 -9 29 -71 38z" />
    <glyph glyph-name="Tdotbelow" unicode="&#x1e6c;" horiz-adv-x="555" 
d="M181 -150c0 53 41 95 95 95c53 0 95 -42 95 -95c0 -54 -42 -95 -95 -95c-54 0 -95 41 -95 95zM537 604h-181v-604h-160v604h-181v146h522v-146z" />
    <glyph glyph-name="Tbar" unicode="&#x166;" horiz-adv-x="555" 
d="M537 604h-181v-157h101v-120h-101v-327h-160v327h-101v120h101v157h-181v146h522v-146z" />
    <glyph glyph-name="Uacute" unicode="&#xda;" horiz-adv-x="640" 
d="M374 790h-120l50 120h170zM320 -14c-114 0 -279 45 -279 251v513h160v-505c0 -97 63 -114 119 -114s119 17 119 114v505h160v-513c0 -206 -165 -251 -279 -251z" />
    <glyph glyph-name="Ugrave" unicode="&#xd9;" horiz-adv-x="640" 
d="M385 790h-120l-100 120h170zM320 -14c-114 0 -279 45 -279 251v513h160v-505c0 -97 63 -114 119 -114s119 17 119 114v505h160v-513c0 -206 -165 -251 -279 -251z" />
    <glyph glyph-name="Ucircumflex" unicode="&#xdb;" horiz-adv-x="640" 
d="M254 790h-133l123 120h150l123 -120h-133l-65 45zM320 -14c-114 0 -279 45 -279 251v513h160v-505c0 -97 63 -114 119 -114s119 17 119 114v505h160v-513c0 -206 -165 -251 -279 -251z" />
    <glyph glyph-name="Udieresis" unicode="&#xdc;" horiz-adv-x="640" 
d="M104 860c0 53 41 95 95 95c53 0 95 -42 95 -95c0 -54 -42 -95 -95 -95c-54 0 -95 41 -95 95zM344 860c0 53 41 95 95 95c53 0 95 -42 95 -95c0 -54 -42 -95 -95 -95c-54 0 -95 41 -95 95zM320 -14c-114 0 -279 45 -279 251v513h160v-505c0 -97 63 -114 119 -114
s119 17 119 114v505h160v-513c0 -206 -165 -251 -279 -251z" />
    <glyph glyph-name="Utilde" unicode="&#x168;" horiz-adv-x="640" 
d="M191 790h-87c0 97 44 145 130 145c85 0 120 -61 169 -61c31 0 44 16 44 36h87c0 -97 -45 -145 -130 -145s-120 61 -169 61c-31 0 -44 -16 -44 -36zM320 -14c-114 0 -279 45 -279 251v513h160v-505c0 -97 63 -114 119 -114s119 17 119 114v505h160v-513
c0 -206 -165 -251 -279 -251z" />
    <glyph glyph-name="Uring" unicode="&#x16e;" horiz-adv-x="640" 
d="M425 860c0 -72 -43 -95 -106 -95s-106 23 -106 95s43 95 106 95s106 -23 106 -95zM297 860c0 -8 8 -11 22 -11s22 3 22 11s-8 11 -22 11s-22 -3 -22 -11zM320 -14c-114 0 -279 45 -279 251v513h160v-505c0 -97 63 -114 119 -114s119 17 119 114v505h160v-513
c0 -206 -165 -251 -279 -251z" />
    <glyph glyph-name="Ucaron" unicode="&#x1d3;" horiz-adv-x="640" 
d="M384 910h133l-123 -120h-150l-123 120h133l65 -45zM320 -14c-114 0 -279 45 -279 251v513h160v-505c0 -97 63 -114 119 -114s119 17 119 114v505h160v-513c0 -206 -165 -251 -279 -251z" />
    <glyph glyph-name="Umacron" unicode="&#x16a;" horiz-adv-x="640" 
d="M475 910v-120h-312v120h312zM320 -14c-114 0 -279 45 -279 251v513h160v-505c0 -97 63 -114 119 -114s119 17 119 114v505h160v-513c0 -206 -165 -251 -279 -251z" />
    <glyph glyph-name="Ubreve" unicode="&#x16c;" horiz-adv-x="640" 
d="M319 870c50 0 60 10 60 40h128c0 -94 -48 -136 -188 -136s-188 42 -188 136h128c0 -30 10 -40 60 -40zM320 -14c-114 0 -279 45 -279 251v513h160v-505c0 -97 63 -114 119 -114s119 17 119 114v505h160v-513c0 -206 -165 -251 -279 -251z" />
    <glyph glyph-name="Uinvertedbreve" unicode="&#x216;" horiz-adv-x="640" 
d="M319 830c-50 0 -60 -10 -60 -40h-128c0 94 48 136 188 136s188 -42 188 -136h-128c0 30 -10 40 -60 40zM320 -14c-114 0 -279 45 -279 251v513h160v-505c0 -97 63 -114 119 -114s119 17 119 114v505h160v-513c0 -206 -165 -251 -279 -251z" />
    <glyph glyph-name="Uhungarumlaut" unicode="&#x170;" horiz-adv-x="640" 
d="M274 790h-120l50 120h170zM464 790h-120l50 120h170zM320 -14c-114 0 -279 45 -279 251v513h160v-505c0 -97 63 -114 119 -114s119 17 119 114v505h160v-513c0 -206 -165 -251 -279 -251z" />
    <glyph glyph-name="Udoublegrave" unicode="&#xe022;" horiz-adv-x="640" 
d="M485 790h-120l-100 120h170zM295 790h-120l-100 120h170zM320 -14c-114 0 -279 45 -279 251v513h160v-505c0 -97 63 -114 119 -114s119 17 119 114v505h160v-513c0 -206 -165 -251 -279 -251z" />
    <glyph glyph-name="Udotbelow" unicode="&#x1ee4;" horiz-adv-x="640" 
d="M224 -150c0 53 41 95 95 95c53 0 95 -42 95 -95c0 -54 -42 -95 -95 -95c-54 0 -95 41 -95 95zM320 -14c-114 0 -279 45 -279 251v513h160v-505c0 -97 63 -114 119 -114s119 17 119 114v505h160v-513c0 -206 -165 -251 -279 -251z" />
    <glyph glyph-name="Umacronbelow" unicode="&#xe023;" horiz-adv-x="640" 
d="M475 -90v-120h-312v120h312zM320 -14c-114 0 -279 45 -279 251v513h160v-505c0 -97 63 -114 119 -114s119 17 119 114v505h160v-513c0 -206 -165 -251 -279 -251z" />
    <glyph glyph-name="Uogonek" unicode="&#x172;" horiz-adv-x="640" 
d="M208 -127c0 52 26 89 62 116c-107 12 -229 70 -229 248v513h160v-505c0 -97 63 -114 119 -114s119 17 119 114v505h160v-513c0 -151 -89 -215 -181 -239c-54 -17 -90 -69 -90 -105c0 -29 25 -46 59 -46c33 0 58 8 68 12v-90c-14 -7 -41 -19 -100 -19
c-75 0 -147 37 -147 123z" />
    <glyph glyph-name="Wacute" unicode="&#x1e82;" horiz-adv-x="890" 
d="M503 790h-120l50 120h170zM340 750h210l83 -523l61 523h171l-116 -754h-208l-96 563l-96 -563h-208l-116 754h171l61 -523z" />
    <glyph glyph-name="Wgrave" unicode="&#x1e80;" horiz-adv-x="890" 
d="M508 790h-120l-100 120h170zM340 750h210l83 -523l61 523h171l-116 -754h-208l-96 563l-96 -563h-208l-116 754h171l61 -523z" />
    <glyph glyph-name="Wcircumflex" unicode="&#x174;" horiz-adv-x="890" 
d="M380 790h-133l123 120h150l123 -120h-133l-65 45zM340 750h210l83 -523l61 523h171l-116 -754h-208l-96 563l-96 -563h-208l-116 754h171l61 -523z" />
    <glyph glyph-name="Wdieresis" unicode="&#x1e84;" horiz-adv-x="890" 
d="M230 860c0 53 41 95 95 95c53 0 95 -42 95 -95c0 -54 -42 -95 -95 -95c-54 0 -95 41 -95 95zM470 860c0 53 41 95 95 95c53 0 95 -42 95 -95c0 -54 -42 -95 -95 -95c-54 0 -95 41 -95 95zM340 750h210l83 -523l61 523h171l-116 -754h-208l-96 563l-96 -563h-208l-116 754
h171l61 -523z" />
    <glyph glyph-name="Yacute" unicode="&#xdd;" horiz-adv-x="656" 
d="M383 790h-120l50 120h170zM647 750l-238 -459v-291h-162v291l-238 459h183l136 -313l136 313h183z" />
    <glyph glyph-name="Ygrave" unicode="&#x1ef2;" horiz-adv-x="656" 
d="M394 790h-120l-100 120h170zM647 750l-238 -459v-291h-162v291l-238 459h183l136 -313l136 313h183z" />
    <glyph glyph-name="Ycircumflex" unicode="&#x176;" horiz-adv-x="656" 
d="M263 790h-133l123 120h150l123 -120h-133l-65 45zM647 750l-238 -459v-291h-162v291l-238 459h183l136 -313l136 313h183z" />
    <glyph glyph-name="Ydieresis" unicode="&#x178;" horiz-adv-x="656" 
d="M113 860c0 53 41 95 95 95c53 0 95 -42 95 -95c0 -54 -42 -95 -95 -95c-54 0 -95 41 -95 95zM353 860c0 53 41 95 95 95c53 0 95 -42 95 -95c0 -54 -42 -95 -95 -95c-54 0 -95 41 -95 95zM647 750l-238 -459v-291h-162v291l-238 459h183l136 -313l136 313h183z" />
    <glyph glyph-name="Ytilde" unicode="&#x1ef8;" horiz-adv-x="656" 
d="M200 790h-87c0 97 44 145 130 145c85 0 120 -61 169 -61c31 0 44 16 44 36h87c0 -97 -45 -145 -130 -145s-120 61 -169 61c-31 0 -44 -16 -44 -36zM647 750l-238 -459v-291h-162v291l-238 459h183l136 -313l136 313h183z" />
    <glyph glyph-name="Ymacron" unicode="&#xe024;" horiz-adv-x="656" 
d="M484 910v-120h-312v120h312zM647 750l-238 -459v-291h-162v291l-238 459h183l136 -313l136 313h183z" />
    <glyph glyph-name="IJ" unicode="&#x132;" horiz-adv-x="629" 
d="M217 0h-160v750h160v-750zM268 4v153c16 -7 52 -17 86 -17c42 0 72 22 72 68v542h162v-578c0 -124 -68 -186 -221 -186c-23 0 -70 5 -99 18z" />
    <glyph glyph-name="Zacute" unicode="&#x179;" horiz-adv-x="630" 
d="M375 790h-120l50 120h170zM599 0h-569v106l335 490l-305 -3v157h524v-106l-335 -490l350 3v-157z" />
    <glyph glyph-name="Zcaron" unicode="&#x17d;" horiz-adv-x="630" 
d="M385 910h133l-123 -120h-150l-123 120h133l65 -45zM599 0h-569v106l335 490l-305 -3v157h524v-106l-335 -490l350 3v-157z" />
    <glyph glyph-name="Zdotaccent" unicode="&#x17b;" horiz-adv-x="630" 
d="M225 860c0 53 41 95 95 95c53 0 95 -42 95 -95c0 -54 -42 -95 -95 -95c-54 0 -95 41 -95 95zM599 0h-569v106l335 490l-305 -3v157h524v-106l-335 -490l350 3v-157z" />
    <glyph glyph-name="Eng" unicode="&#x14a;" horiz-adv-x="645" 
d="M335 -264v134c85 0 103 38 103 84v53l-238 441l4 -448h-158v750h158l242 -448l-4 448h158v-812c0 -144 -136 -202 -265 -202z" />
    <glyph glyph-name="Eth" unicode="&#xd0;" horiz-adv-x="708" 
d="M352 0h-243v317h-84v120h84v313h243c254 0 320 -162 320 -375s-66 -375 -320 -375zM269 604v-167h130v-120h-130v-171h86c117 0 151 84 151 229c0 144 -34 229 -151 229h-86z" />
    <glyph glyph-name="Thorn" unicode="&#xde;" horiz-adv-x="590" 
d="M206 130v-130h-160v750h160v-130h94c200 0 269 -117 269 -245c0 -130 -69 -245 -269 -245h-94zM206 474v-200h95c80 0 95 61 95 100s-15 100 -95 100h-95z" />
    <glyph glyph-name="Ezh" unicode="&#x1b7;" horiz-adv-x="645" 
d="M453 69c0 124 -52 180 -223 180l-90 -2v100l201 249l-311 -3v157h535v-109l-208 -247c157 -27 258 -130 258 -325c0 -231 -141 -333 -350 -333c-97 0 -186 18 -229 38v151c37 -15 113 -37 194 -37c171 0 223 57 223 181z" />
    <glyph glyph-name="Ezhcaron" unicode="&#x1ee;" horiz-adv-x="645" 
d="M453 69c0 124 -52 180 -223 180l-90 -2v100l201 249l-311 -3v157h535v-109l-208 -247c157 -27 258 -130 258 -325c0 -231 -141 -333 -350 -333c-97 0 -186 18 -229 38v151c37 -15 113 -37 194 -37c171 0 223 57 223 181zM360 910h133l-123 -120h-150l-123 120h133l65 -45
z" />
    <glyph glyph-name="Schwa" unicode="&#x18f;" horiz-adv-x="692" 
d="M652 375c0 -233 -99 -389 -322 -389c-249 0 -295 171 -295 367l2 107h447c-11 95 -61 154 -187 154c-97 0 -175 -25 -230 -48v148c80 38 176 50 256 50c228 0 329 -156 329 -389zM330 139c110 0 151 69 156 175h-288c0 -97 14 -175 132 -175z" />
    <glyph glyph-name="a" unicode="a" horiz-adv-x="498" 
d="M303 318v32c0 23 -16 35 -59 35c-63 0 -136 -19 -180 -38v134c34 15 109 33 180 33c180 0 214 -77 214 -189v-325h-96l-22 38c-36 -32 -87 -52 -147 -52c-127 0 -170 84 -170 159c0 135 99 155 189 164zM303 231l-67 -9c-45 -6 -63 -28 -63 -67c0 -37 24 -59 58 -59
c29 0 56 8 72 24v111z" />
    <glyph glyph-name="b" unicode="b" horiz-adv-x="549" 
d="M141 0h-96v750h160v-268c30 18 70 32 125 32c130 0 194 -80 194 -264s-64 -264 -194 -264c-80 0 -127 24 -162 54zM205 363v-226s31 -21 71 -21c74 0 90 48 90 134c0 85 -16 134 -90 134c-40 0 -71 -21 -71 -21z" />
    <glyph glyph-name="c" unicode="c" horiz-adv-x="440" 
d="M183 250c0 -95 45 -126 111 -126c44 0 78 9 111 23v-136c-33 -16 -72 -25 -127 -25c-185 0 -253 94 -253 264s68 264 253 264c55 0 94 -9 127 -25v-136c-33 14 -67 23 -111 23c-66 0 -111 -31 -111 -126z" />
    <glyph glyph-name="d" unicode="d" horiz-adv-x="549" 
d="M504 0h-96l-27 40c-35 -30 -82 -54 -162 -54c-130 0 -194 80 -194 264s64 264 194 264c55 0 95 -14 125 -32v268h160v-750zM344 137v226s-31 21 -71 21c-74 0 -90 -49 -90 -134c0 -86 16 -134 90 -134c40 0 71 21 71 21z" />
    <glyph glyph-name="e" unicode="e" horiz-adv-x="509" 
d="M475 197h-292c-4 -65 30 -84 108 -84c75 0 131 15 167 33v-125c-58 -24 -128 -35 -188 -35c-165 0 -245 84 -245 264s79 264 234 264c214 0 229 -160 216 -317zM261 394c-54 0 -78 -36 -78 -99h142c9 55 -3 99 -64 99z" />
    <glyph glyph-name="f" unicode="f" horiz-adv-x="390" 
d="M395 747v-134c-15 7 -38 18 -78 18c-35 0 -66 -15 -66 -62v-69h129v-133h-129v-367h-160v367h-81v106l81 22v93c0 118 65 176 210 176c22 0 67 -5 94 -17z" />
    <glyph glyph-name="g" unicode="g" horiz-adv-x="540" 
d="M25 322c0 126 70 192 225 192c46 0 81 -2 117 -14h163v-107l-60 -16c3 -17 5 -36 5 -55c0 -126 -70 -192 -225 -192c-18 0 -35 0 -51 2c-3 -4 -7 -10 -7 -19c0 -10 6 -16 20 -18l193 -25c105 -14 135 -66 135 -147c0 -135 -155 -187 -308 -187c-126 0 -237 39 -237 136
c0 68 53 110 104 121c-31 16 -46 47 -46 81c0 28 21 63 53 86c-55 32 -81 85 -81 162zM354 -56l-173 22c-21 -8 -38 -29 -38 -51c0 -36 27 -59 106 -59c76 0 133 26 133 59c0 16 -8 26 -28 29zM177 322c0 -49 24 -74 73 -74s73 25 73 74s-24 74 -73 74s-73 -25 -73 -74z" />
    <glyph glyph-name="h" unicode="h" horiz-adv-x="550" 
d="M45 750h160v-268c35 18 75 32 130 32c136 0 175 -72 175 -168v-346h-160v322c0 37 -13 62 -56 62c-39 0 -74 -16 -89 -26v-358h-160v750z" />
    <glyph glyph-name="i" unicode="i" horiz-adv-x="275" 
d="M250 125v-129s-21 -4 -46 -4c-86 0 -154 44 -154 141v367h159v-345c0 -19 9 -30 41 -30zM35 645c0 53 41 95 95 95c53 0 95 -42 95 -95c0 -54 -42 -95 -95 -95c-54 0 -95 41 -95 95z" />
    <glyph glyph-name="j" unicode="j" horiz-adv-x="270" 
d="M-43 -264v134c85 0 103 38 103 84v546h159v-562c0 -144 -133 -202 -262 -202zM45 645c0 53 41 95 95 95c53 0 95 -42 95 -95c0 -54 -42 -95 -95 -95c-54 0 -95 41 -95 95z" />
    <glyph glyph-name="k" unicode="k" horiz-adv-x="542" 
d="M200 750v-410l128 160h200l-194 -204l209 -296h-195l-116 189l-32 -34v-155h-155v750h155z" />
    <glyph glyph-name="l" unicode="l" horiz-adv-x="275" 
d="M250 125v-129s-21 -4 -46 -4c-86 0 -154 44 -154 141v617h159v-595c0 -19 9 -30 41 -30z" />
    <glyph glyph-name="m" unicode="m" horiz-adv-x="803" 
d="M763 0h-160v344c0 26 -14 40 -45 40c-34 0 -63 -16 -74 -26v-358h-160v344c0 26 -14 40 -45 40c-34 0 -63 -16 -74 -26v-358h-160v500h96l20 -36c36 31 105 50 157 50c67 0 100 -18 116 -41c36 27 102 41 162 41c130 0 167 -78 167 -168v-346z" />
    <glyph glyph-name="n" unicode="n" horiz-adv-x="550" 
d="M45 500h96l20 -36c56 34 119 50 174 50c136 0 175 -72 175 -168v-346h-160v322c0 37 -13 62 -56 62c-39 0 -74 -16 -89 -26v-358h-160v500z" />
    <glyph glyph-name="o" unicode="o" horiz-adv-x="520" 
d="M260 -14c-185 0 -235 108 -235 264s50 264 235 264s235 -108 235 -264s-50 -264 -235 -264zM260 386c-55 0 -75 -36 -75 -136s20 -136 75 -136s75 36 75 136s-20 136 -75 136z" />
    <glyph glyph-name="p" unicode="p" horiz-adv-x="549" 
d="M45 500h96l27 -40c35 30 82 54 162 54c130 0 194 -80 194 -264s-64 -264 -194 -264c-55 0 -95 14 -125 32v-268h-160v750zM205 362v-226s31 -21 71 -21c74 0 90 50 90 135c0 86 -16 133 -90 133c-40 0 -71 -21 -71 -21z" />
    <glyph glyph-name="q" unicode="q" horiz-adv-x="549" 
d="M408 500h96v-750h-160v268c-30 -18 -70 -32 -125 -32c-130 0 -194 80 -194 264s64 264 194 264c80 0 127 -24 162 -54zM344 137v226s-31 21 -71 21c-74 0 -90 -48 -90 -134c0 -85 16 -134 90 -134c40 0 71 21 71 21z" />
    <glyph glyph-name="r" unicode="r" horiz-adv-x="370" 
d="M360 507v-129c-8 2 -28 4 -49 4c-49 0 -93 -17 -106 -29v-353h-160v500h96l20 -36c25 24 79 50 154 50c20 0 38 -4 45 -7z" />
    <glyph glyph-name="s" unicode="s" horiz-adv-x="470" 
d="M419 488v-134c-46 19 -103 32 -161 32c-45 0 -70 -10 -70 -35c0 -26 17 -32 50 -35c158 -14 202 -56 202 -160c0 -96 -57 -170 -226 -170c-92 0 -145 17 -182 32v134c47 -20 115 -38 178 -38c51 0 74 10 74 35c0 26 -17 32 -50 35c-158 14 -202 56 -202 160
c0 102 66 170 220 170c91 0 134 -12 167 -26z" />
    <glyph glyph-name="t" unicode="t" horiz-adv-x="390" 
d="M361 121v-125c-22 -6 -60 -10 -82 -10c-140 0 -193 59 -193 177v204h-81v106l81 22v103l160 43v-141h124v-133h-124v-191c0 -39 15 -61 66 -61c21 0 41 4 49 6z" />
    <glyph glyph-name="u" unicode="u" horiz-adv-x="550" 
d="M505 0h-96l-20 36c-56 -34 -119 -50 -174 -50c-136 0 -175 72 -175 168v346h160v-322c0 -37 13 -62 56 -62c39 0 74 16 89 26v358h160v-500z" />
    <glyph glyph-name="v" unicode="v" horiz-adv-x="520" 
d="M329 -8h-138l-186 508h167l88 -310l88 310h167z" />
    <glyph glyph-name="w" unicode="w" horiz-adv-x="690" 
d="M411 500l67 -292l41 292h156l-120 -508h-143l-67 316l-67 -316h-143l-120 508h156l41 -292l67 292h132z" />
    <glyph glyph-name="x" unicode="x" horiz-adv-x="530" 
d="M343 0l-78 153l-78 -153h-177l149 257l-138 243h174l70 -143l70 143h174l-138 -243l149 -257h-177z" />
    <glyph glyph-name="y" unicode="y" horiz-adv-x="520" 
d="M5 500h173l82 -294l82 294h173l-286 -750h-175l130 283z" />
    <glyph glyph-name="z" unicode="z" horiz-adv-x="480" 
d="M455 0h-430v116l218 246l-196 -2v140h396v-116l-218 -246l230 2v-140z" />
    <glyph glyph-name="aacute" unicode="&#xe1;" horiz-adv-x="498" 
d="M305 550h-120l65 200h160zM303 318v32c0 23 -16 35 -59 35c-63 0 -136 -19 -180 -38v134c34 15 109 33 180 33c180 0 214 -77 214 -189v-325h-96l-22 38c-36 -32 -87 -52 -147 -52c-127 0 -170 84 -170 159c0 135 99 155 189 164zM303 231l-67 -9c-45 -6 -63 -28 -63 -67
c0 -37 24 -59 58 -59c29 0 56 8 72 24v111z" />
    <glyph glyph-name="agrave" unicode="&#xe0;" horiz-adv-x="498" 
d="M315 550h-120l-105 200h160zM303 318v32c0 23 -16 35 -59 35c-63 0 -136 -19 -180 -38v134c34 15 109 33 180 33c180 0 214 -77 214 -189v-325h-96l-22 38c-36 -32 -87 -52 -147 -52c-127 0 -170 84 -170 159c0 135 99 155 189 164zM303 231l-67 -9
c-45 -6 -63 -28 -63 -67c0 -37 24 -59 58 -59c29 0 56 8 72 24v111z" />
    <glyph glyph-name="acircumflex" unicode="&#xe2;" horiz-adv-x="498" 
d="M165 550h-123l133 200h150l133 -200h-123l-85 95zM303 318v32c0 23 -16 35 -59 35c-63 0 -136 -19 -180 -38v134c34 15 109 33 180 33c180 0 214 -77 214 -189v-325h-96l-22 38c-36 -32 -87 -52 -147 -52c-127 0 -170 84 -170 159c0 135 99 155 189 164zM303 231l-67 -9
c-45 -6 -63 -28 -63 -67c0 -37 24 -59 58 -59c29 0 56 8 72 24v111z" />
    <glyph glyph-name="adieresis" unicode="&#xe4;" horiz-adv-x="498" 
d="M35 645c0 53 41 95 95 95c53 0 95 -42 95 -95c0 -54 -42 -95 -95 -95c-54 0 -95 41 -95 95zM275 645c0 53 41 95 95 95c53 0 95 -42 95 -95c0 -54 -42 -95 -95 -95c-54 0 -95 41 -95 95zM303 318v32c0 23 -16 35 -59 35c-63 0 -136 -19 -180 -38v134c34 15 109 33 180 33
c180 0 214 -77 214 -189v-325h-96l-22 38c-36 -32 -87 -52 -147 -52c-127 0 -170 84 -170 159c0 135 99 155 189 164zM303 231l-67 -9c-45 -6 -63 -28 -63 -67c0 -37 24 -59 58 -59c29 0 56 8 72 24v111z" />
    <glyph glyph-name="atilde" unicode="&#xe3;" horiz-adv-x="498" 
d="M122 573h-87c0 117 44 167 130 167c95 0 115 -81 164 -81c41 0 49 28 49 58h87c0 -117 -45 -167 -130 -167c-95 0 -115 81 -164 81c-41 0 -49 -28 -49 -58zM303 318v32c0 23 -16 35 -59 35c-63 0 -136 -19 -180 -38v134c34 15 109 33 180 33c180 0 214 -77 214 -189v-325
h-96l-22 38c-36 -32 -87 -52 -147 -52c-127 0 -170 84 -170 159c0 135 99 155 189 164zM303 231l-67 -9c-45 -6 -63 -28 -63 -67c0 -37 24 -59 58 -59c29 0 56 8 72 24v111z" />
    <glyph glyph-name="aring" unicode="&#xe5;" horiz-adv-x="498" 
d="M356 650c0 -72 -43 -105 -106 -105s-106 33 -106 105s43 105 106 105s106 -33 106 -105zM228 650c0 -16 8 -21 22 -21s22 5 22 21s-8 21 -22 21s-22 -5 -22 -21zM303 318v32c0 23 -16 35 -59 35c-63 0 -136 -19 -180 -38v134c34 15 109 33 180 33c180 0 214 -77 214 -189
v-325h-96l-22 38c-36 -32 -87 -52 -147 -52c-127 0 -170 84 -170 159c0 135 99 155 189 164zM303 231l-67 -9c-45 -6 -63 -28 -63 -67c0 -37 24 -59 58 -59c29 0 56 8 72 24v111z" />
    <glyph glyph-name="acaron" unicode="&#x1ce;" horiz-adv-x="498" 
d="M335 750h123l-133 -200h-150l-133 200h123l85 -95zM303 318v32c0 23 -16 35 -59 35c-63 0 -136 -19 -180 -38v134c34 15 109 33 180 33c180 0 214 -77 214 -189v-325h-96l-22 38c-36 -32 -87 -52 -147 -52c-127 0 -170 84 -170 159c0 135 99 155 189 164zM303 231l-67 -9
c-45 -6 -63 -28 -63 -67c0 -37 24 -59 58 -59c29 0 56 8 72 24v111z" />
    <glyph glyph-name="amacron" unicode="&#x101;" horiz-adv-x="498" 
d="M406 705v-120h-312v120h312zM303 318v32c0 23 -16 35 -59 35c-63 0 -136 -19 -180 -38v134c34 15 109 33 180 33c180 0 214 -77 214 -189v-325h-96l-22 38c-36 -32 -87 -52 -147 -52c-127 0 -170 84 -170 159c0 135 99 155 189 164zM303 231l-67 -9
c-45 -6 -63 -28 -63 -67c0 -37 24 -59 58 -59c29 0 56 8 72 24v111z" />
    <glyph glyph-name="abreve" unicode="&#x103;" horiz-adv-x="498" 
d="M250 664c57 0 80 16 80 86h118c0 -154 -68 -200 -198 -200s-198 46 -198 200h118c0 -70 23 -86 80 -86zM303 318v32c0 23 -16 35 -59 35c-63 0 -136 -19 -180 -38v134c34 15 109 33 180 33c180 0 214 -77 214 -189v-325h-96l-22 38c-36 -32 -87 -52 -147 -52
c-127 0 -170 84 -170 159c0 135 99 155 189 164zM303 231l-67 -9c-45 -6 -63 -28 -63 -67c0 -37 24 -59 58 -59c29 0 56 8 72 24v111z" />
    <glyph glyph-name="ainvertedbreve" unicode="&#x203;" horiz-adv-x="498" 
d="M250 636c-57 0 -80 -16 -80 -86h-118c0 154 68 200 198 200s198 -46 198 -200h-118c0 70 -23 86 -80 86zM303 318v32c0 23 -16 35 -59 35c-63 0 -136 -19 -180 -38v134c34 15 109 33 180 33c180 0 214 -77 214 -189v-325h-96l-22 38c-36 -32 -87 -52 -147 -52
c-127 0 -170 84 -170 159c0 135 99 155 189 164zM303 231l-67 -9c-45 -6 -63 -28 -63 -67c0 -37 24 -59 58 -59c29 0 56 8 72 24v111z" />
    <glyph glyph-name="adoublegrave" unicode="&#xe025;" horiz-adv-x="498" 
d="M406 550h-120l-105 200h160zM226 550h-120l-105 200h160zM303 318v32c0 23 -16 35 -59 35c-63 0 -136 -19 -180 -38v134c34 15 109 33 180 33c180 0 214 -77 214 -189v-325h-96l-22 38c-36 -32 -87 -52 -147 -52c-127 0 -170 84 -170 159c0 135 99 155 189 164zM303 231
l-67 -9c-45 -6 -63 -28 -63 -67c0 -37 24 -59 58 -59c29 0 56 8 72 24v111z" />
    <glyph glyph-name="adotabove" unicode="&#xe026;" horiz-adv-x="498" 
d="M155 645c0 53 41 95 95 95c53 0 95 -42 95 -95c0 -54 -42 -95 -95 -95c-54 0 -95 41 -95 95zM303 318v32c0 23 -16 35 -59 35c-63 0 -136 -19 -180 -38v134c34 15 109 33 180 33c180 0 214 -77 214 -189v-325h-96l-22 38c-36 -32 -87 -52 -147 -52
c-127 0 -170 84 -170 159c0 135 99 155 189 164zM303 231l-67 -9c-45 -6 -63 -28 -63 -67c0 -37 24 -59 58 -59c29 0 56 8 72 24v111z" />
    <glyph glyph-name="aringacute" unicode="&#x1fb;" horiz-adv-x="498" 
d="M356 650c0 -72 -43 -105 -106 -105s-106 33 -106 105c0 13 1 24 4 35l39 140h170l-60 -78c36 -13 59 -45 59 -97zM228 650c0 -16 8 -21 22 -21s22 5 22 21s-8 21 -22 21s-22 -5 -22 -21zM303 318v32c0 23 -16 35 -59 35c-63 0 -136 -19 -180 -38v134c34 15 109 33 180 33
c180 0 214 -77 214 -189v-325h-96l-22 38c-36 -32 -87 -52 -147 -52c-127 0 -170 84 -170 159c0 135 99 155 189 164zM303 231l-67 -9c-45 -6 -63 -28 -63 -67c0 -37 24 -59 58 -59c29 0 56 8 72 24v111z" />
    <glyph glyph-name="adieresismacron" unicode="&#x1df;" horiz-adv-x="498" 
d="M35 625c0 53 41 95 95 95c53 0 95 -42 95 -95c0 -54 -42 -95 -95 -95c-54 0 -95 41 -95 95zM275 625c0 53 41 95 95 95c53 0 95 -42 95 -95c0 -54 -42 -95 -95 -95c-54 0 -95 41 -95 95zM406 855v-120h-312v120h312zM303 318v32c0 23 -16 35 -59 35
c-63 0 -136 -19 -180 -38v134c34 15 109 33 180 33c180 0 214 -77 214 -189v-325h-96l-22 38c-36 -32 -87 -52 -147 -52c-127 0 -170 84 -170 159c0 135 99 155 189 164zM303 231l-67 -9c-45 -6 -63 -28 -63 -67c0 -37 24 -59 58 -59c29 0 56 8 72 24v111z" />
    <glyph glyph-name="aogonek" unicode="&#x105;" horiz-adv-x="498" 
d="M303 318v32c0 23 -16 35 -59 35c-63 0 -136 -19 -180 -38v134c34 15 109 33 180 33c180 0 214 -77 214 -189v-325c-71 -15 -113 -65 -113 -102c0 -34 25 -51 59 -51c33 0 58 8 68 12v-90c-14 -7 -41 -19 -100 -19c-75 0 -147 37 -147 123c0 77 62 121 125 147l-10 18
c-36 -32 -87 -52 -147 -52c-127 0 -170 84 -170 159c0 135 99 155 189 164zM303 231l-67 -9c-45 -6 -63 -28 -63 -67c0 -37 24 -59 58 -59c29 0 56 8 72 24v111z" />
    <glyph glyph-name="ae" unicode="&#xe6;" horiz-adv-x="786" 
d="M318 129c-5 17 -12 52 -14 73h-69c-38 0 -62 -17 -62 -54c0 -25 19 -52 58 -52s66 14 87 33zM303 300v50c0 23 -16 35 -59 35c-63 0 -136 -19 -180 -38v134c34 15 109 33 180 33c68 0 116 -14 149 -37c36 25 84 37 143 37c214 0 229 -155 216 -312h-292
c-4 -65 30 -89 108 -89c75 0 131 15 167 33v-125c-58 -24 -128 -35 -188 -35c-77 0 -136 18 -176 56c-56 -45 -124 -56 -178 -56c-127 0 -170 84 -170 159c0 132 100 155 193 155h87zM538 394c-54 0 -78 -31 -78 -94h142c9 55 -3 94 -64 94z" />
    <glyph glyph-name="aeacute" unicode="&#x1fd;" horiz-adv-x="786" 
d="M450 550h-120l65 200h160zM318 129c-5 17 -12 52 -14 73h-69c-38 0 -62 -17 -62 -54c0 -25 19 -52 58 -52s66 14 87 33zM303 300v50c0 23 -16 35 -59 35c-63 0 -136 -19 -180 -38v134c34 15 109 33 180 33c68 0 116 -14 149 -37c36 25 84 37 143 37
c214 0 229 -155 216 -312h-292c-4 -65 30 -89 108 -89c75 0 131 15 167 33v-125c-58 -24 -128 -35 -188 -35c-77 0 -136 18 -176 56c-56 -45 -124 -56 -178 -56c-127 0 -170 84 -170 159c0 132 100 155 193 155h87zM538 394c-54 0 -78 -31 -78 -94h142c9 55 -3 94 -64 94z
" />
    <glyph glyph-name="aemacron" unicode="&#x1e3;" horiz-adv-x="786" 
d="M551 705v-120h-312v120h312zM318 129c-5 17 -12 52 -14 73h-69c-38 0 -62 -17 -62 -54c0 -25 19 -52 58 -52s66 14 87 33zM303 300v50c0 23 -16 35 -59 35c-63 0 -136 -19 -180 -38v134c34 15 109 33 180 33c68 0 116 -14 149 -37c36 25 84 37 143 37
c214 0 229 -155 216 -312h-292c-4 -65 30 -89 108 -89c75 0 131 15 167 33v-125c-58 -24 -128 -35 -188 -35c-77 0 -136 18 -176 56c-56 -45 -124 -56 -178 -56c-127 0 -170 84 -170 159c0 132 100 155 193 155h87zM538 394c-54 0 -78 -31 -78 -94h142c9 55 -3 94 -64 94z
" />
    <glyph glyph-name="cacute" unicode="&#x107;" horiz-adv-x="440" 
d="M183 250c0 -95 45 -126 111 -126c44 0 78 9 111 23v-136c-33 -16 -72 -25 -127 -25c-185 0 -253 94 -253 264s68 264 253 264c55 0 94 -9 127 -25v-136c-33 14 -67 23 -111 23c-66 0 -111 -31 -111 -126zM300 550h-120l65 200h160z" />
    <glyph glyph-name="ccircumflex" unicode="&#x109;" horiz-adv-x="440" 
d="M183 250c0 -95 45 -126 111 -126c44 0 78 9 111 23v-136c-33 -16 -72 -25 -127 -25c-185 0 -253 94 -253 264s68 264 253 264c55 0 94 -9 127 -25v-136c-33 14 -67 23 -111 23c-66 0 -111 -31 -111 -126zM160 550h-123l133 200h150l133 -200h-123l-85 95z" />
    <glyph glyph-name="ccaron" unicode="&#x10d;" horiz-adv-x="440" 
d="M183 250c0 -95 45 -126 111 -126c44 0 78 9 111 23v-136c-33 -16 -72 -25 -127 -25c-185 0 -253 94 -253 264s68 264 253 264c55 0 94 -9 127 -25v-136c-33 14 -67 23 -111 23c-66 0 -111 -31 -111 -126zM330 750h123l-133 -200h-150l-133 200h123l85 -95z" />
    <glyph glyph-name="cdotaccent" unicode="&#x10b;" horiz-adv-x="440" 
d="M150 645c0 53 41 95 95 95c53 0 95 -42 95 -95c0 -54 -42 -95 -95 -95c-54 0 -95 41 -95 95zM183 250c0 -95 45 -126 111 -126c44 0 78 9 111 23v-136c-33 -16 -72 -25 -127 -25c-185 0 -253 94 -253 264s68 264 253 264c55 0 94 -9 127 -25v-136c-33 14 -67 23 -111 23
c-66 0 -111 -31 -111 -126z" />
    <glyph glyph-name="ccedilla" unicode="&#xe7;" horiz-adv-x="440" 
d="M384 -145c0 -76 -58 -105 -128 -105c-43 0 -83 10 -100 19v91c18 -6 52 -15 87 -15c23 0 38 6 38 23c0 14 -9 29 -71 38l9 84c-141 19 -194 109 -194 260c0 170 68 264 253 264c55 0 94 -9 127 -25v-136c-33 14 -67 23 -111 23c-66 0 -111 -31 -111 -126
s45 -126 111 -126c44 0 78 9 111 23v-136c-31 -14 -66 -23 -114 -25l3 -43c61 -14 90 -41 90 -88z" />
    <glyph glyph-name="dcaron" unicode="&#x10f;" horiz-adv-x="549" 
d="M560 750h98l-48 -200h-66zM504 0h-96l-27 40c-35 -30 -82 -54 -162 -54c-130 0 -194 80 -194 264s64 264 194 264c55 0 95 -14 125 -32v268h160v-750zM344 137v226s-31 21 -71 21c-74 0 -90 -49 -90 -134c0 -86 16 -134 90 -134c40 0 71 21 71 21z" />
    <glyph glyph-name="dcedilla" unicode="&#x1e11;" horiz-adv-x="549" 
d="M504 0h-96l-27 40c-35 -30 -82 -54 -162 -54c-130 0 -194 80 -194 264s64 264 194 264c55 0 95 -14 125 -32v268h160v-750zM344 137v226s-31 21 -71 21c-74 0 -90 -49 -90 -134c0 -86 16 -134 90 -134c40 0 71 21 71 21zM225 -94l6 56c140 -10 168 -60 168 -107
c0 -76 -58 -105 -128 -105c-43 0 -83 10 -100 19v91c18 -6 52 -15 87 -15c23 0 38 6 38 23c0 14 -9 29 -71 38z" />
    <glyph glyph-name="ddotbelow" unicode="&#x1e0d;" horiz-adv-x="549" 
d="M175 -150c0 53 41 95 95 95c53 0 95 -42 95 -95c0 -54 -42 -95 -95 -95c-54 0 -95 41 -95 95zM504 0h-96l-27 40c-35 -30 -82 -54 -162 -54c-130 0 -194 80 -194 264s64 264 194 264c55 0 95 -14 125 -32v268h160v-750zM344 137v226s-31 21 -71 21
c-74 0 -90 -49 -90 -134c0 -86 16 -134 90 -134c40 0 71 21 71 21z" />
    <glyph glyph-name="dcroat" unicode="&#x111;" horiz-adv-x="549" 
d="M504 0h-96l-27 40c-35 -30 -82 -54 -162 -54c-130 0 -194 80 -194 264s64 264 194 264c55 0 95 -14 125 -32v68h-102v120h102v80h160v-80h80v-120h-80v-550zM344 137v226s-31 21 -71 21c-74 0 -90 -49 -90 -134c0 -86 16 -134 90 -134c40 0 71 21 71 21z" />
    <glyph glyph-name="eacute" unicode="&#xe9;" horiz-adv-x="509" 
d="M314 550h-120l65 200h160zM475 197h-292c-4 -65 30 -84 108 -84c75 0 131 15 167 33v-125c-58 -24 -128 -35 -188 -35c-165 0 -245 84 -245 264s79 264 234 264c214 0 229 -160 216 -317zM261 394c-54 0 -78 -36 -78 -99h142c9 55 -3 99 -64 99z" />
    <glyph glyph-name="egrave" unicode="&#xe8;" horiz-adv-x="509" 
d="M324 550h-120l-105 200h160zM475 197h-292c-4 -65 30 -84 108 -84c75 0 131 15 167 33v-125c-58 -24 -128 -35 -188 -35c-165 0 -245 84 -245 264s79 264 234 264c214 0 229 -160 216 -317zM261 394c-54 0 -78 -36 -78 -99h142c9 55 -3 99 -64 99z" />
    <glyph glyph-name="ecircumflex" unicode="&#xea;" horiz-adv-x="509" 
d="M174 550h-123l133 200h150l133 -200h-123l-85 95zM475 197h-292c-4 -65 30 -84 108 -84c75 0 131 15 167 33v-125c-58 -24 -128 -35 -188 -35c-165 0 -245 84 -245 264s79 264 234 264c214 0 229 -160 216 -317zM261 394c-54 0 -78 -36 -78 -99h142c9 55 -3 99 -64 99z
" />
    <glyph glyph-name="edieresis" unicode="&#xeb;" horiz-adv-x="509" 
d="M44 645c0 53 41 95 95 95c53 0 95 -42 95 -95c0 -54 -42 -95 -95 -95c-54 0 -95 41 -95 95zM284 645c0 53 41 95 95 95c53 0 95 -42 95 -95c0 -54 -42 -95 -95 -95c-54 0 -95 41 -95 95zM475 197h-292c-4 -65 30 -84 108 -84c75 0 131 15 167 33v-125
c-58 -24 -128 -35 -188 -35c-165 0 -245 84 -245 264s79 264 234 264c214 0 229 -160 216 -317zM261 394c-54 0 -78 -36 -78 -99h142c9 55 -3 99 -64 99z" />
    <glyph glyph-name="ecaron" unicode="&#x11b;" horiz-adv-x="509" 
d="M344 750h123l-133 -200h-150l-133 200h123l85 -95zM475 197h-292c-4 -65 30 -84 108 -84c75 0 131 15 167 33v-125c-58 -24 -128 -35 -188 -35c-165 0 -245 84 -245 264s79 264 234 264c214 0 229 -160 216 -317zM261 394c-54 0 -78 -36 -78 -99h142c9 55 -3 99 -64 99z
" />
    <glyph glyph-name="emacron" unicode="&#x113;" horiz-adv-x="509" 
d="M415 705v-120h-312v120h312zM475 197h-292c-4 -65 30 -84 108 -84c75 0 131 15 167 33v-125c-58 -24 -128 -35 -188 -35c-165 0 -245 84 -245 264s79 264 234 264c214 0 229 -160 216 -317zM261 394c-54 0 -78 -36 -78 -99h142c9 55 -3 99 -64 99z" />
    <glyph glyph-name="ebreve" unicode="&#x115;" horiz-adv-x="509" 
d="M259 664c57 0 80 16 80 86h118c0 -154 -68 -200 -198 -200s-198 46 -198 200h118c0 -70 23 -86 80 -86zM475 197h-292c-4 -65 30 -84 108 -84c75 0 131 15 167 33v-125c-58 -24 -128 -35 -188 -35c-165 0 -245 84 -245 264s79 264 234 264c214 0 229 -160 216 -317z
M261 394c-54 0 -78 -36 -78 -99h142c9 55 -3 99 -64 99z" />
    <glyph glyph-name="einvertedbreve" unicode="&#x207;" horiz-adv-x="509" 
d="M259 636c-57 0 -80 -16 -80 -86h-118c0 154 68 200 198 200s198 -46 198 -200h-118c0 70 -23 86 -80 86zM475 197h-292c-4 -65 30 -84 108 -84c75 0 131 15 167 33v-125c-58 -24 -128 -35 -188 -35c-165 0 -245 84 -245 264s79 264 234 264c214 0 229 -160 216 -317z
M261 394c-54 0 -78 -36 -78 -99h142c9 55 -3 99 -64 99z" />
    <glyph glyph-name="edoublegrave" unicode="&#xe027;" horiz-adv-x="509" 
d="M414 550h-120l-105 200h160zM234 550h-120l-105 200h160zM475 197h-292c-4 -65 30 -84 108 -84c75 0 131 15 167 33v-125c-58 -24 -128 -35 -188 -35c-165 0 -245 84 -245 264s79 264 234 264c214 0 229 -160 216 -317zM261 394c-54 0 -78 -36 -78 -99h142
c9 55 -3 99 -64 99z" />
    <glyph glyph-name="edotaccent" unicode="&#x117;" horiz-adv-x="509" 
d="M164 645c0 53 41 95 95 95c53 0 95 -42 95 -95c0 -54 -42 -95 -95 -95c-54 0 -95 41 -95 95zM475 197h-292c-4 -65 30 -84 108 -84c75 0 131 15 167 33v-125c-58 -24 -128 -35 -188 -35c-165 0 -245 84 -245 264s79 264 234 264c214 0 229 -160 216 -317zM261 394
c-54 0 -78 -36 -78 -99h142c9 55 -3 99 -64 99z" />
    <glyph glyph-name="eacutedotbelow" unicode="&#xe028;" horiz-adv-x="509" 
d="M164 -150c0 53 41 95 95 95c53 0 95 -42 95 -95c0 -54 -42 -95 -95 -95c-54 0 -95 41 -95 95zM314 550h-120l65 200h160zM475 197h-292c-4 -65 30 -84 108 -84c75 0 131 15 167 33v-125c-58 -24 -128 -35 -188 -35c-165 0 -245 84 -245 264s79 264 234 264
c214 0 229 -160 216 -317zM261 394c-54 0 -78 -36 -78 -99h142c9 55 -3 99 -64 99z" />
    <glyph glyph-name="egravedotbelow" unicode="&#xe029;" horiz-adv-x="509" 
d="M164 -150c0 53 41 95 95 95c53 0 95 -42 95 -95c0 -54 -42 -95 -95 -95c-54 0 -95 41 -95 95zM324 550h-120l-105 200h160zM475 197h-292c-4 -65 30 -84 108 -84c75 0 131 15 167 33v-125c-58 -24 -128 -35 -188 -35c-165 0 -245 84 -245 264s79 264 234 264
c214 0 229 -160 216 -317zM261 394c-54 0 -78 -36 -78 -99h142c9 55 -3 99 -64 99z" />
    <glyph glyph-name="eogonek" unicode="&#x119;" horiz-adv-x="509" 
d="M458 146v-125c-23 -10 -47 -17 -72 -22c-55 -16 -93 -70 -93 -106c0 -29 25 -46 59 -46c33 0 58 8 68 12v-90c-14 -7 -41 -19 -100 -19c-75 0 -147 37 -147 123c0 51 26 88 61 115c-141 12 -209 95 -209 262c0 180 79 264 234 264c214 0 229 -160 216 -317h-292
c-4 -65 30 -84 108 -84c75 0 131 15 167 33zM261 394c-54 0 -78 -36 -78 -99h142c9 55 -3 99 -64 99z" />
    <glyph glyph-name="gacute" unicode="&#x1f5;" horiz-adv-x="550" 
d="M25 322c0 126 70 192 225 192c46 0 81 -2 117 -14h163v-107l-60 -16c3 -17 5 -36 5 -55c0 -126 -70 -192 -225 -192c-18 0 -35 0 -51 2c-3 -4 -7 -10 -7 -19c0 -10 6 -16 20 -18l193 -25c105 -14 135 -66 135 -147c0 -135 -155 -187 -308 -187c-126 0 -237 39 -237 136
c0 68 53 110 104 121c-31 16 -46 47 -46 81c0 28 21 63 53 86c-55 32 -81 85 -81 162zM354 -56l-173 22c-21 -8 -38 -29 -38 -51c0 -36 27 -59 106 -59c76 0 133 26 133 59c0 16 -8 26 -28 29zM177 322c0 -49 24 -74 73 -74s73 25 73 74s-24 74 -73 74s-73 -25 -73 -74z
M310 550h-120l65 200h160z" />
    <glyph glyph-name="gcircumflex" unicode="&#x11d;" horiz-adv-x="550" 
d="M25 322c0 126 70 192 225 192c46 0 81 -2 117 -14h163v-107l-60 -16c3 -17 5 -36 5 -55c0 -126 -70 -192 -225 -192c-18 0 -35 0 -51 2c-3 -4 -7 -10 -7 -19c0 -10 6 -16 20 -18l193 -25c105 -14 135 -66 135 -147c0 -135 -155 -187 -308 -187c-126 0 -237 39 -237 136
c0 68 53 110 104 121c-31 16 -46 47 -46 81c0 28 21 63 53 86c-55 32 -81 85 -81 162zM354 -56l-173 22c-21 -8 -38 -29 -38 -51c0 -36 27 -59 106 -59c76 0 133 26 133 59c0 16 -8 26 -28 29zM177 322c0 -49 24 -74 73 -74s73 25 73 74s-24 74 -73 74s-73 -25 -73 -74z
M170 550h-123l133 200h150l133 -200h-123l-85 95z" />
    <glyph glyph-name="gtilde" unicode="&#xe02a;" horiz-adv-x="550" 
d="M127 573h-87c0 117 44 167 130 167c95 0 115 -81 164 -81c41 0 49 28 49 58h87c0 -117 -45 -167 -130 -167c-95 0 -115 81 -164 81c-41 0 -49 -28 -49 -58zM25 322c0 126 70 192 225 192c46 0 81 -2 117 -14h163v-107l-60 -16c3 -17 5 -36 5 -55
c0 -126 -70 -192 -225 -192c-18 0 -35 0 -51 2c-3 -4 -7 -10 -7 -19c0 -10 6 -16 20 -18l193 -25c105 -14 135 -66 135 -147c0 -135 -155 -187 -308 -187c-126 0 -237 39 -237 136c0 68 53 110 104 121c-31 16 -46 47 -46 81c0 28 21 63 53 86c-55 32 -81 85 -81 162z
M354 -56l-173 22c-21 -8 -38 -29 -38 -51c0 -36 27 -59 106 -59c76 0 133 26 133 59c0 16 -8 26 -28 29zM177 322c0 -49 24 -74 73 -74s73 25 73 74s-24 74 -73 74s-73 -25 -73 -74z" />
    <glyph glyph-name="gcaron" unicode="&#x1e7;" horiz-adv-x="550" 
d="M25 322c0 126 70 192 225 192c46 0 81 -2 117 -14h163v-107l-60 -16c3 -17 5 -36 5 -55c0 -126 -70 -192 -225 -192c-18 0 -35 0 -51 2c-3 -4 -7 -10 -7 -19c0 -10 6 -16 20 -18l193 -25c105 -14 135 -66 135 -147c0 -135 -155 -187 -308 -187c-126 0 -237 39 -237 136
c0 68 53 110 104 121c-31 16 -46 47 -46 81c0 28 21 63 53 86c-55 32 -81 85 -81 162zM354 -56l-173 22c-21 -8 -38 -29 -38 -51c0 -36 27 -59 106 -59c76 0 133 26 133 59c0 16 -8 26 -28 29zM177 322c0 -49 24 -74 73 -74s73 25 73 74s-24 74 -73 74s-73 -25 -73 -74z
M340 750h123l-133 -200h-150l-133 200h123l85 -95z" />
    <glyph glyph-name="gbreve" unicode="&#x11f;" horiz-adv-x="550" 
d="M25 322c0 126 70 192 225 192c46 0 81 -2 117 -14h163v-107l-60 -16c3 -17 5 -36 5 -55c0 -126 -70 -192 -225 -192c-18 0 -35 0 -51 2c-3 -4 -7 -10 -7 -19c0 -10 6 -16 20 -18l193 -25c105 -14 135 -66 135 -147c0 -135 -155 -187 -308 -187c-126 0 -237 39 -237 136
c0 68 53 110 104 121c-31 16 -46 47 -46 81c0 28 21 63 53 86c-55 32 -81 85 -81 162zM354 -56l-173 22c-21 -8 -38 -29 -38 -51c0 -36 27 -59 106 -59c76 0 133 26 133 59c0 16 -8 26 -28 29zM177 322c0 -49 24 -74 73 -74s73 25 73 74s-24 74 -73 74s-73 -25 -73 -74z
M255 664c57 0 80 16 80 86h118c0 -154 -68 -200 -198 -200s-198 46 -198 200h118c0 -70 23 -86 80 -86z" />
    <glyph glyph-name="gdotaccent" unicode="&#x121;" horiz-adv-x="550" 
d="M160 645c0 53 41 95 95 95c53 0 95 -42 95 -95c0 -54 -42 -95 -95 -95c-54 0 -95 41 -95 95zM25 322c0 126 70 192 225 192c46 0 81 -2 117 -14h163v-107l-60 -16c3 -17 5 -36 5 -55c0 -126 -70 -192 -225 -192c-18 0 -35 0 -51 2c-3 -4 -7 -10 -7 -19
c0 -10 6 -16 20 -18l193 -25c105 -14 135 -66 135 -147c0 -135 -155 -187 -308 -187c-126 0 -237 39 -237 136c0 68 53 110 104 121c-31 16 -46 47 -46 81c0 28 21 63 53 86c-55 32 -81 85 -81 162zM354 -56l-173 22c-21 -8 -38 -29 -38 -51c0 -36 27 -59 106 -59
c76 0 133 26 133 59c0 16 -8 26 -28 29zM177 322c0 -49 24 -74 73 -74s73 25 73 74s-24 74 -73 74s-73 -25 -73 -74z" />
    <glyph glyph-name="gcommaaccent" unicode="&#x123;" horiz-adv-x="550" 
d="M25 322c0 126 70 192 225 192c46 0 81 -2 117 -14h163v-107l-60 -16c3 -17 5 -36 5 -55c0 -126 -70 -192 -225 -192c-18 0 -35 0 -51 2c-3 -4 -7 -10 -7 -19c0 -10 6 -16 20 -18l193 -25c105 -14 135 -66 135 -147c0 -135 -155 -187 -308 -187c-126 0 -237 39 -237 136
c0 68 53 110 104 121c-31 16 -46 47 -46 81c0 28 21 63 53 86c-55 32 -81 85 -81 162zM354 -56l-173 22c-21 -8 -38 -29 -38 -51c0 -36 27 -59 106 -59c76 0 133 26 133 59c0 16 -8 26 -28 29zM177 322c0 -49 24 -74 73 -74s73 25 73 74s-24 74 -73 74s-73 -25 -73 -74z
M225 750h121l-24 -200h-158z" />
    <glyph glyph-name="gcommaturnedabove" unicode="&#xe02b;" horiz-adv-x="550" 
d="M25 322c0 126 70 192 225 192c46 0 81 -2 117 -14h163v-107l-60 -16c3 -17 5 -36 5 -55c0 -126 -70 -192 -225 -192c-18 0 -35 0 -51 2c-3 -4 -7 -10 -7 -19c0 -10 6 -16 20 -18l193 -25c105 -14 135 -66 135 -147c0 -135 -155 -187 -308 -187c-126 0 -237 39 -237 136
c0 68 53 110 104 121c-31 16 -46 47 -46 81c0 28 21 63 53 86c-55 32 -81 85 -81 162zM354 -56l-173 22c-21 -8 -38 -29 -38 -51c0 -36 27 -59 106 -59c76 0 133 26 133 59c0 16 -8 26 -28 29zM177 322c0 -49 24 -74 73 -74s73 25 73 74s-24 74 -73 74s-73 -25 -73 -74z
M225 750h121l-24 -200h-158z" />
    <glyph glyph-name="gstroke" unicode="&#x1e5;" horiz-adv-x="550" 
d="M25 322c0 126 70 192 225 192c46 0 81 -2 117 -14h163v-107l-60 -16c3 -17 5 -36 5 -55c0 -126 -70 -192 -225 -192c-18 0 -35 0 -51 2c-3 -4 -7 -10 -7 -19c0 -10 6 -16 20 -18l193 -25c81 -11 118 -45 130 -97h60v-90h-60c-28 -105 -166 -147 -303 -147
c-126 0 -237 39 -237 136c0 4 0 8 1 11h-51v90h106c15 10 31 17 48 20c-31 16 -46 47 -46 81c0 28 21 63 53 86c-55 32 -81 85 -81 162zM354 -56l-173 22c-21 -8 -38 -29 -38 -51c0 -36 27 -59 106 -59c76 0 133 26 133 59c0 16 -8 26 -28 29zM177 322c0 -49 24 -74 73 -74
s73 25 73 74s-24 74 -73 74s-73 -25 -73 -74z" />
    <glyph glyph-name="hcircumflex" unicode="&#x125;" horiz-adv-x="550" 
d="M50 790h-118l133 120h120l133 -120h-118l-75 45zM45 750h160v-268c35 18 75 32 130 32c136 0 175 -72 175 -168v-346h-160v322c0 37 -13 62 -56 62c-39 0 -74 -16 -89 -26v-358h-160v750z" />
    <glyph glyph-name="hcaron" unicode="&#xe02c;" horiz-adv-x="550" 
d="M200 910h118l-133 -120h-120l-133 120h118l75 -45zM45 750h160v-268c35 18 75 32 130 32c136 0 175 -72 175 -168v-346h-160v322c0 37 -13 62 -56 62c-39 0 -74 -16 -89 -26v-358h-160v750z" />
    <glyph glyph-name="hdotbelow" unicode="&#x1e25;" horiz-adv-x="550" 
d="M183 -150c0 53 41 95 95 95c53 0 95 -42 95 -95c0 -54 -42 -95 -95 -95c-54 0 -95 41 -95 95zM45 750h160v-268c35 18 75 32 130 32c136 0 175 -72 175 -168v-346h-160v322c0 37 -13 62 -56 62c-39 0 -74 -16 -89 -26v-358h-160v750z" />
    <glyph glyph-name="hmacronbelow" unicode="&#xe02d;" horiz-adv-x="550" 
d="M434 -90v-120h-312v120h312zM45 750h160v-268c35 18 75 32 130 32c136 0 175 -72 175 -168v-346h-160v322c0 37 -13 62 -56 62c-39 0 -74 -16 -89 -26v-358h-160v750z" />
    <glyph glyph-name="hbar" unicode="&#x127;" horiz-adv-x="550" 
d="M45 750h160v-80h102v-120h-102v-68c35 18 75 32 130 32c136 0 175 -72 175 -168v-346h-160v322c0 37 -13 62 -56 62c-39 0 -74 -16 -89 -26v-358h-160v550h-80v120h80v80z" />
    <glyph glyph-name="dotlessi" unicode="&#x131;" horiz-adv-x="275" 
d="M250 125v-129s-21 -4 -46 -4c-86 0 -154 44 -154 141v367h159v-345c0 -19 9 -30 41 -30z" />
    <glyph glyph-name="iacute" unicode="&#xed;" horiz-adv-x="275" 
d="M250 125v-129s-21 -4 -46 -4c-86 0 -154 44 -154 141v367h159v-345c0 -19 9 -30 41 -30zM191 550h-120l65 200h160z" />
    <glyph glyph-name="igrave" unicode="&#xec;" horiz-adv-x="275" 
d="M250 125v-129s-21 -4 -46 -4c-86 0 -154 44 -154 141v367h159v-345c0 -19 9 -30 41 -30zM190 550h-120l-105 200h160z" />
    <glyph glyph-name="icircumflex" unicode="&#xee;" horiz-adv-x="275" 
d="M250 125v-129s-21 -4 -46 -4c-86 0 -154 44 -154 141v367h159v-345c0 -19 9 -30 41 -30zM45 550h-123l133 200h150l133 -200h-123l-85 95z" />
    <glyph glyph-name="idieresis" unicode="&#xef;" horiz-adv-x="275" 
d="M-75 645c0 53 41 95 95 95c53 0 95 -42 95 -95c0 -54 -42 -95 -95 -95c-54 0 -95 41 -95 95zM145 645c0 53 41 95 95 95c53 0 95 -42 95 -95c0 -54 -42 -95 -95 -95c-54 0 -95 41 -95 95zM250 125v-129s-21 -4 -46 -4c-86 0 -154 44 -154 141v367h159v-345
c0 -19 9 -30 41 -30z" />
    <glyph glyph-name="itilde" unicode="&#x129;" horiz-adv-x="275" 
d="M2 573h-87c0 117 44 167 130 167c95 0 115 -81 164 -81c41 0 49 28 49 58h87c0 -117 -45 -167 -130 -167c-95 0 -115 81 -164 81c-41 0 -49 -28 -49 -58zM250 125v-129s-21 -4 -46 -4c-86 0 -154 44 -154 141v367h159v-345c0 -19 9 -30 41 -30z" />
    <glyph glyph-name="icaron" unicode="&#x1d0;" horiz-adv-x="275" 
d="M250 125v-129s-21 -4 -46 -4c-86 0 -154 44 -154 141v367h159v-345c0 -19 9 -30 41 -30zM215 750h123l-133 -200h-150l-133 200h123l85 -95z" />
    <glyph glyph-name="imacron" unicode="&#x12b;" horiz-adv-x="275" 
d="M286 705v-120h-312v120h312zM250 125v-129s-21 -4 -46 -4c-86 0 -154 44 -154 141v367h159v-345c0 -19 9 -30 41 -30z" />
    <glyph glyph-name="ibreve" unicode="&#xe02e;" horiz-adv-x="275" 
d="M250 125v-129s-21 -4 -46 -4c-86 0 -154 44 -154 141v367h159v-345c0 -19 9 -30 41 -30zM130 664c57 0 80 16 80 86h118c0 -154 -68 -200 -198 -200s-198 46 -198 200h118c0 -70 23 -86 80 -86z" />
    <glyph glyph-name="iinvertedbreve" unicode="&#x20b;" horiz-adv-x="275" 
d="M250 125v-129s-21 -4 -46 -4c-86 0 -154 44 -154 141v367h159v-345c0 -19 9 -30 41 -30zM130 636c-57 0 -80 -16 -80 -86h-118c0 154 68 200 198 200s198 -46 198 -200h-118c0 70 -23 86 -80 86z" />
    <glyph glyph-name="idoublegrave" unicode="&#xe02f;" horiz-adv-x="275" 
d="M250 125v-129s-21 -4 -46 -4c-86 0 -154 44 -154 141v367h159v-345c0 -19 9 -30 41 -30zM286 550h-120l-105 200h160zM106 550h-120l-105 200h160z" />
    <glyph glyph-name="idotaccent" unicode="&#xe030;" horiz-adv-x="275" 
d="M35 645c0 53 41 95 95 95c53 0 95 -42 95 -95c0 -54 -42 -95 -95 -95c-54 0 -95 41 -95 95zM250 125v-129s-21 -4 -46 -4c-86 0 -154 44 -154 141v367h159v-345c0 -19 9 -30 41 -30z" />
    <glyph glyph-name="idotbelow" unicode="&#x1ecb;" horiz-adv-x="275" 
d="M35 645c0 53 41 95 95 95c53 0 95 -42 95 -95c0 -54 -42 -95 -95 -95c-54 0 -95 41 -95 95zM50 -150c0 53 41 95 95 95c53 0 95 -42 95 -95c0 -54 -42 -95 -95 -95c-54 0 -95 41 -95 95zM250 125v-129s-21 -4 -46 -4c-86 0 -154 44 -154 141v367h159v-345
c0 -19 9 -30 41 -30z" />
    <glyph glyph-name="iogonek" unicode="&#x12f;" horiz-adv-x="275" 
d="M250 125v-129c-61 -11 -102 -61 -102 -98c0 -34 25 -51 59 -51c33 0 58 8 68 12v-90c-14 -7 -41 -19 -100 -19c-75 0 -147 37 -147 123c0 66 44 108 97 134c-45 21 -75 62 -75 126v367h159v-345c0 -19 9 -30 41 -30zM35 645c0 53 41 95 95 95c53 0 95 -42 95 -95
c0 -54 -42 -95 -95 -95c-54 0 -95 41 -95 95z" />
    <glyph glyph-name="dotlessj" unicode="&#x237;" horiz-adv-x="270" 
d="M-43 -264v134c85 0 103 38 103 84v546h159v-562c0 -144 -133 -202 -262 -202z" />
    <glyph glyph-name="jcircumflex" unicode="&#x135;" horiz-adv-x="270" 
d="M-43 -264v134c85 0 103 38 103 84v546h159v-562c0 -144 -133 -202 -262 -202zM55 550h-123l133 200h150l133 -200h-123l-85 95z" />
    <glyph glyph-name="jcaron" unicode="&#x1f0;" horiz-adv-x="270" 
d="M-43 -264v134c85 0 103 38 103 84v546h159v-562c0 -144 -133 -202 -262 -202zM225 750h123l-133 -200h-150l-133 200h123l85 -95z" />
    <glyph glyph-name="kcaron" unicode="&#x1e9;" horiz-adv-x="542" 
d="M200 750v-410l128 160h200l-194 -204l209 -296h-195l-116 189l-32 -34v-155h-155v750h155zM200 910h118l-133 -120h-120l-133 120h118l75 -45z" />
    <glyph glyph-name="kcommaaccent" unicode="&#x137;" horiz-adv-x="542" 
d="M200 750v-410l128 160h200l-194 -204l209 -296h-195l-116 189l-32 -34v-155h-155v750h155zM300 -250h-121l24 200h158z" />
    <glyph glyph-name="kcedilla" unicode="&#xe031;" horiz-adv-x="542" 
d="M200 750v-410l128 160h200l-194 -204l209 -296h-195l-116 189l-32 -34v-155h-155v750h155zM225 -94l6 56c140 -10 168 -60 168 -107c0 -76 -58 -105 -128 -105c-43 0 -83 10 -100 19v91c18 -6 52 -15 87 -15c23 0 38 6 38 23c0 14 -9 29 -71 38z" />
    <glyph glyph-name="khook" unicode="&#x199;" horiz-adv-x="542" 
d="M303 764v-134c-85 0 -103 -38 -103 -84v-206l128 160h200l-194 -204l209 -296h-195l-116 189l-32 -34v-155h-155v565c0 144 129 199 258 199z" />
    <glyph glyph-name="kgreenlandic" unicode="&#x138;" horiz-adv-x="542" 
d="M200 500v-160l128 160h200l-194 -204l209 -296h-195l-116 189l-32 -34v-155h-155v500h155z" />
    <glyph glyph-name="lacute" unicode="&#x13a;" horiz-adv-x="275" 
d="M182 790h-100l50 120h150zM250 125v-129s-21 -4 -46 -4c-86 0 -154 44 -154 141v617h159v-595c0 -19 9 -30 41 -30z" />
    <glyph glyph-name="lcaron" unicode="&#x13e;" horiz-adv-x="275" 
d="M265 750h98l-48 -200h-66zM250 125v-129s-21 -4 -46 -4c-86 0 -154 44 -154 141v617h159v-595c0 -19 9 -30 41 -30z" />
    <glyph glyph-name="lcommaaccent" unicode="&#x13c;" horiz-adv-x="275" 
d="M250 125v-129s-21 -4 -46 -4c-86 0 -154 44 -154 141v617h159v-595c0 -19 9 -30 41 -30zM175 -250h-121l24 200h158z" />
    <glyph glyph-name="lcedilla" unicode="&#xe032;" horiz-adv-x="275" 
d="M250 125v-129s-21 -4 -46 -4c-86 0 -154 44 -154 141v617h159v-595c0 -19 9 -30 41 -30zM100 -94l6 56c140 -10 168 -60 168 -107c0 -76 -58 -105 -128 -105c-43 0 -83 10 -100 19v91c18 -6 52 -15 87 -15c23 0 38 6 38 23c0 14 -9 29 -71 38z" />
    <glyph glyph-name="ldotbelow" unicode="&#x1e37;" horiz-adv-x="275" 
d="M50 -150c0 53 41 95 95 95c53 0 95 -42 95 -95c0 -54 -42 -95 -95 -95c-54 0 -95 41 -95 95zM250 125v-129s-21 -4 -46 -4c-86 0 -154 44 -154 141v617h159v-595c0 -19 9 -30 41 -30z" />
    <glyph glyph-name="ldotbelowmacron" unicode="&#x1e39;" horiz-adv-x="275" 
d="M281 910v-120h-312v120h312zM50 -150c0 53 41 95 95 95c53 0 95 -42 95 -95c0 -54 -42 -95 -95 -95c-54 0 -95 41 -95 95zM250 125v-129s-21 -4 -46 -4c-86 0 -154 44 -154 141v617h159v-595c0 -19 9 -30 41 -30z" />
    <glyph glyph-name="ldot" unicode="&#x140;" horiz-adv-x="409" 
d="M239 313c0 53 41 95 95 95c53 0 95 -42 95 -95c0 -54 -42 -95 -95 -95c-54 0 -95 41 -95 95zM250 125v-129s-21 -4 -46 -4c-86 0 -154 44 -154 141v617h159v-595c0 -19 9 -30 41 -30z" />
    <glyph glyph-name="lslash" unicode="&#x142;" horiz-adv-x="334" 
d="M329 412l-95 -54v-203c0 -19 9 -30 41 -30v-129s-21 -4 -46 -4c-86 0 -154 44 -154 141v135l-68 -38v102l68 38v380h159v-290l95 54v-102z" />
    <glyph glyph-name="mmacron" unicode="&#xe033;" horiz-adv-x="803" 
d="M560 705v-120h-312v120h312zM763 0h-160v344c0 26 -14 40 -45 40c-34 0 -63 -16 -74 -26v-358h-160v344c0 26 -14 40 -45 40c-34 0 -63 -16 -74 -26v-358h-160v500h96l20 -36c36 31 105 50 157 50c67 0 100 -18 116 -41c36 27 102 41 162 41c130 0 167 -78 167 -168v-346
z" />
    <glyph glyph-name="mcedilla" unicode="&#xe034;" horiz-adv-x="803" 
d="M763 0h-160v344c0 26 -14 40 -45 40c-34 0 -63 -16 -74 -26v-358h-160v344c0 26 -14 40 -45 40c-34 0 -63 -16 -74 -26v-358h-160v500h96l20 -36c36 31 105 50 157 50c67 0 100 -18 116 -41c36 27 102 41 162 41c130 0 167 -78 167 -168v-346zM359 -94l6 56
c140 -10 168 -60 168 -107c0 -76 -58 -105 -128 -105c-43 0 -83 10 -100 19v91c18 -6 52 -15 87 -15c23 0 38 6 38 23c0 14 -9 29 -71 38z" />
    <glyph glyph-name="mdotbelow" unicode="&#x1e43;" horiz-adv-x="803" 
d="M309 -150c0 53 41 95 95 95c53 0 95 -42 95 -95c0 -54 -42 -95 -95 -95c-54 0 -95 41 -95 95zM763 0h-160v344c0 26 -14 40 -45 40c-34 0 -63 -16 -74 -26v-358h-160v344c0 26 -14 40 -45 40c-34 0 -63 -16 -74 -26v-358h-160v500h96l20 -36c36 31 105 50 157 50
c67 0 100 -18 116 -41c36 27 102 41 162 41c130 0 167 -78 167 -168v-346z" />
    <glyph glyph-name="nacute" unicode="&#x144;" horiz-adv-x="550" 
d="M45 500h96l20 -36c56 34 119 50 174 50c136 0 175 -72 175 -168v-346h-160v322c0 37 -13 62 -56 62c-39 0 -74 -16 -89 -26v-358h-160v500zM343 550h-120l65 200h160z" />
    <glyph glyph-name="ngrave" unicode="&#xe035;" horiz-adv-x="550" 
d="M45 500h96l20 -36c56 34 119 50 174 50c136 0 175 -72 175 -168v-346h-160v322c0 37 -13 62 -56 62c-39 0 -74 -16 -89 -26v-358h-160v500zM353 550h-120l-105 200h160z" />
    <glyph glyph-name="ndieresis" unicode="&#xe036;" horiz-adv-x="550" 
d="M73 645c0 53 41 95 95 95c53 0 95 -42 95 -95c0 -54 -42 -95 -95 -95c-54 0 -95 41 -95 95zM313 645c0 53 41 95 95 95c53 0 95 -42 95 -95c0 -54 -42 -95 -95 -95c-54 0 -95 41 -95 95zM45 500h96l20 -36c56 34 119 50 174 50c136 0 175 -72 175 -168v-346h-160v322
c0 37 -13 62 -56 62c-39 0 -74 -16 -89 -26v-358h-160v500z" />
    <glyph glyph-name="ntilde" unicode="&#xf1;" horiz-adv-x="550" 
d="M160 573h-87c0 117 44 167 130 167c95 0 115 -81 164 -81c41 0 49 28 49 58h87c0 -117 -45 -167 -130 -167c-95 0 -115 81 -164 81c-41 0 -49 -28 -49 -58zM45 500h96l20 -36c56 34 119 50 174 50c136 0 175 -72 175 -168v-346h-160v322c0 37 -13 62 -56 62
c-39 0 -74 -16 -89 -26v-358h-160v500z" />
    <glyph glyph-name="ncaron" unicode="&#x148;" horiz-adv-x="550" 
d="M45 500h96l20 -36c56 34 119 50 174 50c136 0 175 -72 175 -168v-346h-160v322c0 37 -13 62 -56 62c-39 0 -74 -16 -89 -26v-358h-160v500zM373 750h123l-133 -200h-150l-133 200h123l85 -95z" />
    <glyph glyph-name="nmacron" unicode="&#xe037;" horiz-adv-x="550" 
d="M444 705v-120h-312v120h312zM45 500h96l20 -36c56 34 119 50 174 50c136 0 175 -72 175 -168v-346h-160v322c0 37 -13 62 -56 62c-39 0 -74 -16 -89 -26v-358h-160v500z" />
    <glyph glyph-name="ndotaccent" unicode="&#x1e45;" horiz-adv-x="550" 
d="M193 645c0 53 41 95 95 95c53 0 95 -42 95 -95c0 -54 -42 -95 -95 -95c-54 0 -95 41 -95 95zM45 500h96l20 -36c56 34 119 50 174 50c136 0 175 -72 175 -168v-346h-160v322c0 37 -13 62 -56 62c-39 0 -74 -16 -89 -26v-358h-160v500z" />
    <glyph glyph-name="ncommaaccent" unicode="&#x146;" horiz-adv-x="550" 
d="M45 500h96l20 -36c56 34 119 50 174 50c136 0 175 -72 175 -168v-346h-160v322c0 37 -13 62 -56 62c-39 0 -74 -16 -89 -26v-358h-160v500zM298 -250h-121l24 200h158z" />
    <glyph glyph-name="ncedilla" unicode="&#xe038;" horiz-adv-x="550" 
d="M45 500h96l20 -36c56 34 119 50 174 50c136 0 175 -72 175 -168v-346h-160v322c0 37 -13 62 -56 62c-39 0 -74 -16 -89 -26v-358h-160v500zM223 -94l6 56c140 -10 168 -60 168 -107c0 -76 -58 -105 -128 -105c-43 0 -83 10 -100 19v91c18 -6 52 -15 87 -15
c23 0 38 6 38 23c0 14 -9 29 -71 38z" />
    <glyph glyph-name="ndotbelow" unicode="&#x1e47;" horiz-adv-x="550" 
d="M183 -150c0 53 41 95 95 95c53 0 95 -42 95 -95c0 -54 -42 -95 -95 -95c-54 0 -95 41 -95 95zM45 500h96l20 -36c56 34 119 50 174 50c136 0 175 -72 175 -168v-346h-160v322c0 37 -13 62 -56 62c-39 0 -74 -16 -89 -26v-358h-160v500z" />
    <glyph glyph-name="ndescender" unicode="&#xe039;" horiz-adv-x="600" 
d="M45 500h96l20 -36c56 34 119 50 174 50c136 0 175 -72 175 -168v-246h100v-225h-100v125h-160v322c0 37 -13 62 -56 62c-39 0 -74 -16 -89 -26v-358h-160v500z" />
    <glyph glyph-name="oacute" unicode="&#xf3;" horiz-adv-x="520" 
d="M260 -14c-185 0 -235 108 -235 264s50 264 235 264s235 -108 235 -264s-50 -264 -235 -264zM260 386c-55 0 -75 -36 -75 -136s20 -136 75 -136s75 36 75 136s-20 136 -75 136zM315 550h-120l65 200h160z" />
    <glyph glyph-name="ograve" unicode="&#xf2;" horiz-adv-x="520" 
d="M260 -14c-185 0 -235 108 -235 264s50 264 235 264s235 -108 235 -264s-50 -264 -235 -264zM260 386c-55 0 -75 -36 -75 -136s20 -136 75 -136s75 36 75 136s-20 136 -75 136zM325 550h-120l-105 200h160z" />
    <glyph glyph-name="ocircumflex" unicode="&#xf4;" horiz-adv-x="520" 
d="M260 -14c-185 0 -235 108 -235 264s50 264 235 264s235 -108 235 -264s-50 -264 -235 -264zM260 386c-55 0 -75 -36 -75 -136s20 -136 75 -136s75 36 75 136s-20 136 -75 136zM175 550h-123l133 200h150l133 -200h-123l-85 95z" />
    <glyph glyph-name="odieresis" unicode="&#xf6;" horiz-adv-x="520" 
d="M45 645c0 53 41 95 95 95c53 0 95 -42 95 -95c0 -54 -42 -95 -95 -95c-54 0 -95 41 -95 95zM285 645c0 53 41 95 95 95c53 0 95 -42 95 -95c0 -54 -42 -95 -95 -95c-54 0 -95 41 -95 95zM260 -14c-185 0 -235 108 -235 264s50 264 235 264s235 -108 235 -264
s-50 -264 -235 -264zM260 386c-55 0 -75 -36 -75 -136s20 -136 75 -136s75 36 75 136s-20 136 -75 136z" />
    <glyph glyph-name="otilde" unicode="&#xf5;" horiz-adv-x="520" 
d="M132 573h-87c0 117 44 167 130 167c95 0 115 -81 164 -81c41 0 49 28 49 58h87c0 -117 -45 -167 -130 -167c-95 0 -115 81 -164 81c-41 0 -49 -28 -49 -58zM260 -14c-185 0 -235 108 -235 264s50 264 235 264s235 -108 235 -264s-50 -264 -235 -264zM260 386
c-55 0 -75 -36 -75 -136s20 -136 75 -136s75 36 75 136s-20 136 -75 136z" />
    <glyph glyph-name="ocaron" unicode="&#x1d2;" horiz-adv-x="520" 
d="M260 -14c-185 0 -235 108 -235 264s50 264 235 264s235 -108 235 -264s-50 -264 -235 -264zM260 386c-55 0 -75 -36 -75 -136s20 -136 75 -136s75 36 75 136s-20 136 -75 136zM345 750h123l-133 -200h-150l-133 200h123l85 -95z" />
    <glyph glyph-name="omacron" unicode="&#x14d;" horiz-adv-x="520" 
d="M416 705v-120h-312v120h312zM260 -14c-185 0 -235 108 -235 264s50 264 235 264s235 -108 235 -264s-50 -264 -235 -264zM260 386c-55 0 -75 -36 -75 -136s20 -136 75 -136s75 36 75 136s-20 136 -75 136z" />
    <glyph glyph-name="obreve" unicode="&#x14f;" horiz-adv-x="520" 
d="M260 -14c-185 0 -235 108 -235 264s50 264 235 264s235 -108 235 -264s-50 -264 -235 -264zM260 386c-55 0 -75 -36 -75 -136s20 -136 75 -136s75 36 75 136s-20 136 -75 136zM260 664c57 0 80 16 80 86h118c0 -154 -68 -200 -198 -200s-198 46 -198 200h118
c0 -70 23 -86 80 -86z" />
    <glyph glyph-name="oinvertedbreve" unicode="&#x20f;" horiz-adv-x="520" 
d="M260 -14c-185 0 -235 108 -235 264s50 264 235 264s235 -108 235 -264s-50 -264 -235 -264zM260 386c-55 0 -75 -36 -75 -136s20 -136 75 -136s75 36 75 136s-20 136 -75 136zM260 636c-57 0 -80 -16 -80 -86h-118c0 154 68 200 198 200s198 -46 198 -200h-118
c0 70 -23 86 -80 86z" />
    <glyph glyph-name="ohungarumlaut" unicode="&#x151;" horiz-adv-x="520" 
d="M260 -14c-185 0 -235 108 -235 264s50 264 235 264s235 -108 235 -264s-50 -264 -235 -264zM260 386c-55 0 -75 -36 -75 -136s20 -136 75 -136s75 36 75 136s-20 136 -75 136zM225 550h-120l65 200h160zM405 550h-120l65 200h160z" />
    <glyph glyph-name="odoublegrave" unicode="&#xe03a;" horiz-adv-x="520" 
d="M260 -14c-185 0 -235 108 -235 264s50 264 235 264s235 -108 235 -264s-50 -264 -235 -264zM260 386c-55 0 -75 -36 -75 -136s20 -136 75 -136s75 36 75 136s-20 136 -75 136zM415 550h-120l-105 200h160zM235 550h-120l-105 200h160z" />
    <glyph glyph-name="ocommaturnedabove" unicode="&#xe03b;" horiz-adv-x="520" 
d="M260 -14c-185 0 -235 108 -235 264s50 264 235 264s235 -108 235 -264s-50 -264 -235 -264zM260 386c-55 0 -75 -36 -75 -136s20 -136 75 -136s75 36 75 136s-20 136 -75 136zM240 750h121l-24 -200h-158z" />
    <glyph glyph-name="otildemacron" unicode="&#xe03c;" horiz-adv-x="520" 
d="M132 565h-87c0 97 44 145 130 145c85 0 120 -61 169 -61c31 0 44 16 44 36h87c0 -97 -45 -145 -130 -145s-120 61 -169 61c-31 0 -44 -16 -44 -36zM416 855v-120h-312v120h312zM260 -14c-185 0 -235 108 -235 264s50 264 235 264s235 -108 235 -264s-50 -264 -235 -264z
M260 386c-55 0 -75 -36 -75 -136s20 -136 75 -136s75 36 75 136s-20 136 -75 136z" />
    <glyph glyph-name="odotabove" unicode="&#xe03d;" horiz-adv-x="520" 
d="M165 645c0 53 41 95 95 95c53 0 95 -42 95 -95c0 -54 -42 -95 -95 -95c-54 0 -95 41 -95 95zM260 -14c-185 0 -235 108 -235 264s50 264 235 264s235 -108 235 -264s-50 -264 -235 -264zM260 386c-55 0 -75 -36 -75 -136s20 -136 75 -136s75 36 75 136s-20 136 -75 136z
" />
    <glyph glyph-name="odotabovemacron" unicode="&#xe03e;" horiz-adv-x="520" 
d="M165 625c0 53 41 95 95 95c53 0 95 -42 95 -95c0 -54 -42 -95 -95 -95c-54 0 -95 41 -95 95zM416 855v-120h-312v120h312zM260 -14c-185 0 -235 108 -235 264s50 264 235 264s235 -108 235 -264s-50 -264 -235 -264zM260 386c-55 0 -75 -36 -75 -136s20 -136 75 -136
s75 36 75 136s-20 136 -75 136z" />
    <glyph glyph-name="ocedilla" unicode="&#xe03f;" horiz-adv-x="520" 
d="M260 -14c-185 0 -235 108 -235 264s50 264 235 264s235 -108 235 -264s-50 -264 -235 -264zM260 386c-55 0 -75 -36 -75 -136s20 -136 75 -136s75 36 75 136s-20 136 -75 136zM215 -94l6 56c140 -10 168 -60 168 -107c0 -76 -58 -105 -128 -105c-43 0 -83 10 -100 19v91
c18 -6 52 -15 87 -15c23 0 38 6 38 23c0 14 -9 29 -71 38z" />
    <glyph glyph-name="odotbelow" unicode="&#x1ecd;" horiz-adv-x="520" 
d="M165 -150c0 53 41 95 95 95c53 0 95 -42 95 -95c0 -54 -42 -95 -95 -95c-54 0 -95 41 -95 95zM260 -14c-185 0 -235 108 -235 264s50 264 235 264s235 -108 235 -264s-50 -264 -235 -264zM260 386c-55 0 -75 -36 -75 -136s20 -136 75 -136s75 36 75 136s-20 136 -75 136z
" />
    <glyph glyph-name="oogonek" unicode="&#x1eb;" horiz-adv-x="520" 
d="M495 250c0 -126 -33 -220 -141 -252c-53 -18 -89 -70 -89 -105c0 -29 25 -46 59 -46c33 0 58 8 68 12v-90c-14 -7 -41 -19 -100 -19c-75 0 -147 37 -147 123c0 52 27 89 63 116c-143 19 -183 121 -183 261c0 156 50 264 235 264s235 -108 235 -264zM260 386
c-55 0 -75 -36 -75 -136s20 -136 75 -136s75 36 75 136s-20 136 -75 136z" />
    <glyph glyph-name="oogonekmacron" unicode="&#x1ed;" horiz-adv-x="520" 
d="M495 250c0 -126 -33 -220 -141 -252c-53 -18 -89 -70 -89 -105c0 -29 25 -46 59 -46c33 0 58 8 68 12v-90c-14 -7 -41 -19 -100 -19c-75 0 -147 37 -147 123c0 52 27 89 63 116c-143 19 -183 121 -183 261c0 156 50 264 235 264s235 -108 235 -264zM414 705v-120h-312
v120h312zM260 386c-55 0 -75 -36 -75 -136s20 -136 75 -136s75 36 75 136s-20 136 -75 136z" />
    <glyph glyph-name="ounderlineaccent" unicode="&#xe040;" horiz-adv-x="520" 
d="M210 -50h100v-200h-100v200zM260 -14c-185 0 -235 108 -235 264s50 264 235 264s235 -108 235 -264s-50 -264 -235 -264zM260 386c-55 0 -75 -36 -75 -136s20 -136 75 -136s75 36 75 136s-20 136 -75 136z" />
    <glyph glyph-name="oslash" unicode="&#xf8;" horiz-adv-x="520" 
d="M495 500l-47 -61c35 -47 47 -112 47 -189c0 -156 -50 -264 -235 -264c-57 0 -101 11 -135 29l-11 -15h-89l46 61c-34 47 -46 112 -46 189c0 156 50 264 235 264c57 0 101 -11 135 -29l11 15h89zM335 250c0 14 -1 27 -2 38l-120 -158c11 -11 27 -16 47 -16
c55 0 75 36 75 136zM260 386c-55 0 -75 -36 -75 -136c0 -14 0 -27 1 -38l121 158c-12 11 -27 16 -47 16z" />
    <glyph glyph-name="oslashacute" unicode="&#x1ff;" horiz-adv-x="520" 
d="M260 -14c-28 0 -53 3 -75 7l-22 -43h-102l41 80c-58 46 -77 124 -77 220c0 156 50 264 235 264c32 0 59 -3 84 -9l23 45h102l-44 -87c52 -46 70 -121 70 -213c0 -156 -50 -264 -235 -264zM260 386c-55 0 -75 -36 -75 -136c0 -20 1 -37 2 -52l95 185c-7 2 -14 3 -22 3z
M335 250l-1 35l-87 -171h13c55 0 75 36 75 136zM315 550h-120l65 200h160z" />
    <glyph glyph-name="barredo" unicode="&#xe041;" horiz-adv-x="520" 
d="M260 -14c-185 0 -235 108 -235 264s50 264 235 264s235 -108 235 -264s-50 -264 -235 -264zM260 114c44 0 70 23 72 86h-145c3 -63 28 -86 73 -86zM260 386c-45 0 -70 -24 -73 -86h145c-2 62 -28 86 -72 86z" />
    <glyph glyph-name="oe" unicode="&#x153;" horiz-adv-x="824" 
d="M260 386c-55 0 -75 -36 -75 -136s20 -136 75 -136s75 36 75 136s-20 136 -75 136zM585 -14c-70 0 -125 17 -165 51c-36 -32 -88 -51 -160 -51c-185 0 -235 108 -235 264s50 264 235 264c72 0 123 -19 159 -51c38 34 90 51 155 51c214 0 229 -160 216 -317h-292
c-4 -65 30 -84 108 -84c75 0 131 15 167 33v-125c-58 -24 -128 -35 -188 -35zM576 394c-54 0 -78 -36 -78 -99h142c9 55 -3 99 -64 99z" />
    <glyph glyph-name="pmacron" unicode="&#xe042;" horiz-adv-x="549" 
d="M434 705v-120h-312v120h312zM45 500h96l27 -40c35 30 82 54 162 54c130 0 194 -80 194 -264s-64 -264 -194 -264c-55 0 -95 14 -125 32v-268h-160v750zM205 362v-226s31 -21 71 -21c74 0 90 50 90 135c0 86 -16 133 -90 133c-40 0 -71 -21 -71 -21z" />
    <glyph glyph-name="racute" unicode="&#x155;" horiz-adv-x="375" 
d="M360 507v-129c-8 2 -28 4 -49 4c-49 0 -93 -17 -106 -29v-353h-160v500h96l20 -36c25 24 79 50 154 50c20 0 38 -4 45 -7zM260 550h-120l65 200h160z" />
    <glyph glyph-name="rcaron" unicode="&#x159;" horiz-adv-x="375" 
d="M360 507v-129c-8 2 -28 4 -49 4c-49 0 -93 -17 -106 -29v-353h-160v500h96l20 -36c25 24 79 50 154 50c20 0 38 -4 45 -7zM290 750h123l-133 -200h-150l-133 200h123l85 -95z" />
    <glyph glyph-name="rinvertedbreve" unicode="&#x213;" horiz-adv-x="375" 
d="M360 507v-129c-8 2 -28 4 -49 4c-49 0 -93 -17 -106 -29v-353h-160v500h96l20 -36c25 24 79 50 154 50c20 0 38 -4 45 -7zM205 636c-57 0 -80 -16 -80 -86h-118c0 154 68 200 198 200s198 -46 198 -200h-118c0 70 -23 86 -80 86z" />
    <glyph glyph-name="rdoublegrave" unicode="&#xe043;" horiz-adv-x="375" 
d="M360 507v-129c-8 2 -28 4 -49 4c-49 0 -93 -17 -106 -29v-353h-160v500h96l20 -36c25 24 79 50 154 50c20 0 38 -4 45 -7zM351 550h-120l-105 200h160zM171 550h-120l-105 200h160z" />
    <glyph glyph-name="rcommaaccent" unicode="&#x157;" horiz-adv-x="375" 
d="M360 507v-129c-8 2 -28 4 -49 4c-49 0 -93 -17 -106 -29v-353h-160v500h96l20 -36c25 24 79 50 154 50c20 0 38 -4 45 -7zM144 -250h-121l24 200h158z" />
    <glyph glyph-name="rcedilla" unicode="&#xe044;" horiz-adv-x="375" 
d="M360 507v-129c-8 2 -28 4 -49 4c-49 0 -93 -17 -106 -29v-353h-160v500h96l20 -36c25 24 79 50 154 50c20 0 38 -4 45 -7zM80 -94l6 56c140 -10 168 -60 168 -107c0 -76 -58 -105 -128 -105c-43 0 -83 10 -100 19v91c18 -6 52 -15 87 -15c23 0 38 6 38 23
c0 14 -9 29 -71 38z" />
    <glyph glyph-name="rdotbelow" unicode="&#x1e5b;" horiz-adv-x="375" 
d="M30 -150c0 53 41 95 95 95c53 0 95 -42 95 -95c0 -54 -42 -95 -95 -95c-54 0 -95 41 -95 95zM360 507v-129c-8 2 -28 4 -49 4c-49 0 -93 -17 -106 -29v-353h-160v500h96l20 -36c25 24 79 50 154 50c20 0 38 -4 45 -7z" />
    <glyph glyph-name="rdotbelowmacron" unicode="&#x1e5d;" horiz-adv-x="375" 
d="M30 -150c0 53 41 95 95 95c53 0 95 -42 95 -95c0 -54 -42 -95 -95 -95c-54 0 -95 41 -95 95zM361 705v-120h-312v120h312zM360 507v-129c-8 2 -28 4 -49 4c-49 0 -93 -17 -106 -29v-353h-160v500h96l20 -36c25 24 79 50 154 50c20 0 38 -4 45 -7z" />
    <glyph glyph-name="sacute" unicode="&#x15b;" horiz-adv-x="470" 
d="M419 488v-134c-46 19 -103 32 -161 32c-45 0 -70 -10 -70 -35c0 -26 17 -32 50 -35c158 -14 202 -56 202 -160c0 -96 -57 -170 -226 -170c-92 0 -145 17 -182 32v134c47 -20 115 -38 178 -38c51 0 74 10 74 35c0 26 -17 32 -50 35c-158 14 -202 56 -202 160
c0 102 66 170 220 170c91 0 134 -12 167 -26zM280 550h-120l65 200h160z" />
    <glyph glyph-name="scircumflex" unicode="&#x15d;" horiz-adv-x="470" 
d="M419 488v-134c-46 19 -103 32 -161 32c-45 0 -70 -10 -70 -35c0 -26 17 -32 50 -35c158 -14 202 -56 202 -160c0 -96 -57 -170 -226 -170c-92 0 -145 17 -182 32v134c47 -20 115 -38 178 -38c51 0 74 10 74 35c0 26 -17 32 -50 35c-158 14 -202 56 -202 160
c0 102 66 170 220 170c91 0 134 -12 167 -26zM140 550h-123l133 200h150l133 -200h-123l-85 95z" />
    <glyph glyph-name="scaron" unicode="&#x161;" horiz-adv-x="470" 
d="M419 488v-134c-46 19 -103 32 -161 32c-45 0 -70 -10 -70 -35c0 -26 17 -32 50 -35c158 -14 202 -56 202 -160c0 -96 -57 -170 -226 -170c-92 0 -145 17 -182 32v134c47 -20 115 -38 178 -38c51 0 74 10 74 35c0 26 -17 32 -50 35c-158 14 -202 56 -202 160
c0 102 66 170 220 170c91 0 134 -12 167 -26zM17 750h123l85 -95l85 95h123l-133 -200h-150z" />
    <glyph glyph-name="scommaaccent" unicode="&#x219;" horiz-adv-x="470" 
d="M419 488v-134c-46 19 -103 32 -161 32c-45 0 -70 -10 -70 -35c0 -26 17 -32 50 -35c158 -14 202 -56 202 -160c0 -96 -57 -170 -226 -170c-92 0 -145 17 -182 32v134c47 -20 115 -38 178 -38c51 0 74 10 74 35c0 26 -17 32 -50 35c-158 14 -202 56 -202 160
c0 102 66 170 220 170c91 0 134 -12 167 -26zM255 -250h-121l24 200h158z" />
    <glyph glyph-name="scedilla" unicode="&#x15f;" horiz-adv-x="470" 
d="M354 -145c0 -76 -58 -105 -128 -105c-43 0 -83 10 -100 19v91c18 -6 52 -15 87 -15c23 0 38 6 38 23c0 14 -9 29 -71 38l8 81c-76 3 -123 17 -156 31v134c47 -20 115 -38 178 -38c51 0 74 10 74 35c0 26 -17 32 -50 35c-158 14 -202 56 -202 160c0 102 66 170 220 170
c91 0 134 -12 167 -26v-134c-46 19 -103 32 -161 32c-45 0 -70 -10 -70 -35c0 -26 17 -32 50 -35c158 -14 202 -56 202 -160c0 -87 -46 -156 -179 -168l3 -45c61 -14 90 -41 90 -88z" />
    <glyph glyph-name="sdotbelow" unicode="&#x1e63;" horiz-adv-x="470" 
d="M130 -150c0 53 41 95 95 95c53 0 95 -42 95 -95c0 -54 -42 -95 -95 -95c-54 0 -95 41 -95 95zM419 488v-134c-46 19 -103 32 -161 32c-45 0 -70 -10 -70 -35c0 -26 17 -32 50 -35c158 -14 202 -56 202 -160c0 -96 -57 -170 -226 -170c-92 0 -145 17 -182 32v134
c47 -20 115 -38 178 -38c51 0 74 10 74 35c0 26 -17 32 -50 35c-158 14 -202 56 -202 160c0 102 66 170 220 170c91 0 134 -12 167 -26z" />
    <glyph glyph-name="germandbls" unicode="&#xdf;" horiz-adv-x="590" 
d="M229 373c0 114 97 130 97 205c0 33 -26 53 -63 53c-39 0 -65 -20 -65 -53v-578h-157v585c0 113 69 179 223 179c152 0 221 -66 221 -179c0 -98 -100 -136 -100 -191c0 -29 16 -41 58 -59c108 -45 135 -81 135 -175c0 -118 -86 -174 -199 -174c-69 0 -121 17 -150 32v138
c14 -9 77 -42 127 -42c40 0 64 10 64 46c0 45 -46 59 -69 68c-82 34 -122 62 -122 145z" />
    <glyph glyph-name="tcaron" unicode="&#x165;" horiz-adv-x="390" 
d="M302 750h98l-48 -200h-66zM361 121v-125c-22 -6 -60 -10 -82 -10c-140 0 -193 59 -193 177v204h-81v106l81 22v103l160 43v-141h124v-133h-124v-191c0 -39 15 -61 66 -61c21 0 41 4 49 6z" />
    <glyph glyph-name="tcommaaccent" unicode="&#x163;" horiz-adv-x="390" 
d="M361 121v-125c-22 -6 -60 -10 -82 -10c-140 0 -193 59 -193 177v204h-81v106l81 22v103l160 43v-141h124v-133h-124v-191c0 -39 15 -61 66 -61c21 0 41 4 49 6zM255 -250h-121l24 200h158z" />
    <glyph glyph-name="tcommaaccent" unicode="&#x21b;" horiz-adv-x="390" 
d="M361 121v-125c-22 -6 -60 -10 -82 -10c-140 0 -193 59 -193 177v204h-81v106l81 22v103l160 43v-141h124v-133h-124v-191c0 -39 15 -61 66 -61c21 0 41 4 49 6zM255 -250h-121l24 200h158z" />
    <glyph glyph-name="tcedilla" unicode="&#xe045;" horiz-adv-x="390" 
d="M361 121v-125c-22 -6 -60 -10 -82 -10c-140 0 -193 59 -193 177v204h-81v106l81 22v103l160 43v-141h124v-133h-124v-191c0 -39 15 -61 66 -61c21 0 41 4 49 6zM190 -94l6 56c140 -10 168 -60 168 -107c0 -76 -58 -105 -128 -105c-43 0 -83 10 -100 19v91
c18 -6 52 -15 87 -15c23 0 38 6 38 23c0 14 -9 29 -71 38z" />
    <glyph glyph-name="tdotbelow" unicode="&#x1e6d;" horiz-adv-x="390" 
d="M140 -150c0 53 41 95 95 95c53 0 95 -42 95 -95c0 -54 -42 -95 -95 -95c-54 0 -95 41 -95 95zM361 121v-125c-22 -6 -60 -10 -82 -10c-140 0 -193 59 -193 177v204h-81v106l81 22v103l160 43v-141h124v-133h-124v-191c0 -39 15 -61 66 -61c21 0 41 4 49 6z" />
    <glyph glyph-name="tbar" unicode="&#x167;" horiz-adv-x="390" 
d="M361 121v-125c-22 -6 -60 -10 -82 -10c-140 0 -193 59 -193 177v39h-81v120h81v45h-81v106l81 22v103l160 43v-141h124v-133h-124v-45h101v-120h-101v-26c0 -39 15 -61 66 -61c21 0 41 4 49 6z" />
    <glyph glyph-name="uacute" unicode="&#xfa;" horiz-adv-x="550" 
d="M505 0h-96l-20 36c-56 -34 -119 -50 -174 -50c-136 0 -175 72 -175 168v346h160v-322c0 -37 13 -62 56 -62c39 0 74 16 89 26v358h160v-500zM327 550h-120l65 200h160z" />
    <glyph glyph-name="ugrave" unicode="&#xf9;" horiz-adv-x="550" 
d="M505 0h-96l-20 36c-56 -34 -119 -50 -174 -50c-136 0 -175 72 -175 168v346h160v-322c0 -37 13 -62 56 -62c39 0 74 16 89 26v358h160v-500zM337 550h-120l-105 200h160z" />
    <glyph glyph-name="ucircumflex" unicode="&#xfb;" horiz-adv-x="550" 
d="M505 0h-96l-20 36c-56 -34 -119 -50 -174 -50c-136 0 -175 72 -175 168v346h160v-322c0 -37 13 -62 56 -62c39 0 74 16 89 26v358h160v-500zM187 550h-123l133 200h150l133 -200h-123l-85 95z" />
    <glyph glyph-name="udieresis" unicode="&#xfc;" horiz-adv-x="550" 
d="M57 645c0 53 41 95 95 95c53 0 95 -42 95 -95c0 -54 -42 -95 -95 -95c-54 0 -95 41 -95 95zM297 645c0 53 41 95 95 95c53 0 95 -42 95 -95c0 -54 -42 -95 -95 -95c-54 0 -95 41 -95 95zM505 0h-96l-20 36c-56 -34 -119 -50 -174 -50c-136 0 -175 72 -175 168v346h160
v-322c0 -37 13 -62 56 -62c39 0 74 16 89 26v358h160v-500z" />
    <glyph glyph-name="utilde" unicode="&#x169;" horiz-adv-x="550" 
d="M144 573h-87c0 117 44 167 130 167c95 0 115 -81 164 -81c41 0 49 28 49 58h87c0 -117 -45 -167 -130 -167c-95 0 -115 81 -164 81c-41 0 -49 -28 -49 -58zM505 0h-96l-20 36c-56 -34 -119 -50 -174 -50c-136 0 -175 72 -175 168v346h160v-322c0 -37 13 -62 56 -62
c39 0 74 16 89 26v358h160v-500z" />
    <glyph glyph-name="uring" unicode="&#x16f;" horiz-adv-x="550" 
d="M378 650c0 -72 -43 -105 -106 -105s-106 33 -106 105s43 105 106 105s106 -33 106 -105zM250 650c0 -16 8 -21 22 -21s22 5 22 21s-8 21 -22 21s-22 -5 -22 -21zM505 0h-96l-20 36c-56 -34 -119 -50 -174 -50c-136 0 -175 72 -175 168v346h160v-322c0 -37 13 -62 56 -62
c39 0 74 16 89 26v358h160v-500z" />
    <glyph glyph-name="ucaron" unicode="&#x1d4;" horiz-adv-x="550" 
d="M505 0h-96l-20 36c-56 -34 -119 -50 -174 -50c-136 0 -175 72 -175 168v346h160v-322c0 -37 13 -62 56 -62c39 0 74 16 89 26v358h160v-500zM357 750h123l-133 -200h-150l-133 200h123l85 -95z" />
    <glyph glyph-name="umacron" unicode="&#x16b;" horiz-adv-x="550" 
d="M428 705v-120h-312v120h312zM505 0h-96l-20 36c-56 -34 -119 -50 -174 -50c-136 0 -175 72 -175 168v346h160v-322c0 -37 13 -62 56 -62c39 0 74 16 89 26v358h160v-500z" />
    <glyph glyph-name="ubreve" unicode="&#x16d;" horiz-adv-x="550" 
d="M505 0h-96l-20 36c-56 -34 -119 -50 -174 -50c-136 0 -175 72 -175 168v346h160v-322c0 -37 13 -62 56 -62c39 0 74 16 89 26v358h160v-500zM272 664c57 0 80 16 80 86h118c0 -154 -68 -200 -198 -200s-198 46 -198 200h118c0 -70 23 -86 80 -86z" />
    <glyph glyph-name="uinvertedbreve" unicode="&#x217;" horiz-adv-x="550" 
d="M505 0h-96l-20 36c-56 -34 -119 -50 -174 -50c-136 0 -175 72 -175 168v346h160v-322c0 -37 13 -62 56 -62c39 0 74 16 89 26v358h160v-500zM272 636c-57 0 -80 -16 -80 -86h-118c0 154 68 200 198 200s198 -46 198 -200h-118c0 70 -23 86 -80 86z" />
    <glyph glyph-name="uhungarumlaut" unicode="&#x171;" horiz-adv-x="550" 
d="M505 0h-96l-20 36c-56 -34 -119 -50 -174 -50c-136 0 -175 72 -175 168v346h160v-322c0 -37 13 -62 56 -62c39 0 74 16 89 26v358h160v-500zM237 550h-120l65 200h160zM417 550h-120l65 200h160z" />
    <glyph glyph-name="udoublegrave" unicode="&#xe046;" horiz-adv-x="550" 
d="M505 0h-96l-20 36c-56 -34 -119 -50 -174 -50c-136 0 -175 72 -175 168v346h160v-322c0 -37 13 -62 56 -62c39 0 74 16 89 26v358h160v-500zM428 550h-120l-105 200h160zM248 550h-120l-105 200h160z" />
    <glyph glyph-name="uogonek" unicode="&#x173;" horiz-adv-x="550" 
d="M505 0c-71 -15 -113 -65 -113 -102c0 -34 25 -51 59 -51c33 0 58 8 68 12v-90c-14 -7 -41 -19 -100 -19c-75 0 -147 37 -147 123c0 77 61 122 125 147l-8 16c-56 -34 -119 -50 -174 -50c-136 0 -175 72 -175 168v346h160v-322c0 -37 13 -62 56 -62c39 0 74 16 89 26v358
h160v-500z" />
    <glyph glyph-name="udotbelow" unicode="&#x1ee5;" horiz-adv-x="550" 
d="M177 -150c0 53 41 95 95 95c53 0 95 -42 95 -95c0 -54 -42 -95 -95 -95c-54 0 -95 41 -95 95zM505 0h-96l-20 36c-56 -34 -119 -50 -174 -50c-136 0 -175 72 -175 168v346h160v-322c0 -37 13 -62 56 -62c39 0 74 16 89 26v358h160v-500z" />
    <glyph glyph-name="umacronbelow" unicode="&#xe047;" horiz-adv-x="550" 
d="M428 -90v-120h-312v120h312zM505 0h-96l-20 36c-56 -34 -119 -50 -174 -50c-136 0 -175 72 -175 168v346h160v-322c0 -37 13 -62 56 -62c39 0 74 16 89 26v358h160v-500z" />
    <glyph glyph-name="wacute" unicode="&#x1e83;" horiz-adv-x="690" 
d="M411 500l67 -292l41 292h156l-120 -508h-143l-67 316l-67 -316h-143l-120 508h156l41 -292l67 292h132zM404 550h-120l65 200h160z" />
    <glyph glyph-name="wgrave" unicode="&#x1e81;" horiz-adv-x="690" 
d="M411 500l67 -292l41 292h156l-120 -508h-143l-67 316l-67 -316h-143l-120 508h156l41 -292l67 292h132zM406 550h-120l-105 200h160z" />
    <glyph glyph-name="wcircumflex" unicode="&#x175;" horiz-adv-x="690" 
d="M411 500l67 -292l41 292h156l-120 -508h-143l-67 316l-67 -316h-143l-120 508h156l41 -292l67 292h132zM259 550h-123l133 200h150l133 -200h-123l-85 95z" />
    <glyph glyph-name="wdieresis" unicode="&#x1e85;" horiz-adv-x="690" 
d="M411 500l67 -292l41 292h156l-120 -508h-143l-67 316l-67 -316h-143l-120 508h156l41 -292l67 292h132zM130 645c0 53 41 95 95 95c53 0 95 -42 95 -95c0 -54 -42 -95 -95 -95c-54 0 -95 41 -95 95zM370 645c0 53 41 95 95 95c53 0 95 -42 95 -95c0 -54 -42 -95 -95 -95
c-54 0 -95 41 -95 95z" />
    <glyph glyph-name="yacute" unicode="&#xfd;" horiz-adv-x="520" 
d="M5 500h173l82 -294l82 294h173l-286 -750h-175l130 283zM315 550h-120l65 200h160z" />
    <glyph glyph-name="ygrave" unicode="&#x1ef3;" horiz-adv-x="520" 
d="M5 500h173l82 -294l82 294h173l-286 -750h-175l130 283zM325 550h-120l-105 200h160z" />
    <glyph glyph-name="ycircumflex" unicode="&#x177;" horiz-adv-x="520" 
d="M5 500h173l82 -294l82 294h173l-286 -750h-175l130 283zM175 550h-123l133 200h150l133 -200h-123l-85 95z" />
    <glyph glyph-name="ydieresis" unicode="&#xff;" horiz-adv-x="520" 
d="M5 500h173l82 -294l82 294h173l-286 -750h-175l130 283zM45 645c0 53 41 95 95 95c53 0 95 -42 95 -95c0 -54 -42 -95 -95 -95c-54 0 -95 41 -95 95zM285 645c0 53 41 95 95 95c53 0 95 -42 95 -95c0 -54 -42 -95 -95 -95c-54 0 -95 41 -95 95z" />
    <glyph glyph-name="ytilde" unicode="&#x1ef9;" horiz-adv-x="520" 
d="M5 500h173l82 -294l82 294h173l-286 -750h-175l130 283zM132 573h-87c0 117 44 167 130 167c95 0 115 -81 164 -81c41 0 49 28 49 58h87c0 -117 -45 -167 -130 -167c-95 0 -115 81 -164 81c-41 0 -49 -28 -49 -58z" />
    <glyph glyph-name="ymacron" unicode="&#xe048;" horiz-adv-x="520" 
d="M5 500h173l82 -294l82 294h173l-286 -750h-175l130 283zM416 705v-120h-312v120h312z" />
    <glyph glyph-name="ij" unicode="&#x133;" 
d="M250 125v-129s-21 -4 -46 -4c-86 0 -154 44 -154 141v367h159v-345c0 -19 9 -30 41 -30zM35 645c0 53 41 95 95 95c53 0 95 -42 95 -95c0 -54 -42 -95 -95 -95c-54 0 -95 41 -95 95zM187 -264v134c85 0 103 38 103 84v546h159v-562c0 -144 -133 -202 -262 -202zM275 645
c0 53 41 95 95 95c53 0 95 -42 95 -95c0 -54 -42 -95 -95 -95c-54 0 -95 41 -95 95z" />
    <glyph glyph-name="zacute" unicode="&#x17a;" horiz-adv-x="480" 
d="M300 550h-120l65 200h160zM455 0h-430v116l218 246l-196 -2v140h396v-116l-218 -246l230 2v-140z" />
    <glyph glyph-name="zcaron" unicode="&#x17e;" horiz-adv-x="480" 
d="M330 750h123l-133 -200h-150l-133 200h123l85 -95zM455 0h-430v116l218 246l-196 -2v140h396v-116l-218 -246l230 2v-140z" />
    <glyph glyph-name="zdotaccent" unicode="&#x17c;" horiz-adv-x="480" 
d="M150 645c0 53 41 95 95 95c53 0 95 -42 95 -95c0 -54 -42 -95 -95 -95c-54 0 -95 41 -95 95zM455 0h-430v116l218 246l-196 -2v140h396v-116l-218 -246l230 2v-140z" />
    <glyph glyph-name="eng" unicode="&#x14b;" horiz-adv-x="550" 
d="M248 -264v134c85 0 102 38 102 84v368c0 37 -13 62 -56 62c-39 0 -74 -16 -89 -26v-358h-160v500h96l20 -36c56 34 119 50 174 50c136 0 175 -72 175 -168v-408c0 -144 -133 -202 -262 -202z" />
    <glyph glyph-name="eth" unicode="&#xf0;" horiz-adv-x="576" 
d="M495 250c0 -156 -50 -264 -235 -264s-235 108 -235 264s55 264 215 264c25 0 50 -4 59 -9c-14 30 -35 58 -51 76l-137 -70v79l90 46c-55 53 -116 91 -165 114h219c21 -13 45 -29 69 -51l100 51v-79l-49 -25c64 -79 120 -202 120 -396zM260 386c-55 0 -75 -36 -75 -136
s20 -136 75 -136s75 36 75 136s-20 136 -75 136z" />
    <glyph glyph-name="thorn" unicode="&#xfe;" horiz-adv-x="549" 
d="M45 750h160v-268c30 18 70 32 125 32c130 0 194 -80 194 -264s-64 -264 -194 -264c-55 0 -95 14 -125 32v-268h-160v1000zM205 363v-227s31 -21 71 -21c74 0 90 50 90 135s-16 134 -90 134c-40 0 -71 -21 -71 -21z" />
    <glyph glyph-name="ezh" unicode="&#x292;" horiz-adv-x="507" 
d="M327 -11c0 89 -52 115 -154 115h-66v105l144 150l-221 -2v143h417v-116l-153 -165c115 -22 188 -89 188 -230c0 -180 -116 -253 -288 -253c-69 0 -134 13 -169 28v138c27 -11 89 -28 154 -28c102 0 148 26 148 115z" />
    <glyph glyph-name="ezhcaron" unicode="&#x1ef;" horiz-adv-x="507" 
d="M327 -11c0 89 -52 115 -154 115h-66v105l144 150l-221 -2v143h417v-116l-153 -165c115 -22 188 -89 188 -230c0 -180 -116 -253 -288 -253c-69 0 -134 13 -169 28v138c27 -11 89 -28 154 -28c102 0 148 26 148 115zM323 750h123l-133 -200h-150l-133 200h123l85 -95z" />
    <glyph glyph-name="schwa" unicode="&#x259;" horiz-adv-x="509" 
d="M34 303h292c4 65 -30 84 -108 84c-75 0 -131 -15 -167 -33v125c58 24 128 35 188 35c165 0 245 -84 245 -264s-79 -264 -234 -264c-214 0 -229 160 -216 317zM248 106c54 0 78 36 78 99h-142c-9 -55 3 -99 64 -99z" />
    <glyph glyph-name="ordfeminine" unicode="&#xaa;" horiz-adv-x="398" 
d="M230 610v13c0 19 -8 32 -50 32c-49 0 -99 -13 -134 -27l-4 110c37 14 103 26 163 26c132 0 158 -57 158 -141v-247h-103l-11 22c-19 -14 -58 -35 -106 -35c-87 0 -125 44 -125 122c0 84 51 112 144 120zM230 542l-45 -4c-33 -3 -48 -16 -48 -41c0 -32 19 -42 42 -42
c15 0 40 6 51 14v73z" />
    <glyph glyph-name="ordmasculine" unicode="&#xba;" horiz-adv-x="415" 
d="M20 563c0 137 50 201 187 201s188 -63 188 -200s-51 -201 -188 -201s-187 63 -187 200zM151 563c0 -68 16 -89 56 -89s58 23 58 90s-18 89 -58 89s-56 -22 -56 -90z" />
    <glyph glyph-name="cordinal" unicode="&#xe049;" horiz-adv-x="336" 
d="M238 475c31 0 54 5 68 9v-109c-25 -8 -60 -12 -102 -12c-131 0 -184 74 -184 201s53 200 184 200c42 0 77 -4 102 -12v-109c-14 4 -37 9 -68 9c-60 0 -85 -32 -85 -88s25 -89 85 -89z" />
    <glyph glyph-name="a.school" unicode="&#xe04a;" horiz-adv-x="549" 
d="M344 137v226s-31 21 -71 21c-74 0 -90 -49 -90 -134c0 -86 16 -134 90 -134c40 0 71 21 71 21zM504 500v-500h-96l-27 40c-35 -30 -82 -54 -162 -54c-130 0 -194 80 -194 264s64 264 194 264c80 0 127 -24 162 -54l27 40h96z" />
    <glyph glyph-name="aacute.school" unicode="&#xe04b;" horiz-adv-x="549" 
d="M344 137v226s-31 21 -71 21c-74 0 -90 -49 -90 -134c0 -86 16 -134 90 -134c40 0 71 21 71 21zM504 500v-500h-96l-27 40c-35 -30 -82 -54 -162 -54c-130 0 -194 80 -194 264s64 264 194 264c80 0 127 -24 162 -54l27 40h96zM325 550h-120l65 200h160z" />
    <glyph glyph-name="agrave.school" unicode="&#xe04c;" horiz-adv-x="549" 
d="M344 137v226s-31 21 -71 21c-74 0 -90 -49 -90 -134c0 -86 16 -134 90 -134c40 0 71 21 71 21zM504 500v-500h-96l-27 40c-35 -30 -82 -54 -162 -54c-130 0 -194 80 -194 264s64 264 194 264c80 0 127 -24 162 -54l27 40h96zM335 550h-120l-105 200h160z" />
    <glyph glyph-name="acircumflex.school" unicode="&#xe04d;" horiz-adv-x="549" 
d="M344 137v226s-31 21 -71 21c-74 0 -90 -49 -90 -134c0 -86 16 -134 90 -134c40 0 71 21 71 21zM504 500v-500h-96l-27 40c-35 -30 -82 -54 -162 -54c-130 0 -194 80 -194 264s64 264 194 264c80 0 127 -24 162 -54l27 40h96zM185 550h-123l133 200h150l133 -200h-123
l-85 95z" />
    <glyph glyph-name="adieresis.school" unicode="&#xe04e;" horiz-adv-x="549" 
d="M55 645c0 53 41 95 95 95c53 0 95 -42 95 -95c0 -54 -42 -95 -95 -95c-54 0 -95 41 -95 95zM295 645c0 53 41 95 95 95c53 0 95 -42 95 -95c0 -54 -42 -95 -95 -95c-54 0 -95 41 -95 95zM344 137v226s-31 21 -71 21c-74 0 -90 -49 -90 -134c0 -86 16 -134 90 -134
c40 0 71 21 71 21zM504 500v-500h-96l-27 40c-35 -30 -82 -54 -162 -54c-130 0 -194 80 -194 264s64 264 194 264c80 0 127 -24 162 -54l27 40h96z" />
    <glyph glyph-name="atilde.school" unicode="&#xe04f;" horiz-adv-x="549" 
d="M142 573h-87c0 117 44 167 130 167c95 0 115 -81 164 -81c41 0 49 28 49 58h87c0 -117 -45 -167 -130 -167c-95 0 -115 81 -164 81c-41 0 -49 -28 -49 -58zM344 137v226s-31 21 -71 21c-74 0 -90 -49 -90 -134c0 -86 16 -134 90 -134c40 0 71 21 71 21zM504 500v-500h-96
l-27 40c-35 -30 -82 -54 -162 -54c-130 0 -194 80 -194 264s64 264 194 264c80 0 127 -24 162 -54l27 40h96z" />
    <glyph glyph-name="aring.school" unicode="&#xe050;" horiz-adv-x="549" 
d="M376 650c0 -72 -43 -105 -106 -105s-106 33 -106 105s43 105 106 105s106 -33 106 -105zM248 650c0 -16 8 -21 22 -21s22 5 22 21s-8 21 -22 21s-22 -5 -22 -21zM344 137v226s-31 21 -71 21c-74 0 -90 -49 -90 -134c0 -86 16 -134 90 -134c40 0 71 21 71 21zM504 500
v-500h-96l-27 40c-35 -30 -82 -54 -162 -54c-130 0 -194 80 -194 264s64 264 194 264c80 0 127 -24 162 -54l27 40h96z" />
    <glyph glyph-name="acaron.school" unicode="&#xe051;" horiz-adv-x="549" 
d="M344 137v226s-31 21 -71 21c-74 0 -90 -49 -90 -134c0 -86 16 -134 90 -134c40 0 71 21 71 21zM504 500v-500h-96l-27 40c-35 -30 -82 -54 -162 -54c-130 0 -194 80 -194 264s64 264 194 264c80 0 127 -24 162 -54l27 40h96zM355 750h123l-133 -200h-150l-133 200h123
l85 -95z" />
    <glyph glyph-name="amacron.school" unicode="&#xe052;" horiz-adv-x="549" 
d="M426 705v-120h-312v120h312zM344 137v226s-31 21 -71 21c-74 0 -90 -49 -90 -134c0 -86 16 -134 90 -134c40 0 71 21 71 21zM504 500v-500h-96l-27 40c-35 -30 -82 -54 -162 -54c-130 0 -194 80 -194 264s64 264 194 264c80 0 127 -24 162 -54l27 40h96z" />
    <glyph glyph-name="abreve.school" unicode="&#xe053;" horiz-adv-x="549" 
d="M344 137v226s-31 21 -71 21c-74 0 -90 -49 -90 -134c0 -86 16 -134 90 -134c40 0 71 21 71 21zM504 500v-500h-96l-27 40c-35 -30 -82 -54 -162 -54c-130 0 -194 80 -194 264s64 264 194 264c80 0 127 -24 162 -54l27 40h96zM270 664c57 0 80 16 80 86h118
c0 -154 -68 -200 -198 -200s-198 46 -198 200h118c0 -70 23 -86 80 -86z" />
    <glyph glyph-name="ainvertedbreve.school" unicode="&#xe054;" horiz-adv-x="549" 
d="M344 137v226s-31 21 -71 21c-74 0 -90 -49 -90 -134c0 -86 16 -134 90 -134c40 0 71 21 71 21zM504 500v-500h-96l-27 40c-35 -30 -82 -54 -162 -54c-130 0 -194 80 -194 264s64 264 194 264c80 0 127 -24 162 -54l27 40h96zM270 636c-57 0 -80 -16 -80 -86h-118
c0 154 68 200 198 200s198 -46 198 -200h-118c0 70 -23 86 -80 86z" />
    <glyph glyph-name="adoublegrave.school" unicode="&#xe055;" horiz-adv-x="549" 
d="M344 137v226s-31 21 -71 21c-74 0 -90 -49 -90 -134c0 -86 16 -134 90 -134c40 0 71 21 71 21zM504 500v-500h-96l-27 40c-35 -30 -82 -54 -162 -54c-130 0 -194 80 -194 264s64 264 194 264c80 0 127 -24 162 -54l27 40h96zM426 550h-120l-105 200h160zM246 550h-120
l-105 200h160z" />
    <glyph glyph-name="adotabove.school" unicode="&#xe056;" horiz-adv-x="549" 
d="M175 645c0 53 41 95 95 95c53 0 95 -42 95 -95c0 -54 -42 -95 -95 -95c-54 0 -95 41 -95 95zM344 137v226s-31 21 -71 21c-74 0 -90 -49 -90 -134c0 -86 16 -134 90 -134c40 0 71 21 71 21zM504 500v-500h-96l-27 40c-35 -30 -82 -54 -162 -54c-130 0 -194 80 -194 264
s64 264 194 264c80 0 127 -24 162 -54l27 40h96z" />
    <glyph glyph-name="aringacute.school" unicode="&#xe057;" horiz-adv-x="549" 
d="M504 500v-500h-96l-27 40c-35 -30 -82 -54 -162 -54c-130 0 -194 80 -194 264s64 264 194 264c80 0 127 -24 162 -54l27 40h96zM376 650c0 -72 -43 -105 -106 -105s-106 33 -106 105c0 13 1 24 4 35l39 140h170l-60 -78c36 -13 59 -45 59 -97zM344 137v226s-31 21 -71 21
c-74 0 -90 -49 -90 -134c0 -86 16 -134 90 -134c40 0 71 21 71 21zM248 650c0 -16 8 -21 22 -21s22 5 22 21s-8 21 -22 21s-22 -5 -22 -21z" />
    <glyph glyph-name="adieresismacron.school" unicode="&#xe058;" horiz-adv-x="549" 
d="M55 625c0 53 41 95 95 95c53 0 95 -42 95 -95c0 -54 -42 -95 -95 -95c-54 0 -95 41 -95 95zM295 625c0 53 41 95 95 95c53 0 95 -42 95 -95c0 -54 -42 -95 -95 -95c-54 0 -95 41 -95 95zM426 855v-120h-312v120h312zM344 137v226s-31 21 -71 21c-74 0 -90 -49 -90 -134
c0 -86 16 -134 90 -134c40 0 71 21 71 21zM504 500v-500h-96l-27 40c-35 -30 -82 -54 -162 -54c-130 0 -194 80 -194 264s64 264 194 264c80 0 127 -24 162 -54l27 40h96z" />
    <glyph glyph-name="aogonek.school" unicode="&#xe059;" horiz-adv-x="549" 
d="M504 500v-500c-71 -15 -113 -65 -113 -102c0 -34 25 -51 59 -51c33 0 58 8 68 12v-90c-14 -7 -41 -19 -100 -19c-75 0 -147 37 -147 123c0 77 61 121 124 146l-14 21c-35 -30 -82 -54 -162 -54c-130 0 -194 80 -194 264s64 264 194 264c80 0 127 -24 162 -54l27 40h96z
M344 137v226s-31 21 -71 21c-74 0 -90 -49 -90 -134c0 -86 16 -134 90 -134c40 0 71 21 71 21z" />
    <glyph glyph-name="g.school" unicode="&#xe05a;" horiz-adv-x="549" 
d="M408 500h96v-528c0 -122 -45 -236 -252 -236c-71 0 -144 10 -193 28v133c71 -26 126 -33 179 -33c68 0 106 26 106 85v69c-30 -18 -70 -32 -125 -32c-130 0 -194 80 -194 264s64 264 194 264c80 0 127 -24 162 -54zM344 137v226s-31 21 -71 21c-74 0 -90 -48 -90 -134
c0 -85 16 -134 90 -134c40 0 71 21 71 21z" />
    <glyph glyph-name="gacute.school" unicode="&#xe05b;" horiz-adv-x="549" 
d="M408 500h96v-528c0 -122 -45 -236 -252 -236c-71 0 -144 10 -193 28v133c71 -26 126 -33 179 -33c68 0 106 26 106 85v69c-30 -18 -70 -32 -125 -32c-130 0 -194 80 -194 264s64 264 194 264c80 0 127 -24 162 -54zM344 137v226s-31 21 -71 21c-74 0 -90 -48 -90 -134
c0 -85 16 -134 90 -134c40 0 71 21 71 21zM325 550h-120l65 200h160z" />
    <glyph glyph-name="gcircumflex.school" unicode="&#xe05c;" horiz-adv-x="549" 
d="M408 500h96v-528c0 -122 -45 -236 -252 -236c-71 0 -144 10 -193 28v133c71 -26 126 -33 179 -33c68 0 106 26 106 85v69c-30 -18 -70 -32 -125 -32c-130 0 -194 80 -194 264s64 264 194 264c80 0 127 -24 162 -54zM344 137v226s-31 21 -71 21c-74 0 -90 -48 -90 -134
c0 -85 16 -134 90 -134c40 0 71 21 71 21zM185 550h-123l133 200h150l133 -200h-123l-85 95z" />
    <glyph glyph-name="gtilde.school" unicode="&#xe05d;" horiz-adv-x="549" 
d="M408 500h96v-528c0 -122 -45 -236 -252 -236c-71 0 -144 10 -193 28v133c71 -26 126 -33 179 -33c68 0 106 26 106 85v69c-30 -18 -70 -32 -125 -32c-130 0 -194 80 -194 264s64 264 194 264c80 0 127 -24 162 -54zM142 573h-87c0 117 44 167 130 167
c95 0 115 -81 164 -81c41 0 49 28 49 58h87c0 -117 -45 -167 -130 -167c-95 0 -115 81 -164 81c-41 0 -49 -28 -49 -58zM344 137v226s-31 21 -71 21c-74 0 -90 -48 -90 -134c0 -85 16 -134 90 -134c40 0 71 21 71 21z" />
    <glyph glyph-name="gcaron.school" unicode="&#xe05e;" horiz-adv-x="549" 
d="M408 500h96v-528c0 -122 -45 -236 -252 -236c-71 0 -144 10 -193 28v133c71 -26 126 -33 179 -33c68 0 106 26 106 85v69c-30 -18 -70 -32 -125 -32c-130 0 -194 80 -194 264s64 264 194 264c80 0 127 -24 162 -54zM344 137v226s-31 21 -71 21c-74 0 -90 -48 -90 -134
c0 -85 16 -134 90 -134c40 0 71 21 71 21zM355 750h123l-133 -200h-150l-133 200h123l85 -95z" />
    <glyph glyph-name="gbreve.school" unicode="&#xe05f;" horiz-adv-x="549" 
d="M408 500h96v-528c0 -122 -45 -236 -252 -236c-71 0 -144 10 -193 28v133c71 -26 126 -33 179 -33c68 0 106 26 106 85v69c-30 -18 -70 -32 -125 -32c-130 0 -194 80 -194 264s64 264 194 264c80 0 127 -24 162 -54zM344 137v226s-31 21 -71 21c-74 0 -90 -48 -90 -134
c0 -85 16 -134 90 -134c40 0 71 21 71 21zM270 664c57 0 80 16 80 86h118c0 -154 -68 -200 -198 -200s-198 46 -198 200h118c0 -70 23 -86 80 -86z" />
    <glyph glyph-name="gdotaccent.school" unicode="&#xe060;" horiz-adv-x="549" 
d="M408 500h96v-528c0 -122 -45 -236 -252 -236c-71 0 -144 10 -193 28v133c71 -26 126 -33 179 -33c68 0 106 26 106 85v69c-30 -18 -70 -32 -125 -32c-130 0 -194 80 -194 264s64 264 194 264c80 0 127 -24 162 -54zM344 137v226s-31 21 -71 21c-74 0 -90 -48 -90 -134
c0 -85 16 -134 90 -134c40 0 71 21 71 21zM175 645c0 53 41 95 95 95c53 0 95 -42 95 -95c0 -54 -42 -95 -95 -95c-54 0 -95 41 -95 95z" />
    <glyph glyph-name="gcommaaccent.school" unicode="&#xe061;" horiz-adv-x="549" 
d="M408 500h96v-528c0 -122 -45 -236 -252 -236c-71 0 -144 10 -193 28v133c71 -26 126 -33 179 -33c68 0 106 26 106 85v69c-30 -18 -70 -32 -125 -32c-130 0 -194 80 -194 264s64 264 194 264c80 0 127 -24 162 -54zM344 137v226s-31 21 -71 21c-74 0 -90 -48 -90 -134
c0 -85 16 -134 90 -134c40 0 71 21 71 21zM240 750h121l-24 -200h-158z" />
    <glyph glyph-name="gcommaturnedabove.school" unicode="&#xe062;" horiz-adv-x="549" 
d="M408 500h96v-528c0 -122 -45 -236 -252 -236c-71 0 -144 10 -193 28v133c71 -26 126 -33 179 -33c68 0 106 26 106 85v69c-30 -18 -70 -32 -125 -32c-130 0 -194 80 -194 264s64 264 194 264c80 0 127 -24 162 -54zM344 137v226s-31 21 -71 21c-74 0 -90 -48 -90 -134
c0 -85 16 -134 90 -134c40 0 71 21 71 21zM240 750h121l-24 -200h-158z" />
    <glyph glyph-name="gstroke.school" unicode="&#xe063;" horiz-adv-x="549" 
d="M408 500h96v-525h80v-90h-90c-22 -84 -86 -149 -242 -149c-71 0 -144 10 -193 28v133c71 -26 126 -33 179 -33c34 0 61 7 79 21h-75v90h102v43c-30 -18 -70 -32 -125 -32c-130 0 -194 80 -194 264s64 264 194 264c80 0 127 -24 162 -54zM344 137v226s-31 21 -71 21
c-74 0 -90 -48 -90 -134c0 -85 16 -134 90 -134c40 0 71 21 71 21z" />
    <glyph glyph-name="y.school" unicode="&#xe064;" horiz-adv-x="550" 
d="M505 -28c0 -122 -45 -236 -252 -236c-71 0 -144 10 -193 28v133c71 -26 126 -33 179 -33c68 0 106 26 106 85v64c-44 -18 -89 -27 -130 -27c-136 0 -175 72 -175 168v346h160v-322c0 -37 13 -62 56 -62c39 0 74 16 89 26v358h160v-528z" />
    <glyph glyph-name="yacute.school" unicode="&#xe065;" horiz-adv-x="550" 
d="M505 -28c0 -122 -45 -236 -252 -236c-71 0 -144 10 -193 28v133c71 -26 126 -33 179 -33c68 0 106 26 106 85v64c-44 -18 -89 -27 -130 -27c-136 0 -175 72 -175 168v346h160v-322c0 -37 13 -62 56 -62c39 0 74 16 89 26v358h160v-528zM327 550h-120l65 200h160z" />
    <glyph glyph-name="ygrave.school" unicode="&#xe066;" horiz-adv-x="550" 
d="M505 -28c0 -122 -45 -236 -252 -236c-71 0 -144 10 -193 28v133c71 -26 126 -33 179 -33c68 0 106 26 106 85v64c-44 -18 -89 -27 -130 -27c-136 0 -175 72 -175 168v346h160v-322c0 -37 13 -62 56 -62c39 0 74 16 89 26v358h160v-528zM337 550h-120l-105 200h160z" />
    <glyph glyph-name="ycircumflex.school" unicode="&#xe067;" horiz-adv-x="550" 
d="M505 -28c0 -122 -45 -236 -252 -236c-71 0 -144 10 -193 28v133c71 -26 126 -33 179 -33c68 0 106 26 106 85v64c-44 -18 -89 -27 -130 -27c-136 0 -175 72 -175 168v346h160v-322c0 -37 13 -62 56 -62c39 0 74 16 89 26v358h160v-528zM187 550h-123l133 200h150
l133 -200h-123l-85 95z" />
    <glyph glyph-name="ydieresis.school" unicode="&#xe068;" horiz-adv-x="550" 
d="M505 -28c0 -122 -45 -236 -252 -236c-71 0 -144 10 -193 28v133c71 -26 126 -33 179 -33c68 0 106 26 106 85v64c-44 -18 -89 -27 -130 -27c-136 0 -175 72 -175 168v346h160v-322c0 -37 13 -62 56 -62c39 0 74 16 89 26v358h160v-528zM57 645c0 53 41 95 95 95
c53 0 95 -42 95 -95c0 -54 -42 -95 -95 -95c-54 0 -95 41 -95 95zM297 645c0 53 41 95 95 95c53 0 95 -42 95 -95c0 -54 -42 -95 -95 -95c-54 0 -95 41 -95 95z" />
    <glyph glyph-name="ytilde.school" unicode="&#xe069;" horiz-adv-x="550" 
d="M505 -28c0 -122 -45 -236 -252 -236c-71 0 -144 10 -193 28v133c71 -26 126 -33 179 -33c68 0 106 26 106 85v64c-44 -18 -89 -27 -130 -27c-136 0 -175 72 -175 168v346h160v-322c0 -37 13 -62 56 -62c39 0 74 16 89 26v358h160v-528zM144 573h-87c0 117 44 167 130 167
c95 0 115 -81 164 -81c41 0 49 28 49 58h87c0 -117 -45 -167 -130 -167c-95 0 -115 81 -164 81c-41 0 -49 -28 -49 -58z" />
    <glyph glyph-name="ymacron.school" unicode="&#xe06a;" horiz-adv-x="550" 
d="M505 -28c0 -122 -45 -236 -252 -236c-71 0 -144 10 -193 28v133c71 -26 126 -33 179 -33c68 0 106 26 106 85v64c-44 -18 -89 -27 -130 -27c-136 0 -175 72 -175 168v346h160v-322c0 -37 13 -62 56 -62c39 0 74 16 89 26v358h160v-528zM428 705v-120h-312v120h312z" />
    <glyph glyph-name="ordfeminine.school" unicode="&#xe06b;" horiz-adv-x="443" 
d="M163 565c0 -71 24 -90 56 -90c27 0 42 7 51 12v153c-9 6 -24 13 -51 13c-32 0 -56 -20 -56 -88zM403 752v-376h-103l-11 22c-41 -26 -75 -35 -113 -35c-96 4 -146 59 -146 202c0 145 53 199 155 199c35 0 66 -12 104 -34l11 22h103z" />
    <glyph glyph-name="a.small" unicode="&#xe06c;" horiz-adv-x="566" 
d="M561 0h-185l-20 80h-146l-20 -80h-185l175 508h206zM283 380l-45 -186h90z" />
    <glyph glyph-name="b.small" unicode="&#xe06d;" horiz-adv-x="530" 
d="M55 0v500h254c131 0 179 -53 179 -135c0 -41 -20 -75 -37 -85c37 -16 57 -65 57 -111c0 -96 -47 -169 -185 -169h-268zM341 164c0 34 -13 45 -37 45h-91v-89h91c24 0 37 16 37 44zM326 338c0 31 -13 42 -37 42h-76v-85h77c23 0 36 12 36 43z" />
    <glyph glyph-name="c.small" unicode="&#xe06e;" horiz-adv-x="492" 
d="M40 250c0 179 85 264 247 264c69 0 128 -13 164 -28v-142c-28 11 -74 26 -130 26c-75 0 -123 -34 -123 -120s48 -120 123 -120c56 0 102 15 130 26v-142c-36 -15 -95 -28 -164 -28c-162 0 -247 85 -247 264z" />
    <glyph glyph-name="d.small" unicode="&#xe06f;" horiz-adv-x="558" 
d="M276 0h-221v500h221c175 0 246 -97 246 -250s-71 -250 -246 -250zM213 140h59c71 0 92 48 92 110s-21 110 -92 110h-59v-220z" />
    <glyph glyph-name="e.small" unicode="&#xe070;" 
d="M424 313v-126h-211v-55h239v-132h-397v500h397v-132h-239v-55h211z" />
    <glyph glyph-name="f.small" unicode="&#xe071;" horiz-adv-x="472" 
d="M414 305v-126h-201v-179h-159v500h388v-132h-229v-63h201z" />
    <glyph glyph-name="g.small" unicode="&#xe072;" horiz-adv-x="550" 
d="M300 125c27 0 48 4 49 5v59h-58v116h212v-283c-52 -23 -128 -35 -193 -35c-187 0 -270 82 -270 263c0 168 70 263 273 263c87 0 143 -12 180 -28v-139c-39 13 -94 26 -159 26c-86 0 -135 -23 -135 -122c0 -92 38 -125 101 -125z" />
    <glyph glyph-name="h.small" unicode="&#xe073;" horiz-adv-x="590" 
d="M535 0h-158v189h-164v-189h-158v500h158v-175h164v175h158v-500z" />
    <glyph glyph-name="i.small" unicode="&#xe074;" horiz-adv-x="270" 
d="M213 0h-158v500h158v-500z" />
    <glyph glyph-name="j.small" unicode="&#xe075;" horiz-adv-x="399" 
d="M26 2v141c28 -8 60 -13 91 -13c48 0 74 19 74 53v317h158v-327c0 -110 -70 -187 -216 -187c-34 0 -81 7 -107 16z" />
    <glyph glyph-name="k.small" unicode="&#xe076;" horiz-adv-x="577" 
d="M543 500l-196 -217l216 -283h-201l-119 169l-35 -39v-130h-153v500h153v-168l133 168h202z" />
    <glyph glyph-name="l.small" unicode="&#xe077;" horiz-adv-x="472" 
d="M213 500v-358h239v-142h-397v500h158z" />
    <glyph glyph-name="m.small" unicode="&#xe078;" horiz-adv-x="708" 
d="M503 266l-87 -218h-124l-87 218l2 -266h-152v500h196l103 -259l103 259h196v-500h-152z" />
    <glyph glyph-name="n.small" unicode="&#xe079;" horiz-adv-x="600" 
d="M545 0h-117l-222 253l4 -253h-155v500h117l222 -253l-4 253h155v-500z" />
    <glyph glyph-name="o.small" unicode="&#xe07a;" horiz-adv-x="610" 
d="M305 121c73 0 106 38 106 129s-33 129 -106 129s-106 -38 -106 -129s33 -129 106 -129zM305 -14c-180 0 -265 85 -265 264s85 264 265 264s265 -85 265 -264s-85 -264 -265 -264z" />
    <glyph glyph-name="p.small" unicode="&#xe07b;" horiz-adv-x="519" 
d="M310 141h-97v-141h-158v500h255c139 0 188 -72 188 -179c0 -108 -50 -180 -188 -180zM337 317c0 45 -20 53 -40 53h-84v-105h84c20 0 40 8 40 52z" />
    <glyph glyph-name="q.small" unicode="&#xe07c;" horiz-adv-x="610" 
d="M190 1c-102 31 -150 113 -150 249c0 179 85 264 265 264s265 -85 265 -264c0 -98 -26 -168 -79 -211h1v-1l173 -40v-161zM305 121c73 0 106 38 106 129s-33 129 -106 129s-106 -38 -106 -129s33 -129 106 -129z" />
    <glyph glyph-name="r.small" unicode="&#xe07d;" horiz-adv-x="555" 
d="M276 159h-62v-159h-159v500h269c138 0 184 -77 184 -174c0 -53 -20 -116 -75 -145l86 -181h-186zM338 327c0 26 -14 43 -37 43h-87v-85h87c23 0 37 14 37 42z" />
    <glyph glyph-name="s.small" unicode="&#xe07e;" 
d="M257 374c-40 0 -59 -10 -59 -29c0 -22 18 -29 63 -33c159 -16 201 -35 201 -157c0 -97 -60 -169 -230 -169c-49 0 -143 13 -183 32v143c51 -19 124 -35 184 -35c52 0 71 11 71 30c0 23 -19 32 -63 36c-154 16 -198 42 -198 153c0 110 68 169 215 169
c49 0 142 -13 183 -32v-143c-51 20 -123 35 -184 35z" />
    <glyph glyph-name="t.small" unicode="&#xe07f;" 
d="M479 360h-150v-360h-158v360h-150v140h458v-140z" />
    <glyph glyph-name="u.small" unicode="&#xe080;" horiz-adv-x="580" 
d="M290 -14c-156 0 -240 67 -240 184v330h159v-309c0 -40 25 -62 81 -62s81 22 81 62v309h159v-330c0 -117 -84 -184 -240 -184z" />
    <glyph glyph-name="v.small" unicode="&#xe081;" horiz-adv-x="566" 
d="M386 500h175l-210 -508h-136l-210 508h176l102 -295z" />
    <glyph glyph-name="w.small" unicode="&#xe082;" horiz-adv-x="750" 
d="M458 -8l-83 298l-83 -298h-170l-121 508h180l47 -276l72 276h150l72 -276l47 276h180l-121 -508h-170z" />
    <glyph glyph-name="x.small" unicode="&#xe083;" horiz-adv-x="600" 
d="M385 0l-85 144l-85 -144h-200l185 260l-175 240h195l80 -136l80 136h195l-175 -240l185 -260h-200z" />
    <glyph glyph-name="y.small" unicode="&#xe084;" horiz-adv-x="580" 
d="M388 500h190l-211 -330l2 -170h-158l2 170l-211 330h190l98 -194z" />
    <glyph glyph-name="z.small" unicode="&#xe085;" horiz-adv-x="558" 
d="M518 0h-478v105l229 249l-211 -2v148h442v-105l-229 -249l247 2v-148z" />
    <glyph glyph-name="aacute.small" unicode="&#xe086;" horiz-adv-x="566" 
d="M343 550h-120l65 200h160zM561 0h-185l-20 80h-146l-20 -80h-185l175 508h206zM283 380l-45 -186h90z" />
    <glyph glyph-name="agrave.small" unicode="&#xe087;" horiz-adv-x="566" 
d="M339 550h-120l-105 200h160zM561 0h-185l-20 80h-146l-20 -80h-185l175 508h206zM283 380l-45 -186h90z" />
    <glyph glyph-name="acircumflex.small" unicode="&#xe088;" horiz-adv-x="566" 
d="M199 550h-123l133 200h150l133 -200h-123l-85 95zM561 0h-185l-20 80h-146l-20 -80h-185l175 508h206zM283 380l-45 -186h90z" />
    <glyph glyph-name="adieresis.small" unicode="&#xe089;" horiz-adv-x="566" 
d="M68 645c0 53 41 95 95 95c53 0 95 -42 95 -95c0 -54 -42 -95 -95 -95c-54 0 -95 41 -95 95zM308 645c0 53 41 95 95 95c53 0 95 -42 95 -95c0 -54 -42 -95 -95 -95c-54 0 -95 41 -95 95zM561 0h-185l-20 80h-146l-20 -80h-185l175 508h206zM283 380l-45 -186h90z" />
    <glyph glyph-name="atilde.small" unicode="&#xe08a;" horiz-adv-x="566" 
d="M155 573h-87c0 117 44 167 130 167c95 0 115 -81 164 -81c41 0 49 28 49 58h87c0 -117 -45 -167 -130 -167c-95 0 -115 81 -164 81c-41 0 -49 -28 -49 -58zM561 0h-185l-20 80h-146l-20 -80h-185l175 508h206zM283 380l-45 -186h90z" />
    <glyph glyph-name="aring.small" unicode="&#xe08b;" horiz-adv-x="566" 
d="M389 650c0 -72 -43 -105 -106 -105s-106 33 -106 105s43 105 106 105s106 -33 106 -105zM261 650c0 -16 8 -21 22 -21s22 5 22 21s-8 21 -22 21s-22 -5 -22 -21zM561 0h-185l-20 80h-146l-20 -80h-185l175 508h206zM283 380l-45 -186h90z" />
    <glyph glyph-name="acaron.small" unicode="&#xe08c;" horiz-adv-x="566" 
d="M368 750h123l-133 -200h-150l-133 200h123l85 -95zM561 0h-185l-20 80h-146l-20 -80h-185l175 508h206zM283 380l-45 -186h90z" />
    <glyph glyph-name="amacron.small" unicode="&#xe08d;" horiz-adv-x="566" 
d="M439 705v-120h-312v120h312zM561 0h-185l-20 80h-146l-20 -80h-185l175 508h206zM283 380l-45 -186h90z" />
    <glyph glyph-name="abreve.small" unicode="&#xe08e;" horiz-adv-x="566" 
d="M283 664c57 0 80 16 80 86h118c0 -154 -68 -200 -198 -200s-198 46 -198 200h118c0 -70 23 -86 80 -86zM561 0h-185l-20 80h-146l-20 -80h-185l175 508h206zM283 380l-45 -186h90z" />
    <glyph glyph-name="ainvertedbreve.small" unicode="&#xe08f;" horiz-adv-x="566" 
d="M283 636c-57 0 -80 -16 -80 -86h-118c0 154 68 200 198 200s198 -46 198 -200h-118c0 70 -23 86 -80 86zM561 0h-185l-20 80h-146l-20 -80h-185l175 508h206zM283 380l-45 -186h90z" />
    <glyph glyph-name="adoublegrave.small" unicode="&#xe090;" horiz-adv-x="566" 
d="M439 550h-120l-105 200h160zM259 550h-120l-105 200h160zM561 0h-185l-20 80h-146l-20 -80h-185l175 508h206zM283 380l-45 -186h90z" />
    <glyph glyph-name="adotabove.small" unicode="&#xe091;" horiz-adv-x="566" 
d="M188 645c0 53 41 95 95 95c53 0 95 -42 95 -95c0 -54 -42 -95 -95 -95c-54 0 -95 41 -95 95zM561 0h-185l-20 80h-146l-20 -80h-185l175 508h206zM283 380l-45 -186h90z" />
    <glyph glyph-name="aringacute.small" unicode="&#xe092;" horiz-adv-x="566" 
d="M389 650c0 -72 -43 -105 -106 -105s-106 33 -106 105c0 13 1 24 4 35l39 140h170l-60 -78c36 -13 59 -45 59 -97zM261 650c0 -16 8 -21 22 -21s22 5 22 21s-8 21 -22 21s-22 -5 -22 -21zM561 0h-185l-20 80h-146l-20 -80h-185l175 508h206zM283 380l-45 -186h90z" />
    <glyph glyph-name="adieresismacron.small" unicode="&#xe093;" horiz-adv-x="566" 
d="M68 625c0 53 41 95 95 95c53 0 95 -42 95 -95c0 -54 -42 -95 -95 -95c-54 0 -95 41 -95 95zM308 625c0 53 41 95 95 95c53 0 95 -42 95 -95c0 -54 -42 -95 -95 -95c-54 0 -95 41 -95 95zM439 855v-120h-312v120h312zM561 0h-185l-20 80h-146l-20 -80h-185l175 508h206z
M283 380l-45 -186h90z" />
    <glyph glyph-name="aogonek.small" unicode="&#xe094;" horiz-adv-x="566" 
d="M561 0c-71 -15 -113 -65 -113 -102c0 -34 25 -51 59 -51c33 0 58 8 68 12v-90c-14 -7 -41 -19 -100 -19c-75 0 -147 37 -147 123c0 46 22 80 53 106l-25 101h-146l-20 -80h-185l175 508h206zM283 380l-45 -186h90z" />
    <glyph glyph-name="anocross.small" unicode="&#xe095;" horiz-adv-x="566" 
d="M283 380l-93 -380h-185l175 508h206l175 -508h-185z" />
    <glyph glyph-name="ae.small" unicode="&#xe096;" horiz-adv-x="770" 
d="M703 313v-126h-197l11 -55h214v-132h-355l-14 80h-153l-28 -80h-181l225 500h506v-132h-262l11 -55h223zM309 371l-61 -177h91z" />
    <glyph glyph-name="aeacute.small" unicode="&#xe097;" horiz-adv-x="770" 
d="M419 550h-120l65 200h160zM703 313v-126h-197l11 -55h214v-132h-355l-14 80h-153l-28 -80h-181l225 500h506v-132h-262l11 -55h223zM309 371l-61 -177h91z" />
    <glyph glyph-name="aemacron.small" unicode="&#xe098;" horiz-adv-x="770" 
d="M520 705v-120h-312v120h312zM703 313v-126h-197l11 -55h214v-132h-355l-14 80h-153l-28 -80h-181l225 500h506v-132h-262l11 -55h223zM309 371l-61 -177h91z" />
    <glyph glyph-name="cacute.small" unicode="&#xe099;" horiz-adv-x="493" 
d="M41 250c0 179 85 264 247 264c69 0 128 -13 164 -28v-142c-28 11 -74 26 -130 26c-75 0 -123 -34 -123 -120s48 -120 123 -120c56 0 102 15 130 26v-142c-36 -15 -95 -28 -164 -28c-162 0 -247 85 -247 264zM325 550h-120l65 200h160z" />
    <glyph glyph-name="ccircumflex.small" unicode="&#xe09a;" horiz-adv-x="493" 
d="M41 250c0 179 85 264 247 264c69 0 128 -13 164 -28v-142c-28 11 -74 26 -130 26c-75 0 -123 -34 -123 -120s48 -120 123 -120c56 0 102 15 130 26v-142c-36 -15 -95 -28 -164 -28c-162 0 -247 85 -247 264zM185 550h-123l133 200h150l133 -200h-123l-85 95z" />
    <glyph glyph-name="ccaron.small" unicode="&#xe09b;" horiz-adv-x="493" 
d="M41 250c0 179 85 264 247 264c69 0 128 -13 164 -28v-142c-28 11 -74 26 -130 26c-75 0 -123 -34 -123 -120s48 -120 123 -120c56 0 102 15 130 26v-142c-36 -15 -95 -28 -164 -28c-162 0 -247 85 -247 264zM355 750h123l-133 -200h-150l-133 200h123l85 -95z" />
    <glyph glyph-name="cdotaccent.small" unicode="&#xe09c;" horiz-adv-x="493" 
d="M175 645c0 53 41 95 95 95c53 0 95 -42 95 -95c0 -54 -42 -95 -95 -95c-54 0 -95 41 -95 95zM41 250c0 179 85 264 247 264c69 0 128 -13 164 -28v-142c-28 11 -74 26 -130 26c-75 0 -123 -34 -123 -120s48 -120 123 -120c56 0 102 15 130 26v-142
c-36 -15 -95 -28 -164 -28c-162 0 -247 85 -247 264z" />
    <glyph glyph-name="ccedilla.small" unicode="&#xe09d;" horiz-adv-x="493" 
d="M225 -94l9 84c-127 17 -193 102 -193 260c0 179 85 264 247 264c69 0 128 -13 164 -28v-142c-28 11 -74 26 -130 26c-75 0 -123 -34 -123 -120s48 -120 123 -120c56 0 102 15 130 26v-142c-33 -14 -85 -26 -146 -28l3 -43c61 -14 90 -41 90 -88c0 -76 -58 -105 -128 -105
c-43 0 -83 10 -100 19v91c18 -6 52 -15 87 -15c23 0 38 6 38 23c0 14 -9 29 -71 38z" />
    <glyph glyph-name="dcaron.small" unicode="&#xe09e;" horiz-adv-x="558" 
d="M276 0h-221v500h221c175 0 246 -97 246 -250s-71 -250 -246 -250zM213 140h59c71 0 92 48 92 110s-21 110 -92 110h-59v-220zM355 750h123l-133 -200h-150l-133 200h123l85 -95z" />
    <glyph glyph-name="dcedilla.small" unicode="&#xe09f;" horiz-adv-x="558" 
d="M276 0h-221v500h221c175 0 246 -97 246 -250s-71 -250 -246 -250zM213 140h59c71 0 92 48 92 110s-21 110 -92 110h-59v-220zM215 -94l6 56c140 -10 168 -60 168 -107c0 -76 -58 -105 -128 -105c-43 0 -83 10 -100 19v91c18 -6 52 -15 87 -15c23 0 38 6 38 23
c0 14 -9 29 -71 38z" />
    <glyph glyph-name="ddotbelow.small" unicode="&#xe0a0;" horiz-adv-x="558" 
d="M175 -150c0 53 41 95 95 95c53 0 95 -42 95 -95c0 -54 -42 -95 -95 -95c-54 0 -95 41 -95 95zM276 0h-221v500h221c175 0 246 -97 246 -250s-71 -250 -246 -250zM213 140h59c71 0 92 48 92 110s-21 110 -92 110h-59v-220z" />
    <glyph glyph-name="dcroat.small" unicode="&#xe0a1;" horiz-adv-x="596" 
d="M25 191v120h68v189h221c175 0 246 -97 246 -250s-71 -250 -246 -250h-221v191h-68zM251 140h59c71 0 92 48 92 110s-21 110 -92 110h-59v-49h83v-120h-83v-51z" />
    <glyph glyph-name="eacute.small" unicode="&#xe0a2;" 
d="M312 550h-120l65 200h160zM424 313v-126h-211v-55h239v-132h-397v500h397v-132h-239v-55h211z" />
    <glyph glyph-name="egrave.small" unicode="&#xe0a3;" 
d="M322 550h-120l-105 200h160zM424 313v-126h-211v-55h239v-132h-397v500h397v-132h-239v-55h211z" />
    <glyph glyph-name="ecircumflex.small" unicode="&#xe0a4;" 
d="M172 550h-123l133 200h150l133 -200h-123l-85 95zM424 313v-126h-211v-55h239v-132h-397v500h397v-132h-239v-55h211z" />
    <glyph glyph-name="edieresis.small" unicode="&#xe0a5;" 
d="M42 645c0 53 41 95 95 95c53 0 95 -42 95 -95c0 -54 -42 -95 -95 -95c-54 0 -95 41 -95 95zM282 645c0 53 41 95 95 95c53 0 95 -42 95 -95c0 -54 -42 -95 -95 -95c-54 0 -95 41 -95 95zM424 313v-126h-211v-55h239v-132h-397v500h397v-132h-239v-55h211z" />
    <glyph glyph-name="ecaron.small" unicode="&#xe0a6;" 
d="M342 750h123l-133 -200h-150l-133 200h123l85 -95zM424 313v-126h-211v-55h239v-132h-397v500h397v-132h-239v-55h211z" />
    <glyph glyph-name="emacron.small" unicode="&#xe0a7;" 
d="M413 705v-120h-312v120h312zM424 313v-126h-211v-55h239v-132h-397v500h397v-132h-239v-55h211z" />
    <glyph glyph-name="ebreve.small" unicode="&#xe0a8;" 
d="M257 664c57 0 80 16 80 86h118c0 -154 -68 -200 -198 -200s-198 46 -198 200h118c0 -70 23 -86 80 -86zM424 313v-126h-211v-55h239v-132h-397v500h397v-132h-239v-55h211z" />
    <glyph glyph-name="einvertedbreve.small" unicode="&#xe0a9;" 
d="M257 636c-57 0 -80 -16 -80 -86h-118c0 154 68 200 198 200s198 -46 198 -200h-118c0 70 -23 86 -80 86zM424 313v-126h-211v-55h239v-132h-397v500h397v-132h-239v-55h211z" />
    <glyph glyph-name="edoublegrave.small" unicode="&#xe0aa;" 
d="M412 550h-120l-105 200h160zM232 550h-120l-105 200h160zM424 313v-126h-211v-55h239v-132h-397v500h397v-132h-239v-55h211z" />
    <glyph glyph-name="edotaccent.small" unicode="&#xe0ab;" 
d="M162 645c0 53 41 95 95 95c53 0 95 -42 95 -95c0 -54 -42 -95 -95 -95c-54 0 -95 41 -95 95zM424 313v-126h-211v-55h239v-132h-397v500h397v-132h-239v-55h211z" />
    <glyph glyph-name="eacutedotbelow.small" unicode="&#xe0ac;" 
d="M162 -150c0 53 41 95 95 95c53 0 95 -42 95 -95c0 -54 -42 -95 -95 -95c-54 0 -95 41 -95 95zM312 550h-120l65 200h160zM424 313v-126h-211v-55h239v-132h-397v500h397v-132h-239v-55h211z" />
    <glyph glyph-name="egravedotbelow.small" unicode="&#xe0ad;" 
d="M162 -150c0 53 41 95 95 95c53 0 95 -42 95 -95c0 -54 -42 -95 -95 -95c-54 0 -95 41 -95 95zM322 550h-120l-105 200h160zM424 313v-126h-211v-55h239v-132h-397v500h397v-132h-239v-55h211z" />
    <glyph glyph-name="eogonek.small" unicode="&#xe0ae;" 
d="M424 313v-126h-211v-55h239v-132c-71 -15 -113 -65 -113 -102c0 -34 25 -51 59 -51c33 0 58 8 68 12v-90c-14 -7 -41 -19 -100 -19c-75 0 -147 37 -147 123c0 60 37 100 84 127h-248v500h397v-132h-239v-55h211z" />
    <glyph glyph-name="gacute.small" unicode="&#xe0af;" horiz-adv-x="550" 
d="M356 550h-120l65 200h160zM300 125c27 0 48 4 49 5v59h-58v116h212v-283c-52 -23 -128 -35 -193 -35c-187 0 -270 82 -270 263c0 168 70 263 273 263c87 0 143 -12 180 -28v-139c-39 13 -94 26 -159 26c-86 0 -135 -23 -135 -122c0 -92 38 -125 101 -125z" />
    <glyph glyph-name="gcircumflex.small" unicode="&#xe0b0;" horiz-adv-x="550" 
d="M216 550h-123l133 200h150l133 -200h-123l-85 95zM300 125c27 0 48 4 49 5v59h-58v116h212v-283c-52 -23 -128 -35 -193 -35c-187 0 -270 82 -270 263c0 168 70 263 273 263c87 0 143 -12 180 -28v-139c-39 13 -94 26 -159 26c-86 0 -135 -23 -135 -122
c0 -92 38 -125 101 -125z" />
    <glyph glyph-name="gtilde.small" unicode="&#xe0b1;" horiz-adv-x="550" 
d="M173 573h-87c0 117 44 167 130 167c95 0 115 -81 164 -81c41 0 49 28 49 58h87c0 -117 -45 -167 -130 -167c-95 0 -115 81 -164 81c-41 0 -49 -28 -49 -58zM300 125c27 0 48 4 49 5v59h-58v116h212v-283c-52 -23 -128 -35 -193 -35c-187 0 -270 82 -270 263
c0 168 70 263 273 263c87 0 143 -12 180 -28v-139c-39 13 -94 26 -159 26c-86 0 -135 -23 -135 -122c0 -92 38 -125 101 -125z" />
    <glyph glyph-name="gcaron.small" unicode="&#xe0b2;" horiz-adv-x="550" 
d="M386 750h123l-133 -200h-150l-133 200h123l85 -95zM300 125c27 0 48 4 49 5v59h-58v116h212v-283c-52 -23 -128 -35 -193 -35c-187 0 -270 82 -270 263c0 168 70 263 273 263c87 0 143 -12 180 -28v-139c-39 13 -94 26 -159 26c-86 0 -135 -23 -135 -122
c0 -92 38 -125 101 -125z" />
    <glyph glyph-name="gbreve.small" unicode="&#xe0b3;" horiz-adv-x="550" 
d="M301 664c57 0 80 16 80 86h118c0 -154 -68 -200 -198 -200s-198 46 -198 200h118c0 -70 23 -86 80 -86zM300 125c27 0 48 4 49 5v59h-58v116h212v-283c-52 -23 -128 -35 -193 -35c-187 0 -270 82 -270 263c0 168 70 263 273 263c87 0 143 -12 180 -28v-139
c-39 13 -94 26 -159 26c-86 0 -135 -23 -135 -122c0 -92 38 -125 101 -125z" />
    <glyph glyph-name="gdotaccent.small" unicode="&#xe0b4;" horiz-adv-x="550" 
d="M206 645c0 53 41 95 95 95c53 0 95 -42 95 -95c0 -54 -42 -95 -95 -95c-54 0 -95 41 -95 95zM300 125c27 0 48 4 49 5v59h-58v116h212v-283c-52 -23 -128 -35 -193 -35c-187 0 -270 82 -270 263c0 168 70 263 273 263c87 0 143 -12 180 -28v-139c-39 13 -94 26 -159 26
c-86 0 -135 -23 -135 -122c0 -92 38 -125 101 -125z" />
    <glyph glyph-name="gcommaaccent.small" unicode="&#xe0b5;" horiz-adv-x="550" 
d="M331 -250h-121l24 200h158zM300 125c27 0 48 4 49 5v59h-58v116h212v-283c-52 -23 -128 -35 -193 -35c-187 0 -270 82 -270 263c0 168 70 263 273 263c87 0 143 -12 180 -28v-139c-39 13 -94 26 -159 26c-86 0 -135 -23 -135 -122c0 -92 38 -125 101 -125z" />
    <glyph glyph-name="gcommaturnedabove.small" unicode="&#xe0b6;" horiz-adv-x="550" 
d="M281 750h121l-24 -200h-158zM300 125c27 0 48 4 49 5v59h-58v116h212v-283c-52 -23 -128 -35 -193 -35c-187 0 -270 82 -270 263c0 168 70 263 273 263c87 0 143 -12 180 -28v-139c-39 13 -94 26 -159 26c-86 0 -135 -23 -135 -122c0 -92 38 -125 101 -125z" />
    <glyph glyph-name="gstroke.small" unicode="&#xe0b7;" horiz-adv-x="597" 
d="M300 125c27 0 48 4 49 5v59h-58v116h212v-94h69v-120h-69v-69c-52 -23 -128 -35 -193 -35c-187 0 -270 82 -270 263c0 168 70 263 273 263c87 0 143 -12 180 -28v-139c-39 13 -94 26 -159 26c-86 0 -135 -23 -135 -122c0 -92 38 -125 101 -125z" />
    <glyph glyph-name="hcircumflex.small" unicode="&#xe0b8;" horiz-adv-x="590" 
d="M535 0h-158v189h-164v-189h-158v500h158v-175h164v175h158v-500zM210 550h-123l133 200h150l133 -200h-123l-85 95z" />
    <glyph glyph-name="hcaron.small" unicode="&#xe0b9;" horiz-adv-x="590" 
d="M535 0h-158v189h-164v-189h-158v500h158v-175h164v175h158v-500zM380 750h123l-133 -200h-150l-133 200h123l85 -95z" />
    <glyph glyph-name="hdotbelow.small" unicode="&#xe0ba;" horiz-adv-x="590" 
d="M200 -150c0 53 41 95 95 95c53 0 95 -42 95 -95c0 -54 -42 -95 -95 -95c-54 0 -95 41 -95 95zM535 0h-158v189h-164v-189h-158v500h158v-175h164v175h158v-500z" />
    <glyph glyph-name="hmacronbelow.small" unicode="&#xe0bb;" horiz-adv-x="590" 
d="M451 -90v-120h-312v120h312zM535 0h-158v189h-164v-189h-158v500h158v-175h164v175h158v-500z" />
    <glyph glyph-name="hbar.small" unicode="&#xe0bc;" horiz-adv-x="590" 
d="M535 0h-158v125h-164v-125h-158v500h158v-95h164v95h158v-500zM213 285v-40h164v40h-164z" />
    <glyph glyph-name="iacute.small" unicode="&#xe0bd;" horiz-adv-x="270" 
d="M213 0h-158v500h158v-500zM194 550h-120l65 200h160z" />
    <glyph glyph-name="igrave.small" unicode="&#xe0be;" horiz-adv-x="270" 
d="M213 0h-158v500h158v-500zM194 550h-120l-105 200h160z" />
    <glyph glyph-name="icircumflex.small" unicode="&#xe0bf;" horiz-adv-x="270" 
d="M213 0h-158v500h158v-500zM49 550h-123l133 200h150l133 -200h-123l-85 95z" />
    <glyph glyph-name="idieresis.small" unicode="&#xe0c0;" horiz-adv-x="270" 
d="M-71 645c0 53 41 95 95 95c53 0 95 -42 95 -95c0 -54 -42 -95 -95 -95c-54 0 -95 41 -95 95zM149 645c0 53 41 95 95 95c53 0 95 -42 95 -95c0 -54 -42 -95 -95 -95c-54 0 -95 41 -95 95zM213 0h-158v500h158v-500z" />
    <glyph glyph-name="itilde.small" unicode="&#xe0c1;" horiz-adv-x="270" 
d="M6 573h-87c0 117 44 167 130 167c95 0 115 -81 164 -81c41 0 49 28 49 58h87c0 -117 -45 -167 -130 -167c-95 0 -115 81 -164 81c-41 0 -49 -28 -49 -58zM213 0h-158v500h158v-500z" />
    <glyph glyph-name="icaron.small" unicode="&#xe0c2;" horiz-adv-x="270" 
d="M213 0h-158v500h158v-500zM219 750h123l-133 -200h-150l-133 200h123l85 -95z" />
    <glyph glyph-name="imacron.small" unicode="&#xe0c3;" horiz-adv-x="270" 
d="M290 705v-120h-312v120h312zM213 0h-158v500h158v-500z" />
    <glyph glyph-name="ibreve.small" unicode="&#xe0c4;" horiz-adv-x="270" 
d="M213 0h-158v500h158v-500zM134 664c57 0 80 16 80 86h118c0 -154 -68 -200 -198 -200s-198 46 -198 200h118c0 -70 23 -86 80 -86z" />
    <glyph glyph-name="iinvertedbreve.small" unicode="&#xe0c5;" horiz-adv-x="270" 
d="M213 0h-158v500h158v-500zM134 636c-57 0 -80 -16 -80 -86h-118c0 154 68 200 198 200s198 -46 198 -200h-118c0 70 -23 86 -80 86z" />
    <glyph glyph-name="idoublegrave.small" unicode="&#xe0c6;" horiz-adv-x="270" 
d="M213 0h-158v500h158v-500zM290 550h-120l-105 200h160zM110 550h-120l-105 200h160z" />
    <glyph glyph-name="idotaccent.small" unicode="&#xe0c7;" horiz-adv-x="270" 
d="M39 645c0 53 41 95 95 95c53 0 95 -42 95 -95c0 -54 -42 -95 -95 -95c-54 0 -95 41 -95 95zM213 0h-158v500h158v-500z" />
    <glyph glyph-name="idotbelow.small" unicode="&#xe0c8;" horiz-adv-x="270" 
d="M39 -150c0 53 41 95 95 95c53 0 95 -42 95 -95c0 -54 -42 -95 -95 -95c-54 0 -95 41 -95 95zM213 0h-158v500h158v-500z" />
    <glyph glyph-name="iogonek.small" unicode="&#xe0c9;" horiz-adv-x="270" 
d="M213 0c-58 -15 -98 -70 -98 -107c0 -29 25 -46 59 -46c33 0 58 8 68 12v-90c-14 -7 -41 -19 -100 -19c-75 0 -147 37 -147 123c0 51 25 87 60 114v513h158v-500z" />
    <glyph glyph-name="jcircumflex.small" unicode="&#xe0ca;" horiz-adv-x="399" 
d="M26 2v141c28 -8 60 -13 91 -13c48 0 74 19 74 53v317h158v-327c0 -110 -70 -187 -216 -187c-34 0 -81 7 -107 16zM185 550h-123l133 200h150l133 -200h-123l-85 95z" />
    <glyph glyph-name="jcaron.small" unicode="&#xe0cb;" horiz-adv-x="399" 
d="M26 2v141c28 -8 60 -13 91 -13c48 0 74 19 74 53v317h158v-327c0 -110 -70 -187 -216 -187c-34 0 -81 7 -107 16zM355 750h123l-133 -200h-150l-133 200h123l85 -95z" />
    <glyph glyph-name="kcaron.small" unicode="&#xe0cc;" horiz-adv-x="577" 
d="M543 500l-196 -217l216 -283h-201l-119 169l-35 -39v-130h-153v500h153v-168l133 168h202zM360 750h123l-133 -200h-150l-133 200h123l85 -95z" />
    <glyph glyph-name="kcommaaccent.small" unicode="&#xe0cd;" horiz-adv-x="577" 
d="M543 500l-196 -217l216 -283h-201l-119 169l-35 -39v-130h-153v500h153v-168l133 168h202zM305 -250h-121l24 200h158z" />
    <glyph glyph-name="kcedilla.small" unicode="&#xe0ce;" horiz-adv-x="577" 
d="M543 500l-196 -217l216 -283h-201l-119 169l-35 -39v-130h-153v500h153v-168l133 168h202zM240 -94l6 56c140 -10 168 -60 168 -107c0 -76 -58 -105 -128 -105c-43 0 -83 10 -100 19v91c18 -6 52 -15 87 -15c23 0 38 6 38 23c0 14 -9 29 -71 38z" />
    <glyph glyph-name="khook.small" unicode="&#xe0cf;" horiz-adv-x="577" 
d="M382 243l-2 -4l183 -239h-201l-97 137c-18 -8 -37 -14 -57 -17v-120h-153v500h153v-203c32 10 49 35 80 89c47 84 90 124 244 124v-148c-84 0 -107 -37 -150 -119z" />
    <glyph glyph-name="lacute.small" unicode="&#xe0d0;" horiz-adv-x="472" 
d="M213 500v-358h239v-142h-397v500h158zM197 550h-120l65 200h160z" />
    <glyph glyph-name="lcaron.small" unicode="&#xe0d1;" horiz-adv-x="472" 
d="M213 500v-358h239v-142h-397v500h158zM289 625h98l-48 -200h-66z" />
    <glyph glyph-name="lcommaaccent.small" unicode="&#xe0d2;" horiz-adv-x="472" 
d="M213 500v-358h239v-142h-397v500h158zM274 -250h-121l24 200h158z" />
    <glyph glyph-name="lcedilla.small" unicode="&#xe0d3;" horiz-adv-x="472" 
d="M213 500v-358h239v-142h-397v500h158zM204 -94l6 56c140 -10 168 -60 168 -107c0 -76 -58 -105 -128 -105c-43 0 -83 10 -100 19v91c18 -6 52 -15 87 -15c23 0 38 6 38 23c0 14 -9 29 -71 38z" />
    <glyph glyph-name="ldotbelow.small" unicode="&#xe0d4;" horiz-adv-x="472" 
d="M154 -150c0 53 41 95 95 95c53 0 95 -42 95 -95c0 -54 -42 -95 -95 -95c-54 0 -95 41 -95 95zM213 500v-358h239v-142h-397v500h158z" />
    <glyph glyph-name="ldotbelowmacron.small" unicode="&#xe0d5;" horiz-adv-x="472" 
d="M154 -150c0 53 41 95 95 95c53 0 95 -42 95 -95c0 -54 -42 -95 -95 -95c-54 0 -95 41 -95 95zM290 705v-120h-312v120h312zM213 500v-358h239v-142h-397v500h158z" />
    <glyph glyph-name="ldot.small" unicode="&#xe0d6;" horiz-adv-x="472" 
d="M213 500v-358h239v-142h-397v500h158zM275 300c0 53 41 95 95 95c53 0 95 -42 95 -95c0 -54 -42 -95 -95 -95c-54 0 -95 41 -95 95z" />
    <glyph glyph-name="lslash.small" unicode="&#xe0d7;" horiz-adv-x="529" 
d="M442 303l-170 -85v-73h237v-145h-399v138l-85 -42v102l85 42v260h162v-180l170 85v-102z" />
    <glyph glyph-name="mmacron.small" unicode="&#xe0d8;" horiz-adv-x="710" 
d="M503 266l-87 -218h-124l-87 218l2 -266h-152v500h196l103 -259l103 259h196v-500h-152zM510 705v-120h-312v120h312z" />
    <glyph glyph-name="mcedilla.small" unicode="&#xe0d9;" horiz-adv-x="710" 
d="M503 266l-87 -218h-124l-87 218l2 -266h-152v500h196l103 -259l103 259h196v-500h-152zM309 -94l6 56c140 -10 168 -60 168 -107c0 -76 -58 -105 -128 -105c-43 0 -83 10 -100 19v91c18 -6 52 -15 87 -15c23 0 38 6 38 23c0 14 -9 29 -71 38z" />
    <glyph glyph-name="mdotbelow.small" unicode="&#xe0da;" horiz-adv-x="710" 
d="M503 266l-87 -218h-124l-87 218l2 -266h-152v500h196l103 -259l103 259h196v-500h-152zM259 -150c0 53 41 95 95 95c53 0 95 -42 95 -95c0 -54 -42 -95 -95 -95c-54 0 -95 41 -95 95z" />
    <glyph glyph-name="nacute.small" unicode="&#xe0db;" horiz-adv-x="600" 
d="M545 0h-117l-222 253l4 -253h-155v500h117l222 -253l-4 253h155v-500zM353 550h-120l65 200h160z" />
    <glyph glyph-name="ngrave.small" unicode="&#xe0dc;" horiz-adv-x="600" 
d="M545 0h-117l-222 253l4 -253h-155v500h117l222 -253l-4 253h155v-500zM363 550h-120l-105 200h160z" />
    <glyph glyph-name="ndieresis.small" unicode="&#xe0dd;" horiz-adv-x="600" 
d="M85 645c0 53 41 95 95 95c53 0 95 -42 95 -95c0 -54 -42 -95 -95 -95c-54 0 -95 41 -95 95zM325 645c0 53 41 95 95 95c53 0 95 -42 95 -95c0 -54 -42 -95 -95 -95c-54 0 -95 41 -95 95zM545 0h-117l-222 253l4 -253h-155v500h117l222 -253l-4 253h155v-500z" />
    <glyph glyph-name="ntilde.small" unicode="&#xe0de;" horiz-adv-x="600" 
d="M172 573h-87c0 117 44 167 130 167c95 0 115 -81 164 -81c41 0 49 28 49 58h87c0 -117 -45 -167 -130 -167c-95 0 -115 81 -164 81c-41 0 -49 -28 -49 -58zM545 0h-117l-222 253l4 -253h-155v500h117l222 -253l-4 253h155v-500z" />
    <glyph glyph-name="ncaron.small" unicode="&#xe0df;" horiz-adv-x="600" 
d="M545 0h-117l-222 253l4 -253h-155v500h117l222 -253l-4 253h155v-500zM383 750h123l-133 -200h-150l-133 200h123l85 -95z" />
    <glyph glyph-name="nmacron.small" unicode="&#xe0e0;" horiz-adv-x="600" 
d="M456 705v-120h-312v120h312zM545 0h-117l-222 253l4 -253h-155v500h117l222 -253l-4 253h155v-500z" />
    <glyph glyph-name="ndotaccent.small" unicode="&#xe0e1;" horiz-adv-x="600" 
d="M205 645c0 53 41 95 95 95c53 0 95 -42 95 -95c0 -54 -42 -95 -95 -95c-54 0 -95 41 -95 95zM545 0h-117l-222 253l4 -253h-155v500h117l222 -253l-4 253h155v-500z" />
    <glyph glyph-name="ncommaaccent.small" unicode="&#xe0e2;" horiz-adv-x="600" 
d="M545 0h-117l-222 253l4 -253h-155v500h117l222 -253l-4 253h155v-500zM330 -250h-121l24 200h158z" />
    <glyph glyph-name="ncedilla.small" unicode="&#xe0e3;" horiz-adv-x="600" 
d="M545 0h-117l-222 253l4 -253h-155v500h117l222 -253l-4 253h155v-500zM255 -94l6 56c140 -10 168 -60 168 -107c0 -76 -58 -105 -128 -105c-43 0 -83 10 -100 19v91c18 -6 52 -15 87 -15c23 0 38 6 38 23c0 14 -9 29 -71 38z" />
    <glyph glyph-name="ndotbelow.small" unicode="&#xe0e4;" horiz-adv-x="600" 
d="M205 -150c0 53 41 95 95 95c53 0 95 -42 95 -95c0 -54 -42 -95 -95 -95c-54 0 -95 41 -95 95zM545 0h-117l-222 253l4 -253h-155v500h117l222 -253l-4 253h155v-500z" />
    <glyph glyph-name="ndescender.small" unicode="&#xe0e5;" horiz-adv-x="635" 
d="M545 100h100v-225h-100v125h-117l-222 253l4 -253h-155v500h117l222 -253l-4 253h155v-400z" />
    <glyph glyph-name="oacute.small" unicode="&#xe0e6;" horiz-adv-x="610" 
d="M305 121c73 0 106 38 106 129s-33 129 -106 129s-106 -38 -106 -129s33 -129 106 -129zM305 -14c-180 0 -265 85 -265 264s85 264 265 264s265 -85 265 -264s-85 -264 -265 -264zM360 550h-120l65 200h160z" />
    <glyph glyph-name="ograve.small" unicode="&#xe0e7;" horiz-adv-x="610" 
d="M305 121c73 0 106 38 106 129s-33 129 -106 129s-106 -38 -106 -129s33 -129 106 -129zM305 -14c-180 0 -265 85 -265 264s85 264 265 264s265 -85 265 -264s-85 -264 -265 -264zM370 550h-120l-105 200h160z" />
    <glyph glyph-name="ocircumflex.small" unicode="&#xe0e8;" horiz-adv-x="610" 
d="M305 121c73 0 106 38 106 129s-33 129 -106 129s-106 -38 -106 -129s33 -129 106 -129zM305 -14c-180 0 -265 85 -265 264s85 264 265 264s265 -85 265 -264s-85 -264 -265 -264zM220 550h-123l133 200h150l133 -200h-123l-85 95z" />
    <glyph glyph-name="odieresis.small" unicode="&#xe0e9;" horiz-adv-x="610" 
d="M90 645c0 53 41 95 95 95c53 0 95 -42 95 -95c0 -54 -42 -95 -95 -95c-54 0 -95 41 -95 95zM330 645c0 53 41 95 95 95c53 0 95 -42 95 -95c0 -54 -42 -95 -95 -95c-54 0 -95 41 -95 95zM305 121c73 0 106 38 106 129s-33 129 -106 129s-106 -38 -106 -129
s33 -129 106 -129zM305 -14c-180 0 -265 85 -265 264s85 264 265 264s265 -85 265 -264s-85 -264 -265 -264z" />
    <glyph glyph-name="otilde.small" unicode="&#xe0ea;" horiz-adv-x="610" 
d="M177 573h-87c0 117 44 167 130 167c95 0 115 -81 164 -81c41 0 49 28 49 58h87c0 -117 -45 -167 -130 -167c-95 0 -115 81 -164 81c-41 0 -49 -28 -49 -58zM305 121c73 0 106 38 106 129s-33 129 -106 129s-106 -38 -106 -129s33 -129 106 -129zM305 -14
c-180 0 -265 85 -265 264s85 264 265 264s265 -85 265 -264s-85 -264 -265 -264z" />
    <glyph glyph-name="ocaron.small" unicode="&#xe0eb;" horiz-adv-x="610" 
d="M305 121c73 0 106 38 106 129s-33 129 -106 129s-106 -38 -106 -129s33 -129 106 -129zM305 -14c-180 0 -265 85 -265 264s85 264 265 264s265 -85 265 -264s-85 -264 -265 -264zM390 750h123l-133 -200h-150l-133 200h123l85 -95z" />
    <glyph glyph-name="omacron.small" unicode="&#xe0ec;" horiz-adv-x="610" 
d="M461 705v-120h-312v120h312zM305 121c73 0 106 38 106 129s-33 129 -106 129s-106 -38 -106 -129s33 -129 106 -129zM305 -14c-180 0 -265 85 -265 264s85 264 265 264s265 -85 265 -264s-85 -264 -265 -264z" />
    <glyph glyph-name="obreve.small" unicode="&#xe0ed;" horiz-adv-x="610" 
d="M305 121c73 0 106 38 106 129s-33 129 -106 129s-106 -38 -106 -129s33 -129 106 -129zM305 -14c-180 0 -265 85 -265 264s85 264 265 264s265 -85 265 -264s-85 -264 -265 -264zM305 664c57 0 80 16 80 86h118c0 -154 -68 -200 -198 -200s-198 46 -198 200h118
c0 -70 23 -86 80 -86z" />
    <glyph glyph-name="oinvertedbreve.small" unicode="&#xe0ee;" horiz-adv-x="610" 
d="M305 121c73 0 106 38 106 129s-33 129 -106 129s-106 -38 -106 -129s33 -129 106 -129zM305 -14c-180 0 -265 85 -265 264s85 264 265 264s265 -85 265 -264s-85 -264 -265 -264zM305 636c-57 0 -80 -16 -80 -86h-118c0 154 68 200 198 200s198 -46 198 -200h-118
c0 70 -23 86 -80 86z" />
    <glyph glyph-name="ohungarumlaut.small" unicode="&#xe0ef;" horiz-adv-x="610" 
d="M305 121c73 0 106 38 106 129s-33 129 -106 129s-106 -38 -106 -129s33 -129 106 -129zM305 -14c-180 0 -265 85 -265 264s85 264 265 264s265 -85 265 -264s-85 -264 -265 -264zM270 550h-120l65 200h160zM450 550h-120l65 200h160z" />
    <glyph glyph-name="odoublegrave.small" unicode="&#xe0f0;" horiz-adv-x="610" 
d="M305 121c73 0 106 38 106 129s-33 129 -106 129s-106 -38 -106 -129s33 -129 106 -129zM305 -14c-180 0 -265 85 -265 264s85 264 265 264s265 -85 265 -264s-85 -264 -265 -264zM460 550h-120l-105 200h160zM280 550h-120l-105 200h160z" />
    <glyph glyph-name="ocommaturnedabove.small" unicode="&#xe0f1;" horiz-adv-x="610" 
d="M305 121c73 0 106 38 106 129s-33 129 -106 129s-106 -38 -106 -129s33 -129 106 -129zM305 -14c-180 0 -265 85 -265 264s85 264 265 264s265 -85 265 -264s-85 -264 -265 -264zM285 750h121l-24 -200h-158z" />
    <glyph glyph-name="otildemacron.small" unicode="&#xe0f2;" horiz-adv-x="610" 
d="M177 565h-87c0 97 44 145 130 145c85 0 120 -61 169 -61c31 0 44 16 44 36h87c0 -97 -45 -145 -130 -145s-120 61 -169 61c-31 0 -44 -16 -44 -36zM461 855v-120h-312v120h312zM305 121c73 0 106 38 106 129s-33 129 -106 129s-106 -38 -106 -129s33 -129 106 -129z
M305 -14c-180 0 -265 85 -265 264s85 264 265 264s265 -85 265 -264s-85 -264 -265 -264z" />
    <glyph glyph-name="odotabove.small" unicode="&#xe0f3;" horiz-adv-x="610" 
d="M210 645c0 53 41 95 95 95c53 0 95 -42 95 -95c0 -54 -42 -95 -95 -95c-54 0 -95 41 -95 95zM305 121c73 0 106 38 106 129s-33 129 -106 129s-106 -38 -106 -129s33 -129 106 -129zM305 -14c-180 0 -265 85 -265 264s85 264 265 264s265 -85 265 -264
s-85 -264 -265 -264z" />
    <glyph glyph-name="odotabovemacron.small" unicode="&#xe0f4;" horiz-adv-x="610" 
d="M210 625c0 53 41 95 95 95c53 0 95 -42 95 -95c0 -54 -42 -95 -95 -95c-54 0 -95 41 -95 95zM461 855v-120h-312v120h312zM305 121c73 0 106 38 106 129s-33 129 -106 129s-106 -38 -106 -129s33 -129 106 -129zM305 -14c-180 0 -265 85 -265 264s85 264 265 264
s265 -85 265 -264s-85 -264 -265 -264z" />
    <glyph glyph-name="ocedilla.small" unicode="&#xe0f5;" horiz-adv-x="610" 
d="M305 121c73 0 106 38 106 129s-33 129 -106 129s-106 -38 -106 -129s33 -129 106 -129zM305 -14c-180 0 -265 85 -265 264s85 264 265 264s265 -85 265 -264s-85 -264 -265 -264zM260 -94l6 56c140 -10 168 -60 168 -107c0 -76 -58 -105 -128 -105c-43 0 -83 10 -100 19
v91c18 -6 52 -15 87 -15c23 0 38 6 38 23c0 14 -9 29 -71 38z" />
    <glyph glyph-name="odotbelow.small" unicode="&#xe0f6;" horiz-adv-x="610" 
d="M210 -150c0 53 41 95 95 95c53 0 95 -42 95 -95c0 -54 -42 -95 -95 -95c-54 0 -95 41 -95 95zM305 121c73 0 106 38 106 129s-33 129 -106 129s-106 -38 -106 -129s33 -129 106 -129zM305 -14c-180 0 -265 85 -265 264s85 264 265 264s265 -85 265 -264
s-85 -264 -265 -264z" />
    <glyph glyph-name="oogonek.small" unicode="&#xe0f7;" horiz-adv-x="610" 
d="M200 -127c0 51 25 88 61 115c-150 13 -221 98 -221 262c0 179 85 264 265 264s265 -85 265 -264c0 -140 -52 -222 -160 -251l-1 -1c-53 -18 -89 -70 -89 -105c0 -29 25 -46 59 -46c33 0 58 8 68 12v-90c-14 -7 -41 -19 -100 -19c-75 0 -147 37 -147 123zM305 121
c73 0 106 38 106 129s-33 129 -106 129s-106 -38 -106 -129s33 -129 106 -129z" />
    <glyph glyph-name="oogonekmacron.small" unicode="&#xe0f8;" horiz-adv-x="610" 
d="M200 -127c0 51 25 88 61 115c-150 13 -221 98 -221 262c0 179 85 264 265 264s265 -85 265 -264c0 -140 -52 -222 -160 -251l-1 -1c-53 -18 -89 -70 -89 -105c0 -29 25 -46 59 -46c33 0 58 8 68 12v-90c-14 -7 -41 -19 -100 -19c-75 0 -147 37 -147 123zM305 121
c73 0 106 38 106 129s-33 129 -106 129s-106 -38 -106 -129s33 -129 106 -129zM461 705v-120h-312v120h312z" />
    <glyph glyph-name="ounderlineaccent.small" unicode="&#xe0f9;" horiz-adv-x="610" 
d="M255 -50h100v-200h-100v200zM305 121c73 0 106 38 106 129s-33 129 -106 129s-106 -38 -106 -129s33 -129 106 -129zM305 -14c-180 0 -265 85 -265 264s85 264 265 264s265 -85 265 -264s-85 -264 -265 -264z" />
    <glyph glyph-name="oslash.small" unicode="&#xe0fa;" horiz-adv-x="610" 
d="M555 500l-45 -56c40 -44 60 -108 60 -194c0 -179 -85 -264 -265 -264c-57 0 -104 9 -142 25l-9 -11h-99l45 56c-41 43 -60 108 -60 194c0 179 85 264 265 264c57 0 104 -9 142 -26l9 12h99zM305 121c73 0 106 38 106 129c0 24 -2 44 -7 61l-147 -183c13 -5 29 -7 48 -7z
M199 250c0 -24 2 -45 7 -62l147 183c-14 5 -30 8 -48 8c-73 0 -106 -38 -106 -129z" />
    <glyph glyph-name="oslashacute.small" unicode="&#xe0fb;" horiz-adv-x="610" 
d="M555 500l-45 -56c40 -44 60 -108 60 -194c0 -179 -85 -264 -265 -264c-57 0 -104 9 -142 25l-9 -11h-99l45 56c-41 43 -60 108 -60 194c0 179 85 264 265 264c57 0 104 -9 142 -26l9 12h99zM305 121c73 0 106 38 106 129c0 24 -2 44 -7 61l-147 -183c13 -5 29 -7 48 -7z
M199 250c0 -24 2 -45 7 -62l147 183c-14 5 -30 8 -48 8c-73 0 -106 -38 -106 -129zM360 550h-120l65 200h160z" />
    <glyph glyph-name="barredo.small" unicode="&#xe0fc;" horiz-adv-x="610" 
d="M305 -14c-180 0 -265 85 -265 264s85 264 265 264s265 -85 265 -264s-85 -264 -265 -264zM305 121c54 0 93 21 96 70h-193c3 -49 42 -70 97 -70zM305 379c-54 0 -93 -21 -96 -68h192c-3 47 -42 68 -96 68z" />
    <glyph glyph-name="oe.small" unicode="&#xe0fd;" horiz-adv-x="770" 
d="M694 313v-126h-201v-55h229v-132h-440c-175 0 -246 97 -246 250s71 250 246 250h440v-132h-229v-55h201zM335 368h-49c-71 0 -92 -50 -92 -118s21 -118 92 -118h49v236z" />
    <glyph glyph-name="pmacron.small" unicode="&#xe0fe;" horiz-adv-x="519" 
d="M411 705v-120h-312v120h312zM310 141h-97v-141h-158v500h255c139 0 188 -72 188 -179c0 -108 -50 -180 -188 -180zM337 317c0 45 -20 53 -40 53h-84v-105h84c20 0 40 8 40 52z" />
    <glyph glyph-name="racute.small" unicode="&#xe0ff;" horiz-adv-x="554" 
d="M320 550h-120l65 200h160zM276 159h-62v-159h-159v500h269c138 0 184 -77 184 -174c0 -53 -20 -116 -75 -145l86 -181h-186zM338 327c0 26 -14 43 -37 43h-87v-85h87c23 0 37 14 37 42z" />
    <glyph glyph-name="rcaron.small" unicode="&#xe100;" horiz-adv-x="554" 
d="M350 750h123l-133 -200h-150l-133 200h123l85 -95zM276 159h-62v-159h-159v500h269c138 0 184 -77 184 -174c0 -53 -20 -116 -75 -145l86 -181h-186zM338 327c0 26 -14 43 -37 43h-87v-85h87c23 0 37 14 37 42z" />
    <glyph glyph-name="rinvertedbreve.small" unicode="&#xe101;" horiz-adv-x="554" 
d="M265 636c-57 0 -80 -16 -80 -86h-118c0 154 68 200 198 200s198 -46 198 -200h-118c0 70 -23 86 -80 86zM276 159h-62v-159h-159v500h269c138 0 184 -77 184 -174c0 -53 -20 -116 -75 -145l86 -181h-186zM338 327c0 26 -14 43 -37 43h-87v-85h87c23 0 37 14 37 42z" />
    <glyph glyph-name="rdoublegrave.small" unicode="&#xe102;" horiz-adv-x="554" 
d="M411 550h-120l-105 200h160zM231 550h-120l-105 200h160zM276 159h-62v-159h-159v500h269c138 0 184 -77 184 -174c0 -53 -20 -116 -75 -145l86 -181h-186zM338 327c0 26 -14 43 -37 43h-87v-85h87c23 0 37 14 37 42z" />
    <glyph glyph-name="rcommaaccent.small" unicode="&#xe103;" horiz-adv-x="554" 
d="M300 -250h-121l24 200h158zM276 159h-62v-159h-159v500h269c138 0 184 -77 184 -174c0 -53 -20 -116 -75 -145l86 -181h-186zM338 327c0 26 -14 43 -37 43h-87v-85h87c23 0 37 14 37 42z" />
    <glyph glyph-name="rcedilla.small" unicode="&#xe104;" horiz-adv-x="554" 
d="M230 -94l6 56c140 -10 168 -60 168 -107c0 -76 -58 -105 -128 -105c-43 0 -83 10 -100 19v91c18 -6 52 -15 87 -15c23 0 38 6 38 23c0 14 -9 29 -71 38zM276 159h-62v-159h-159v500h269c138 0 184 -77 184 -174c0 -53 -20 -116 -75 -145l86 -181h-186zM338 327
c0 26 -14 43 -37 43h-87v-85h87c23 0 37 14 37 42z" />
    <glyph glyph-name="rdotbelow.small" unicode="&#xe105;" horiz-adv-x="554" 
d="M180 -150c0 53 41 95 95 95c53 0 95 -42 95 -95c0 -54 -42 -95 -95 -95c-54 0 -95 41 -95 95zM276 159h-62v-159h-159v500h269c138 0 184 -77 184 -174c0 -53 -20 -116 -75 -145l86 -181h-186zM338 327c0 26 -14 43 -37 43h-87v-85h87c23 0 37 14 37 42z" />
    <glyph glyph-name="rdotbelowmacron.small" unicode="&#xe106;" horiz-adv-x="554" 
d="M180 -150c0 53 41 95 95 95c53 0 95 -42 95 -95c0 -54 -42 -95 -95 -95c-54 0 -95 41 -95 95zM421 705v-120h-312v120h312zM276 159h-62v-159h-159v500h269c138 0 184 -77 184 -174c0 -53 -20 -116 -75 -145l86 -181h-186zM338 327c0 26 -14 43 -37 43h-87v-85h87
c23 0 37 14 37 42z" />
    <glyph glyph-name="sacute.small" unicode="&#xe107;" 
d="M305 550h-120l65 200h160zM257 374c-40 0 -59 -10 -59 -29c0 -22 18 -29 63 -33c159 -16 201 -35 201 -157c0 -97 -60 -169 -230 -169c-49 0 -143 13 -183 32v143c51 -19 124 -35 184 -35c52 0 71 11 71 30c0 23 -19 32 -63 36c-154 16 -198 42 -198 153
c0 110 68 169 215 169c49 0 142 -13 183 -32v-143c-51 20 -123 35 -184 35z" />
    <glyph glyph-name="scircumflex.small" unicode="&#xe108;" 
d="M165 550h-123l133 200h150l133 -200h-123l-85 95zM257 374c-40 0 -59 -10 -59 -29c0 -22 18 -29 63 -33c159 -16 201 -35 201 -157c0 -97 -60 -169 -230 -169c-49 0 -143 13 -183 32v143c51 -19 124 -35 184 -35c52 0 71 11 71 30c0 23 -19 32 -63 36
c-154 16 -198 42 -198 153c0 110 68 169 215 169c49 0 142 -13 183 -32v-143c-51 20 -123 35 -184 35z" />
    <glyph glyph-name="scaron.small" unicode="&#xe109;" 
d="M42 750h123l85 -95l85 95h123l-133 -200h-150zM257 374c-40 0 -59 -10 -59 -29c0 -22 18 -29 63 -33c159 -16 201 -35 201 -157c0 -97 -60 -169 -230 -169c-49 0 -143 13 -183 32v143c51 -19 124 -35 184 -35c52 0 71 11 71 30c0 23 -19 32 -63 36
c-154 16 -198 42 -198 153c0 110 68 169 215 169c49 0 142 -13 183 -32v-143c-51 20 -123 35 -184 35z" />
    <glyph glyph-name="scommaaccent.small" unicode="&#xe10a;" 
d="M280 -250h-121l24 200h158zM257 374c-40 0 -59 -10 -59 -29c0 -22 18 -29 63 -33c159 -16 201 -35 201 -157c0 -97 -60 -169 -230 -169c-49 0 -143 13 -183 32v143c51 -19 124 -35 184 -35c52 0 71 11 71 30c0 23 -19 32 -63 36c-154 16 -198 42 -198 153
c0 110 68 169 215 169c49 0 142 -13 183 -32v-143c-51 20 -123 35 -184 35z" />
    <glyph glyph-name="scedilla.small" unicode="&#xe10b;" 
d="M257 374c-40 0 -59 -10 -59 -29c0 -22 18 -29 63 -33c159 -16 201 -35 201 -157c0 -88 -50 -156 -186 -167l3 -45c61 -14 90 -41 90 -88c0 -76 -58 -105 -128 -105c-43 0 -83 10 -100 19v91c18 -6 52 -15 87 -15c23 0 38 6 38 23c0 14 -9 29 -71 38l8 81
c-51 4 -121 15 -154 31v143c51 -19 124 -35 184 -35c52 0 71 11 71 30c0 23 -19 32 -63 36c-154 16 -198 42 -198 153c0 110 68 169 215 169c49 0 142 -13 183 -32v-143c-51 20 -123 35 -184 35z" />
    <glyph glyph-name="sdotbelow.small" unicode="&#xe10c;" 
d="M145 -150c0 53 41 95 95 95c53 0 95 -42 95 -95c0 -54 -42 -95 -95 -95c-54 0 -95 41 -95 95zM257 374c-40 0 -59 -10 -59 -29c0 -22 18 -29 63 -33c159 -16 201 -35 201 -157c0 -97 -60 -169 -230 -169c-49 0 -143 13 -183 32v143c51 -19 124 -35 184 -35
c52 0 71 11 71 30c0 23 -19 32 -63 36c-154 16 -198 42 -198 153c0 110 68 169 215 169c49 0 142 -13 183 -32v-143c-51 20 -123 35 -184 35z" />
    <glyph glyph-name="germandbls.small" unicode="&#xe10d;" horiz-adv-x="1000" 
d="M257 374c-40 0 -59 -10 -59 -29c0 -22 18 -29 63 -33c159 -16 201 -35 201 -157c0 -97 -60 -169 -230 -169c-49 0 -143 13 -183 32v143c51 -19 124 -35 184 -35c52 0 71 11 71 30c0 23 -19 32 -63 36c-154 16 -198 42 -198 153c0 110 68 169 215 169
c49 0 142 -13 183 -32v-143c-51 20 -123 35 -184 35zM757 374c-40 0 -59 -10 -59 -29c0 -22 18 -29 63 -33c159 -16 201 -35 201 -157c0 -97 -60 -169 -230 -169c-49 0 -143 13 -183 32v143c51 -19 124 -35 184 -35c52 0 71 11 71 30c0 23 -19 32 -63 36
c-154 16 -198 42 -198 153c0 110 68 169 215 169c49 0 142 -13 183 -32v-143c-51 20 -123 35 -184 35z" />
    <glyph glyph-name="tcaron.small" unicode="&#xe10e;" 
d="M479 360h-150v-360h-158v360h-150v140h458v-140zM42 750h123l85 -95l85 95h123l-133 -200h-150z" />
    <glyph glyph-name="tcommaaccent.small" unicode="&#xe10f;" 
d="M479 360h-150v-360h-158v360h-150v140h458v-140zM268 -250h-121l24 200h158z" />
    <glyph glyph-name="tcedilla.small" unicode="&#xe110;" 
d="M479 360h-150v-360h-158v360h-150v140h458v-140zM205 -94l6 56c140 -10 168 -60 168 -107c0 -76 -58 -105 -128 -105c-43 0 -83 10 -100 19v91c18 -6 52 -15 87 -15c23 0 38 6 38 23c0 14 -9 29 -71 38z" />
    <glyph glyph-name="tdotbelow.small" unicode="&#xe111;" 
d="M155 -150c0 53 41 95 95 95c53 0 95 -42 95 -95c0 -54 -42 -95 -95 -95c-54 0 -95 41 -95 95zM479 360h-150v-360h-158v360h-150v140h458v-140z" />
    <glyph glyph-name="tbar.small" unicode="&#xe112;" 
d="M479 360h-150v-85h92v-120h-92v-155h-158v155h-92v120h92v85h-150v140h458v-140z" />
    <glyph glyph-name="uacute.small" unicode="&#xe113;" horiz-adv-x="580" 
d="M290 -14c-156 0 -240 67 -240 184v330h159v-309c0 -40 25 -62 81 -62s81 22 81 62v309h159v-330c0 -117 -84 -184 -240 -184zM345 550h-120l65 200h160z" />
    <glyph glyph-name="ugrave.small" unicode="&#xe114;" horiz-adv-x="580" 
d="M290 -14c-156 0 -240 67 -240 184v330h159v-309c0 -40 25 -62 81 -62s81 22 81 62v309h159v-330c0 -117 -84 -184 -240 -184zM355 550h-120l-105 200h160z" />
    <glyph glyph-name="ucircumflex.small" unicode="&#xe115;" horiz-adv-x="580" 
d="M290 -14c-156 0 -240 67 -240 184v330h159v-309c0 -40 25 -62 81 -62s81 22 81 62v309h159v-330c0 -117 -84 -184 -240 -184zM205 550h-123l133 200h150l133 -200h-123l-85 95z" />
    <glyph glyph-name="udieresis.small" unicode="&#xe116;" horiz-adv-x="580" 
d="M75 645c0 53 41 95 95 95c53 0 95 -42 95 -95c0 -54 -42 -95 -95 -95c-54 0 -95 41 -95 95zM315 645c0 53 41 95 95 95c53 0 95 -42 95 -95c0 -54 -42 -95 -95 -95c-54 0 -95 41 -95 95zM290 -14c-156 0 -240 67 -240 184v330h159v-309c0 -40 25 -62 81 -62s81 22 81 62
v309h159v-330c0 -117 -84 -184 -240 -184z" />
    <glyph glyph-name="utilde.small" unicode="&#xe117;" horiz-adv-x="580" 
d="M162 573h-87c0 117 44 167 130 167c95 0 115 -81 164 -81c41 0 49 28 49 58h87c0 -117 -45 -167 -130 -167c-95 0 -115 81 -164 81c-41 0 -49 -28 -49 -58zM290 -14c-156 0 -240 67 -240 184v330h159v-309c0 -40 25 -62 81 -62s81 22 81 62v309h159v-330
c0 -117 -84 -184 -240 -184z" />
    <glyph glyph-name="uring.small" unicode="&#xe118;" horiz-adv-x="580" 
d="M396 650c0 -72 -43 -105 -106 -105s-106 33 -106 105s43 105 106 105s106 -33 106 -105zM268 650c0 -16 8 -21 22 -21s22 5 22 21s-8 21 -22 21s-22 -5 -22 -21zM290 -14c-156 0 -240 67 -240 184v330h159v-309c0 -40 25 -62 81 -62s81 22 81 62v309h159v-330
c0 -117 -84 -184 -240 -184z" />
    <glyph glyph-name="ucaron.small" unicode="&#xe119;" horiz-adv-x="580" 
d="M290 -14c-156 0 -240 67 -240 184v330h159v-309c0 -40 25 -62 81 -62s81 22 81 62v309h159v-330c0 -117 -84 -184 -240 -184zM375 750h123l-133 -200h-150l-133 200h123l85 -95z" />
    <glyph glyph-name="umacron.small" unicode="&#xe11a;" horiz-adv-x="580" 
d="M446 705v-120h-312v120h312zM290 -14c-156 0 -240 67 -240 184v330h159v-309c0 -40 25 -62 81 -62s81 22 81 62v309h159v-330c0 -117 -84 -184 -240 -184z" />
    <glyph glyph-name="ubreve.small" unicode="&#xe11b;" horiz-adv-x="580" 
d="M290 -14c-156 0 -240 67 -240 184v330h159v-309c0 -40 25 -62 81 -62s81 22 81 62v309h159v-330c0 -117 -84 -184 -240 -184zM290 664c57 0 80 16 80 86h118c0 -154 -68 -200 -198 -200s-198 46 -198 200h118c0 -70 23 -86 80 -86z" />
    <glyph glyph-name="uinvertedbreve.small" unicode="&#xe11c;" horiz-adv-x="580" 
d="M290 -14c-156 0 -240 67 -240 184v330h159v-309c0 -40 25 -62 81 -62s81 22 81 62v309h159v-330c0 -117 -84 -184 -240 -184zM290 636c-57 0 -80 -16 -80 -86h-118c0 154 68 200 198 200s198 -46 198 -200h-118c0 70 -23 86 -80 86z" />
    <glyph glyph-name="uhungarumlaut.small" unicode="&#xe11d;" horiz-adv-x="580" 
d="M290 -14c-156 0 -240 67 -240 184v330h159v-309c0 -40 25 -62 81 -62s81 22 81 62v309h159v-330c0 -117 -84 -184 -240 -184zM255 550h-120l65 200h160zM435 550h-120l65 200h160z" />
    <glyph glyph-name="udoublegrave.small" unicode="&#xe11e;" horiz-adv-x="580" 
d="M290 -14c-156 0 -240 67 -240 184v330h159v-309c0 -40 25 -62 81 -62s81 22 81 62v309h159v-330c0 -117 -84 -184 -240 -184zM446 550h-120l-105 200h160zM266 550h-120l-105 200h160z" />
    <glyph glyph-name="udotbelow.small" unicode="&#xe11f;" horiz-adv-x="580" 
d="M195 -150c0 53 41 95 95 95c53 0 95 -42 95 -95c0 -54 -42 -95 -95 -95c-54 0 -95 41 -95 95zM290 -14c-156 0 -240 67 -240 184v330h159v-309c0 -40 25 -62 81 -62s81 22 81 62v309h159v-330c0 -117 -84 -184 -240 -184z" />
    <glyph glyph-name="uogonek.small" unicode="&#xe120;" horiz-adv-x="580" 
d="M530 170c0 -88 -48 -148 -138 -172c-53 -18 -89 -70 -89 -105c0 -29 25 -46 59 -46c33 0 58 8 68 12v-90c-14 -7 -41 -19 -100 -19c-75 0 -147 37 -147 123c0 51 26 88 61 115c-126 12 -194 77 -194 182v330h159v-309c0 -40 25 -62 81 -62s81 22 81 62v309h159v-330z" />
    <glyph glyph-name="umacronbelow.small" unicode="&#xe121;" horiz-adv-x="580" 
d="M446 -90v-120h-312v120h312zM290 -14c-156 0 -240 67 -240 184v330h159v-309c0 -40 25 -62 81 -62s81 22 81 62v309h159v-330c0 -117 -84 -184 -240 -184z" />
    <glyph glyph-name="wacute.small" unicode="&#xe122;" horiz-adv-x="750" 
d="M458 -8l-83 298l-83 -298h-170l-121 508h180l47 -276l72 276h150l72 -276l47 276h180l-121 -508h-170zM440 550h-120l65 200h160z" />
    <glyph glyph-name="wgrave.small" unicode="&#xe123;" horiz-adv-x="750" 
d="M458 -8l-83 298l-83 -298h-170l-121 508h180l47 -276l72 276h150l72 -276l47 276h180l-121 -508h-170zM430 550h-120l-105 200h160z" />
    <glyph glyph-name="wcircumflex.small" unicode="&#xe124;" horiz-adv-x="750" 
d="M458 -8l-83 298l-83 -298h-170l-121 508h180l47 -276l72 276h150l72 -276l47 276h180l-121 -508h-170zM290 550h-123l133 200h150l133 -200h-123l-85 95z" />
    <glyph glyph-name="wdieresis.small" unicode="&#xe125;" horiz-adv-x="750" 
d="M458 -8l-83 298l-83 -298h-170l-121 508h180l47 -276l72 276h150l72 -276l47 276h180l-121 -508h-170zM160 645c0 53 41 95 95 95c53 0 95 -42 95 -95c0 -54 -42 -95 -95 -95c-54 0 -95 41 -95 95zM400 645c0 53 41 95 95 95c53 0 95 -42 95 -95c0 -54 -42 -95 -95 -95
c-54 0 -95 41 -95 95z" />
    <glyph glyph-name="yacute.small" unicode="&#xe126;" horiz-adv-x="580" 
d="M388 500h190l-211 -330l2 -170h-158l2 170l-211 330h190l98 -194zM345 550h-120l65 200h160z" />
    <glyph glyph-name="ygrave.small" unicode="&#xe127;" horiz-adv-x="580" 
d="M388 500h190l-211 -330l2 -170h-158l2 170l-211 330h190l98 -194zM355 550h-120l-105 200h160z" />
    <glyph glyph-name="ycircumflex.small" unicode="&#xe128;" horiz-adv-x="580" 
d="M388 500h190l-211 -330l2 -170h-158l2 170l-211 330h190l98 -194zM205 550h-123l133 200h150l133 -200h-123l-85 95z" />
    <glyph glyph-name="ydieresis.small" unicode="&#xe129;" horiz-adv-x="580" 
d="M75 645c0 53 41 95 95 95c53 0 95 -42 95 -95c0 -54 -42 -95 -95 -95c-54 0 -95 41 -95 95zM315 645c0 53 41 95 95 95c53 0 95 -42 95 -95c0 -54 -42 -95 -95 -95c-54 0 -95 41 -95 95zM388 500h190l-211 -330l2 -170h-158l2 170l-211 330h190l98 -194z" />
    <glyph glyph-name="ytilde.small" unicode="&#xe12a;" horiz-adv-x="580" 
d="M162 573h-87c0 117 44 167 130 167c95 0 115 -81 164 -81c41 0 49 28 49 58h87c0 -117 -45 -167 -130 -167c-95 0 -115 81 -164 81c-41 0 -49 -28 -49 -58zM388 500h190l-211 -330l2 -170h-158l2 170l-211 330h190l98 -194z" />
    <glyph glyph-name="ymacron.small" unicode="&#xe12b;" horiz-adv-x="580" 
d="M446 705v-120h-312v120h312zM388 500h190l-211 -330l2 -170h-158l2 170l-211 330h190l98 -194z" />
    <glyph glyph-name="ij.small" unicode="&#xe12c;" horiz-adv-x="608" 
d="M213 0h-158v500h158v-500zM265 2v141c28 -8 60 -13 91 -13c48 0 74 19 74 53v317h158v-327c0 -110 -70 -187 -216 -187c-34 0 -81 7 -107 16z" />
    <glyph glyph-name="zacute.small" unicode="&#xe12d;" horiz-adv-x="558" 
d="M518 0h-478v105l229 249l-211 -2v148h442v-105l-229 -249l247 2v-148zM335 550h-120l65 200h160z" />
    <glyph glyph-name="zcaron.small" unicode="&#xe12e;" horiz-adv-x="558" 
d="M518 0h-478v105l229 249l-211 -2v148h442v-105l-229 -249l247 2v-148zM365 750h123l-133 -200h-150l-133 200h123l85 -95z" />
    <glyph glyph-name="zdotaccent.small" unicode="&#xe12f;" horiz-adv-x="558" 
d="M185 645c0 53 41 95 95 95c53 0 95 -42 95 -95c0 -54 -42 -95 -95 -95c-54 0 -95 41 -95 95zM518 0h-478v105l229 249l-211 -2v148h442v-105l-229 -249l247 2v-148z" />
    <glyph glyph-name="eng.small" unicode="&#xe130;" horiz-adv-x="600" 
d="M283 -264v134c85 0 102 38 102 84v95l-179 204l4 -253h-155v500h117l222 -253l-4 253h155v-562c0 -144 -133 -202 -262 -202z" />
    <glyph glyph-name="eth.small" unicode="&#xe131;" horiz-adv-x="596" 
d="M25 191v120h68v189h221c175 0 246 -97 246 -250s-71 -250 -246 -250h-221v191h-68zM251 140h59c71 0 92 48 92 110s-21 110 -92 110h-59v-49h83v-120h-83v-51z" />
    <glyph glyph-name="thorn.small" unicode="&#xe132;" horiz-adv-x="519" 
d="M310 69h-98v-69h-158v500h158v-69h98c139 0 188 -74 188 -181c0 -108 -50 -181 -188 -181zM337 250c0 30 -13 40 -33 41h-92v-82h92c20 1 33 12 33 41z" />
    <glyph glyph-name="ezh.small" unicode="&#xe133;" horiz-adv-x="560" 
d="M373 -11c0 89 -63 105 -189 105h-62v105l154 151l-241 -2v152h457v-106l-158 -171c131 -23 198 -93 198 -234c0 -180 -112 -253 -323 -253c-69 0 -145 15 -181 30v145c41 -15 116 -31 181 -31c122 0 164 30 164 109z" />
    <glyph glyph-name="ezhcaron.small" unicode="&#xe134;" horiz-adv-x="560" 
d="M373 -11c0 89 -63 105 -189 105h-62v105l154 151l-241 -2v152h457v-106l-158 -171c131 -23 198 -93 198 -234c0 -180 -112 -253 -323 -253c-69 0 -145 15 -181 30v145c41 -15 116 -31 181 -31c122 0 164 30 164 109zM347 750h123l-133 -200h-150l-133 200h123l85 -95z
" />
    <glyph glyph-name="schwa.small" unicode="&#xe135;" horiz-adv-x="577" 
d="M43 302h332c-6 48 -35 70 -127 70c-80 0 -147 -17 -188 -33v140c58 24 128 35 198 35c185 0 279 -69 279 -264c0 -185 -83 -264 -258 -264c-224 0 -249 144 -236 316zM281 124c63 0 91 22 94 77h-176c-6 -54 23 -77 82 -77z" />
    <glyph glyph-name="ordfeminine.small" unicode="&#xe136;" horiz-adv-x="436" 
d="M159 375h-154l104 382h218l104 -382h-154l-12 52h-94zM242 527l-24 117l-25 -117h49z" />
    <glyph glyph-name="ordmasculine.small" unicode="&#xe137;" horiz-adv-x="464" 
d="M36 562c0 139 55 202 196 202s196 -62 196 -201s-55 -202 -196 -202s-196 62 -196 201zM285 563c0 66 -17 85 -53 85s-53 -20 -53 -86s17 -85 53 -85s53 20 53 86z" />
    <glyph glyph-name="cordinal.small" unicode="&#xe138;" horiz-adv-x="395" 
d="M36 562c0 131 61 202 203 202c47 0 91 -5 115 -13v-115c-10 4 -54 12 -84 12c-60 0 -91 -22 -91 -86c0 -63 31 -85 91 -85c30 0 74 10 84 12v-116c-24 -7 -68 -12 -115 -12c-142 0 -203 71 -203 201z" />
    <glyph glyph-name="a.superior" unicode="&#xe139;" horiz-adv-x="271" 
d="M10 413c0 60 35 80 99 85l41 4c0 7 -2 12 -29 12c-34 0 -69 -10 -94 -20l-2 87c24 10 73 19 118 19c93 0 111 -35 111 -94v-165h-80l-8 13c-13 -10 -34 -22 -72 -22c-59 0 -84 29 -84 81zM151 449l-23 -2c-13 -2 -22 -8 -22 -22s9 -19 19 -19c8 0 21 3 26 7v36z" />
    <glyph glyph-name="b.superior" unicode="&#xe13a;" horiz-adv-x="288" 
d="M132 716v-126c16 6 33 10 51 10c65 0 100 -34 100 -134s-35 -134 -100 -134c-28 0 -53 9 -77 22l-8 -13h-79v375h113zM170 466c0 41 -5 50 -20 50c-7 0 -14 -2 -18 -4v-92c4 -2 11 -5 18 -5c15 0 20 9 20 51z" />
    <glyph glyph-name="c.superior" unicode="&#xe13b;" horiz-adv-x="211" 
d="M5 466c0 86 35 134 126 134c30 0 55 -3 70 -8l-3 -90c-6 2 -19 5 -38 5c-31 0 -44 -11 -44 -41c0 -31 13 -42 44 -42c19 0 32 4 38 6l3 -90c-15 -5 -40 -8 -70 -8c-91 0 -126 47 -126 134z" />
    <glyph glyph-name="d.superior" unicode="&#xe13c;" horiz-adv-x="288" 
d="M155 590v126h114v-375h-80l-8 13c-24 -13 -49 -22 -76 -22c-65 0 -100 34 -100 134s35 134 100 134c17 0 34 -4 50 -10zM117 466c0 -42 6 -51 20 -51c8 0 15 3 18 5v92c-3 2 -10 4 -18 4c-14 0 -20 -9 -20 -50z" />
    <glyph glyph-name="e.superior" unicode="&#xe13d;" horiz-adv-x="262" 
d="M248 429l3 -79c-32 -14 -80 -18 -111 -18c-103 0 -135 43 -135 134s35 134 130 134c100 0 122 -56 122 -123c0 -11 0 -26 -2 -39h-144c0 -14 7 -21 41 -21c30 0 67 4 96 12zM136 521c-16 0 -25 -6 -27 -32h46c2 26 -7 32 -19 32z" />
    <glyph glyph-name="f.superior" unicode="&#xe13e;" horiz-adv-x="206" 
d="M36 341v165h-39v72l39 10v42c0 62 29 95 100 95c48 0 70 -9 70 -9l-3 -86s-14 5 -33 5c-15 0 -21 -8 -21 -18v-26h54v-85h-54v-165h-113z" />
    <glyph glyph-name="g.superior" unicode="&#xe13f;" horiz-adv-x="278" 
d="M255 503c0 -71 -36 -97 -123 -97h-25c-1 -1 -2 -3 -2 -5c0 -5 3 -7 10 -7l104 -10c54 -5 68 -40 68 -80c0 -68 -70 -97 -166 -97c-99 0 -128 27 -128 68c0 35 23 52 51 59c-17 5 -27 25 -27 42c0 22 12 37 28 46h1c-25 15 -37 41 -37 81c0 70 37 97 123 97
c28 0 51 -3 69 -9h83v-72l-29 -8v-8zM171 311l-63 7c-6 -3 -11 -8 -11 -16c0 -10 5 -19 34 -19s49 6 49 18c0 5 -1 9 -9 10zM153 500c0 18 -5 29 -21 29c-15 0 -20 -11 -20 -29c0 -17 5 -29 20 -29c16 0 21 12 21 29z" />
    <glyph glyph-name="h.superior" unicode="&#xe140;" horiz-adv-x="293" 
d="M132 716v-126c18 8 42 10 54 10c78 0 90 -41 90 -91v-168h-113v162c0 6 -5 9 -10 9c-9 0 -15 -2 -21 -5v-166h-113v375h113z" />
    <glyph glyph-name="i.superior" unicode="&#xe141;" horiz-adv-x="150" 
d="M147 428v-87s-25 -5 -50 -5c-51 0 -82 19 -82 72v183h113v-148c0 -11 7 -15 19 -15zM13 666c0 32 26 59 59 59c32 0 59 -27 59 -59c0 -33 -27 -59 -59 -59c-33 0 -59 26 -59 59z" />
    <glyph glyph-name="j.superior" unicode="&#xe142;" horiz-adv-x="154" 
d="M-15 207v92c34 0 43 13 43 42v250h113v-279c0 -75 -62 -105 -156 -105zM26 666c0 32 26 59 59 59c32 0 59 -27 59 -59c0 -33 -27 -59 -59 -59c-33 0 -59 26 -59 59z" />
    <glyph glyph-name="k.superior" unicode="&#xe143;" horiz-adv-x="303" 
d="M130 716v-201l40 76h134l-80 -113l86 -137h-142l-38 97v-97h-111v375h111z" />
    <glyph glyph-name="l.superior" unicode="&#xe144;" horiz-adv-x="150" 
d="M147 428v-87s-25 -5 -50 -5c-51 0 -82 19 -82 72v308h113v-273c0 -11 7 -15 19 -15z" />
    <glyph glyph-name="m.superior" unicode="&#xe145;" horiz-adv-x="437" 
d="M19 591h79l8 -14c21 13 47 23 80 23c34 0 55 -8 68 -21c20 12 45 21 76 21c78 0 90 -41 90 -91v-168h-113v162c0 6 -5 9 -10 9c-9 0 -15 -2 -21 -5v-166h-113v162c0 6 -5 9 -10 9c-9 0 -15 -2 -21 -5v-166h-113v250z" />
    <glyph glyph-name="n.superior" unicode="&#x207f;" horiz-adv-x="293" 
d="M19 591h79l8 -14c21 13 47 23 80 23c78 0 90 -41 90 -91v-168h-113v162c0 6 -5 9 -10 9c-9 0 -15 -2 -21 -5v-166h-113v250z" />
    <glyph glyph-name="o.superior" unicode="&#xe146;" horiz-adv-x="270" 
d="M265 466c0 -95 -34 -134 -130 -134s-130 39 -130 134s34 134 130 134s130 -39 130 -134zM112 466c0 -41 5 -50 23 -50c17 0 22 9 22 50c0 40 -5 50 -22 50c-18 0 -23 -10 -23 -50z" />
    <glyph glyph-name="p.superior" unicode="&#xe147;" horiz-adv-x="288" 
d="M132 216h-113v375h79l8 -14c24 14 49 23 77 23c65 0 100 -34 100 -134s-35 -134 -100 -134c-18 0 -35 4 -51 10v-126zM170 466c0 41 -5 50 -20 50c-7 0 -14 -2 -18 -4v-92c4 -2 11 -5 18 -5c15 0 20 9 20 51z" />
    <glyph glyph-name="q.superior" unicode="&#xe148;" horiz-adv-x="288" 
d="M269 216h-114v126c-16 -6 -33 -10 -50 -10c-65 0 -100 34 -100 134s35 134 100 134c27 0 52 -9 76 -23l8 14h80v-375zM117 466c0 -42 6 -51 20 -51c8 0 15 3 18 5v92c-3 2 -10 4 -18 4c-14 0 -20 -9 -20 -50z" />
    <glyph glyph-name="r.superior" unicode="&#xe149;" horiz-adv-x="206" 
d="M206 595l-2 -96s-10 2 -25 2c-18 0 -37 -6 -47 -11v-149h-113v250h79l8 -14c18 14 46 23 68 23c15 0 25 -2 32 -5z" />
    <glyph glyph-name="s.superior" unicode="&#xe14a;" horiz-adv-x="241" 
d="M223 585l-2 -85c-31 12 -62 16 -88 16c-12 0 -18 -1 -18 -7c0 -8 4 -8 11 -9c85 -6 105 -20 105 -78c0 -51 -27 -90 -121 -90c-49 0 -76 8 -100 18l3 85c39 -16 71 -20 97 -20c11 0 17 1 17 8s-5 8 -12 8c-87 7 -105 22 -105 78c0 54 32 91 118 91c48 0 75 -7 95 -15z
" />
    <glyph glyph-name="t.superior" unicode="&#xe14b;" horiz-adv-x="214" 
d="M199 424l3 -83c-14 -6 -41 -9 -67 -9c-73 0 -99 32 -99 89v85h-39v72l39 10v49l113 30v-76h54v-85h-54v-69c0 -13 7 -17 17 -17c18 0 33 4 33 4z" />
    <glyph glyph-name="u.superior" unicode="&#xe14c;" horiz-adv-x="293" 
d="M274 341h-79l-8 13c-21 -12 -47 -22 -80 -22c-78 0 -90 40 -90 91v168h113v-163c0 -6 5 -9 10 -9c9 0 15 3 21 6v166h113v-250z" />
    <glyph glyph-name="v.superior" unicode="&#xe14d;" horiz-adv-x="277" 
d="M206 341h-134l-77 250h121l23 -139l22 139h121z" />
    <glyph glyph-name="w.superior" unicode="&#xe14e;" horiz-adv-x="367" 
d="M200 341l-17 114l-17 -114h-124l-42 250h109l9 -123l14 123h103l14 -123l8 123h110l-43 -250h-124z" />
    <glyph glyph-name="x.superior" unicode="&#xe14f;" horiz-adv-x="295" 
d="M125 591l23 -65l23 65h127l-68 -121l70 -129h-127l-25 65l-25 -65h-128l71 129l-68 121h127z" />
    <glyph glyph-name="y.superior" unicode="&#xe150;" horiz-adv-x="277" 
d="M-5 591h124l21 -134l19 134h123l-121 -375h-138l57 122z" />
    <glyph glyph-name="z.superior" unicode="&#xe151;" horiz-adv-x="263" 
d="M252 341h-241v75l88 82l-83 -1v94h230v-75l-88 -82l94 1v-94z" />
    <glyph glyph-name="ampersand" unicode="&#x26;" horiz-adv-x="765" 
d="M33 203c0 112 40 174 117 221c-18 44 -28 89 -28 135c0 90 52 205 206 205c152 0 195 -82 195 -189c0 -98 -55 -152 -155 -203c36 -46 80 -92 131 -133c44 65 66 157 66 261h162c0 -144 -38 -261 -99 -346c38 -20 76 -35 115 -45l-59 -137c-54 20 -109 46 -164 77
c-63 -42 -136 -63 -213 -63c-176 0 -274 79 -274 217zM311 136c23 0 45 3 66 9c-58 46 -110 96 -152 151c-20 -20 -30 -42 -30 -69c0 -64 51 -91 116 -91zM284 561c0 -21 5 -44 14 -69c44 20 74 41 74 81c0 28 -10 41 -42 41c-34 0 -46 -17 -46 -53z" />
    <glyph glyph-name="ampersand.alt" unicode="&#xe160;" horiz-adv-x="755" 
d="M692 313c0 -52 -14 -116 -48 -174c24 -5 51 -7 79 -7v-150c-75 0 -144 18 -207 42c-47 -23 -111 -38 -183 -38c-187 0 -300 66 -300 255c0 100 43 182 127 218c-6 30 -8 61 -8 91c0 97 49 214 210 214c145 0 191 -74 191 -159c0 -52 -13 -90 -20 -105h-146
c7 17 15 48 15 70c0 32 -12 44 -39 44c-39 0 -49 -28 -49 -64c0 -88 50 -253 180 -348c24 31 36 69 36 111c0 39 -7 62 -7 62h161s8 -23 8 -62zM341 135c-53 49 -97 104 -128 166c-14 -15 -18 -36 -18 -58c0 -68 35 -108 131 -108h15z" />
    <glyph glyph-name="ampersand.small" unicode="&#xe161;" horiz-adv-x="765" 
d="M127 500h168c26 -94 107 -189 204 -261c44 65 66 157 66 261h162c0 -144 -38 -261 -99 -346c38 -20 76 -35 115 -45l-59 -137c-54 20 -109 46 -164 77c-63 -42 -136 -63 -213 -63c-176 0 -274 79 -274 217c0 112 40 174 117 221c-10 25 -18 50 -23 76zM311 136
c23 0 45 3 66 9c-58 46 -110 96 -152 151c-20 -20 -30 -42 -30 -69c0 -64 51 -91 116 -91z" />
    <glyph glyph-name="acute" unicode="&#xb4;" 
d="M305 550h-120l65 200h160z" />
    <glyph glyph-name="grave" unicode="`" 
d="M315 550h-120l-105 200h160z" />
    <glyph glyph-name="circumflex" unicode="&#x2c6;" 
d="M165 550h-123l133 200h150l133 -200h-123l-85 95z" />
    <glyph glyph-name="dieresis" unicode="&#xa8;" 
d="M35 645c0 53 41 95 95 95c53 0 95 -42 95 -95c0 -54 -42 -95 -95 -95c-54 0 -95 41 -95 95zM275 645c0 53 41 95 95 95c53 0 95 -42 95 -95c0 -54 -42 -95 -95 -95c-54 0 -95 41 -95 95z" />
    <glyph glyph-name="tilde" unicode="&#x2dc;" 
d="M122 573h-87c0 117 44 167 130 167c95 0 115 -81 164 -81c41 0 49 28 49 58h87c0 -117 -45 -167 -130 -167c-95 0 -115 81 -164 81c-41 0 -49 -28 -49 -58z" />
    </font>
</defs>
</svg>
