<?xml version="1.0" standalone="no"?>
<!DOCTYPE svg PUBLIC "-//W3C//DTD SVG 1.1//EN" "http://www.w3.org/Graphics/SVG/1.1/DTD/svg11.dtd" >
<svg>
<defs>
<font id="zAristaExtraFilled" horiz-adv-x="536" >
  <font-face 
    font-family="[z] Arista ExtraFilled"
    font-weight="400"
    font-stretch="normal"
    units-per-em="1000"
    panose-1="2 0 5 0 0 0 0 2 0 4"
    ascent="800"
    descent="-200"
    x-height="575"
    cap-height="738"
    bbox="-163 -256 962 934"
    underline-thickness="50"
    underline-position="-50"
    unicode-range="U+0020-2122"
  />
<missing-glyph horiz-adv-x="375" 
 />
    <glyph glyph-name=".notdef" horiz-adv-x="375" 
 />
    <glyph glyph-name="b" unicode="b" horiz-adv-x="522" 
d="M-73 577q0 31 15 60.5t39 52.5t54 36t61 12q31 0 59.5 -13t50 -34.5t35.5 -49t16 -57.5h12q66 0 128 -25t114 -74q51 -52 76 -110.5t25 -132.5q0 -71 -27.5 -133t-74 -108.5t-109 -73.5t-131.5 -27q-68 0 -130 27.5t-109.5 74t-75.5 109t-28 131.5v335z" />
    <glyph glyph-name="e" unicode="e" horiz-adv-x="523" 
d="M263 584q68 0 130 -28.5t109.5 -75.5t75.5 -109t28 -129q0 -48 -26 -88.5t-69 -60.5v-9q0 -29 -11.5 -60t-38.5 -58q-45 -35 -93.5 -49.5t-100.5 -16.5q-69 -3 -131.5 24.5t-110.5 75.5t-76 111t-28 131q0 67 27.5 128.5t74 109t109 76t131.5 28.5z" />
    <glyph glyph-name="f" unicode="f" horiz-adv-x="370" 
d="M289 739q34 0 64.5 -10.5t53 -30.5t36.5 -50t17 -70q0 -56 -30.5 -97.5t-79.5 -59.5v-42q29 -23 45 -56t16 -74q0 -87 -61 -131v-85q0 -45 -14 -86.5t-39.5 -76t-61.5 -60.5t-81 -40q-15 -5 -33 -8.5t-35 -3.5q-33 0 -64 10t-55 30t-39.5 51t-17.5 73q0 53 31 95t79 60
v38q-29 21 -43.5 53.5t-17.5 76.5q0 42 16 76.5t45 57.5v85q0 54 21 103.5t57.5 87.5t85.5 61t105 23z" />
    <glyph glyph-name="h" unicode="h" horiz-adv-x="529" 
d="M96 735q65 0 110.5 -42t53.5 -111h14q69 0 131.5 -26t109 -71t74 -106.5t27.5 -131.5v-183q0 -34 -12.5 -64t-34.5 -52.5t-52 -35.5t-65 -14q-33 0 -61.5 11.5t-50.5 32t-36 49t-19 62.5v187q0 5 -3 8.5t-8 3.5q-10 0 -13 -14v-174q0 -34 -12.5 -64t-34.5 -52.5
t-52 -35.5t-65 -14q-32 0 -59.5 11.5t-49 31.5t-36.5 48.5t-21 61.5v532q3 31 16 58.5t34 48.5t50 33t65 12z" />
    <glyph glyph-name="g" unicode="g" horiz-adv-x="533" 
d="M267 584q71 0 133.5 -27t108.5 -73.5t72.5 -109t26.5 -132.5q0 -62 -18 -116q18 -47 18 -103q0 -55 -20.5 -104t-56 -86.5t-84.5 -60.5t-106 -26h-256q-33 0 -62 13.5t-51 36t-34.5 52.5t-12.5 63q0 38 16.5 71t44.5 56q-29 42 -45 93t-16 111q0 69 28.5 131.5t75.5 109
t109 74t129 27.5z" />
    <glyph glyph-name="i" unicode="i" horiz-adv-x="188" 
d="M95 734q34 0 64 -13.5t52 -36t34.5 -52.5t12.5 -63q0 -41 -19 -77q16 -32 19 -68v-362q0 -69 -42.5 -114.5t-116.5 -50.5q-69 0 -114.5 40.5t-55.5 115.5v376q3 32 17 60q-17 37 -17 84q1 34 15 63.5t36.5 51t52 34t62.5 12.5z" />
    <glyph glyph-name="j" unicode="j" horiz-adv-x="339" 
d="M249 737q33 0 62.5 -11.5t51.5 -32.5t35.5 -50.5t15.5 -64.5v2q3 -44 -20 -84q17 -32 20 -73v-190q-2 -68 -29 -128t-73.5 -105.5t-107.5 -72.5t-130 -28q-35 0 -64.5 12.5t-51.5 33.5t-35.5 49.5t-16.5 61.5q0 36 12.5 67.5t35 54.5t52 36.5t64.5 14.5q13 0 13 12v191
q3 35 19 67q-7 14 -12 29.5t-7 32.5q0 41 12 73t33.5 54t50.5 34t62 15h8z" />
    <glyph glyph-name="k" unicode="k" horiz-adv-x="447" 
d="M481 185q26 -26 37.5 -56t11.5 -62q0 -31 -12 -62.5t-38 -57.5q-23 -22 -54 -35t-64 -13q-32 0 -62.5 12.5t-54.5 36.5l-18 18q-23 -29 -57 -47.5t-72 -18.5q-32 0 -62 13t-53.5 36t-38 53t-14.5 65v505q0 32 13.5 62t36.5 53.5t53.5 37.5t64.5 14t64.5 -13t53.5 -36
t36 -53.5t13 -64.5v-12q43 31 97 31q29 0 60.5 -11t57.5 -36q26 -26 38 -57.5t12 -62.5q0 -32 -11.5 -62.5t-36.5 -55.5l-61 -61z" />
    <glyph glyph-name="l" unicode="l" horiz-adv-x="280" 
d="M93 736q34 0 63 -12t51 -33.5t35.5 -50.5t16.5 -62v-360q48 -17 79 -57.5t33 -95.5q0 -30 -11 -58t-31 -50.5t-48 -37.5t-62 -20h-21q-55 0 -104.5 22.5t-86.5 60.5t-58.5 88t-21.5 105v403q4 32 17.5 60.5t35 50t49.5 34t61 13.5h3z" />
    <glyph glyph-name="m" unicode="m" horiz-adv-x="638" 
d="M208 584q30 0 56 -5t54 -18q50 23 113 23q55 0 105.5 -21t88.5 -58t61 -87t23 -107v-251q0 -32 -13.5 -61t-36.5 -51t-53 -35t-63 -13q-32 0 -60.5 12t-50.5 33q-23 -21 -52 -33t-61 -12q-31 0 -59.5 12t-51.5 32q-22 -20 -50.5 -32t-61.5 -12t-63.5 14t-53.5 37.5
t-36.5 55t-12.5 66.5v238q0 55 21.5 104.5t59 87t88.5 59.5t109 22z" />
    <glyph glyph-name="n" unicode="n" horiz-adv-x="537" 
d="M269 587q68 0 130 -25.5t109 -70t75 -105.5t28 -133v-185q0 -33 -12.5 -62.5t-34.5 -52t-52 -36t-64 -14.5q-34 0 -64.5 12t-53 33.5t-36 51.5t-13.5 65v180q0 12 -13 12q-10 0 -10 -7v-182q0 -33 -13.5 -63t-36.5 -52.5t-53 -36t-63 -13.5t-63 12.5t-53 34.5t-36.5 51.5
t-13.5 63.5v181q1 70 27.5 132t72 108.5t107.5 73.5t136 27z" />
    <glyph glyph-name="o" unicode="o" horiz-adv-x="526" 
d="M263 575q69 0 131.5 -26.5t109 -73t74 -109t27.5 -134.5q0 -70 -26.5 -132t-73 -108.5t-108.5 -73.5t-134 -27q-71 0 -133 25.5t-108.5 71t-73.5 108t-27 136.5q0 70 26 131.5t71.5 107.5t107 73.5t133.5 30.5h4z" />
    <glyph glyph-name="p" unicode="p" horiz-adv-x="522" 
d="M270 583q69 0 131.5 -27t109 -73.5t74 -109t27.5 -132.5q0 -71 -26 -133t-72 -108.5t-108.5 -73.5t-135.5 -27h-12q-2 -32 -15.5 -60t-36 -49t-52 -33t-62.5 -12q-32 0 -61 12t-52 33.5t-37 50.5t-15 63v337q0 69 27.5 131.5t74.5 109t109 74t132 27.5z" />
    <glyph glyph-name="q" unicode="q" horiz-adv-x="522" 
d="M252 583q70 0 132 -27.5t109 -74t74.5 -109t27.5 -131.5v-337q-1 -34 -15 -63t-37 -50.5t-52.5 -33.5t-60.5 -12q-34 0 -63.5 12t-51.5 33t-35.5 49t-15.5 60h-12q-73 0 -135.5 27t-108.5 73.5t-72 108.5t-26 133q0 70 27 132.5t73.5 109t108.5 73.5t133 27z" />
    <glyph glyph-name="r" unicode="r" horiz-adv-x="337" 
d="M88 -101q-35 0 -64 11.5t-50.5 32.5t-34.5 50.5t-16 65.5v190q1 69 28.5 129t73.5 104.5t107 71t130 29.5q35 0 64.5 -12.5t52 -33.5t36 -49.5t16.5 -61.5q0 -36 -13 -67.5t-35 -54.5t-52.5 -36.5t-64.5 -14.5q-5 0 -8.5 -3.5t-3.5 -8.5v-191q-6 -66 -49 -108.5
t-117 -42.5z" />
    <glyph glyph-name="s" unicode="s" horiz-adv-x="461" 
d="M351 586q35 0 65 -14.5t51.5 -38t34 -52.5t12.5 -59q0 -28 -10.5 -54t-27.5 -47q29 -35 45 -77.5t16 -88.5q0 -56 -19 -102.5t-53.5 -80.5t-82 -53t-104.5 -19h-169q-34 0 -63.5 12.5t-51.5 34t-34.5 51.5t-12.5 66q0 27 10 53t27 49q-28 34 -44 76.5t-16 90.5
q0 50 19 95t52.5 79.5t78.5 55.5t97 23h180z" />
    <glyph glyph-name="t" unicode="t" horiz-adv-x="479" 
d="M95 739q31 0 59 -11t49.5 -30.5t36.5 -45.5t20 -57h95q36 0 66.5 -13.5t52 -36.5t34 -53t12.5 -64q0 -23 -8 -45.5t-21.5 -42.5t-31.5 -36.5t-39 -26.5q24 -4 47.5 -14.5t43.5 -26.5q28 -25 41.5 -58t13.5 -65q0 -30 -10.5 -59t-33.5 -54q-49 -48 -109.5 -74t-129.5 -26
q-72 0 -136.5 24.5t-112.5 70t-77 109.5t-30 142v330q0 35 13.5 65t37 51.5t54 34t63.5 12.5z" />
    <glyph glyph-name="u" unicode="u" horiz-adv-x="538" 
d="M91 585q33 0 63 -13t53 -36t36.5 -53.5t13.5 -64.5v-176q0 -12 12 -12q11 0 11 7v182q0 26 7 50t23 44q2 3 9 11.5t10 11.5q23 22 53.5 35.5t62.5 13.5q69 0 118 -49q24 -25 35.5 -52t13.5 -59v-183q0 -71 -26.5 -133t-73 -108.5t-109 -73.5t-134.5 -27h4
q-69 -3 -131.5 23.5t-110.5 73t-76.5 108t-28.5 130.5v184q0 33 12.5 63t34 52.5t51 36t64.5 14.5h3z" />
    <glyph glyph-name="w" unicode="w" horiz-adv-x="638" 
d="M208 -100q-58 0 -109 22t-88.5 59.5t-59 87t-21.5 104.5v238q-1 35 12.5 66.5t36.5 55t53.5 37.5t63.5 14t61.5 -12t50.5 -32q23 20 51.5 32t59.5 12q32 0 61 -12t52 -33q22 21 50.5 33t60.5 12q33 0 63 -13t53 -35t36.5 -51t13.5 -61v-251q0 -57 -23 -107t-61 -87
t-88.5 -58t-105.5 -21q-61 0 -113 23q-28 -13 -54 -18t-56 -5z" />
    <glyph glyph-name="v" unicode="v" horiz-adv-x="452" 
d="M425 573q32 -13 55 -36.5t35.5 -53t13 -62t-12.5 -64.5l1 2q-34 -88 -67.5 -177t-67.5 -177q-6 -14 -19.5 -32t-33.5 -34.5t-45.5 -27.5t-55.5 -11q-49 0 -92 24t-65 82q-34 88 -68 176.5t-68 176.5l1 -2q-13 32 -12.5 65t13.5 62.5t36 53t55 36.5q28 10 56 10.5t54 -8
t48.5 -24.5t39.5 -39q16 23 39.5 39t49.5 24.5t54 8t55 -10.5z" />
    <glyph glyph-name="x" unicode="x" horiz-adv-x="541" 
d="M334 537q23 22 52.5 34t60.5 12q29 0 59.5 -11t56.5 -36q25 -25 37 -55t12 -62t-12 -63t-35 -54l-60 -60q15 -16 30 -30.5t30 -29.5q23 -23 35.5 -54.5t12.5 -63.5q0 -31 -11.5 -61.5t-36.5 -55.5q-47 -47 -115 -47q-32 0 -63 13t-56 36q-14 13 -19 18.5t-9 9t-10 9.5
l-21 21l-59 -59q-26 -23 -57 -35.5t-63 -12.5t-60.5 10.5t-54.5 36.5q-25 25 -36.5 55.5t-11.5 62.5q0 29 10.5 58t34.5 55l63 64l-62 62q-24 24 -35 52.5t-11 59.5q0 63 45 116q27 27 57 39.5t61 12.5q32 0 62 -12.5t55 -35.5l62 -61z" />
    <glyph glyph-name="y" unicode="y" horiz-adv-x="529" 
d="M77 585q31 0 61 -12t53 -33t37.5 -50.5t14.5 -65.5v-181q0 -11 12 -11q5 0 8.5 2t3.5 4v183q0 34 12.5 63.5t34.5 52t52.5 35.5t65.5 13q33 0 63 -12t53 -34t36.5 -51.5t13.5 -63.5v-514q0 -34 -13.5 -63.5t-36.5 -51.5t-53 -34.5t-63 -12.5q-30 0 -59 11t-51.5 31
t-37 48t-17.5 63h-12q-69 0 -131.5 26.5t-109.5 73t-74.5 110.5t-27.5 139v171q0 34 12.5 63.5t34.5 52t52.5 35.5t65.5 13z" />
    <glyph glyph-name="z" unicode="z" horiz-adv-x="545" 
d="M452 584q67 0 117 -50q25 -26 36 -55t11 -59q0 -69 -48 -117l-20 -20l-58 -58q21 -5 41 -16t38 -29q25 -26 36 -55.5t11 -60.5q0 -30 -11.5 -59t-37.5 -57q-52 -48 -118 -48h-354q-68 0 -116 48q-24 25 -36.5 53t-11.5 63q-3 68 47 116l79 79q-24 5 -43 16.5t-35 27.5
l3 -2q-54 49 -51 119q-1 33 12.5 62.5t35.5 53.5q23 22 53.5 35t62.5 13h357z" />
    <glyph glyph-name="c" unicode="c" horiz-adv-x="472" 
d="M263 584q141 0 242 -101q23 -25 33.5 -53t10.5 -57q0 -31 -12 -62.5t-37 -55.5q-7 -7 -16 -13q5 -4 8.5 -7t7.5 -7q22 -23 35.5 -54t13.5 -62q0 -30 -12 -58.5t-32 -51.5q-51 -51 -110.5 -76.5t-131.5 -25.5q-70 0 -132 27.5t-109 74t-74.5 109t-27.5 131.5
q0 68 27.5 130t74.5 109t109.5 75t131.5 28z" />
    <glyph glyph-name="a" unicode="a" horiz-adv-x="532" 
d="M303 582q64 -8 119.5 -37t96 -74.5t64 -104t23.5 -124.5v-177q0 -34 -14 -64t-37 -52.5t-53 -35.5t-61 -13q-41 0 -73 16q-6 -2 -12.5 -3.5t-13.5 -3.5q-38 -9 -78 -9q-53 0 -101 15t-89 42t-72.5 64.5t-51.5 82.5q-14 32 -21.5 66.5t-7.5 71.5q0 38 7.5 71.5t21.5 65.5
q20 46 52 83.5t72.5 64.5t88.5 42t101 15h16.5t22.5 -2z" />
    <glyph glyph-name="d" unicode="d" horiz-adv-x="522" 
d="M430 737q33 0 63 -12t52.5 -34t36 -52.5t13.5 -67.5v-329q0 -69 -28 -131.5t-75 -109t-109 -74t-130 -27.5t-130 27t-109.5 73.5t-75.5 108.5t-28 133q0 69 27.5 131.5t74.5 109t109.5 74t131.5 27.5h11q3 32 17.5 60t37 48.5t51 32.5t60.5 12z" />
    <glyph glyph-name="exclam" unicode="!" horiz-adv-x="194" 
d="M264 67q0 -34 -13.5 -64t-36.5 -53t-53 -36.5t-63 -13.5q-35 0 -65.5 13.5t-53.5 36.5t-36.5 53t-13.5 64q0 23 6 43.5t17 38.5q-23 38 -23 85v337q0 35 13.5 66t36.5 53.5t53.5 35.5t65.5 13q33 0 63 -13t53 -35.5t36.5 -53.5t13.5 -66v-337q0 -23 -6 -44.5t-17 -39.5
q11 -19 17 -39.5t6 -43.5zM64 67q0 -13 10 -22.5t24 -9.5q13 0 22 9.5t9 22.5v2q-15 -3 -31 -3q-18 0 -34 3v-2z" />
    <glyph glyph-name="quotedbl" unicode="&#x22;" horiz-adv-x="345" 
d="M249 739q36 0 66.5 -13t53 -36t35 -53.5t12.5 -64.5v-125q0 -35 -12.5 -65t-35 -53t-53 -36t-66.5 -13q-42 0 -75 18q-35 -18 -77 -18q-34 0 -64.5 13t-53.5 36t-36.5 53t-13.5 65v125q0 34 13.5 64.5t36.5 53.5t53.5 36t64.5 13q21 0 40 -5t36 -13q17 8 36.5 13t39.5 5z
" />
    <glyph glyph-name="dollar" unicode="$" horiz-adv-x="485" 
d="M553 499q0 -29 -11.5 -56.5t-31.5 -50.5q27 -34 42.5 -75.5t15.5 -86.5t-13 -85t-37 -72t-58 -55t-75 -34q-22 -38 -60 -61t-85 -23q-44 0 -80 20t-59 53h-4q-35 0 -65.5 12.5t-52.5 35t-34.5 53t-12.5 66.5q0 29 11 56t31 50q-27 34 -42 75.5t-15 89.5q0 39 14.5 75.5
t38.5 67.5t55 55t65 39q21 41 61 66t89 25q43 0 79.5 -20t59.5 -53q42 -1 74.5 -16t54.5 -39t33.5 -53t11.5 -59zM153 354q3 -1 9 -1h45v113h-38q-15 -3 -29 -14l-13 -13q-10 -15 -10 -28q0 -15 4 -26zM273 285v-108q44 7 69.5 21t25.5 32q0 9 -3 17l-37 37q-2 1 -7 1h-48z
" />
    <glyph glyph-name="percent" unicode="%" horiz-adv-x="397" 
d="M-100 573q0 34 12.5 64.5t35 53.5t53 36t66.5 13q55 0 99 -33q32 24 72 31.5t82 -6.5l-3 1q33 -10 58 -32t40 -50.5t18.5 -61.5t-5.5 -66l-46 -144t-46 -145q30 -5 55.5 -20.5t44.5 -37.5t29.5 -50t10.5 -58q0 -34 -13 -64.5t-35.5 -53.5t-53.5 -36.5t-66 -13.5
q-29 0 -55 9t-47 26q-32 -23 -71 -30.5t-77 4.5q-33 10 -58 31t-40 49.5t-18.5 61.5t6.5 67l92 290q-30 4 -56 18.5t-44.5 36t-29 50t-10.5 60.5zM67 540q10 0 17 4l13 42q-8 20 -30 20q-13 0 -22.5 -9.5t-9.5 -23.5t9.5 -23.5t22.5 -9.5zM292 96q-3 -11 -6.5 -21t-6.5 -21
q8 -18 29 -18q14 0 23.5 9.5t9.5 22.5t-9.5 22.5t-23.5 9.5q-5 0 -8.5 -1t-7.5 -3z" />
    <glyph glyph-name="ampersand" unicode="&#x26;" horiz-adv-x="657" 
d="M684 180q26 -24 39 -56t13 -64q0 -29 -9.5 -56t-29.5 -50q-24 -28 -57 -42t-66 -14q-29 0 -59 11.5t-53 33.5q-5 4 -8.5 7.5t-8.5 6.5q-38 -26 -81.5 -41.5t-91.5 -15.5q-66 0 -119.5 25t-91 66t-58 93.5t-20.5 108.5q0 40 8.5 77.5t31.5 73.5q-26 55 -26 119
q0 57 21.5 107t59 87.5t87.5 59t107 21.5q61 0 111.5 -23.5t86.5 -62.5t55.5 -89.5t19.5 -103.5v-11q49 -6 90 -41q27 -24 40 -55.5t13 -64.5q0 -23 -6 -45.5t-20 -42.5q5 -5 10 -9l10 -8zM272 414q21 0 35.5 14.5t14.5 34.5q0 17 -13.5 33.5t-36.5 16.5q-20 0 -34.5 -14.5
t-14.5 -35.5q0 -20 14.5 -34.5t34.5 -14.5zM306 192q0 14 -9.5 23.5t-23.5 10.5l4 -65l6 -1q10 2 16.5 11t6.5 21z" />
    <glyph glyph-name="quotesingle" unicode="'" horiz-adv-x="190" 
d="M95 741q36 0 66.5 -13t53 -36t35 -53.5t12.5 -64.5v-125q0 -35 -12.5 -65t-35 -53t-53 -36t-66.5 -13q-34 0 -64.5 13t-53.5 36t-36.5 53t-13.5 65v125q0 34 13.5 64.5t36.5 53.5t53.5 36t64.5 13z" />
    <glyph glyph-name="parenleft" unicode="(" horiz-adv-x="377" 
d="M281 100q35 0 66 -12.5t53.5 -35t35.5 -53t13 -66.5q0 -35 -13 -65t-35.5 -53t-53.5 -36t-66 -13h-13q-70 0 -132.5 28t-110 75.5t-75.5 110t-28 130.5v285q0 69 28 131.5t75.5 110t110 75.5t132.5 28h13q35 0 66 -13t53.5 -36t35.5 -53.5t13 -64.5q0 -36 -13 -66.5
t-35.5 -53t-53.5 -35t-66 -12.5q-9 0 -16 -16t-7 -32v-234q0 -10 7 -17t16 -7z" />
    <glyph glyph-name="parenright" unicode=")" horiz-adv-x="377" 
d="M96 100q9 0 16 7t7 17v234q0 16 -7 32t-16 16q-35 0 -66 12.5t-53.5 35t-35.5 53t-13 66.5q0 34 13 64.5t35.5 53.5t53.5 36t66 13h13q70 0 132.5 -28t110 -75.5t75.5 -110t28 -131.5v-285q0 -68 -28 -130.5t-75.5 -110t-110 -75.5t-132.5 -28h-13q-35 0 -66 13t-53.5 36
t-35.5 53t-13 65q0 36 13 66.5t35.5 53t53.5 35t66 12.5z" />
    <glyph glyph-name="asterisk" unicode="*" horiz-adv-x="270" 
d="M329 634q17 -29 19 -61.5t-9 -61.5q11 -29 9 -61.5t-19 -60.5q-17 -26 -41.5 -41t-51.5 -20q-19 -21 -45.5 -33.5t-55.5 -12.5q-32 0 -58.5 13t-44.5 34q-28 5 -52.5 20.5t-40.5 42.5l1 -2q-17 27 -19 59t9 61q-11 29 -9.5 61t18.5 61q16 24 39.5 39t50.5 20
q18 23 45.5 36t60.5 13q31 0 58 -13t46 -36q26 -5 49.5 -19t40.5 -38z" />
    <glyph glyph-name="bracketleft" unicode="[" horiz-adv-x="304" 
d="M377 573q0 -57 -31.5 -99t-80.5 -59v-324q49 -17 80.5 -59t31.5 -99q0 -35 -13 -65t-36 -53t-53.5 -36t-64.5 -13h-112q-35 0 -63.5 12.5t-50 33.5t-35.5 49t-18 59v666q5 31 18.5 58.5t34.5 48.5t49.5 33.5t62.5 13.5h114q34 0 64.5 -13t53.5 -36t36 -53.5t13 -64.5z
" />
    <glyph glyph-name="bracketright" unicode="]" horiz-adv-x="304" 
d="M-73 -67q0 57 31.5 99t80.5 59v324q-49 17 -80.5 59t-31.5 99q0 34 13 64.5t36 53.5t53 36t65 13h113q34 -1 62.5 -13.5t50 -33.5t35 -48.5t18.5 -58.5v-666q-5 -31 -18.5 -59t-35 -49t-50.5 -33.5t-63 -12.5h-112q-35 0 -65 13t-53 36t-36 53t-13 65z" />
    <glyph glyph-name="plus" unicode="+" horiz-adv-x="417" 
d="M194 595q30 0 56.5 -10t48.5 -27.5t37.5 -42t21.5 -52.5q28 -6 52 -21t41.5 -36.5t27.5 -48.5t10 -57t-10 -56.5t-28 -48.5t-42 -37t-52 -22q-6 -28 -21.5 -52t-37 -41.5t-48.5 -27.5t-56 -10q-30 0 -57 10t-49 27.5t-37 41.5t-21 52q-29 6 -52.5 21.5t-41 37t-27 48.5
t-9.5 57q0 61 36.5 106t93.5 58q6 28 21 52.5t36.5 41.5t48.5 27t58 10z" />
    <glyph glyph-name="comma" unicode="," horiz-adv-x="190" 
d="M94 236q35 0 65.5 -13.5t53.5 -36.5t36.5 -53t13.5 -64v-125q0 -35 -13.5 -65t-36.5 -53t-53.5 -36t-65.5 -13t-65 13t-53 36t-36 53t-13 65v125q0 34 13 64t36 53t53 36.5t65 13.5z" />
    <glyph glyph-name="hyphen" unicode="-" horiz-adv-x="426" 
d="M489 301q0 -34 -13 -64.5t-36 -53.5t-53.5 -36.5t-64.5 -13.5h-255q-36 0 -66.5 13.5t-53 36.5t-35 53.5t-12.5 64.5q0 35 12.5 66t35 53.5t53 35.5t66.5 13h255q34 0 64.5 -13t53.5 -35.5t36 -53.5t13 -66z" />
    <glyph glyph-name="period" unicode="." horiz-adv-x="163" 
d="M36 68q0 -13 9 -22.5t22 -9.5q14 0 23.5 9.5t9.5 22.5t-9.5 22.5t-23.5 9.5q-13 0 -22 -9.5t-9 -22.5zM236 68q0 -34 -13.5 -64.5t-36.5 -53.5t-53.5 -36.5t-65.5 -13.5t-65 13.5t-53 36.5t-36 53.5t-13 64.5t13 64.5t36 53.5t53 36.5t65 13.5t65.5 -13.5t53.5 -36.5
t36.5 -53.5t13.5 -64.5z" />
    <glyph glyph-name="slash" unicode="/" horiz-adv-x="341" 
d="M278 731q32 -10 56.5 -32t39.5 -50.5t18.5 -61.5t-5.5 -65q-39 -125 -80 -252.5t-80 -252.5q-11 -32 -32.5 -57t-50 -40t-61.5 -18.5t-65 6.5l1 -1q-34 10 -59.5 31.5t-40.5 49.5t-18.5 61t6.5 68l161 505l-1 -1q10 34 32.5 59.5t52 40.5t62.5 18t66 -8h-2z" />
    <glyph glyph-name="braceleft" unicode="{" horiz-adv-x="432" 
d="M336 100q34 0 64.5 -13t53.5 -35.5t36.5 -53t13.5 -64.5q0 -35 -13.5 -66t-36.5 -53.5t-53.5 -35.5t-64.5 -13h-13q-69 0 -131.5 28t-110 75.5t-75 110t-27.5 131.5v6q-29 23 -48.5 59t-19.5 76q0 44 17 78.5t51 57.5v7q0 69 27.5 131t75 109.5t110 75.5t131.5 28h13
q34 0 64.5 -13t53.5 -36t36.5 -53.5t13.5 -64.5q0 -35 -13.5 -65t-36.5 -53t-53.5 -36t-64.5 -13q-9 0 -15.5 -16t-6.5 -32v-233q0 -10 6.5 -17t15.5 -7z" />
    <glyph glyph-name="one" unicode="1" horiz-adv-x="459" 
d="M361 693q29 -29 39 -62.5t10 -65.5v-335q29 -6 53.5 -21t42.5 -36.5t28.5 -49t10.5 -57.5q0 -34 -13 -64.5t-36 -53t-53.5 -35.5t-64.5 -13h-270q-35 0 -65 13t-52.5 35.5t-35.5 53t-13 64.5q0 30 10.5 57.5t28.5 49t42.5 36.5t53.5 21v24q-29 2 -56.5 13.5t-49.5 35.5
q-23 23 -36 55t-13 62q0 32 12.5 63t36.5 55l157 157q52 45 115 45q29 0 58 -10.5t54 -31.5z" />
    <glyph glyph-name="two" unicode="2" horiz-adv-x="456" 
d="M436 273q-8 -11 -15.5 -22.5t-15.5 -22.5q27 -7 50 -22t40 -36.5t26.5 -48t9.5 -55.5q0 -34 -13 -64.5t-35.5 -53t-52.5 -35.5t-64 -13h-271q-32 0 -60.5 12t-51 33t-36.5 49t-17 60q-3 29 4.5 58.5t24.5 55.5l165 238h-17q-34 1 -63.5 15.5t-51.5 37.5t-34.5 53
t-12.5 61q0 36 12.5 66.5t35 52.5t52 34.5t64.5 12.5h151q56 0 103.5 -19.5t82 -53.5t54 -80.5t20.5 -100.5q0 -15 -2.5 -35t-6.5 -38.5t-8.5 -33.5t-7.5 -20l-59 -86v1v0z" />
    <glyph glyph-name="three" unicode="3" horiz-adv-x="451" 
d="M527 448q0 -68 -28 -127q13 -28 20.5 -61.5t7.5 -65.5q0 -61 -23 -114.5t-62.5 -93.5t-93 -63t-113.5 -23h-140q-35 0 -65 13t-52.5 35.5t-35.5 53t-13 64.5q0 48 22 85.5t59 58.5q-20 22 -30.5 50t-10.5 60t11 60t31 50q-37 22 -59.5 60t-22.5 85q0 34 13 64.5t35.5 53
t52.5 35.5t65 13h140q60 0 113.5 -23t93 -63t62.5 -93t23 -114z" />
    <glyph glyph-name="four" unicode="4" horiz-adv-x="426" 
d="M520 241q0 -42 -16.5 -75.5t-46.5 -56.5v-43q0 -35 -13 -65t-35.5 -53t-53.5 -36t-67 -13q-34 0 -64.5 13t-53 36t-35.5 53t-13 65v7h-37q-35 0 -65 13t-53 35.5t-36 53.5t-13 67v329q0 36 13 66.5t36 53t53 35t65 12.5t65.5 -12.5t53.5 -35t36.5 -53t13.5 -66.5v-102
q8 2 16.5 3t17.5 1q50 0 89.5 -23.5t60.5 -64.5q38 -22 60 -60t22 -84z" />
    <glyph glyph-name="five" unicode="5" horiz-adv-x="485" 
d="M525 571q0 -37 -14.5 -68.5t-39.5 -54.5q42 -43 67 -100t25 -124t-25.5 -126t-69.5 -103t-103 -69.5t-126 -25.5q-39 0 -84.5 13.5t-87 38.5t-74.5 60.5t-48 78.5l2 -4q-17 44 -7.5 92.5t40.5 83.5q-23 23 -36 52.5t-13 63.5v192q0 35 13.5 66t36.5 53.5t53.5 35.5
t64.5 13h258q35 0 66 -13t53.5 -35.5t35.5 -53.5t13 -66z" />
    <glyph glyph-name="six" unicode="6" horiz-adv-x="448" 
d="M-65 126q-5 17 -7.5 36t-2.5 39v248q4 51 26 101.5t58.5 91.5t86 67.5t109.5 29.5h111q34 0 64.5 -13t53 -35.5t35.5 -52.5t13 -65q0 -42 -19 -77t-51 -58q53 -42 84 -103.5t31 -133.5q0 -62 -23.5 -117t-64.5 -96t-96 -64.5t-117 -23.5q-52 0 -99.5 17t-86 47t-66 71.5
t-39.5 89.5v1zM226 169q13 0 22 9t9 23t-9 22.5t-22 8.5t-22 -8.5t-9 -22.5t9 -23t22 -9z" />
    <glyph glyph-name="eight" unicode="8" horiz-adv-x="449" 
d="M510 454q0 -29 -5.5 -56t-15.5 -52q37 -68 37 -146q0 -62 -24 -117t-65 -96t-96 -64.5t-117 -23.5t-117 23.5t-96 64.5t-64.5 96t-23.5 117q0 39 10 76.5t27 69.5q-11 26 -16.5 52.5t-5.5 55.5q0 59 22.5 111t61.5 91t91 61.5t111 22.5t111 -22.5t91 -61.5t61.5 -91
t22.5 -111zM224 409q19 0 32.5 13t13.5 32q0 7 -2.5 15t-8.5 15.5t-14.5 12.5t-20.5 5q-19 0 -32.5 -12.5t-13.5 -35.5q0 -19 13 -32t33 -13zM224 231q-12 0 -21 -9t-9 -22q0 -11 8 -21t22 -10q12 0 21.5 8.5t9.5 22.5q0 13 -9 22t-22 9z" />
    <glyph glyph-name="nine" unicode="9" horiz-adv-x="448" 
d="M513 513q5 -17 7.5 -36t2.5 -39v-248q-5 -52 -26.5 -102.5t-58 -91t-86 -67t-109.5 -29.5h-111q-34 0 -64.5 13t-53 35.5t-35.5 52.5t-13 65q0 42 19 77t51 58q-53 42 -84 103.5t-31 133.5q0 62 23.5 117t64.5 96t96 64.5t117 23.5q52 0 99.5 -17t86 -47t66 -71.5
t39.5 -89.5v-1zM222 470q-13 0 -22 -9t-9 -23t9 -22.5t22 -8.5t22 8.5t9 22.5t-9 23t-22 9z" />
    <glyph glyph-name="seven" unicode="7" horiz-adv-x="451" 
d="M369 738q39 -1 69.5 -15.5t51.5 -37.5t31.5 -53.5t10.5 -63.5q0 -21 -6 -43t-15 -42l-273 -504q-24 -38 -61.5 -58.5t-79.5 -20.5q-23 0 -47 7t-44 20q-35 24 -55 61t-20 78q0 21 7 44t18 43q34 63 68 126.5t68 126.5q-32 3 -59.5 17t-47.5 36t-31.5 51t-11.5 62
q0 34 13 64.5t35.5 53t52.5 35.5t65 13h261z" />
    <glyph glyph-name="zero" unicode="0" horiz-adv-x="453" 
d="M226 739q62 0 117 -23.5t96 -64t64.5 -95.5t23.5 -118v-237q0 -62 -23.5 -117t-64.5 -96t-96 -64.5t-117 -23.5q-63 0 -118 23.5t-95.5 64.5t-64 96t-23.5 117v237q0 63 23.5 118t64 95.5t95.5 64t118 23.5z" />
    <glyph glyph-name="backslash" unicode="\" horiz-adv-x="341" 
d="M15 731q33 11 66 8t62.5 -18t51.5 -40.5t33 -59.5l-1 1q40 -127 80 -252.5t80 -252.5q10 -35 6.5 -68t-18.5 -61t-40.5 -49.5t-58.5 -31.5l1 1q-32 -10 -65 -6.5t-61.5 18.5t-50.5 40t-32 57q-39 125 -80 252.5t-80 252.5q-10 33 -6.5 65.5t18.5 61t39.5 50.5t57.5 32h-2
z" />
    <glyph glyph-name="bar" unicode="|" horiz-adv-x="203" 
d="M100 740q35 0 66 -13.5t54.5 -37t37 -54.5t13.5 -66v-632q0 -35 -13.5 -66.5t-37 -54.5t-54.5 -36.5t-66 -13.5q-36 0 -67 13.5t-54 36.5t-36 54.5t-13 66.5v632q0 35 13 66t36 54.5t54 37t67 13.5z" />
    <glyph glyph-name="braceright" unicode="}" horiz-adv-x="432" 
d="M96 100q9 0 15.5 7t6.5 17v233q0 16 -6.5 32t-15.5 16q-34 0 -64.5 13t-53.5 36t-36.5 53t-13.5 65q0 34 13.5 64.5t36.5 53.5t53.5 36t64.5 13h13q69 0 131.5 -28t110 -75.5t75 -109.5t27.5 -131v-7q28 -23 48 -60t20 -76q0 -44 -17 -78t-51 -57v-6q0 -69 -27.5 -131.5
t-75 -110t-110 -75.5t-131.5 -28h-13q-34 0 -64.5 13t-53.5 35.5t-36.5 53.5t-13.5 66q0 34 13.5 64.5t36.5 53t53.5 35.5t64.5 13z" />
    <glyph glyph-name="colon" unicode=":" horiz-adv-x="184" 
d="M260 68q0 -34 -13.5 -64.5t-36.5 -53.5t-53.5 -36.5t-65.5 -13.5t-65 13.5t-53 36.5t-36 53.5t-13 64.5t13 64.5t36 53.5t53 36.5t65 13.5t65.5 -13.5t53.5 -36.5t36.5 -53.5t13.5 -64.5zM260 417q0 -34 -13.5 -64.5t-36.5 -53.5t-53.5 -36.5t-65.5 -13.5t-65 13.5
t-53 36.5t-36 53.5t-13 64.5t13 64.5t36 53.5t53 36.5t65 13.5t65.5 -13.5t53.5 -36.5t36.5 -53.5t13.5 -64.5z" />
    <glyph glyph-name="semicolon" unicode=";" horiz-adv-x="190" 
d="M94 236q35 0 65.5 -13.5t53.5 -36.5t36.5 -53t13.5 -64v-125q0 -35 -13.5 -65t-36.5 -53t-53.5 -36t-65.5 -13t-65 13t-53 36t-36 53t-13 65v125q0 34 13 64t36 53t53 36.5t65 13.5zM263 417q0 -34 -13.5 -64.5t-36.5 -53.5t-53.5 -36.5t-65.5 -13.5t-65 13.5t-53 36.5
t-36 53.5t-13 64.5t13 64.5t36 53.5t53 36.5t65 13.5t65.5 -13.5t53.5 -36.5t36.5 -53.5t13.5 -64.5zM63 417q0 -13 9 -22.5t22 -9.5q14 0 23.5 9.5t9.5 22.5t-9.5 22.5t-23.5 9.5q-13 0 -22 -9.5t-9 -22.5z" />
    <glyph glyph-name="quoteleft" unicode="&#x2018;" horiz-adv-x="170" 
d="M-9 667q18 33 47 52.5t68 19.5q27 0 50.5 -10t41 -27.5t27 -41t9.5 -50.5v-163q0 -35 -13 -65t-35.5 -53t-53.5 -36t-66 -13q-37 0 -67.5 14t-52.5 37.5t-34 54t-12 62.5q0 41 21 82l-1 -3z" />
    <glyph glyph-name="quoteright" unicode="&#x2019;" horiz-adv-x="169" 
d="M142 351q-18 -32 -46.5 -51.5t-67.5 -19.5q-27 0 -50.5 10t-41 27.5t-27 41t-9.5 50.5v163q0 34 13 64.5t35.5 53.5t53.5 36t66 13q37 0 67.5 -14t52.5 -37.5t34 -54t12 -62.5q0 -43 -21 -82l1 3z" />
    <glyph glyph-name="quotedblleft" unicode="&#x201c;" horiz-adv-x="338" 
d="M-9 667q18 33 47 52.5t68 19.5q45 0 78 -27q33 27 78 27q27 0 50.5 -10t41 -27.5t27 -41t9.5 -50.5v-163q0 -35 -13 -65t-35.5 -53t-53.5 -36t-66 -13q-42 0 -78 19q-36 -19 -78 -19q-37 0 -67.5 14t-52.5 37.5t-34 54t-12 62.5q0 41 21 82l-1 -3z" />
    <glyph glyph-name="quotedblright" unicode="&#x201d;" horiz-adv-x="338" 
d="M297 351q-18 -32 -46.5 -51.5t-67.5 -19.5q-23 0 -42.5 7t-36.5 19q-32 -26 -77 -26q-27 0 -50.5 10t-41 27.5t-27 41t-9.5 50.5v163q0 34 13 64.5t35.5 53.5t53.5 36t66 13q42 0 77 -19q38 19 79 19q37 0 67.5 -14t52.5 -37.5t34 -54t12 -62.5q0 -43 -21 -82l1 3z" />
    <glyph glyph-name="quotesinglbase" unicode="&#x201a;" horiz-adv-x="172" 
d="M142 -185q-18 -32 -46.5 -51.5t-67.5 -19.5q-27 0 -50.5 10t-41 27.5t-27 41t-9.5 50.5v163q0 34 13 64.5t35.5 53.5t53.5 36t66 13q37 0 67.5 -14t52.5 -37.5t34 -54t12 -62.5q0 -43 -21 -82l1 3z" />
    <glyph glyph-name="quotedblbase" unicode="&#x201e;" horiz-adv-x="318" 
d="M298 -185q-18 -32 -46.5 -51.5t-67.5 -19.5q-44 0 -79 27q-33 -27 -77 -27q-27 0 -50.5 10t-41 27.5t-27 41t-9.5 50.5v163q0 34 13 64.5t35.5 53.5t53.5 36t66 13q42 0 77 -19q38 19 79 19q37 0 67.5 -14t52.5 -37.5t34 -54t12 -62.5q0 -43 -21 -82l1 3z" />
    <glyph glyph-name="grave" unicode="`" horiz-adv-x="245" 
d="M264 629l-2 1q34 -22 48 -52.5t8 -65.5q-3 -27 -15.5 -49.5t-32 -37t-44.5 -20.5t-52 -1q-35 5 -69.5 10t-69.5 10q-32 5 -59 21.5t-45 41t-26.5 55t-4.5 63.5q5 31 19.5 56t36 42.5t48 27t54.5 9.5q26 0 51 -8t48 -26z" />
    <glyph glyph-name="agrave" unicode="&#xe0;" horiz-adv-x="535" 
d="M408 663l-2 1q34 -22 48 -52.5t8 -65.5q-2 -12 -4 -22q33 -23 60 -54q41 -45 64.5 -103.5t23.5 -124.5v-177q0 -34 -14 -64t-37 -52.5t-53 -35.5t-61 -13q-41 0 -73 16q-6 -2 -12.5 -3.5t-13.5 -3.5q-38 -9 -78 -9q-53 0 -101 15t-89 42t-72.5 64.5t-51.5 82.5
q-14 32 -21.5 66.5t-7.5 71.5q0 38 7.5 71.5t21.5 65.5q20 46 52 83q31 36 69 63q-15 23 -23 50q-8 31 -4 64q5 31 19.5 56t36 42.5t48 27t54.5 9.5q26 0 51 -8t48 -26z" />
    <glyph glyph-name="acute" unicode="&#xb4;" horiz-adv-x="245" 
d="M64 709l-6 -5q23 19 49 27.5t52 8.5q28 0 54 -9.5t47.5 -27t36.5 -42.5t20 -56q4 -33 -4.5 -63.5t-26.5 -55t-45 -41t-59 -21.5l-140 -20q-27 -4 -51.5 2.5t-44 21t-32 36t-15.5 48.5q-2 32 11.5 63.5t41.5 52.5z" />
    <glyph glyph-name="aacute" unicode="&#xe1;" horiz-adv-x="535" 
d="M222 745l-1 -1q21 16 44 23q26 9 52 9q28 0 54 -9.5t47.5 -27t36.5 -42.5t20 -56q4 -33 -5 -64q-7 -26 -21 -48q39 -24 69 -59q41 -45 64.5 -103.5t23.5 -124.5v-177q0 -34 -14 -64t-37 -52.5t-53 -35.5t-61 -13q-41 0 -73 16q-6 -2 -12.5 -3.5t-13.5 -3.5q-38 -9 -78 -9
q-53 0 -101 15t-89 42t-72.5 64.5t-51.5 82.5q-14 32 -21.5 66.5t-7.5 71.5q0 38 7.5 71.5t21.5 65.5q20 46 52 83q27 32 61 57q-5 14 -6 29q-2 32 11.5 63.5t41.5 52.5z" />
    <glyph glyph-name="question" unicode="?" horiz-adv-x="434" 
d="M329 67q0 -35 -13 -65t-36 -53t-53.5 -36t-64.5 -13t-64 13t-52.5 36t-35.5 53t-13 65q0 44 22 82q-22 39 -22 83v60q-33 20 -54.5 53t-25.5 75q0 61 21.5 119t61.5 102t96 71t124 27q62 0 117 -23.5t96.5 -64.5t65.5 -96t24 -118q0 -51 -16 -96.5t-44 -84.5
q-29 -39 -69 -67.5t-85 -43.5q20 -35 20 -78z" />
    <glyph glyph-name="A" unicode="A" horiz-adv-x="457" 
d="M228 739q60 0 113.5 -22t93.5 -60.5t64.5 -90.5t27.5 -112q1 -5 1.5 -8t0.5 -8v-371q0 -35 -13 -65t-36 -53t-53.5 -36t-64.5 -13q-42 0 -76.5 18t-57.5 47q-23 -29 -57.5 -47t-76.5 -18q-35 0 -65 13t-52.5 36t-35.5 53t-13 65v374q1 62 24.5 116.5t64 95t95 63.5
t116.5 23z" />
    <glyph glyph-name="B" unicode="B" horiz-adv-x="451" 
d="M498 454q0 -49 -15 -92q23 -35 35 -76t12 -85q0 -62 -23.5 -117t-64.5 -96t-96 -64.5t-117 -23.5h-159q-30 8 -56 24t-45 38t-29.5 48.5t-10.5 56.5v389q1 58 23.5 110t60.5 90t89.5 60.5t110.5 22.5t111 -22.5t90.5 -61t61 -90.5t22.5 -111z" />
    <glyph glyph-name="equal" unicode="=" horiz-adv-x="434" 
d="M506 439q0 -46 -25 -87q25 -39 25 -86q0 -34 -13 -64.5t-35.5 -53t-52.5 -35.5t-64 -13h-247q-35 0 -65 13t-52.5 35.5t-35.5 53t-13 64.5q0 23 6.5 45t17.5 41q-11 20 -17.5 41.5t-6.5 45.5q0 34 13 64.5t35.5 53t52.5 35.5t65 13h247q34 0 64 -13t52.5 -35.5t35.5 -53
t13 -64.5z" />
    <glyph glyph-name="less" unicode="&#x3c;" horiz-adv-x="372" 
d="M202 561q19 9 38.5 14.5t38.5 5.5q45 0 84 -23.5t62 -65.5q11 -20 15 -39t4 -37q0 -32 -12.5 -62.5t-35.5 -54.5q23 -23 35.5 -53.5t12.5 -62.5q0 -18 -4 -37.5t-15 -39.5q-23 -42 -62 -65t-84 -23q-39 0 -77 19l-219 116l1 -1q-45 23 -64.5 63t-19.5 83q0 45 20.5 84.5
t62.5 62.5z" />
    <glyph glyph-name="greater" unicode="&#x3e;" horiz-adv-x="372" 
d="M361 445q42 -23 62.5 -62.5t20.5 -84.5q0 -43 -19.5 -83t-64.5 -63l1 1q-54 -29 -109.5 -58t-109.5 -58q-38 -19 -77 -19q-46 0 -85 23t-62 65q-10 20 -14 38.5t-4 38.5q0 32 12 62.5t35 53.5q-23 23 -35 53.5t-12 63.5q0 19 4 37.5t14 38.5q23 42 62.5 65.5t84.5 23.5
q19 0 38.5 -5.5t38.5 -14.5l219 -116v0z" />
    <glyph glyph-name="circumflex" unicode="&#x2c6;" horiz-adv-x="320" 
d="M355 645q21 -18 32.5 -42t13.5 -49.5t-5.5 -51t-25.5 -46.5q-19 -22 -43.5 -34t-50 -13.5t-50 6.5t-45.5 26h1q-12 10 -14 11.5l-2 1.5l-2 1.5t-14 11.5q-8 -7 -15 -13t-15 -13q-21 -18 -46.5 -26t-51.5 -5.5t-50.5 14.5t-42.5 35l2 -3q-18 21 -25.5 46.5t-5.5 51
t13.5 49.5t32.5 42l117 99q22 18 47 24.5t49.5 5t45.5 -10t34 -20.5l-1 1l117 -99v0z" />
    <glyph glyph-name="tilde" unicode="&#x2dc;" horiz-adv-x="414" 
d="M425 710q22 -17 35.5 -40.5t17 -49.5t-2.5 -52.5t-22 -49.5q-38 -51 -91 -76.5t-109 -25.5q-65 0 -123 35q-18 -16 -40 -24.5t-45.5 -9.5t-46.5 6t-43 22q-23 17 -36.5 41t-17 50t3 53t24.5 50l-1 -1q37 49 89 74t108 25q64 0 123 -34q18 16 40 25t45 10.5t46 -5
t43 -20.5z" />
    <glyph glyph-name="exclamdown" unicode="&#xa1;" horiz-adv-x="181" 
d="M264 439.008q0 33.9961 -13.5 63.9922q-13.5 29.9971 -36.5 52.9941t-53 36.4951q-30 13.499 -63 13.499q-35 0 -65.5 -13.499q-30.5 -13.498 -53.5 -36.4951t-36.5 -52.9941q-13.5 -29.9961 -13.5 -63.9922q0 -22.9971 6 -43.4941q6 -20.498 17 -38.4951
q-23 -37.9961 -23 -84.9902v-336.959q0 -34.9951 13.5 -65.9912t36.5 -53.4941q23 -22.4971 53.5 -35.4951q30.5 -12.999 65.5 -12.999q33 0 63 12.999q30 12.998 53 35.4951q23 22.498 36.5 53.4941t13.5 65.9912v336.959q0 22.9971 -6 44.4951q-6 21.4971 -17 39.4951
q11 18.9971 17 39.4951q6 20.4971 6 43.4941zM64 439.008q0 12.999 10 22.498q10 9.49805 24 9.49805q13 0 22 -9.49805q9 -9.49902 9 -22.498v-1.99902q-15 2.99902 -31 2.99902q-18 0 -34 -2.99902v1.99902z" />
    <glyph glyph-name="questiondown" unicode="&#xbf;" horiz-adv-x="446" 
d="M79.04 439.008q0 34.9961 12.999 64.9922q12.998 29.9961 35.9951 52.9941q22.9971 22.9971 53.4932 35.9951q30.4961 12.999 64.4922 12.999t63.9922 -12.999q29.9961 -12.998 52.4941 -35.9951q22.4971 -22.998 35.4951 -52.9941q12.999 -29.9961 12.999 -64.9922
q0 -43.9941 -21.998 -81.9893q21.998 -38.9951 21.998 -82.9902v-59.9932q32.9961 -19.9971 54.4932 -52.9932t25.4971 -74.9912q0 -60.9922 -21.498 -118.985q-21.4971 -57.9922 -61.4922 -101.987q-39.9951 -43.9941 -95.9883 -70.9912t-123.984 -26.9971
q-61.9932 0 -116.986 23.4971t-96.4883 64.4922t-65.4922 95.9883t-23.9971 117.986q0 50.9932 15.998 96.4883q15.998 45.4941 43.9951 84.4893q28.9961 38.9951 68.9912 67.4922q39.9951 28.4961 84.9902 43.4941q-19.998 34.9961 -19.998 77.9902z" />
    <glyph glyph-name="acircumflex" unicode="&#xe2;" horiz-adv-x="535" 
d="M469 645q21 -18 32.5 -42t13.5 -49.5t-6 -51.5q-2 -8 -6 -16l15 -16q41 -45 64.5 -103.5t23.5 -124.5v-177q0 -34 -14 -64t-37 -52.5t-53 -35.5t-61 -13q-41 0 -73 16q-6 -2 -12.5 -3.5t-13.5 -3.5q-38 -9 -78 -9q-53 0 -101 15t-89 42t-72.5 64.5t-51.5 82.5
q-14 32 -21.5 66.5t-7.5 71.5q0 38 7.5 71.5t21.5 65.5q20 46 52 83q11 13 23 25q-4 8 -6 15q-7 26 -5 51.5t13.5 49.5t32.5 42l117 99q22 18 47 24.5t49.5 5t45.5 -10.5q20 -8 33 -19z" />
    <glyph glyph-name="atilde" unicode="&#xe3;" horiz-adv-x="535" 
d="M503 749q22 -17 35.5 -40.5t17 -49.5t-2.5 -52.5t-22 -49.5q-22 -30 -50 -51q20 -16 37 -36q41 -45 64.5 -103.5t23.5 -124.5v-177q0 -34 -14 -64t-37 -52.5t-53 -35.5t-61 -13q-41 0 -73 16q-6 -2 -12.5 -3.5t-13.5 -3.5q-38 -9 -78 -9q-53 0 -101 15t-89 42t-72.5 64.5
t-51.5 82.5q-14 32 -21.5 66.5t-7.5 71.5q0 38 7.5 71.5t21.5 65.5q20 46 52 83q12 14 24 27q-18 15 -29 36q-14 24 -17.5 50t3.5 53q6 26 23 49q37 49 89 74t108 25q64 0 123 -34q18 16 40 25t45 10.5t46 -5t43 -20.5z" />
    <glyph glyph-name="dieresis" unicode="&#xa8;" horiz-adv-x="357" 
d="M429 609q0 -34 -13.5 -64.5t-36.5 -53.5t-53.5 -36.5t-65.5 -13.5q-54 0 -96 31q-43 -31 -97 -31q-35 0 -65 13.5t-53 36.5t-36 53.5t-13 64.5t13 64.5t36 53.5t53 36.5t65 13.5q27 0 51.5 -8.5t45.5 -22.5q20 14 44.5 22.5t51.5 8.5q35 0 65.5 -13.5t53.5 -36.5
t36.5 -53.5t13.5 -64.5zM36 609q0 -13 9 -22.5t22 -9.5q17 0 27 13q-1 5 -1 9.5v9.5v9t1 9q-11 14 -27 14q-13 0 -22 -9.5t-9 -22.5zM236 609q0 -5 -0.5 -9.5t-0.5 -9.5q8 -13 25 -13q14 0 23.5 9.5t9.5 22.5t-9.5 22.5t-23.5 9.5q-16 0 -25 -14q0 -5 0.5 -9t0.5 -9z" />
    <glyph glyph-name="egrave" unicode="&#xe8;" horiz-adv-x="538" 
d="M425 665l-2 1q34 -22 48 -52.5t8 -65.5q-3 -21 -10 -39q17 -13 33 -29q48 -47 76 -109t28 -129q0 -48 -26 -88.5t-69 -60.5v-9q0 -29 -11.5 -60t-38.5 -58q-45 -35 -93.5 -49.5t-100.5 -16.5q-69 -3 -131.5 24.5t-110.5 75.5t-76 111t-28 131q0 67 27.5 128.5t73.5 108.5
q29 30 64 52q-14 21 -21 46q-8 31 -4 64q5 31 19.5 56t36 42.5t48 27t54.5 9.5q26 0 51 -8t48 -26z" />
    <glyph glyph-name="eacute" unicode="&#xe9;" horiz-adv-x="538" 
d="M223 746l-1 -1q21 16 44 23q26 9 52 9q28 0 54 -9.5t47.5 -27t36.5 -42.5t20 -56q4 -33 -5 -64q-8 -29 -25 -53q30 -20 56 -45q48 -47 76 -109t28 -129q0 -48 -26 -88.5t-69 -60.5v-9q0 -29 -11.5 -60t-38.5 -58q-45 -35 -93.5 -49.5t-100.5 -16.5q-69 -3 -131.5 24.5
t-110.5 75.5t-76 111t-28 131q0 67 27.5 128.5t73.5 108.5q20 21 43 38q-5 15 -7 32q-2 32 11.5 63.5t41.5 52.5z" />
    <glyph glyph-name="ecircumflex" unicode="&#xea;" horiz-adv-x="538" 
d="M467 647q21 -18 32.5 -42t13.5 -49.5t-6 -51.5q-3 -11 -8 -21l3 -3q48 -47 76 -109t28 -129q0 -48 -26 -88.5t-69 -60.5v-9q0 -29 -11.5 -60t-38.5 -58q-45 -35 -93.5 -49.5t-100.5 -16.5q-69 -3 -131.5 24.5t-110.5 75.5t-76 111t-28 131q0 67 27.5 128.5t73.5 108.5
l4 4q-5 10 -9 21q-7 26 -5 51.5t13.5 49.5t32.5 42l117 99q22 18 47 24.5t49.5 5t45.5 -10.5q20 -8 33 -19z" />
    <glyph glyph-name="edieresis" unicode="&#xeb;" horiz-adv-x="538" 
d="M527 609q0 -34 -14 -65q-11 -26 -30 -47q10 -8 19 -17q48 -47 76 -109t28 -129q0 -48 -26 -88.5t-69 -60.5v-9q0 -29 -11.5 -60t-38.5 -58q-45 -35 -93.5 -49.5t-100.5 -16.5q-69 -3 -131.5 24.5t-110.5 75.5t-76 111t-28 131q0 67 27.5 128.5t73.5 108.5q9 9 19 18
q-19 21 -30 47q-13 31 -13 65t13 64.5t36 53.5t53 36.5t65 13.5q27 0 51.5 -8.5t45.5 -22.5q20 14 44.5 22.5t51.5 8.5q35 0 65.5 -13.5t53.5 -36.5t36.5 -53.5t13.5 -64.5zM334 609q0 -5 -0.5 -9.5t-0.5 -9.5q8 -13 25 -13q14 0 23.5 9.5t9.5 22.5t-9.5 22.5t-23.5 9.5
q-16 0 -25 -14q0 -5 0.5 -9t0.5 -9zM134 609q0 -13 9 -22.5t22 -9.5q17 0 27 13q-1 5 -1 9v19q0 4 1 9q-11 14 -27 14q-13 0 -22 -9.5t-9 -22.5z" />
    <glyph glyph-name="igrave" unicode="&#xec;" horiz-adv-x="259" 
d="M277 666l-2 1q34 -22 48 -52.5t8 -65.5q-3 -27 -16 -50l-2 -4q2 -4 4 -9q13 -28 16 -61v-362q0 -69 -42.5 -114.5t-116.5 -50.5q-69 0 -114.5 40.5t-55.5 115.5v376q2 21 8 40q-12 5 -23 12q-27 17 -45 41.5t-26.5 55t-4.5 63.5q5 31 19.5 56t36 42.5t48 27t54.5 9.5
q26 0 51 -8t48 -26z" />
    <glyph glyph-name="iacute" unicode="&#xed;" horiz-adv-x="256" 
d="M90 745l-1 -1q21 16 44 23q26 9 52 9q28 0 54 -9.5t47.5 -27t36.5 -42.5t20 -56q4 -33 -4.5 -63.5t-26.5 -55t-45 -41.5q-9 -5 -19 -10q8 -22 10 -46v-362q0 -69 -42.5 -114.5t-116.5 -50.5q-69 0 -114.5 40.5t-55.5 115.5v376q3 33 17 60v1q-3 4 -5 8q-13 22 -16 49
q-2 32 11.5 63.5t41.5 52.5z" />
    <glyph glyph-name="icircumflex" unicode="&#xee;" horiz-adv-x="330" 
d="M370 645q21 -18 32.5 -42t13.5 -49.5t-5.5 -51t-25.5 -46.5q-19 -22 -44 -34q-7 -4 -14 -7v-352q0 -69 -42.5 -114.5t-116.5 -50.5q-69 0 -114.5 40.5t-55.5 115.5v364q-5 3 -11 6q-25 12 -43 35l2 -3q-18 21 -25.5 46.5t-5.5 51t13.5 49.5t32.5 42l117 99q22 18 47 24.5
t49.5 5t45.5 -10.5q20 -8 33 -19z" />
    <glyph glyph-name="idieresis" unicode="&#xef;" horiz-adv-x="362" 
d="M446 609q0 -34 -13.5 -64.5t-36.5 -53.5t-54 -37q-1 0 -3 -1q3 -14 5 -28v-362q0 -69 -42.5 -114.5t-116.5 -50.5q-69 0 -114.5 40.5t-55.5 115.5v376q1 12 3 24q-29 14 -52 37t-36 53.5t-13 64.5t13 64.5t36 53.5t53 36.5t65 13.5q27 0 51.5 -8.5t45.5 -22.5
q20 14 44.5 22.5t51.5 8.5q35 0 65.5 -13.5t53.5 -36.5t36.5 -53.5t13.5 -64.5zM253 609q0 -5 -0.5 -9.5t-0.5 -9.5q8 -13 25 -13q14 0 23.5 9.5t9.5 22.5t-9.5 22.5t-23.5 9.5q-16 0 -25 -14q0 -5 0.5 -9t0.5 -9zM53 609q0 -13 9 -22.5t22 -9.5q17 0 27 13q-1 5 -1 9v19
q0 4 1 9q-11 14 -27 14q-13 0 -22 -9.5t-9 -22.5z" />
    <glyph glyph-name="ograve" unicode="&#xf2;" 
d="M422 666l-2 1q34 -22 48 -52.5t8 -65.5q-3 -22 -11 -41q20 -15 38 -33q47 -46 74.5 -108.5t27.5 -134.5q0 -70 -26.5 -132t-73 -108.5t-108.5 -73.5t-134 -27q-71 0 -133 25.5t-108.5 71t-73.5 108t-27 136.5q0 70 26 131.5t71 107.5q31 31 69 54q-17 24 -25 53
q-8 31 -4 64q5 31 19.5 56t36 42.5t48 27t54.5 9.5q26 0 51 -8t48 -26z" />
    <glyph glyph-name="oacute" unicode="&#xf3;" 
d="M216 745l-1 -1q21 16 44 23q26 9 52 9q28 0 54 -9.5t47.5 -27t36.5 -42.5t20 -56q4 -33 -5 -64q-8 -29 -24 -52q35 -21 63 -50q47 -46 74.5 -108.5t27.5 -134.5q0 -70 -26.5 -132t-73 -108.5t-108.5 -73.5t-134 -27q-71 0 -133 25.5t-108.5 71t-73.5 108t-27 136.5
q0 70 26 131.5t71 107.5q21 20 44 37q-9 18 -11 40q-2 32 11.5 63.5t41.5 52.5z" />
    <glyph glyph-name="ocircumflex" unicode="&#xf4;" 
d="M469 648q21 -18 32.5 -42t13.5 -49.5t-6 -51.5q-4 -13 -10 -25l4 -5q47 -46 74.5 -108.5t27.5 -134.5q0 -70 -26.5 -132t-73 -108.5t-108.5 -73.5t-134 -27q-71 0 -133 25.5t-108.5 71t-73.5 108t-27 136.5q0 70 26 131.5t71 107.5l11 10q-6 12 -10 24q-7 26 -5 51.5
t13.5 49.5t32.5 42l117 99q22 18 47 24.5t49.5 5t45.5 -10t34 -20.5l-1 1z" />
    <glyph glyph-name="otilde" unicode="&#xf5;" 
d="M498 749q22 -17 35.5 -40.5t17 -49.5t-2.5 -52.5t-22 -49.5q-24 -32 -54 -54q17 -13 31 -28q47 -46 74.5 -108.5t27.5 -134.5q0 -70 -26.5 -132t-73 -108.5t-108.5 -73.5t-134 -27q-71 0 -133 25.5t-108.5 71t-73.5 108t-27 136.5q0 70 26 131.5t71 107.5q6 6 12 11l-2 2
q-23 17 -36.5 41t-17 50t3.5 53q6 26 23 49q37 49 89 74t108 25q64 0 123 -34q18 16 40 25t45 10.5t46 -5t43 -20.5z" />
    <glyph glyph-name="odieresis" unicode="&#xf6;" 
d="M527 609q0 -34 -14 -65q-12 -27 -32 -49q12 -9 22 -20q47 -46 74.5 -108.5t27.5 -134.5q0 -70 -26.5 -132t-73 -108.5t-108.5 -73.5t-134 -27q-71 0 -133 25.5t-108.5 71t-73.5 108t-27 136.5q0 70 26 131.5t71 107.5q12 12 25 23q-20 22 -32 50q-13 31 -13 65t13 64.5
t36 53.5t53 36.5t65 13.5q27 0 51.5 -8.5t45.5 -22.5q20 14 44.5 22.5t51.5 8.5q35 0 65.5 -13.5t53.5 -36.5t36.5 -53.5t13.5 -64.5zM334 609q0 -5 -0.5 -9.5t-0.5 -9.5q8 -13 25 -13q14 0 23.5 9.5t9.5 22.5t-9.5 22.5t-23.5 9.5q-16 0 -25 -14q0 -5 0.5 -9t0.5 -9z
M134 609q0 -13 9 -22.5t22 -9.5q17 0 27 13q-1 5 -1 9v19q0 4 1 9q-11 14 -27 14q-13 0 -22 -9.5t-9 -22.5z" />
    <glyph glyph-name="ugrave" unicode="&#xf9;" horiz-adv-x="535" 
d="M425 666l-2 1q34 -22 48 -53q7 -15 9 -33q47 -9 83 -45q24 -25 35.5 -52t13.5 -59v-183q0 -71 -26.5 -133t-73 -108.5t-109.5 -73.5q-60 -26 -130 -27q-69 -3 -131.5 23.5t-110.5 73t-76.5 108t-28.5 130.5v184q0 33 12.5 63t34 52.5t50.5 35.5q19 9 41 13q-7 28 -3 59
q5 31 19.5 56t36 42.5t48 27t54.5 9.5q26 0 51 -8t48 -26zM257 418v-176q0 -12 12 -12q11 0 11 7v182q0 15 2 29q-9 2 -17 3q-6 1 -12 1q4 -16 4 -34z" />
    <glyph glyph-name="uacute" unicode="&#xfa;" horiz-adv-x="535" 
d="M225 745l-1 -1q21 16 44 23q26 9 52 9q28 0 54 -9.5t47.5 -27t36.5 -42.5t20 -56q3 -30 -3 -59q50 -8 88 -46q24 -25 35.5 -52t13.5 -59v-183q0 -71 -26.5 -133t-73 -108.5t-109.5 -73.5q-60 -26 -130 -27q-69 -3 -131.5 23.5t-110.5 73t-76.5 108t-28.5 130.5v184
q0 33 12.5 63t34 52.5t50.5 35.5q18 9 39 12q3 15 9 29q14 32 42 53zM257 418v-176q0 -12 12 -12q11 0 11 7v182q0 16 2 32l-28 -4q3 -14 3 -29z" />
    <glyph glyph-name="ucircumflex" unicode="&#xfb;" horiz-adv-x="535" 
d="M474 648q21 -18 32 -42q9 -19 12 -38q24 -12 45 -32q24 -25 35.5 -52t13.5 -59v-183q0 -71 -26.5 -133t-73 -108.5t-109.5 -73.5q-60 -26 -130 -27q-69 -3 -131.5 23.5t-110.5 73t-76.5 108t-28.5 130.5v184q0 33 12.5 63t34.5 52q20 21 47 35q4 19 12 37q12 24 33 42
l117 99q22 18 47 24.5t49.5 5t45.5 -10.5q20 -8 33 -19zM257 418v-176q0 -12 12 -12q11 0 11 7v182q0 20 4 39h-1q-2 2 -14 12q-8 -7 -15 -13l-2 -1q5 -19 5 -38z" />
    <glyph glyph-name="udieresis" unicode="&#xfc;" horiz-adv-x="535" 
d="M536 609q0 -24 -7 -47q18 -11 34 -26q24 -25 35.5 -52t13.5 -59v-183q0 -71 -26.5 -133t-73 -108.5t-109.5 -73.5q-60 -26 -130 -27q-69 -3 -131.5 23.5t-110.5 73t-76.5 108t-28.5 130.5v184q0 33 12.5 63t34.5 52q17 18 39 31q-5 21 -5 44q0 34 13 64.5t36 53.5
t53 36.5t65 13.5q27 0 51.5 -8.5t45.5 -22.5q20 14 44.5 22.5t51.5 8.5q35 0 65.5 -13.5t53.5 -36.5t36.5 -53.5t13.5 -64.5zM257 418v-176q0 -12 12 -12q11 0 11 7v182q0 22 5 43l-14 10q-10 -7 -20 -12q6 -20 6 -42zM343 609q0 -5 -0.5 -9.5t-0.5 -9.5q8 -13 25 -13
q14 0 23.5 9.5t9.5 22.5t-9.5 22.5t-23.5 9.5q-16 0 -25 -14q0 -5 0.5 -9t0.5 -9zM143 609q0 -13 9 -22.5t22 -9.5q17 0 27 13q-1 5 -1 9v19q0 4 1 9q-11 14 -27 14q-13 0 -22 -9.5t-9 -22.5z" />
    <glyph glyph-name="yacute" unicode="&#xfd;" horiz-adv-x="549" 
d="M209 746l-1 -1q21 16 44 23q26 9 52 9q28 0 54 -9.5t47.5 -27t36.5 -42.5t20 -56q3 -31 -3 -59q18 -3 36 -10q30 -12 53 -34t36.5 -51.5t13.5 -63.5v-514q0 -34 -13.5 -63.5t-36.5 -51.5t-53 -34.5t-63 -12.5q-30 0 -59 11t-51.5 31t-37 48t-17.5 63h-12
q-69 0 -131.5 26.5t-109.5 73t-74.5 110.5t-27.5 139v171q0 34 12.5 63.5t34.5 52t52 35.5q17 7 35 10q3 15 9 30q14 32 42 53zM243 424v-181q0 -11 12 -11q5 0 8.5 2t3.5 4v183q0 16 3 31l-29 -4q2 -12 2 -24z" />
    <glyph glyph-name="ydieresis" unicode="&#xff;" horiz-adv-x="549" 
d="M514 609q0 -22 -6 -42q22 -11 40 -28q23 -22 36.5 -51.5t13.5 -63.5v-514q0 -34 -13.5 -63.5t-36.5 -51.5t-53 -34.5t-63 -12.5q-30 0 -59 11t-51.5 31t-37 48t-17.5 63h-12q-69 0 -131.5 26.5t-109.5 73t-74.5 110.5t-27.5 139v171q0 34 12.5 63.5t34.5 51.5
q15 15 33 26q-7 23 -7 47q0 34 13 64.5t36 53.5t53 36.5t65 13.5q27 0 51.5 -8.5t45.5 -22.5q20 14 44.5 22.5t51.5 8.5q35 0 65.5 -13.5t53.5 -36.5t36.5 -53.5t13.5 -64.5zM243 424v-181q0 -11 12 -11q5 0 8.5 2t3.5 4v183q0 19 4 37q-12 6 -22 14q-6 -4 -11 -8
q5 -19 5 -40zM321 609q0 -5 -0.5 -9.5t-0.5 -9.5q8 -13 25 -13q14 0 23.5 9.5t9.5 22.5t-9.5 22.5t-23.5 9.5q-16 0 -25 -14q0 -5 0.5 -9t0.5 -9zM121 609q0 -13 9 -22.5t22 -9.5q17 0 27 13q-1 5 -1 9v19q0 4 1 9q-11 14 -27 14q-13 0 -22 -9.5t-9 -22.5z" />
    <glyph glyph-name="C" unicode="C" horiz-adv-x="479" 
d="M391 318q34 0 64 -13t53 -35.5t36.5 -53.5t13.5 -66q0 -25 -7 -45.5t-18 -40.5q-21 -37 -51.5 -67.5t-67.5 -52t-79 -33t-85 -11.5q-64 0 -123 25t-104 69.5t-72 104t-27 128.5v184q0 65 25.5 124t70 104t103.5 72t127 27q42 0 83.5 -11.5t78.5 -32.5t68 -52t54 -70
q8 -14 16 -38t8 -47q0 -34 -13.5 -64.5t-36.5 -53.5t-53.5 -36.5t-64.5 -13.5q-49 0 -79.5 18.5t-52.5 47.5v-132q10 15 21.5 27t26.5 20.5t35.5 13t49.5 4.5z" />
    <glyph glyph-name="D" unicode="D" horiz-adv-x="487" 
d="M235 739q64 0 123 -25.5t104.5 -69.5t73 -103.5t27.5 -128.5v-185q0 -65 -26.5 -124t-71.5 -104t-104.5 -72t-125.5 -27h-136q-33 0 -63.5 12.5t-54 35t-37 53.5t-13.5 67v503q0 32 13 62.5t35.5 54t53.5 37.5t66 14h136v0z" />
    <glyph glyph-name="E" unicode="E" horiz-adv-x="460" 
d="M464 339q0 -33 -12.5 -62t-33.5 -52q25 -9 45.5 -24.5t35.5 -36t23.5 -45t8.5 -51.5q0 -35 -13 -66t-36 -53.5t-53.5 -35.5t-64.5 -13h-266q-33 0 -63 13t-53 35.5t-37 53.5t-14 66v503q0 32 12.5 62.5t35 54t53 37.5t66.5 14h266q34 0 64.5 -13.5t53.5 -36.5t36 -53.5
t13 -64.5q0 -51 -25 -89.5t-65 -59.5q11 -19 17 -39.5t6 -43.5z" />
    <glyph glyph-name="F" unicode="F" horiz-adv-x="438" 
d="M532 571q0 -56 -31.5 -98.5t-79.5 -59.5q20 -23 32 -52t12 -61q0 -35 -12.5 -65t-35 -53t-53 -36t-66.5 -13h-31v-65q0 -35 -13 -66t-35.5 -53.5t-53.5 -35.5t-66 -13t-66 13t-53.5 35.5t-35.5 53.5t-13 66v503q0 32 13 62.5t35.5 54t53.5 37.5t66 14h266
q34 0 64.5 -13.5t53.5 -36.5t36 -53.5t13 -64.5z" />
    <glyph glyph-name="G" unicode="G" horiz-adv-x="500" 
d="M560 487q0 -45 -22 -83q19 -22 29.5 -49.5t10.5 -58.5v-68q0 -48 -12.5 -91.5t-35 -81t-54.5 -67.5t-71 -51q-34 -17 -72.5 -27t-80.5 -10q-43 0 -80.5 10t-72.5 27q-39 21 -71 51.5t-55 68t-36 81t-13 90.5v185q1 65 27 124t70 104t103.5 71.5t127.5 26.5q40 0 80 -11.5
t76.5 -33t74.5 -56.5t57.5 -83.5t19.5 -67.5z" />
    <glyph glyph-name="H" unicode="H" horiz-adv-x="506" 
d="M406 738q32 0 62.5 -12.5t54 -34.5t38 -53t14.5 -67v-504q0 -32 -14 -62t-37.5 -53.5t-54 -37.5t-63.5 -14q-50 0 -91.5 28.5t-61.5 73.5q-19 -45 -60.5 -73.5t-94.5 -28.5q-34 0 -64 12.5t-52.5 34.5t-36 52.5t-14.5 65.5v506q0 38 15 69t38.5 52.5t53.5 33.5t60 12
q53 0 94.5 -29.5t60.5 -74.5q20 45 61.5 74.5t91.5 29.5z" />
    <glyph glyph-name="I" unicode="I" horiz-adv-x="196" 
d="M98 738q34 0 64.5 -13.5t53 -36.5t35.5 -53t13 -64v-504q0 -35 -13 -65t-35.5 -53t-53 -36t-64.5 -13q-35 0 -66 13t-53.5 36t-35.5 53t-13 65v504q0 34 13 64t35.5 53t53.5 36.5t66 13.5z" />
    <glyph glyph-name="J" unicode="J" horiz-adv-x="327" 
d="M232 738q36 0 67 -13.5t53.5 -36.5t35.5 -53t13 -64v-345q-1 -68 -26.5 -127t-69.5 -102.5t-103 -69t-128 -27.5q-34 0 -64.5 12.5t-53 35t-36 53t-13.5 66.5q0 33 12.5 63t34.5 53t51 37t62 15v336q0 34 13 64t35.5 53t52.5 36.5t64 13.5z" />
    <glyph glyph-name="K" unicode="K" horiz-adv-x="515" 
d="M536 185q25 -25 36.5 -55.5t11.5 -62.5q0 -30 -11 -61.5t-36 -57.5q-26 -26 -56.5 -37.5t-62.5 -11.5q-30 0 -61.5 11t-57.5 36l-49 50q-20 -43 -60.5 -69.5t-91.5 -26.5q-34 0 -64.5 13t-53.5 36t-36.5 53t-13.5 65v504q0 34 13.5 64t36.5 53t53.5 36.5t64.5 13.5
q51 0 92 -27.5t61 -70.5q12 12 24 24.5t24 24.5q27 25 58.5 36.5t60.5 11.5q32 0 62.5 -12t56.5 -38q25 -26 36 -56.5t11 -60.5q0 -32 -11.5 -62.5t-36.5 -55.5l-133 -133z" />
    <glyph glyph-name="L" unicode="L" horiz-adv-x="422" 
d="M351 240q34 0 64.5 -13t53 -36t35.5 -53.5t13 -64.5q0 -35 -13 -66t-35.5 -53.5t-53 -35.5t-64.5 -13h-251q-35 0 -65 12.5t-52.5 34.5t-36 52t-15.5 66v506q0 34 13.5 64.5t36.5 53.5t53.5 36t65.5 13q33 0 63 -13t53 -36t37 -53.5t14 -64.5v-336h84v0z" />
    <glyph glyph-name="M" unicode="M" horiz-adv-x="732" 
d="M501 739q61 0 115 -24t94.5 -65t65 -95.5t27.5 -116.5v-370q0 -35 -13.5 -66t-36.5 -53.5t-53 -35.5t-64 -13q-42 0 -77.5 18.5t-58.5 49.5q-23 -31 -57.5 -49.5t-76.5 -18.5t-77 18.5t-58 49.5q-23 -31 -58 -49.5t-77 -18.5q-35 0 -65 13t-53 35.5t-36 53.5t-13 66v368
q0 59 23.5 113.5t64 96.5t96 67.5t118.5 25.5q72 0 135 -33q30 15 63.5 24t71.5 9z" />
    <glyph glyph-name="N" unicode="N" horiz-adv-x="509" 
d="M254 739q66 0 124 -25t102.5 -69t71 -103.5t29.5 -127.5v-346q0 -35 -13 -66t-36 -53.5t-53.5 -35.5t-64.5 -13q-58 0 -101.5 33t-59.5 84q-16 -51 -59 -84t-99 -33q-36 0 -67 13t-53.5 35.5t-35 53.5t-12.5 66v345q1 67 26.5 125.5t69 102t102 70t126.5 28.5h3z" />
    <glyph glyph-name="O" unicode="O" horiz-adv-x="502" 
d="M252 739q66 0 124 -25t102 -69t70.5 -103.5t29.5 -127.5v-188q-2 -65 -27.5 -124t-69 -104t-102 -71.5t-127.5 -26.5q-66 0 -124.5 25t-103 69t-71 103.5t-29.5 127.5v188q1 65 27 124t70 104t103.5 71.5t127.5 26.5z" />
    <glyph glyph-name="P" unicode="P" horiz-adv-x="489" 
d="M254 739q64 0 123 -25.5t104 -70t72 -104t27 -127.5q0 -67 -24 -126t-67 -103.5t-101 -71t-126 -27.5v-16q0 -35 -13.5 -66t-36.5 -53.5t-53.5 -35.5t-64.5 -13q-35 0 -65 13t-53 35.5t-36 53.5t-13 66v345q1 63 27.5 122t70.5 104.5t103 72.5t126 27z" />
    <glyph glyph-name="Q" unicode="Q" horiz-adv-x="505" 
d="M579 228q0 -30 -5 -57t-14 -52q5 -13 6.5 -26t1.5 -26q0 -33 -13 -63.5t-37 -56.5q-26 -23 -56.5 -35t-61.5 -12q-32 0 -62 12q-42 -12 -87 -12q-42 0 -80.5 10t-72.5 27q-39 21 -71 51t-55 67.5t-35.5 81t-12.5 91.5v185q1 65 26.5 124t69.5 104t103.5 71.5t127.5 26.5
q66 0 124.5 -25t102.5 -69t71 -103.5t30 -127.5v-186z" />
    <glyph glyph-name="R" unicode="R" horiz-adv-x="501" 
d="M492 186q25 -25 36.5 -56t11.5 -63t-11.5 -63t-36.5 -56t-56 -36.5t-63 -11.5t-62.5 11.5t-55.5 36.5l-24 24q-23 -33 -59 -52.5t-78 -19.5q-34 0 -64 13t-53 35.5t-36.5 53.5t-13.5 66v345q1 65 26.5 124t70 104t103.5 71.5t128 26.5q64 0 122.5 -25.5t103.5 -70
t72 -104t27 -127.5q0 -66 -23.5 -123.5t-64.5 -102.5z" />
    <glyph glyph-name="S" unicode="S" horiz-adv-x="501" 
d="M562 573q0 -53 -26 -93.5t-69 -60.5q49 -40 79.5 -98.5t30.5 -127.5q0 -60 -23 -113t-62.5 -92.5t-92.5 -63t-113 -24.5h-179q-37 0 -68 12.5t-53 35t-34.5 53.5t-12.5 67q0 49 26.5 89.5t68.5 60.5q-50 40 -80 98t-30 129q0 56 23 109t62.5 94t93 66t114.5 25h178
q34 0 63.5 -13t52 -35.5t36 -52.5t15.5 -65z" />
    <glyph glyph-name="T" unicode="T" horiz-adv-x="480" 
d="M399 739q35 0 66 -13.5t53.5 -36.5t35.5 -53.5t13 -64.5q0 -35 -12.5 -65t-34 -52t-50.5 -35.5t-63 -14.5v-336q0 -35 -12.5 -66t-35 -53.5t-53 -35.5t-66.5 -13t-66.5 13t-53 35.5t-35 53.5t-12.5 66v336q-33 1 -62.5 14t-51 35.5t-34 52.5t-12.5 65q0 34 13 64.5
t36 53.5t53 36.5t65 13.5h319v0z" />
    <glyph glyph-name="U" unicode="U" horiz-adv-x="509" 
d="M253 -100q-67 0 -125 25t-101.5 69t-70 103.5t-29.5 127.5v346q0 34 13 64.5t35.5 53.5t53.5 36.5t66 13.5q57 0 99.5 -34t58.5 -85q16 51 59.5 85t101.5 34q34 0 64.5 -13.5t53.5 -36.5t36 -53.5t13 -64.5v-344q-1 -66 -26.5 -125t-69.5 -104t-103.5 -71.5t-128.5 -26.5
z" />
    <glyph glyph-name="V" unicode="V" horiz-adv-x="570" 
d="M441 6q-20 -49 -63.5 -77.5t-92.5 -28.5q-23 0 -47 8.5t-45 23t-38 34t-26 41.5l-197 504q-12 32 -10.5 65t14 62.5t36 53t56.5 36.5q32 12 65.5 10.5t63 -14.5t53.5 -37t36 -58l-1 2q11 -28 14.5 -38.5t5.5 -13.5q0 1 0 0.5t2 -5.5t6 -16t12 -31q11 26 20 52t20 52
l-1 -2q12 34 35.5 58t53.5 37t63 14.5t65 -10.5q33 -13 56.5 -36.5t36.5 -53t14 -63t-12 -65.5v1q-49 -126 -97.5 -251.5t-97.5 -251.5v-2z" />
    <glyph glyph-name="W" unicode="W" horiz-adv-x="732" 
d="M230 -100q-62 0 -115.5 23t-93.5 63.5t-64 95.5t-28 118v371q0 34 13 64.5t35.5 53.5t52.5 36.5t65 13.5q42 0 77 -19t58 -50q23 31 57.5 50t78.5 19q42 0 76.5 -19t57.5 -50q23 31 58 50t77 19q33 0 63.5 -13.5t54 -36.5t37 -53.5t13.5 -64.5v-369q-1 -60 -25 -115
t-65.5 -96.5t-96 -66t-117.5 -24.5q-71 0 -135 32q-61 -31 -132 -32h-2z" />
    <glyph glyph-name="X" unicode="X" horiz-adv-x="549" 
d="M588 162q29 -44 29 -94q0 -41 -19 -77.5t-55 -61.5q-44 -29 -93 -29q-40 0 -76.5 18t-62.5 53l-37 54q-9 -13 -18.5 -26.5t-18.5 -26.5l1 1q-25 -36 -62.5 -54.5t-76.5 -18.5q-50 0 -94 29q-36 25 -54.5 61.5t-18.5 77.5q0 51 29 95l109 156q-27 38 -55 78.5t-54 78.5
q-14 22 -21.5 46.5t-7.5 48.5q0 38 18.5 75t53.5 63q45 30 95 30q39 0 76.5 -18.5t62.5 -54.5l-1 1q10 -15 13.5 -20t4.5 -6q0 -1 3 -5q2 -3 6 -8.5t10 -13.5q11 15 18.5 26.5t18.5 26.5q26 35 63 53.5t75 18.5q24 0 48.5 -7.5t47.5 -22.5q35 -26 53.5 -63t18.5 -75
q0 -23 -7.5 -47.5t-22.5 -47.5l-108 -156q27 -39 54 -78.5t54 -77.5zM255 641v-1v1z" />
    <glyph glyph-name="Y" unicode="Y" horiz-adv-x="521" 
d="M527 706q37 -26 55 -62.5t18 -75.5q0 -23 -7.5 -47.5t-22.5 -47.5l-143 -205v-200q0 -35 -13.5 -66t-36.5 -53.5t-53 -35.5t-64 -13t-64.5 13t-53.5 35.5t-36.5 53.5t-13.5 66v200q-36 51 -72.5 102.5t-71.5 102.5q-14 22 -21.5 46.5t-7.5 48.5q0 38 17.5 74.5t52.5 62.5
q22 16 47.5 23.5t49.5 7.5q40 0 79 -19.5t62 -59.5l-4 6q15 -21 17 -23.5t1 -2t1 -2t17 -23.5q8 13 17 24.5t18 24.5l-1 -1q25 38 63 57t77 19q53 0 96 -31z" />
    <glyph glyph-name="Z" unicode="Z" 
d="M428 235q36 0 67 -13.5t53 -36.5t34.5 -53t12.5 -64q0 -35 -12.5 -66t-34.5 -53.5t-53 -35.5t-67 -13h-321q-38 1 -68 15t-52 37t-33.5 53t-11.5 63q0 23 6 44.5t20 44.5l155 247h-17q-34 0 -64 12.5t-53 35t-36.5 53t-13.5 66.5q0 34 13.5 64.5t36.5 53.5t53 36.5
t64 13.5h321q36 -1 66.5 -15t52.5 -37.5t34.5 -54t12.5 -63.5q0 -22 -7 -45t-19 -44l-154 -245h15v0z" />
    <glyph glyph-name="Agrave" unicode="&#xc0;" horiz-adv-x="461" 
d="M387 782l-2 1q34 -22 48 -52.5t8 -65.5q-1 -7 -2 -13q37 -37 60 -86q25 -52 28 -112q1 -5 1.5 -8t0.5 -8v-371q0 -35 -13 -65t-36 -53t-53.5 -36t-64.5 -13q-42 0 -76.5 18t-57.5 47q-23 -29 -57.5 -47t-76.5 -18q-35 0 -65 13t-52.5 36t-35.5 53t-13 65v374
q1 62 24.5 116.5t63.5 94.5q10 10 20 18q-5 12 -9 24q-8 31 -4 64q5 31 19.5 56t36 42.5t48 27t54.5 9.5q26 0 51 -8t48 -26z" />
    <glyph glyph-name="Aacute" unicode="&#xc1;" horiz-adv-x="461" 
d="M185 862l-1 -1q21 16 44 23q26 9 52 9q28 0 54 -9.5t47.5 -27t36.5 -42.5t20 -56q4 -33 -5 -64q-4 -14 -10 -27q6 -5 12 -11q40 -38 64.5 -90t27.5 -112q1 -5 1.5 -8t0.5 -8v-371q0 -35 -13 -65t-36 -53t-53.5 -36t-64.5 -13q-42 0 -76.5 18t-57.5 47q-23 -29 -57.5 -47
t-76.5 -18q-35 0 -65 13t-52.5 36t-35.5 53t-13 65v374q1 62 24.5 116.5t63.5 94.5l5 5l-1 8q-2 32 11.5 63.5t41.5 52.5z" />
    <glyph glyph-name="Acircumflex" unicode="&#xc2;" horiz-adv-x="461" 
d="M435 798q21 -18 32.5 -42t13.5 -49.5t-6 -51.5q-4 -15 -13 -29q22 -28 37 -60q25 -52 28 -112q1 -5 1.5 -8t0.5 -8v-371q0 -35 -13 -65t-36 -53t-53.5 -36t-64.5 -13q-42 0 -76.5 18t-57.5 47q-23 -29 -57.5 -47t-76.5 -18q-35 0 -65 13t-52.5 36t-35.5 53t-13 65v374
q1 62 25 116q17 40 43 73q-6 12 -10 25q-8 26 -6 51.5t13.5 49.5t32.5 42l117 99q22 18 47 24.5t49.5 5t45.5 -10t34 -20.5l-1 1z" />
    <glyph glyph-name="Atilde" unicode="&#xc3;" horiz-adv-x="461" 
d="M466 863q22 -17 35.5 -40.5t17 -49.5t-2.5 -52.5t-22 -49.5q-17 -23 -36 -40q24 -29 41 -65q25 -52 28 -112q1 -5 1.5 -8t0.5 -8v-371q0 -35 -13 -65t-36 -53t-53.5 -36t-64.5 -13q-42 0 -76.5 18t-57.5 47q-23 -29 -57.5 -47t-76.5 -18q-35 0 -65 13t-52.5 36t-35.5 53
t-13 65v374q1 62 25 116q12 28 29 53q-13 13 -22 29q-14 24 -17.5 50t3 53t24.5 50l-1 -1q37 49 89 74t108 25q64 0 123 -34q18 16 40 25t45 10.5t46 -5t43 -20.5z" />
    <glyph glyph-name="Adieresis" unicode="&#xc4;" horiz-adv-x="461" 
d="M495 762q0 -34 -13.5 -64.5t-35.5 -52.5q32 -35 53 -79q25 -52 28 -112q1 -5 1.5 -8t0.5 -8v-371q0 -35 -13 -65t-36 -53t-53.5 -36t-64.5 -13q-42 0 -76.5 18t-57.5 47q-23 -29 -57.5 -47t-76.5 -18q-35 0 -65 13t-52.5 36t-35.5 53t-13 65v374q1 62 25 116q22 51 58 90
q-20 22 -32 50q-13 31 -13 65t13 64.5t36 53.5t53 36.5t65 13.5q27 0 51.5 -8.5t45.5 -22.5q20 14 44.5 22.5t51.5 8.5q35 0 65.5 -13.5t53.5 -36.5t36.5 -53.5t13.5 -64.5zM302 762q0 -5 -0.5 -9.5t-0.5 -9.5q8 -13 25 -13q14 0 23.5 9.5t9.5 22.5t-9.5 22.5t-23.5 9.5
q-16 0 -25 -14q0 -5 0.5 -9t0.5 -9zM102 762q0 -13 9 -22.5t22 -9.5q17 0 27 13q-1 5 -1 9v19q0 4 1 9q-11 14 -27 14q-13 0 -22 -9.5t-9 -22.5z" />
    <glyph glyph-name="Egrave" unicode="&#xc8;" horiz-adv-x="464" 
d="M388 782l-2 1q34 -22 48 -53q2 -4 3 -9q25 -13 45 -32q23 -23 36 -53.5t13 -64.5q0 -51 -25 -89.5t-65 -59.5q11 -19 17 -39.5t6 -43.5q0 -33 -12.5 -62t-33.5 -52q25 -9 45.5 -24.5t35.5 -36t23.5 -45t8.5 -51.5q0 -35 -13 -66t-36 -53.5t-53.5 -35.5t-64.5 -13h-266
q-33 0 -63 13t-53 35.5t-37 53.5t-14 66v503q0 32 12.5 62.5t35.5 53.5q19 20 44 34q-2 18 1 37q5 31 19.5 56t36 42.5t48 27t54.5 9.5q26 0 51 -8t48 -26z" />
    <glyph glyph-name="Eacute" unicode="&#xc9;" horiz-adv-x="464" 
d="M186 862l-1 -1q21 16 44 23q26 9 52 9q28 0 54 -9.5t47.5 -27t36.5 -42.5t20 -56q2 -19 0 -38q24 -13 43 -31q23 -23 36 -53.5t13 -64.5q0 -51 -25 -89.5t-65 -59.5q11 -19 17 -39.5t6 -43.5q0 -33 -12.5 -62t-33.5 -52q25 -9 45.5 -24.5t35.5 -36t23.5 -45t8.5 -51.5
q0 -35 -13 -66t-36 -53.5t-53.5 -35.5t-64.5 -13h-266q-33 0 -63 13t-53 35.5t-37 53.5t-14 66v503q0 32 12.5 62.5t35.5 53.5q21 23 51 37l2 4q14 32 42 53z" />
    <glyph glyph-name="Ecircumflex" unicode="&#xca;" horiz-adv-x="464" 
d="M436 798q21 -18 32.5 -42t13.5 -50v-17q23 -23 36 -53.5t13 -64.5q0 -51 -25 -89.5t-65 -59.5q11 -19 17 -39.5t6 -43.5q0 -33 -12.5 -62t-33.5 -52q25 -9 45.5 -24.5t35.5 -36t23.5 -45t8.5 -51.5q0 -35 -13 -66t-36 -53.5t-53.5 -35.5t-64.5 -13h-266q-33 0 -63 13
t-53 35.5t-37 53.5t-14 66v503q0 32 12.5 62.5t35.5 53.5l2 2v17q2 26 13.5 50t32.5 42l117 99q22 18 47 24.5t49.5 5t45.5 -10.5q20 -8 33 -19z" />
    <glyph glyph-name="Edieresis" unicode="&#xcb;" horiz-adv-x="464" 
d="M496 762q0 -34 -14 -65l-3 -6l3 -2q23 -23 36 -53.5t13 -64.5q0 -51 -25 -89.5t-65 -59.5q11 -19 17 -39.5t6 -43.5q0 -33 -12.5 -62t-33.5 -52q25 -9 45.5 -24.5t35.5 -36t23.5 -45t8.5 -51.5q0 -35 -13 -66t-36 -53.5t-53.5 -35.5t-64.5 -13h-266q-33 0 -63 13
t-53 35.5t-37 53.5t-14 66v503q0 32 12.5 62.5t35.5 53.5l4 4q-1 3 -3 6q-13 31 -13 65t13 64.5t36 53.5t53 36.5t65 13.5q27 0 51.5 -8.5t45.5 -22.5q20 14 44.5 22.5t51.5 8.5q35 0 65.5 -13.5t53.5 -36.5t36.5 -53.5t13.5 -64.5zM303 762q0 -5 -0.5 -9.5t-0.5 -9.5l2 -4
h46q10 10 10 23t-9.5 22.5t-23.5 9.5q-16 0 -25 -14q0 -5 0.5 -9t0.5 -9zM103 762q0 -13 9 -23h45l4 4q-1 5 -1 9v19q0 4 1 9q-11 14 -27 14q-13 0 -22 -9.5t-9 -22.5z" />
    <glyph glyph-name="Igrave" unicode="&#xcc;" horiz-adv-x="200" 
d="M258 782l-2 1q34 -22 48 -52.5t8 -65.5q-3 -27 -15.5 -49.5t-32.5 -37.5v-7v-504q0 -35 -13 -65t-35.5 -53t-53 -36t-64.5 -13q-35 0 -66 13t-53.5 36t-35.5 53t-13 65v504q0 27 9 52q-8 8 -14 16q-18 25 -26.5 55.5t-4.5 63.5q5 31 19.5 56t36 42.5t48 27t54.5 9.5
q26 0 51 -8t48 -26z" />
    <glyph glyph-name="Iacute" unicode="&#xcd;" horiz-adv-x="200" 
d="M56 862l-1 -1q21 16 44 23q26 9 52 9q28 0 54 -9.5t47.5 -27t36.5 -42.5t20 -56q4 -33 -4.5 -63.5t-26.5 -55.5q-9 -12 -21 -23q7 -22 7 -45v-504q0 -35 -13 -65t-35.5 -53t-53 -36t-64.5 -13q-35 0 -66 13t-53.5 36t-35.5 53t-13 65v504q0 8 1 15q-14 13 -24 30
q-13 22 -16 49q-2 32 11.5 63.5t41.5 52.5z" />
    <glyph glyph-name="Icircumflex" unicode="&#xce;" horiz-adv-x="200" 
d="M306 798q21 -18 32.5 -42t13.5 -49.5t-5.5 -51t-25.5 -46.5q-19 -22 -44 -34q-6 -4 -13 -6v-502q0 -35 -13 -65t-35.5 -53t-53 -36t-64.5 -13q-35 0 -66 13t-53.5 36t-35.5 53t-13 65v504v2q-3 2 -7 4q-25 12 -43 35l2 -3q-18 21 -25.5 46.5t-5.5 51t13.5 49.5t32.5 42
l117 99q22 18 47 24.5t49.5 5t45.5 -10.5q20 -8 33 -19z" />
    <glyph glyph-name="Idieresis" unicode="&#xcf;" horiz-adv-x="200" 
d="M366 762q0 -34 -13.5 -64.5t-36.5 -53.5t-54 -37l-2 -1q4 -17 4 -35v-504q0 -35 -13 -65t-35.5 -53t-53 -36t-64.5 -13q-35 0 -66 13t-53.5 36t-35.5 53t-13 65v504q0 20 5 38q-27 13 -49 35q-23 23 -36 53.5t-13 64.5t13 64.5t36 53.5t53 36.5t65 13.5q27 0 51.5 -8.5
t45.5 -22.5q20 14 44.5 22.5t51.5 8.5q35 0 65.5 -13.5t53.5 -36.5t36.5 -53.5t13.5 -64.5zM173 762q0 -5 -0.5 -9.5t-0.5 -9.5q8 -13 25 -13q14 0 23.5 9.5t9.5 22.5t-9.5 22.5t-23.5 9.5q-16 0 -25 -14q0 -5 0.5 -9t0.5 -9zM-27 762q0 -13 9 -22.5t22 -9.5q17 0 27 13
q-1 5 -1 9v19q0 4 1 9q-11 14 -27 14q-13 0 -22 -9.5t-9 -22.5z" />
    <glyph glyph-name="Ograve" unicode="&#xd2;" horiz-adv-x="506" 
d="M409 782l-2 1q34 -22 48 -52.5t8 -65.5q-1 -3 -1 -6l16 -14q44 -44 70.5 -103.5t29.5 -127.5v-188q-2 -65 -27.5 -124t-69 -104t-102 -71.5t-127.5 -26.5q-66 0 -124.5 25t-103 69t-71 103.5t-29.5 127.5v188q1 65 27 124t70 104q17 17 36 32q-5 10 -8 21q-8 31 -4 64
q5 31 19.5 56t36 42.5t48 27t54.5 9.5q26 0 51 -8t48 -26z" />
    <glyph glyph-name="Oacute" unicode="&#xd3;" horiz-adv-x="506" 
d="M207 862l-1 -1q21 16 44 23q26 9 52 9q28 0 54 -9.5t47.5 -27t36.5 -42.5t20 -56q4 -33 -5 -64q-3 -11 -8 -22q16 -13 31 -27q44 -44 70.5 -103.5t29.5 -127.5v-188q-2 -65 -27.5 -124t-69 -104t-102 -71.5t-127.5 -26.5q-66 0 -124.5 25t-103 69t-71 103.5t-29.5 127.5
v188q1 65 27 124t70 104q10 10 21 20v4q-2 32 11.5 63.5t41.5 52.5z" />
    <glyph glyph-name="Ocircumflex" unicode="&#xd4;" horiz-adv-x="506" 
d="M457 798q21 -18 32.5 -42t13.5 -49.5t-6 -51.5q-3 -11 -8 -22q36 -40 59 -92q27 -59 30 -127v-188q-2 -65 -27.5 -124t-69 -104t-102 -71.5t-127.5 -26.5q-66 0 -124.5 25t-103 69t-71 103.5t-29.5 127.5v188q1 65 27 124q25 55 64 98q-5 10 -8 20q-7 26 -5 51.5
t13.5 49.5t32.5 42l117 99q22 18 47 24.5t49.5 5t45.5 -10.5q20 -8 33 -19z" />
    <glyph glyph-name="Otilde" unicode="&#xd5;" horiz-adv-x="506" 
d="M488 863q22 -17 35.5 -40.5t17 -49.5t-2.5 -52.5t-22 -49.5q-14 -19 -30 -34q38 -42 62 -96q27 -59 30 -127v-188q-2 -65 -27.5 -124t-69 -104t-102 -71.5t-127.5 -26.5q-66 0 -124.5 25t-103 69t-71 103.5t-29.5 127.5v188q1 65 27 124q19 43 48 78q-10 11 -17 24
q-14 24 -17.5 50t3.5 53q6 26 23 49q37 49 89 74t108 25q64 0 123 -34q18 16 40 25t45 10.5t46 -5t43 -20.5z" />
    <glyph glyph-name="Odieresis" unicode="&#xd6;" horiz-adv-x="506" 
d="M517 762q0 -34 -14 -65q-11 -26 -30 -47l5 -5q44 -44 70.5 -103.5t29.5 -127.5v-188q-2 -65 -27.5 -124t-69 -104t-102 -71.5t-127.5 -26.5q-66 0 -124.5 25t-103 69t-71 103.5t-29.5 127.5v188q1 65 27 124t70 104q4 5 9 9q-18 21 -29 47q-13 31 -13 65t13 64.5t36 53.5
t53 36.5t65 13.5q27 0 51.5 -8.5t45.5 -22.5q20 14 44.5 22.5t51.5 8.5q35 0 65.5 -13.5t53.5 -36.5t36.5 -53.5t13.5 -64.5zM324 762q0 -5 -0.5 -9.5t-0.5 -9.5q8 -13 25 -13q14 0 23.5 9.5t9.5 22.5t-9.5 22.5t-23.5 9.5q-16 0 -25 -14q0 -5 0.5 -9t0.5 -9zM124 762
q0 -13 9 -22.5t22 -9.5q17 0 27 13q-1 5 -1 9v19q0 4 1 9q-11 14 -27 14q-13 0 -22 -9.5t-9 -22.5z" />
    <glyph glyph-name="Ugrave" unicode="&#xd9;" horiz-adv-x="512" 
d="M412 782l-2 1q32 -21 47 -50q11 -3 21 -8q31 -13 54 -36t36 -53.5t13 -64.5v-344q-1 -66 -26.5 -125t-69.5 -104t-103.5 -71.5t-128.5 -26.5q-67 0 -125 25t-101.5 69t-70 103.5t-29.5 127.5v346q0 34 13 64.5t35.5 53.5t53.5 36q8 4 17 7q0 13 2 26q5 31 19.5 56
t36 42.5t48 27t54.5 9.5q26 0 51 -8t48 -26z" />
    <glyph glyph-name="Uacute" unicode="&#xda;" horiz-adv-x="512" 
d="M210 862l-1 -1q21 16 44 23q26 9 52 9q28 0 54 -9.5t47.5 -27t36.5 -42.5t20 -56q1 -14 1 -27l14 -6q31 -13 54 -36t36 -53.5t13 -64.5v-344q-1 -66 -26.5 -125t-69.5 -104t-103.5 -71.5t-128.5 -26.5q-67 0 -125 25t-101.5 69t-70 103.5t-29.5 127.5v346q0 34 13 64.5
t35.5 53.5t53.5 36q15 7 31 10q13 27 38 46z" />
    <glyph glyph-name="Ucircumflex" unicode="&#xdb;" horiz-adv-x="512" 
d="M460 798q21 -18 32 -42q11 -22 14 -46q14 -9 26 -21q23 -23 36 -53.5t13 -64.5v-344q-1 -66 -26.5 -125t-69.5 -104t-103.5 -71.5t-128.5 -26.5q-67 0 -125 25t-101.5 69t-70 103.5t-29.5 127.5v346q0 34 13 64.5t36 53.5q13 14 29 24q3 22 13 43q12 24 33 42l117 99
q22 18 47 24.5t49.5 5t45.5 -10t34 -20.5l-1 1z" />
    <glyph glyph-name="Udieresis" unicode="&#xdc;" horiz-adv-x="512" 
d="M520 762q0 -29 -10 -55q12 -8 22 -18q23 -23 36 -53.5t13 -64.5v-344q-1 -66 -26.5 -125t-69.5 -104t-103.5 -71.5t-128.5 -26.5q-67 0 -125 25t-101.5 69t-70 103.5t-29.5 127.5v346q0 34 13 64.5t36 53.5q11 11 24 20q-9 26 -9 53q0 34 13 64.5t36 53.5t53 36.5
t65 13.5q27 0 51.5 -8.5t45.5 -22.5q20 14 44.5 22.5t51.5 8.5q35 0 65.5 -13.5t53.5 -36.5t36.5 -53.5t13.5 -64.5zM327 762q0 -5 -0.5 -9.5t-0.5 -9.5q8 -13 25 -13q14 0 23.5 9.5t9.5 22.5t-9.5 22.5t-23.5 9.5q-16 0 -25 -14q0 -5 0.5 -9t0.5 -9zM127 762q0 -13 9 -22.5
t22 -9.5q17 0 27 13q-1 5 -1 9v19q0 4 1 9q-11 14 -27 14q-13 0 -22 -9.5t-9 -22.5zM253 620q0 2 1 4q-1 0 -2 -1z" />
    <glyph glyph-name="adieresis" unicode="&#xe4;" 
d="M532 609q0 -34 -14 -65q-11 -25 -29 -45q16 -13 29 -29q41 -45 64.5 -103.5t23.5 -124.5v-177q0 -34 -14 -64t-37 -52.5t-53 -35.5t-61 -13q-41 0 -73 16q-6 -2 -12.5 -3.5t-13.5 -3.5q-38 -9 -78 -9q-53 0 -101 15t-89 42t-72.5 64.5t-51.5 82.5q-14 32 -21.5 66.5
t-7.5 71.5q0 38 7.5 71.5t21.5 65.5q20 46 52 83q18 22 39 40q-15 19 -25 42q-13 31 -13 65t13 64.5t36 53.5t53 36.5t65 13.5q27 0 51.5 -8.5t45.5 -22.5q20 14 44.5 22.5t51.5 8.5q35 0 65.5 -13.5t53.5 -36.5t36.5 -53.5t13.5 -64.5zM339 609q0 -5 -0.5 -9.5t-0.5 -9.5
q8 -13 25 -13q14 0 23.5 9.5t9.5 22.5t-9.5 22.5t-23.5 9.5q-16 0 -25 -14q0 -5 0.5 -9t0.5 -9zM139 609q0 -13 9 -22.5t22 -9.5q17 0 27 13q-1 5 -1 9v19q0 4 1 9q-11 14 -27 14q-13 0 -22 -9.5t-9 -22.5z" />
    <glyph glyph-name="caron" unicode="&#x2c7;" horiz-adv-x="320" 
d="M238 440q-14 -12 -35 -20.5t-45 -10t-49 5.5t-46 25l-117 99q-21 18 -32.5 42t-13.5 49.5t5.5 51t25.5 46.5l-2 -3q18 23 42.5 35t50.5 14.5t51.5 -5.5t46.5 -26l1 -1q12 -10 13.5 -11.5t1.5 -1t1.5 -1t13.5 -11.5q8 7 15.5 13t15.5 13h-1q21 18 45.5 26t50 6.5t50 -13.5
t43.5 -34q18 -21 25.5 -46.5t5.5 -51t-13.5 -49.5t-32.5 -42z" />
    <glyph glyph-name="zcaron" unicode="&#x17e;" horiz-adv-x="549" 
d="M569 534q25 -26 36 -55t11 -59q0 -69 -48 -117l-78 -78q21 -5 41 -16t38 -29q25 -26 36 -55.5t11 -60.5q0 -30 -11.5 -59t-37.5 -57q-52 -48 -118 -48h-354q-68 0 -116 48q-24 25 -36.5 53t-11.5 63q-3 68 47 116l79 79q-24 5 -43 16.5t-35 27.5l3 -2q-54 49 -51 119
q-1 33 12.5 62.5t35.5 53.5q23 22 53 35q5 2 9 3q-2 3 -4 7q-11 24 -13 49.5t5.5 51t25.5 46.5l-2 -3q18 23 42.5 35t50.5 14.5t51.5 -5.5t46.5 -26l1 -1q12 -10 13 -12l3 -2q2 -1 14 -11q8 7 15.5 13t15.5 13h-1q21 18 45.5 26t50 6.5t50 -13.5t43.5 -34q18 -21 25.5 -46.5
t5.5 -51t-14 -49.5q-1 -4 -3 -7q33 -13 61 -40z" />
    <glyph glyph-name="Zcaron" unicode="&#x17d;" horiz-adv-x="540" 
d="M428 235q36 0 67 -13.5t53 -36.5t34.5 -53t12.5 -64q0 -35 -12.5 -66t-34.5 -53.5t-53 -35.5t-67 -13h-321q-38 1 -68 15t-52 37t-33.5 53t-11.5 63q0 23 6 44.5t20 44.5l155 247h-17q-34 0 -64 12.5t-53 35t-36.5 53t-13.5 66.5q0 34 13.5 64.5t36.5 53.5q22 22 50 35
q-3 7 -7 14q-11 24 -13 49.5t5.5 51t25.5 46.5l-2 -3q18 23 42.5 35t50.5 14.5t51.5 -5.5t46.5 -26l1 -1q12 -10 13 -12l3 -2q2 -1 14 -11q8 7 15.5 13t15.5 13h-1q21 18 45.5 26t50 6.5t50 -13.5t43.5 -34q18 -21 25.5 -46.5t5.5 -51t-14 -49.5q-4 -8 -9 -16q28 -14 49 -36
q22 -23 34.5 -53.5t12.5 -63.5q0 -22 -7 -45t-19 -44l-154 -245h15z" />
    <glyph glyph-name="Scaron" unicode="&#x160;" horiz-adv-x="505" 
d="M562 573q0 -53 -26 -93.5t-69 -60.5q49 -40 79.5 -98.5t30.5 -127.5q0 -60 -23 -113t-62.5 -92.5t-92.5 -63t-113 -24.5h-179q-37 0 -68 12.5t-53 35t-34.5 53.5t-12.5 67q0 49 26.5 89.5t68.5 60.5q-50 40 -80 98t-30 129q0 56 23 109t62 94q22 22 48 40l-9 8
q-21 18 -32.5 42t-13.5 49.5t5.5 51t25.5 46.5l-2 -3q18 23 42.5 35t50.5 14.5t51.5 -5.5t46.5 -26l1 -1q12 -10 13 -12l3 -2q2 -1 14 -11q8 7 15.5 13t15.5 13h-1q21 18 45.5 26t50 6.5t50 -13.5t43.5 -34q18 -21 25.5 -46.5t5.5 -51t-14 -49.5q-5 -12 -13 -22
q19 -10 34 -26q23 -22 36.5 -52t15.5 -65z" />
    <glyph glyph-name="scaron" unicode="&#x161;" horiz-adv-x="465" 
d="M467 533q22 -23 34.5 -52t12.5 -59q0 -28 -10.5 -54t-27.5 -47q29 -35 45 -77.5t16 -88.5q0 -56 -19 -102.5t-53.5 -80.5t-82 -53t-104.5 -19h-169q-34 0 -63.5 12.5t-51.5 34t-34.5 51.5t-12.5 66q0 27 10 53t27 49q-28 34 -44 76.5t-16 90.5q0 50 19 95t53 79
q15 17 34 30l-2 2q-21 18 -32.5 42t-13.5 49.5t5.5 51t25.5 46.5l-2 -3q18 23 42.5 35t50.5 14.5t51.5 -5.5t46.5 -26l1 -1q12 -10 13 -12l3 -2q2 -1 14 -11q8 7 15.5 13t15.5 13h-1q21 18 45.5 26t50 6.5t50 -13.5t43.5 -34q18 -21 25.5 -46.5t5.5 -51t-14 -49.5
q-8 -17 -20 -31q10 -7 18 -17z" />
    <glyph glyph-name="ntilde" unicode="&#xf1;" horiz-adv-x="541" 
d="M506 710q22 -17 35.5 -40.5t17 -49.5t-2.5 -52.5t-22 -49.5q-12 -16 -25 -29q46 -43 74 -103q28 -61 28 -133v-185q0 -33 -12.5 -62.5t-34.5 -52t-52 -36t-64 -14.5q-34 0 -64.5 12t-53 33.5t-36 51.5t-13.5 65v180q0 12 -13 12q-10 0 -10 -7v-182q0 -33 -13.5 -63
t-36.5 -52.5t-53 -36t-63 -13.5t-63 12.5t-53 34.5t-36.5 51.5t-13.5 63.5v181q1 70 28 132q22 51 56 91q-6 8 -10 17q-14 24 -17.5 50t3.5 53q6 26 23 49q37 49 89 74t108 25q64 0 123 -34q18 16 40 25t45 10.5t46 -5t43 -20.5z" />
    <glyph glyph-name="Yacute" unicode="&#xdd;" horiz-adv-x="523" 
d="M216 866l-1 -1q21 16 44 23q26 9 52 9q28 0 54 -9.5t47.5 -27t36.5 -42.5t20 -56q2 -16 1 -31q31 -7 59 -26l-2 1q37 -26 55 -62.5t18 -75.5q0 -23 -7.5 -47.5t-22.5 -47.5l-143 -205v-200q0 -35 -13.5 -66t-36.5 -53.5t-53 -35.5t-64 -13t-64.5 13t-53.5 35.5
t-36.5 53.5t-13.5 66v200q-36 51 -72.5 102.5t-71.5 102.5q-14 22 -21.5 46.5t-7.5 48.5q0 38 17.5 74.5t52.5 62.5q22 16 47 23q14 4 27 6q14 30 41 51z" />
    <glyph glyph-name="Ntilde" unicode="&#xd1;" horiz-adv-x="512" 
d="M491 867q22 -17 35.5 -40.5t17 -49.5t-2.5 -52.5t-22 -49.5q-15 -20 -33 -36q41 -42 65 -98q27 -59 30 -127v-346q0 -35 -13 -66t-36 -53.5t-53.5 -35.5t-64.5 -13q-58 0 -101.5 33t-59.5 84q-16 -51 -59 -84t-99 -33q-36 0 -67 13t-53.5 35.5t-35 53.5t-12.5 66v345
q1 67 27 125q19 44 48 80q-10 12 -17 25q-14 24 -17.5 50t3 53t24.5 50l-1 -1q37 49 89 74t108 25q64 0 123 -34q18 16 40 25t45 10.5t46 -5t43 -20.5z" />
    <glyph glyph-name="Zacute" unicode="&#x179;" horiz-adv-x="540" 
d="M224 866l-1 -1q21 16 44 23q26 9 52 9q28 0 54 -9.5t47.5 -27t36.5 -42.5t20 -56q2 -16 1 -32q8 -3 15 -6q31 -14 53 -37.5t34.5 -54t12.5 -63.5q0 -22 -7 -45t-19 -44l-154 -245h15q36 0 67 -13.5t53 -36.5t34.5 -53t12.5 -64q0 -35 -12.5 -66t-34.5 -53.5t-53 -35.5
t-67 -13h-321q-38 1 -68 15t-52 37t-33.5 53t-11.5 63q0 23 6 44.5t20 44.5l155 247h-17q-34 0 -64 12.5t-53 35t-36.5 53t-13.5 66.5q0 34 13.5 64.5t36.5 53.5t53 36q14 7 30 10q13 30 40 50z" />
    <glyph glyph-name="Tcaron" unicode="&#x164;" horiz-adv-x="482" 
d="M518 689q23 -23 36 -53.5t13 -64.5q0 -35 -12.5 -65t-34 -52t-50.5 -35.5t-63 -14.5v-336q0 -35 -12.5 -66t-35 -53.5t-53 -35.5t-66.5 -13t-66.5 13t-53 35.5t-35 53.5t-12.5 66v336q-33 1 -62.5 14t-51 35.5t-34 52.5t-12.5 65q0 34 13 64.5t36 53.5q22 21 49 35l-8 14
q-11 24 -13 49.5t5.5 51t25.5 46.5l-2 -3q18 23 42.5 35t50.5 14.5t51.5 -5.5t46.5 -26l1 -1q12 -10 13 -12l3 -2q2 -1 14 -11q8 7 15.5 13t15.5 13h-1q21 18 45.5 26t50 6.5t50 -13.5t43.5 -34q18 -21 25.5 -46.5t5.5 -51t-14 -49.5q-3 -8 -8 -15q28 -13 49 -34z" />
    <glyph glyph-name="Sacute" unicode="&#x15a;" horiz-adv-x="505" 
d="M207 866l-1 -1q21 16 44 23q26 9 52 9q28 0 54 -9.5t47.5 -27t36.5 -42.5t20 -56q2 -19 0 -37q29 -13 50 -35q23 -22 36.5 -52t15.5 -65q0 -53 -26 -93.5t-69 -60.5q49 -40 79.5 -98.5t30.5 -127.5q0 -60 -23 -113t-62.5 -92.5t-92.5 -63t-113 -24.5h-179q-37 0 -68 12.5
t-53 35t-34.5 53.5t-12.5 67q0 49 26.5 89.5t68.5 60.5q-50 40 -80 98t-30 129q0 56 23 109t62 94q15 15 32 29q0 28 12 55q14 32 42 53z" />
    <glyph glyph-name="Rcaron" unicode="&#x158;" horiz-adv-x="504" 
d="M492 186q25 -25 36.5 -56t11.5 -63t-11.5 -63t-36.5 -56t-56 -36.5t-63 -11.5t-62.5 11.5t-55.5 36.5l-24 24q-23 -33 -59 -52.5t-78 -19.5q-34 0 -64 13t-53 35.5t-36.5 53.5t-13.5 66v345q1 65 26.5 124t69.5 104q21 20 44 37l-20 18q-21 18 -32.5 42t-13.5 49.5
t5.5 51t25.5 46.5l-2 -3q18 23 42.5 35t50.5 14.5t51.5 -5.5t46.5 -26l1 -1q12 -10 13 -12l3 -2q2 -1 14 -11q8 7 15.5 13t15.5 13h-1q21 18 45.5 26t50 6.5t50 -13.5t43.5 -34q18 -21 25.5 -46.5t5.5 -51t-13.5 -49.5t-32.5 -42l-19 -16q23 -17 44 -37q45 -44 72 -103.5
t27 -127.5q0 -66 -23.5 -123.5t-64.5 -102.5z" />
    <glyph glyph-name="Ncaron" unicode="&#x147;" horiz-adv-x="512" 
d="M480 645q45 -44 71.5 -103.5t29.5 -127.5v-346q0 -35 -13 -66t-36 -53.5t-53.5 -35.5t-64.5 -13q-58 0 -101.5 33t-59.5 84q-16 -51 -59 -84t-99 -33q-36 0 -67 13t-53.5 35.5t-35 53.5t-12.5 66v345q1 67 26.5 125.5t68.5 101.5q22 22 48 40l-19 16q-21 18 -32.5 42
t-13.5 49.5t5.5 51t25.5 46.5l-2 -3q18 23 42.5 35t50.5 14.5t51.5 -5.5t46.5 -26l1 -1q12 -10 13 -12l3 -2q2 -1 14 -11q8 7 15.5 13t15.5 13h-1q21 18 45.5 26t50 6.5t50 -13.5t43.5 -34q18 -21 25.5 -46.5t5.5 -51t-13.5 -49.5t-32.5 -42l-20 -17q21 -16 40 -34z" />
    <glyph glyph-name="Nacute" unicode="&#x143;" horiz-adv-x="512" 
d="M210 866l-1 -1q21 16 44 23q26 9 52 9q28 0 54 -9.5t47.5 -27t36.5 -42.5t20 -56q4 -33 -5 -64q-4 -13 -9 -26q16 -13 31 -27q45 -44 71.5 -103.5t29.5 -127.5v-346q0 -35 -13 -66t-36 -53.5t-53.5 -35.5t-64.5 -13q-58 0 -101.5 33t-59.5 84q-16 -51 -59 -84t-99 -33
q-36 0 -67 13t-53.5 35.5t-35 53.5t-12.5 66v345q1 67 26.5 125.5t68.5 101.5q11 11 24 21q-1 4 -1 8q-2 32 11.5 63.5t41.5 52.5z" />
    <glyph glyph-name="Dcaron" unicode="&#x10e;" horiz-adv-x="490" 
d="M462 644q46 -44 73.5 -103.5t27.5 -128.5v-185q0 -65 -26.5 -124t-71.5 -104t-104.5 -72t-125.5 -27h-136q-33 0 -63.5 12.5t-54 35t-37 53.5t-13.5 67v503q0 32 13 62.5t36 53.5q17 18 39 31q-7 9 -12 20q-11 24 -13 49.5t5.5 51t25.5 46.5l-2 -3q18 23 42.5 35
t50.5 14.5t51.5 -5.5t46.5 -26l1 -1q12 -10 13 -12l3 -2q2 -1 14 -11q8 7 15.5 13t15.5 13h-1q21 18 45.5 26t50 6.5t50 -13.5t43.5 -34q18 -21 25.5 -46.5t5.5 -51t-13.5 -49.5t-32.5 -42l-24 -21q20 -14 37 -31z" />
    <glyph glyph-name="ncaron" unicode="&#x148;" horiz-adv-x="541" 
d="M508 491q47 -44 75 -105t28 -133v-185q0 -33 -12.5 -62.5t-34.5 -52t-52 -36t-64 -14.5q-34 0 -64.5 12t-53 33.5t-36 51.5t-13.5 65v180q0 12 -13 12q-10 0 -10 -7v-182q0 -33 -13.5 -63t-36.5 -52.5t-53 -36t-63 -13.5t-63 12.5t-53 34.5t-36.5 51.5t-13.5 63.5v181
q1 70 27.5 132t71.5 108q24 24 52 43l-11 10q-21 18 -32.5 42t-13.5 49.5t5.5 51t25.5 46.5l-2 -3q18 23 42.5 35t50.5 14.5t51.5 -5.5t46.5 -26l1 -1q12 -10 13 -12l3 -2q2 -1 14 -11q8 7 15.5 13t15.5 13h-1q21 18 45.5 26t50 6.5t50 -13.5t43.5 -34q18 -21 25.5 -46.5
t5.5 -51t-13.5 -49.5t-32.5 -42l-13 -11q24 -16 46 -37z" />
    <glyph glyph-name="nacute" unicode="&#x144;" horiz-adv-x="541" 
d="M225 709l-1 -1q21 16 44 23q26 9 52 9q28 0 54 -9.5t47.5 -27t36.5 -42.5t20 -56q4 -33 -5 -64q-2 -9 -6 -17q22 -15 41 -33q47 -44 75 -105t28 -133v-185q0 -33 -12.5 -62.5t-34.5 -52t-52 -36t-64 -14.5q-34 0 -64.5 12t-53 33.5t-36 51.5t-13.5 65v180q0 12 -13 12
q-10 0 -10 -7v-182q0 -33 -13.5 -63t-36.5 -52.5t-53 -36t-63 -13.5t-63 12.5t-53 34.5t-36.5 51.5t-13.5 63.5v181q1 70 27.5 132t71.5 108q16 17 34 31q0 29 12 58q14 32 42 53z" />
    <glyph glyph-name="rcaron" unicode="&#x159;" horiz-adv-x="340" 
d="M88 -101q-35 0 -64 11.5t-50.5 32.5t-34.5 50.5t-16 65.5v190q1 69 28.5 129t73.5 104l3 3l-63 54q-21 18 -32.5 42t-13.5 49.5t5.5 51t25.5 46.5l-2 -3q18 23 42.5 35t50.5 14.5t51.5 -5.5t46.5 -26l1 -1q12 -10 13 -12l3 -2q2 -1 14 -11q8 7 15.5 13t15.5 13h-1
q21 18 45.5 26t50 6.5t50 -13.5t43.5 -34q18 -21 25.5 -46.5t5.5 -51t-13.5 -49.5t-31.5 -41q1 -2 3 -3q23 -21 36.5 -49.5t16.5 -61.5q0 -36 -13 -67.5t-35 -54.5t-52.5 -36.5t-64.5 -14.5q-5 0 -8.5 -3.5t-3.5 -8.5v-191q-6 -66 -49 -108.5t-117 -42.5z" />
    <glyph glyph-name="racute" unicode="&#x155;" horiz-adv-x="340" 
d="M124 709l-1 -1q21 16 44 23q26 9 52 9q28 0 54 -9.5t47.5 -27t36.5 -42.5t20 -56q4 -33 -5 -63q3 -2 6 -5q23 -21 36.5 -49.5t16.5 -61.5q0 -36 -13 -67.5t-35 -54.5t-52.5 -36.5t-64.5 -14.5q-5 0 -8.5 -3.5t-3.5 -8.5v-191q-6 -66 -49 -108.5t-117 -42.5
q-35 0 -64 11.5t-50.5 32.5t-34.5 50.5t-16 65.5v190q1 69 29 129q16 35 38 64q-9 10 -15 21q-13 22 -16 49q-2 32 11.5 63.5t41.5 52.5z" />
    <glyph glyph-name="cacute" unicode="&#x107;" horiz-adv-x="475" 
d="M192 709l-1 -1q21 16 44 23q26 9 52 9q28 0 54 -9.5t47.5 -27t36.5 -42.5t20 -56q4 -33 -5 -64q-1 -3 -2 -5q35 -22 67 -53q23 -25 33.5 -53t10.5 -57q0 -31 -12 -62.5t-37 -55.5q-7 -7 -16 -13q5 -4 8.5 -7t7.5 -7q22 -23 35.5 -54t13.5 -62q0 -30 -12 -58.5t-32 -51.5
q-51 -51 -110.5 -76.5t-131.5 -25.5q-70 0 -132 27.5t-109 74t-74.5 109t-27.5 131.5q0 68 27.5 130t74.5 109l9 9q-3 10 -4 22q-2 32 11.5 63.5t41.5 52.5z" />
    <glyph glyph-name="ccaron" unicode="&#x10d;" horiz-adv-x="475" 
d="M505 483q23 -25 33.5 -53t10.5 -57q0 -31 -12 -62.5t-37 -55.5q-7 -7 -16 -13q5 -4 8.5 -7t7.5 -7q22 -23 35.5 -54t13.5 -62q0 -30 -12 -58.5t-32 -51.5q-51 -51 -110.5 -76.5t-131.5 -25.5q-70 0 -132 27.5t-109 74t-74.5 109t-27.5 131.5q0 68 27.5 130t74.5 109
q18 18 39 34l-28 24q-21 18 -32.5 42t-13.5 49.5t5.5 51t25.5 46.5l-2 -3q18 23 42.5 35t50.5 14.5t51.5 -5.5t46.5 -26l1 -1q12 -10 13 -12l3 -2q2 -1 14 -11q8 7 15.5 13t15.5 13h-1q21 18 45.5 26t50 6.5t50 -13.5t43.5 -34q18 -21 25.5 -46.5t5.5 -51t-13.5 -49.5
t-32.5 -42l-4 -3q35 -22 67 -53z" />
    <glyph glyph-name="ecaron" unicode="&#x11b;" horiz-adv-x="525" 
d="M502 480q48 -47 76 -109t28 -129q0 -48 -26 -88.5t-69 -60.5v-9q0 -29 -11.5 -60t-38.5 -58q-45 -35 -93.5 -49.5t-100.5 -16.5q-69 -3 -131.5 24.5t-110.5 75.5t-76 111t-28 131q0 67 27.5 128.5t73.5 108.5q25 25 53 45l-17 15q-21 18 -32.5 42t-13.5 49.5t5.5 51
t25.5 46.5l-2 -3q18 23 42.5 35t50.5 14.5t51.5 -5.5t46.5 -26l1 -1q12 -10 13 -12l3 -2q2 -1 14 -11q8 7 15.5 13t15.5 13h-1q21 18 45.5 26t50 6.5t50 -13.5t43.5 -34q18 -21 25.5 -46.5t5.5 -51t-13.5 -49.5t-32.5 -42l-18 -15q29 -20 53 -44z" />
    <glyph glyph-name="Cacute" unicode="&#x106;" horiz-adv-x="482" 
d="M195 866l-1 -1q21 16 44 23q26 9 52 9q28 0 54 -9.5t47.5 -27t36.5 -42.5t20 -56q4 -33 -5 -64l-6 -20q22 -16 43 -36q31 -31 54 -70q8 -14 16 -38t8 -47q0 -34 -13.5 -64.5t-36.5 -53.5t-53.5 -36.5t-64.5 -13.5q-49 0 -79.5 18.5t-52.5 47.5v-132q10 15 21.5 27
t26.5 20.5t35.5 13t49.5 4.5q34 0 64 -13t53 -35.5t36.5 -53.5t13.5 -66q0 -25 -7 -45.5t-18 -40.5q-21 -37 -51.5 -67.5t-67.5 -52t-79 -33t-85 -11.5q-64 0 -123 25t-104 69.5t-72 104t-27 128.5v184q0 65 25.5 124t69.5 104l13 13q-1 8 -2 17q-2 32 11.5 63.5t41.5 52.5z
M413 124q-2 -2 -2 -3z" />
    <glyph glyph-name="Ccaron" unicode="&#x10c;" horiz-adv-x="482" 
d="M391 318q34 0 64 -13t53 -35.5t36.5 -53.5t13.5 -66q0 -25 -7 -45.5t-18 -40.5q-21 -37 -51.5 -67.5t-67.5 -52t-79 -33t-85 -11.5q-64 0 -123 25t-104 69.5t-72 104t-27 128.5v184q0 65 25.5 124t69.5 104q20 19 42 36l-25 21q-21 18 -32.5 42t-13.5 49.5t5.5 51
t25.5 46.5l-2 -3q18 23 42.5 35t50.5 14.5t51.5 -5.5t46.5 -26l1 -1q12 -10 13 -12l3 -2q2 -1 14 -11q8 7 15.5 13t15.5 13h-1q21 18 45.5 26t50 6.5t50 -13.5t43.5 -34q18 -21 25.5 -46.5t5.5 -51t-13.5 -49.5t-32.5 -42l-15 -13q26 -18 50 -41q31 -31 54 -70q8 -14 16 -38
t8 -47q0 -34 -13.5 -64.5t-36.5 -53.5t-53.5 -36.5t-64.5 -13.5q-49 0 -79.5 18.5t-52.5 47.5v-132q10 15 21.5 27t26.5 20.5t35.5 13t49.5 4.5zM413 124q-2 -2 -2 -3z" />
    <glyph glyph-name="Lacute" unicode="&#x139;" horiz-adv-x="425" 
d="M167 866l-1 -1q21 16 44 23q26 9 52 9q28 0 54 -9.5t47.5 -27t36.5 -42.5t20 -56q4 -33 -4.5 -63.5t-26.5 -55t-45 -41t-59 -21.5l-18 -3v-2v-336h84q34 0 64.5 -13t53 -36t35.5 -53.5t13 -64.5q0 -35 -13 -66t-35.5 -53.5t-53 -35.5t-64.5 -13h-251q-35 0 -65 12.5
t-52.5 34.5t-36 52t-15.5 66v506q0 34 13.5 64.5t36.5 53.5q12 12 26 21q3 9 6 17q14 32 42 53z" />
    <glyph glyph-name="Racute" unicode="&#x154;" horiz-adv-x="504" 
d="M206 866l-1 -1q21 16 44 23q26 9 52 9q28 0 54 -9.5t47.5 -27t36.5 -42.5t20 -56q4 -33 -5 -64q-3 -12 -8 -24q18 -14 35 -31q45 -44 72 -103.5t27 -127.5q0 -66 -23.5 -123.5t-64.5 -102.5q25 -25 36.5 -56t11.5 -63t-11.5 -63t-36.5 -56t-56 -36.5t-63 -11.5
t-62.5 11.5t-55.5 36.5l-24 24q-23 -33 -59 -52.5t-78 -19.5q-34 0 -64 13t-53 35.5t-36.5 53.5t-13.5 66v345q1 65 26.5 124t69.5 104q10 9 19 18q-1 5 -1 10q-2 32 11.5 63.5t41.5 52.5z" />
    <glyph glyph-name="sacute" unicode="&#x15b;" horiz-adv-x="465" 
d="M187 709l-1 -1q21 16 44 23q26 9 52 9q28 0 54 -9.5t47.5 -27t36.5 -42.5t20 -56q3 -24 -1 -47q16 -11 28 -25q22 -23 34.5 -52t12.5 -59q0 -28 -10.5 -54t-27.5 -47q29 -35 45 -77.5t16 -88.5q0 -56 -19 -102.5t-53.5 -80.5t-82 -53t-104.5 -19h-169q-34 0 -63.5 12.5
t-51.5 34t-34.5 51.5t-12.5 66q0 27 10 53t27 49q-28 34 -44 76.5t-16 90.5q0 50 19 95t53 79q12 13 26 24q2 22 11 44q14 32 42 53z" />
    <glyph glyph-name="zacute" unicode="&#x17a;" horiz-adv-x="549" 
d="M229 709l-1 -1q21 16 44 23q26 9 52 9q28 0 54 -9.5t47.5 -27t36.5 -42.5t20 -56q1 -12 1 -24q48 -9 86 -47q25 -26 36 -55t11 -59q0 -69 -48 -117l-78 -78q21 -5 41 -16t38 -29q25 -26 36 -55.5t11 -60.5q0 -30 -11.5 -59t-37.5 -57q-52 -48 -118 -48h-354
q-68 0 -116 48q-24 25 -36.5 53t-11.5 63q-3 68 47 116l79 79q-24 5 -43 16.5t-35 27.5l3 -2q-54 49 -51 119q-1 33 12.5 62.5t35.5 53.5q23 22 53 35q23 10 47 12q13 27 38 45z" />
    <glyph glyph-name="tcaron" unicode="&#x165;" horiz-adv-x="650" 
d="M623 351q-18 -32 -46.5 -51.5t-67.5 -19.5q-27 0 -51 10l-10 4q-13 -10 -28 -17q24 -4 47.5 -14.5t43.5 -26.5q28 -25 41.5 -58t13.5 -65q0 -30 -10.5 -59t-33.5 -54q-49 -48 -109.5 -74t-129.5 -26q-72 0 -136.5 24.5t-112.5 70t-77 109.5t-30 142v330q0 35 13.5 65
t37 51.5t54 34t63.5 12.5q31 0 59 -11t49.5 -30.5t36.5 -45.5t20 -57h95q14 0 27 -2q3 22 12 43q13 31 35.5 54t53.5 36t66 13q37 0 67.5 -14t52.5 -37.5t34 -54t12 -62.5q0 -43 -21 -82l1 3z" />
    <glyph glyph-name="Ecaron" unicode="&#x11a;" horiz-adv-x="464" 
d="M464 339q0 -33 -12.5 -62t-33.5 -52q25 -9 45.5 -24.5t35.5 -36t23.5 -45t8.5 -51.5q0 -35 -13 -66t-36 -53.5t-53.5 -35.5t-64.5 -13h-266q-33 0 -63 13t-53 35.5t-37 53.5t-14 66v503q0 32 12.5 62.5t35.5 53.5q14 15 31 26q-9 12 -15 25q-12 24 -14 49.5t5.5 51
t25.5 46.5l-2 -3q18 23 42.5 35t50.5 14.5t51.5 -5.5t46.5 -26l1 -1q12 -10 13 -12l3 -2q2 -1 14 -11q8 7 15.5 13t15.5 13h-1q21 18 45.5 26t50 6.5t50 -13.5t43.5 -34q18 -21 25.5 -46.5t5.5 -51t-14 -49.5q-6 -14 -16 -26q16 -10 30 -23q23 -23 36 -53.5t13 -64.5
q0 -51 -25 -89.5t-65 -59.5q11 -19 17 -39.5t6 -43.5z" />
    <glyph glyph-name="asciitilde" unicode="~" horiz-adv-x="414" 
d="M425 429q22 -17 35.5 -40.5t17 -49.5t-2.5 -52.5t-22 -49.5q-38 -51 -91 -76.5t-109 -25.5q-65 0 -123 35q-18 -16 -40 -24.5t-45.5 -9.5t-46.5 6t-43 22q-23 17 -36.5 41t-17 50t3 53t24.5 50l-1 -1q37 49 89 74t108 25q64 0 123 -34q18 16 40 25t45 10.5t46 -5
t43 -20.5z" />
    <glyph glyph-name="yen" unicode="&#xa5;" horiz-adv-x="533" 
d="M555 133q0 -33 -12 -62.5t-33 -52t-49.5 -36t-61.5 -15.5q-23 -31 -58 -49t-75 -18q-42 0 -77.5 18t-58.5 50q-33 2 -61 16t-48.5 36t-32 51t-11.5 62q0 47 25 88q-25 39 -25 88q0 26 6.5 48t20.5 42q-13 19 -25 37.5t-25 37.5q-29 44 -29 94q0 38 17.5 74.5t52.5 62.5
q22 16 47.5 23.5t49.5 7.5q40 0 79 -19.5t62 -59.5l-4 6q15 -21 17 -23.5t1 -2t1 -2t17 -23.5q8 13 17 24.5t18 24.5l-1 -1q25 38 63 57t77 19q53 0 96 -31l-2 1q37 -26 55 -62.5t18 -75.5q0 -23 -7.5 -47.5t-21.5 -46.5l-49 -74q14 -20 20.5 -42.5t6.5 -48.5q0 -25 -7 -47
t-19 -41q12 -20 19 -42t7 -46z" />
    <glyph glyph-name="Euro" unicode="&#x20ac;" 
d="M447 318q34 0 64 -13t53 -35.5t36.5 -53.5t13.5 -66q0 -25 -7 -45.5t-18 -40.5q-21 -37 -51.5 -67.5t-67.5 -52t-79 -33t-85 -11.5q-45 0 -88.5 13t-81.5 36.5t-68.5 56.5t-51.5 74q-44 20 -71.5 60.5t-27.5 91.5q0 22 5.5 42.5t15.5 38.5q-10 18 -15.5 38t-5.5 43
q0 49 25.5 89t66.5 60q19 42 49.5 77.5t69 62t83.5 41t95 14.5q42 0 83.5 -11.5t78.5 -32.5t68 -52t54 -70q8 -14 16 -38t8 -47q0 -34 -13.5 -64.5t-36.5 -53.5t-53.5 -36.5t-64.5 -13.5h-19l-1 -2q5 1 10 1h11z" />
    <glyph glyph-name="numbersign" unicode="#" horiz-adv-x="588" 
d="M673 409q0 -40 -16.5 -73.5t-44.5 -56.5q6 -21 6 -44q0 -30 -10.5 -57.5t-28.5 -49.5t-43 -37t-54 -21q-5 -13 -8.5 -26t-7.5 -25q-10 -34 -32 -59.5t-51 -40.5t-62.5 -18t-67.5 8l5 -1q-25 8 -43 19q-31 -20 -68 -25.5t-75 7.5l5 -1q-34 10 -59.5 31t-41 49.5t-19.5 62
t7 66.5q-23 23 -35.5 53t-12.5 65q0 38 16.5 72t44.5 57q-6 21 -6 45q0 30 10 57t28 49t43 36.5t54 20.5q5 13 8.5 25t7.5 25q11 33 33 58.5t50.5 40.5t61.5 18.5t66 -6.5h-2q11 -4 21.5 -8.5t20.5 -11.5q31 20 68 26t75 -7l-8 2q35 -9 61.5 -30t42 -49.5t19.5 -62t-5 -66.5
v-2q22 -23 34.5 -52t12.5 -63zM246 345l56 -78h11l33 26l2 10l-56 72h-21l-20 -15z" />
    <glyph glyph-name="sterling" unicode="&#xa3;" horiz-adv-x="356" 
d="M374 307q0 -55 -28 -97q37 -22 59.5 -60t22.5 -83q0 -35 -13 -65t-36 -53t-53.5 -36t-64.5 -13h-116q-35 0 -66 13t-53.5 35.5t-35.5 53.5t-13 66v103q-28 21 -44.5 54.5t-19.5 76.5q0 90 64 136v21q0 55 21.5 105.5t58.5 89.5t87 62t107 23q71 0 119.5 -40.5
t53.5 -122.5q0 -52 -27 -92.5t-72 -60.5q21 -23 34.5 -53.5t14.5 -62.5z" />
    <glyph glyph-name="Ydieresis" unicode="&#x178;" horiz-adv-x="523" 
d="M526 766q0 -28 -9 -54q6 -3 12 -7l-2 1q37 -26 55 -62.5t18 -75.5q0 -23 -7.5 -47.5t-22.5 -47.5l-143 -205v-200q0 -35 -13.5 -66t-36.5 -53.5t-53 -35.5t-64 -13t-64.5 13t-53.5 35.5t-36.5 53.5t-13.5 66v200q-36 51 -72.5 102.5t-71.5 102.5q-14 22 -21.5 46.5
t-7.5 48.5q0 38 17.5 74.5t52.5 62.5q8 5 15 10q-7 24 -7 51q0 34 13 64.5t36 53.5t53 36.5t65 13.5q27 0 51.5 -8.5t45.5 -22.5q20 14 44.5 22.5t51.5 8.5q35 0 65.5 -13.5t53.5 -36.5t36.5 -53.5t13.5 -64.5zM333 766q0 -5 -0.5 -9.5t-0.5 -9.5q8 -13 25 -13
q14 0 23.5 9.5t9.5 22.5t-9.5 22.5t-23.5 9.5q-16 0 -25 -14q0 -5 0.5 -9t0.5 -9zM133 766q0 -13 9 -22.5t22 -9.5q17 0 27 13q-1 5 -1 9v19q0 4 1 9q-11 14 -27 14q-13 0 -22 -9.5t-9 -22.5zM259 612l8 12q-3 2 -6 5q-5 -4 -10 -7q3 -4 8 -10z" />
    <glyph glyph-name="at" unicode="@" horiz-adv-x="724" 
d="M364 738q91 0 171.5 -35t140.5 -95t95 -140.5t35 -172.5q0 -26 -2.5 -55t-12.5 -59q-20 -60 -66 -101t-108 -57q-2 -49 -32 -89.5t-79 -58.5q-67 -23 -142 -23q-92 0 -172.5 35t-140.5 95t-95 140.5t-35 172.5t35 172.5t95 140.5t140.5 95t172.5 35zM364 248
q20 0 33.5 13.5t13.5 33.5t-13.5 33.5t-33.5 13.5t-33.5 -13.5t-13.5 -33.5t13.5 -33.5t33.5 -13.5z" />
    <glyph glyph-name="trademark" unicode="&#x2122;" horiz-adv-x="642" 
d="M364 58q-18 -28 -38 -57t-43 -64v121h-27v-54h-285v203h-34v501h254v-69h116q23 5 46 5q16 0 31.5 -2.5t29.5 -8.5q14 5 29.5 8t33.5 3q31 0 59.5 -10t50.5 -30.5t36 -51t17 -71.5h65v-522h-283v99h-58v0z" />
    <glyph glyph-name="registered" unicode="&#xae;" horiz-adv-x="642" 
d="M364 58q-18 -28 -38 -57t-43 -64v121h-27v-54h-285v203h-34v501h254v-69h116q23 5 46 5q16 0 31.5 -2.5t29.5 -8.5q14 5 29.5 8t33.5 3q31 0 59.5 -10t50.5 -30.5t36 -51t17 -71.5h65v-522h-283v99h-58v0z" />
    <glyph glyph-name="endash" unicode="&#x2013;" horiz-adv-x="426" 
d="M489 301q0 -34 -13 -64.5t-36 -53.5t-53.5 -36.5t-64.5 -13.5h-255q-36 0 -66.5 13.5t-53 36.5t-35 53.5t-12.5 64.5q0 35 12.5 66t35 53.5t53 35.5t66.5 13h255q34 0 64.5 -13t53.5 -35.5t36 -53.5t13 -66z" />
    <glyph glyph-name="emdash" unicode="&#x2014;" horiz-adv-x="510" 
d="M569 301q0 -34 -13 -64.5t-36 -53.5t-53.5 -36.5t-64.5 -13.5h-335q-36 0 -66.5 13.5t-53 36.5t-35 53.5t-12.5 64.5q0 35 12.5 66t35 53.5t53 35.5t66.5 13h335q34 0 64.5 -13t53.5 -35.5t36 -53.5t13 -66z" />
    <glyph glyph-name="underscore" unicode="_" horiz-adv-x="525" 
d="M597 69q0 -34 -13 -64.5t-36 -53.5t-53.5 -36.5t-64.5 -13.5h-335q-36 0 -66.5 13.5t-53 36.5t-35 53.5t-12.5 64.5q0 35 12.5 66t35 53.5t53 35.5t66.5 13h335q34 0 64.5 -13t53.5 -35.5t36 -53.5t13 -66z" />
    <glyph glyph-name="cent" unicode="&#xa2;" horiz-adv-x="456" 
d="M246 740q35 0 66 -13.5t54.5 -37t37 -54.5t13.5 -66v-25q20 -11 41 -27t39 -34q23 -25 33.5 -53t10.5 -57q0 -31 -12 -62.5t-37 -55.5q-7 -7 -16 -13q5 -4 8.5 -7t7.5 -7q22 -23 35.5 -54t13.5 -62q0 -30 -12 -58.5t-32 -51.5q-36 -36 -80 -61v-4q0 -35 -13.5 -66.5
t-37 -54.5t-54.5 -36.5t-66 -13.5q-36 0 -67 13.5t-54 36.5t-36 54.5t-13 66.5v15q-73 46 -118.5 121.5t-45.5 168.5q0 44 12 86t34 79t52 68t66 55v39q0 35 13 66t36 54.5t54 37t67 13.5z" />
    <glyph glyph-name="brokenbar" unicode="&#xa6;" horiz-adv-x="171" 
d="M86 738q34 0 64.5 -13.5t53 -36.5t35.5 -53t13 -64v-659q0 -35 -13 -65t-35.5 -53t-53 -36t-64.5 -13q-35 0 -66 13t-53.5 36t-35.5 53t-13 65v659q0 34 13 64t35.5 53t53.5 36.5t66 13.5z" />
    <glyph glyph-name="uni00AD" unicode="&#xad;" horiz-adv-x="426" 
d="M489 301q0 -34 -13 -64.5t-36 -53.5t-53.5 -36.5t-64.5 -13.5h-255q-36 0 -66.5 13.5t-53 36.5t-35 53.5t-12.5 64.5q0 35 12.5 66t35 53.5t53 35.5t66.5 13h255q34 0 64.5 -13t53.5 -35.5t36 -53.5t13 -66z" />
    <glyph glyph-name="oe" unicode="&#x153;" horiz-adv-x="880" 
d="M619 584q68 0 130 -28.5t109.5 -75.5t75.5 -109t28 -129q0 -48 -26 -88.5t-69 -60.5v-9q0 -29 -11.5 -60t-38.5 -58q-45 -35 -93.5 -49.5t-100.5 -16.5q-69 -3 -132 25q-22 9 -42 21q-24 -16 -52 -28q-62 -27 -134 -27q-71 0 -133 25.5t-108.5 71t-73.5 108t-27 136.5
q0 70 26 131.5t71.5 107.5t107 73.5t133.5 30.5h4q69 0 131 -27q22 -9 42 -21q24 16 51 28q63 29 132 29z" />
    <glyph glyph-name="ae" unicode="&#xe6;" horiz-adv-x="890" 
d="M617 584q68 0 130 -28.5t109.5 -75.5t75.5 -109t28 -129q0 -48 -26 -88.5t-69 -60.5v-9q0 -29 -11.5 -60t-38.5 -58q-45 -35 -93.5 -49.5t-100.5 -16.5q-58 -2 -111 17l-8 -4q-30 -13 -61 -13q-41 0 -73 16q-6 -2 -12.5 -3.5t-13.5 -3.5q-38 -9 -78 -9q-53 0 -101 15
t-89 42t-72.5 64.5t-51.5 82.5q-14 32 -21.5 66.5t-7.5 71.5q0 38 7.5 71.5t21.5 65.5q20 46 52 83.5t72.5 64.5t88.5 42t101 15h16q9 0 23 -2q64 -8 119 -37q11 -6 21 -12q20 12 42 22q63 29 132 29z" />
    <glyph glyph-name="Eth" unicode="&#xd0;" horiz-adv-x="487" 
d="M235 739q64 0 123 -25.5t104.5 -69.5t73 -103.5t27.5 -128.5v-185q0 -65 -26.5 -124t-71.5 -104t-104.5 -72t-125.5 -27h-136q-33 0 -63.5 12.5t-54 35t-37 53.5t-13.5 67q0 19 -0.5 29t-0.5 18.5t-0.5 18.5t-0.5 31q-32 23 -50 58.5t-18 77.5q0 44 18.5 79.5t51.5 58.5
v132q0 32 13 62.5t35.5 54t53.5 37.5t66 14h136v0z" />
    <glyph glyph-name="Oslash" unicode="&#xd8;" horiz-adv-x="502" 
d="M381 731q32 -10 56.5 -32t39.5 -51q1 -3 3 -5q42 -44 68 -102q27 -59 30 -127v-188q-2 -65 -27.5 -124t-69 -104t-102 -71.5t-127.5 -26.5q-26 0 -50 4l-16 -2q-33 -4 -65 6l1 -1q-34 10 -59.5 31.5t-40.5 49.5q-5 8 -8 16q-37 41 -60 93q-27 60 -30 128v188q1 65 27 124
t70 104t103.5 71.5t127.5 26.5q22 0 44 -3q10 2 21 3q33 3 66 -8h-2z" />
    <glyph glyph-name="OE" unicode="&#x152;" horiz-adv-x="769" 
d="M776 339q0 -33 -12.5 -62t-33.5 -52q25 -9 45.5 -24.5t35.5 -36t23.5 -45t8.5 -51.5q0 -35 -13 -66t-36 -53.5t-53.5 -35.5t-64.5 -13h-266q-33 0 -63 13l-2 1q-44 -14 -93 -14q-66 0 -124.5 25t-103 69t-71 103.5t-29.5 127.5v188q1 65 27 124t70 104t103.5 71.5
t127.5 26.5q48 0 92 -14q30 14 66 14h266q34 0 64.5 -13.5t53.5 -36.5t36 -53.5t13 -64.5q0 -51 -25 -89.5t-65 -59.5q11 -19 17 -39.5t6 -43.5z" />
    <glyph glyph-name="AE" unicode="&#xc6;" horiz-adv-x="719" 
d="M729 339q0 -33 -12.5 -62t-33.5 -52q25 -9 45.5 -24.5t35.5 -36t23.5 -45t8.5 -51.5q0 -35 -13 -66t-36 -53.5t-53.5 -35.5t-64.5 -13h-259h-8q-42 0 -76.5 18t-57.5 47q-23 -29 -57.5 -47t-76.5 -18q-35 0 -65 13t-52.5 36t-35.5 53t-13 65v374q1 62 24.5 116.5t64 95
t95 63.5t116.5 23q40 0 77 -10q27 10 58 10h266q34 0 64.5 -13.5t53.5 -36.5t36 -53.5t13 -64.5q0 -51 -25 -89.5t-65 -59.5q11 -19 17 -39.5t6 -43.5z" />
    <glyph glyph-name="copyright" unicode="&#xa9;" horiz-adv-x="642" 
d="M364 58q-18 -28 -38 -57t-43 -64v121h-27v-54h-285v203h-34v501h254v-69h116q23 5 46 5q16 0 31.5 -2.5t29.5 -8.5q14 5 29.5 8t33.5 3q31 0 59.5 -10t50.5 -30.5t36 -51t17 -71.5h65v-522h-283v99h-58v0z" />
    <glyph glyph-name="divide" unicode="&#xf7;" horiz-adv-x="404" 
d="M357 127q0 -34 -13.5 -64.5t-36.5 -53.5t-53.5 -36.5t-65.5 -13.5t-65 13.5t-53 36.5t-36 53.5t-13 64.5v12q-11 3 -21 7q-30 14 -52.5 37t-35 53.5t-12.5 64.5q0 35 12.5 66t35 53.5t52.5 35.5q11 4 21 7v13q0 34 13 64.5t36 53.5t53 36.5t65 13.5t65.5 -13.5
t53.5 -36.5t36.5 -53.5t13.5 -64.5v-11q15 -3 29 -9q31 -13 54 -35.5t36 -53.5t13 -66q0 -34 -13 -64.5t-36 -53.5t-54 -37q-14 -6 -29 -10v-9zM157 476v-7h63q1 3 1 7q0 13 -9.5 22.5t-23.5 9.5q-13 0 -22 -9.5t-9 -22.5zM157 127q0 -13 9 -22.5t22 -9.5q14 0 23.5 9.5
t9.5 22.5q0 3 -1 6h-63v-6z" />
    <glyph glyph-name="mu" unicode="&#xb5;" horiz-adv-x="529" 
d="M433 585q35 0 65.5 -13t52.5 -35.5t34.5 -52t12.5 -63.5v-171q0 -75 -27.5 -139t-74.5 -110.5t-109.5 -73t-131.5 -26.5h-13q-2 -35 -17 -63t-37.5 -48t-51 -31t-58.5 -11q-33 0 -63 12.5t-53 34.5t-36.5 51.5t-13.5 63.5v514q0 34 13.5 63.5t36.5 51.5t53 34t63 12
q35 0 65.5 -13t52.5 -35.5t34.5 -52t12.5 -63.5v-183q0 -2 3.5 -4t8.5 -2q12 0 12 11v181q0 36 14.5 65.5t37.5 50.5t53 33t61 12z" />
    <glyph glyph-name="dotaccent" unicode="&#x2d9;" horiz-adv-x="179" 
d="M57 601q0 -13 9 -22.5t22 -9.5q14 0 23.5 9.5t9.5 22.5t-9.5 22.5t-23.5 9.5q-13 0 -22 -9.5t-9 -22.5zM257 601q0 -34 -13.5 -64.5t-36.5 -53.5t-53.5 -36.5t-65.5 -13.5t-65 13.5t-53 36.5t-36 53.5t-13 64.5t13 64.5t36 53.5t53 36.5t65 13.5t65.5 -13.5t53.5 -36.5
t36.5 -53.5t13.5 -64.5z" />
    <glyph glyph-name="zdotaccent" unicode="&#x17c;" horiz-adv-x="545" 
d="M440 601q0 -9 -1 -17h13q67 0 117 -50q25 -26 36 -55t11 -59q0 -69 -48 -117l-78 -78q21 -5 41 -16t38 -29q25 -26 36 -55.5t11 -60.5q0 -30 -11.5 -59t-37.5 -57q-52 -48 -118 -48h-354q-68 0 -116 48q-24 25 -36.5 53t-11.5 63q-3 68 47 116l79 79q-24 5 -43 16.5
t-35 27.5l3 -2q-54 49 -51 119q-1 33 12.5 62.5t35.5 53.5q23 22 53.5 35t62.5 13h9v17q0 34 13 64.5t36 53.5t53 36.5t65 13.5t65.5 -13.5t53.5 -36.5t36.5 -53.5t13.5 -64.5zM240 601q0 -9 4 -17h55q5 8 5 17q0 13 -9.5 22.5t-23.5 9.5q-13 0 -22 -9.5t-9 -22.5z" />
    <glyph glyph-name="dcaron" unicode="&#x10f;" horiz-adv-x="691" 
d="M664 351q-18 -32 -47 -52q-10 -7 -22 -12v-45q0 -69 -28 -131.5t-75 -109t-109 -74t-130 -27.5t-130 27t-109.5 73.5t-75.5 108.5t-28 133q0 69 27.5 131.5t74.5 109t109.5 74t131.5 27.5h11q3 32 17.5 60t37 48.5t51 32.5t60.5 12q33 0 63 -12q8 -3 15 -7q7 4 16 8
q31 13 66 13q37 0 67.5 -14t52.5 -37.5t34 -54t12 -62.5q0 -43 -21 -82l1 3z" />
    <glyph glyph-name="Zdotaccent" unicode="&#x17b;" 
d="M436 758q0 -10 -1 -20q31 -2 58 -14q31 -14 53 -37.5t34.5 -54t12.5 -63.5q0 -22 -7 -45t-19 -44l-154 -245h15q36 0 67 -13.5t53 -36.5t34.5 -53t12.5 -64q0 -35 -12.5 -66t-34.5 -53.5t-53 -35.5t-67 -13h-321q-38 1 -68 15t-52 37t-33.5 53t-11.5 63q0 23 6 44.5
t20 44.5l155 247h-17q-34 0 -64 12.5t-53 35t-36.5 53t-13.5 66.5q0 34 13.5 64.5t36.5 53.5t53 36q28 13 59 14q-1 9 -1 19q0 34 13 64.5t36 53.5t53 36.5t65 13.5t65.5 -13.5t53.5 -36.5t36.5 -53.5t13.5 -64.5zM236 758q0 -11 6 -19h52q6 8 6 19q0 13 -9.5 22.5
t-23.5 9.5q-13 0 -22 -9.5t-9 -22.5z" />
    <glyph glyph-name="multiply" unicode="&#xd7;" horiz-adv-x="541" 
d="M313 516q47 47 114 47q29 0 59.5 -11t56.5 -36q25 -25 37 -55t12 -62q0 -31 -12 -62t-34 -54q-9 -9 -11.5 -12t-5 -5t-7 -6.5t-16.5 -17.5q9 -9 20 -20.5t20 -20.5q21 -23 34 -55t13 -62q0 -31 -11.5 -61.5t-36.5 -55.5q-47 -47 -115 -47q-32 0 -63.5 12.5t-56.5 37.5
l-38 38q-10 -10 -19.5 -20t-19.5 -20q-26 -23 -57 -35.5t-63 -12.5t-60.5 10.5t-54.5 36.5q-25 25 -36.5 55.5t-11.5 62.5q0 29 10.5 58t34.5 55l43 44l-42 42q-24 24 -35 52.5t-11 59.5q0 63 45 116q27 27 57 39.5t61 12.5q32 0 62 -12.5t55 -35.5l42 -42z" />
    <glyph glyph-name="bullet" unicode="&#x2022;" horiz-adv-x="235" 
d="M101 239q5 0 5 3q0 4 -5 4q-3 0 -3 -4q0 -3 3 -3zM101 39q-42 0 -79 16t-64.5 43.5t-43.5 64.5t-16 79q0 43 17.5 80.5t46 65t65 43t74.5 15.5q48 0 86 -19t64.5 -48.5t40.5 -66t14 -70.5q0 -42 -16.5 -79t-44.5 -64.5t-65 -43.5t-79 -16z" />
    <glyph glyph-name="periodcentered" unicode="&#xb7;" horiz-adv-x="151" 
d="M36 243q0 -13 9 -22.5t22 -9.5q14 0 23.5 9.5t9.5 22.5t-9.5 22.5t-23.5 9.5q-13 0 -22 -9.5t-9 -22.5zM236 243q0 -34 -13.5 -64.5t-36.5 -53.5t-53.5 -36.5t-65.5 -13.5t-65 13.5t-53 36.5t-36 53.5t-13 64.5t13 64.5t36 53.5t53 36.5t65 13.5t65.5 -13.5t53.5 -36.5
t36.5 -53.5t13.5 -64.5z" />
    <glyph glyph-name="currency" unicode="&#xa4;" horiz-adv-x="642" 
d="M364 58q-18 -28 -38 -57t-43 -64v121h-27v-54h-285v203h-34v501h254v-69h116q23 5 46 5q16 0 31.5 -2.5t29.5 -8.5q14 5 29.5 8t33.5 3q31 0 59.5 -10t50.5 -30.5t36 -51t17 -71.5h65v-522h-283v99h-58v0z" />
    <glyph glyph-name="space" unicode=" " horiz-adv-x="225" 
 />
    </font>
</defs>
</svg>
