<?xml version="1.0" standalone="no"?>
<!DOCTYPE svg PUBLIC "-//W3C//DTD SVG 1.1//EN" "http://www.w3.org/Graphics/SVG/1.1/DTD/svg11.dtd" >
<svg>
<defs>
<font id="PicoSuperUltraBold" horiz-adv-x="510" >
  <font-face 
    font-family="PicoSuperUltraBold"
    font-weight="400"
    font-stretch="normal"
    units-per-em="1000"
    panose-1="0 0 4 0 0 0 0 0 0 0"
    ascent="800"
    descent="-200"
    x-height="471"
    cap-height="683"
    bbox="0 -213 1343 800"
    underline-thickness="20"
    underline-position="-123"
    unicode-range="U+0020-F000"
  />
<missing-glyph horiz-adv-x="500" 
d="M63 0v800h375v-800h-375zM125 63h250v675h-250v-675z" />
    <glyph glyph-name=".notdef" horiz-adv-x="500" 
d="M63 0v800h375v-800h-375zM125 63h250v675h-250v-675z" />
    <glyph glyph-name=".null" horiz-adv-x="0" 
 />
    <glyph glyph-name="nonmarkingreturn" horiz-adv-x="154" 
 />
    <glyph glyph-name="space" unicode=" " horiz-adv-x="154" 
 />
    <glyph glyph-name="exclam" unicode="!" horiz-adv-x="212" 
d="M212 106q0 -44 -31 -75t-75 -31q-43 0 -74.5 31.5t-31.5 74.5q0 44 31 75t75 31q-43 0 -74.5 31.5t-31.5 74.5v259q0 44 31 75t75 31t75 -31t31 -75v-259q0 -44 -31 -75t-75 -31q44 0 75 -31t31 -75z" />
    <glyph glyph-name="quotedbl" unicode="&#x22;" horiz-adv-x="481" 
d="M461 470q0 -22 -15.5 -37.5t-37.5 -15.5q-21 0 -36.5 14.5t-16.5 35.5q0 3 -3 3q-43 1 -73.5 32t-30.5 74q0 44 31.5 75.5t75.5 31.5t75 -31.5t31 -75.5v-106zM233 470q0 -22 -15.5 -37.5t-37.5 -15.5q-21 0 -36.5 14.5t-16.5 35.5q0 3 -3 3q-43 1 -73.5 31.5t-30.5 74.5
t31 75.5t75 31.5t75.5 -31.5t31.5 -75.5v-106z" />
    <glyph glyph-name="numbersign" unicode="#" 
d="M490 255q0 -62 -55 -92l-2 -2q-30 -54 -92 -54q-51 0 -82 41q-1 1 -4 1q-1 0 -4 -1q-31 -41 -82 -41q-62 0 -92 54q0 1 -2 2q-55 30 -55 92q0 51 41 84q2 2 2 3t-2 3q-41 31 -41 83q0 62 54 92l2 2q30 55 93 55q52 0 84 -42q1 0 2 -1q1 0 2 1q32 42 84 42q63 0 93 -55
l2 -2q54 -30 54 -92q0 -52 -41 -83q-2 -2 -2 -3t2 -3q41 -33 41 -84z" />
    <glyph glyph-name="dollar" unicode="$" 
d="M490 236q0 -67 -35 -123t-92 -86q-2 -2 -2 -4v-21q0 -44 -31 -75t-75 -31t-75 31t-31 75v21q0 2 -2 4q-57 30 -92 86t-35 123q0 48 37 80q1 1 1 4q-38 59 -38 128q0 66 35 122t92 86q2 2 2 4v21q0 44 31 75t75 31t75 -31t31 -75v-21q0 -2 2 -4q58 -30 92.5 -85.5
t34.5 -122.5q0 -49 -37 -81q-1 -1 -1 -4q38 -59 38 -127z" />
    <glyph glyph-name="percent" unicode="%" 
d="M233 577q0 -44 -31.5 -75.5t-75.5 -31.5t-75 31.5t-31 75.5t31.5 75t74.5 31q44 0 75.5 -31t31.5 -75zM477 526l-258 -471q-30 -55 -93 -55q-27 0 -51 13q-55 30 -55 93q0 27 13 51l258 471q30 55 93 55q27 0 51 -13q55 -30 55 -93q0 -27 -13 -51zM490 107
q0 -44 -31 -75.5t-75 -31.5t-75.5 31.5t-31.5 75.5t31.5 75t75.5 31t75 -31t31 -75z" />
    <glyph glyph-name="ampersand" unicode="&#x26;" horiz-adv-x="640" 
d="M619 108q0 -44 -31 -75t-75 -31t-75 31l-25 25q-2 2 -4 0q-66 -57 -153 -57q-98 0 -166.5 68.5t-68.5 166.5q0 54 25 104q1 1 0 4q-25 50 -25 103q0 98 69 167t166 69q98 0 167 -69t69 -167q0 -44 -31 -74.5t-75 -30.5q35 -2 62 -21q1 -1 4 0q27 20 62 20q43 0 74 -31
t31 -74q0 -34 -20 -62q-2 -2 0 -4q20 -29 20 -62zM385 342q-43 0 -74 31t-31 74q0 10 -7 17t-17 7q-9 0 -16 -7t-7 -17q0 -9 7 -16l16 -16q31 -31 31 -75v-6q-3 -49 -40 -77l-8 -6q-6 -6 -6 -15q0 -11 7 -17t16 -6q11 0 17.5 6.5t6.5 16.5q0 71 65 98q15 6 40 8z" />
    <glyph glyph-name="quotesingle" unicode="'" horiz-adv-x="253" 
d="M233 470q0 -22 -15.5 -37.5t-37.5 -15.5q-21 0 -36.5 14.5t-16.5 35.5q0 3 -3 3q-43 1 -73.5 31.5t-30.5 74.5t31 75.5t75 31.5t75.5 -31.5t31.5 -75.5v-106z" />
    <glyph glyph-name="parenleft" unicode="(" 
d="M478 107q0 -44 -31 -75t-75 -31q-141 0 -240.5 100t-99.5 241t99.5 241t240.5 100q44 0 75 -31t31 -75t-31 -75t-75 -31q-53 0 -90.5 -38t-37.5 -91t37.5 -91t90.5 -38q44 0 75 -31t31 -75z" />
    <glyph glyph-name="parenright" unicode=")" 
d="M478 342q0 -141 -100 -241t-240 -100q-44 0 -75 31t-31 75t31 75t75 31q53 0 90.5 38t37.5 91t-37.5 91t-90.5 38q-44 0 -75 31t-31 75t31 75t75 31q140 0 240 -100t100 -241z" />
    <glyph glyph-name="asterisk" unicode="*" 
d="M490 343q0 -57 -46 -88q-2 -2 -1 -4q7 -18 7 -38q0 -56 -46 -87q-28 -19 -61 -19q-54 0 -85 44q-1 1 -3 2q-2 -1 -3 -2q-31 -44 -85 -44q-33 0 -61 19q-46 31 -46 87q0 20 7 38q2 2 -1 4q-46 31 -46 87q0 57 46 88q2 2 1 4q-7 18 -7 37q0 57 46 88q27 19 60 19
q55 0 86 -45q3 -1 6 0q31 45 86 45q33 0 60 -19q46 -31 46 -88q0 -19 -7 -37q-1 -2 1 -4q46 -31 46 -87z" />
    <glyph glyph-name="plus" unicode="+" 
d="M491 342q0 -43 -31 -74.5t-75 -31.5h-21q-3 0 -3 -3v-21q0 -43 -31 -74.5t-75 -31.5t-75 31t-31 75v21q0 3 -3 3h-21q-44 0 -75 31t-31 75t31 75t75 31h21q3 0 3 4v20q0 44 31 75t75 31t75 -31t31 -75v-21q1 -3 3 -3h21q44 0 75 -31t31 -75z" />
    <glyph glyph-name="comma" unicode="," horiz-adv-x="253" 
d="M233 1q0 -22 -15.5 -37.5t-37.5 -15.5q-21 0 -36.5 14.5t-16.5 34.5q0 3 -3 4q-43 1 -73.5 31.5t-30.5 74.5t31 75.5t75 31.5t75.5 -31.5t31.5 -75.5v-106z" />
    <glyph glyph-name="hyphen" unicode="-" 
d="M491 342q0 -43 -31 -74.5t-75 -31.5h-260q-44 0 -75 31t-31 75t31 75t75 31h260q44 0 75 -31t31 -75z" />
    <glyph glyph-name="hyphen" unicode="&#x2010;" 
d="M491 342q0 -43 -31 -74.5t-75 -31.5h-260q-44 0 -75 31t-31 75t31 75t75 31h260q44 0 75 -31t31 -75z" />
    <glyph glyph-name="period" unicode="." horiz-adv-x="253" 
d="M233 107q0 -44 -31.5 -75t-75.5 -31t-75 31t-31 75t31 75.5t75 31.5t75.5 -31.5t31.5 -75.5z" />
    <glyph glyph-name="slash" unicode="/" 
d="M477 526l-258 -471q-30 -55 -93 -55q-27 0 -51 13q-55 31 -55 93q0 27 13 51l258 471q30 54 93 54q27 0 51 -13q55 -31 55 -93q0 -27 -13 -50z" />
    <glyph glyph-name="zero" unicode="0" 
d="M490 235q0 -97 -69 -166t-166 -69t-166 69t-69 166v213q0 97 69 166t166 69t166 -69t69 -166v-213zM278 235v213q0 23 -23 23t-23 -23v-213q0 -23 23 -23t23 23z" />
    <glyph glyph-name="one" unicode="1" horiz-adv-x="365" 
d="M342 106q0 -44 -31 -75t-75 -31t-75 31t-31 75v361q0 4 -3 4q-43 1 -73.5 31.5t-30.5 74.5t31 75t75 31h107q44 0 75 -31t31 -75v-471z" />
    <glyph glyph-name="two" unicode="2" 
d="M490 107q0 -44 -31 -75t-75 -31h-257q-69 0 -97 62q-9 21 -9 44q0 39 26 69l220 250q1 2 4 5q7 9 7 17q0 9 -7.5 16t-15.5 7q-11 0 -17 -7t-6 -16q0 -44 -31 -75t-75 -31t-75 31t-31 75q0 98 68.5 166.5t166.5 68.5q97 0 166 -69t69 -166q0 -86 -69 -166l-55 -64
q-4 -5 2 -5h16q44 0 75 -31t31 -75z" />
    <glyph glyph-name="three" unicode="3" 
d="M490 236q0 -98 -68.5 -166.5t-166.5 -68.5t-166.5 68.5t-68.5 166.5q0 43 30.5 74t74.5 32q-43 0 -74 31t-31 74q0 98 69 167t166 69t166 -69t69 -167q0 -53 -25 -103q-1 -3 0 -4q25 -50 25 -104zM278 236q0 9 -6 15l-8 6q-37 28 -39 77q-1 2 -1 6q0 44 31 75l16 16
q7 6 7 16q0 12 -7 18t-16 6t-16 -6t-7 -18q0 -43 -30.5 -74t-74.5 -31q44 -1 74.5 -32t30.5 -74q0 -12 7 -17.5t16 -5.5t16 5.5t7 17.5z" />
    <glyph glyph-name="four" unicode="4" 
d="M489 106q0 -43 -31 -74.5t-75 -31.5t-75 31t-31 75v21q0 3 -3 4h-147q-66 0 -95 58q-11 22 -11 47q0 36 21 64l256 341q32 42 85 42q44 0 75 -31t31 -75v-471z" />
    <glyph glyph-name="five" unicode="5" 
d="M490 235q0 -97 -68.5 -166t-166.5 -69h-129q-44 0 -75 31t-31 75t31 75t75 31h129q23 0 23 24q0 23 -23 23h-129q-43 0 -74.5 31.5t-31.5 74.5v212q0 44 31.5 75t74.5 31h258q44 0 75 -31t31 -75t-31 -75.5t-75 -31.5h-73q-3 0 -4 -3q0 -2 3 -3q78 -19 129 -83t51 -146z
" />
    <glyph glyph-name="six" unicode="6" 
d="M490 235q0 -62 -31 -117t-86.5 -87t-119.5 -32q-61 0 -116 31.5t-86 86.5t-31 117q0 46 17 88q0 1 119 295q27 66 98 66q21 0 40 -8q66 -27 66 -98q0 -20 -8 -40l-30 -73q0 -3 2 -5q26 -8 47 -20q56 -32 87.5 -86t31.5 -118zM277 241q-2 9 -11 14q-21 12 -31 -9
q-3 -4 -3 -11q0 -14 10 -19.5t19 -3.5q5 2 14 11q4 8 2 18z" />
    <glyph glyph-name="seven" unicode="7" 
d="M486 553l-109 -471q-9 -36 -38 -59t-65 -23q-44 0 -75 31t-31 75q0 11 3 24l77 337q2 4 -3 4h-117q-44 0 -75 31t-31 75t30.5 75t75.5 31h254q44 0 75 -31.5t31 -75.5q0 -12 -2 -23z" />
    <glyph glyph-name="eight" unicode="8" 
d="M490 236q0 -97 -68.5 -166t-166.5 -69q-97 0 -166 69t-69 166q0 53 24 104q1 1 0 4q-24 50 -24 104q0 97 69 166t166 69t166 -69t69 -166q0 -54 -24 -104q-1 -3 0 -4q24 -51 24 -104zM278 448q0 23 -23 23t-23 -23q0 -24 23 -24t23 24zM278 236q0 23 -23 23t-23 -23
t23 -23t23 23z" />
    <glyph glyph-name="nine" unicode="9" 
d="M473 360q0 -1 -119 -294q-27 -67 -98 -67q-21 0 -40 8q-66 27 -66 98q0 21 8 40l30 74q0 4 -2 4q-27 8 -47 20q-55 32 -87 86.5t-32 117.5q0 62 31.5 117.5t85.5 87t118 31.5q61 0 117 -31t87 -86t31 -118q0 -45 -17 -88zM278 448q0 14 -10.5 20t-18.5 2q-9 -2 -13.5 -10
t-2.5 -18q2 -8 11 -14q12 -7 23 0t11 20z" />
    <glyph glyph-name="colon" unicode=":" horiz-adv-x="253" 
d="M233 365q0 -44 -31.5 -75t-75.5 -31t-75 31t-31 75t31 75.5t75 31.5t75.5 -31.5t31.5 -75.5zM233 107q0 -44 -31.5 -75t-75.5 -31t-75 31t-31 75t31 75.5t75 31.5t75.5 -31.5t31.5 -75.5z" />
    <glyph glyph-name="semicolon" unicode=";" horiz-adv-x="253" 
d="M233 365q0 -44 -31.5 -75t-75.5 -31t-75 31t-31 75t31 75.5t75 31.5t75.5 -31.5t31.5 -75.5zM233 1q0 -22 -15.5 -37.5t-37.5 -15.5q-21 0 -36.5 14.5t-16.5 34.5q0 3 -3 4q-43 1 -73.5 31.5t-30.5 74.5t31 75.5t75 31.5t75.5 -31.5t31.5 -75.5v-106z" />
    <glyph glyph-name="less" unicode="&#x3c;" 
d="M478 107q0 -44 -31 -75t-75 -31t-75 31l-234 235q-31 31 -31 75t31 75l234 234q31 31 75 31t75 -31t31 -75t-31 -75l-157 -157q-2 -2 0 -5l157 -157q31 -31 31 -75z" />
    <glyph glyph-name="equal" unicode="=" 
d="M488 472q0 -44 -31 -75t-75 -31h-254q-44 0 -75 31t-31 75t31 75t75 31h254q44 0 75 -31t31 -75zM488 213q0 -44 -31 -75t-75 -31h-254q-44 0 -75 31t-31 75t31 75t75 31h254q44 0 75 -31t31 -75z" />
    <glyph glyph-name="greater" unicode="&#x3e;" 
d="M478 342q0 -44 -31 -75l-234 -235q-31 -31 -75 -31t-75 31t-31 75t31 75l157 157q2 3 0 5l-157 157q-31 31 -31 75t31 75t75 31t75 -31l234 -234q31 -31 31 -75z" />
    <glyph glyph-name="question" unicode="?" 
d="M490 448q0 -96 -67 -165t-163 -71q42 -2 72 -32.5t30 -73.5q0 -44 -31.5 -75t-75.5 -31q-43 0 -74.5 31.5t-31.5 74.5t30 73.5t73 32.5q-43 2 -73 32.5t-30 73.5q0 44 31 75t75 31q23 0 23 24q0 23 -23 23h-129q-44 0 -75 31t-31 75t31 75t75 31h129q97 0 166 -69
t69 -166z" />
    <glyph glyph-name="at" unicode="@" horiz-adv-x="723" 
d="M468 342q0 -44 -31.5 -75t-75.5 -31q-43 0 -74.5 31.5t-31.5 74.5q0 44 31 75.5t75 31.5t75.5 -31.5t31.5 -75.5zM702 342q0 -43 -31 -74.5t-75 -31.5t-75 31t-31 75q0 53 -37.5 91t-90.5 38t-91 -38t-38 -91t38 -90.5t91 -37.5q44 0 75 -31t31 -75q0 -43 -31 -74.5
t-75 -31.5q-141 0 -241 100t-100 240q0 141 100 241t241 100q140 0 240 -100t100 -241z" />
    <glyph glyph-name="A" unicode="A" 
d="M490 106q0 -44 -31 -75t-75 -31q-43 0 -74.5 31.5t-31.5 74.5v69q0 3 -3 3h-40q-3 0 -3 -3v-69q0 -43 -31 -74.5t-75 -31.5t-75 31t-31 75v342q0 98 69 166.5t166 68.5q98 0 166.5 -68.5t68.5 -166.5v-342zM278 345v103q0 23 -23 23t-23 -23v-103q0 -4 3 -4h40q3 0 3 4z
" />
    <glyph glyph-name="B" unicode="B" 
d="M490 235q0 -98 -69 -167t-166 -69h-129q-44 0 -75 31t-31 75v472q0 44 31 75t75 31h129q97 0 166 -69t69 -166q0 -55 -25 -105v-4q25 -50 25 -104zM278 448q0 23 -23 23h-20q-3 0 -3 -3v-40q0 -3 3 -3h20q23 0 23 23zM278 236q0 23 -23 23h-20q-3 0 -3 -3v-40q0 -3 3 -3
h20q23 0 23 23z" />
    <glyph glyph-name="C" unicode="C" 
d="M490 236q0 -98 -69 -167t-166 -69t-166 69t-69 167v212q0 97 69 166t166 69t166 -69t69 -166q0 -44 -31 -75t-75 -31q44 0 75 -31t31 -75zM384 342q-44 0 -75 31t-31 75q0 23 -23 23t-23 -23v-212q0 -24 23 -24t23 24q0 44 31.5 75t74.5 31z" />
    <glyph glyph-name="D" unicode="D" 
d="M490 236q0 -98 -69 -167t-166 -69h-129q-44 0 -75 31t-31 75v471q0 44 31 75t75 31h129q97 0 166 -69t69 -166v-212zM278 236v212q0 23 -23 23h-20q-3 0 -3 -3v-252q0 -4 3 -4h20q23 0 23 24z" />
    <glyph glyph-name="E" unicode="E" 
d="M490 106q0 -44 -31 -75t-75 -31h-258q-44 0 -75 31t-31 75v471q0 44 31 75t75 31h258q44 0 75 -31t31 -75t-31 -75t-75 -31h-149q-3 0 -3 -3v-40q0 -3 3 -3h129q35 0 59.5 -24.5t24.5 -58.5t-24.5 -59t-59.5 -25h-129q-3 0 -3 -3v-39q0 -4 3 -4h149q44 0 75 -31t31 -75z
" />
    <glyph glyph-name="F" unicode="F" 
d="M490 577q0 -44 -31 -75t-75 -31h-149q-3 0 -3 -3v-40q0 -3 3 -3h129q35 0 59.5 -24.5t24.5 -58.5t-24.5 -59t-59.5 -25h-129q-3 0 -3 -3v-149q0 -43 -31 -74.5t-75 -31.5t-75 31t-31 75v471q0 44 31 75t75 31h258q44 0 75 -31t31 -75z" />
    <glyph glyph-name="G" unicode="G" 
d="M490 236q0 -98 -69 -167t-166 -69t-166 69t-69 167v212q0 97 69 166t166 69h129q44 0 75 -31t31 -75t-31 -75t-75 -31h-129q-23 0 -23 -23v-212q0 -24 23 -24t23 24v82q0 44 31 75t75 31t75 -31t31 -75v-82z" />
    <glyph glyph-name="H" unicode="H" 
d="M490 106q0 -44 -31 -75t-75 -31q-43 0 -74.5 31.5t-31.5 74.5v149q0 3 -3 3h-40q-3 0 -3 -3v-149q0 -43 -31 -74.5t-75 -31.5t-75 31t-31 75v471q0 44 31 75t75 31t75 -31t31 -75v-149q0 -3 3 -3h40q3 0 3 3v149q0 44 31.5 75t74.5 31q44 0 75 -31t31 -75v-471z" />
    <glyph glyph-name="I" unicode="I" horiz-adv-x="253" 
d="M233 106q0 -43 -31 -74.5t-75 -31.5t-75.5 31t-31.5 75v471q0 44 31.5 75t74.5 31q44 0 75.5 -31t31.5 -75v-471z" />
    <glyph glyph-name="J" unicode="J" 
d="M490 236q0 -98 -69 -167t-166 -69t-166 69t-69 167v82q0 44 31 75t75 31t75 -31t31 -75v-82q0 -24 23 -24t23 24v341q0 44 31 75t75 31t75 -31t31 -75v-341z" />
    <glyph glyph-name="K" unicode="K" 
d="M490 106q0 -57 -48 -88q-27 -17 -58 -17q-57 0 -88 47l-58 89q-6 6 -6 -2v-29q0 -43 -31 -74.5t-75 -31.5t-75 31t-31 75v471q0 44 31 75t75 31t75 -31t31 -75v-29q0 -2 2 -3q3 0 4 2l58 88q32 48 89 48q31 0 57 -17q48 -32 48 -89q0 -32 -17 -58l-115 -175v-4l115 -176
q17 -26 17 -58z" />
    <glyph glyph-name="L" unicode="L" 
d="M490 106q0 -44 -31 -75t-75 -31h-129q-97 0 -166 69t-69 167v341q0 44 31 75t75 31t75 -31t31 -75v-341q0 -24 23 -24h130q43 0 74 -31t31 -75z" />
    <glyph glyph-name="M" unicode="M" horiz-adv-x="770" 
d="M750 106q0 -43 -31 -74.5t-75 -31.5t-75 31t-31 75v342q0 23 -24 23q-23 0 -23 -23v-341q0 -45 -30.5 -76t-75.5 -31q-44 0 -75 31t-31 75v342q0 23 -23 23q-24 0 -24 -23v-341q0 -44 -31 -75t-75 -31t-75 31t-31 75v341q0 97 69 166t167 69q68 0 127 -38h4q59 38 127 38
q98 0 167 -69t69 -166v-342z" />
    <glyph glyph-name="N" unicode="N" 
d="M490 106q0 -44 -31 -75t-75 -31q-43 0 -74.5 31.5t-31.5 74.5v342q0 23 -23 23t-23 -23v-341q0 -44 -31 -75t-75 -31t-75 31t-31 75v341q0 98 69 166.5t166 68.5q98 0 166.5 -68.5t68.5 -166.5v-342z" />
    <glyph glyph-name="O" unicode="O" 
d="M490 236q0 -98 -69 -167t-166 -69t-166 69t-69 167v212q0 98 69 166.5t166 68.5q98 0 166.5 -68.5t68.5 -166.5v-212zM278 236v212q0 23 -23 23t-23 -23v-212q0 -24 23 -24t23 24z" />
    <glyph glyph-name="P" unicode="P" 
d="M490 448q0 -98 -69 -167t-166 -69h-20q-3 0 -3 -3v-103q0 -43 -31 -74.5t-75 -31.5t-75 31t-31 75v342q0 97 69 166t166 69t166 -69t69 -166zM278 448q0 23 -23 23t-23 -23q0 -24 23 -24t23 24z" />
    <glyph glyph-name="Q" unicode="Q" 
d="M490 236q0 -114 -88 -184q-2 -2 -1 -4q11 -22 11 -46q0 -44 -31 -75t-75 -31t-75 31l-147 147q-64 64 -64 162v212q0 98 69 166.5t166 68.5q98 0 166.5 -68.5t68.5 -166.5v-212zM278 236v212q0 23 -23 23t-23 -23v-212q0 -24 23 -24t23 24z" />
    <glyph glyph-name="R" unicode="R" 
d="M490 448q0 -63 -30.5 -116t-81.5 -84q-4 -2 -1 -5l61 -60q31 -30 31 -75q0 -44 -31 -75t-75 -31q-43 0 -75 31l-55 54q-5 5 -5 -2q-8 -37 -36 -61t-66 -24q-44 0 -75 31t-31 75v342q0 97 69 166t166 69t166 -69t69 -166zM277 448q0 23 -23 23t-23 -23q0 -24 23 -24t23 24
z" />
    <glyph glyph-name="S" unicode="S" 
d="M490 236q0 -98 -69 -167t-166 -69t-166 69t-69 167q0 48 37 80q1 1 1 4q-38 59 -38 128q0 97 69 166t166 69t166 -69t69 -166q0 -49 -37 -80q-1 -2 -1 -5q38 -59 38 -127z" />
    <glyph glyph-name="T" unicode="T" 
d="M490 577q0 -44 -31 -75t-75 -31h-20q-3 0 -3 -3v-362q0 -44 -31 -75t-75 -31t-75 31t-31 75v362q-1 3 -3 3h-20q-44 0 -75 31t-31 75t31 75t75 31h258q44 0 75 -31t31 -75z" />
    <glyph glyph-name="U" unicode="U" 
d="M490 236q0 -98 -69 -167t-166 -69t-166 69t-69 167v341q0 44 31 75t75 31t75 -31t31 -75v-341q0 -24 23 -24t23 24v341q0 44 31 75t75 31t75 -31t31 -75v-341z" />
    <glyph glyph-name="V" unicode="V" 
d="M486 549l-129 -471q-9 -34 -37.5 -56t-64.5 -22t-64.5 22t-37.5 56l-129 471q-4 14 -4 29q0 44 31 75t75 31q35 0 63.5 -22t38.5 -57l24 -87q1 -2 3 -2t3 2l24 87q10 35 38.5 57t63.5 22q44 0 75 -31t31 -75q0 -15 -4 -29z" />
    <glyph glyph-name="W" unicode="W" horiz-adv-x="771" 
d="M750 236q0 -98 -69 -167t-166 -69q-69 0 -128 38q-1 2 -3 0q-59 -38 -128 -38q-97 0 -166 69t-69 167v341q0 44 31 75t75 31t75 -31t31 -75v-341q0 -24 23 -24t23 24v341q0 44 31 75t75 31t75.5 -31t31.5 -75v-341q0 -24 23 -24t23 24v341q0 44 31 75t75 31t75 -31
t31 -75v-341z" />
    <glyph glyph-name="X" unicode="X" 
d="M477 157q13 -24 13 -51q0 -63 -55 -93q-24 -13 -51 -13q-63 0 -93 55l-33 61q-1 1 -3 1t-3 -1l-33 -61q-30 -55 -93 -55q-27 0 -51 13q-55 30 -55 93q0 27 13 51l100 183q1 1 0 4l-100 182q-13 24 -13 51q0 63 55 93q24 13 51 13q63 0 93 -55l33 -61q1 -1 3 -1t3 1l33 61
q30 55 93 55q27 0 51 -13q55 -30 55 -93q0 -27 -13 -51l-100 -182q-1 -3 0 -4z" />
    <glyph glyph-name="Y" unicode="Y" 
d="M490 366q0 -67 -34.5 -123t-92.5 -86q-2 -1 -2 -3v-48q0 -44 -31 -75t-75 -31t-75 31t-31 75v48q-1 3 -2 3q-58 30 -92.5 86t-34.5 123v211q0 44 31 75t75 31t75 -31t31 -75v-211q0 -23 23 -23t23 23v211q0 44 31 75t75 31t75 -31t31 -75v-211z" />
    <glyph glyph-name="Z" unicode="Z" 
d="M490 106q0 -43 -31 -74.5t-75 -31.5h-258q-60 0 -91 52q-15 25 -15 54q0 27 13 51l169 309q3 5 -3 5h-73q-44 0 -75 31t-31 75t31.5 75t74.5 31h258q60 0 91 -52q15 -25 15 -54q0 -27 -13 -51l-169 -309q-3 -5 3 -5h73q44 0 75 -31t31 -75z" />
    <glyph glyph-name="bracketleft" unicode="[" horiz-adv-x="423" 
d="M376 107q0 -44 -31 -75t-75 -31t-75 31l-117 118q-31 31 -31 75v234q0 44 31 75l117 117q31 31 75 31t75 -31t31 -75t-31 -75l-84 -84q-1 -1 -2 -4v-142q0 -2 2 -4l84 -85q31 -31 31 -75z" />
    <glyph glyph-name="backslash" unicode="\" 
d="M477 157q13 -24 13 -51q0 -62 -55 -93q-24 -13 -51 -13q-63 0 -93 55l-258 471q-13 23 -13 50q0 62 55 93q24 13 51 13q63 0 93 -54z" />
    <glyph glyph-name="bracketright" unicode="]" horiz-adv-x="423" 
d="M376 225q0 -44 -31 -75l-117 -118q-31 -31 -75 -31t-75 31t-31 75t31 75l84 85q2 1 2 4v142q0 1 -2 3l-84 85q-31 31 -31 75t31 75t75 31t75 -31l117 -117q31 -31 31 -75v-234z" />
    <glyph glyph-name="asciicircum" unicode="^" horiz-adv-x="444" 
d="M424 577q0 -44 -31 -75t-75 -31h-62q-23 0 -23 -23l-1 -235q0 -44 -31 -75t-75 -31t-75 31.5t-31 74.5l1 235q0 97 69 166t166 69h62q44 0 75 -31t31 -75z" />
    <glyph glyph-name="underscore" unicode="_" 
d="M490 107q0 -44 -31 -75t-75 -31h-258q-44 0 -75 31t-31 75t31.5 75t74.5 31h258q44 0 75 -31t31 -75z" />
    <glyph glyph-name="grave" unicode="`" horiz-adv-x="444" 
d="M423 236q0 -97 -68.5 -166t-166.5 -69h-61q-44 0 -75 31t-31 75t31 75t75 31h61q23 0 23 23v235q0 44 31.5 75t74.5 31q44 0 75 -31t31 -75v-235z" />
    <glyph glyph-name="a" unicode="a" 
d="M490 106q0 -44 -31 -75t-75 -31h-129q-97 0 -166 69t-69 167q0 97 69 166t166 69t166 -69t69 -166v-130zM278 236q0 23 -23 23t-23 -23t23 -23t23 23z" />
    <glyph glyph-name="b" unicode="b" 
d="M490 236q0 -98 -69 -167t-166 -69t-166 69t-69 167v341q0 44 31 75t75 31t75 -31t31 -75v-103q0 -3 3 -3h20q97 0 166 -69t69 -166zM277 236q0 23 -23 23t-23 -23t23 -23t23 23z" />
    <glyph glyph-name="c" unicode="c" 
d="M490 106q0 -44 -31 -75t-75 -31h-129q-97 0 -166 69t-69 167q0 97 69 166t166 69h129q44 0 75 -31t31 -75t-31 -75t-75 -31h-129q-23 0 -23 -23q0 -24 23 -24h129q44 0 75 -31t31 -75z" />
    <glyph glyph-name="d" unicode="d" 
d="M490 236q0 -98 -69 -167t-166 -69t-166 69t-69 167q0 97 69 166t166 69h20q3 0 3 3v103q0 44 31.5 75t74.5 31q44 0 75 -31t31 -75v-341zM279 236q0 23 -23 23t-23 -23t23 -23t23 23z" />
    <glyph glyph-name="e" unicode="e" 
d="M490 106q0 -43 -31 -74.5t-75 -31.5h-129q-97 0 -166 69.5t-69 166.5t69 166t166 69h129q71 0 98 -65q8 -19 8 -41q0 -44 -31 -75l-72 -72q-6 -6 2 -6q42 -2 71.5 -32.5t29.5 -73.5z" />
    <glyph glyph-name="f" unicode="f" horiz-adv-x="407" 
d="M387 237q0 -44 -31.5 -75t-75.5 -31h-44q-4 0 -4 -3v-22q0 -44 -31 -75t-75 -31t-75 31t-31 75v284q0 99 71 170l92 92q31 31 75 31t75 -31t31 -75t-31 -75l-92 -92q-9 -7 -9 -20v-43q0 -4 4 -4h45q44 0 75 -31t31 -75z" />
    <glyph glyph-name="g" unicode="g" 
d="M490 80q0 -100 -70 -170l-92 -92q-31 -31 -75 -31t-75 31t-31 75t31 75l33 33q5 5 -2 5q-82 17 -135.5 81t-53.5 149q0 98 69 166.5t166 68.5q98 0 166.5 -68.5t68.5 -166.5v-156zM278 236q0 23 -23 23t-23 -23q0 -24 23 -24t23 24z" />
    <glyph glyph-name="h" unicode="h" 
d="M490 106q0 -44 -31 -75t-75 -31q-43 0 -74.5 31.5t-31.5 74.5v130q0 23 -23 23t-23 -23v-130q0 -43 -31 -74.5t-75 -31.5t-75 31t-31 75v471q0 44 31 75t75 31t75 -31t31 -75v-104q0 -3 3 -3q7 1 20 1q97 0 166 -69t69 -166v-130z" />
    <glyph glyph-name="i" unicode="i" horiz-adv-x="253" 
d="M233 106q0 -43 -31 -74.5t-75 -31.5t-75 31t-31 75v259q0 44 31 75t75 31q-44 0 -75.5 31t-31.5 75t31.5 75t75.5 31t75 -31t31 -75q0 -43 -31 -74.5t-75 -31.5q44 0 75 -31t31 -75v-259z" />
    <glyph glyph-name="j" unicode="j" horiz-adv-x="384" 
d="M364 80q0 -99 -70 -169l-93 -93q-31 -31 -75 -31t-75 31t-31 75t31 75l93 92q8 10 8 20v285q0 44 31 75t75 31q-44 0 -75.5 31t-31.5 75t31.5 75t75.5 31t75 -31t31 -75q0 -43 -31 -74.5t-75 -31.5q44 0 75 -31t31 -75v-285z" />
    <glyph glyph-name="k" unicode="k" 
d="M490 364q0 -37 -24 -66l-49 -60q-2 -2 0 -4l49 -62q23 -29 23 -66q0 -52 -39 -83q-29 -23 -66 -23q-51 0 -83 40l-63 78q-1 2 -4 1q-2 -1 -2 -3v-10q0 -44 -31 -75t-75 -31q-43 0 -74.5 31.5t-31.5 74.5v471q0 44 31.5 75t74.5 31q44 0 75 -31t31 -75v-222q0 -8 6 -2
l63 78q32 40 83 40q37 0 66 -24q40 -33 40 -83z" />
    <glyph glyph-name="l" unicode="l" horiz-adv-x="253" 
d="M233 106q0 -43 -31 -74.5t-75 -31.5t-75.5 31t-31.5 75v471q0 44 31.5 75t74.5 31q44 0 75.5 -31t31.5 -75v-471z" />
    <glyph glyph-name="m" unicode="m" horiz-adv-x="770" 
d="M750 106q0 -44 -31 -75t-75 -31t-75 31t-31 75v130q0 23 -24 23q-23 0 -23 -23v-129q0 -45 -30.5 -76t-75.5 -31q-44 0 -75 31t-31 75v130q0 23 -23 23q-24 0 -24 -23v-129q0 -44 -31 -75t-75 -31t-75 31t-31 75v129q0 97 69 166t167 69q68 0 127 -38h4q59 38 127 38
q98 0 167 -69t69 -166v-130z" />
    <glyph glyph-name="n" unicode="n" 
d="M490 106q0 -44 -31 -75t-75 -31t-75 31t-31 75v130q0 23 -23 23t-23 -23v-130q0 -43 -31 -74.5t-75 -31.5t-75 31t-31 75v130q0 98 69 166.5t166 68.5q98 0 166.5 -68.5t68.5 -166.5v-130z" />
    <glyph glyph-name="o" unicode="o" 
d="M490 236q0 -98 -69 -167t-166 -69t-166 69t-69 167q0 97 69 166t166 69t166 -69t69 -166zM278 236q0 23 -23 23t-23 -23q0 -24 23 -24t23 24z" />
    <glyph glyph-name="p" unicode="p" 
d="M490 235q0 -97 -68.5 -166t-166.5 -69h-20q-3 0 -3 -4v-102q0 -44 -31 -75t-75 -31t-75 31t-31 75v341q0 98 69 166.5t166 68.5q98 0 166.5 -68.5t68.5 -166.5zM277 235q0 23 -23 23t-23 -23q0 -24 23 -24t23 24z" />
    <glyph glyph-name="q" unicode="q" 
d="M490 -106q0 -44 -31 -75t-75 -31t-75 31t-31 75v102q0 4 -3 4h-20q-97 0 -166 69t-69 166q0 98 69 166.5t166 68.5q98 0 166.5 -68.5t68.5 -166.5v-341zM279 235q0 23 -23 23t-23 -23q0 -24 23 -24t23 24z" />
    <glyph glyph-name="r" unicode="r" horiz-adv-x="429" 
d="M409 365q0 -44 -31 -75t-75 -31h-48q-23 0 -23 -23v-130q0 -44 -31 -75t-75 -31t-75 31t-31 75v130q0 97 69 166t166 69h48q44 0 75 -31t31 -75z" />
    <glyph glyph-name="s" unicode="s" 
d="M490 106q0 -22 -8 -41q-27 -65 -98 -65h-258q-44 0 -75 31t-31 75q0 43 29.5 73.5t71.5 32.5q7 0 2 5l-72 73q-31 31 -31 74q0 22 8 41q27 65 98 65h258q44 0 75 -31t31 -75q0 -42 -29.5 -73t-71.5 -32q-6 -2 -2 -6l72 -72q31 -31 31 -75z" />
    <glyph glyph-name="t" unicode="t" horiz-adv-x="443" 
d="M423 106q0 -44 -31 -75t-75 -31h-62q-97 0 -166 69t-69 166v340q0 44 31 75t75 31t75 -31t31 -75v-101q0 -3 4 -3h81q44 0 75 -31t31 -75t-31 -75t-75 -31h-82q-3 -1 -3 -4v-20q0 -23 23 -23h62q44 0 75 -31t31 -75z" />
    <glyph glyph-name="u" unicode="u" 
d="M490 235q0 -97 -68.5 -166t-166.5 -69q-97 0 -166 69t-69 166v130q0 44 31 75t75 31t75 -31t31 -75v-130q0 -23 23 -23t23 23v129q0 44 31 75t75 31t75 -31t31 -75v-129z" />
    <glyph glyph-name="v" unicode="v" 
d="M479 317l-130 -259q-30 -60 -95 -59q-67 1 -95 59l-128 260q-11 22 -11 47q0 66 59 95q22 11 47 11q66 0 95 -59l31 -63q0 -1 3 -2q2 1 3 2l31 63q29 59 95 59q25 0 48 -11q58 -29 58 -95q0 -25 -11 -48z" />
    <glyph glyph-name="w" unicode="w" horiz-adv-x="771" 
d="M750 235q0 -98 -69 -167t-166 -69q-69 0 -128 38q-1 2 -3 0q-59 -38 -128 -38q-97 0 -166 69t-69 167v130q0 44 31 75t75 31t75 -31t31 -75v-130q0 -24 23 -24t23 24v129q0 20 9 41q28 66 98 66q44 0 75 -31t31 -75v-130q0 -24 23 -24t23 24v130q0 44 31.5 75t74.5 31
q44 0 75 -31t31 -75v-130z" />
    <glyph glyph-name="x" unicode="x" 
d="M459 180q31 -31 31 -75t-31.5 -74.5t-73.5 -30.5q-44 0 -76 31l-52 51l-2 2l-2 -2l-52 -51q-32 -31 -76 -31q-42 0 -73.5 30.5t-31.5 74.5t31 75l52 53q1 1 1 2q0 2 -1 3l-52 52q-31 31 -31 74q0 44 31.5 75.5t74.5 31.5q44 0 75 -31l52 -52q2 -2 4 0l52 52q31 31 75 31
q43 0 74.5 -31.5t31.5 -75.5q0 -43 -31 -74l-52 -52q-1 -1 -1 -3q0 -1 1 -2z" />
    <glyph glyph-name="y" unicode="y" 
d="M490 79q0 -99 -70 -169l-92 -92q-31 -31 -75 -31t-75 31t-31 75t31 75l33 33q2 1 1 3t-3 2q-81 16 -135 80.5t-54 149.5v130q0 43 31 74t75 31t75 -31t31 -74v-130q0 -23 23 -23t23 23v129q0 44 31 75t75 31t75 -31t31 -75v-286z" />
    <glyph glyph-name="z" unicode="z" 
d="M490 106q0 -44 -31 -75t-75 -31h-258q-71 0 -98 65q-8 19 -8 41q0 44 31 75l72 72q6 6 -2 6q-42 1 -71.5 32t-29.5 74q0 44 31.5 75t74.5 31h258q71 0 98 -66q8 -19 8 -40q0 -44 -31 -75l-72 -73q-5 -5 2 -5q42 -2 71.5 -32.5t29.5 -73.5z" />
    <glyph glyph-name="braceleft" unicode="{" 
d="M497 107q0 -44 -31 -75t-75 -31t-75 31l-117 118q-31 31 -31 75v7q0 4 -3 4h-46q-44 0 -75 31t-31 75t31 75t75 31h46q3 0 3 3v8q0 44 31 75l117 117q31 31 75 31t75 -31t31 -75t-31 -75l-84 -84q-1 -1 -2 -4v-142q0 -2 2 -4l84 -85q31 -31 31 -75z" />
    <glyph glyph-name="bar" unicode="|" horiz-adv-x="253" 
d="M180 54q0 -22 -15.5 -37.5t-37.5 -15.5q-23 0 -38.5 15.5t-15.5 37.5v576q0 22 15.5 37.5t37.5 15.5t38 -15.5t16 -37.5v-576z" />
    <glyph glyph-name="braceright" unicode="}" horiz-adv-x="528" 
d="M506 342q0 -44 -31 -75t-75 -31h-46q-3 0 -3 -4v-7q0 -44 -31 -75l-117 -118q-31 -31 -75 -31t-75 31t-31 75t31 75l84 85q2 2 2 4v142l-2 4l-84 84q-31 31 -31 75t31 75t75 31t75 -31l117 -117q31 -31 31 -75v-8q0 -3 3 -3h46q44 0 75 -31t31 -75z" />
    <glyph glyph-name="asciitilde" unicode="~" horiz-adv-x="548" 
d="M499 507l-72 -82q-31 -36 -79 -36q-28 0 -52 14l-70 40q-3 0 -4 -1l-16 -18q-30 -34 -76 -34q-43 0 -74 29q-34 31 -34 77q0 42 29 73l75 80q31 33 77 33q28 0 52 -13l68 -38q2 0 4 1l14 15q33 35 80 35q39 0 69 -26q36 -31 36 -79q0 -40 -27 -70z" />
    <glyph glyph-name="bullet" unicode="&#x2022;" horiz-adv-x="253" 
d="M233 365q0 -44 -31.5 -75t-75.5 -31t-75 31t-31 75t31 75.5t75 31.5t75.5 -31.5t31.5 -75.5z" />
    <glyph glyph-name="yen" unicode="&#xa5;" 
d="M490 211q0 -44 -31 -75t-75 -31h-20q-2 0 -3 -3q-2 -43 -32.5 -72.5t-73.5 -29.5t-73.5 29.5t-32.5 72.5q-1 3 -3 3h-20q-44 0 -75 31t-31 75q0 63 56 93q3 1 1 5q-57 65 -57 153v115q0 44 31 75t75 31t75 -31t31 -75v-115q0 -24 23 -24t23 24v115q0 44 31 75t75 31
t75 -31t31 -75v-115q0 -88 -57 -153q-2 -4 1 -5q56 -30 56 -93z" />
    <glyph glyph-name="questiondown" unicode="&#xbf;" 
d="M490 106q0 -44 -31 -75t-75 -31h-129q-97 0 -166 69t-69 166q0 96 67 165t163 71q-42 2 -72 32.5t-30 73.5q0 44 31.5 75t75.5 31t75 -31t31 -75q0 -43 -30 -73.5t-73 -32.5q43 -2 73 -32.5t30 -73.5q0 -44 -31 -75t-75 -31q-23 0 -23 -24q0 -23 23 -23h129q44 0 75 -31
t31 -75z" />
    <glyph glyph-name="exclamdown" unicode="&#xa1;" horiz-adv-x="212" 
d="M212 106q0 -44 -31 -75t-75 -31t-75 31t-31 75v259q0 44 31 75t75 31q-43 0 -74.5 31.5t-31.5 74.5q0 44 31 75t75 31t75 -31t31 -75t-31 -75t-75 -31q44 0 75 -31t31 -75v-259z" />
    <glyph glyph-name="ellipsis" unicode="&#x2026;" 
d="M490 107q0 -44 -31 -75t-75 -31h-258q-44 0 -75 31t-31 75t31.5 75t74.5 31h258q44 0 75 -31t31 -75z" />
    <glyph glyph-name="endash" unicode="&#x2013;" 
d="M491 342q0 -43 -31 -74.5t-75 -31.5h-260q-44 0 -75 31t-31 75t31 75t75 31h260q44 0 75 -31t31 -75z" />
    <glyph glyph-name="emdash" unicode="&#x2014;" 
d="M491 342q0 -43 -31 -74.5t-75 -31.5h-260q-44 0 -75 31t-31 75t31 75t75 31h260q44 0 75 -31t31 -75z" />
    <glyph glyph-name="fraction" unicode="&#x2044;" 
d="M477 526l-258 -471q-30 -55 -93 -55q-27 0 -51 13q-55 31 -55 93q0 27 13 51l258 471q30 54 93 54q27 0 51 -13q55 -31 55 -93q0 -27 -13 -50z" />
    <glyph glyph-name="periodcentered" unicode="&#xb7;" horiz-adv-x="253" 
d="M233 365q0 -44 -31.5 -75t-75.5 -31t-75 31t-31 75t31 75.5t75 31.5t75.5 -31.5t31.5 -75.5z" />
    <glyph glyph-name="periodcentered" unicode="&#x2219;" horiz-adv-x="253" 
d="M233 365q0 -44 -31.5 -75t-75.5 -31t-75 31t-31 75t31 75.5t75 31.5t75.5 -31.5t31.5 -75.5z" />
    <glyph glyph-name="trademark" unicode="&#x2122;" horiz-adv-x="1366" 
d="M1343 106q0 -44 -31 -75t-75 -31t-75 31t-31 75v130q0 23 -23 23t-23 -23v-130q0 -43 -31.5 -74.5t-74.5 -31.5q-44 0 -75 31t-31 75v130q0 23 -24 23q-23 0 -23 -23v-130q0 -44 -31 -75t-75 -31t-75 31t-31 75v130q0 97 69 166t166 69q69 0 128 -38q1 -1 4 0
q57 38 127 38q97 0 166 -69t69 -166v-130zM598 365q0 -44 -31 -75t-75 -31h-72q-3 0 -4 -3v-150q0 -44 -31 -75t-75 -31t-75 31t-31 75v150q-1 3 -3 3h-72q-44 0 -75 31t-31 75t31 75t75 31h363q44 0 75 -31t31 -75z" />
    <glyph glyph-name="nonbreakingspace" unicode="&#xa0;" horiz-adv-x="154" 
 />
    <glyph glyph-name="copyright" unicode="&#xa9;" horiz-adv-x="722" 
d="M701 341q0 -141 -99.5 -240.5t-240.5 -99.5t-240.5 99.5t-99.5 240.5t99.5 240.5t240.5 99.5t240.5 -99.5t99.5 -240.5zM489 341q0 53 -37.5 90.5t-90.5 37.5t-90.5 -37.5t-37.5 -90.5t37.5 -90.5t90.5 -37.5t90.5 37.5t37.5 90.5zM465 323q-6 -34 -29 -57
q-30 -31 -74 -31t-74.5 31t-30.5 74t30.5 74t74.5 31t74 -31q23 -23 29 -57q0 -5 -4 -5h-58q-4 0 -6 5q-11 22 -35 22q-16 0 -28 -11.5t-12 -27.5t11.5 -27.5t28.5 -11.5q16 0 28 11q3 4 7 12q2 4 6 4h58q4 0 4 -5z" />
    <glyph glyph-name="minus" unicode="&#xad;" 
d="M491 342q0 -43 -31 -74.5t-75 -31.5h-260q-44 0 -75 31t-31 75t31 75t75 31h260q44 0 75 -31t31 -75z" />
    <glyph glyph-name="minus" unicode="&#x2212;" 
d="M491 342q0 -43 -31 -74.5t-75 -31.5h-260q-44 0 -75 31t-31 75t31 75t75 31h260q44 0 75 -31t31 -75z" />
    <glyph glyph-name="registered" unicode="&#xae;" horiz-adv-x="722" 
d="M701 342q0 -141 -99.5 -241t-240.5 -100t-240.5 100t-99.5 241q0 140 99.5 240t240.5 100t240.5 -100t99.5 -240zM489 342q0 53 -37.5 90.5t-90.5 37.5t-90.5 -37.5t-37.5 -90.5t37.5 -91t90.5 -38t90.5 38t37.5 91zM438 369q0 -25 -21 -49l-1 -2q0 1 16 -28q5 -9 5 -15
q0 -29 -29 -29q-17 0 -25 14l-25 42q-2 2 -3 2q-2 0 -2 -2v-27q0 -29 -29 -29t-29 29v133q0 29 29 29h46q28 0 48 -20t20 -48zM380 369q0 10 -10 10h-14q-3 0 -3 -2v-15q0 -3 3 -3h14q10 0 10 10z" />
    <glyph glyph-name="threesuperior" unicode="&#xb3;" 
d="M490 106q0 -44 -31 -75t-75 -31t-75 31t-31 75v20q0 3 -3 3h-84q-70 0 -120.5 50.5t-50.5 120.5q0 71 50.5 121t120.5 50h128q64 0 112 -43t57 -106q2 -14 2 -22v-194z" />
    <glyph glyph-name="onesuperior" unicode="&#xb9;" 
d="M480 324l-108 -259q-27 -65 -98 -65q-21 0 -41 8q-65 27 -65 98q0 22 8 41l45 107q2 5 -3 5h-90q-44 0 -75 31t-31 75t31 75t75 31h254q58 0 89 -47q17 -26 17 -58q0 -22 -8 -42z" />
    <glyph glyph-name="onequarter" unicode="&#xbc;" 
d="M490 170q0 -70 -50 -120t-121 -50h-128q-69 0 -120 50.5t-51 119.5v195q0 44 31.5 75t74.5 31q44 0 75 -31t31 -75v-21q0 -3 3 -3h84q71 0 121 -50t50 -121z" />
    <glyph glyph-name="onehalf" unicode="&#xbd;" 
d="M490 171q0 -70 -50 -120.5t-121 -50.5h-193q-44 0 -75 31t-31 75q0 33 23 63q1 1 0 4q-23 28 -23 62v130q0 44 31.5 75t74.5 31h258q44 0 75 -31t31 -75q0 -48 -41 -82q-3 -3 0 -4q41 -51 41 -108z" />
    <glyph glyph-name="threequarters" unicode="&#xbe;" 
d="M490 170q0 -70 -50 -120t-121 -50h-128q-71 0 -121 50t-50 120q0 29 12 63q2 2 0 4q-12 33 -12 62q0 71 50.5 121t120.5 50h128q71 0 121 -50t50 -121q0 -29 -12 -62q-2 -2 0 -4q12 -34 12 -63z" />
    <glyph glyph-name="Udieresis" unicode="&#xdc;" horiz-adv-x="617" 
d="M583 157q13 -24 13 -51q0 -44 -31 -75t-74 -31q-34 0 -62 20q-1 1 -4 0q-46 -20 -96 -20h-137q-71 0 -121 50t-50 121q0 34 12 62q2 2 0 4q-12 30 -12 63q0 71 50 120.5t121 49.5h121q44 0 75 -31t31 -75t-31 -75t-75 -31h-14q-5 0 -3 -4q2 -12 2 -19t-2 -19q-2 -4 3 -4
h30q12 0 20 8l66 67q31 31 75 31t74.5 -30.5t31.5 -74.5q0 -28 -13 -52q-2 -2 0 -4z" />
    <glyph glyph-name="ecircumflex" unicode="&#xea;" 
d="M490 236q0 -98 -69 -167t-166 -69t-166 69t-69 167q0 97 69 166t166 69t166 -69t69 -166zM278 236q0 23 -23 23t-23 -23q0 -24 23 -24t23 24z" />
    <glyph glyph-name="edieresis" unicode="&#xeb;" horiz-adv-x="253" 
d="M233 106q0 -43 -31 -74.5t-75 -31.5t-75.5 31t-31.5 75v258q0 44 31 75t75 31t75.5 -31t31.5 -75v-258z" />
    <glyph glyph-name="igrave" unicode="&#xec;" 
d="M490 171q0 -71 -50 -121t-121 -50h-193q-44 0 -75 31t-31 75t31 75t75 31h21q4 0 4 4q-2 6 -2 19t2 19q0 4 -4 4h-21q-44 0 -75 31t-31 75t31 75t75 31h193q71 0 121 -50t50 -120q0 -29 -12 -63q-2 -2 0 -4q12 -33 12 -62z" />
    <glyph glyph-name="iacute" unicode="&#xed;" 
d="M490 106q0 -43 -31 -74.5t-75 -31.5h-258q-71 0 -98 66q-8 19 -8 40q0 44 32 76l70 70q6 6 -2 6q-42 2 -71 33t-29 73q0 44 31 75.5t75 31.5h258q71 0 98 -66q8 -19 8 -41q0 -43 -32 -75l-70 -71q-4 -5 2 -5q42 -3 71 -33.5t29 -73.5z" />
    <glyph glyph-name="icircumflex" unicode="&#xee;" 
d="M490 106q0 -44 -30.5 -75t-75.5 -31q-42 0 -72 29t-33 70q0 3 -3 3h-150q-50 0 -82 38q-24 30 -24 68q0 10 1 19l29 157q7 38 37 62.5t68 24.5q43 0 74.5 -31t31.5 -75q0 -8 -2 -19l-5 -28q-2 -4 3 -4h18q3 0 3 3v48q0 44 31.5 75t74.5 31q45 0 75.5 -31t30.5 -75v-259z
" />
    <glyph glyph-name="idieresis" unicode="&#xef;" 
d="M490 171q0 -70 -50 -120.5t-121 -50.5h-193q-44 0 -75 31t-31 75q0 33 23 63q1 1 0 4q-23 28 -23 62v130q0 44 31.5 75t74.5 31h258q44 0 75 -31t31 -75q0 -48 -41 -82q-3 -3 0 -4q41 -51 41 -108z" />
    <glyph glyph-name="ntilde" unicode="&#xf1;" 
d="M490 170q0 -70 -50 -120t-121 -50h-128q-69 0 -120 50.5t-51 119.5v195q0 44 31.5 75t74.5 31q44 0 75 -31t31 -75v-21q0 -3 3 -3h84q71 0 121 -50t50 -121z" />
    <glyph glyph-name="ograve" unicode="&#xf2;" 
d="M490 170q0 -70 -50 -120t-121 -50h-128q-71 0 -121 50t-50 120q0 29 12 63q2 2 0 4q-12 33 -12 62q0 71 50.5 121t120.5 50h128q71 0 121 -50t50 -121q0 -29 -12 -62q-2 -2 0 -4q12 -34 12 -63z" />
    <glyph glyph-name="oacute" unicode="&#xf3;" 
d="M480 324l-108 -259q-27 -65 -98 -65q-21 0 -41 8q-65 27 -65 98q0 22 8 41l45 107q2 5 -3 5h-90q-44 0 -75 31t-31 75t31 75t75 31h254q58 0 89 -47q17 -26 17 -58q0 -22 -8 -42z" />
    <glyph glyph-name="ocircumflex" unicode="&#xf4;" 
d="M490 106q0 -44 -31 -75t-75 -31t-75 31t-31 75v20q0 3 -3 3h-84q-70 0 -120.5 50.5t-50.5 120.5q0 71 50.5 121t120.5 50h128q64 0 112 -43t57 -106q2 -14 2 -22v-194z" />
    <glyph glyph-name="divide" unicode="&#xf7;" 
d="M371 576q0 -44 -31 -75t-75 -31t-75.5 31t-31.5 75t31.5 75.5t75.5 31.5t75 -31.5t31 -75.5zM491 342q0 -43 -31 -74.5t-75 -31.5h-260q-44 0 -75 31t-31 75t31 75t75 31h260q44 0 75 -31t31 -75zM371 107q0 -44 -31 -75.5t-75 -31.5t-75.5 31.5t-31.5 75.5t31.5 75
t75.5 31t75 -31t31 -75z" />
    <glyph glyph-name="DLE" 
d="M490 236q0 -98 -69 -167t-166 -69t-166 69t-69 167q0 97 69 166t166 69t166 -69t69 -166zM278 236q0 23 -23 23t-23 -23q0 -24 23 -24t23 24z" />
    <glyph glyph-name="DC1" horiz-adv-x="253" 
d="M233 106q0 -43 -31 -74.5t-75 -31.5t-75.5 31t-31.5 75v258q0 44 31 75t75 31t75.5 -31t31.5 -75v-258z" />
    <glyph glyph-name="DC2" 
d="M490 106q0 -43 -31 -74.5t-75 -31.5h-258q-71 0 -98 66q-8 19 -8 40q0 44 32 76l70 70q6 6 -2 6q-42 2 -71 33t-29 73q0 44 31 75.5t75 31.5h258q71 0 98 -66q8 -19 8 -41q0 -43 -32 -75l-70 -71q-4 -5 2 -5q42 -3 71 -33.5t29 -73.5z" />
    <glyph glyph-name="DC3" 
d="M490 171q0 -71 -50 -121t-121 -50h-193q-44 0 -75 31t-31 75t31 75t75 31h21q4 0 4 4q-2 6 -2 19t2 19q0 4 -4 4h-21q-44 0 -75 31t-31 75t31 75t75 31h193q71 0 121 -50t50 -120q0 -29 -12 -63q-2 -2 0 -4q12 -33 12 -62z" />
    <glyph glyph-name="DC4" 
d="M490 106q0 -44 -30.5 -75t-75.5 -31q-42 0 -72 29t-33 70q0 3 -3 3h-150q-50 0 -82 38q-24 30 -24 68q0 10 1 19l29 157q7 38 37 62.5t68 24.5q43 0 74.5 -31t31.5 -75q0 -8 -2 -19l-5 -28q-2 -4 3 -4h18q3 0 3 3v48q0 44 31.5 75t74.5 31q45 0 75.5 -31t30.5 -75v-259z
" />
    <glyph glyph-name="infinity" unicode="&#x221e;" horiz-adv-x="722" 
d="M702 342q0 -98 -69 -167t-166 -69q-56 0 -104 25h-4q-48 -25 -104 -25q-97 0 -166 69t-69 167q0 97 69 166t166 69q54 0 104 -24q2 -2 4 0q50 24 104 24q97 0 166 -69t69 -166zM490 342q0 23 -23 23t-23 -23t23 -23t23 23zM278 342q0 23 -23 23t-23 -23t23 -23t23 23z
" />
    <glyph glyph-name="lozenge" unicode="&#x25ca;" horiz-adv-x="722" 
d="M701 341q0 -141 -99.5 -240.5t-240.5 -99.5t-240.5 99.5t-99.5 240.5t99.5 240.5t240.5 99.5t240.5 -99.5t99.5 -240.5zM489 341q0 53 -37.5 90.5t-90.5 37.5t-90.5 -37.5t-37.5 -90.5t37.5 -90.5t90.5 -37.5t90.5 37.5t37.5 90.5z" />
    <glyph glyph-name="apple" unicode="&#xf000;" horiz-adv-x="771" 
d="M738 338q0 -135 -89.5 -235.5t-222.5 -115.5q-15 0 -22.5 4t-11.5 15l-40 120q-6 19 13 19h22q84 0 145 61t61 149q0 89 -59 148t-147 59h-289q-25 0 -45 18t-20 46q0 27 18 45.5t46 18.5h289q146 0 249 -103t103 -249zM466 355q0 -33 -21.5 -58t-57.5 -25h-67
q-20 0 -26 18l-8 23q-15 43 -60 43q-26 0 -45 -19t-19 -45q0 -11 4 -21l78 -221q1 -4 1 -7q0 -17 -18 -17q-6 0 -12 3q-83 46 -132.5 128.5t-49.5 180.5v35q0 25 17.5 43.5t44.5 18.5h292q37 0 58 -22t21 -58z" />
  </font>
</defs>
</svg>
